<svg width="20" height="18" viewBox="0 0 20 18" version="1.1" xmlns="http://www.w3.org/2000/svg"><g id="Page-1" stroke="none" stroke-width="1" fill="none" fill-rule="evenodd"><g id="Home-Logo-1---d-Copy-15" transform="translate(-1123 -53)" fill="#FFF" fill-rule="nonzero"><path d="M1139.375 70.125c.51 0 .946-.183 1.311-.548a1.79 1.79 0 00.548-1.311c0-.355-.094-.681-.282-.98a1.798 1.798 0 00-.78-.68l.199-.83a.804.804 0 00-.166-.665.724.724 0 00-.598-.298h-8.931l-.2-1.063h9.729a.77.77 0 00.764-.63l1.56-6.907a.72.72 0 00-.133-.664.757.757 0 00-.63-.299h-13.05l-.298-1.494a.843.843 0 00-.282-.448.727.727 0 00-.482-.183h-3.42a.768.768 0 00-.564.232.768.768 0 00-.233.565v.531c0 .222.078.41.233.565a.768.768 0 00.564.232h2.325l2.324 11.389c-.288.177-.515.41-.68.697a1.83 1.83 0 00-.25.93c0 .509.183.946.548 1.311a1.79 1.79 0 001.311.548c.51 0 .947-.183 1.312-.548.365-.365.548-.808.548-1.328s-.188-.957-.565-1.311h6.973a1.73 1.73 0 00-.564 1.311c0 .52.182.963.547 1.328a1.79 1.79 0 001.312.548z" id=""/></g></g></svg>