<svg width="18" height="14" viewBox="0 0 18 14" version="1.1" xmlns="http://www.w3.org/2000/svg"><g id="Page-1" stroke="none" stroke-width="1" fill="none" fill-rule="evenodd"><g id="Home-Logo-1---d-Copy-26" transform="translate(-925 -1265)" fill="#30ABA7" fill-rule="nonzero"><g id="Group-12" transform="translate(72.5 812.667)"><g id="Group-3-Copy" transform="translate(27.75 32.783)"><g id="Group-3" transform="translate(574 408.05)"><g id="яБо-copy" transform="translate(250.75 11.5)"><path d="M9 0C6.473 0 4.451 1.15 2.98 2.519 1.518 3.875.54 5.5.077 6.616a.994.994 0 000 .768C.54 8.5 1.518 10.125 2.98 11.481 4.452 12.85 6.474 14 9 14c2.524 0 4.546-1.15 6.018-2.519 1.462-1.36 2.44-2.981 2.906-4.097a.994.994 0 000-.768C17.46 5.5 16.48 3.875 15.018 2.519 13.546 1.15 11.524 0 8.999 0zM4.5 7a4.5 4.5 0 119 0 4.5 4.5 0 01-9 0zM9 5a2.002 2.002 0 01-2.635 1.897c-.172-.056-.372.05-.366.231A3.002 3.002 0 109.127 4c-.18-.006-.287.19-.23.366.065.2.102.412.102.634z" id="Shape"/></g></g></g></g></g></g></svg>