<?xml version="1.0" encoding="UTF-8"?>
<svg width="18px" height="14px" viewBox="0 0 18 14" version="1.1" xmlns="http://www.w3.org/2000/svg" xmlns:xlink="http://www.w3.org/1999/xlink">
    <title> copy</title>
    <g id="Page-1" stroke="none" stroke-width="1" fill="none" fill-rule="evenodd">
        <g id="Home-Logo-1---d-Copy-26" transform="translate(-925, -1265)" fill="#30ABA7" fill-rule="nonzero">
            <g id="Group-12" transform="translate(72.5, 812.6674)">
                <g id="Group-3-Copy" transform="translate(27.75, 32.7827)">
                    <g id="Group-3" transform="translate(574, 408.05)">
                        <g id="-copy" transform="translate(250.7508, 11.5)">
                            <path d="M8.9992193,0 C6.4742192,0 4.4523443,1.14999962 2.98046911,2.51875019 C1.51796901,3.875 0.539843917,5.5 0.0773438215,6.6156249 C-0.0257812738,6.86249971 -0.0257812738,7.13749981 0.0773438215,7.38437462 C0.539843917,8.5 1.51796901,10.125 2.98046911,11.4812498 C4.4523443,12.8500004 6.4742192,14 8.9992193,14 C11.5242189,14 13.5460943,12.8500004 15.0179695,11.4812498 C16.4804701,10.1218748 17.4585947,8.5 17.9242185,7.38437462 C18.0273432,7.13749981 18.0273432,6.86249971 17.9242185,6.61562443 C17.4585928,5.5 16.4804682,3.875 15.0179685,2.51874924 C13.5460943,1.14999962 11.5242189,0 8.9992193,0 Z M4.4992193,7 C4.4992193,5.3923049 5.3569144,3.90673256 6.7492193,3.1028862 C8.14152372,2.29903793 9.85691488,2.29903793 11.2492193,3.1028862 C12.6415237,3.90673256 13.4992193,5.3923049 13.4992193,7 C13.4992193,8.60769558 12.6415237,10.0932665 11.2492193,10.8971148 C9.85691488,11.7009621 8.14152372,11.7009621 6.7492193,10.8971148 C5.3569144,10.0932665 4.4992193,8.60769558 4.4992193,7 Z M8.9992193,5 C8.9992193,6.1031251 8.10234392,7 6.9992193,7 C6.77734411,7 6.56484449,6.9625001 6.3648442,6.8968749 C6.1929692,6.84062481 5.99296939,6.9468751 5.9992193,7.12812519 C6.00859439,7.34375 6.03984439,7.55937481 6.0992192,7.77500057 C6.52734411,9.37500095 8.17421949,10.3250008 9.77421892,9.89687538 C11.3742183,9.46875 12.3242191,7.82187557 11.8960937,6.22187519 C11.5492185,4.92500019 10.4023441,4.05312538 9.12734354,4 C8.94609392,3.99374962 8.83984315,4.19062519 8.89609373,4.36562538 C8.96171892,4.56562424 8.99921834,4.77812481 8.99921834,5 L8.9992193,5 Z" id="Shape"></path>
                        </g>
                    </g>
                </g>
            </g>
        </g>
    </g>
</svg>