<svg width="506" height="115" viewBox="0 0 506 115" version="1.1" xmlns="http://www.w3.org/2000/svg" xmlns:xlink="http://www.w3.org/1999/xlink"><defs><path id="path-1" d="M0 0h505.182v7.026H0z"/></defs><g id="Page-1" stroke="none" stroke-width="1" fill="none" fill-rule="evenodd"><g id="About-Us" transform="translate(-364 -3222)"><g id="Group-4" transform="translate(364 3223.496)"><g id="Group-3-Copy-5" transform="translate(0 48)"><mask id="mask-2" fill="#fff"><use xlink:href="#path-1"/></mask><path d="M23.426 2.932c8.755-.51 16.902-1.013 25.609-.25C65.454 4.122 81.829 5.49 98.317 5.07c16.029-.409 32.067-.786 48.084-1.576 8.103-.4 16.372-1.456 24.464-.681 8.272.792 16.564 1.826 24.864 2.272 16.899.908 33.95 2.566 50.858 1.697 17.408-.894 34.02-2.315 51.139-2.081 16.406.226 32.819.042 49.226-.063 15.86-.102 31.506-.744 47.335.432 15.908 1.181 31.763.717 47.668-.421 16.44-1.177 32.863-.556 49.732-1.382l12.138-.595c1.484-.073 1.952-2.701.38-2.624-8.092.396-16.203 1.017-24.302 1.191-8.284.178-16.597-.422-24.876-.112C438.21 1.758 422.87 3.783 406 3.324c-8.48-.231-16.925-1.619-25.404-1.873-8.304-.249-16.698.408-25.006.558-16.544.301-33.104.193-49.65.2-7.841.003-15.696-.442-23.534-.301-7.466.133-15.514 1.184-22.628 1.629-7.248.453-15.57 1.288-23.17 1.04-8.175-.267-16.35-.845-24.52-1.272-8.083-.423-16.152-.771-24.21-1.534-8.104-.768-16.275-2.113-24.417-1.691-16.588.86-33.167 1.623-49.77 2.155-16.818.539-33.26.675-50.063-.42C55.7 1.298 47.572-.108 39.635.093c-8.646.219-17.086 1.508-25.633 1.531-4.457.013-8.915.021-13.372.031-.685.001-.908 1.2-.175 1.208 7.642.088 15.339.513 22.97.069z" id="Fill-1" fill="#BFB047" mask="url(#mask-2)"/></g><g id="Group-2-Copy" transform="translate(199.5)"><path id="Rectangle" stroke="#A89934" stroke-width="2" fill="#FFF" d="M.5 0h106v112H.5z"/><path d="M38.095 31.97v-3.69h4.59v-1.41h-4.59v-1.59l.45-.45h4.8v-1.41H36.58v8.55h1.515zm13.515.21c.675 0 1.11-.24 1.83-.884l-.675-.99c-.45.345-.63.495-.84.495-.3 0-.36-.195-.36-.48v-2.595c0-1.305-.795-2.325-2.7-2.325-1.335 0-2.655.39-3.675 1.29l.735 1.23c.795-.72 1.77-1.17 2.775-1.17 1.08 0 1.41.36 1.41.915v.06l-2.97.75c-1.38.345-2.085 1.02-2.085 1.98 0 1.125.84 1.725 2.13 1.725 1.02 0 1.875-.48 2.565-.945h.465c.24.585.795.945 1.395.945zm-4.215-1.26c-.465 0-.75-.18-.75-.6 0-.404.39-.63.795-.734l2.325-.57.345.21v.435c-.84.66-1.83 1.26-2.715 1.26zm9.24 1.05v-3.09c1.095-1.29 1.875-2.04 2.655-2.04.825 0 1.125.66 1.335 1.44l1.395-.614c-.345-1.335-1.08-2.265-2.445-2.265-.99 0-1.845.555-2.595 1.38h-.345v-1.17h-1.53v6.36h1.53zm8.295 0v-3.72c.435-.75.78-1.394 1.23-1.394.42 0 .465.405.465.81v4.305h1.485v-3.72c.435-.75.78-1.395 1.23-1.395.42 0 .465.405.465.81v4.305h1.485v-4.83c0-.975-.54-1.74-1.455-1.74-.72 0-1.2.45-1.575.93h-.285c-.21-.54-.615-.93-1.245-.93-.72 0-1.17.45-1.545.93h-.255v-.72h-1.485v6.36h1.485zM49.795 57.566c1.2 0 2.31-.645 3.045-1.68l-.915-1.05c-.645.855-1.185 1.35-2.115 1.35-1.05 0-1.455-.69-1.455-1.785v-1.74l.375-.375h2.79v-1.29h-3.15v-2.19h-1.545v2.19H44.95v1.29h1.5l.375.375v1.95c0 2.055 1.23 2.955 2.97 2.955zm8.31 0c2.085 0 3.66-1.47 3.66-3.39 0-1.92-1.575-3.39-3.66-3.39s-3.66 1.47-3.66 3.39c0 1.92 1.575 3.39 3.66 3.39zm0-1.38c-1.26 0-2.085-.84-2.085-2.01s.825-2.01 2.085-2.01 2.085.84 2.085 2.01-.825 2.01-2.085 2.01zM28.885 82.74v-3.69h4.59v-1.41h-4.59v-1.59l.45-.45h4.8v-1.41H27.37v8.55h1.515zm10.875-7.545c.75 0 1.305-.555 1.305-1.26 0-.75-.555-1.305-1.305-1.305-.705 0-1.26.555-1.26 1.305 0 .705.555 1.26 1.26 1.26zm3.435 7.545v-1.26h-2.07l-.39-.39v-4.71h-4.26v1.26h2.52l.39.39v3.06l-.39.39h-2.52v1.26h6.72zm4.05 0v-3.465c.585-.9 1.29-1.71 2.19-1.71.99 0 1.275.66 1.275 1.545v3.63h1.53v-3.96c0-1.695-1.08-2.61-2.58-2.61-.84 0-1.56.375-2.055.93h-.36v-.72h-1.53v6.36h1.53zm10.935-7.545c.75 0 1.305-.555 1.305-1.26 0-.75-.555-1.305-1.305-1.305-.705 0-1.26.555-1.26 1.305 0 .705.555 1.26 1.26 1.26zm3.435 7.545v-1.26h-2.07l-.39-.39v-4.71h-4.26v1.26h2.52l.39.39v3.06l-.39.39h-2.52v1.26h6.72zm5.865.21c1.635 0 3.165-.72 3.165-2.055 0-1.05-.735-1.605-1.74-1.785l-2.4-.42c-.54-.09-.885-.195-.885-.57 0-.42.66-.585 1.44-.585 1.065 0 1.74.285 2.565.84l.69-1.32c-.855-.555-1.95-.885-3.165-.885-1.65 0-3.015.72-3.015 2.04 0 1.23.975 1.68 2.085 1.875l2.115.36c.555.09.825.195.825.555 0 .435-.825.615-1.635.615-1.155 0-1.95-.285-2.985-1.02l-.735 1.395c1.065.645 2.46.96 3.675.96zm7.395-.21v-3.465c.585-.9 1.29-1.71 2.19-1.71.99 0 1.275.66 1.275 1.545v3.63h1.53v-3.96c0-1.695-1.08-2.61-2.58-2.61-.84 0-1.56.375-2.055.93h-.36v-3.555h-1.53v9.195h1.53z" id="FarmtoFinish" fill="#A89934" fill-rule="nonzero"/></g></g></g></g></svg>