<svg width="86" height="77" viewBox="0 0 86 77" version="1.1" xmlns="http://www.w3.org/2000/svg"><g id="Page-1" stroke="none" stroke-width="1" fill="none" fill-rule="evenodd"><g id="Home-Logo-1---d-Copy-15" transform="translate(-22 -23)"><g id="Group" transform="translate(23.448 25.555)"><path d="M25.952 23.086v-3.74h4.65v-1.428h-4.65v-1.611l.456-.456h4.864v-1.43h-6.856v8.665h1.536zm13.695.213c.684 0 1.125-.244 1.854-.897l-.684-1.003c-.456.35-.638.501-.851.501-.304 0-.365-.197-.365-.486v-2.63c0-1.322-.805-2.356-2.736-2.356-1.353 0-2.69.395-3.724 1.307l.745 1.247c.806-.73 1.794-1.186 2.812-1.186 1.094 0 1.429.365 1.429.927v.061l-3.01.76c-1.398.35-2.113 1.034-2.113 2.007 0 1.14.852 1.748 2.159 1.748 1.033 0 1.9-.487 2.599-.958h.471c.243.593.806.958 1.414.958zm-4.271-1.277c-.472 0-.76-.183-.76-.608 0-.41.395-.639.805-.745l2.356-.578.35.213v.44c-.851.67-1.855 1.278-2.751 1.278zm9.363 1.064v-3.131c1.11-1.308 1.9-2.068 2.69-2.068.836 0 1.14.67 1.353 1.46l1.414-.624c-.35-1.352-1.095-2.295-2.478-2.295-1.003 0-1.87.563-2.63 1.399h-.35V16.64h-1.55v6.445h1.55zm8.405 0v-3.77c.441-.76.79-1.413 1.247-1.413.425 0 .47.41.47.82v4.363h1.506v-3.77c.44-.76.79-1.413 1.246-1.413.426 0 .471.41.471.82v4.363h1.505V18.19c0-.988-.547-1.763-1.474-1.763-.73 0-1.216.456-1.596.943h-.29c-.212-.548-.622-.943-1.26-.943-.73 0-1.186.456-1.566.943h-.259v-.73H51.64v6.445h1.504zM42.441 38.834v-3.206h3.192V33.86H42.44v-3.19h-1.759v3.191h-3.206v1.767h3.206v3.206h1.76zM18.55 56.16c1.657 0 2.72-.79 3.572-2.28l-1.277-.973c-.638 1.049-1.292 1.733-2.31 1.733-1.642 0-2.432-1.353-2.432-3.025s.79-3.025 2.432-3.025c1.018 0 1.672.684 2.31 1.733l1.277-.973c-.851-1.49-1.915-2.28-3.572-2.28-2.265 0-4.073 1.854-4.073 4.545 0 2.69 1.808 4.545 4.073 4.545zm9.09-7.859c.76 0 1.322-.562 1.322-1.277 0-.76-.562-1.322-1.322-1.322-.715 0-1.277.562-1.277 1.322 0 .715.562 1.277 1.277 1.277zm3.48 7.646V54.67h-2.097l-.395-.395v-4.773H24.31v1.277h2.554l.395.395v3.1l-.395.396H24.31v1.277h6.81zm5.077.213c.928 0 1.703-.396 2.083-.806h.365v.593h1.55V46.63h-1.55v3.466h-.365c-.38-.41-1.155-.806-2.083-.806-1.945 0-3.328 1.52-3.328 3.435 0 1.916 1.383 3.436 3.328 3.436zm.213-1.384c-1.2 0-1.945-.896-1.945-2.052 0-1.155.744-2.052 1.945-2.052 1.003 0 1.718.624 2.265 1.399v1.307c-.547.775-1.262 1.398-2.265 1.398zm10.063 1.384c1.11 0 2.219-.41 3.344-1.308l-.76-1.033c-.852.638-1.657.942-2.584.942-1.247 0-1.961-.593-2.25-1.292l.304-.213h5.502c0-1.945-1.17-3.967-3.739-3.967-2.113 0-3.678 1.49-3.678 3.435 0 1.946 1.565 3.436 3.86 3.436zm1.58-4.104h-3.526l-.274-.198c.35-.775 1.17-1.186 2.037-1.186.882 0 1.58.472 1.9 1.064l-.137.32zm6.02 3.89v-3.13c1.11-1.308 1.9-2.068 2.69-2.068.836 0 1.14.67 1.353 1.46l1.413-.624c-.35-1.352-1.094-2.295-2.477-2.295-1.003 0-1.87.563-2.63 1.399h-.35v-1.186h-1.55v6.445h1.55zm8.542 3.071c1.566 0 2.31-1.322 3.116-2.888l3.405-6.627h-1.718l-2.265 4.575h-.456l-2.264-4.575h-1.748l3.465 6.794c-.471.897-.851 1.308-1.52 1.308-.471 0-.76-.213-1.094-.836l-1.201.881c.517 1.003 1.383 1.368 2.28 1.368z" id="Farm+Cidery" fill="#FFF" fill-rule="nonzero"/><g id="Group-4" transform="translate(.678)" stroke="#FFF" stroke-width="2.4"><path id="Rectangle" d="M0 0h81.882v72H0z"/></g></g></g></g></svg>