<?xml version="1.0" encoding="UTF-8"?>
<svg width="506px" height="115px" viewBox="0 0 506 115" version="1.1" xmlns="http://www.w3.org/2000/svg" xmlns:xlink="http://www.w3.org/1999/xlink">
    <title>Group 4</title>
    <defs>
        <polygon id="path-1" points="0.000241944371 -0.000155336993 505.182 -0.000155336993 505.182 7.02641197 0.000241944371 7.02641197"></polygon>
    </defs>
    <g id="Page-1" stroke="none" stroke-width="1" fill="none" fill-rule="evenodd">
        <g id="About-Us" transform="translate(-364.000000, -3222.000000)">
            <g id="Group-4" transform="translate(364.000000, 3223.495751)">
                <g id="Group-3-Copy-5" transform="translate(0.000000, 48.000000)">
                    <mask id="mask-2" fill="white">
                        <use xlink:href="#path-1"></use>
                    </mask>
                    <g id="Clip-2"></g>
                    <path d="M23.4258,2.93199 C32.1808,2.42199 40.3278,1.91899 49.0348,2.68199 C65.4538,4.12199 81.8288,5.48999 98.3168,5.06999 C114.3458,4.66099 130.3838,4.28399 146.4008,3.49399 C154.5038,3.09399 162.7728,2.03799 170.8648,2.81299 C179.1368,3.60499 187.4288,4.63899 195.7288,5.08499 C212.6278,5.99299 229.6798,7.65099 246.5868,6.78199 C263.9948,5.88799 280.6068,4.46699 297.7258,4.70099 C314.1318,4.92699 330.5448,4.74299 346.9518,4.63799 C362.8128,4.53599 378.4578,3.89399 394.2868,5.06999 C410.1948,6.25099 426.0498,5.78699 441.9548,4.64899 C458.3948,3.47199 474.8178,4.09299 491.6868,3.26699 C495.7328,3.06799 499.7788,2.86999 503.8248,2.67199 C505.3088,2.59899 505.7768,-0.02901 504.2048,0.04799 C496.1128,0.44399 488.0018,1.06499 479.9028,1.23899 C471.6188,1.41699 463.3058,0.81699 455.0268,1.12699 C438.2108,1.75799 422.8708,3.78299 405.9998,3.32399 C397.5208,3.09299 389.0748,1.70499 380.5958,1.45099 C372.2918,1.20199 363.8978,1.85899 355.5898,2.00899 C339.0458,2.30999 322.4858,2.20199 305.9398,2.20899 C298.0988,2.21199 290.2438,1.76699 282.4058,1.90799 C274.9398,2.04099 266.8918,3.09199 259.7778,3.53699 C252.5298,3.98999 244.2088,4.82499 236.6088,4.57699 C228.4328,4.30999 220.2588,3.73199 212.0888,3.30499 C204.0048,2.88199 195.9358,2.53399 187.8778,1.77099 C179.7738,1.00299 171.6028,-0.34201 163.4608,0.07999 C146.8728,0.93999 130.2938,1.70299 113.6918,2.23499 C96.8728,2.77399 80.4318,2.90999 63.6278,1.81499 C55.7008,1.29799 47.5718,-0.10801 39.6348,0.09299 C30.9888,0.31199 22.5488,1.60099 14.0018,1.62399 C9.5448,1.63699 5.0868,1.64499 0.6298,1.65499 C-0.0552,1.65599 -0.2782,2.85499 0.4548,2.86299 C8.0968,2.95099 15.7938,3.37599 23.4258,2.93199 Z" id="Fill-1" fill="#BFB047" mask="url(#mask-2)"></path>
                </g>
                <g id="Group-2-Copy" transform="translate(199.500000, 0.000000)">
                    <rect id="Rectangle" stroke="#A89934" stroke-width="2" fill="#FFFFFF" x="0.5" y="0" width="106" height="112"></rect>
                    <path d="M38.095,31.9705882 L38.095,28.2805882 L42.685,28.2805882 L42.685,26.8705882 L38.095,26.8705882 L38.095,25.2805882 L38.545,24.8305882 L43.345,24.8305882 L43.345,23.4205882 L36.58,23.4205882 L36.58,31.9705882 L38.095,31.9705882 Z M51.61,32.1805882 C52.285,32.1805882 52.72,31.9405882 53.44,31.2955882 L52.765,30.3055882 C52.315,30.6505882 52.135,30.8005882 51.925,30.8005882 C51.625,30.8005882 51.565,30.6055882 51.565,30.3205882 L51.565,27.7255882 C51.565,26.4205882 50.77,25.4005882 48.865,25.4005882 C47.53,25.4005882 46.21,25.7905882 45.19,26.6905882 L45.925,27.9205882 C46.72,27.2005882 47.695,26.7505882 48.7,26.7505882 C49.78,26.7505882 50.11,27.1105882 50.11,27.6655882 L50.11,27.7255882 L47.14,28.4755882 C45.76,28.8205882 45.055,29.4955882 45.055,30.4555882 C45.055,31.5805882 45.895,32.1805882 47.185,32.1805882 C48.205,32.1805882 49.06,31.7005882 49.75,31.2355882 L50.215,31.2355882 C50.455,31.8205882 51.01,32.1805882 51.61,32.1805882 Z M47.395,30.9205882 C46.93,30.9205882 46.645,30.7405882 46.645,30.3205882 C46.645,29.9155882 47.035,29.6905882 47.44,29.5855882 L49.765,29.0155882 L50.11,29.2255882 L50.11,29.6605882 C49.27,30.3205882 48.28,30.9205882 47.395,30.9205882 Z M56.635,31.9705882 L56.635,28.8805882 C57.73,27.5905882 58.51,26.8405882 59.29,26.8405882 C60.115,26.8405882 60.415,27.5005882 60.625,28.2805882 L62.02,27.6655882 C61.675,26.3305882 60.94,25.4005882 59.575,25.4005882 C58.585,25.4005882 57.73,25.9555882 56.98,26.7805882 L56.635,26.7805882 L56.635,25.6105882 L55.105,25.6105882 L55.105,31.9705882 L56.635,31.9705882 Z M64.93,31.9705882 L64.93,28.2505882 C65.365,27.5005882 65.71,26.8555882 66.16,26.8555882 C66.58,26.8555882 66.625,27.2605882 66.625,27.6655882 L66.625,31.9705882 L68.11,31.9705882 L68.11,28.2505882 C68.545,27.5005882 68.89,26.8555882 69.34,26.8555882 C69.76,26.8555882 69.805,27.2605882 69.805,27.6655882 L69.805,31.9705882 L71.29,31.9705882 L71.29,27.1405882 C71.29,26.1655882 70.75,25.4005882 69.835,25.4005882 C69.115,25.4005882 68.635,25.8505882 68.26,26.3305882 L67.975,26.3305882 C67.765,25.7905882 67.36,25.4005882 66.73,25.4005882 C66.01,25.4005882 65.56,25.8505882 65.185,26.3305882 L64.93,26.3305882 L64.93,25.6105882 L63.445,25.6105882 L63.445,31.9705882 L64.93,31.9705882 Z M49.795,57.5645882 C50.995,57.5645882 52.105,56.9195882 52.84,55.8845882 L51.925,54.8345882 C51.28,55.6895882 50.74,56.1845882 49.81,56.1845882 C48.76,56.1845882 48.355,55.4945882 48.355,54.3995882 L48.355,52.6595882 L48.73,52.2845882 L51.52,52.2845882 L51.52,50.9945882 L48.37,50.9945882 L48.37,48.8045882 L46.825,48.8045882 L46.825,50.9945882 L44.95,50.9945882 L44.95,52.2845882 L46.45,52.2845882 L46.825,52.6595882 L46.825,54.6095882 C46.825,56.6645882 48.055,57.5645882 49.795,57.5645882 Z M58.105,57.5645882 C60.19,57.5645882 61.765,56.0945882 61.765,54.1745882 C61.765,52.2545882 60.19,50.7845882 58.105,50.7845882 C56.02,50.7845882 54.445,52.2545882 54.445,54.1745882 C54.445,56.0945882 56.02,57.5645882 58.105,57.5645882 Z M58.105,56.1845882 C56.845,56.1845882 56.02,55.3445882 56.02,54.1745882 C56.02,53.0045882 56.845,52.1645882 58.105,52.1645882 C59.365,52.1645882 60.19,53.0045882 60.19,54.1745882 C60.19,55.3445882 59.365,56.1845882 58.105,56.1845882 Z M28.885,82.7385882 L28.885,79.0485882 L33.475,79.0485882 L33.475,77.6385882 L28.885,77.6385882 L28.885,76.0485882 L29.335,75.5985882 L34.135,75.5985882 L34.135,74.1885882 L27.37,74.1885882 L27.37,82.7385882 L28.885,82.7385882 Z M39.76,75.1935882 C40.51,75.1935882 41.065,74.6385882 41.065,73.9335882 C41.065,73.1835882 40.51,72.6285882 39.76,72.6285882 C39.055,72.6285882 38.5,73.1835882 38.5,73.9335882 C38.5,74.6385882 39.055,75.1935882 39.76,75.1935882 Z M43.195,82.7385882 L43.195,81.4785882 L41.125,81.4785882 L40.735,81.0885882 L40.735,76.3785882 L36.475,76.3785882 L36.475,77.6385882 L38.995,77.6385882 L39.385,78.0285882 L39.385,81.0885882 L38.995,81.4785882 L36.475,81.4785882 L36.475,82.7385882 L43.195,82.7385882 Z M47.245,82.7385882 L47.245,79.2735882 C47.83,78.3735882 48.535,77.5635882 49.435,77.5635882 C50.425,77.5635882 50.71,78.2235882 50.71,79.1085882 L50.71,82.7385882 L52.24,82.7385882 L52.24,78.7785882 C52.24,77.0835882 51.16,76.1685882 49.66,76.1685882 C48.82,76.1685882 48.1,76.5435882 47.605,77.0985882 L47.245,77.0985882 L47.245,76.3785882 L45.715,76.3785882 L45.715,82.7385882 L47.245,82.7385882 Z M58.18,75.1935882 C58.93,75.1935882 59.485,74.6385882 59.485,73.9335882 C59.485,73.1835882 58.93,72.6285882 58.18,72.6285882 C57.475,72.6285882 56.92,73.1835882 56.92,73.9335882 C56.92,74.6385882 57.475,75.1935882 58.18,75.1935882 Z M61.615,82.7385882 L61.615,81.4785882 L59.545,81.4785882 L59.155,81.0885882 L59.155,76.3785882 L54.895,76.3785882 L54.895,77.6385882 L57.415,77.6385882 L57.805,78.0285882 L57.805,81.0885882 L57.415,81.4785882 L54.895,81.4785882 L54.895,82.7385882 L61.615,82.7385882 Z M67.48,82.9485882 C69.115,82.9485882 70.645,82.2285882 70.645,80.8935882 C70.645,79.8435882 69.91,79.2885882 68.905,79.1085882 L66.505,78.6885882 C65.965,78.5985882 65.62,78.4935882 65.62,78.1185882 C65.62,77.6985882 66.28,77.5335882 67.06,77.5335882 C68.125,77.5335882 68.8,77.8185882 69.625,78.3735882 L70.315,77.0535882 C69.46,76.4985882 68.365,76.1685882 67.15,76.1685882 C65.5,76.1685882 64.135,76.8885882 64.135,78.2085882 C64.135,79.4385882 65.11,79.8885882 66.22,80.0835882 L68.335,80.4435882 C68.89,80.5335882 69.16,80.6385882 69.16,80.9985882 C69.16,81.4335882 68.335,81.6135882 67.525,81.6135882 C66.37,81.6135882 65.575,81.3285882 64.54,80.5935882 L63.805,81.9885882 C64.87,82.6335882 66.265,82.9485882 67.48,82.9485882 Z M74.875,82.7385882 L74.875,79.2735882 C75.46,78.3735882 76.165,77.5635882 77.065,77.5635882 C78.055,77.5635882 78.34,78.2235882 78.34,79.1085882 L78.34,82.7385882 L79.87,82.7385882 L79.87,78.7785882 C79.87,77.0835882 78.79,76.1685882 77.29,76.1685882 C76.45,76.1685882 75.73,76.5435882 75.235,77.0985882 L74.875,77.0985882 L74.875,73.5435882 L73.345,73.5435882 L73.345,82.7385882 L74.875,82.7385882 Z" id="FarmtoFinish" fill="#A89934" fill-rule="nonzero"></path>
                </g>
            </g>
        </g>
    </g>
</svg>