<svg width="16" height="17" viewBox="0 0 16 17" version="1.1" xmlns="http://www.w3.org/2000/svg"><g id="Page-1" stroke="none" stroke-width="1" fill="none" fill-rule="evenodd"><g id="Home-Logo-1---d-Copy-26" transform="translate(-907 -1263)" fill="#30ABA7" fill-rule="nonzero"><g id="Group-12" transform="translate(72.5 812.667)"><g id="Group-3-Copy" transform="translate(27.75 32.783)"><g id="Group-3" transform="translate(574 408.05)"><g id="" transform="translate(232.747 9.869)"><path d="M7.881 3.838a4.033 4.033 0 00-4.04 4.04 4.033 4.033 0 004.04 4.04 4.033 4.033 0 004.04-4.04 4.033 4.033 0 00-4.04-4.04zm0 6.666a2.63 2.63 0 01-2.626-2.626A2.629 2.629 0 017.881 5.25a2.629 2.629 0 012.626 2.627 2.63 2.63 0 01-2.626 2.626zm5.147-6.831a.942.942 0 10-1.884 0 .942.942 0 001.884 0zm2.675.956c-.06-1.262-.348-2.38-1.272-3.301C13.51.407 12.39.118 11.13.055c-1.301-.073-5.2-.073-6.5 0-1.26.06-2.377.348-3.302 1.27-.925.92-1.21 2.039-1.273 3.3-.073 1.301-.073 5.2 0 6.501.06 1.262.348 2.38 1.273 3.301.925.921 2.04 1.21 3.301 1.273 1.301.074 5.2.074 6.5 0 1.263-.06 2.38-.348 3.302-1.273.92-.92 1.21-2.039 1.272-3.3.074-1.302.074-5.197 0-6.498zm-1.68 7.893a2.659 2.659 0 01-1.498 1.497c-1.037.412-3.498.317-4.644.317s-3.61.091-4.644-.317a2.659 2.659 0 01-1.498-1.497c-.411-1.037-.316-3.498-.316-4.644s-.091-3.61.316-4.645a2.657 2.657 0 011.498-1.497c1.037-.411 3.498-.317 4.644-.317s3.61-.091 4.644.317c.69.274 1.22.805 1.498 1.497.411 1.038.316 3.499.316 4.645 0 1.146.095 3.61-.316 4.644z" id="Shape"/></g></g></g></g></g></g></svg>