<svg width="202" height="190" viewBox="0 0 202 190" version="1.1" xmlns="http://www.w3.org/2000/svg" xmlns:xlink="http://www.w3.org/1999/xlink"><defs><path id="path-1" d="M0 0h15.914v190.95H0z"/><path id="path-3" d="M0 0h15.914v190.95H0z"/><path id="path-5" d="M0 0h15.914v179.954H0z"/><path id="path-7" d="M0 0h15.914v179.954H0z"/></defs><g id="Page-1" stroke="none" stroke-width="1" fill="none" fill-rule="evenodd"><g id="About-Us" transform="translate(-499 17)"><g id="Group" transform="translate(499 -16.794)"><path id="Rectangle" fill="#A89934" d="M5.206 5.5h191v177h-191z"/><g id="Group-3-Copy" transform="rotate(90 97.75 98.25)"><mask id="mask-2" fill="#fff"><use xlink:href="#path-1"/></mask><path d="M3.942.464c-.461 2.995-.838 5.947.23 8.934.407 1.137.804 2.273 1.24 3.41.155.402.282.807.466 1.209.062.138.145.678.191.318-.216 1.697-1.698 3.392-2.17 5.087-1.625 5.821.823 11.71.754 17.535-.019 1.559-.444 3.145.04 4.7.555 1.78 1.981 3.55 2.453 5.33.424 1.6.144 3.223.204 4.826.055 1.454.985 2.898 1.652 4.345.208.448.414.895.62 1.343.056.12.36.807.35.645-.01-.147-.2.426-.257.565l-.639 1.54c-.6 1.444-1.286 2.886-1.632 4.333-.834 3.488-.952 6.907-.808 10.4.062 1.541-.087 3.084-.146 4.626-.015.376-.003.752-.043 1.129-.042.387.108-.196-.093.265-.43.983-.82 1.967-1.23 2.95-.592 1.421-1.05 2.712-.588 4.13.502 1.543 1.263 3.093 1.409 4.64.165 1.758.656 3.55.31 5.306.085-.43-.219.25-.286.37l-.81 1.466-1.717 3.106c-.814 1.472-.165 2.988-.05 4.466l.102 1.332c.008.103.032.938.075.478-.075.783-.335 1.567-.503 2.35-.662 3.09-1.178 6.208-.164 9.299.58 1.773 1.57 3.589 2.797 5.346.287.41.156.076.123.2-.085.32-.341.643-.511.963l-1.724 3.25c-.753 1.424-.554 2.757-.31 4.193.165.962.323 1.925.494 2.887.071.4.059-.18.033.157-.03.39-.136.782-.204 1.172-.587 3.372-.91 6.737-1.171 10.111-.243 3.098-.322 6.104.65 9.193.887 2.825 1.062 5.661.918 8.492l-.164 3.222c-.02.384.015.77-.059 1.154-.075.386.245-.19-.204.286-1.447 1.54-3.596 3.302-3.57 4.875.027 1.617 1.801 3.243 2.202 4.86.374 1.506.13 3.032.192 4.54l.185 4.527c.041 1.06 6.8.647 6.763-.303-.12-3.021.384-6.074-.37-9.09-.21-.846-.763-1.695-1.144-2.538l-.688-1.525c-.08-.175-.345-.83-.37-.707-.038.19.385-.423.471-.534l1.218-1.58c.674-.872 1.619-1.755 2.032-2.634 1.43-3.04.338-6.25.152-9.31-.17-2.8-2.056-5.603-1.805-8.4.304-3.4.518-6.802.815-10.203.028-.315-.052.256.033-.217a3175.33 3175.33 0 00.792-4.5c.257-1.458-.106-2.906-.353-4.364-.137-.812-.49-1.638-.413-2.45-.035.376.143-.161.231-.315.27-.474.504-.949.757-1.423.753-1.415 2.437-2.933 1.852-4.359-.725-1.764-2.18-3.518-2.756-5.285-.54-1.654-.335-3.335-.49-4.993-.023-.248-.071-.496-.07-.743-.001.456.093-.372.114-.476.225-1.084.441-2.167.661-3.251.28-1.379.32-2.73.197-4.11-.092-1.044-.164-2.087-.278-3.13-.022-.215.073-.574-.037-.287.107-.28.304-.56.456-.84.9-1.661 2.37-3.356 2.627-5.029.51-3.312-.72-6.642-1.832-9.942-.132-.394-.247-.788-.398-1.182-.167-.438-.146.118-.029-.264.282-.922.747-1.842 1.12-2.762.58-1.43 1.127-2.828 1.166-4.26.092-3.346-.367-6.69-.262-10.034-.011.343.06-.203.095-.353l.35-1.485c.244-1.033.488-2.065.73-3.098.35-1.485 1.118-2.968 1.726-4.45 1.163-2.825-1.779-5.55-1.894-8.373-.066-1.602.208-3.224-.22-4.824-.479-1.781-1.911-3.55-2.471-5.33-.92-2.925-.059-5.915-.418-8.852a71.359 71.359 0 01-.52-8.59l-.004-3.216c0-.348-.026-.697 0-1.045.027-.381-.109.148.09-.287.76-1.67 2.07-3.395 2.118-5.073.082-2.94-2.852-5.877-3.057-8.823-.118-1.697-.59-3.389-.997-5.083-.143-.594-4.24-.495-4.327.06" id="Fill-1" fill="#A89934" mask="url(#mask-2)"/></g><g id="Group-3-Copy-3" transform="rotate(90 11.75 184.25)"><mask id="mask-4" fill="#fff"><use xlink:href="#path-3"/></mask><path d="M3.942.464c-.461 2.995-.838 5.947.23 8.934.407 1.137.804 2.273 1.24 3.41.155.402.282.807.466 1.209.062.138.145.678.191.318-.216 1.697-1.698 3.392-2.17 5.087-1.625 5.821.823 11.71.754 17.535-.019 1.559-.444 3.145.04 4.7.555 1.78 1.981 3.55 2.453 5.33.424 1.6.144 3.223.204 4.826.055 1.454.985 2.898 1.652 4.345.208.448.414.895.62 1.343.056.12.36.807.35.645-.01-.147-.2.426-.257.565l-.639 1.54c-.6 1.444-1.286 2.886-1.632 4.333-.834 3.488-.952 6.907-.808 10.4.062 1.541-.087 3.084-.146 4.626-.015.376-.003.752-.043 1.129-.042.387.108-.196-.093.265-.43.983-.82 1.967-1.23 2.95-.592 1.421-1.05 2.712-.588 4.13.502 1.543 1.263 3.093 1.409 4.64.165 1.758.656 3.55.31 5.306.085-.43-.219.25-.286.37l-.81 1.466-1.717 3.106c-.814 1.472-.165 2.988-.05 4.466l.102 1.332c.008.103.032.938.075.478-.075.783-.335 1.567-.503 2.35-.662 3.09-1.178 6.208-.164 9.299.58 1.773 1.57 3.589 2.797 5.346.287.41.156.076.123.2-.085.32-.341.643-.511.963l-1.724 3.25c-.753 1.424-.554 2.757-.31 4.193.165.962.323 1.925.494 2.887.071.4.059-.18.033.157-.03.39-.136.782-.204 1.172-.587 3.372-.91 6.737-1.171 10.111-.243 3.098-.322 6.104.65 9.193.887 2.825 1.062 5.661.918 8.492l-.164 3.222c-.02.384.015.77-.059 1.154-.075.386.245-.19-.204.286-1.447 1.54-3.596 3.302-3.57 4.875.027 1.617 1.801 3.243 2.202 4.86.374 1.506.13 3.032.192 4.54l.185 4.527c.041 1.06 6.8.647 6.763-.303-.12-3.021.384-6.074-.37-9.09-.21-.846-.763-1.695-1.144-2.538l-.688-1.525c-.08-.175-.345-.83-.37-.707-.038.19.385-.423.471-.534l1.218-1.58c.674-.872 1.619-1.755 2.032-2.634 1.43-3.04.338-6.25.152-9.31-.17-2.8-2.056-5.603-1.805-8.4.304-3.4.518-6.802.815-10.203.028-.315-.052.256.033-.217a3175.33 3175.33 0 00.792-4.5c.257-1.458-.106-2.906-.353-4.364-.137-.812-.49-1.638-.413-2.45-.035.376.143-.161.231-.315.27-.474.504-.949.757-1.423.753-1.415 2.437-2.933 1.852-4.359-.725-1.764-2.18-3.518-2.756-5.285-.54-1.654-.335-3.335-.49-4.993-.023-.248-.071-.496-.07-.743-.001.456.093-.372.114-.476.225-1.084.441-2.167.661-3.251.28-1.379.32-2.73.197-4.11-.092-1.044-.164-2.087-.278-3.13-.022-.215.073-.574-.037-.287.107-.28.304-.56.456-.84.9-1.661 2.37-3.356 2.627-5.029.51-3.312-.72-6.642-1.832-9.942-.132-.394-.247-.788-.398-1.182-.167-.438-.146.118-.029-.264.282-.922.747-1.842 1.12-2.762.58-1.43 1.127-2.828 1.166-4.26.092-3.346-.367-6.69-.262-10.034-.011.343.06-.203.095-.353l.35-1.485c.244-1.033.488-2.065.73-3.098.35-1.485 1.118-2.968 1.726-4.45 1.163-2.825-1.779-5.55-1.894-8.373-.066-1.602.208-3.224-.22-4.824-.479-1.781-1.911-3.55-2.471-5.33-.92-2.925-.059-5.915-.418-8.852a71.359 71.359 0 01-.52-8.59l-.004-3.216c0-.348-.026-.697 0-1.045.027-.381-.109.148.09-.287.76-1.67 2.07-3.395 2.118-5.073.082-2.94-2.852-5.877-3.057-8.823-.118-1.697-.59-3.389-.997-5.083-.143-.594-4.24-.495-4.327.06" id="Fill-1" fill="#A89934" mask="url(#mask-4)"/></g><g id="Group-3-Copy-2" transform="translate(0 2.5)"><mask id="mask-6" fill="#fff"><use xlink:href="#path-5"/></mask><path d="M3.942.437c-.461 2.823-.838 5.605.23 8.42.407 1.07.804 2.142 1.24 3.213.155.38.282.76.466 1.14.062.13.145.64.191.3-.216 1.6-1.698 3.196-2.17 4.794-1.625 5.485.823 11.035.754 16.525-.019 1.469-.444 2.964.04 4.43.555 1.677 1.981 3.344 2.453 5.023.424 1.508.144 3.036.204 4.547.055 1.37.985 2.731 1.652 4.095.208.422.414.844.62 1.266.056.113.36.76.35.607-.01-.138-.2.402-.257.532l-.639 1.453c-.6 1.36-1.286 2.719-1.632 4.083-.834 3.287-.952 6.509-.808 9.8.062 1.453-.087 2.907-.146 4.36-.015.354-.003.71-.043 1.064-.042.364.108-.184-.093.25-.43.927-.82 1.854-1.23 2.78-.592 1.34-1.05 2.556-.588 3.891.502 1.455 1.263 2.916 1.409 4.374.165 1.657.656 3.345.31 5 .085-.406-.219.236-.286.349l-.81 1.382-1.717 2.927c-.814 1.387-.165 2.816-.05 4.209l.102 1.255c.008.097.032.883.075.45-.075.738-.335 1.477-.503 2.215-.662 2.912-1.178 5.85-.164 8.763.58 1.67 1.57 3.383 2.797 5.039.287.387.156.07.123.187-.085.303-.341.607-.511.908l-1.724 3.064c-.753 1.341-.554 2.598-.31 3.951.165.907.323 1.814.494 2.72.071.377.059-.169.033.148-.03.369-.136.737-.204 1.105-.587 3.178-.91 6.35-1.171 9.529-.243 2.92-.322 5.752.65 8.663.887 2.662 1.062 5.335.918 8.003l-.164 3.037c-.02.362.015.726-.059 1.088-.075.363.245-.18-.204.269-1.447 1.45-3.596 3.112-3.57 4.594.027 1.524 1.801 3.056 2.202 4.58.374 1.42.13 2.857.192 4.28l.185 4.265c.041 1 6.8.61 6.763-.286-.12-2.847.384-5.724-.37-8.567-.21-.797-.763-1.597-1.144-2.391l-.688-1.437c-.08-.165-.345-.782-.37-.667-.038.18.385-.398.471-.503l1.218-1.489c.674-.822 1.619-1.653 2.032-2.482 1.43-2.866.338-5.89.152-8.773-.17-2.64-2.056-5.281-1.805-7.916.304-3.206.518-6.411.815-9.617.028-.296-.052.242.033-.204.077-.405.152-.81.226-1.215.19-1.009.378-2.018.566-3.027.257-1.373-.106-2.738-.353-4.111-.137-.766-.49-1.544-.413-2.31-.035.355.143-.151.231-.296.27-.447.504-.894.757-1.342.753-1.333 2.437-2.764 1.852-4.107-.725-1.663-2.18-3.316-2.756-4.98-.54-1.56-.335-3.144-.49-4.706-.023-.234-.071-.468-.07-.7-.001.43.093-.351.114-.45.225-1.02.441-2.042.661-3.063.28-1.3.32-2.573.197-3.874-.092-.983-.164-1.966-.278-2.949-.022-.203.073-.541-.037-.27.107-.264.304-.528.456-.791.9-1.567 2.37-3.163 2.627-4.74.51-3.121-.72-6.26-1.832-9.37-.132-.371-.247-.743-.398-1.114-.167-.412-.146.111-.029-.249.282-.868.747-1.736 1.12-2.603.58-1.347 1.127-2.665 1.166-4.015.092-3.152-.367-6.304-.262-9.455-.011.323.06-.192.095-.333l.35-1.4c.244-.973.488-1.946.73-2.919.35-1.4 1.118-2.797 1.726-4.193 1.163-2.663-1.779-5.231-1.894-7.891-.066-1.51.208-3.04-.22-4.547-.479-1.678-1.911-3.345-2.471-5.022-.92-2.757-.059-5.575-.418-8.343a63.427 63.427 0 01-.52-8.095l-.004-3.031c0-.328-.026-.657 0-.985.027-.359-.109.14.09-.27.76-1.574 2.07-3.2 2.118-4.78.082-2.771-2.852-5.54-3.057-8.316-.118-1.599-.59-3.193-.997-4.79-.143-.56-4.24-.466-4.327.057" id="Fill-1" fill="#A89934" mask="url(#mask-6)"/></g><g id="Group-3-Copy-4" transform="translate(185.206 2.5)"><mask id="mask-8" fill="#fff"><use xlink:href="#path-7"/></mask><path d="M3.942.437c-.461 2.823-.838 5.605.23 8.42.407 1.07.804 2.142 1.24 3.213.155.38.282.76.466 1.14.062.13.145.64.191.3-.216 1.6-1.698 3.196-2.17 4.794-1.625 5.485.823 11.035.754 16.525-.019 1.469-.444 2.964.04 4.43.555 1.677 1.981 3.344 2.453 5.023.424 1.508.144 3.036.204 4.547.055 1.37.985 2.731 1.652 4.095.208.422.414.844.62 1.266.056.113.36.76.35.607-.01-.138-.2.402-.257.532l-.639 1.453c-.6 1.36-1.286 2.719-1.632 4.083-.834 3.287-.952 6.509-.808 9.8.062 1.453-.087 2.907-.146 4.36-.015.354-.003.71-.043 1.064-.042.364.108-.184-.093.25-.43.927-.82 1.854-1.23 2.78-.592 1.34-1.05 2.556-.588 3.891.502 1.455 1.263 2.916 1.409 4.374.165 1.657.656 3.345.31 5 .085-.406-.219.236-.286.349l-.81 1.382-1.717 2.927c-.814 1.387-.165 2.816-.05 4.209l.102 1.255c.008.097.032.883.075.45-.075.738-.335 1.477-.503 2.215-.662 2.912-1.178 5.85-.164 8.763.58 1.67 1.57 3.383 2.797 5.039.287.387.156.07.123.187-.085.303-.341.607-.511.908l-1.724 3.064c-.753 1.341-.554 2.598-.31 3.951.165.907.323 1.814.494 2.72.071.377.059-.169.033.148-.03.369-.136.737-.204 1.105-.587 3.178-.91 6.35-1.171 9.529-.243 2.92-.322 5.752.65 8.663.887 2.662 1.062 5.335.918 8.003l-.164 3.037c-.02.362.015.726-.059 1.088-.075.363.245-.18-.204.269-1.447 1.45-3.596 3.112-3.57 4.594.027 1.524 1.801 3.056 2.202 4.58.374 1.42.13 2.857.192 4.28l.185 4.265c.041 1 6.8.61 6.763-.286-.12-2.847.384-5.724-.37-8.567-.21-.797-.763-1.597-1.144-2.391l-.688-1.437c-.08-.165-.345-.782-.37-.667-.038.18.385-.398.471-.503l1.218-1.489c.674-.822 1.619-1.653 2.032-2.482 1.43-2.866.338-5.89.152-8.773-.17-2.64-2.056-5.281-1.805-7.916.304-3.206.518-6.411.815-9.617.028-.296-.052.242.033-.204.077-.405.152-.81.226-1.215.19-1.009.378-2.018.566-3.027.257-1.373-.106-2.738-.353-4.111-.137-.766-.49-1.544-.413-2.31-.035.355.143-.151.231-.296.27-.447.504-.894.757-1.342.753-1.333 2.437-2.764 1.852-4.107-.725-1.663-2.18-3.316-2.756-4.98-.54-1.56-.335-3.144-.49-4.706-.023-.234-.071-.468-.07-.7-.001.43.093-.351.114-.45.225-1.02.441-2.042.661-3.063.28-1.3.32-2.573.197-3.874-.092-.983-.164-1.966-.278-2.949-.022-.203.073-.541-.037-.27.107-.264.304-.528.456-.791.9-1.567 2.37-3.163 2.627-4.74.51-3.121-.72-6.26-1.832-9.37-.132-.371-.247-.743-.398-1.114-.167-.412-.146.111-.029-.249.282-.868.747-1.736 1.12-2.603.58-1.347 1.127-2.665 1.166-4.015.092-3.152-.367-6.304-.262-9.455-.011.323.06-.192.095-.333l.35-1.4c.244-.973.488-1.946.73-2.919.35-1.4 1.118-2.797 1.726-4.193 1.163-2.663-1.779-5.231-1.894-7.891-.066-1.51.208-3.04-.22-4.547-.479-1.678-1.911-3.345-2.471-5.022-.92-2.757-.059-5.575-.418-8.343a63.427 63.427 0 01-.52-8.095l-.004-3.031c0-.328-.026-.657 0-.985.027-.359-.109.14.09-.27.76-1.574 2.07-3.2 2.118-4.78.082-2.771-2.852-5.54-3.057-8.316-.118-1.599-.59-3.193-.997-4.79-.143-.56-4.24-.466-4.327.057" id="Fill-1" fill="#A89934" mask="url(#mask-8)"/></g></g></g></g></svg>