<?xml version="1.0" encoding="UTF-8"?>
<svg width="202px" height="190px" viewBox="0 0 202 190" version="1.1" xmlns="http://www.w3.org/2000/svg" xmlns:xlink="http://www.w3.org/1999/xlink">
    <title>Group</title>
    <defs>
        <polygon id="path-1" points="0 0.000109861963 15.9139484 0.000109861963 15.9139484 190.950819 0 190.950819"></polygon>
        <polygon id="path-3" points="0 0.000109861963 15.9139484 0.000109861963 15.9139484 190.950819 0 190.950819"></polygon>
        <polygon id="path-5" points="0 0.000103534834 15.9139484 0.000103534834 15.9139484 179.953651 0 179.953651"></polygon>
        <polygon id="path-7" points="0 0.000103534834 15.9139484 0.000103534834 15.9139484 179.953651 0 179.953651"></polygon>
    </defs>
    <g id="Page-1" stroke="none" stroke-width="1" fill="none" fill-rule="evenodd">
        <g id="About-Us" transform="translate(-499.000000, 17.000000)">
            <g id="Group" transform="translate(499.000000, -16.793870)">
                <rect id="Rectangle" fill="#A89934" x="5.20613028" y="5.5" width="191" height="177"></rect>
                <g id="Group-3-Copy" transform="translate(100.500000, 8.500000) rotate(90.000000) translate(-100.500000, -8.500000) translate(92.500000, -87.000000)">
                    <mask id="mask-2" fill="white">
                        <use xlink:href="#path-1"></use>
                    </mask>
                    <g id="Clip-2"></g>
                    <path d="M3.94196,0.463887139 C3.48069333,3.45892113 3.10442667,6.41106389 4.17202667,9.39776473 C4.57889333,10.5345051 4.97556,11.6714906 5.41189333,12.8074957 C5.56716,13.2104283 5.69409333,13.6145863 5.87769333,14.0167836 C5.94002667,14.1550159 6.02276,14.6954456 6.06922667,14.3349141 C5.85276,16.0324268 4.37149333,17.7267533 3.89889333,19.4220602 C2.27369333,25.2430141 4.72169333,31.1321039 4.65256,36.9574695 C4.63442667,38.5160146 4.20942667,40.1022552 4.69336,41.657369 C5.24756,43.437478 6.67442667,45.2065578 7.14589333,46.9876472 C7.56976,48.5878581 7.28982667,50.2098822 7.34989333,51.8127891 C7.40542667,53.2671698 8.33476,54.7110115 9.00229333,56.1577943 C9.20969333,56.6055788 9.41596,57.0533633 9.62222667,57.501393 C9.67776,57.6214884 9.98262667,58.3077483 9.97242667,58.1462321 C9.96222667,57.9991764 9.77182667,58.5722034 9.71516,58.7106808 C9.50209333,59.2243953 9.28902667,59.7381099 9.07596,60.2518244 C8.47642667,61.6954209 7.78962667,63.1368117 7.44396,64.5840847 C6.60982667,68.0722454 6.49196,71.4910448 6.63589333,74.9836172 C6.69822667,76.5252509 6.54862667,78.06811 6.48969333,79.6097438 C6.47496,79.9857161 6.48742667,80.3624237 6.44662667,80.7386412 C6.40469333,81.1256427 6.55542667,80.5433022 6.35369333,81.0043218 C5.92416,81.987389 5.53429333,82.9714366 5.12402667,83.9547489 C4.53242667,85.3753067 4.07456,86.6664556 4.53582667,88.0833371 C5.03789333,89.6269315 5.79949333,91.1768984 5.94456,92.7244143 C6.11002667,94.4824649 6.60076,96.2738482 6.25509333,98.0304283 C6.34009333,97.5993101 6.03636,98.2804229 5.96949333,98.399538 C5.69976,98.8882531 5.43002667,99.3772132 5.15916,99.8661733 L3.44216,102.972234 C2.62842667,104.443772 3.27669333,105.960161 3.39116,107.438315 C3.42629333,107.882178 3.46029333,108.326041 3.49429333,108.77015 C3.50222667,108.872843 3.52602667,109.70763 3.56909333,109.247835 C3.49429333,110.030907 3.23362667,110.815449 3.06589333,111.59803 C2.40402667,114.687915 1.88836,117.806476 2.90156,120.896851 C3.48182667,122.669607 4.47122667,124.48599 5.69862667,126.24306 C5.98649333,126.653836 5.85502667,126.318549 5.82216,126.442076 C5.73716,126.763147 5.48102667,127.085934 5.31102667,127.405535 C4.73642667,128.489336 4.16182667,129.573136 3.58722667,130.656937 C2.83356,132.079945 3.03302667,133.413005 3.27782667,134.849249 C3.44216,135.811483 3.59969333,136.773717 3.77082667,137.735707 C3.84222667,138.135208 3.82976,137.556299 3.80369333,137.892811 C3.77422667,138.283489 3.66769333,138.674657 3.59969333,139.065335 C3.01262667,142.437077 2.69076,145.802446 2.42896,149.176148 C2.18642667,152.274121 2.10709333,155.279939 3.07836,158.369089 C3.96576,161.193784 4.14142667,164.029997 3.99749333,166.861309 C3.94196,167.935306 3.88756,169.009303 3.83316,170.083054 C3.81276,170.46736 3.84789333,170.853626 3.77422667,171.237441 C3.69942667,171.623462 4.01902667,171.046514 3.57022667,171.52322 C2.12296,173.062892 -0.02584,174.825355 0.000226666667,176.39787 C0.0274266667,178.015483 1.80109333,179.640938 2.20229333,181.25708 C2.57629333,182.763911 2.33149333,184.289858 2.39382667,185.79865 C2.45502667,187.307441 2.51849333,188.816232 2.57856,190.325023 C2.62049333,191.385785 9.37969333,190.971823 9.34229333,190.022089 C9.22216,187.00083 9.72649333,183.947954 8.97282667,180.931597 C8.76202667,180.085536 8.20896,179.237025 7.82816,178.393906 C7.59922667,177.885829 7.36916,177.377506 7.14022667,176.869429 C7.06089333,176.693697 6.79456,176.03979 6.77076,176.161601 C6.73222667,176.351548 7.15496,175.738816 7.24109333,175.628034 C7.64682667,175.101329 8.05369333,174.57438 8.45942667,174.047675 C9.13262667,173.175635 10.0778267,172.293301 10.4914933,171.413663 C11.92176,168.373287 10.8292267,165.163306 10.64336,162.104793 C10.4722267,159.303383 8.58749333,156.500747 8.83796,153.704728 C9.14169333,150.303575 9.35589333,146.901932 9.65282667,143.50078 C9.68116,143.186325 9.60069333,143.756901 9.68569333,143.283872 C9.76276,142.854225 9.83756,142.424332 9.91236,141.994684 C10.1016267,140.924119 10.28976,139.853554 10.4778933,138.782988 C10.73516,137.325666 10.3724933,135.877658 10.1254267,134.420091 C9.98829333,133.608099 9.63469333,132.782381 9.71176,131.969899 C9.67662667,132.345871 9.85456,131.808873 9.94296,131.655445 C10.2138267,131.181435 10.4472933,130.7062 10.7000267,130.2317 C11.45256,128.81678 13.1366933,127.298675 12.5518933,125.873215 C11.82656,124.109037 10.37136,122.354663 9.79562667,120.588034 C9.25616,118.933658 9.46129333,117.253302 9.30602667,115.595004 C9.28336,115.34746 9.23462667,115.099181 9.23689333,114.851637 C9.23462667,115.308 9.32869333,114.479831 9.35022667,114.375667 C9.57462667,113.292112 9.79109333,112.208556 10.01096,111.125001 C10.2908933,109.746354 10.33056,108.394422 10.20816,107.01406 C10.11636,105.97119 10.0438267,104.928075 9.93049333,103.88496 C9.90782667,103.670014 10.0030267,103.310708 9.89309333,103.598446 C9.99962667,103.31806 10.1968267,103.038164 10.3486933,102.758759 C11.24856,101.096784 12.7184933,99.4024578 12.97576,97.7294543 C13.4868933,94.4172703 12.2560933,91.0869493 11.1442933,87.787265 C11.0116933,87.3931557 10.8972267,86.9988014 10.7464933,86.6049373 C10.57876,86.1672016 10.6002933,86.7225819 10.7170267,86.3409724 C10.9992267,85.4194234 11.4638933,84.4986098 11.8378933,83.5785314 C12.4170267,82.1493953 12.9644267,80.7508958 13.00296,79.3180833 C13.09476,75.9733019 12.63576,72.6285205 12.74116,69.2852096 C12.7298267,69.6283395 12.8012267,69.0817826 12.83636,68.9320309 C12.9530933,68.4369434 13.0698267,67.9416109 13.18656,67.4465234 C13.4302267,66.4139475 13.6738933,65.3816166 13.9164267,64.3492858 C14.2666267,62.8635332 15.0338933,61.3814571 15.6424933,59.8998711 C16.8052933,57.0741962 13.86316,54.3487643 13.74756,51.5262756 C13.6818267,49.9236138 13.9560933,48.3015897 13.5276933,46.701869 C13.0494267,44.9210247 11.6168933,43.15219 11.0570267,41.3723261 C10.13676,38.4473886 10.9980933,35.4572565 10.6388267,32.5198193 C10.28976,29.6571354 10.1208933,26.7939614 10.1186267,23.930052 C10.1174933,22.8580161 10.11636,21.7859802 10.1152267,20.7139443 C10.1152267,20.3659125 10.08916,20.0171455 10.1140933,19.6691137 C10.1424267,19.2879944 10.0064267,19.8169047 10.20476,19.381865 C10.9652267,17.7122928 12.27536,15.9868395 12.32296,14.3091793 C12.40456,11.3695363 9.47149333,8.4323442 9.26636,5.48559348 C9.14849333,3.78930623 8.67589333,2.09743064 8.26902667,0.403349218 C8.12622667,-0.191491003 4.02809333,-0.0917382344 3.94196,0.463887139" id="Fill-1" fill="#A89934" mask="url(#mask-2)"></path>
                </g>
                <g id="Group-3-Copy-3" transform="translate(100.500000, 180.500000) rotate(90.000000) translate(-100.500000, -180.500000) translate(92.500000, 85.000000)">
                    <mask id="mask-4" fill="white">
                        <use xlink:href="#path-3"></use>
                    </mask>
                    <g id="Clip-2"></g>
                    <path d="M3.94196,0.463887139 C3.48069333,3.45892113 3.10442667,6.41106389 4.17202667,9.39776473 C4.57889333,10.5345051 4.97556,11.6714906 5.41189333,12.8074957 C5.56716,13.2104283 5.69409333,13.6145863 5.87769333,14.0167836 C5.94002667,14.1550159 6.02276,14.6954456 6.06922667,14.3349141 C5.85276,16.0324268 4.37149333,17.7267533 3.89889333,19.4220602 C2.27369333,25.2430141 4.72169333,31.1321039 4.65256,36.9574695 C4.63442667,38.5160146 4.20942667,40.1022552 4.69336,41.657369 C5.24756,43.437478 6.67442667,45.2065578 7.14589333,46.9876472 C7.56976,48.5878581 7.28982667,50.2098822 7.34989333,51.8127891 C7.40542667,53.2671698 8.33476,54.7110115 9.00229333,56.1577943 C9.20969333,56.6055788 9.41596,57.0533633 9.62222667,57.501393 C9.67776,57.6214884 9.98262667,58.3077483 9.97242667,58.1462321 C9.96222667,57.9991764 9.77182667,58.5722034 9.71516,58.7106808 C9.50209333,59.2243953 9.28902667,59.7381099 9.07596,60.2518244 C8.47642667,61.6954209 7.78962667,63.1368117 7.44396,64.5840847 C6.60982667,68.0722454 6.49196,71.4910448 6.63589333,74.9836172 C6.69822667,76.5252509 6.54862667,78.06811 6.48969333,79.6097438 C6.47496,79.9857161 6.48742667,80.3624237 6.44662667,80.7386412 C6.40469333,81.1256427 6.55542667,80.5433022 6.35369333,81.0043218 C5.92416,81.987389 5.53429333,82.9714366 5.12402667,83.9547489 C4.53242667,85.3753067 4.07456,86.6664556 4.53582667,88.0833371 C5.03789333,89.6269315 5.79949333,91.1768984 5.94456,92.7244143 C6.11002667,94.4824649 6.60076,96.2738482 6.25509333,98.0304283 C6.34009333,97.5993101 6.03636,98.2804229 5.96949333,98.399538 C5.69976,98.8882531 5.43002667,99.3772132 5.15916,99.8661733 L3.44216,102.972234 C2.62842667,104.443772 3.27669333,105.960161 3.39116,107.438315 C3.42629333,107.882178 3.46029333,108.326041 3.49429333,108.77015 C3.50222667,108.872843 3.52602667,109.70763 3.56909333,109.247835 C3.49429333,110.030907 3.23362667,110.815449 3.06589333,111.59803 C2.40402667,114.687915 1.88836,117.806476 2.90156,120.896851 C3.48182667,122.669607 4.47122667,124.48599 5.69862667,126.24306 C5.98649333,126.653836 5.85502667,126.318549 5.82216,126.442076 C5.73716,126.763147 5.48102667,127.085934 5.31102667,127.405535 C4.73642667,128.489336 4.16182667,129.573136 3.58722667,130.656937 C2.83356,132.079945 3.03302667,133.413005 3.27782667,134.849249 C3.44216,135.811483 3.59969333,136.773717 3.77082667,137.735707 C3.84222667,138.135208 3.82976,137.556299 3.80369333,137.892811 C3.77422667,138.283489 3.66769333,138.674657 3.59969333,139.065335 C3.01262667,142.437077 2.69076,145.802446 2.42896,149.176148 C2.18642667,152.274121 2.10709333,155.279939 3.07836,158.369089 C3.96576,161.193784 4.14142667,164.029997 3.99749333,166.861309 C3.94196,167.935306 3.88756,169.009303 3.83316,170.083054 C3.81276,170.46736 3.84789333,170.853626 3.77422667,171.237441 C3.69942667,171.623462 4.01902667,171.046514 3.57022667,171.52322 C2.12296,173.062892 -0.02584,174.825355 0.000226666667,176.39787 C0.0274266667,178.015483 1.80109333,179.640938 2.20229333,181.25708 C2.57629333,182.763911 2.33149333,184.289858 2.39382667,185.79865 C2.45502667,187.307441 2.51849333,188.816232 2.57856,190.325023 C2.62049333,191.385785 9.37969333,190.971823 9.34229333,190.022089 C9.22216,187.00083 9.72649333,183.947954 8.97282667,180.931597 C8.76202667,180.085536 8.20896,179.237025 7.82816,178.393906 C7.59922667,177.885829 7.36916,177.377506 7.14022667,176.869429 C7.06089333,176.693697 6.79456,176.03979 6.77076,176.161601 C6.73222667,176.351548 7.15496,175.738816 7.24109333,175.628034 C7.64682667,175.101329 8.05369333,174.57438 8.45942667,174.047675 C9.13262667,173.175635 10.0778267,172.293301 10.4914933,171.413663 C11.92176,168.373287 10.8292267,165.163306 10.64336,162.104793 C10.4722267,159.303383 8.58749333,156.500747 8.83796,153.704728 C9.14169333,150.303575 9.35589333,146.901932 9.65282667,143.50078 C9.68116,143.186325 9.60069333,143.756901 9.68569333,143.283872 C9.76276,142.854225 9.83756,142.424332 9.91236,141.994684 C10.1016267,140.924119 10.28976,139.853554 10.4778933,138.782988 C10.73516,137.325666 10.3724933,135.877658 10.1254267,134.420091 C9.98829333,133.608099 9.63469333,132.782381 9.71176,131.969899 C9.67662667,132.345871 9.85456,131.808873 9.94296,131.655445 C10.2138267,131.181435 10.4472933,130.7062 10.7000267,130.2317 C11.45256,128.81678 13.1366933,127.298675 12.5518933,125.873215 C11.82656,124.109037 10.37136,122.354663 9.79562667,120.588034 C9.25616,118.933658 9.46129333,117.253302 9.30602667,115.595004 C9.28336,115.34746 9.23462667,115.099181 9.23689333,114.851637 C9.23462667,115.308 9.32869333,114.479831 9.35022667,114.375667 C9.57462667,113.292112 9.79109333,112.208556 10.01096,111.125001 C10.2908933,109.746354 10.33056,108.394422 10.20816,107.01406 C10.11636,105.97119 10.0438267,104.928075 9.93049333,103.88496 C9.90782667,103.670014 10.0030267,103.310708 9.89309333,103.598446 C9.99962667,103.31806 10.1968267,103.038164 10.3486933,102.758759 C11.24856,101.096784 12.7184933,99.4024578 12.97576,97.7294543 C13.4868933,94.4172703 12.2560933,91.0869493 11.1442933,87.787265 C11.0116933,87.3931557 10.8972267,86.9988014 10.7464933,86.6049373 C10.57876,86.1672016 10.6002933,86.7225819 10.7170267,86.3409724 C10.9992267,85.4194234 11.4638933,84.4986098 11.8378933,83.5785314 C12.4170267,82.1493953 12.9644267,80.7508958 13.00296,79.3180833 C13.09476,75.9733019 12.63576,72.6285205 12.74116,69.2852096 C12.7298267,69.6283395 12.8012267,69.0817826 12.83636,68.9320309 C12.9530933,68.4369434 13.0698267,67.9416109 13.18656,67.4465234 C13.4302267,66.4139475 13.6738933,65.3816166 13.9164267,64.3492858 C14.2666267,62.8635332 15.0338933,61.3814571 15.6424933,59.8998711 C16.8052933,57.0741962 13.86316,54.3487643 13.74756,51.5262756 C13.6818267,49.9236138 13.9560933,48.3015897 13.5276933,46.701869 C13.0494267,44.9210247 11.6168933,43.15219 11.0570267,41.3723261 C10.13676,38.4473886 10.9980933,35.4572565 10.6388267,32.5198193 C10.28976,29.6571354 10.1208933,26.7939614 10.1186267,23.930052 C10.1174933,22.8580161 10.11636,21.7859802 10.1152267,20.7139443 C10.1152267,20.3659125 10.08916,20.0171455 10.1140933,19.6691137 C10.1424267,19.2879944 10.0064267,19.8169047 10.20476,19.381865 C10.9652267,17.7122928 12.27536,15.9868395 12.32296,14.3091793 C12.40456,11.3695363 9.47149333,8.4323442 9.26636,5.48559348 C9.14849333,3.78930623 8.67589333,2.09743064 8.26902667,0.403349218 C8.12622667,-0.191491003 4.02809333,-0.0917382344 3.94196,0.463887139" id="Fill-1" fill="#A89934" mask="url(#mask-4)"></path>
                </g>
                <g id="Group-3-Copy-2" transform="translate(0.000000, 2.500000)">
                    <mask id="mask-6" fill="white">
                        <use xlink:href="#path-5"></use>
                    </mask>
                    <g id="Clip-2"></g>
                    <path d="M3.94196,0.437171126 C3.48069333,3.25971625 3.10442667,6.04184032 4.17202667,8.85653221 C4.57889333,9.92780588 4.97556,10.9993105 5.41189333,12.0698913 C5.56716,12.4496183 5.69409333,12.8305002 5.87769333,13.2095343 C5.94002667,13.3398056 6.02276,13.849111 6.06922667,13.5093431 C5.85276,15.1090933 4.37149333,16.7058408 3.89889333,18.3035122 C2.27369333,23.789228 4.72169333,29.3391555 4.65256,34.8290289 C4.63442667,36.2978148 4.20942667,37.7927013 4.69336,39.2582535 C5.24756,40.9358432 6.67442667,42.6030388 7.14589333,44.2815523 C7.56976,45.7896045 7.28982667,47.3182136 7.34989333,48.8288065 C7.40542667,50.199427 8.33476,51.5601155 9.00229333,52.9235757 C9.20969333,53.3455716 9.41596,53.7675675 9.62222667,54.1897944 C9.67776,54.3029734 9.98262667,54.9497104 9.97242667,54.7974962 C9.96222667,54.6589097 9.77182667,55.1989351 9.71516,55.3294374 C9.50209333,55.8135663 9.28902667,56.2976951 9.07596,56.781824 C8.47642667,58.1422815 7.78962667,59.5006602 7.44396,60.8645824 C6.60982667,64.1518543 6.49196,67.3737595 6.63589333,70.665189 C6.69822667,72.1180375 6.54862667,73.5720409 6.48969333,75.0248894 C6.47496,75.3792089 6.48742667,75.7342213 6.44662667,76.0887718 C6.40469333,76.4534853 6.55542667,75.9046827 6.35369333,76.3391514 C5.92416,77.2656022 5.53429333,78.1929769 5.12402667,79.1196586 C4.53242667,80.4584043 4.07456,81.6751938 4.53582667,83.0104747 C5.03789333,84.4651711 5.79949333,85.9258728 5.94456,87.3842648 C6.11002667,89.0410664 6.60076,90.729281 6.25509333,92.3846968 C6.34009333,91.9784074 6.03636,92.6202939 5.96949333,92.7325489 C5.69976,93.1931181 5.43002667,93.6539182 5.15916,94.1147183 L3.44216,97.0418963 C2.62842667,98.4286852 3.27669333,99.8577431 3.39116,101.250768 C3.42629333,101.669069 3.46029333,102.087369 3.49429333,102.5059 C3.50222667,102.60268 3.52602667,103.389389 3.56909333,102.956075 C3.49429333,103.694048 3.23362667,104.433407 3.06589333,105.170919 C2.40402667,108.082852 1.88836,111.02181 2.90156,113.934205 C3.48182667,115.604866 4.47122667,117.31664 5.69862667,118.972518 C5.98649333,119.359636 5.85502667,119.043659 5.82216,119.160071 C5.73716,119.462652 5.48102667,119.766849 5.31102667,120.068044 C4.73642667,121.089426 4.16182667,122.110809 3.58722667,123.132191 C2.83356,124.473247 3.03302667,125.729534 3.27782667,127.083062 C3.44216,127.989879 3.59969333,128.896697 3.77082667,129.803284 C3.84222667,130.179777 3.82976,129.634208 3.80369333,129.95134 C3.77422667,130.319519 3.66769333,130.688159 3.59969333,131.056337 C3.01262667,134.233894 2.69076,137.405446 2.42896,140.584852 C2.18642667,143.504408 2.10709333,146.337116 3.07836,149.248356 C3.96576,151.910372 4.14142667,154.583244 3.99749333,157.251496 C3.94196,158.263639 3.88756,159.275783 3.83316,160.287695 C3.81276,160.649868 3.84789333,161.013888 3.77422667,161.375599 C3.69942667,161.739389 4.01902667,161.195668 3.57022667,161.644919 C2.12296,163.09592 -0.02584,164.756879 0.000226666667,166.238831 C0.0274266667,167.763282 1.80109333,169.295125 2.20229333,170.818191 C2.57629333,172.23824 2.33149333,173.676306 2.39382667,175.098204 C2.45502667,176.520101 2.51849333,177.941999 2.57856,179.363896 C2.62049333,180.363567 9.37969333,179.973446 9.34229333,179.078408 C9.22216,176.231148 9.72649333,173.354093 8.97282667,170.511452 C8.76202667,169.714118 8.20896,168.914474 7.82816,168.119911 C7.59922667,167.641095 7.36916,167.162048 7.14022667,166.683231 C7.06089333,166.51762 6.79456,165.901372 6.77076,166.016168 C6.73222667,166.195176 7.15496,165.617732 7.24109333,165.51333 C7.64682667,165.01696 8.05369333,164.520358 8.45942667,164.023987 C9.13262667,163.202169 10.0778267,162.37065 10.4914933,161.541672 C11.92176,158.676396 10.8292267,155.651284 10.64336,152.768915 C10.4722267,150.128842 8.58749333,147.487615 8.83796,144.852623 C9.14169333,141.647348 9.35589333,138.441612 9.65282667,135.236337 C9.68116,134.939993 9.60069333,135.477708 9.68569333,135.031922 C9.76276,134.627018 9.83756,134.221883 9.91236,133.81698 C10.1016267,132.80807 10.28976,131.79916 10.4778933,130.790251 C10.73516,129.416858 10.3724933,128.052243 10.1254267,126.67862 C9.98829333,125.913392 9.63469333,125.135228 9.71176,124.369538 C9.67662667,124.723857 9.85456,124.217786 9.94296,124.073194 C10.2138267,123.626483 10.4472933,123.178618 10.7000267,122.731445 C11.45256,121.398012 13.1366933,119.967338 12.5518933,118.623973 C11.82656,116.961396 10.37136,115.308059 9.79562667,113.643174 C9.25616,112.084075 9.46129333,110.500494 9.30602667,108.9377 C9.28336,108.704413 9.23462667,108.470432 9.23689333,108.237145 C9.23462667,108.667225 9.32869333,107.886752 9.35022667,107.788587 C9.57462667,106.767435 9.79109333,105.746284 10.01096,104.725132 C10.2908933,103.425884 10.33056,102.151812 10.20816,100.850946 C10.11636,99.868137 10.0438267,98.8850968 9.93049333,97.9020565 C9.90782667,97.6994892 10.0030267,97.3608762 9.89309333,97.6320438 C9.99962667,97.3678055 10.1968267,97.1040292 10.3486933,96.8407149 C11.24856,95.2744564 12.7184933,93.6777089 12.97576,92.1010564 C13.4868933,88.9796264 12.2560933,85.8411041 11.1442933,82.7314539 C11.0116933,82.3600421 10.8972267,81.9883993 10.7464933,81.6172184 C10.57876,81.2046926 10.6002933,81.7280876 10.7170267,81.3684556 C10.9992267,80.4999802 11.4638933,79.6321977 11.8378933,78.7651082 C12.4170267,77.4182783 12.9644267,76.1003207 13.00296,74.7500262 C13.09476,71.5978761 12.63576,68.4457261 12.74116,65.2949619 C12.7298267,65.6183305 12.8012267,65.1032506 12.83636,64.9621234 C12.9530933,64.4955488 13.0698267,64.0287433 13.18656,63.5621687 C13.4302267,62.5890605 13.6738933,61.6161832 13.9164267,60.6433059 C14.2666267,59.2431203 15.0338933,57.8463993 15.6424933,56.4501403 C16.8052933,53.7872006 13.86316,51.2187308 13.74756,48.5587938 C13.6818267,47.0484319 13.9560933,45.5198228 13.5276933,44.0122326 C13.0494267,42.33395 11.6168933,40.6669853 11.0570267,38.9896267 C10.13676,36.2331411 10.9980933,33.4152156 10.6388267,30.6469501 C10.28976,27.9491329 10.1208933,25.2508536 10.1186267,22.5518815 C10.1174933,21.5415859 10.11636,20.5312903 10.1152267,19.5209946 C10.1152267,19.1930066 10.08916,18.8643256 10.1140933,18.5363375 C10.1424267,18.1771675 10.0064267,18.675617 10.20476,18.2656319 C10.9652267,16.6922131 12.27536,15.0661315 12.32296,13.4850905 C12.40456,10.7147462 9.47149333,7.94671181 9.26636,5.16966925 C9.14849333,3.57107393 8.67589333,1.97663621 8.26902667,0.380119682 C8.12622667,-0.180462726 4.02809333,-0.0864548806 3.94196,0.437171126" id="Fill-1" fill="#A89934" mask="url(#mask-6)"></path>
                </g>
                <g id="Group-3-Copy-4" transform="translate(185.206130, 2.500000)">
                    <mask id="mask-8" fill="white">
                        <use xlink:href="#path-7"></use>
                    </mask>
                    <g id="Clip-2"></g>
                    <path d="M3.94196,0.437171126 C3.48069333,3.25971625 3.10442667,6.04184032 4.17202667,8.85653221 C4.57889333,9.92780588 4.97556,10.9993105 5.41189333,12.0698913 C5.56716,12.4496183 5.69409333,12.8305002 5.87769333,13.2095343 C5.94002667,13.3398056 6.02276,13.849111 6.06922667,13.5093431 C5.85276,15.1090933 4.37149333,16.7058408 3.89889333,18.3035122 C2.27369333,23.789228 4.72169333,29.3391555 4.65256,34.8290289 C4.63442667,36.2978148 4.20942667,37.7927013 4.69336,39.2582535 C5.24756,40.9358432 6.67442667,42.6030388 7.14589333,44.2815523 C7.56976,45.7896045 7.28982667,47.3182136 7.34989333,48.8288065 C7.40542667,50.199427 8.33476,51.5601155 9.00229333,52.9235757 C9.20969333,53.3455716 9.41596,53.7675675 9.62222667,54.1897944 C9.67776,54.3029734 9.98262667,54.9497104 9.97242667,54.7974962 C9.96222667,54.6589097 9.77182667,55.1989351 9.71516,55.3294374 C9.50209333,55.8135663 9.28902667,56.2976951 9.07596,56.781824 C8.47642667,58.1422815 7.78962667,59.5006602 7.44396,60.8645824 C6.60982667,64.1518543 6.49196,67.3737595 6.63589333,70.665189 C6.69822667,72.1180375 6.54862667,73.5720409 6.48969333,75.0248894 C6.47496,75.3792089 6.48742667,75.7342213 6.44662667,76.0887718 C6.40469333,76.4534853 6.55542667,75.9046827 6.35369333,76.3391514 C5.92416,77.2656022 5.53429333,78.1929769 5.12402667,79.1196586 C4.53242667,80.4584043 4.07456,81.6751938 4.53582667,83.0104747 C5.03789333,84.4651711 5.79949333,85.9258728 5.94456,87.3842648 C6.11002667,89.0410664 6.60076,90.729281 6.25509333,92.3846968 C6.34009333,91.9784074 6.03636,92.6202939 5.96949333,92.7325489 C5.69976,93.1931181 5.43002667,93.6539182 5.15916,94.1147183 L3.44216,97.0418963 C2.62842667,98.4286852 3.27669333,99.8577431 3.39116,101.250768 C3.42629333,101.669069 3.46029333,102.087369 3.49429333,102.5059 C3.50222667,102.60268 3.52602667,103.389389 3.56909333,102.956075 C3.49429333,103.694048 3.23362667,104.433407 3.06589333,105.170919 C2.40402667,108.082852 1.88836,111.02181 2.90156,113.934205 C3.48182667,115.604866 4.47122667,117.31664 5.69862667,118.972518 C5.98649333,119.359636 5.85502667,119.043659 5.82216,119.160071 C5.73716,119.462652 5.48102667,119.766849 5.31102667,120.068044 C4.73642667,121.089426 4.16182667,122.110809 3.58722667,123.132191 C2.83356,124.473247 3.03302667,125.729534 3.27782667,127.083062 C3.44216,127.989879 3.59969333,128.896697 3.77082667,129.803284 C3.84222667,130.179777 3.82976,129.634208 3.80369333,129.95134 C3.77422667,130.319519 3.66769333,130.688159 3.59969333,131.056337 C3.01262667,134.233894 2.69076,137.405446 2.42896,140.584852 C2.18642667,143.504408 2.10709333,146.337116 3.07836,149.248356 C3.96576,151.910372 4.14142667,154.583244 3.99749333,157.251496 C3.94196,158.263639 3.88756,159.275783 3.83316,160.287695 C3.81276,160.649868 3.84789333,161.013888 3.77422667,161.375599 C3.69942667,161.739389 4.01902667,161.195668 3.57022667,161.644919 C2.12296,163.09592 -0.02584,164.756879 0.000226666667,166.238831 C0.0274266667,167.763282 1.80109333,169.295125 2.20229333,170.818191 C2.57629333,172.23824 2.33149333,173.676306 2.39382667,175.098204 C2.45502667,176.520101 2.51849333,177.941999 2.57856,179.363896 C2.62049333,180.363567 9.37969333,179.973446 9.34229333,179.078408 C9.22216,176.231148 9.72649333,173.354093 8.97282667,170.511452 C8.76202667,169.714118 8.20896,168.914474 7.82816,168.119911 C7.59922667,167.641095 7.36916,167.162048 7.14022667,166.683231 C7.06089333,166.51762 6.79456,165.901372 6.77076,166.016168 C6.73222667,166.195176 7.15496,165.617732 7.24109333,165.51333 C7.64682667,165.01696 8.05369333,164.520358 8.45942667,164.023987 C9.13262667,163.202169 10.0778267,162.37065 10.4914933,161.541672 C11.92176,158.676396 10.8292267,155.651284 10.64336,152.768915 C10.4722267,150.128842 8.58749333,147.487615 8.83796,144.852623 C9.14169333,141.647348 9.35589333,138.441612 9.65282667,135.236337 C9.68116,134.939993 9.60069333,135.477708 9.68569333,135.031922 C9.76276,134.627018 9.83756,134.221883 9.91236,133.81698 C10.1016267,132.80807 10.28976,131.79916 10.4778933,130.790251 C10.73516,129.416858 10.3724933,128.052243 10.1254267,126.67862 C9.98829333,125.913392 9.63469333,125.135228 9.71176,124.369538 C9.67662667,124.723857 9.85456,124.217786 9.94296,124.073194 C10.2138267,123.626483 10.4472933,123.178618 10.7000267,122.731445 C11.45256,121.398012 13.1366933,119.967338 12.5518933,118.623973 C11.82656,116.961396 10.37136,115.308059 9.79562667,113.643174 C9.25616,112.084075 9.46129333,110.500494 9.30602667,108.9377 C9.28336,108.704413 9.23462667,108.470432 9.23689333,108.237145 C9.23462667,108.667225 9.32869333,107.886752 9.35022667,107.788587 C9.57462667,106.767435 9.79109333,105.746284 10.01096,104.725132 C10.2908933,103.425884 10.33056,102.151812 10.20816,100.850946 C10.11636,99.868137 10.0438267,98.8850968 9.93049333,97.9020565 C9.90782667,97.6994892 10.0030267,97.3608762 9.89309333,97.6320438 C9.99962667,97.3678055 10.1968267,97.1040292 10.3486933,96.8407149 C11.24856,95.2744564 12.7184933,93.6777089 12.97576,92.1010564 C13.4868933,88.9796264 12.2560933,85.8411041 11.1442933,82.7314539 C11.0116933,82.3600421 10.8972267,81.9883993 10.7464933,81.6172184 C10.57876,81.2046926 10.6002933,81.7280876 10.7170267,81.3684556 C10.9992267,80.4999802 11.4638933,79.6321977 11.8378933,78.7651082 C12.4170267,77.4182783 12.9644267,76.1003207 13.00296,74.7500262 C13.09476,71.5978761 12.63576,68.4457261 12.74116,65.2949619 C12.7298267,65.6183305 12.8012267,65.1032506 12.83636,64.9621234 C12.9530933,64.4955488 13.0698267,64.0287433 13.18656,63.5621687 C13.4302267,62.5890605 13.6738933,61.6161832 13.9164267,60.6433059 C14.2666267,59.2431203 15.0338933,57.8463993 15.6424933,56.4501403 C16.8052933,53.7872006 13.86316,51.2187308 13.74756,48.5587938 C13.6818267,47.0484319 13.9560933,45.5198228 13.5276933,44.0122326 C13.0494267,42.33395 11.6168933,40.6669853 11.0570267,38.9896267 C10.13676,36.2331411 10.9980933,33.4152156 10.6388267,30.6469501 C10.28976,27.9491329 10.1208933,25.2508536 10.1186267,22.5518815 C10.1174933,21.5415859 10.11636,20.5312903 10.1152267,19.5209946 C10.1152267,19.1930066 10.08916,18.8643256 10.1140933,18.5363375 C10.1424267,18.1771675 10.0064267,18.675617 10.20476,18.2656319 C10.9652267,16.6922131 12.27536,15.0661315 12.32296,13.4850905 C12.40456,10.7147462 9.47149333,7.94671181 9.26636,5.16966925 C9.14849333,3.57107393 8.67589333,1.97663621 8.26902667,0.380119682 C8.12622667,-0.180462726 4.02809333,-0.0864548806 3.94196,0.437171126" id="Fill-1" fill="#A89934" mask="url(#mask-8)"></path>
                </g>
            </g>
        </g>
    </g>
</svg>