<svg width="98" height="73" viewBox="0 0 98 73" version="1.1" xmlns="http://www.w3.org/2000/svg" xmlns:xlink="http://www.w3.org/1999/xlink"><defs><path id="path-1" d="M0 0h96.288v71.956H0z"/></defs><g id="Page-1" stroke="none" stroke-width="1" fill="none" fill-rule="evenodd"><g id="Home-Logo-1---d-Copy-15" transform="translate(-23 -25)"><g id="Group-3" transform="translate(23.887 25.502)"><mask id="mask-2" fill="#fff"><use xlink:href="#path-1"/></mask><path d="M71.748 15.083c-.214-.001-.425-.027-.63-.052-.092-.011-.184-.022-.277-.031l-.187-.168a.473.473 0 01.062-.384c.112-.155.297-.176.407-.188a6.824 6.824 0 011.017-.04c.268 0 .554-.25.56-.477.028-1.123.044-1.991.05-2.813a291 291 0 00.007-3.923c-.008-1.35-.025-2.82-.054-4.63-.008-.45-.036-.823-.297-1.14-.276.021-.49.032-.667.032-.422 0-.832-.052-.976-.428l.095-.26c.38-.212.786-.241 1.134-.241.1 0 .198.003.296.005l.159.004c.098.002.182.004.263.004.23 0 .424-.016.856-.103.189-.038.376-.043.55-.043l.273.002c.105 0 .229-.002.35-.016.09-.011.196-.022.302-.022.142 0 .33.017.527.123l.243-.146.673.428.022.342c-.273.23-.633.346-1.07.346a2.84 2.84 0 01-.25-.01 1.342 1.342 0 00-.124-.007c-.161 0-.31.03-.443.065l-.016.103a3.227 3.227 0 00-.053.478c-.003.262.006.53.014.79.007.234.015.476.015.715-.001.76-.01 1.586-.027 2.523-.004.217-.02.437-.034.649-.03.43-.058.838-.002 1.233.041.286.056.572.07.849.016.319.032.62.083.922.028.162-.003.321-.032.462a1.671 1.671 0 00-.033.214c-.035.516-.07 1.065-.088 1.61-.006.16 0 .32.006.49.005.15.01.303.007.457-.002.106-.029.2-.06.309-.012.04-.025.084-.037.133.03.36.11.717.446.946.2-.08.493-.117.732-.117.292 0 .505.05.63.146.106.081.15.196.195.318.018.048.038.1.064.156l-.192.303-.36-.002-.277-.001c-.12 0-.233 0-.346.005a5.171 5.171 0 00-.36.029c-.146.014-.297.03-.45.032a150.33 150.33 0 01-2.766.019zM35.947 8.61a.18.18 0 00.05.011 789.23 789.23 0 004.214-.2l.743-.035a.48.48 0 00-.017-.115 49.704 49.704 0 00-.575-1.545A34.363 34.363 0 0040 5.854a49.838 49.838 0 01-.231-.546.98.98 0 01-.048-.166c-.008-.034-.019-.086-.028-.1-.368-.408-.554-.897-.734-1.37-.062-.16-.126-.328-.195-.486a6.371 6.371 0 01-.166-.43l-2.65 5.855zm6.6 6.614c-.21 0-.386-.123-.563-.26l-.012-.326c.3-.27.66-.335.976-.393.12-.022.236-.043.346-.073l-.094-.212c-.136-.303-.264-.59-.387-.884a306.21 306.21 0 01-1.179-2.847c-.045-.112-.071-.225-.097-.333a3.19 3.19 0 00-.037-.15c-.077-.278-.12-.278-.257-.278a1.66 1.66 0 00-.186.013c-.722.08-1.497.152-2.369.219-.576.044-1.162.08-1.728.115l-.84.053a.248.248 0 01-.123.033l-.06-.008a.81.81 0 00-.21-.031c-.284 0-.41.238-.583.632-.45 1.02-.86 1.928-1.253 2.779-.065.14-.147.267-.226.39a4.11 4.11 0 00-.17.28.293.293 0 00-.022.081l.165.019c.197.022.382.044.564.044.143 0 .27-.014.389-.041a.43.43 0 01.096-.01c.097 0 .186.03.272.058.038.013.076.026.116.036l.156.262-.125.458-.186.155a9.519 9.519 0 00-.237.025c-.182.02-.37.04-.564.04a7.872 7.872 0 01-.542-.026c-.18-.012-.348-.024-.518-.024h-.087c-.247.008-.492.04-.752.073l-.36.044-.182.02c-.196.023-.4.047-.605.053a.398.398 0 01-.255-.103l-.581.087-.24-.17-.097-.505.195-.252 1.416-.084a7.79 7.79 0 01.167-.16c.152-.145.284-.27.406-.402.05-.053.092-.126.138-.203.02-.034.04-.07.062-.103l.008-.022c.022-.055.062-.16.177-.2.14-.05.19-.162.267-.357.025-.065.051-.132.085-.198a265.88 265.88 0 001.736-3.514c.124-.254.241-.519.355-.774.152-.341.31-.694.484-1.033.203-.392.38-.807.553-1.208.201-.468.409-.953.66-1.417.299-.548.538-1.148.77-1.728A19.425 19.425 0 0138.448.52c.07-.129.188-.204.292-.27.035-.023.07-.045.103-.07l.318.068.635 1.21-.058.185c.133.1.198.246.25.385.101.279.232.544.37.825.071.146.143.292.21.44.086.188.168.377.25.567.144.334.292.68.462 1.004.132.253.237.516.34.771.154.387.3.753.53 1.08.107.15.15.332.188.493l.03.123c.038.143.073.288.108.432.051.212.104.431.168.64.022.074.07.152.12.234.036.062.075.125.108.195l.037.075c.068.14.138.284.173.447.084.387.282.722.491 1.076.09.154.184.312.269.476.316.617.61 1.26.882 1.864.071.159.131.322.189.48.07.193.137.375.223.548.109.218.3.329.566.329l.044-.001c.051-.003.103-.003.153-.003l.233.002.208.17c.04.201.067.455-.081.635-.138.168-.359.187-.513.187h-.03c-.41 0-.826.015-1.185.029l-.682.03a36.56 36.56 0 01-1.297.048h-.007zM3.811 8.628c.117.4.096.788.075 1.164-.014.269-.028.527.007.78.1-.021.202-.04.308-.043.263-.005.526-.008.79-.012.658-.008 1.34-.016 2.007-.07.351-.029.706-.031 1.05-.034.42-.003.855-.006 1.276-.058.87-.107 1.524-.354 2.06-.778.11-.088.204-.21.303-.339.103-.135.21-.273.347-.39.293-.248.417-.576.513-.993.175-.762.288-1.378.355-1.938l.004-.036c.077-.634.15-1.234-.224-1.754a1.38 1.38 0 00-.124-.14c-.104-.107-.223-.23-.261-.397-.062-.264-.251-.414-.47-.589a4.55 4.55 0 01-.13-.104c-.525-.436-1.051-.839-1.717-.975a40.508 40.508 0 00-.486-.095 22.258 22.258 0 01-.874-.18 1.02 1.02 0 01-.312-.144l-.03.01c-.078.025-.16.052-.251.052a.408.408 0 01-.05-.003 6.066 6.066 0 01-.421-.067c-.148-.027-.287-.053-.427-.067-.89-.084-1.795-.162-2.688-.23a3.906 3.906 0 00-.29-.01c-.086 0-.17.003-.253.004h-.014l.001.08c.003.21.007.41.036.603.038.244.019.484 0 .717-.028.349-.054.678.12.973.054.09.042.185.034.242a414.568 414.568 0 01-.055.934c-.038.667-.078 1.356-.11 2.034-.011.235-.013.477-.014.711-.002.214-.004.435-.012.654-.006.15-.035.295-.058.412l-.015.076zM2.35 19.51c-.477-.005-.96-.026-1.427-.047l-.366-.017a.87.87 0 01-.208-.04l-.058-.016-.16-.16c-.054-.241-.025-.436.089-.579.073-.092.217-.201.486-.201l.09.003c.05.004.098.006.146.006.343 0 .63-.107.874-.328.076-.069.144-.155.204-.232a2.738 2.738 0 00-.027-.062c-.056-.132-.113-.268-.112-.42.006-.617.023-1.244.04-1.85.01-.368.02-.735.027-1.103.006-.28.007-.559.008-.838.002-.311.003-.633.01-.95.013-.467.029-.935.045-1.403.029-.851.059-1.732.062-2.596.001-.465-.03-.941-.06-1.401-.026-.4-.052-.812-.058-1.221a5.85 5.85 0 01.069-.848 8.32 8.32 0 00.058-.526c.009-.131 0-.267-.008-.411a5.14 5.14 0 01-.013-.32c0-.173 0-.37.044-.563.118-.515.123-1.06.017-1.62-.035-.185-.13-.37-.232-.565a12.333 12.333 0 01-.082-.162c-.114.003-.226.005-.338.005-.445 0-.967-.03-1.47-.26L.049.384C.79.246 1.674.104 2.613.104c.193 0 .387.006.576.018a1.185 1.185 0 01.329-.055h.018c1.162.029 2.3.059 3.448.107.19.008.374.043.552.078.114.022.221.043.329.057.094.011.19.016.291.022.136.006.276.014.418.039l.47.083c.745.13 1.516.266 2.266.441.242.057.447.192.646.323.093.06.18.118.267.166.1.054.202.105.304.156.186.093.379.189.56.308.466.305.722.77.964 1.26.132.266.231.546.327.818.045.128.09.256.14.382.178.463.144.922.112 1.366a8.32 8.32 0 00-.023.384.767.767 0 01-.02.14c-.004.02-.011.052-.01.063.081.607-.12 1.176-.296 1.678-.32.912-.76 1.557-1.384 2.03-.975.739-2.128 1.19-3.055 1.553a1.082 1.082 0 01-.403.057h-.073c-.044 0-.088 0-.13.004l-.47.04-.71.059h-.034a.785.785 0 01-.13-.013l-.073-.012-.173-.138-.022-.06a.584.584 0 01-.424.187.794.794 0 01-.316-.074.278.278 0 00-.107-.016c-.075 0-.164.015-.257.03a2.098 2.098 0 01-.33.038c-.356.003-.713.004-1.074.004l-1.233-.002a.83.83 0 00-.013.132c.001.445.005.89.01 1.336l.008 1.037c0 .165.006.33.012.496.014.417.029.849-.035 1.272a4.521 4.521 0 00-.025.785c.01.4.02.812-.118 1.23-.028.087-.028.155 0 .203.04.064.137.11.276.134.236.039.48.068.716.097l.382.049c.176.023.543.072.589.57l-.156.224c-.078.02-.156.045-.234.069-.19.058-.388.12-.597.146-.26.033-.521.039-.774.044-.112.003-.224.005-.335.01l-.39.021c-.257.015-.525.031-.79.031H2.35zm46.323.064c-.091 0-.184-.003-.279-.006a8.32 8.32 0 00-.292-.006l-.056-.417.388-.105c.159-.459.56-.462.833-.464.155 0 .303-.002.398-.068.202-.215.196-.527.188-.887l-.002-.11a40.48 40.48 0 01.05-2.456c.035-.727.038-1.47.04-2.187a111.741 111.741 0 01.012-1.633c.005-.553.01-1.125.03-1.688.017-.439.041-.883.065-1.313.038-.7.079-1.425.081-2.135.002-.514-.05-1.041-.1-1.552a30.43 30.43 0 01-.074-.804l-.003-.04c-.014-.191-.03-.409.013-.617.123-.595-.136-1.097-.409-1.629l-.076-.148c-.06-.12-.132-.154-.319-.154a2.13 2.13 0 00-.113.003 3.21 3.21 0 01-.126.003c-.04 0-.08-.002-.119-.005a4.636 4.636 0 00-.418-.017c-.11 0-.22.003-.33.005-.112.002-.224.005-.335.005l-.186-.11c-.134-.245-.152-.474-.05-.645.051-.088.183-.236.479-.236l.04.001c.028.002.058.002.087.002.16 0 .32-.016.49-.034.172-.017.351-.036.533-.036.186 0 .353.02.509.06.03 0 .085-.02.135-.036a.922.922 0 01.27-.06c.293-.008.59-.008.878-.008.22 0 .44 0 .66-.004.266-.004.538-.017.801-.03l.258-.012.082-.001c.154 0 .374.02.507.187.141.179.106.429.06.627l-.175.161-.616.093-.068.074c-.108.117-.23.25-.366.374-.315.29-.312.685-.274 1.17.06.781.099 1.434.012 2.128-.037.29-.042.58-.048.888-.004.204-.008.415-.022.624a3.755 3.755 0 00-.005.22c0 .225-.002.476-.12.72a.594.594 0 01.029.082c.009.033.022.066.034.1.04.11.086.234.063.372l-.006.032c-.024.146-.028.18.033.26.117.153.116.354.114.532l.001.114c.007.201.006.402.004.615a27.1 27.1 0 000 .289l-.07.106c.156.282.271.65.086 1.067a.422.422 0 01.069.077c.077.112.095.261.053.456a.92.92 0 01-.047.145c-.06.15-.057.152.008.187.17.091.15.318.117.524-.042.26-.02.523.005.801.015.176.03.358.028.54-.001.167.011.333.025.51.018.235.037.479.018.729L52.14 15c-.061.79-.124 1.607-.057 2.413l.002.026c.034.404.06.723.319.99.156.16.24.231.381.231h.033a.73.73 0 01.327.1.73.73 0 00.086.04l.134.218c-.03.32-.213.497-.514.497-.042 0-.086-.003-.13-.008-.15-.018-.3-.038-.45-.058a15.81 15.81 0 00-.84-.094 1.6 1.6 0 00-.251.029c-.07.011-.138.022-.207.029a4.855 4.855 0 00-.117.012c-.095.011-.192.023-.294.023-.043 0-.087-.002-.13-.007a2.3 2.3 0 00-.271-.015c-.277 0-.548.041-.836.085-.099.015-.197.03-.297.043-.105.014-.218.02-.355.02zm31.543.132c-.323 0-.566-.18-.633-.47l.067-.208c.297-.258.637-.497 1.107-.497a1.4 1.4 0 01.207.014.924.924 0 00.268-.078l.097-.037-.001-.513c-.002-.541-.003-1.1.005-1.649.002-.158.019-.313.035-.463a4.6 4.6 0 00.034-.409c.009-.473.01-.955.01-1.421v-.555l.002-.172c.001-.138.003-.28-.002-.417-.008-.208-.018-.416-.028-.624-.016-.33-.031-.671-.038-1.009a29.338 29.338 0 010-.89c.002-.251.004-.502 0-.753a41.475 41.475 0 00-.02-.862 65.247 65.247 0 01-.02-.887c0-.126.01-.248.021-.367.01-.108.02-.21.019-.31 0-.25-.006-.5-.01-.75a34.182 34.182 0 01-.01-.91c0-.137.027-.27.054-.4l.026-.135a1.675 1.675 0 00-.02-.068c-.039-.12-.086-.271-.064-.43a5.154 5.154 0 00-.044-1.574l-.007-.03a.397.397 0 01-.006-.225c.125-.395-.02-.762-.173-1.15a.373.373 0 01-.026-.126l-.158-.006c-.243-.01-.494-.019-.74-.019h-.136c-.188 0-.42-.022-.55-.204-.1-.139-.107-.324-.024-.565l.189-.143.543-.032c.42-.025.846-.05 1.272-.068.16-.007.32-.019.48-.03.262-.018.533-.037.802-.037.199 0 .377.01.544.031.157.02.323.03.521.03.167 0 .337-.007.501-.013a12.5 12.5 0 01.516-.014c.067 0 .133.001.2.003.113.004.227.006.34.006.255 0 .516-.008.768-.016.218-.007.436-.014.654-.016.242-.003.483-.003.724-.003l1.122.001.173.096.09-.055c.222-.018.442-.027.65-.027.566 0 1.08.064 1.57.194.246-.06.5-.092.759-.092.475 0 .967.1 1.551.313l.125.124.332.869c.265.689.515 1.34.754 2.011.248.7.157.833-.37 1.414l-.343-.039-.096-.164a2.622 2.622 0 01-.2-.375c-.12-.296-.236-.594-.353-.892-.158-.408-.322-.83-.495-1.237-.254-.6-.637-.879-1.204-.879l-.14.002c-.418 0-.84-.044-1.197-.086-.588-.07-1.172-.08-1.666-.08-.2 0-.4.002-.599.004l-.603.003c-.48 0-.847-.01-1.192-.034a10.748 10.748 0 00-.732-.022c-.349 0-.706.012-1.051.024a38.894 38.894 0 01-1.073.025h-.176c0 .147.002.29.004.43.006.447.011.869-.011 1.291-.049.915-.017 1.815.046 2.885.01.18-.003.356-.016.527l-.014.205a1.283 1.283 0 01-.01.101c-.005.03-.01.059-.009.078l.007.168c.016.38.032.772.057 1.156.012.186.033.37.056.582l.019.165a.69.69 0 00.097.008c.306-.002.609-.01.912-.016.36-.009.734-.017 1.101-.017.3 0 .566.005.816.017l.142.003c.174 0 .346-.012.528-.026.18-.013.368-.027.555-.027a2.8 2.8 0 01.477.037c.082.014.16.034.257.059l.121.031c.154-.053.232-.234.342-.514l.054-.135.017-.043c.057-.145.176-.45.553-.45l.042.002.149.073.26.302.038.21-.072.2a7.46 7.46 0 00-.169.483.79.79 0 00-.023.266c.012.208.027.416.043.624.018.24.036.481.049.721.008.147-.023.254-.092.327a.282.282 0 01-.207.088c-.1 0-.204-.047-.326-.148l.034-.197-.061-.075a16.25 16.25 0 01-.35-.44c-.162-.213-.291-.292-.476-.292-.017 0-.033 0-.05.002-.338.025-.68.032-1.012.04-.157.003-.315.007-.472.012l-.317.01c-.742.026-1.484.051-2.226.08-.194.007-.387.02-.595.035l-.11.008c0 .197-.02.384-.04.567-.034.303-.066.589.003.882.073.31.022.63-.028.94a4.792 4.792 0 00-.055.424 4.427 4.427 0 00-.002.388c.002.09.004.178.002.268a2.088 2.088 0 01-.015.197c-.004.039-.009.078-.011.116a.78.78 0 00-.001.096c.027.04.06.098.058.175a44.385 44.385 0 01-.075 1.636l.004.425c.002.33.005.671.019 1.004.018.426.05.766.098 1.069.024.153.239.176.365.176h.049c.175-.009.35-.02.524-.03.332-.021.674-.043 1.015-.043h.023c.68.002 1.37.01 2.038.02.764.009 1.554.02 2.33.02l.664-.003a33.67 33.67 0 001.999-.098c.285-.02.576-.04.873-.056l.246-.37c.239-.355.486-.722.697-1.104.209-.378.39-.784.564-1.176.08-.177.158-.354.24-.528l.098-.101a.69.69 0 01.305-.076c.212 0 .397.112.506.307.116.207.044.495.007.61l-.057.179c-.148.466-.3.949-.501 1.408a13.1 13.1 0 01-.805 1.531c-.228.379-.653.456-.997.481a2.208 2.208 0 01-.156.006 4.91 4.91 0 01-.287-.011c-.089-.005-.177-.01-.265-.01h-.025c-.358.004-.715.011-1.073.018-.437.008-.874.016-1.312.02h-.154c-.224 0-.448-.003-.673-.007-.2-.004-.4-.007-.6-.008h-.314c-.446 0-.892.003-1.338.006l-.656.002c-.575.002-1.169.003-1.75.023-.223.008-.454.035-.678.06a7.511 7.511 0 01-.852.065c-.044 0-.088 0-.131-.002a9.203 9.203 0 00-.318-.006c-.176 0-.352.005-.528.009a22.299 22.299 0 01-.732.006c-.136-.002-.27-.017-.398-.03a3.795 3.795 0 00-.403-.03 1.22 1.22 0 00-.376.053.73.73 0 01-.21.03zM59.106 9.385c.52 0 1.071.036 1.6.292.439.212.942.331 1.584.375.083.006.166.008.248.008.398 0 .785-.058 1.194-.12l.247-.036c.404-.059.717-.208.958-.457.495-.512.971-1.06 1.372-1.53.794-.928 1.11-1.798.995-2.737-.064-.527-.288-.994-.525-1.488l-.044-.094a.214.214 0 00-.057-.075 156.24 156.24 0 00-1.68-1.2c-.013-.008-.058-.018-.088-.025a1.62 1.62 0 01-.074-.02 67.356 67.356 0 01-.441-.13c-.35-.106-.711-.215-1.069-.302-.382-.094-.777-.19-1.163-.199l-.111-.001c-.157 0-.315.006-.473.012a12.793 12.793 0 01-.63.011h-.002c-.059 0-.104.005-.149.01a1.873 1.873 0 01-.217.01 11.286 11.286 0 00-.32-.009c-.295-.004-.6-.01-.898-.067a3.772 3.772 0 00-.73-.06c-.151 0-.304.005-.456.01-.137.004-.275.009-.413.01l-.003.057a1.59 1.59 0 00.012.422c.243 1.072.3 2.172.353 3.236l.005.091c.02.392.008.788-.004 1.17-.005.18-.01.358-.013.537 0 .052 0 .103.002.155.002.096.005.195-.004.297-.044.538-.092 1.076-.142 1.643l-.026.293a.928.928 0 01.35-.085l.197.002c.102 0 .204-.001.305-.003l.31-.003zm13.978 10.672a6.99 6.99 0 01-.414-.016 11.61 11.61 0 00-.18-.01l-.195-.008c-.442-.018-.898-.036-1.338-.142-.344-.082-.668-.23-.982-.373a12.62 12.62 0 00-.396-.175c-.144-.06-.187-.188-.21-.257l-.007-.022c-.539-.013-.904-.348-1.227-.644a4.848 4.848 0 00-.29-.253c-.467-.365-.887-.792-1.294-1.206a25.52 25.52 0 00-.666-.66c-.254-.24-.526-.473-.788-.7-.17-.146-.34-.293-.509-.443a6.269 6.269 0 01-.268-.26c-.084-.083-.163-.163-.246-.238a3.71 3.71 0 00-.438-.345l-.097-.064c-.387-.254-.788-.517-1.131-.866-.179-.183-.329-.335-.557-.43-.23-.094-.39-.289-.544-.477-.06-.073-.115-.14-.173-.2a.607.607 0 01-.062-.08c-.394-.043-.56-.357-.673-.57l-.035-.065c-.183-.335-.436-.478-.845-.478h-.169l-.184-.106c-.18-.314-.43-.33-.858-.334a3.489 3.489 0 01-.443-.023c-.004.15.017.284.068.436.073.22.047.449.02.67-.011.105-.023.205-.023.298-.001.505 0 1.01.002 1.515.002.597.003 1.194.001 1.791 0 .137.003.274.006.41.011.461.022.938-.111 1.42-.058.208-.019.473.016.654.038.195.089.458-.04.718.12.01.23.017.338.02h.04c.084 0 .168-.005.252-.01.092-.006.185-.011.277-.011.079 0 .303 0 .446.163.093.106.129.253.106.437l-.07.133a1.1 1.1 0 01-.76.29 1.69 1.69 0 01-.387-.049 6.02 6.02 0 00-1.367-.171c-.24 0-.478.019-.706.056-.327.054-.664.077-.99.1-.148.01-.298.02-.45.033l-.225-.255c.081-.383.199-.413.695-.539.175-.044.348-.08.515-.117l.083-.018c.032-.114.064-.228.097-.34.1-.35.195-.681.249-1.02.043-.274.042-.557.04-.856 0-.143-.001-.286.003-.429.003-.087.008-.175.013-.263.006-.11.013-.219.014-.328.001-.128-.002-.256-.005-.384a13.473 13.473 0 01-.005-.384l.01-.9c.007-.48.013-.96.012-1.44 0-.173-.01-.353-.02-.527a8.99 8.99 0 01-.021-.595c.002-.214.016-.428.03-.634.012-.182.025-.37.029-.553.006-.333.007-.665.009-.997.001-.387.003-.788.013-1.182.005-.215.027-.428.048-.634.015-.145.03-.29.04-.437a3.06 3.06 0 00-.003-.315 5.181 5.181 0 01-.007-.216 80.537 80.537 0 00-.01-.983c-.01-.814-.02-1.656.013-2.485.021-.551-.108-.965-.42-1.34-.094-.114-.17-.152-.3-.152l-.098.001-.18.002a2.41 2.41 0 01-.455-.036l-.03-.006c-.188-.036-.626-.12-.572-.61l.11-.163.116-.066c.093-.054.181-.105.281-.144a.739.739 0 01.26-.054c.057 0 .11.01.156.027.226.088.459.1.656.1.095 0 .189-.003.284-.006.098-.003.198-.007.296-.007.055 0 .11.001.166.004l.313.013c.26.01.529.021.794.04l.163.01c.53.036 1.08.074 1.62.13.226.022.47.033.745.033.312 0 .632-.014.941-.028.314-.014.638-.029.959-.029.284 0 .536.012.771.035.045.005.088.007.131.007.116 0 .233-.013.356-.027.128-.014.26-.03.4-.03l.087.003.037.002c.468.023.952.046 1.392.374.093.068.21.12.333.173.093.04.19.083.283.136a.47.47 0 00.068.026c.1.035.317.109.35.356a.987.987 0 01.117-.007c.394 0 .669.248.89.448l.06.055c.43.383.918.837 1.272 1.379a3.38 3.38 0 01.564 1.621c.01.157.009.313.007.464-.001.13-.002.25.003.373.044 1.058-.279 2.108-.988 3.21-.293.456-.64.859-1.03 1.301-.12.136-.274.223-.423.308-.061.035-.123.07-.183.109l-.184-.044c-.16.253-.433.331-.643.391-.06.017-.118.034-.173.054a2.55 2.55 0 01-.923.15c-.242 0-.485-.022-.72-.043a14.804 14.804 0 00-.842-.056l.434.509c.066.02.135.045.2.09.086.06.119.148.14.206a.37.37 0 00.016.04l.562.592c.2.21.4.42.599.633.091.098.177.202.26.301.086.105.168.203.256.296.457.486.906.962 1.369 1.426.188.19.409.363.621.531l.024.018.384.308c.35.284.713.577 1.091.823l.03.019c.596.387 1.213.788 1.863 1.043.649.254 1.242.378 1.815.378.353 0 .704-.049 1.041-.145.302-.086.617-.092.921-.097.136-.003.264-.005.391-.014l.06.03.152-.072c.182-.088.355-.17.513-.272.407-.262.814-.54 1.208-.81l.491-.334.148-.034a.36.36 0 00.049.003c.131 0 .25-.083.4-.188.126-.087.269-.186.447-.255l.282.252c-.183.7-.632 1.115-1.04 1.449-.388.318-.817.589-1.232.85-.151.095-.302.191-.452.288l-.118.035a.21.21 0 01-.041-.003.38.38 0 01-.14.103c-.154.065-.308.132-.461.199-.503.218-1.023.443-1.557.609a2.013 2.013 0 01-.609.079zm-51.1-10.178c.241 0 .484.018.718.034.191.014.389.028.58.032l.204.002c.403 0 .758-.028 1.086-.086.129-.023.259-.038.384-.052.226-.026.44-.05.632-.117.529-.183.998-.356 1.386-.627.24-.169.437-.414.644-.674.09-.112.182-.227.28-.337a.143.143 0 00.026-.041l.054-.266c.105-.506.212-1.03.306-1.545.046-.254.068-.52.09-.779l.003-.032c.01-.123.018-.252-.005-.359a23.871 23.871 0 00-.303-1.207 1.62 1.62 0 00-.167-.405c-.03-.05-.078-.102-.128-.158-.09-.1-.194-.214-.239-.365-.073-.247-.224-.386-.539-.494a.356.356 0 01-.15-.109c0-.002-.003-.004-.005-.006a4.896 4.896 0 01-.194-.092 2.431 2.431 0 00-.506-.201 15.748 15.748 0 00-1.052-.185c-.166-.025-.332-.05-.497-.078-.15-.026-.3-.053-.45-.082-.287-.053-.584-.11-.874-.14-.25-.027-.511-.04-.763-.052-.426-.02-.866-.042-1.294-.132a4.608 4.608 0 00-.96-.086c-.197 0-.399.007-.593.014-.148.005-.297.01-.446.013-.127.002-.128.018-.132.097l-.007.12a10.51 10.51 0 00-.024.737c.004.255.017.517.03.77.007.154.015.308.02.463.006.143-.003.325-.122.448a.358.358 0 01-.134.088l.246 5.614c.18.06.358.064.559.068l.119.003c.322.011.64.059.948.105.354.053.687.103 1.03.103.032 0 .065 0 .098-.002a4.97 4.97 0 01.14-.002zM37.85 20.441c-.437 0-.8-.043-1.146-.136-.377-.101-.774-.17-1.16-.235-.323-.056-.658-.113-.985-.19-.4-.094-.796-.216-1.18-.334a28.65 28.65 0 00-.716-.213 2.656 2.656 0 00-.305-.06c-.154-.025-.314-.05-.47-.11a27.57 27.57 0 01-1.573-.664 16.02 16.02 0 00-.435-.186c-.422-.176-.859-.357-1.232-.633-.144-.106-.302-.198-.469-.296-.414-.242-.843-.492-1.098-.985a.56.56 0 00-.14-.1 1.774 1.774 0 01-.124-.079c-.52-.371-.952-.863-1.4-1.597-.15-.248-.335-.474-.53-.713a8.632 8.632 0 01-.464-.605c-.318-.468-.74-.818-1.188-1.189l-.148-.122a1.886 1.886 0 01-.226-.236l-.03-.035c-.283-.037-.507-.194-.706-.334-.163-.114-.317-.221-.492-.267a29.35 29.35 0 01-.335-.089 9.735 9.735 0 00-1.07-.245 43.52 43.52 0 00-1.215-.162l.001.007c.023.212.045.41.053.617a2.77 2.77 0 01-.02.375c-.008.09-.016.176-.017.26-.002.13.002.26.005.389.006.184.01.375.001.565-.01.215-.036.429-.06.635-.017.15-.034.299-.046.449-.015.184-.026.368-.037.552-.017.296-.035.602-.07.904-.009.075.002.164.014.257.025.207.059.483-.138.725l.006.444c.005.477.01.972.046 1.452.01.019.091.09.14.132.05.045.103.092.15.143v.006h.059c.085.002.171.003.257.003a5.17 5.17 0 00.386-.01c.385 0 .612.219.672.652l-.177.239c-.1.016-.2.037-.302.058a3.357 3.357 0 01-.688.094h-.05a36.95 36.95 0 01-1.847-.12 45.53 45.53 0 00-.52-.043 8.968 8.968 0 01-.934-.106 2.034 2.034 0 01-.418-.14 4.978 4.978 0 00-.183-.073l-.112-.302.184-.333.198-.11 1.388.08c-.076-.453-.009-.885.057-1.304.036-.236.07-.457.08-.681l.006-.128c.011-.225.022-.458.012-.68-.02-.465-.045-.929-.07-1.393-.037-.704-.076-1.432-.1-2.15a41.118 41.118 0 01-.009-1.703c.002-.256.004-.514.004-.774l.118-.19c.2-.1.204-.219.165-.535-.015-.123-.031-.249-.02-.378.015-.16-.005-.329-.026-.508a4.4 4.4 0 01-.033-.382c-.014-.468-.015-.9-.004-1.319.004-.156.03-.309.056-.47a9.88 9.88 0 00.038-.248h.003l-.088-.16-.001-.616c-.001-.478-.002-.965.002-1.45.005-.488.015-.975.026-1.467l.008-.422h-.022a8.538 8.538 0 01-.282.006c-.148 0-.272-.006-.388-.018a2.509 2.509 0 01-.505-.124 4.987 4.987 0 00-.22-.067.107.107 0 00-.022-.002h-.019c-.024 0-.049 0-.073-.002-.217-.02-.58-.148-.562-.77l.199-.206.413-.025c.513-.031 1.03-.063 1.546-.092l.017-.001c.057 0 .105.016.137.027.342-.072.672-.082.95-.082.123 0 .247.002.37.005.12.002.24.004.36.004.17 0 .31-.004.439-.014 1.003-.076 2.01-.09 2.985-.104h.037c.25 0 .497.034.736.067.105.015.21.03.315.04.047.006.094.014.14.022l.1.017c.193.024.385.05.578.076.444.06.904.124 1.354.153.412.027.736.203 1.05.373.154.083.299.161.45.22.182.072.365.139.548.206l.317.116.039.015c.098.037.2.074.299.12.743.341 1.278.832 1.59 1.459.22.44.312.937.401 1.418l.021.113c.157.838.086 1.745-.216 2.774a5.251 5.251 0 01-.854 1.696c-.4.519-.862.88-1.372 1.073a6.627 6.627 0 00-.75.358 7.66 7.66 0 01-.748.36c-.578.228-1.217.335-2.01.335l-.204-.003c-.13-.002-.261-.003-.392-.003h-.128l.421.267.081.05c.078.047.16.096.237.16.115.094.228.191.341.288.162.14.329.283.498.414.101.078.21.148.324.223.177.115.36.233.52.386.185.176.292.412.373.652.079.017.173.05.227.148.155.28.415.462.69.654.104.072.21.147.311.227.483.383 1.006.738 1.511 1.082.15.102.3.203.449.306.253.174.524.337.787.495l.297.18c.32.194.65.395.984.57.264.138.55.257.824.372l.306.13a.57.57 0 00.084.023c.087.02.195.045.28.131.155.158.358.208.594.267.114.028.232.058.35.101.172.065.34.139.503.21l.19.084.162.03.39.076.336.069c.2.041.401.083.602.12.159.028.317.058.475.088.456.087.926.176 1.39.23.115.014.24.02.392.02.122 0 .245-.004.368-.008a8.484 8.484 0 01.475-.008c.145.003.285.02.434.04l.082.01.067-.072c.142-.044.282-.09.422-.137.319-.108.65-.218.987-.285a9.8 9.8 0 001.175-.308c.17-.056.304-.132.478-.244.208-.133.425-.256.634-.375a32.392 32.392 0 00.606-.349c.266-.153.542-.312.805-.477.198-.125.342-.207.532-.207.101 0 .207.022.364.077l.089.342c-.092.102-.177.206-.262.31-.19.23-.387.47-.63.655-.647.492-1.235.874-1.798 1.169-.415.217-.862.374-1.294.525a24.11 24.11 0 00-.486.174c-.708.265-1.519.418-2.479.467-.166.009-.333.021-.5.034-.31.022-.63.046-.95.046zM4.674 35.435c.108 0 .218 0 .327.003l.358.008c.557.012 1.133.025 1.7.052a62.35 62.35 0 011.671.11l.321.023c.07.005.13.023.184.039.037.01.075.022.096.022.116-.009.23-.027.35-.045.174-.028.353-.056.536-.056.028 0 .055 0 .083.002a4.439 4.439 0 002.547-.628l.089-.053c.455-.271.885-.526 1.12-.985l.201-.4a68.806 68.806 0 01.486-.95c.033-.063.026-.14.012-.26a1.154 1.154 0 01-.004-.339c.085-.502.029-1.056-.031-1.536-.022-.18-.083-.36-.147-.55a3.44 3.44 0 01-.162-.59c-.095-.637-.55-.949-1.204-1.222-.425-.177-.923-.241-1.406-.303a23.372 23.372 0 01-.384-.052c-.315-.046-.64-.074-.956-.1-.254-.023-.517-.045-.776-.077l-.147-.02c-.218-.027-.424-.054-.63-.054-.118 0-.224.008-.326.026a.612.612 0 01-.106.01.988.988 0 01-.362-.08.306.306 0 00-.138-.026l-.129.001a7.87 7.87 0 01-.85-.061l-.3-.032c-.138.02-.28.03-.432.03-.328 0-.652-.047-.966-.092-.304-.044-.619-.09-.927-.09h-.004v8.276l.306-.001zm-.45 11.977c.086.11.183.133.323.133.06 0 .121-.004.183-.008l.138-.009c.479-.02.958-.023 1.363-.023l.666.002c.13 0 .26.01.384.02.123.009.24.018.357.018l.045-.001c.25-.006.504-.018.75-.03.337-.016.685-.034 1.03-.034.078 0 .155.001.232.003a18.868 18.868 0 001.473-.032c.729-.042 1.469-.14 2.122-.225 1.071-.14 1.943-.306 2.6-1.043.323-.363.675-.803.83-1.32.17-.568.287-1.17.4-1.751l.091-.468c.05-.246.101-.5.062-.711a9.76 9.76 0 00-.31-1.14 29.086 29.086 0 01-.113-.365.489.489 0 00-.05-.094c-.043-.072-.097-.162-.105-.275-.045-.566-.327-1.063-.889-1.564-.258-.23-.562-.408-.884-.597-.086-.05-.172-.1-.256-.151-.005 0-.01.002-.014.003a.608.608 0 01-.128.017.302.302 0 01-.148-.036.78.78 0 01-.204-.172h-.002c-.084.018-.17.036-.265.036a.718.718 0 01-.065-.003c-.13-.013-.252-.043-.37-.071a3.024 3.024 0 00-.225-.05l-.323-.056a36.23 36.23 0 00-1.354-.22c-.29-.04-.59-.066-.879-.091-.182-.016-.364-.032-.546-.051a3.81 3.81 0 00-.27-.017c-.25-.01-.529-.02-.793-.153a1.262 1.262 0 01-.432.071c-.17 0-.333-.027-.49-.052-.123-.02-.238-.039-.35-.045a59.147 59.147 0 01-1.202-.082l-.815-.059a99.407 99.407 0 00-1.155-.066l-.311-.017-.102 10.779zm7.263 1.494c-.272 0-.543-.032-.805-.063a6.327 6.327 0 00-.756-.061c-.386 0-.777.025-1.155.048a20.1 20.1 0 01-1.158.048h-.029c-.407 0-.818-.028-1.216-.056-.25-.018-.508-.036-.761-.046l-.682-.03a47.527 47.527 0 00-2.21-.068h-.204c-.365.004-.726.057-1.108.113a14.61 14.61 0 01-.683.09.57.57 0 01-.054.002c-.11 0-.212-.032-.302-.06-.037-.012-.074-.024-.11-.032l-.156-.269c.01-.036.02-.073.028-.11.024-.102.051-.219.118-.324.225-.357.562-.398.796-.398h.059c.278 0 .556-.042.85-.086.094-.014.186-.028.279-.04.182-.025.208-.124.209-.217.007-.622.006-1.254.006-1.865v-.14l-.006-2.204-.003-1.168v-.919c-.083-.345-.022-.759.053-1.234-.14-.23-.128-.506-.118-.753.005-.105.01-.213.003-.313l.123-.191-.005-.007a1.26 1.26 0 01-.051-.07c-.08-.118-.078-.258-.077-.37v-.089a7.833 7.833 0 00-.01-.122c-.01-.141-.022-.287-.013-.437a.854.854 0 01.117-.387l-.004-.008a.868.868 0 01-.1-.346 97.755 97.755 0 01-.01-1.526c-.001-.36-.002-.72-.006-1.081a112.76 112.76 0 00-.019-1.163c-.008-.468-.017-.937-.02-1.406-.003-.601 0-1.211.003-1.802a214.366 214.366 0 00.005-2.013v-.368l-.397-.464-.017-.006a7.385 7.385 0 00-.273-.09 1.403 1.403 0 01-.079-.028c-.031-.01-.078-.028-.095-.029l-.02.004c-.315.054-.473.08-.614.08-.172 0-.294-.042-.479-.106l-.129-.274.17-.46.28-.123c.098.04.21.059.36.059.081 0 .163-.005.243-.01.089-.005.177-.01.263-.01.177 0 .403.018.619.155l.616-.002c.134 0 .266 0 .397.003.162.004.325.004.487.004h.146c.515 0 .98.006 1.442.078.069.01.142.016.223.016.116 0 .23-.01.352-.022a4.26 4.26 0 01.387-.023c.07 0 .136.003.2.01.114.012.237.018.378.018.164 0 .335-.008.5-.016.17-.008.346-.016.52-.016.09 0 .177.002.265.007.465.027.941.035 1.402.043.657.01 1.336.021 2.008.088 1.023.102 1.82.333 2.51.73.073.041.157.093.232.162a.381.381 0 01.058.068c.088.002.193.01.281.085l.206.17c.397.327.808.665 1.087 1.174.543.99.66 2.073.726 3.01a.756.756 0 01-.035.269c-.042.14-.082.28-.12.421-.1.359-.203.728-.357 1.078-.156.353-.399.66-.633.956l-.069.088c-.247.315-.457.528-.68.69a16.32 16.32 0 01-1.157.752c.282.01.543.085.796.158l.105.03c.173.05.348.093.523.138.206.052.42.106.63.168.438.13.779.4 1.109.66.446.354.79.688 1.016 1.156.411.189.587.564.719.904.044.115.09.229.135.343.188.473.383.963.504 1.468.212.885.376 1.93-.014 2.974a4.128 4.128 0 00-.151.545c-.054.236-.11.48-.212.71-.388.884-1.095 1.506-1.801 2.046-.195.15-.372.321-.559.503-.12.118-.245.239-.376.354-.154.136-.31.225-.46.264l-.338.09c-.47.126-.954.256-1.446.327-.689.099-1.414.154-2.157.164h-.045zm33.168-10.155c.636 0 1.28.031 1.902.062l.492.023c.156.007.302.055.444.1l.062.021a.265.265 0 01.174-.068c1.078-.005 2.157-.006 3.236-.006h.972l.022-.085a12.713 12.713 0 00-.083-.135 3.093 3.093 0 01-.225-.413c-.057-.137-.098-.28-.138-.419-.066-.226-.128-.44-.246-.588-.243-.306-.375-.648-.503-.979-.1-.26-.195-.505-.339-.726-.262-.402-.455-.848-.642-1.278l-.093-.214c-.08-.184-.13-.372-.189-.589l-.063-.231c-.239-.136-.464-.415-.466-.848-.338-.347-.525-.769-.706-1.176a12.24 12.24 0 00-.155-.342c-.04-.083-.066-.165-.092-.245a1.242 1.242 0 00-.087-.222c-.283-.5-.477-1.028-.67-1.607-.657 1.64-1.387 3.256-2.095 4.823-.749 1.66-1.522 3.375-2.205 5.106l.18.01c.309.017.6.033.89.033.06 0 .12 0 .18-.002.147-.004.296-.005.443-.005zm11.606 10.365c-.18 0-.362-.027-.538-.052a4.506 4.506 0 00-.407-.047c-.402-.018-.83-.052-1.25-.237l-.125-.215c.06-.59.53-.595.755-.598h.093l.365.002c.13 0 .229-.003.32-.01a.882.882 0 00.225-.056h.002c.055-.186-.01-.35-.114-.588-.084-.19-.177-.402-.167-.646-.094-.062-.268-.199-.23-.434-.14-.153-.196-.341-.241-.498-.036-.122-.07-.238-.135-.317a.617.617 0 01-.107-.217c-.13-.43-.349-.813-.58-1.218-.193-.336-.392-.684-.535-1.06a4.139 4.139 0 01-.202-.813c-.024-.141-.12-.289-.222-.444a3.019 3.019 0 01-.191-.322 28.317 28.317 0 01-.41-.891l-.114-.257h-.857l-.646.001a37.95 37.95 0 00-.583.008c-.21.004-.422.007-.633.008h-.02c-.125 0-.25-.004-.373-.008a11.7 11.7 0 00-.323-.008l-.635-.005a136.18 136.18 0 00-1.22-.008 56 56 0 00-.668.004 48.96 48.96 0 00-1.333.042l-.789.029h-.058c-.067 0-.135-.003-.203-.006a3.608 3.608 0 00-.182-.006l-.06.001c-.159.007-.317.017-.475.028-.22.014-.447.028-.672.033h-.019a1.52 1.52 0 01-.343-.05 2.55 2.55 0 01-.043-.009l-.18.39c-.133.29-.263.583-.393.876-.292.657-.593 1.336-.933 1.985l-.078.15c-.42.806-.854 1.64-1.541 2.311-.17.166-.335.347-.495.522-.257.283-.524.576-.827.825a6.667 6.667 0 01-2.483 1.299 3.218 3.218 0 01-.687.086c-.07.003-.14.007-.209.012l-.13.01c-.573.043-1.166.088-1.75.119a38.71 38.71 0 01-1.484.042c-.924.012-1.848.02-2.773.029l-.46.004-.79.005c-.446.002-.893.004-1.339.012-.304.005-.609.014-.913.023a42.66 42.66 0 01-1.348.028c-.464 0-.922-.012-1.366-.023a57.05 57.05 0 00-1.013-.022c-.128-.001-.518-.006-.628-.447l-.005-.078c.037-.292.219-.44.54-.44l.131.002h.022c.157-.004.315-.005.468-.005l.507.002.035-.047c.065-.087.126-.169.219-.228.217-.138.266-.356.275-.663.014-.493.01-.996.008-1.483-.001-.168-.003-.336-.003-.505l-.002-.775c-.001-.95-.003-1.899-.01-2.848-.003-.274-.012-.553-.02-.823a27.683 27.683 0 01-.021-1.004c.001-.388.012-.78.022-1.16.01-.322.018-.643.022-.965a8.55 8.55 0 00-.016-.53 9.218 9.218 0 01-.017-.537c.004-.512.011-1.025.018-1.538.008-.517.015-1.034.018-1.55.003-.411 0-.822-.003-1.233-.003-.349-.006-.698-.005-1.047.002-.744.013-1.485.023-2.048l.002-.115c.009-.456.017-.89-.154-1.343l-1.899-.115-.182-.128c-.15-.35-.132-.414.043-1.025l.2-.154c.167-.004.337-.012.508-.02.238-.01.484-.022.73-.022.167 0 .317.005.46.016.453.034.93.05 1.502.05.476 0 .962-.012 1.43-.023l.577-.012.202-.002c.298 0 .6.012.892.023.202.008.404.016.605.02a.468.468 0 00.107-.025l.05-.015c.026-.008.052-.018.079-.028a.797.797 0 01.333-.068c.11 0 .21.02.308.038.085.016.166.032.242.032.047 0 .09-.006.13-.019.2-.06.403-.067.559-.067.08 0 .16.002.24.005.072.002.143.004.213.004.09 0 .174.028.248.051l.07.022c.171-.103.358-.151.584-.151.128 0 .252.015.373.03.112.014.217.027.32.027a.877.877 0 00.146-.011c.282-.048.567-.051.842-.055l.186-.002a8.35 8.35 0 01.158-.002c.205 0 .411.007.61.014l.072.003c.768.026 1.562.054 2.343.088.112.005.221.02.327.034.093.013.181.025.269.03.445.025.489.347.51.502a.463.463 0 00.026.123l.01.022.092.226c.07.171.143.349.206.53.049.141.09.285.128.425.069.247.134.48.24.688.377.742.545 1.524.67 2.258.03.176.075.355.123.545.024.094.049.192.073.295l-.027.163-.193.303-.299.061c-.034-.024-.076-.045-.117-.067-.131-.069-.28-.147-.343-.303a8.107 8.107 0 00-.11-.254c-.172-.39-.351-.794-.293-1.28-.003-.012-.009-.024-.013-.036l-.065-.177c-.063-.172-.129-.35-.2-.52l-.108-.262c-.151-.375-.295-.729-.528-1.065-.315-.455-.568-.593-1.083-.593h-.2c-.823 0-1.656-.061-2.461-.121a53.58 53.58 0 00-1.125-.078l-.529-.035a22.098 22.098 0 00-1.447-.066h-.019c-.384 0-.777.024-1.158.047-.273.016-.555.033-.834.042-.305.009-.613.01-.912.01-.29 0-.59 0-.883.008-.226.007-.449.03-.707.056l-.193.02v.113c.001.218.002.43-.001.64-.01.603-.023 1.206-.035 1.809l-.016.835-.004.122a3.17 3.17 0 00-.001.286c.009.148.021.296.034.444.02.254.043.516.047.777.004.29-.005.582-.014.865-.007.224-.015.457-.015.683 0 .275.006.555.012.826.006.265.012.53.012.793a5.528 5.528 0 01-.037.577l.186.001.374.002c.148 0 .293-.001.44-.005.429-.012.859-.026 1.288-.04.656-.021 1.334-.044 2.001-.055.081-.002.163-.002.244-.002.471 0 .948.022 1.41.043l.055.002.068.002c.204 0 .27-.031.375-.264.09-.199.2-.386.306-.566l.135-.232.25-.099c.37.12.547.339.557.69.006.225.016.45.027.674.013.287.028.584.032.878.005.357-.024.706-.052 1.001a.736.736 0 01-.105.29.923.923 0 00-.042.083l-.235.123c-.518-.1-.547-.484-.564-.713a3.597 3.597 0 00-.009-.098c-.307-.08-.391-.368-.449-.568l-.013-.044c-.366.016-.762.023-1.23.023-.343 0-.686-.004-1.029-.007a87.74 87.74 0 00-1.023-.008c-.907 0-1.97.025-3.03.204-.117.435-.104.897-.09 1.383.006.231.013.471.005.708-.013.35-.014.71-.015 1.06-.001.349-.003.71-.015 1.067a4.22 4.22 0 00.032.564c.013.13.026.263.032.397.006.146.017.294.028.44.029.4.058.813.006 1.22a6.208 6.208 0 00-.026.958c.004.189.009.384.003.58-.012.438-.003.878.007 1.343l.008.437.178.004c.194.005.377.01.557.01l.173-.001c.282-.006.563-.017.845-.028.375-.014.764-.03 1.148-.032h.163c.355 0 .71.006 1.064.012.352.005.704.011 1.056.011l.279-.001c.217-.002.434-.031.663-.062.136-.018.272-.036.408-.049.14-.012.281-.021.422-.03.169-.009.343-.02.511-.038l.492-.053c.54-.058 1.1-.117 1.64-.21a8.277 8.277 0 002.965-1.108c.175-.109.33-.281.474-.449 1.081-1.258 2.159-2.65 2.715-4.31.258-.773.588-1.503.876-2.115.229-.487.42-1.007.606-1.51.08-.218.16-.437.245-.654l.002-.02a.374.374 0 01.069-.186c.226-.294.347-.642.476-1.01.088-.25.178-.51.306-.757.172-.331.3-.68.435-1.05a16.3 16.3 0 01.245-.638c.157-.377.319-.753.48-1.128l.163-.38c.065-.15.134-.3.204-.45.11-.239.224-.486.316-.732.13-.35.29-.691.446-1.021a25.738 25.738 0 00.501-1.124c.154-.36.313-.734.487-1.095.277-.58.582-1.155.877-1.712l.088-.167c.05-.095.134-.148.207-.195.025-.016.052-.033.079-.054l.313.063c.07.123.157.231.248.346.182.229.37.464.425.81.007.014.058.062.091.094.07.067.15.143.198.247.28.612.554 1.237.82 1.842l.327.744.218.488c.137.301.277.612.407.924.106.253.206.51.302.761.137.354.28.72.436 1.069.263.589.549 1.181.825 1.755.12.246.238.493.356.741l.025.05c.026.046.055.1.073.164.094.331.238.64.391.966.1.214.204.436.292.664.25.649.555 1.292.85 1.914l.048.1c.206.434.423.871.632 1.294.196.397.393.793.584 1.191.053.112.08.224.104.333.02.086.039.167.068.234.077.174.165.34.259.518.055.104.11.209.163.315l.185.367c.186.37.379.752.55 1.139.083.184.147.375.21.56.066.195.129.38.21.556.042.09.115.179.192.273.077.093.157.19.22.303.075.138.132.281.187.42.054.135.105.262.17.379.229.41.619.659 1.031.924l.098.062a.567.567 0 01.063-.003c.145 0 .273.052.386.098.082.033.16.064.218.064.02 0 .063 0 .13-.073l.344.045.226.427-.137.305a3.943 3.943 0 01-.945.121 3.3 3.3 0 01-.722-.079.807.807 0 01-.484.14c-.147 0-.292-.029-.415-.083a.67.67 0 01-.353.093c-.1 0-.195-.017-.287-.033a1.32 1.32 0 00-.227-.028.378.378 0 00-.108.014c-.114.034-.24.05-.381.05zm14.522-11.007c.097 0 .18.038.241.073l.016-.007c.082-.036.166-.074.26-.095.184-.04.368-.077.552-.114.252-.05.514-.103.766-.164.16-.04.317-.09.483-.142.207-.066.421-.134.642-.18.6-.12.996-.527 1.416-.958.116-.118.235-.24.359-.355.007-.014.011-.03.016-.046l.027-.069c.214-.49.436-.997.834-1.415.011-.012.034-.05.057-.179.028-.154.05-.31.073-.466a7.84 7.84 0 01.16-.864c.176-.664.07-1.343-.07-1.979-.16-.726-.71-1.282-1.171-1.685-.434-.379-.938-.687-1.425-.985a6.31 6.31 0 00-.812-.394l-.232-.1-.064-.03c-.155-.069-.315-.14-.463-.16a46.999 46.999 0 00-2.367-.258 54.624 54.624 0 00-2.651-.138 31.642 31.642 0 00-.925-.011l-.736.003c-.204.001-.409.003-.615.003a.35.35 0 00-.031.097c-.005.12-.001.24.003.366.004.177.01.36-.008.545l-.016.156c-.067.67-.13 1.304-.04 1.958.048.343.033.69.02 1.027-.008.175-.015.356-.014.53.002.119.013.239.025.365.013.14.026.283.026.43 0 .19-.026.376-.05.555-.04.285-.076.553-.011.819.036.152-.034.293-.08.381.084.678.068 1.317.051 1.992-.005.224-.011.455-.013.688l.225.015c.306.02.622.042.93.088.132.019.264.035.395.052.475.059.967.12 1.442.31.291.116.673.254 1.052.297.338.038.698.057 1.1.057.191 0 .39-.004.61-.013h.013zm15.041 11.727a9.06 9.06 0 01-.81-.048l-.24-.021c-.61-.05-1.263-.11-1.905-.215-1-.162-1.802-.391-2.527-.72a33.313 33.313 0 00-.92-.396 23.839 23.839 0 01-1.292-.57 8.026 8.026 0 01-.927-.562c-.134-.09-.268-.18-.404-.265l-.353-.22c-.156-.098-.313-.194-.468-.293-.437-.278-.981-.625-1.318-1.157-.174-.277-.43-.473-.7-.68-.226-.175-.461-.355-.654-.592a25.393 25.393 0 00-.755-.89.69.69 0 00-.14-.103 1.986 1.986 0 01-.113-.073c-.484-.35-.856-.804-1.216-1.242l-.155-.188a4.173 4.173 0 00-.328-.338 4.13 4.13 0 01-.362-.373c-.634-.763-1.512-1.22-2.36-1.663-.59-.307-1.211-.394-1.87-.487a15.57 15.57 0 01-.684-.106c-.099-.018-.198-.03-.322-.047h-.004l-.01.137c-.016.266-.032.516-.034.767-.002.185.024.37.051.565.048.346.098.704-.001 1.098-.074.291-.053.615-.03.958.008.144.018.292.02.44l.002.11c.015 1.08.03 2.195.054 3.292.008.344.022.694.037 1.033l.029.741c.004.133.028.174.129.223.128.061.226.16.312.251.25-.13.586-.146.743-.146.35 0 .69.073.935.2l.115.185c.005.333-.19.546-.521.568l-.59.042a54.05 54.05 0 01-1.64.102l-.026.001c-.142 0-.27-.049-.395-.097l-.093-.035a1.93 1.93 0 01-.61.085c-.128 0-.258-.008-.383-.015a6.464 6.464 0 00-.367-.014l-.09.001c-.19.007-.381.009-.575.009l-.45-.003-.48-.002-.198-.134-.165-.417.131-.28.845-.278.226.06c.14.16.217.212.25.229a.612.612 0 00.066-.146l.201-.145.214-.002a2.221 2.221 0 01.184.007l.113-.236c.138-.063.149-.141.133-.42l-.004-.074a6.246 6.246 0 01.007-.564c.013-.317.026-.617-.045-.887-.08-.304-.047-.584-.018-.83.014-.126.028-.245.028-.363 0-.146-.008-.297-.016-.443a7.641 7.641 0 01-.016-.498.949.949 0 01.078-.328c.013-.036.027-.074.04-.115l.004-.16a4.089 4.089 0 00-.008-.504c-.015-.156-.042-.31-.07-.475a5.276 5.276 0 01-.086-.677c-.013-.33-.005-.661.004-.983.005-.213.01-.434.01-.65 0-.12-.012-.243-.024-.373a3.7 3.7 0 01-.025-.51c.026-.62.078-1.248.129-1.855a.341.341 0 01.065-.172.012.012 0 01-.001-.003c-.044-.1-.094-.213-.096-.34l-.006-.26c-.01-.445-.022-.906.022-1.36.04-.407.033-.825.025-1.23-.005-.298-.01-.607.002-.914.024-.56.025-1.132.026-1.685 0-.269.002-.538.005-.806l.014-1.15.018-1.451c0-.05-.004-.104-.01-.161a2.702 2.702 0 00-.667-.079c-.353 0-.708.06-.978.112l-.152-.029c-.294-.184-.476-.307-.5-.51a.403.403 0 01.08-.275l-.022-.063.133-.272c.033-.01.066-.025.1-.04a.819.819 0 01.327-.086c.515.009 1.02.023 1.527.038.518.015 1.037.03 1.556.039.463.008.819.01 1.153.01.427 0 .809-.005 1.17-.017l.037-.001c.117 0 .223.018.327.035.091.015.178.029.262.029a.6.6 0 00.14-.015.994.994 0 01.228-.025c.123 0 .245.018.363.035.11.017.213.032.31.032a34.6 34.6 0 00.97-.021c.255-.009.511-.017.766-.02h.045c.429 0 .802.092 1.133.28l.166-.101c.146 0 .291-.002.436-.005.148-.002.295-.005.442-.005.217 0 .396.006.564.017.669.044 1.235.192 1.731.45.357.186.684.412 1 .631.187.13.38.264.575.385.716.447 1.146 1.1 1.562 1.732l.055.083c.384.582.791 1.282.902 2.065.05.351.043.707.036 1.052-.003.146-.005.292-.004.437.005.467-.02 1.004-.383 1.48a.7.7 0 00-.005.098.96.96 0 01-.014.185c-.083.419-.329.718-.566 1.008-.152.186-.296.362-.39.56-.21.452-.536.797-.851 1.13l-.099.105c-.215.23-.51.36-.794.486l-.16.071c-.3.139-.615.244-.919.347l-.072.024a8.9 8.9 0 01-.93.276c-.577.126-1.047.21-1.479.267-.12.015-.25.022-.41.022-.087 0-.175-.002-.263-.004a9.173 9.173 0 00-.252-.004h-.038c-.052 0-.103 0-.154.002l.201.147c.386.284.786.576 1.172.875.112.086.203.187.29.286.048.052.095.105.145.154.21.204.42.405.63.607l.3.287.146.138c.124.118.252.239.374.367.041.043.074.088.103.128.063.088.09.12.147.133.131.031.19.143.234.223.01.02.026.05.035.062l.011.008.193.158c.156.128.312.255.465.385a7.414 7.414 0 01.65.612c.114.116.232.237.351.348.14.13.292.257.438.38l.18.152c.087.074.172.149.258.224.2.173.406.353.616.515.122.095.25.18.386.27.2.132.405.268.59.435.08.074.184.13.295.188.152.081.321.171.442.326l.057.014c.097.022.196.046.29.1.182.104.362.216.536.326.335.21.652.409.993.557.752.326 1.427.495 2.066.517.22.008.439.018.658.027.49.021.998.043 1.494.043.087 0 .174 0 .26-.002.43-.007.873-.068 1.3-.126l.36-.048c.292-.038.59-.084.878-.13.217-.033.434-.066.65-.097a6.988 6.988 0 002.716-.97c.778-.474 1.233-1.22 1.632-1.942l.009-.019a.358.358 0 01.103-.146c.29-.235.342-.59.397-.967.009-.061.017-.121.027-.18.055-.337.038-.687.02-1.057-.007-.156-.014-.312-.016-.467a.087.087 0 00-.012-.03c-.23-.386-.25-.461-.147-.875-.404-.89-1.086-1.577-2.027-2.042a12.137 12.137 0 00-.819-.357 9.612 9.612 0 01-1.112-.51c-.364-.204-.757-.3-1.174-.402-.302-.074-.615-.15-.916-.272a10.89 10.89 0 01-.823-.388c-.135-.068-.271-.137-.408-.202l-.044-.023c-.034-.016-.09-.044-.11-.046-.028.002-.06.002-.09.002-.48 0-.9-.172-1.305-.338-.133-.054-.27-.11-.404-.159a.5.5 0 01-.237-.21.488.488 0 01-.113.014c-.165 0-.32-.076-.5-.19-.212-.133-.436-.26-.652-.382-.238-.135-.484-.274-.72-.425-.17-.109-.313-.247-.452-.38a5.89 5.89 0 00-.163-.155.25.25 0 01-.042-.049c-.496-.182-.718-.591-.915-.955a3.355 3.355 0 00-.264-.434c-.24-.31-.3-.65-.36-.979-.018-.094-.035-.19-.057-.285-.195-.842.005-1.608.198-2.349l.043-.162c.162-.63.46-1.11.912-1.468.334-.264.656-.56.968-.846l.379-.345.026-.15c.13-.048.259-.095.388-.144.292-.108.585-.216.879-.318a4.941 4.941 0 011.644-.286h.1c.3 0 .604-.061.927-.126.094-.02.188-.038.281-.056a1.39 1.39 0 01.25-.025c.19 0 .34.051.452.154l.14.004c.152.005.297.01.443.03l.212.03c.35.049.713.098 1.065.19.441.113.876.269 1.295.419l.125.044c.255.091.508.195.753.295l.323.131.03.01a.455.455 0 01.17.086c.202.173.434.264.672.264.33 0 .629-.178.82-.488.19-.306.296-.354.709-.444l.255.182c.008.062.018.124.028.185.025.152.051.308.04.472-.016.264-.047.53-.076.786-.023.2-.046.4-.063.602-.034.412-.05.751-.049 1.068 0 .133-.008.264-.016.39-.015.257-.03.499.02.736.035.165-.089.285-.188.381-.026.026-.053.05-.072.074l-.306.023a.856.856 0 00-.081-.06c-.11-.078-.247-.175-.244-.341.006-.34-.198-.567-.433-.83a9.38 9.38 0 01-.108-.12c-.09-.104-.18-.21-.269-.316-.296-.351-.603-.714-.95-1.002-.409-.34-.921-.582-1.322-.754-1.056-.454-2.205-.547-3.2-.599l-.323-.017a25.592 25.592 0 00-1.394-.052 13 13 0 00-.342.005c-.76.024-1.45.325-2.106.922a5.352 5.352 0 00-1.131 1.466c-.066.127-.087.296-.109.475a5.118 5.118 0 01-.026.197c-.01.069-.014.143-.018.222a1.703 1.703 0 01-.05.392c-.305 1.075.595 2.357 1.543 2.702.447.163.891.348 1.32.528.351.146.714.297 1.073.434.468.179.952.346 1.42.507.27.093.54.187.81.283.189.067.39.143.58.242.334.175.644.28.975.327.543.08 1.086.245 1.564.39.4.122.784.258 1.19.401.176.061.352.124.53.185l.125.151.023-.022.287-.004c.114.101.232.2.35.3.274.232.557.471.805.746.377.416.7.906.961 1.3.394.594.59 1.313.6 2.196.006.554.035 1.098.059 1.511.029.485.018 1.038-.277 1.463-.111.16-.2.336-.295.521-.177.349-.36.709-.705.988-.146.118-.264.287-.389.466-.062.09-.126.182-.196.27a.885.885 0 01-.183.183c-.112.078-.222.159-.332.24-.276.203-.56.413-.874.573-.432.22-.886.404-1.326.582l-.515.21a11.24 11.24 0 01-.32.129 9.35 9.35 0 00-.392.16c-.766.336-1.576.42-2.36.502l-.383.04a21.24 21.24 0 01-.583.056c-.274.023-.557.048-.832.087a3.406 3.406 0 01-.49.032zm-4.194 6.88a94.51 94.51 0 01-.752-.04c-.477-.026-.97-.053-1.452-.064h-.036a3.58 3.58 0 00-.45.038 4.08 4.08 0 01-.485.043h-.042c-.207 0-.414-.015-.615-.03a10.386 10.386 0 00-.465-.027c-.494-.013-.987-.022-1.481-.032-.3-.005-.598-.01-.898-.017a7.48 7.48 0 01-.257-.012c-.098-.006-.196-.013-.294-.013l-.066.001c-.322.011-.644.027-.966.042a76.775 76.775 0 01-1.064.043c-.152 0-.324-.01-.445-.134-.141-.143-.145-.358-.14-.697l.187-.207.25-.033c.198-.027.402-.054.61-.067.195-.012.39-.012.58-.013.126 0 .252 0 .378-.003.258-.007.516-.017.774-.026.437-.016.889-.032 1.334-.038l.336-.002c.282 0 .565.004.847.007.28.004.56.008.84.008h.037c.22 0 .439-.006.658-.01.229-.006.457-.012.686-.012.068 0 .135 0 .203.002.198.003.388.03.608.06l.26.035c.32-.178.67-.202.946-.202.161 0 .327.01.488.019.136.008.273.016.41.018.139.002.276.009.413.016.163.009.317.017.474.017.197 0 .361-.013.518-.04.183-.033.387-.049.62-.049.196 0 .394.01.585.021a11.013 11.013 0 00.823.02h.555l.557-.002h.072c.492 0 .984.004 1.476.007l.527.002c.444.001.904.003 1.357.014l.134.003c.835.02 1.698.041 2.547.096.06.004.117.012.173.02.065.008.127.016.185.016a.45.45 0 00.15-.023.309.309 0 01.1-.017c.124 0 .235.069.352.142.053.033.108.067.162.094l.097.283-.26.537-.2.119c-.257-.01-.508-.023-.755-.035a54.147 54.147 0 00-1.607-.062 30.576 30.576 0 00-.552-.004c-.243 0-.486.002-.729.004a77.073 77.073 0 01-1.104.002 4.765 4.765 0 01-.499-.04 4.435 4.435 0 00-.434-.037 19.915 19.915 0 00-1.035.022l-.118.005c-.148.006-.295.017-.442.027-.185.013-.376.026-.566.031l-.105.006c-.055.004-.11.007-.164.007-.075 0-.26 0-.429-.125a.783.783 0 01-.49.152 2 2 0 01-.38-.047l-.053-.01a1.72 1.72 0 00-.322-.027c-.17 0-.338.019-.516.039-.18.02-.367.041-.559.041h-.019c-.157 0-.312.03-.477.063a5.3 5.3 0 01-.267.048 1.855 1.855 0 01-.319.027zm3.141 7.86c.026.094.051.194.078.3.07.28.149.596.282.875.188.39.546.709.861.99.047.041.093.084.139.127.134.126.26.245.4.319.427.226.918.255 1.298.255.063 0 .126 0 .19-.002.694-.016 1.319-.327 1.911-.951.249-.262.396-.596.45-1.021a5.592 5.592 0 00-.387-2.917 3.993 3.993 0 00-.312-.576 4.455 4.455 0 00-.406-.556c-.063-.071-.193-.22-.301-.254a5.176 5.176 0 00-.784-.158l-.1-.015a3.796 3.796 0 00-.576-.047c-.563 0-1.032.158-1.434.481-.35.283-.614.639-.83 1.12-.267.59-.415 1.218-.479 2.03zm2.93 3.957c-.547 0-.997-.106-1.378-.324-1.091-.131-1.635-.92-2.115-1.616-.325-.472-.449-.987-.566-1.564a.403.403 0 01.025-.223c-.157-.226-.192-.555-.142-1.034a2.57 2.57 0 00-.135.288c-.506 1.297-1.163 2.262-2.007 2.95-.747.608-1.5 1.157-2.493 1.188a6.241 6.241 0 01-1.38-.115 3.623 3.623 0 01-1.05-.39c-.248-.137-.465-.316-.675-.489a13.921 13.921 0 00-.344-.273 4.04 4.04 0 01-.545-.474c-.103-.115-.145-.26-.182-.387-.016-.054-.03-.106-.048-.15l-.033-.08c-.301-.1-.352-.382-.381-.538l-.007-.038a7.537 7.537 0 00-.101-.435c-.121-.476-.246-.968-.087-1.506.015-.05.03-.1.043-.15.04-.14.082-.286.134-.43.3-.814.814-1.51 1.528-2.068.184-.143.43-.25.732-.319.13-.03.259-.063.388-.097.247-.065.502-.132.773-.17.157-.021.324-.032.527-.032.115 0 .23.004.345.007.11.003.22.006.331.006.12 0 .223-.004.318-.012a.917.917 0 01.08-.003c.252 0 .512.098.702.17.338.128.672.276.995.42l.229.101c.355.157.477.462.584.731.024.06.048.12.075.18l-.055.25c-.204.173-.35.286-.527.286-.172 0-.305-.107-.461-.248-.316-.287-.66-.58-1.075-.744a.698.698 0 01-.081-.04l-.03-.015c-.1-.013-.215-.03-.33-.047-.387-.06-.752-.115-1.123-.115-.202 0-.386.016-.562.05-.3.06-.536.256-.786.464a7.295 7.295 0 01-.262.21c-.58.434-.92 1.045-1.039 1.869-.025.178-.015.37-.002.566.053.756.378 1.434.993 2.074.506.526 1.095.771 1.853.771.165 0 .342-.012.526-.036l.297-.033c.377-.039.733-.076 1.055-.253.57-.313.957-.851 1.298-1.326.073-.102.128-.224.187-.354.048-.105.097-.215.16-.32l.112-.19c.23-.39.469-.794.737-1.173.467-.662.958-1.317 1.458-1.947.652-.823 1.58-1.303 2.922-1.513.187-.03.377-.044.565-.044.694 0 1.378.194 2.09.594.487.273.864.717 1.188 1.397.035.074.067.15.099.226.06.143.116.278.193.39.142.202.285.459.273.836-.004.14.037.294.08.456.023.085.046.17.063.256.019.092.035.183.054.297l.034.194.002.06a5.648 5.648 0 01-.024.186c-.023.164-.048.35-.05.533-.002.426-.11.831-.349 1.314-.213.432-.442.845-.881 1.139-.728.488-1.485.769-2.25.834a5.793 5.793 0 01-.493.022zm-69.706 3.225a11.9 11.9 0 01-.651-.015 1.104 1.104 0 01-.335-.086c-.034-.012-.066-.025-.097-.034l-.15-.203v-.535l.108-.184c.24-.136.495-.161.743-.185.287-.028.538-.052.753-.235a37 37 0 01.023-.363c.024-.36.049-.734.05-1.11 0-.752-.007-1.516-.015-2.256-.006-.611-.012-1.223-.013-1.835 0-.198.014-.394.029-.584.013-.178.026-.346.027-.516 0-.097-.015-.199-.032-.307a2.236 2.236 0 01-.037-.346c-.004-.22.003-.44.01-.655.005-.148.01-.297.012-.446.001-.18-.002-.36-.004-.539-.005-.33-.01-.67.011-1.007a6.228 6.228 0 00-.01-.746c-.022-.45-.046-.916.09-1.383-.113-.279-.1-.558-.086-.83.011-.204.02-.4-.02-.598l-.04-.01a2.188 2.188 0 00-.414-.084l-.053-.003c-.338-.021-.722-.046-1.036-.313-.051-.044-.306-.274-.292-.538.013-.227.296-.423.478-.453.465-.078.924-.13 1.364-.153a25.435 25.435 0 011.75-.032c.144.001.272.049.396.095l.038.014c.15-.12.325-.18.522-.18.296 0 .636.133 1.069.417l.095.17c.01.25-.06.46-.203.61a.73.73 0 01-.543.214 1.12 1.12 0 01-.16-.012.795.795 0 00-.12-.01c-.252 0-.484.123-.709.241a.359.359 0 00-.067.18c-.008.145-.008.288-.009.44 0 .354 0 .72-.106 1.098-.04.147-.013.332.016.528.02.13.04.263.042.398.004.207-.011.41-.026.607l-.015.218c.01.068.023.134.036.2.031.169.064.343.073.522.019.394.024.812.017 1.354-.003.266-.012.532-.02.798-.012.386-.025.784-.02 1.174.003.36.022.728.04 1.085.016.313.033.638.04.958.007.346.004.696 0 1.035-.003.294-.006.597-.002.895.004.347.02.7.036 1.043l.023.508.002.055c.004.081.008.166-.001.255-.016.15-.033.32-.016.359.027.024.199.07.313.1.215.058.43.106.658.158l.313.073.164.193c.017.274.001.487-.133.63-.132.14-.327.16-.518.16-.296-.002-.582-.002-.868-.002l-2.52.003zm8.695-1.563l.325.001c.244.003.488.01.732.016.31.008.632.017.946.017.215 0 .407-.004.589-.012.48-.021.97-.066 1.442-.109.488-.044.993-.09 1.492-.111.688-.03 1.213-.223 1.653-.61.424-.374.897-.84 1.195-1.47l.044-.091c.284-.6.552-1.165.668-1.798.054-.295.128-.588.2-.871.052-.205.106-.417.15-.625.04-.182.064-.372.086-.556l.024-.182-.01-.018a.655.655 0 01-.096-.264c-.079-.926-.16-1.884-.546-2.759l-.092-.212c-.177-.409-.36-.832-.623-1.163-.384-.486-.858-.925-1.315-1.35l-.19-.177a1.93 1.93 0 00-.64-.394 15.922 15.922 0 00-.915-.292c-.27-.08-.55-.164-.823-.26-.758-.264-1.532-.265-2.352-.267-.322 0-.655-.001-.984-.02a3.342 3.342 0 00-.192-.005c-.258 0-.524.026-.805.053-.107.01-.215.021-.326.03v.414a92.58 92.58 0 00.014 2.252c.006.379.013.757.014 1.136 0 .523-.005 1.055-.01 1.569l-.007.596a1467.924 1467.924 0 01-.025 2.447l-.006.52c-.002.28 0 .56.001.84v.073c.002.293.004.586.008.88 0 .09.006.18.012.27.014.22.028.449-.018.676a1.846 1.846 0 00-.016.466c.004.085.008.17.007.255-.003.296-.002.592-.001.902v.203h.39zm-3.453 1.602c-.143 0-.274-.05-.4-.099-.054-.02-.11-.043-.17-.06l-.15-.234a4.08 4.08 0 00.022-.173c.013-.124.026-.242.062-.36.111-.368.35-.446.531-.446.05 0 .103.006.158.018.04.01.087.014.142.014a2.4 2.4 0 00.234-.016l.033-.003c.263-.025.514-.307.516-.58.003-.419.002-.837 0-1.256 0-.66-.002-1.342.012-2.014.011-.547.038-1.101.063-1.637.023-.493.047-1.003.06-1.503.021-.85.024-1.714.027-2.55l.002-.633a36.81 36.81 0 00-.007-.743c-.008-.501-.017-1.02.02-1.53.024-.345-.057-.662-.143-.998l-.031-.122c-.088-.348-.328-.494-.888-.541-.107-.01-.214-.015-.319-.021l-.145-.009-.184-.134c-.117-.297-.114-.538.006-.714.077-.113.238-.246.572-.246h.057l.729.033a83.303 83.303 0 002.315.08c.273 0 .554-.013.825-.025.247-.01.503-.022.756-.024h.132c.456 0 .923.02 1.335.037a.28.28 0 01.198.101 1.4 1.4 0 01.433-.063c.166 0 .33.022.487.043l.236.029c.06.005.116.019.165.03.028.007.055.013.083.018.152.025.304.057.457.089.338.07.657.136.975.137.492.001.907.184 1.308.36.279.123.543.24.824.293.229.043.405.222.562.38l.12.118c.445.409.95.872 1.28 1.483.053.098.126.192.203.291.098.126.2.256.272.41.123.26.22.531.314.793.05.141.1.283.155.422.037.094.08.186.122.278.077.168.157.34.208.528.1.38.156.774.2 1.113.04.298.067.6.093.892l.037.402c.013.03.028.073.026.127-.006.166-.008.333-.01.5-.006.391-.012.796-.07 1.193a8.743 8.743 0 01-.828 2.623c-.562 1.132-1.357 2.038-2.43 2.77l-.039.028c-.292.2-.594.407-.939.516l-.22.075c-.29.1-.59.204-.928.204-.118 0-.235-.013-.35-.04a.434.434 0 00-.097-.01c-.093 0-.198.021-.309.043a2.29 2.29 0 01-.357.051c-.517.02-1.043.033-1.552.045-.257.006-.514.012-.771.02l-.683.018c-.803.022-1.605.043-2.407.07-.388.014-.777.03-1.165.046-.576.024-1.173.048-1.76.063h-.015zm36.116-8.473c.153 0 .307.003.46.006.151.004.302.007.453.007.311 0 .547-.014.767-.046a4.391 4.391 0 002.85-1.612c.277-.338.388-.609.37-.904l-.013-.251c-.015-.28-.03-.568-.066-.845-.14-1.07-.743-1.932-1.896-2.716a.51.51 0 00-.233-.073c-.67-.054-1.27-.094-1.835-.125a73.764 73.764 0 00-1.29-.054l-.554-.021-.072-.046-.092.08-.815-.057-.06-.072-.158.07v.022c0 .115.002.227-.002.338a276.09 276.09 0 01-.074 2.285.945.945 0 01-.037.207.493.493 0 00-.023.122c.01.166.032.339.052.506.043.345.087.7.048 1.055-.018.172-.027.35-.036.521-.013.26-.026.529-.073.796l-.097.09c.028.106.054.206.066.315.012.115.01.23.007.341a.87.87 0 00.207.041c.639.014 1.305.02 2.035.02h.111zm9.229 8.505c-.077 0-.152-.006-.222-.016a5.268 5.268 0 00-1.589-.01.328.328 0 01-.05.003.609.609 0 01-.295-.1.726.726 0 00-.092-.046 1.041 1.041 0 00-.136-.033l-.067-.015-.147-.124-.059-.142a10.965 10.965 0 00-.13-.308 107.56 107.56 0 00-.417-.917 46.873 46.873 0 01-.908-2.063c-.27-.669-.702-1.208-1.16-1.778l-.24-.303c-.222-.28-.478-.52-.75-.775a17.674 17.674 0 01-.324-.308c-.198-.194-.422-.273-.776-.273a3.43 3.43 0 00-.2.007l-.195.01c-.573.034-1.167.068-1.752.086-.515.015-1.026.021-1.568.027l-.514.006c.146 1.888.084 3.715-.004 5.573l.374.328.181.002.25.002c.105 0 .208-.001.312-.008l.082-.002c.072 0 .294 0 .42.166.127.171.062.393.041.465a.192.192 0 01.01.043c.004.033.01.069.013.11l-.137.214a1.97 1.97 0 01-.707.118c-.186 0-.367-.018-.542-.035a9.838 9.838 0 00-.964-.057c-.192 0-.37.009-.545.027a5.882 5.882 0 01-.59.026c-.302 0-.606-.017-.9-.034a39.688 39.688 0 00-.341-.019c-.203-.01-.376-.205-.434-.34-.055-.129-.008-.288.141-.473.209-.26.491-.386.866-.386h.057c.167 0 .345-.032.535-.065l.132-.023.166-5.626a1.791 1.791 0 00-.36-.07 8.62 8.62 0 00-.393-.009l-.306.003-.311.002c-.069 0-.137 0-.206-.002-.448-.008-.896-.02-1.344-.031-.838-.022-1.704-.044-2.555-.045h-.023c-.856 0-1.728.039-2.572.075l-.413.018c-.368.015-.403.046-.534.463-.052.166-.174.555-.688.556l-.062-.002-.2-.219.094-3.035.154-.197.309-.089.211.057a.554.554 0 00.034.032c.03.028.071.066.094.13l.106.316c.063.189.127.384.2.57.038.098.118.159.395.159.697-.002 1.402-.014 2.083-.026.571-.01 1.142-.02 1.714-.024.367-.002.735-.004 1.102-.004.841 0 1.682.006 2.524.012.164.001.326.015.483.028.113.01.227.02.341.025.03 0 .063-.006.103-.014.014-.623.003-1.254-.008-1.866-.02-1.124-.04-2.286.097-3.428a4.796 4.796 0 00-.022-.064c-.031-.092-.067-.197-.073-.313-.007-.14 0-.279.006-.412.005-.08.01-.16.01-.24.004-.434-.179-.648-.61-.715a2.374 2.374 0 00-.36-.035l-.056.001c-.318 0-.538-.188-.56-.48a.453.453 0 01.109-.347c.096-.108.249-.169.442-.176.109-.005.218-.008.327-.01l.287-.004c.268-.003.536-.007.804-.007h.26a.415.415 0 01.231.086c.058-.008.115-.017.172-.027.202-.032.412-.066.626-.075.078-.004.157-.005.235-.005.196 0 .393.009.584.018l.218.01c.302.011.604.026.906.042l.523.026c.253.012.507.024.76.04.12.007.239.016.358.026.213.017.415.034.618.036 1.135.01 2.031.185 2.82.552.312.144.563.387.806.621l.087.083c.255.245.437.474.555.701.184.355.33.73.47 1.092l.07.181c.033.083.02.16.01.21v.01c.022.07.048.142.074.213.064.177.13.36.153.558.05.47.053.823.004 1.147-.074.49-.27.89-.583 1.188l-.027.024a.193.193 0 00-.015.014c-.863 1.05-2.01 1.583-2.977 1.922.773.305 1.45.799 2.014 1.47.186.22.326.47.461.711.117.208.228.405.363.58.486.63.86 1.328 1.22 2.003l.245.455c.065.12.128.24.19.36.145.28.282.543.448.79.202.303.44.444.753.444a.958.958 0 00.08-.003.866.866 0 01.066-.003c.17 0 .33.047.473.089.06.017.119.034.175.046l.16.154c.047.18.033.33-.043.446-.072.113-.19.182-.359.211-.14.025-.265.037-.382.037zm-19.165.065c-.07 0-.14-.006-.21-.013-.057-.005-.114-.01-.17-.01h-.03l-.061.001c-.122 0-.24-.016-.354-.031a2.632 2.632 0 00-.398-.03c-.102 0-.205.003-.307.006-.101.003-.203.007-.305.007h-.218c-.231 0-.462 0-.693-.002l-.863-.001h-1.2l-.957-.001h-.1c-.188 0-.378.002-.567.004-.191.003-.382.005-.573.005-.466 0-.822-.015-1.154-.048-.63-.064-1.3-.094-2.172-.099-.352-.002-.55-.217-.71-.39a3.21 3.21 0 00-.108-.114l-.044-.243c.16-.339.463-.378.664-.404a1.22 1.22 0 00.141-.023c.269-.062.542-.106.807-.15l.249-.04c.084-.015.134-.024.138-.229.011-.676.025-1.352.038-2.027l.035-1.755c.002-.144-.002-.293-.006-.437a11.048 11.048 0 01-.006-.407c.002-.218.007-.437.011-.656.008-.329.015-.67.012-1.003-.003-.247-.015-.5-.027-.744a19.295 19.295 0 01-.028-.742c-.002-.231.008-.464.02-.69.006-.15.014-.3.017-.45.006-.309.007-.619.008-.928l.002-1.052c0-.605.001-1.21.009-1.815.002-.22.02-.44.039-.671l.01-.114h-1.597l-.177-.096c-.313-.476-.068-.822.18-1.071l.15-.063h1.708l1.031.003c.156 0 .31-.002.466-.004.166-.002.33-.004.496-.004.145 0 .29.002.436.006.456.014.912.034 1.368.053.526.022 1.069.045 1.602.059h.024c.103 0 .212-.017.327-.036.121-.02.247-.04.378-.042h.044c.184 0 .366.015.543.03.097.008.193.017.29.022l.181.011c.211.014.429.027.64.027h.051a.693.693 0 00.069-.046c.033-.024.066-.047.1-.066l.185.034a2.04 2.04 0 01.771-.136c.212 0 .425.023.63.045l.205.022.19.199c.033.575.232 1.079.443 1.613.085.218.174.443.25.67.1.304.208.61.312.905l.14.398-.063.231c-.165.141-.326.212-.478.212a.442.442 0 01-.391-.238 3.602 3.602 0 01-.186-.405 4.533 4.533 0 00-.111-.258 3.966 3.966 0 00-.14-.26 5.15 5.15 0 01-.127-.23c-.17-.333-.338-.667-.512-1.014l-.146-.29a8.234 8.234 0 01-.993-.093c-.33-.044-.673-.09-1.01-.09-.12 0-.23.005-.34.017-.619.064-1.18.096-1.716.096-.323 0-.639-.012-.94-.036-.427-.033-.864-.035-1.286-.037-.3-.002-.609-.003-.915-.016-.05-.002-.1-.006-.153-.012l-.126.862v.655l-.01.589a96.422 96.422 0 00-.002 3.073c.009.441.021.883.034 1.324.015.532.03 1.083.038 1.625.01.705.007 1.421.006 2.113l-.002.611c0 .784-.005 1.568-.011 2.352a.967.967 0 01-.056.313c.039.103.1.138.27.138.045 0 .092-.003.143-.007a5.83 5.83 0 01.553-.023c.213 0 .428.008.637.015.205.008.416.016.622.016.328 0 .643-.007.958-.013.325-.006.662-.013.993-.013.158 0 .317.002.475.006l.184.001c.161 0 .322-.004.483-.008.164-.004.327-.008.49-.008.377 0 .817.02 1.255.154a1.1 1.1 0 01.664-.188c.083 0 .167.005.25.01a3.6 3.6 0 00.232.01c.091 0 .168-.007.237-.023.23-.356.389-.765.557-1.195.213-.547.433-1.112.82-1.61l.23-.072.433.136.136.272-.261.75c-.22.63-.435 1.25-.653 1.868-.039.11-.082.217-.125.325a4.174 4.174 0 00-.188.535c-.099.39-.325.472-.497.472l-.041-.001c-.118 0-.243.027-.375.055-.148.032-.3.065-.463.065a.973.973 0 01-.391-.078.787.787 0 01-.367.08zm-40.248.062c-.427 0-.854-.048-1.266-.094-.256-.03-.52-.059-.777-.076-.527-.035-1.054-.178-1.548-.32a3.884 3.884 0 01-.692-.3c-.09-.046-.181-.093-.273-.136a5.454 5.454 0 00-.237-.102 2.842 2.842 0 01-.576-.294l-.301-.211c-.455-.318-.926-.646-1.308-1.059l-.034-.036c-.481-.519-.978-1.056-1.264-1.748a8.211 8.211 0 01-.254-.745l-.044-.142c-.046-.146-.096-.292-.146-.439-.127-.37-.258-.754-.317-1.152-.068-.453-.073-.916-.078-1.364-.002-.184-.004-.369-.01-.553a8.097 8.097 0 01-.004-.254c0-.113 0-.22-.007-.327-.053-.841.18-1.628.404-2.39l.03-.102c.115-.388.331-.738.542-1.076l.086-.139c.54-.88 1.271-1.673 2.171-2.358.437-.332.961-.615 1.65-.89a9.714 9.714 0 012.32-.587 13.907 13.907 0 011.872-.115c.145 0 .29.002.434.005a7.659 7.659 0 013.328.827c.553.28 1.18.627 1.665 1.196h.216l.114.033c.288.183.458.5.47.872.013.478-.242.964-.665 1.268l-.313-.076-.037-.074a7.562 7.562 0 00-.097-.19c-.276-.515-.7-.941-1.296-1.302a8.766 8.766 0 00-2.227-.951 5.4 5.4 0 00-1.436-.176c-.23 0-.476.01-.751.032-.747.058-1.4.137-1.998.244-.524.093-.97.4-1.458.762a16.36 16.36 0 00-1.507 1.297c-.101.096-.173.246-.25.406l-.09.183c-.76 1.428-1.071 2.572-1.012 3.71.083 1.584.296 3.248 1.282 4.692.458.67.953 1.182 1.515 1.565.113.077.234.149.35.219.134.08.272.162.404.254.315.221.668.326 1.1.415a9.403 9.403 0 002.197.184c.852-.023 1.714-.22 2.636-.604a5.313 5.313 0 001.694-1.096c.082-.08.174-.137.254-.188.102-.063.19-.118.247-.207.13-.199.313-.345.491-.487.044-.035.089-.07.132-.107.15-.126.305-.242.468-.364l.217-.164.252-.005c.045.032.091.06.135.087.118.072.24.147.32.272.105.164.127.479-.002.638a8.433 8.433 0 00-.255.335c-.298.404-.607.822-1.116 1.064-.003.003-.06.074-.073.088-.376.428-.855.675-1.354.911-.115.054-.224.14-.34.232a4.895 4.895 0 01-.178.137c-.716.512-1.514.741-2.338.949a4.305 4.305 0 01-1.067.123z" id="Fill-1" fill="#FFF" mask="url(#mask-2)"/></g></g></g></svg>