<svg width="134" height="101" viewBox="0 0 134 101" version="1.1" xmlns="http://www.w3.org/2000/svg" xmlns:xlink="http://www.w3.org/1999/xlink"><defs><path id="path-1" d="M0 0h133.62v99.854H0z"/></defs><g id="Page-1" stroke="none" stroke-width="1" fill="none" fill-rule="evenodd"><g id="About-Us" transform="translate(-533 -33)"><g id="Logo---Thick" transform="translate(533 33.706)"><mask id="mask-2" fill="#fff"><use xlink:href="#path-1"/></mask><path d="M99.565 20.93c-.296-.001-.59-.037-.874-.071a15.522 15.522 0 00-.384-.044l-.26-.233c-.044-.213-.015-.393.087-.533.155-.214.411-.243.564-.26a9.545 9.545 0 011.411-.056c.372 0 .77-.346.778-.661.039-1.56.06-2.763.069-3.904.016-2.139.019-3.868.01-5.444a623.47 623.47 0 00-.076-6.425c-.01-.624-.049-1.143-.411-1.583-.384.03-.68.045-.926.045-.586 0-1.155-.072-1.355-.593l.132-.363c.527-.293 1.092-.333 1.574-.333.138 0 .275.004.41.007l.221.005c.136.004.253.006.365.006.318 0 .59-.022 1.188-.142.262-.053.522-.06.764-.06l.378.002c.146 0 .318-.003.486-.023.124-.014.272-.03.42-.03.196 0 .456.024.73.17l.338-.201.934.594.03.474c-.379.32-.879.48-1.485.48-.11 0-.227-.004-.346-.015a1.93 1.93 0 00-.173-.008c-.224 0-.43.04-.614.09l-.023.143c-.037.232-.072.45-.074.663-.003.364.009.736.02 1.097.01.324.02.66.02.992 0 1.056-.013 2.2-.037 3.5-.005.302-.027.607-.047.901-.04.598-.08 1.163-.002 1.712.056.396.077.793.096 1.177.023.443.044.861.116 1.28.039.225-.005.446-.044.641-.02.105-.04.205-.047.297a72.41 72.41 0 00-.122 2.234c-.007.223 0 .446.009.681.006.206.014.42.01.633a1.62 1.62 0 01-.084.429 5.993 5.993 0 00-.051.184c.04.5.153.996.619 1.314.278-.112.683-.163 1.016-.163.405 0 .7.068.875.203.146.113.206.272.27.442.025.066.052.139.088.216l-.266.42-.5-.002-.384-.003a7.952 7.952 0 00-.98.047 7.373 7.373 0 01-.625.046 206.677 206.677 0 01-3.838.025zm-49.681-8.98c.028.01.053.015.07.015 1.945-.086 3.888-.18 5.847-.276l1.031-.05a.657.657 0 00-.023-.16 68.334 68.334 0 00-.798-2.144c-.16-.406-.335-.815-.504-1.211a77.082 77.082 0 01-.32-.758 1.239 1.239 0 01-.067-.23.696.696 0 00-.04-.139c-.51-.566-.768-1.244-1.018-1.9-.086-.224-.174-.456-.27-.675a8.96 8.96 0 01-.231-.599l-3.677 8.126zm9.158 9.179c-.29 0-.535-.172-.78-.363l-.017-.45c.417-.376.915-.467 1.355-.546.166-.03.327-.06.48-.102l-.131-.293a57.183 57.183 0 01-.538-1.228 447.463 447.463 0 01-1.635-3.95 3.046 3.046 0 01-.135-.463 4.51 4.51 0 00-.051-.208c-.108-.385-.165-.385-.356-.385-.068 0-.15.005-.259.017a95.39 95.39 0 01-3.287.304c-.8.061-1.612.111-2.398.16l-1.167.073a.349.349 0 01-.17.046l-.083-.01a1.11 1.11 0 00-.29-.044c-.396 0-.57.331-.811.877a233.923 233.923 0 01-1.738 3.856c-.09.195-.204.372-.314.542-.086.133-.167.26-.235.39a.412.412 0 00-.031.111l.229.026c.272.031.53.06.783.06.198 0 .374-.018.539-.056a.593.593 0 01.133-.015c.136 0 .258.042.378.082.052.018.106.037.161.05l.217.364-.174.635-.259.216-.328.033a7.075 7.075 0 01-.782.057 11.02 11.02 0 01-.754-.036 10.049 10.049 0 00-.839-.033c-.343.01-.683.053-1.042.1-.167.021-.333.043-.5.06l-.253.03c-.273.03-.555.064-.84.073a.552.552 0 01-.353-.143l-.807.121-.333-.235-.135-.703.272-.349 1.964-.117.231-.222c.212-.201.395-.375.564-.557.069-.074.128-.175.191-.282.029-.048.057-.096.087-.143l.011-.03c.03-.077.086-.221.245-.278.195-.07.264-.225.37-.496.036-.09.072-.183.118-.274.78-1.549 1.591-3.19 2.41-4.876.172-.353.335-.72.493-1.075.21-.473.43-.962.672-1.434.28-.544.527-1.12.766-1.675.28-.651.569-1.324.918-1.967.414-.76.745-1.593 1.066-2.398.173-.434.352-.884.543-1.32.279-.637.596-1.287.944-1.933.096-.178.26-.283.405-.375.048-.032.098-.063.142-.097l.441.095.882 1.679-.08.257c.184.137.274.342.345.535.142.386.323.754.514 1.143.1.203.2.406.293.611.119.26.232.524.345.787.2.464.407.945.642 1.394.183.35.33.716.47 1.07.215.537.418 1.044.738 1.497.148.21.207.462.26.685.013.057.027.115.042.17.053.2.101.4.15.6.07.295.144.599.233.889.03.102.096.21.165.324.052.086.105.175.152.272l.05.103c.095.194.192.394.241.62.116.538.39 1.002.681 1.494.126.213.256.432.373.66.44.856.846 1.747 1.224 2.586.1.22.182.447.262.667.099.267.191.52.31.76.15.303.415.457.785.457.02 0 .04 0 .061-.002.072-.003.143-.004.214-.004l.322.003.288.236c.056.279.093.63-.111.88-.192.234-.499.261-.713.261h-.042c-.568 0-1.146.02-1.643.04-.316.012-.631.027-.947.042-.588.029-1.197.058-1.8.067h-.01zM5.29 11.973c.162.555.133 1.093.105 1.615-.02.374-.04.731.01 1.083a2.37 2.37 0 01.427-.059c.365-.008.73-.012 1.094-.017.915-.011 1.86-.023 2.787-.098.487-.04.98-.043 1.456-.046.584-.005 1.187-.01 1.772-.08 1.207-.15 2.115-.493 2.857-1.081.153-.121.283-.29.421-.47.144-.187.292-.38.482-.54.407-.345.579-.8.712-1.38.242-1.057.4-1.912.493-2.69l.006-.048c.106-.88.207-1.713-.312-2.435a1.89 1.89 0 00-.172-.193c-.144-.15-.309-.32-.363-.551-.085-.368-.348-.576-.652-.817-.06-.048-.121-.096-.18-.146-.728-.605-1.458-1.164-2.383-1.353-.224-.046-.45-.089-.674-.132-.398-.076-.809-.154-1.212-.248a1.407 1.407 0 01-.434-.2l-.04.013c-.11.035-.224.072-.35.072a.628.628 0 01-.068-.004c-.2-.022-.396-.059-.585-.094a6.898 6.898 0 00-.593-.092 195.25 195.25 0 00-3.73-.319 5.287 5.287 0 00-.401-.013c-.12 0-.238.002-.352.005h-.02l.002.11c.005.292.009.569.05.837.052.339.026.672 0 .995-.039.484-.076.941.167 1.35.074.125.057.258.047.337-.002.013-.004.026-.004.038L5.58 6.58c-.054.924-.109 1.88-.154 2.821a24.55 24.55 0 00-.02.988c-.002.297-.004.604-.016.908-.008.207-.048.409-.08.571l-.02.105zM3.262 27.076c-.662-.006-1.333-.037-1.98-.066l-.509-.023c-.11-.004-.208-.033-.288-.056a1.878 1.878 0 00-.081-.022l-.221-.22c-.076-.337-.035-.607.122-.805.102-.127.302-.28.675-.28.04 0 .082.002.125.006.068.005.135.008.202.008a1.73 1.73 0 001.213-.456c.106-.095.2-.215.283-.321a7.536 7.536 0 00-.037-.088c-.077-.182-.158-.37-.156-.581.009-.857.032-1.727.055-2.568.014-.51.028-1.02.038-1.53.008-.388.01-.776.012-1.164.001-.431.003-.877.014-1.318.017-.649.039-1.298.061-1.946.04-1.182.083-2.404.086-3.604.002-.644-.04-1.305-.082-1.944a34.244 34.244 0 01-.082-1.694c-.006-.4.046-.794.096-1.177.032-.24.064-.489.08-.73.013-.182.002-.37-.01-.57a7.144 7.144 0 01-.017-.443c0-.24 0-.514.06-.782a5.45 5.45 0 00.023-2.249c-.048-.256-.18-.512-.32-.783a9.554 9.554 0 01-.115-.224c-.158.003-.314.006-.469.006-.617 0-1.342-.043-2.04-.361L.068.534C1.096.34 2.323.144 3.625.144c.27 0 .538.009.801.025l.036-.01c.102-.026.256-.067.42-.067h.025c1.612.04 3.19.083 4.784.15.265.01.52.06.767.108.158.03.307.06.456.078.13.017.264.024.405.031.188.01.383.02.579.054l.653.116c1.033.181 2.103.369 3.145.612.334.078.62.266.896.448.128.084.248.164.37.23.139.076.28.146.422.217.258.129.526.262.777.427.647.424 1.002 1.069 1.338 1.748.183.37.32.759.454 1.136.063.177.125.355.193.53.247.643.2 1.28.156 1.896-.013.178-.026.355-.032.533-.002.073-.016.14-.027.193-.006.029-.016.073-.015.088.114.842-.165 1.632-.41 2.328-.445 1.266-1.056 2.161-1.92 2.817-1.354 1.026-2.954 1.653-4.24 2.157-.185.072-.378.078-.559.078h-.102c-.061 0-.122 0-.181.006l-.65.055c-.329.028-.658.056-.987.081a.58.58 0 01-.046.002c-.064 0-.12-.01-.181-.02a2.256 2.256 0 00-.101-.015l-.24-.193-.03-.083c-.148.145-.33.26-.59.26-.136 0-.28-.034-.438-.102a.382.382 0 00-.15-.023c-.103 0-.226.02-.356.042-.147.025-.3.05-.456.052-.495.004-.99.005-1.491.005l-1.711-.001c-.01.061-.018.124-.018.182.001.619.007 1.237.013 1.855.004.48.009.959.011 1.439.001.228.01.458.017.688.02.579.04 1.178-.048 1.765-.053.354-.045.711-.035 1.09.013.554.027 1.127-.163 1.707-.04.12-.04.214 0 .28.054.089.19.155.382.187.327.054.666.095.994.135.176.022.354.043.53.067.245.033.753.1.817.79l-.216.312c-.108.03-.216.063-.325.096-.265.081-.538.165-.828.202-.36.046-.724.054-1.075.062-.155.004-.31.007-.465.014-.18.008-.36.018-.54.029-.358.021-.729.043-1.097.043h-.081zm64.282.088c-.127 0-.255-.004-.387-.008a12.35 12.35 0 00-.406-.008l-.077-.58.538-.144c.22-.637.777-.641 1.156-.644.216-.001.421-.002.552-.094.281-.3.272-.732.262-1.231l-.003-.154c-.014-1.03.009-2.144.07-3.408.048-1.008.051-2.038.054-3.035.002-.462.003-.925.01-1.387l.008-.878c.007-.768.014-1.562.042-2.344.022-.608.056-1.225.089-1.821.054-.973.109-1.978.113-2.963.003-.712-.07-1.445-.14-2.153a39.19 39.19 0 01-.101-1.116l-.004-.055c-.02-.266-.043-.568.017-.858.17-.824-.188-1.521-.567-2.26l-.106-.205c-.084-.166-.183-.214-.443-.214-.052 0-.105.002-.157.004a5.031 5.031 0 01-.174.004 1.9 1.9 0 01-.165-.007 6.394 6.394 0 00-.58-.022c-.153 0-.306.003-.458.006-.156.003-.311.007-.466.007l-.258-.154c-.186-.339-.21-.656-.07-.894.072-.122.255-.327.665-.327l.055.001c.04.002.081.003.122.003.222 0 .444-.023.68-.047.239-.024.487-.05.74-.05.258 0 .49.027.706.083a.817.817 0 00.187-.05c.11-.037.236-.08.375-.083.407-.012.819-.012 1.218-.012.305 0 .61 0 .915-.005.37-.006.748-.024 1.113-.042l.357-.016.115-.003c.213 0 .519.027.703.26.197.248.148.595.083.87l-.243.224-.854.129-.095.102c-.15.162-.319.346-.507.52-.438.403-.433.949-.381 1.622.083 1.084.138 1.99.017 2.954-.05.402-.058.805-.066 1.232-.006.283-.011.575-.03.865a5.083 5.083 0 00-.008.307c-.002.311-.003.66-.167 1a.893.893 0 01.04.112c.013.045.03.091.048.138.055.153.119.326.087.518l-.008.043c-.034.203-.039.25.046.36.162.213.16.493.158.74l.001.158c.01.28.008.558.006.853l-.002.401-.094.147c.215.391.375.903.117 1.481a.553.553 0 01.096.107c.108.156.132.363.075.632-.015.07-.041.137-.066.202-.082.208-.079.21.01.259.238.127.209.442.163.727-.058.362-.026.726.007 1.113.021.243.043.496.04.749-.002.232.015.462.034.706.025.327.051.666.025 1.013l-.021.272c-.084 1.096-.172 2.23-.079 3.348l.003.037c.047.56.083 1.002.442 1.373.217.223.332.321.53.321h.045c.176 0 .33.077.453.139.04.02.08.04.12.056l.186.302c-.042.445-.295.69-.713.69-.059 0-.12-.005-.182-.012a44.197 44.197 0 01-.623-.08c-.362-.048-.736-.098-1.102-.128a.79.79 0 00-.062-.003c-.108 0-.226.02-.35.04a4.08 4.08 0 01-.287.04l-.163.018c-.13.015-.267.031-.407.031-.061 0-.121-.003-.181-.01a3.272 3.272 0 00-.377-.02c-.383 0-.76.057-1.16.117-.136.021-.273.042-.41.06-.147.02-.304.03-.494.03zm43.773.184c-.449 0-.786-.25-.88-.651l.094-.29c.413-.358.885-.69 1.536-.69a1.962 1.962 0 01.287.02c.091 0 .228-.053.373-.109l.134-.05-.001-.713c-.003-.75-.004-1.527.006-2.288.003-.22.027-.435.05-.643.021-.197.042-.382.046-.567.012-.657.013-1.326.013-1.973l.001-.77.003-.238c.002-.19.003-.388-.004-.578a76.53 76.53 0 00-.037-.867 50.098 50.098 0 01-.054-1.4 42.237 42.237 0 010-1.235c.003-.349.006-.697.002-1.045a72.809 72.809 0 00-.028-1.195 70.69 70.69 0 01-.028-1.232 4.965 4.965 0 01.028-.51c.014-.149.027-.29.026-.43 0-.346-.007-.693-.014-1.04-.008-.413-.016-.84-.014-1.262 0-.191.039-.376.075-.555.013-.062.026-.124.037-.189-.008-.03-.018-.06-.029-.094-.052-.167-.118-.376-.088-.598a7.153 7.153 0 00-.06-2.183l-.01-.041a.55.55 0 01-.01-.313c.175-.547-.026-1.056-.24-1.596a.522.522 0 01-.035-.175l-.22-.008a27.055 27.055 0 00-1.025-.026h-.19c-.26 0-.583-.031-.763-.283-.137-.193-.149-.449-.034-.784l.262-.2c.25-.013.501-.028.755-.043.582-.034 1.173-.069 1.765-.095.22-.01.443-.025.665-.04.364-.026.741-.053 1.114-.053.276 0 .522.015.754.044.219.028.449.041.724.041.23 0 .467-.01.695-.018.234-.01.475-.019.716-.019.092 0 .185.001.277.005.158.005.315.007.473.007.353 0 .715-.011 1.065-.022.303-.01.605-.02.908-.023.335-.003.67-.004 1.005-.004l1.556.002.24.133.124-.076a11.5 11.5 0 01.903-.037c.785 0 1.499.088 2.18.27.34-.086.694-.129 1.052-.129.659 0 1.342.138 2.152.435l.175.172c.153.406.307.807.46 1.205.368.956.715 1.86 1.045 2.791.345.973.218 1.155-.513 1.963l-.476-.054a8.493 8.493 0 00-.133-.228 3.785 3.785 0 01-.277-.52 86.048 86.048 0 01-.49-1.24c-.22-.565-.447-1.15-.687-1.715-.353-.832-.884-1.22-1.67-1.22l-.196.003c-.58 0-1.164-.06-1.66-.12-.816-.097-1.626-.11-2.312-.11-.277 0-.554.002-.831.004-.28.003-.558.005-.837.005-.665 0-1.176-.014-1.654-.047-.31-.021-.643-.031-1.016-.031-.484 0-.98.017-1.459.034a53.36 53.36 0 01-1.156.032c-.11.002-.222.003-.332.003l-.245-.001c.001.204.004.402.006.597.008.62.015 1.206-.016 1.792-.068 1.269-.023 2.518.064 4.003.015.249-.003.494-.021.731-.008.095-.015.19-.02.285a1.613 1.613 0 01-.016.14.686.686 0 00-.01.108l.01.234c.021.526.044 1.07.078 1.603.017.258.045.513.078.809l.026.228c.044.007.09.011.134.011.425-.003.846-.012 1.267-.022.5-.012 1.018-.024 1.528-.024.415 0 .785.008 1.132.024.066.003.131.005.197.005.241 0 .48-.018.733-.036.25-.019.51-.038.77-.038.243 0 .46.017.663.051.113.02.22.047.355.082l.168.043c.214-.073.323-.325.475-.714l.075-.187.023-.058c.08-.203.244-.625.768-.625.019 0 .038 0 .058.002l.206.101.36.419.055.292-.101.276c-.082.22-.166.447-.234.672-.03.098-.041.225-.033.368.017.29.039.578.06.867.025.334.05.667.068 1 .011.204-.03.353-.127.455a.392.392 0 01-.288.122c-.139 0-.282-.066-.452-.206l.048-.274-.085-.104c-.16-.197-.327-.4-.486-.61-.224-.296-.404-.406-.661-.406a58.227 58.227 0 00-2.128.076l-.44.014c-1.03.035-2.06.07-3.09.11a26.59 26.59 0 00-.978.06c0 .273-.028.533-.056.787-.047.42-.09.817.005 1.224.101.43.03.874-.038 1.305a6.603 6.603 0 00-.077.588 6.024 6.024 0 00-.003.538c.002.124.005.248.003.371-.001.092-.01.183-.02.274a2.22 2.22 0 00-.016.162 1.04 1.04 0 00-.002.133.4.4 0 01.081.243 61.395 61.395 0 01-.104 2.27l.006.59c.003.458.007.93.026 1.393.025.591.068 1.062.135 1.483.035.213.332.245.507.245.022 0 .045 0 .068-.002.243-.01.485-.026.728-.041.46-.03.935-.06 1.407-.06h.033c.943.004 1.901.016 2.828.028 1.06.013 2.156.027 3.233.027.308 0 .615 0 .922-.003.909-.008 1.814-.07 2.774-.135.396-.027.799-.055 1.212-.079.11-.168.225-.339.34-.512.332-.493.675-1.002.968-1.533.29-.524.54-1.087.783-1.631.11-.246.219-.491.332-.734l.137-.14a.96.96 0 01.423-.104c.295 0 .551.155.703.425.16.288.06.687.01.846l-.08.249c-.205.647-.418 1.317-.696 1.954-.292.67-.657 1.364-1.116 2.125-.317.525-.907.632-1.385.667a2.917 2.917 0 01-.215.008c-.133 0-.266-.008-.4-.015-.122-.007-.244-.014-.366-.014h-.035c-.496.006-.993.015-1.49.025-.606.011-1.213.023-1.82.028l-.213.001c-.312 0-.623-.005-.934-.011-.278-.005-.555-.01-.833-.01l-.436-.001c-.62 0-1.238.004-1.857.008-.303.002-.607.003-.91.003-.797.002-1.622.004-2.429.032-.31.011-.63.048-.94.084-.386.044-.784.09-1.183.09-.061 0-.122-.001-.182-.004a12.172 12.172 0 00-.44-.007c-.245 0-.49.006-.733.011a31.243 31.243 0 01-1.016.01 6.449 6.449 0 01-.553-.043c-.194-.02-.376-.04-.559-.04a1.73 1.73 0 00-.522.072 1.02 1.02 0 01-.292.041zM82.023 13.024c.72 0 1.486.05 2.22.405.608.295 1.307.46 2.198.52.115.008.23.012.344.012.551 0 1.088-.08 1.657-.166l.342-.051c.56-.081.996-.289 1.33-.634a47.247 47.247 0 001.904-2.122c1.101-1.289 1.54-2.496 1.38-3.8-.089-.73-.399-1.378-.727-2.064l-.063-.13a.296.296 0 00-.078-.104 189.71 189.71 0 00-2.333-1.665c-.017-.012-.08-.026-.12-.036a2.104 2.104 0 01-.103-.027 61.9 61.9 0 01-.613-.182 30.35 30.35 0 00-1.483-.419c-.53-.13-1.078-.264-1.615-.275a7.676 7.676 0 00-.153-.001c-.218 0-.437.008-.656.016a17.672 17.672 0 01-.873.016h-.005c-.08 0-.143.006-.206.012a2.612 2.612 0 01-.3.014c-.148-.006-.297-.008-.445-.01-.41-.008-.832-.014-1.246-.095a5.24 5.24 0 00-1.012-.083c-.212 0-.423.007-.634.014a22.33 22.33 0 01-.573.014 9.593 9.593 0 01-.004.08c-.012.224-.023.418.015.585.339 1.488.416 3.014.491 4.49l.007.127c.028.544.011 1.093-.005 1.624-.008.248-.016.496-.019.745 0 .071.001.143.003.214.003.133.006.27-.005.413-.062.746-.128 1.493-.198 2.28l-.036.406c.167-.066.318-.118.486-.118l.274.003c.141 0 .282-.002.423-.004.144-.002.288-.004.431-.004zm19.396 14.809c-.193 0-.386-.011-.574-.022-.084-.005-.168-.01-.25-.013l-.27-.011c-.613-.025-1.247-.051-1.857-.197-.478-.115-.928-.32-1.362-.518-.183-.083-.366-.166-.55-.243-.2-.082-.26-.261-.292-.357l-.01-.03c-.747-.018-1.254-.484-1.702-.894a6.877 6.877 0 00-.403-.352c-.648-.505-1.232-1.099-1.796-1.673-.3-.305-.61-.62-.924-.916-.353-.332-.73-.657-1.093-.97a59.766 59.766 0 01-.706-.615c-.131-.117-.254-.241-.373-.36-.116-.117-.226-.228-.341-.332a5.142 5.142 0 00-.608-.479l-.135-.089c-.537-.352-1.092-.717-1.569-1.202-.248-.253-.456-.465-.773-.595-.319-.131-.54-.402-.756-.664-.082-.1-.159-.194-.238-.276a.815.815 0 01-.087-.112c-.547-.059-.777-.495-.933-.79l-.049-.091c-.254-.465-.605-.663-1.173-.663h-.234l-.255-.147c-.25-.435-.598-.459-1.192-.464a4.74 4.74 0 01-.615-.032 1.69 1.69 0 00.095.606c.101.305.064.622.03.929a3.736 3.736 0 00-.034.414c-.001.7 0 1.402.003 2.103.002.828.005 1.656.001 2.485 0 .19.004.38.008.57.016.639.032 1.3-.154 1.968-.08.29-.026.657.023.908.052.271.123.637-.057.998.167.013.32.023.47.026h.055c.117 0 .233-.006.35-.013.128-.008.256-.016.385-.016.109 0 .42.001.618.226.13.148.18.352.147.608l-.096.183c-.305.272-.65.403-1.055.403-.167 0-.342-.022-.537-.067a8.36 8.36 0 00-1.897-.238c-.335 0-.664.026-.979.078a14.97 14.97 0 01-1.374.138 35.39 35.39 0 00-.624.047l-.314-.355c.113-.531.277-.573.966-.747.242-.062.481-.113.713-.162l.116-.025c.044-.16.089-.317.134-.474.14-.486.27-.944.345-1.413.061-.382.06-.774.057-1.189a11.143 11.143 0 01.022-.96c.009-.152.018-.304.02-.456.001-.178-.003-.355-.007-.533a18.495 18.495 0 01-.007-.533c.003-.416.008-.833.014-1.249.008-.666.017-1.331.016-1.997 0-.24-.014-.49-.028-.732a12.58 12.58 0 01-.029-.826c.003-.296.023-.593.042-.88.017-.253.035-.514.04-.768.008-.46.01-.921.012-1.383.002-.537.004-1.092.018-1.64.008-.297.038-.593.068-.88.02-.201.042-.403.054-.605.009-.14.003-.285-.004-.438-.004-.1-.009-.2-.009-.3-.002-.454-.007-.909-.013-1.364-.014-1.13-.029-2.298.016-3.448.03-.765-.149-1.34-.581-1.86-.131-.158-.237-.211-.417-.211l-.136.002c-.083.002-.166.003-.25.003-.174 0-.403-.006-.632-.05l-.041-.009c-.26-.05-.869-.168-.794-.846l.152-.226.162-.092c.13-.075.251-.146.39-.2.087-.034.22-.074.362-.074a.59.59 0 01.215.037c.314.122.637.138.91.138.132 0 .263-.004.394-.008.137-.005.274-.01.411-.01.077 0 .154.002.23.006l.435.018c.36.014.733.03 1.102.055l.225.015c.737.05 1.5.102 2.249.178a9.86 9.86 0 001.034.048c.433 0 .877-.02 1.306-.04.435-.019.885-.04 1.33-.04.394 0 .744.017 1.07.05.062.006.122.008.182.008.162 0 .323-.018.494-.037.178-.02.362-.04.554-.04.041 0 .082 0 .123.003l.05.002c.65.032 1.322.064 1.932.519.129.095.291.166.463.241.128.056.261.114.391.188.02.01.058.024.096.037.139.047.439.15.486.493.054-.006.108-.01.161-.01.547 0 .928.345 1.234.622l.085.077c.597.53 1.274 1.16 1.765 1.913.466.715.737 1.493.783 2.25.014.218.011.435.01.644-.002.179-.004.348.003.518.062 1.467-.386 2.924-1.37 4.454-.407.632-.889 1.192-1.43 1.806-.167.188-.38.31-.587.427a5.42 5.42 0 00-.253.15l-.256-.06c-.222.352-.6.46-.892.543a2.851 2.851 0 00-.242.075c-.378.142-.785.209-1.28.209-.336 0-.672-.031-.998-.06-.158-.015-.315-.03-.472-.04a30.325 30.325 0 00-.698-.039l.603.707a.945.945 0 01.278.125c.12.082.164.205.195.286.006.018.012.038.021.054.25.266.515.544.78.822.278.291.556.583.83.878.128.137.247.28.362.42.12.144.233.28.355.41a95.466 95.466 0 001.9 1.979c.262.262.567.503.863.736l.032.025c.178.141.356.284.533.428.487.394.99.8 1.514 1.141l.042.027c.827.538 1.683 1.093 2.585 1.447.9.353 1.724.525 2.518.525.49 0 .977-.068 1.446-.202.418-.12.855-.127 1.277-.135.189-.003.366-.006.543-.018l.084.041.21-.1c.253-.121.492-.236.712-.377.565-.364 1.13-.75 1.677-1.124.227-.154.454-.31.681-.463l.206-.048a.516.516 0 00.067.005c.182 0 .347-.116.557-.261.174-.122.37-.259.619-.354l.39.349c-.253.972-.877 1.547-1.441 2.01-.539.442-1.135.818-1.711 1.181-.21.132-.42.264-.627.4l-.164.048a.321.321 0 01-.057-.005.53.53 0 01-.194.144c-.213.09-.427.183-.64.276-.698.302-1.42.614-2.16.845a2.804 2.804 0 01-.846.109zM30.506 13.71c.336 0 .673.024.998.047.265.019.54.038.805.044.094.002.189.003.283.003.559 0 1.052-.04 1.506-.12.18-.031.36-.052.534-.072.314-.036.61-.07.877-.162.734-.253 1.384-.494 1.923-.87.334-.234.606-.575.894-.935.124-.156.253-.316.387-.469a.19.19 0 00.037-.057l.076-.369c.144-.702.294-1.428.424-2.143.064-.352.095-.723.125-1.081l.004-.045c.014-.171.025-.35-.008-.497a33.122 33.122 0 00-.42-1.676 2.246 2.246 0 00-.23-.561 1.62 1.62 0 00-.179-.22c-.126-.14-.269-.297-.331-.507-.101-.343-.31-.535-.748-.686a.493.493 0 01-.207-.15l-.008-.008c-.09-.04-.18-.084-.27-.128-.242-.118-.47-.229-.701-.28a21.986 21.986 0 00-1.46-.256c-.231-.035-.461-.07-.691-.109-.208-.035-.416-.074-.624-.112-.398-.075-.81-.153-1.213-.196-.348-.037-.71-.055-1.059-.072-.59-.029-1.202-.058-1.795-.183a6.395 6.395 0 00-1.333-.12c-.273 0-.553.01-.823.02-.205.007-.411.014-.618.018-.177.003-.178.025-.184.135l-.01.167c-.018.337-.038.686-.032 1.023.005.354.023.716.04 1.067.011.214.021.429.03.643.007.2-.005.45-.171.622a.498.498 0 01-.186.122l.342 7.79c.25.084.497.09.775.095l.165.005c.448.015.89.081 1.317.145.49.073.953.143 1.428.143.045 0 .09 0 .136-.002a6.87 6.87 0 01.195-.003zm22.02 14.656c-.606 0-1.11-.06-1.59-.188-.523-.141-1.075-.235-1.609-.326a22.55 22.55 0 01-1.368-.264c-.555-.13-1.105-.3-1.637-.463-.33-.102-.661-.204-.995-.297a3.863 3.863 0 00-.422-.083 3.266 3.266 0 01-.653-.152 38.516 38.516 0 01-2.182-.922c-.199-.09-.401-.173-.604-.258-.586-.243-1.191-.495-1.71-.878-.2-.148-.419-.275-.65-.41-.575-.336-1.17-.683-1.524-1.368-.018-.035-.129-.1-.195-.14a2.441 2.441 0 01-.171-.108c-.722-.515-1.321-1.199-1.943-2.217-.21-.344-.465-.657-.736-.989a11.848 11.848 0 01-.644-.839c-.44-.65-1.028-1.136-1.649-1.65l-.204-.17a2.53 2.53 0 01-.314-.327l-.041-.048c-.394-.052-.704-.27-.98-.464-.227-.158-.44-.307-.683-.37-.156-.04-.31-.082-.466-.124-.484-.13-.986-.266-1.484-.34-.46-.07-.916-.127-1.4-.188l-.286-.037.001.01c.033.293.064.57.074.856.006.18-.01.353-.027.52-.012.126-.024.245-.025.361-.003.18.002.36.008.54.007.255.015.52.001.785-.015.297-.05.594-.083.88-.024.208-.048.415-.065.623-.02.255-.035.51-.05.766a21.74 21.74 0 01-.098 1.255c-.012.104.003.227.019.357.035.286.082.67-.191 1.005l.008.616c.007.663.015 1.349.064 2.016.015.026.127.124.194.183.07.063.144.127.208.198v.008l.082.001c.12.002.238.004.357.004.17 0 .309-.004.438-.012l.098-.003c.535 0 .849.305.932.906l-.245.331c-.14.022-.279.052-.42.08-.307.065-.626.131-.953.131h-.072a50.775 50.775 0 01-2.56-.167c-.242-.02-.483-.04-.724-.058a12.498 12.498 0 01-1.295-.148c-.205-.037-.387-.114-.58-.194-.082-.034-.166-.07-.254-.102l-.156-.419.256-.462.275-.152 1.926.11c-.106-.629-.013-1.227.078-1.81.05-.326.099-.634.112-.945l.009-.177c.015-.312.03-.635.016-.944-.029-.644-.063-1.288-.097-1.932-.052-.978-.106-1.988-.139-2.984a57.691 57.691 0 01-.013-2.363c.003-.356.006-.713.006-1.074l.164-.264c.277-.138.283-.304.228-.743a2.457 2.457 0 01-.027-.524c.02-.222-.007-.457-.036-.705-.02-.172-.04-.35-.046-.53-.02-.65-.021-1.249-.006-1.83a4.87 4.87 0 01.078-.654c.017-.107.036-.22.053-.342l.004-.001-.123-.22v-.856c-.002-.665-.004-1.34.003-2.014.006-.676.02-1.352.035-2.035l.012-.585h-.03c-.128.004-.259.007-.392.007-.206 0-.378-.008-.538-.025a3.482 3.482 0 01-.702-.172c-.102-.032-.204-.065-.306-.092a.144.144 0 00-.029-.002h-.026a1.16 1.16 0 01-.102-.004c-.302-.029-.805-.205-.78-1.068l.276-.286.573-.035c.712-.043 1.428-.087 2.144-.128h.024c.08 0 .146.022.19.037.474-.1.932-.114 1.32-.114.17 0 .34.003.51.006.168.003.335.007.502.007.235 0 .429-.007.608-.02 1.392-.106 2.79-.125 4.143-.144h.051c.347 0 .69.047 1.022.093.145.02.291.04.437.056.065.007.13.019.194.03.046.009.092.017.139.023.267.033.534.07.801.106.617.084 1.255.171 1.88.213.57.037 1.021.28 1.457.516.213.115.414.224.625.307.252.099.506.192.76.285l.439.161.055.02c.135.051.276.104.414.167 1.031.474 1.774 1.155 2.207 2.024.305.613.433 1.302.557 1.968l.029.157c.218 1.163.12 2.422-.3 3.85a7.293 7.293 0 01-1.184 2.354c-.556.72-1.197 1.22-1.905 1.488-.353.134-.687.31-1.041.497a10.72 10.72 0 01-1.038.5c-.802.317-1.688.464-2.789.464-.094 0-.189 0-.283-.003a25.294 25.294 0 00-.722-.004l.585.37.112.069c.109.066.221.134.329.222.16.13.317.266.473.4.224.194.456.393.69.574.141.108.291.206.45.31.247.159.5.324.723.535.257.244.405.572.516.905.11.024.241.07.316.206.215.39.576.641.958.908.143.1.29.203.432.314.67.531 1.395 1.025 2.096 1.502.208.14.416.282.623.424.35.243.728.469 1.092.687l.412.25c.444.27.903.549 1.366.79.367.192.762.358 1.144.518l.423.18c.027.011.073.021.117.032.12.028.271.062.389.182.214.219.497.289.824.37.158.04.322.08.485.14.24.09.473.193.699.292l.264.116.224.043a58.553 58.553 0 011.009.2c.278.057.555.115.835.166.22.04.439.081.659.123.632.12 1.285.245 1.928.32.16.018.333.027.544.027.17 0 .34-.006.51-.011.178-.006.355-.012.532-.012l.127.001c.202.004.397.028.603.054l.115.014.092-.099c.198-.06.392-.126.585-.19.443-.15.902-.303 1.37-.396a13.586 13.586 0 001.631-.427 2.83 2.83 0 00.663-.338c.289-.186.59-.356.88-.521l.41-.235.431-.25c.37-.212.752-.432 1.117-.662.275-.173.475-.286.739-.286.14 0 .286.03.505.106l.123.475c-.127.141-.246.286-.364.43-.264.32-.537.653-.873.909-.899.683-1.715 1.213-2.495 1.622-.576.301-1.196.519-1.796.73-.226.078-.451.157-.674.24-.983.368-2.108.58-3.44.649-.231.012-.462.029-.694.046-.43.031-.874.064-1.318.064zM6.486 49.173c.15 0 .302.001.454.005l.497.011c.773.017 1.573.035 2.36.072.775.036 1.56.095 2.318.151l.445.033c.096.007.18.032.255.054.052.015.105.031.134.031.16-.012.318-.037.486-.063.24-.038.49-.077.744-.077l.114.003c.112.006.223.008.334.008a6.158 6.158 0 003.2-.88l.124-.074c.632-.375 1.23-.73 1.554-1.366l.28-.556a84.357 84.357 0 01.674-1.319c.045-.086.036-.192.016-.358a1.641 1.641 0 01-.005-.472c.118-.697.04-1.466-.043-2.131-.03-.25-.115-.5-.205-.764a4.77 4.77 0 01-.223-.82c-.133-.882-.764-1.315-1.671-1.694-.59-.246-1.282-.335-1.95-.421a30.555 30.555 0 01-.535-.072c-.436-.063-.888-.102-1.326-.14-.352-.03-.717-.061-1.077-.106l-.204-.026a6.821 6.821 0 00-.875-.076c-.163 0-.31.012-.452.037a.853.853 0 01-.146.012c-.192 0-.38-.06-.503-.111a.423.423 0 00-.191-.036l-.18.003c-.4 0-.796-.044-1.18-.086-.14-.015-.278-.03-.416-.043a4.092 4.092 0 01-.599.041c-.455 0-.905-.065-1.34-.128-.423-.06-.86-.124-1.288-.124h-.004v11.484l.424-.002zM5.86 65.794c.12.154.255.185.45.185.082 0 .167-.006.253-.012l.192-.012a45.927 45.927 0 011.891-.03l.924.001c.18 0 .36.014.533.027.171.013.333.025.495.025h.063c.345-.008.698-.025 1.04-.042.468-.023.952-.047 1.43-.047a14 14 0 01.322.004c.162.004.325.006.487.006.48 0 .99-.017 1.557-.05 1.01-.06 2.038-.194 2.945-.313 1.486-.195 2.696-.425 3.607-1.447.449-.503.937-1.115 1.152-1.83.237-.79.398-1.625.555-2.432l.127-.649c.07-.342.14-.695.086-.987-.099-.53-.267-1.064-.43-1.581l-.158-.508c-.01-.033-.04-.082-.067-.13a.868.868 0 01-.148-.382c-.061-.785-.453-1.475-1.232-2.17-.358-.319-.781-.566-1.228-.829-.12-.07-.238-.139-.355-.21a.838.838 0 01-.198.028.418.418 0 01-.204-.05 1.077 1.077 0 01-.284-.238h-.002a1.72 1.72 0 01-.367.05.893.893 0 01-.09-.004c-.181-.018-.351-.06-.516-.1-.103-.024-.206-.05-.31-.068l-.449-.078a50.385 50.385 0 00-1.879-.305 25.522 25.522 0 00-1.22-.127c-.252-.022-.505-.044-.758-.07-.123-.014-.248-.018-.373-.023-.347-.014-.735-.029-1.102-.213a1.749 1.749 0 01-.6.099c-.235 0-.461-.037-.68-.073a4.43 4.43 0 00-.486-.062c-.557-.03-1.121-.073-1.667-.114-.377-.028-.753-.057-1.13-.081-.53-.035-1.06-.063-1.603-.093L6 50.836l-.14 14.958zm10.08 2.074c-.378 0-.754-.045-1.118-.089a8.855 8.855 0 00-1.049-.084c-.535 0-1.078.034-1.603.067a27.82 27.82 0 01-1.607.067h-.04c-.565 0-1.135-.04-1.687-.078a33.07 33.07 0 00-1.056-.064l-.947-.042c-1.006-.046-2.047-.094-3.066-.094l-.284.001c-.506.005-1.007.078-1.537.156-.31.046-.63.093-.948.124a.753.753 0 01-.074.004c-.154 0-.295-.045-.42-.084-.051-.016-.102-.033-.153-.044l-.216-.373a2.26 2.26 0 00.039-.153c.033-.142.071-.303.164-.45.312-.495.78-.552 1.104-.552h.082c.386 0 .772-.058 1.18-.12.13-.018.258-.038.387-.055.252-.035.288-.172.29-.302.01-.861.009-1.739.008-2.587v-.195l-.008-3.058-.004-1.62v-1.275c-.116-.48-.03-1.054.074-1.714-.195-.317-.178-.701-.164-1.045.006-.145.013-.295.004-.434l.17-.265-.007-.009c-.023-.031-.048-.064-.07-.098-.111-.164-.11-.358-.107-.513 0-.042 0-.084-.002-.124a11.958 11.958 0 00-.012-.169 4.49 4.49 0 01-.018-.606c.01-.192.066-.375.162-.538a.137.137 0 01-.005-.01c-.063-.14-.135-.298-.138-.48a141.83 141.83 0 01-.016-2.118c0-.5-.002-1-.007-1.5-.006-.538-.016-1.076-.026-1.614-.012-.65-.024-1.3-.028-1.952-.005-.833 0-1.68.004-2.5a382.467 382.467 0 00.007-2.794v-.51l-.552-.645-.023-.008c-.104-.035-.241-.082-.379-.125a2.322 2.322 0 01-.11-.037.742.742 0 00-.131-.041l-.029.005c-.436.075-.655.112-.85.112-.24 0-.41-.059-.665-.148l-.18-.38.236-.639.39-.17c.135.056.29.082.498.082.113 0 .226-.007.338-.014.123-.007.245-.015.364-.015.247 0 .56.026.859.216l.856-.003c.185 0 .368 0 .551.005.225.005.45.005.676.005h.201c.716 0 1.36.008 2.002.108.096.015.197.022.31.022.16 0 .319-.014.487-.03.174-.015.353-.032.537-.032.098 0 .19.005.278.014.158.017.33.025.525.025.228 0 .465-.011.694-.022.236-.01.48-.022.722-.022a5.6 5.6 0 01.367.01c.646.037 1.307.048 1.945.058.912.015 1.854.03 2.788.123 1.418.14 2.525.462 3.483 1.012.1.058.217.13.322.226a.53.53 0 01.08.094c.123.003.268.015.39.118l.286.237c.551.453 1.12.922 1.508 1.628.754 1.374.915 2.877 1.007 4.178.008.115-.008.24-.048.372-.059.194-.113.39-.168.585-.138.497-.28 1.01-.494 1.495-.217.49-.553.916-.879 1.328l-.095.121c-.343.437-.634.732-.944.958-.517.377-1.066.717-1.605 1.044.39.013.753.118 1.105.219l.145.042c.24.068.483.13.725.19.287.073.583.148.874.234.609.18 1.082.554 1.54.916.618.49 1.097.955 1.41 1.605.57.26.814.782.997 1.254l.188.476c.261.657.532 1.336.7 2.037.294 1.228.521 2.679-.021 4.127-.089.238-.147.49-.209.757-.075.326-.153.664-.294.984-.538 1.227-1.52 2.09-2.5 2.84-.27.206-.515.445-.774.697-.168.164-.341.332-.522.491a1.6 1.6 0 01-.64.368c-.156.04-.312.082-.468.124-.651.175-1.324.355-2.006.453-.956.138-1.963.214-2.993.228h-.063zm46.028-14.093c.882 0 1.775.044 2.639.086l.683.033c.216.01.419.076.615.14l.087.027a.366.366 0 01.24-.094c1.497-.007 2.994-.008 4.49-.008h1.35l.03-.119a13.7 13.7 0 00-.114-.187c-.118-.192-.23-.374-.313-.573-.079-.19-.136-.389-.192-.58-.09-.315-.176-.611-.34-.818-.338-.424-.521-.899-.699-1.357-.139-.36-.27-.701-.47-1.008-.363-.558-.63-1.177-.89-1.774l-.13-.296c-.112-.257-.181-.517-.262-.818-.028-.102-.056-.209-.088-.32-.331-.19-.643-.577-.646-1.178-.47-.481-.729-1.066-.98-1.632-.07-.16-.14-.318-.215-.474a2.6 2.6 0 01-.128-.34c-.037-.114-.071-.222-.12-.308-.394-.695-.663-1.426-.93-2.23-.912 2.274-1.925 4.518-2.906 6.693-1.04 2.304-2.114 4.683-3.061 7.085l.249.013c.429.025.834.048 1.236.048.083 0 .166-.001.248-.003.206-.005.411-.008.617-.008zm16.105 14.383c-.25 0-.502-.036-.747-.072a5.667 5.667 0 00-.564-.064c-.558-.026-1.152-.073-1.734-.33l-.174-.298c.081-.818.734-.826 1.047-.83h.13l.506.003c.18 0 .317-.004.445-.012a1.31 1.31 0 00.31-.08h.004c.076-.257-.014-.486-.158-.815-.117-.264-.246-.559-.232-.896-.13-.087-.372-.276-.32-.603-.195-.213-.27-.473-.334-.691-.05-.17-.096-.33-.187-.44a.864.864 0 01-.148-.302c-.18-.595-.484-1.127-.807-1.69-.266-.466-.542-.948-.742-1.47a5.83 5.83 0 01-.28-1.129c-.032-.196-.166-.4-.307-.616a4.116 4.116 0 01-.266-.447 39.01 39.01 0 01-.568-1.236 22.683 22.683 0 00-.159-.356l-1.188-.002c-.3 0-.598.001-.897.003-.27.001-.54.006-.81.01-.292.006-.585.01-.878.012h-.028c-.173 0-.345-.006-.517-.011-.15-.005-.3-.01-.449-.011l-.88-.007c-.565-.006-1.13-.01-1.694-.01-.309 0-.618 0-.926.005-.615.008-1.243.033-1.85.057-.365.015-.73.03-1.095.04a5.63 5.63 0 01-.362-.008c-.084-.004-.168-.008-.252-.008-.028 0-.056 0-.085.002-.22.009-.44.023-.659.038-.304.02-.62.04-.932.047h-.026c-.158 0-.306-.032-.476-.069a5.714 5.714 0 00-.06-.013l-.25.54c-.185.403-.365.81-.546 1.216-.404.912-.822 1.854-1.293 2.755l-.109.208c-.583 1.119-1.185 2.275-2.139 3.207-.235.23-.464.481-.686.725-.358.392-.727.798-1.148 1.145a9.255 9.255 0 01-3.446 1.801c-.316.086-.64.104-.953.12-.097.005-.194.01-.29.017l-.18.014c-.795.06-1.618.122-2.43.165-.716.037-1.438.05-2.058.058-1.283.017-2.565.028-3.848.04l-.638.006-1.097.007a89.275 89.275 0 00-3.125.049c-.613.019-1.245.038-1.87.039-.645 0-1.281-.017-1.897-.033-.468-.012-.937-.025-1.405-.03-.178-.002-.72-.008-.872-.62l-.006-.108c.05-.405.303-.61.75-.61l.18.002h.031c.218-.006.437-.007.65-.007l.703.002.049-.064c.09-.121.174-.235.303-.318.302-.19.37-.493.382-.92.02-.683.015-1.382.01-2.058l-.003-.7-.002-1.076c-.003-1.317-.005-2.635-.016-3.952-.003-.38-.015-.768-.027-1.143-.015-.455-.03-.926-.029-1.392.002-.538.017-1.083.032-1.61.012-.446.025-.893.029-1.339.003-.242-.01-.492-.022-.735a13.104 13.104 0 01-.023-.745c.005-.712.015-1.424.025-2.135a122.247 122.247 0 00.02-3.862c-.004-.484-.008-.968-.007-1.452.003-1.034.019-2.062.032-2.842l.003-.16c.013-.634.025-1.235-.214-1.864l-2.634-.16-.253-.178c-.209-.486-.183-.574.059-1.423l.277-.213c.233-.005.47-.016.707-.027.33-.015.67-.03 1.011-.03.232 0 .44.006.639.021.629.047 1.291.07 2.084.07.661 0 1.335-.016 1.986-.032l.8-.017a13 13 0 01.28-.003c.414 0 .833.017 1.238.032.28.011.56.022.84.028a.654.654 0 00.148-.035l.069-.02c.037-.012.073-.026.11-.04.065-.024.138-.051.22-.069a1.12 1.12 0 01.241-.025c.153 0 .293.027.429.053.118.023.23.044.336.044a.623.623 0 00.181-.025c.276-.083.558-.094.774-.094.11 0 .223.003.334.007.1.003.198.006.295.006.125 0 .242.038.344.071.03.01.068.022.098.03.237-.143.496-.21.81-.21.178 0 .35.021.517.042.155.02.302.037.443.037.075 0 .142-.005.205-.015.39-.067.786-.071 1.168-.076.086 0 .172-.002.258-.004l.22-.002c.283 0 .57.01.846.02l.099.003c1.067.037 2.168.076 3.251.123.156.007.308.027.454.047.13.018.252.035.374.042.618.034.678.482.707.697.01.067.019.137.037.171l.013.03.128.313c.098.238.2.484.286.735.068.197.124.397.178.59.096.343.186.666.333.955.523 1.03.756 2.115.93 3.134.04.244.104.492.17.756.034.131.068.267.102.41l-.038.226-.268.42-.414.085c-.048-.033-.106-.063-.163-.093-.182-.095-.388-.204-.476-.422-.048-.117-.1-.234-.152-.351-.24-.542-.488-1.103-.407-1.776-.004-.017-.012-.034-.018-.051l-.09-.244c-.088-.24-.18-.487-.278-.723-.051-.121-.1-.243-.15-.364-.21-.52-.41-1.01-.732-1.477-.437-.631-.788-.823-1.503-.823h-.278c-1.142.001-2.298-.085-3.416-.169-.52-.039-1.04-.077-1.561-.108-.244-.014-.489-.03-.733-.047-.66-.045-1.343-.09-2.01-.092h-.024c-.533 0-1.08.033-1.608.065-.378.022-.77.046-1.157.058-.423.013-.851.013-1.266.013-.402 0-.818 0-1.225.013-.314.009-.623.04-.982.077-.087.01-.176.018-.267.027v.157c.002.303.003.596-.002.889-.014.836-.031 1.673-.048 2.51l-.023 1.158-.005.17c-.005.139-.009.27-.001.397.012.206.03.41.047.616.029.352.06.715.065 1.079.006.402-.007.807-.02 1.2a29.728 29.728 0 00-.004 2.094c.008.367.016.734.017 1.1a7.824 7.824 0 01-.051.8l.257.002.52.003c.205 0 .407-.002.61-.007.596-.016 1.192-.036 1.788-.055.91-.03 1.85-.062 2.777-.078l.338-.002c.654 0 1.316.03 1.956.06l.077.003.095.003c.284 0 .374-.044.52-.367a8.07 8.07 0 01.425-.785c.063-.107.126-.214.187-.323l.347-.136c.514.165.76.47.772.957.009.312.024.624.038.936.02.398.039.81.044 1.217.007.496-.032.981-.072 1.39-.014.157-.084.287-.145.402-.02.038-.041.076-.059.116l-.325.17c-.719-.138-.76-.671-.784-.99a4.047 4.047 0 00-.011-.135c-.427-.111-.543-.511-.624-.789l-.017-.06c-.508.022-1.058.032-1.708.032-.476 0-.951-.005-1.427-.01-.474-.006-.947-.011-1.42-.011-1.259 0-2.735.034-4.206.283-.16.604-.142 1.244-.124 1.918.01.322.019.654.007.983-.018.486-.02.986-.021 1.47-.002.485-.003.987-.02 1.482-.01.253.017.51.044.783.018.18.036.365.044.55.01.204.024.408.039.612.04.554.08 1.128.008 1.692-.057.44-.047.872-.036 1.33.006.262.013.533.005.805-.017.607-.004 1.217.01 1.863l.01.606.248.007c.268.007.522.014.773.014l.24-.003c.39-.008.781-.023 1.172-.038.521-.02 1.06-.041 1.593-.044h.226c.492 0 .984.007 1.476.015.489.008.977.016 1.466.016l.387-.001a7.57 7.57 0 00.92-.086c.19-.025.378-.05.567-.068.195-.018.39-.03.585-.04.235-.014.477-.029.71-.055.227-.025.455-.05.682-.073.75-.08 1.526-.162 2.275-.293 1.517-.264 2.902-.781 4.115-1.536.243-.15.459-.39.658-.622 1.5-1.747 2.996-3.68 3.768-5.983.359-1.072.816-2.084 1.215-2.934.318-.676.584-1.397.841-2.095.112-.303.224-.606.34-.908l.003-.027c.01-.066.024-.166.095-.26.315-.408.483-.89.661-1.4.122-.349.248-.709.426-1.052.238-.459.415-.943.604-1.455.106-.291.217-.593.339-.886.217-.523.442-1.046.666-1.566l.226-.526c.09-.21.186-.417.283-.626.153-.331.312-.674.439-1.016.18-.486.403-.959.618-1.416.11-.235.22-.469.326-.705.125-.284.247-.57.37-.855.214-.5.435-1.018.675-1.52a66.24 66.24 0 011.217-2.375l.123-.232c.07-.133.186-.206.287-.271.035-.023.072-.046.11-.074l.434.087c.097.17.218.32.345.48.252.317.513.644.59 1.124.01.019.08.086.126.13.097.093.208.198.274.343.388.85.769 1.717 1.137 2.556a190.16 190.16 0 00.758 1.71c.189.417.384.85.564 1.282.147.35.285.71.42 1.056.19.491.387.999.604 1.483.366.818.762 1.64 1.145 2.435l.494 1.03c.011.023.023.045.036.068a1.1 1.1 0 01.1.228c.13.46.33.888.543 1.341.139.297.283.605.405.922.346.9.77 1.793 1.18 2.656l.067.14c.285.6.586 1.207.877 1.794.272.55.544 1.1.81 1.653.073.155.11.311.144.462.028.12.054.231.095.324.106.242.229.473.359.719.076.145.153.29.226.437l.256.51c.259.512.526 1.043.765 1.58.114.256.203.52.29.776.092.272.18.528.292.773.058.126.159.248.266.378.107.13.217.263.305.422.105.19.184.39.26.581.075.188.145.365.236.526.317.569.858.916 1.431 1.283l.136.087a.816.816 0 01.087-.005c.202 0 .38.072.536.135.113.047.22.09.301.09.029 0 .088 0 .183-.102l.476.063.314.592-.19.424a5.471 5.471 0 01-1.312.168c-.341 0-.67-.036-1.002-.11-.165.125-.401.195-.672.195a1.46 1.46 0 01-.576-.115.93.93 0 01-.489.128c-.139 0-.27-.023-.398-.046a1.858 1.858 0 00-.315-.038.526.526 0 00-.15.02c-.16.046-.332.07-.529.07zm20.153-15.274a.69.69 0 01.334.102l.022-.01c.113-.05.23-.102.361-.132.255-.056.51-.107.765-.158.35-.07.713-.143 1.063-.228.223-.054.44-.123.67-.197.288-.091.585-.186.892-.248.831-.169 1.382-.733 1.965-1.33.16-.164.326-.333.497-.494.01-.02.016-.041.024-.063.012-.033.024-.065.037-.095.297-.68.604-1.385 1.157-1.965.015-.016.047-.07.079-.248.039-.214.07-.43.102-.647.058-.394.117-.801.222-1.199.243-.921.097-1.864-.097-2.746-.222-1.008-.986-1.779-1.626-2.338-.602-.526-1.301-.954-1.978-1.367-.348-.213-.726-.376-1.127-.548a41.142 41.142 0 01-.321-.14l-.089-.039c-.215-.096-.437-.195-.642-.221a65.013 65.013 0 00-3.285-.36 75.552 75.552 0 00-3.679-.191c-.38-.011-.788-.016-1.284-.016-.339 0-.679.002-1.021.005-.283.001-.567.004-.853.004a.492.492 0 00-.044.136 7.55 7.55 0 00.004.507 5.9 5.9 0 01-.01.756l-.022.216c-.093.931-.18 1.81-.055 2.718.065.476.045.958.026 1.424-.01.243-.02.494-.018.736.002.165.017.331.034.507.018.193.036.393.036.596 0 .265-.036.522-.07.77-.054.396-.105.769-.015 1.137.051.211-.046.407-.11.529.116.941.094 1.828.07 2.765-.007.31-.015.63-.018.954l.313.021c.424.029.863.059 1.291.121.182.027.365.05.547.072.66.083 1.342.168 2.001.43.404.162.935.354 1.46.413.47.053.968.079 1.528.079.264 0 .54-.006.845-.018h.019zm20.872 16.274c-.377 0-.757-.034-1.125-.067l-.333-.03a33.492 33.492 0 01-2.642-.296c-1.387-.226-2.502-.544-3.508-1-.42-.192-.855-.373-1.276-.55a33.168 33.168 0 01-1.794-.791c-.454-.222-.876-.506-1.285-.78-.186-.124-.372-.249-.561-.368l-.49-.305a62.558 62.558 0 01-.65-.406c-.606-.387-1.361-.867-1.828-1.606-.243-.384-.597-.656-.97-.944-.316-.242-.642-.493-.91-.822a35.34 35.34 0 00-1.048-1.234.945.945 0 00-.194-.142c-.053-.034-.106-.067-.156-.103-.673-.486-1.189-1.115-1.688-1.723l-.214-.26c-.136-.163-.292-.312-.457-.47a6.284 6.284 0 01-.502-.517c-.88-1.059-2.097-1.694-3.275-2.308-.817-.426-1.68-.547-2.595-.676-.31-.043-.632-.088-.95-.147-.136-.024-.274-.042-.445-.065a.06.06 0 01-.007-.001l-.012.191c-.023.368-.045.716-.049 1.064-.002.257.034.513.072.785.067.48.136.976-.002 1.523-.102.404-.073.854-.043 1.33.013.199.027.405.03.609l.002.154c.02 1.497.043 3.046.075 4.568.01.477.031.964.051 1.434.015.343.03.685.04 1.029.006.183.04.241.18.308.178.085.314.223.433.349.348-.18.813-.203 1.03-.203.485 0 .958.101 1.299.277l.159.257c.007.463-.264.758-.724.789-.273.018-.546.038-.818.058-.745.053-1.515.109-2.275.142h-.036c-.198 0-.376-.067-.549-.133a3.227 3.227 0 00-.13-.049 2.67 2.67 0 01-.845.117c-.178 0-.358-.01-.532-.02a8.692 8.692 0 00-.509-.02l-.124.002c-.265.01-.53.012-.8.012l-.623-.003c-.218-.002-.44-.004-.668-.004l-.273-.186-.229-.579.182-.387 1.172-.387.313.084c.196.22.302.293.349.317a.832.832 0 00.09-.202l.279-.201.296-.003a3.167 3.167 0 01.257.01l.156-.328c.192-.088.207-.196.184-.582l-.005-.104a8.84 8.84 0 01.01-.782c.018-.44.035-.856-.063-1.231-.11-.422-.065-.81-.025-1.153.02-.174.039-.339.04-.502 0-.204-.012-.413-.023-.616-.012-.225-.025-.457-.022-.69.001-.164.053-.306.108-.456.019-.05.038-.102.056-.159l.005-.223a5.624 5.624 0 00-.01-.699c-.022-.217-.059-.431-.097-.658a7.207 7.207 0 01-.12-.94c-.02-.457-.007-.918.004-1.364.008-.297.016-.603.015-.902a5.918 5.918 0 00-.034-.518 5.22 5.22 0 01-.033-.707c.035-.862.108-1.733.178-2.575a.478.478 0 01.09-.24s0-.002-.002-.003c-.06-.138-.13-.295-.133-.472l-.008-.36c-.014-.618-.03-1.258.032-1.888.055-.564.044-1.145.034-1.706-.008-.415-.016-.843.002-1.27.033-.776.035-1.57.037-2.338 0-.373.001-.746.006-1.119.006-.531.012-1.063.02-1.594l.024-2.015a2.214 2.214 0 00-.012-.223 3.74 3.74 0 00-.927-.11c-.49 0-.983.083-1.357.155l-.212-.04c-.407-.255-.659-.425-.692-.706a.56.56 0 01.11-.383l-.03-.086.184-.378c.046-.015.092-.035.138-.055.132-.057.282-.121.455-.121.714.013 1.416.033 2.118.053.72.02 1.44.042 2.16.054.643.01 1.137.016 1.6.016.592 0 1.123-.008 1.622-.026h.053c.162 0 .31.024.454.047.127.021.247.041.364.041a.835.835 0 00.193-.021c.098-.023.202-.034.317-.034.172 0 .34.025.504.049.152.022.295.044.429.044.45-.002.906-.016 1.347-.03.355-.011.71-.023 1.064-.028h.062c.595 0 1.112.128 1.572.39l.23-.141c.202 0 .404-.004.606-.007.204-.003.409-.006.613-.006.3 0 .55.007.782.023.928.062 1.715.266 2.403.625.495.257.948.571 1.387.875.26.18.529.366.798.534.994.62 1.59 1.527 2.168 2.403l.076.116c.533.807 1.098 1.778 1.252 2.866.069.487.06.981.05 1.46-.004.202-.007.404-.006.606.007.648-.028 1.393-.531 2.054a.91.91 0 00-.007.136c0 .078-.001.166-.02.256-.115.582-.456.997-.785 1.399-.211.259-.412.503-.54.779-.294.626-.746 1.104-1.182 1.567l-.137.145c-.299.318-.708.5-1.103.674a12.672 12.672 0 01-1.497.58l-.1.034c-.416.14-.847.285-1.29.382-.8.176-1.453.293-2.053.37a4.44 4.44 0 01-.569.032c-.121 0-.243-.002-.364-.006a14.327 14.327 0 00-.35-.005h-.053c-.072 0-.143 0-.214.002l.28.206c.535.393 1.09.799 1.626 1.213.155.12.281.26.403.396.065.073.13.147.2.215.29.282.583.562.875.842l.416.398.202.193c.172.162.35.33.519.507.057.06.103.123.143.179.088.121.126.165.205.184.182.044.264.198.323.31.015.028.037.07.05.086l.015.01.268.22c.216.177.432.354.645.534.208.176.385.335.542.488.121.118.24.24.36.362.158.161.322.328.487.482.195.181.405.358.608.529l.25.21.358.31c.277.241.563.49.855.716.169.13.347.248.536.374.276.183.561.372.817.604.113.102.257.18.41.26.21.113.446.238.613.453l.08.019c.134.031.272.064.402.138.253.145.503.301.744.453.465.292.904.568 1.378.773 1.043.453 1.98.688 2.866.719.305.01.61.023.914.036.68.03 1.385.06 2.073.06.121 0 .242 0 .363-.003.595-.01 1.21-.094 1.803-.175l.498-.066c.406-.053.82-.117 1.22-.18.3-.046.601-.093.902-.135a9.697 9.697 0 003.769-1.346c1.078-.658 1.71-1.692 2.264-2.695l.012-.026c.025-.055.062-.137.144-.203.402-.326.474-.82.55-1.342.012-.085.024-.168.038-.25.076-.468.053-.953.028-1.467-.01-.216-.02-.433-.023-.647a.123.123 0 00-.016-.041c-.32-.537-.347-.641-.205-1.215-.56-1.236-1.506-2.19-2.812-2.835-.366-.181-.758-.34-1.136-.494-.515-.21-1.047-.427-1.544-.707-.505-.285-1.05-.418-1.629-.56-.42-.102-.853-.208-1.271-.377-.394-.16-.774-.352-1.142-.538-.188-.095-.376-.19-.566-.281l-.062-.031a.726.726 0 00-.152-.064c-.04.002-.083.003-.126.003-.666 0-1.248-.239-1.81-.47-.184-.075-.375-.154-.561-.22-.154-.055-.25-.175-.33-.29a.677.677 0 01-.156.017c-.229 0-.443-.105-.694-.262-.294-.185-.604-.36-.904-.53-.33-.188-.672-.381-1-.59-.237-.152-.434-.343-.626-.529-.075-.072-.15-.145-.227-.214a.36.36 0 01-.058-.068c-.687-.252-.996-.82-1.27-1.325a4.477 4.477 0 00-.367-.602c-.33-.431-.417-.903-.5-1.359a8.047 8.047 0 00-.078-.396c-.27-1.168.008-2.231.276-3.26l.058-.224c.225-.874.64-1.54 1.267-2.037.462-.366.91-.777 1.342-1.174l.527-.48.036-.208.538-.199c.406-.15.811-.3 1.22-.441a6.864 6.864 0 012.282-.398h.137c.418 0 .84-.084 1.287-.175.13-.026.261-.053.391-.077a1.96 1.96 0 01.347-.035c.262 0 .472.072.627.213l.193.007c.212.007.413.013.615.042l.295.041c.486.067.989.136 1.477.262.614.159 1.216.374 1.798.582l.174.062c.354.127.705.27 1.044.41.15.06.299.122.448.181.014.006.029.01.043.015.065.02.155.048.236.118.28.24.602.367.931.367.458 0 .873-.247 1.14-.678.262-.424.41-.491.982-.616l.355.253c.01.086.024.172.038.257.035.21.07.428.056.655-.023.367-.065.734-.106 1.09-.032.278-.064.556-.087.835-.047.572-.07 1.043-.068 1.484 0 .183-.011.365-.022.541-.021.355-.042.691.027 1.02.05.23-.123.396-.261.53-.036.035-.073.07-.1.102l-.424.032c-.032-.028-.073-.056-.113-.084-.153-.108-.343-.243-.339-.472.009-.473-.273-.787-.6-1.151l-.15-.169a40.63 40.63 0 01-.373-.437c-.411-.488-.837-.992-1.318-1.391-.568-.473-1.28-.808-1.835-1.046-1.466-.63-3.06-.76-4.44-.831l-.45-.025a35.51 35.51 0 00-1.933-.07c-.158 0-.317.001-.474.006-1.057.033-2.013.451-2.923 1.279a7.414 7.414 0 00-1.57 2.035c-.093.175-.12.41-.15.659a7.514 7.514 0 01-.037.273c-.015.095-.02.198-.025.308-.009.176-.018.359-.07.545-.422 1.491.826 3.27 2.141 3.749.62.225 1.237.483 1.833.732.486.203.99.413 1.488.603.65.248 1.322.48 1.97.703.376.13.751.26 1.125.393.262.093.54.198.805.336.463.243.894.387 1.353.454.754.11 1.506.34 2.17.541.555.169 1.088.357 1.653.556.242.086.487.172.735.257l.172.21.033-.031.398-.006c.158.14.321.279.485.417.38.321.773.654 1.117 1.034.523.579.973 1.258 1.334 1.804.547.826.819 1.823.832 3.048.009.77.049 1.525.082 2.097.04.673.026 1.441-.384 2.03a6.194 6.194 0 00-.409.724c-.246.483-.5.983-.979 1.37-.203.164-.366.399-.54.647a7.442 7.442 0 01-.272.375c-.07.089-.15.182-.254.253-.155.108-.308.22-.46.334-.383.281-.778.572-1.213.794-.6.306-1.23.562-1.84.808a55.73 55.73 0 00-.715.293c-.146.062-.295.12-.443.177-.183.072-.366.143-.545.222-1.063.468-2.187.585-3.275.698l-.531.056c-.269.03-.539.054-.809.077-.38.032-.774.066-1.155.12a4.78 4.78 0 01-.681.045zm-5.82 9.547c-.348-.016-.696-.036-1.044-.055a62.593 62.593 0 00-2.015-.09h-.05c-.202 0-.407.027-.625.054a5.827 5.827 0 01-.672.06h-.058c-.288 0-.576-.021-.854-.042-.212-.015-.432-.031-.645-.037-.685-.019-1.37-.031-2.055-.044-.416-.008-.831-.015-1.246-.024a9.079 9.079 0 01-.358-.018c-.136-.008-.271-.017-.407-.017l-.093.001c-.446.016-.893.037-1.339.058-.424.02-.847.04-1.27.056a6.082 6.082 0 01-.208.004c-.21 0-.448-.014-.617-.186-.195-.198-.2-.496-.194-.967l.26-.288.347-.045c.274-.037.557-.076.845-.093.271-.017.544-.017.807-.017.175 0 .35 0 .524-.005.358-.01.716-.023 1.074-.036a76.861 76.861 0 011.85-.053c.156-.002.312-.002.468-.002.391 0 .783.005 1.174.01.39.005.778.01 1.167.01h.05c.305 0 .61-.008.914-.015a39.955 39.955 0 011.233-.013c.275.004.538.04.843.083.115.016.234.033.363.048.442-.246.93-.28 1.312-.28.223 0 .453.014.676.027.19.01.38.021.57.024.193.004.383.014.573.023.227.012.44.023.658.023.273 0 .5-.017.719-.056a4.96 4.96 0 01.86-.066c.272 0 .547.014.812.029a15.684 15.684 0 001.142.029c.257 0 .513-.001.77-.003l.773-.002h.1c.683.001 1.365.005 2.048.01l.732.003c.616.002 1.254.004 1.883.02l.186.004c1.158.028 2.356.057 3.535.133.082.006.16.016.239.027.09.012.176.023.257.023a.62.62 0 00.208-.033.43.43 0 01.14-.023c.171 0 .325.096.488.198.073.045.15.093.224.13l.134.392-.36.745-.278.166a203.87 203.87 0 01-1.047-.049c-.77-.037-1.497-.072-2.23-.085a39.194 39.194 0 00-.766-.007c-.337 0-.675.003-1.012.006-.339.003-.678.006-1.017.006-.171 0-.343 0-.515-.003a6.662 6.662 0 01-.693-.056 6.434 6.434 0 00-.863-.054c-.39 0-.788.017-1.175.034l-.164.007c-.205.008-.41.023-.614.037-.256.018-.52.037-.784.044-.049.001-.098.005-.147.008-.076.005-.152.01-.227.01-.104 0-.36 0-.595-.174-.183.14-.41.211-.68.211a2.77 2.77 0 01-.529-.065l-.072-.014a2.407 2.407 0 00-.446-.039c-.237 0-.47.027-.718.055-.25.028-.509.058-.775.058h-.026c-.218 0-.433.042-.662.087a8.086 8.086 0 01-.37.067 2.598 2.598 0 01-.443.036zm4.358 10.91c.037.128.072.268.108.414.097.388.207.827.392 1.214.26.542.757.984 1.195 1.374.065.057.129.117.193.177.185.174.36.339.554.441.593.315 1.275.356 1.803.356.087 0 .174-.002.262-.004.963-.022 1.831-.453 2.653-1.32.345-.363.55-.827.625-1.416a7.762 7.762 0 00-.538-4.049 5.536 5.536 0 00-.433-.799 6.1 6.1 0 00-.564-.771c-.087-.1-.267-.305-.417-.353-.344-.108-.722-.165-1.088-.22l-.14-.02a5.287 5.287 0 00-.797-.065c-.783 0-1.434.219-1.99.668-.486.392-.853.886-1.154 1.554-.369.82-.574 1.69-.664 2.818zm4.065 5.49c-.757 0-1.382-.148-1.91-.45-1.515-.183-2.27-1.277-2.936-2.243-.451-.655-.623-1.37-.785-2.17a.561.561 0 01.035-.31c-.22-.314-.266-.77-.197-1.435a3.557 3.557 0 00-.187.4c-.703 1.8-1.614 3.139-2.786 4.093-1.037.844-2.081 1.606-3.459 1.649a8.88 8.88 0 01-1.916-.16 5.032 5.032 0 01-1.458-.542c-.343-.189-.645-.437-.936-.677-.096-.078-.19-.157-.288-.233l-.188-.146c-.26-.2-.528-.406-.757-.658-.144-.159-.201-.36-.252-.536a2.037 2.037 0 00-.068-.208l-.045-.111c-.418-.14-.49-.53-.529-.748l-.01-.053a10.414 10.414 0 00-.14-.603c-.168-.66-.34-1.344-.12-2.09l.06-.208c.055-.195.113-.397.186-.595.416-1.131 1.129-2.097 2.12-2.871.255-.2.596-.348 1.015-.443.18-.04.36-.088.538-.135.343-.09.698-.183 1.073-.235.218-.03.45-.045.732-.045.16 0 .32.005.48.01.152.004.305.008.458.008.166 0 .31-.005.44-.016.038-.004.075-.005.112-.005.35 0 .71.136.974.236.47.178.933.383 1.381.582l.318.141c.493.218.662.64.81 1.014.034.084.068.168.105.25l-.077.347c-.283.24-.486.398-.732.398-.238 0-.423-.15-.639-.346-.438-.397-.915-.803-1.492-1.031a.962.962 0 01-.112-.055c-.014-.008-.027-.016-.04-.022-.142-.017-.3-.042-.459-.066-.537-.082-1.045-.16-1.56-.16-.28 0-.535.024-.779.072-.416.081-.744.354-1.091.642-.12.1-.24.2-.363.292-.806.602-1.277 1.45-1.442 2.593a3.775 3.775 0 00-.002.786c.073 1.048.524 1.99 1.377 2.878.702.73 1.52 1.07 2.571 1.07.23 0 .475-.016.73-.05.138-.017.275-.031.412-.045.523-.055 1.018-.106 1.464-.352.792-.434 1.328-1.181 1.802-1.84.1-.14.178-.31.26-.49.066-.147.134-.3.221-.446l.156-.263c.32-.542.65-1.102 1.022-1.628a62.277 62.277 0 012.023-2.702c.906-1.14 2.195-1.808 4.055-2.099.26-.04.524-.061.785-.061.963 0 1.912.27 2.9.825.676.379 1.2.994 1.649 1.937.049.103.093.208.137.314.082.198.16.386.269.54.196.281.394.639.378 1.161-.006.195.051.408.112.633.031.119.063.237.087.356.025.127.047.254.075.412l.047.269.002.083c-.008.077-.02.165-.033.259a5.673 5.673 0 00-.069.74c-.004.59-.153 1.153-.485 1.822-.296.6-.613 1.172-1.222 1.581-1.01.677-2.061 1.067-3.123 1.157a8.097 8.097 0 01-.684.032zm-96.73 4.474c-.27 0-.589-.002-.904-.02a1.524 1.524 0 01-.465-.12c-.046-.017-.09-.034-.134-.047l-.208-.282v-.742l.15-.256c.331-.188.687-.223 1.03-.256.399-.039.747-.073 1.046-.326l.031-.504c.034-.5.068-1.018.069-1.54.002-1.043-.01-2.104-.02-3.13-.008-.85-.016-1.699-.018-2.548 0-.274.02-.546.04-.81.019-.247.036-.48.038-.716 0-.134-.021-.276-.045-.426a3.352 3.352 0 01-.052-.48c-.005-.305.005-.612.015-.909.007-.206.014-.413.016-.62.002-.248-.001-.498-.005-.747-.007-.457-.015-.929.016-1.397a8.991 8.991 0 00-.014-1.036c-.032-.625-.065-1.27.124-1.919-.157-.387-.138-.774-.118-1.15.014-.285.028-.556-.029-.832l-.054-.014a3.044 3.044 0 00-.575-.116l-.074-.005c-.47-.029-1.002-.062-1.439-.433-.07-.061-.424-.381-.404-.747.017-.314.41-.587.663-.629.646-.108 1.283-.18 1.893-.212a35.337 35.337 0 012.429-.045c.2.002.377.068.55.132l.052.02c.207-.166.45-.25.723-.25.412 0 .883.184 1.484.58l.133.233c.014.348-.083.64-.282.848-.186.194-.447.297-.754.297-.072 0-.147-.006-.223-.017a1.14 1.14 0 00-.164-.012c-.351 0-.673.17-.985.334a.5.5 0 00-.094.249c-.01.201-.01.4-.011.61 0 .492-.001 1-.147 1.525-.057.203-.019.46.022.732.026.18.054.364.058.552.005.288-.016.57-.037.843-.007.102-.015.203-.02.303.014.093.032.185.049.277.044.234.09.476.102.724.026.547.033 1.127.024 1.88-.005.368-.017.737-.028 1.106a38.448 38.448 0 00-.03 1.629c.006.5.033 1.012.058 1.506.022.435.046.885.055 1.33.01.48.005.966 0 1.436-.005.407-.009.829-.003 1.242.006.48.029.972.05 1.447.012.235.023.47.032.705l.003.076c.006.113.011.23-.002.355-.021.208-.045.443-.022.498.038.033.277.097.435.139.298.079.597.147.914.22.142.032.287.065.434.1l.226.267c.024.381.002.676-.184.875-.183.194-.454.221-.719.221l-1.205-.002-3.497.004zm12.065-2.17a40.978 40.978 0 011.467.025c.432.012.878.024 1.314.024.297 0 .564-.006.817-.017.665-.03 1.345-.091 2.001-.15a43.79 43.79 0 012.071-.155c.955-.041 1.683-.31 2.294-.847.588-.518 1.244-1.165 1.657-2.038l.061-.128c.394-.832.767-1.617.928-2.496.075-.409.178-.815.278-1.208.072-.284.146-.579.208-.867.055-.253.088-.516.12-.771.01-.086.02-.17.032-.254l-.014-.024a.908.908 0 01-.133-.366c-.11-1.286-.222-2.615-.758-3.83l-.128-.293c-.245-.568-.5-1.154-.864-1.615-.534-.674-1.19-1.284-1.826-1.873l-.263-.245a2.677 2.677 0 00-.888-.546c-.414-.152-.85-.281-1.27-.406a26.263 26.263 0 01-1.141-.36c-1.053-.367-2.127-.37-3.264-.372-.447 0-.91-.002-1.366-.027a4.775 4.775 0 00-.266-.008c-.359 0-.727.036-1.118.074-.148.015-.299.03-.452.042v.574a130.128 130.128 0 00.02 3.125c.008.525.017 1.051.018 1.577.002.726-.006 1.464-.014 2.177l-.009.827c-.008.968-.018 1.936-.028 2.904l-.007.493c-.003.24-.007.48-.008.721-.002.389 0 .778.002 1.166v.1l.01 1.221c.002.124.01.25.018.375.019.307.038.623-.026.938-.043.211-.032.423-.022.648.006.117.012.235.01.353-.004.41-.003.821-.002 1.252v.282l.541-.001zm-4.791 2.224c-.199 0-.38-.07-.555-.137a3.271 3.271 0 00-.237-.084l-.206-.323c.013-.086.021-.165.03-.241.018-.173.036-.335.085-.498.155-.512.487-.62.738-.62.069 0 .142.009.218.025a.932.932 0 00.198.018c.103 0 .215-.01.324-.02l.045-.005c.366-.035.715-.426.717-.805.004-.581.003-1.162.001-1.743a119.47 119.47 0 01.016-2.795c.016-.759.052-1.528.087-2.272a94.73 94.73 0 00.083-2.086c.03-1.178.034-2.378.038-3.539l.003-.877c.002-.344-.004-.688-.01-1.032-.011-.696-.023-1.415.027-2.124.034-.478-.079-.918-.198-1.383l-.043-.17c-.121-.483-.455-.686-1.232-.752a15.21 15.21 0 00-.442-.028l-.201-.012-.257-.187c-.16-.412-.158-.745.01-.99.106-.156.33-.342.793-.342l.08.001 1.01.045c.982.044 1.996.09 2.992.108.074.002.147.002.221.002.38 0 .77-.017 1.146-.033.342-.015.697-.03 1.048-.034h.183a44.6 44.6 0 011.853.051.386.386 0 01.275.141 1.94 1.94 0 01.601-.088c.23 0 .456.03.675.06.11.014.22.029.329.04.083.008.16.026.228.042.038.01.076.018.115.025.211.035.422.08.634.123.469.097.912.19 1.353.19.684.002 1.26.255 1.815.5.388.171.754.332 1.144.406.317.06.563.309.78.527.056.057.111.113.166.164.618.568 1.318 1.211 1.777 2.06.073.135.174.265.282.403.136.174.277.355.378.57.17.36.304.735.434 1.1.07.195.14.391.216.585.051.13.11.258.17.386.106.232.217.472.287.732.14.527.218 1.074.279 1.545.054.413.091.832.128 1.238.016.186.033.372.052.557a.4.4 0 01.036.177c-.009.23-.012.462-.015.694-.008.543-.016 1.103-.097 1.655a12.143 12.143 0 01-1.149 3.64c-.78 1.57-1.883 2.828-3.37 3.845l-.055.037c-.406.278-.825.565-1.303.717-.102.033-.204.068-.306.103-.402.14-.819.284-1.288.284-.164 0-.327-.019-.485-.055a.606.606 0 00-.135-.013 2.31 2.31 0 00-.429.059c-.16.031-.324.063-.495.07-.718.028-1.448.046-2.154.063-.357.008-.713.016-1.07.026l-.948.026c-1.113.03-2.227.06-3.34.098-.54.018-1.078.04-1.616.063-.8.033-1.628.067-2.444.087h-.02zm50.118-11.758c.213 0 .426.005.64.01.21.004.418.008.628.008.431 0 .76-.02 1.064-.063 1.594-.229 2.924-.982 3.954-2.238.385-.469.54-.844.515-1.254a39.898 39.898 0 01-.019-.349c-.02-.387-.042-.788-.092-1.172-.194-1.483-1.03-2.681-2.63-3.768a.711.711 0 00-.324-.102 94.527 94.527 0 00-2.547-.173 108.36 108.36 0 00-1.79-.076l-.768-.029-.1-.063-.128.11-1.131-.078-.084-.1-.218.097v.03c.001.16.002.315-.002.47-.032 1.057-.063 2.114-.103 3.17-.004.107-.03.203-.052.288-.017.064-.035.13-.032.169.015.23.044.47.073.702.059.478.12.972.066 1.464-.026.238-.038.485-.05.724a8.73 8.73 0 01-.101 1.103l-.135.126c.039.146.075.286.091.436.018.16.014.32.01.474.104.03.202.055.288.057.886.018 1.81.027 2.824.027h.154zm12.808 11.803c-.108 0-.211-.008-.308-.023a7.272 7.272 0 00-2.205-.014.482.482 0 01-.07.006c-.16 0-.298-.077-.409-.138-.046-.026-.093-.053-.127-.065a1.43 1.43 0 00-.19-.047l-.092-.02-.204-.172-.082-.197a15.189 15.189 0 00-.18-.428c-.191-.425-.386-.849-.58-1.272a65.123 65.123 0 01-1.26-2.863c-.373-.928-.973-1.676-1.608-2.468-.112-.14-.224-.279-.335-.42-.307-.39-.663-.723-1.04-1.075-.15-.141-.301-.282-.45-.427-.274-.27-.586-.38-1.076-.38a4.35 4.35 0 00-.277.01l-.27.015c-.797.046-1.62.093-2.433.118-.715.021-1.424.03-2.176.038l-.713.008c.203 2.62.116 5.156-.006 7.734l.519.455.252.003.347.003c.145 0 .289-.003.432-.011.04-.002.078-.004.114-.004.1 0 .409 0 .582.231.178.237.088.545.058.646a2.258 2.258 0 01.032.21l-.19.3c-.29.108-.61.162-.981.162-.259 0-.51-.025-.752-.049a13.68 13.68 0 00-1.338-.078 7.58 7.58 0 00-.756.036c-.253.026-.52.038-.82.038-.418 0-.84-.024-1.25-.048-.157-.01-.315-.018-.472-.026-.28-.014-.52-.284-.601-.472-.077-.179-.011-.4.195-.657.29-.36.682-.536 1.201-.536l.08.001c.231 0 .48-.044.742-.09.06-.012.12-.022.182-.033l.232-7.807a2.458 2.458 0 00-.5-.098 11.545 11.545 0 00-.545-.01l-.425.002a37.94 37.94 0 01-.717.001 258.43 258.43 0 01-1.866-.043c-1.162-.03-2.364-.06-3.545-.062h-.031c-1.188 0-2.4.053-3.57.104l-.573.025c-.511.021-.56.063-.74.642-.073.23-.242.77-.955.771-.028 0-.057 0-.086-.003l-.278-.303.13-4.211.213-.274.43-.123.292.078a.93.93 0 00.047.045c.042.039.099.09.13.18.051.146.1.292.148.438.087.263.177.534.278.793.053.135.163.22.547.22.969-.003 1.946-.02 2.891-.036.793-.014 1.585-.028 2.378-.034.51-.003 1.02-.005 1.53-.005 1.168 0 2.335.008 3.502.016.228.002.453.02.67.04.158.013.316.026.474.033h.001c.04 0 .087-.008.142-.019.02-.864.005-1.74-.01-2.59-.028-1.56-.056-3.172.133-4.757l-.03-.088a1.59 1.59 0 01-.101-.434c-.01-.196 0-.387.009-.572a9.41 9.41 0 00.013-.334c.005-.602-.248-.898-.847-.992a3.26 3.26 0 00-.499-.048l-.078.001c-.441 0-.746-.26-.777-.664a.628.628 0 01.15-.483c.134-.15.347-.235.614-.245.152-.006.303-.01.454-.013l.399-.005a69.08 69.08 0 011.476-.009.578.578 0 01.321.118l.239-.037c.28-.045.57-.092.868-.105a7.06 7.06 0 01.326-.007c.273 0 .546.013.811.025l.302.013c.42.017.839.038 1.258.06l.725.035c.352.017.703.034 1.055.055.165.01.33.024.496.037.296.024.576.047.858.05 1.576.014 2.819.257 3.913.766.433.2.782.537 1.12.862l.12.115c.354.34.606.658.77.973.255.492.457 1.012.652 1.515l.098.252a.51.51 0 01.014.291c0 .004 0 .008-.002.012.032.1.068.198.104.297.09.246.182.5.212.775.071.652.073 1.142.006 1.59-.102.682-.375 1.237-.81 1.65a1.174 1.174 0 01-.037.034c-.007.006-.014.011-.02.018-1.198 1.457-2.79 2.198-4.13 2.667 1.07.424 2.01 1.11 2.793 2.04.258.305.452.652.64.987.163.29.316.562.504.806.674.874 1.192 1.843 1.693 2.78.113.21.225.42.34.63.09.165.177.333.264.5.201.387.391.753.62 1.097.28.42.613.615 1.045.615.037 0 .074-.002.113-.004a.903.903 0 01.09-.004c.235 0 .46.066.657.123.084.024.165.048.242.065l.224.213c.064.248.044.457-.06.619-.1.156-.264.252-.499.293a3.06 3.06 0 01-.53.05zm-26.596.09a3.12 3.12 0 01-.291-.017c-.08-.008-.158-.016-.235-.016l-.043.001a1.928 1.928 0 01-.084.002c-.17 0-.333-.022-.491-.044-.127-.017-.247-.034-.363-.038a5.898 5.898 0 00-.19-.003c-.142 0-.283.004-.425.009a19.99 19.99 0 01-.424.009h-.303l-.961-.002-1.198-.002h-1.666c-.442 0-.885 0-1.327-.002h-.138c-.262 0-.525.003-.788.006-.265.003-.53.007-.795.007-.647 0-1.14-.02-1.601-.067-.873-.088-1.803-.13-3.015-.137-.487-.002-.763-.301-.984-.541a3.953 3.953 0 00-.151-.159l-.061-.337c.222-.47.643-.525.923-.56.066-.01.132-.017.195-.032.373-.086.752-.148 1.12-.208l.345-.057c.116-.02.186-.032.191-.317.016-.937.035-1.875.054-2.813.016-.812.033-1.623.047-2.435.004-.2-.002-.407-.008-.607-.005-.188-.01-.376-.008-.564.003-.303.009-.607.016-.91.01-.457.02-.93.015-1.392a25.2 25.2 0 00-.037-1.033 26.772 26.772 0 01-.038-1.029c-.004-.322.012-.645.026-.957.01-.208.02-.416.025-.624.009-.43.01-.86.01-1.29l.004-1.46c0-.839.002-1.678.012-2.518.003-.306.028-.61.055-.932l.013-.157h-2.215l-.246-.133c-.435-.661-.095-1.142.25-1.487l.208-.086h2.37l1.431.003c.215 0 .43-.003.646-.005.23-.003.46-.006.688-.006.202 0 .404.002.605.008.634.02 1.267.047 1.9.073.728.03 1.482.063 2.223.083h.032c.143 0 .294-.025.454-.05a3.56 3.56 0 01.525-.059h.06c.256 0 .51.021.754.042.134.012.268.023.402.03l.252.016c.293.019.594.038.887.038h.072a.955.955 0 00.095-.064c.046-.033.093-.066.139-.092l.257.047a2.834 2.834 0 011.07-.189c.294 0 .59.032.875.063l.283.03.265.276c.045.799.321 1.498.613 2.239.12.302.243.614.347.93.139.422.29.846.434 1.255l.194.552-.087.321c-.23.196-.453.295-.663.295a.614.614 0 01-.544-.331 4.975 4.975 0 01-.257-.562 6.426 6.426 0 00-.154-.358 5.555 5.555 0 00-.195-.361c-.06-.106-.12-.211-.176-.319-.236-.462-.468-.926-.71-1.407l-.202-.402c-.468-.006-.93-.069-1.379-.129-.459-.062-.933-.126-1.4-.126-.167 0-.322.008-.474.024-.858.09-1.636.133-2.38.133-.449 0-.887-.016-1.304-.05-.594-.046-1.2-.048-1.786-.051a34.98 34.98 0 01-1.27-.022 3.171 3.171 0 01-.212-.016l-.174 1.196v.312c0 .215.002.405-.001.595l-.013.819c-.009.479-.017.958-.019 1.437-.002.844-.002 1.84.016 2.828.012.612.029 1.224.046 1.836.021.74.042 1.503.053 2.255.014.979.011 1.973.009 2.934l-.003.847a457.178 457.178 0 01-.016 3.264 1.334 1.334 0 01-.077.435c.054.141.138.191.376.191.061 0 .127-.004.198-.01a8.24 8.24 0 01.767-.033c.295 0 .594.012.884.023.284.01.577.021.863.021.455 0 .892-.009 1.33-.018.45-.009.917-.018 1.377-.018.22 0 .44.002.66.007.084.002.17.003.255.003.223 0 .447-.006.67-.011.227-.006.454-.012.68-.012.523 0 1.133.027 1.742.214.323-.228.657-.26.922-.26.114 0 .23.007.347.014.107.006.214.013.32.013.127 0 .234-.01.33-.032.319-.495.54-1.061.772-1.659.296-.758.602-1.543 1.138-2.233l.32-.1.6.188.19.378-.363 1.042c-.304.872-.603 1.732-.906 2.592-.053.15-.113.3-.173.45-.102.254-.2.495-.262.742-.136.541-.45.655-.69.655l-.056-.001c-.163 0-.337.037-.52.076-.205.044-.417.09-.642.09-.196 0-.376-.036-.544-.108a1.092 1.092 0 01-.509.111zm-55.852.086c-.593 0-1.185-.066-1.758-.13-.354-.04-.72-.082-1.077-.106-.732-.049-1.463-.246-2.149-.444-.341-.099-.655-.26-.96-.416-.125-.064-.251-.129-.379-.188a8.82 8.82 0 00-.329-.143c-.27-.112-.55-.229-.8-.407a47.012 47.012 0 00-.417-.294c-.631-.44-1.284-.895-1.815-1.468l-.047-.051c-.667-.72-1.357-1.465-1.754-2.426-.14-.34-.249-.692-.353-1.033l-.06-.197a22.863 22.863 0 00-.203-.609c-.176-.515-.359-1.047-.44-1.599-.094-.629-.101-1.271-.108-1.892-.003-.257-.005-.513-.014-.769a11.23 11.23 0 01-.005-.352c0-.157 0-.305-.01-.453-.074-1.168.248-2.26.56-3.316l.042-.143c.159-.539.46-1.024.752-1.493l.12-.193c.75-1.221 1.764-2.322 3.013-3.272.605-.461 1.333-.853 2.289-1.234.97-.387 2.023-.653 3.22-.815.796-.108 1.646-.16 2.597-.16.201 0 .402.002.603.006 1.634.036 3.188.422 4.618 1.148.767.39 1.636.87 2.31 1.66h.3l.159.046c.399.254.636.695.65 1.21.019.663-.334 1.337-.921 1.76l-.435-.107-.05-.101a9.952 9.952 0 00-.135-.263c-.384-.717-.972-1.308-1.799-1.808a12.16 12.16 0 00-3.09-1.32 7.487 7.487 0 00-1.994-.244c-.318 0-.66.014-1.042.044a28.04 28.04 0 00-2.771.339c-.728.13-1.347.555-2.024 1.057-.782.58-1.497 1.235-2.092 1.8-.14.133-.24.342-.346.563-.042.086-.083.172-.127.254-1.053 1.982-1.485 3.57-1.402 5.15.114 2.197.41 4.506 1.778 6.51.635.93 1.323 1.64 2.103 2.172.156.106.323.206.485.303.186.11.378.225.56.353.438.307.928.452 1.528.575a13.044 13.044 0 003.049.256c1.181-.031 2.378-.305 3.658-.838.923-.384 1.714-.896 2.35-1.52.114-.112.24-.191.353-.261.14-.088.262-.164.342-.288.18-.276.435-.479.681-.676.062-.049.124-.098.183-.148.21-.175.424-.335.65-.505.099-.075.199-.15.3-.229l.35-.006c.063.045.127.083.188.12.165.101.334.205.445.378.145.228.176.665-.003.885-.122.151-.238.309-.354.466-.414.56-.842 1.14-1.55 1.477a10.16 10.16 0 01-.1.12c-.523.596-1.187.939-1.879 1.266-.16.075-.311.195-.471.322a6.52 6.52 0 01-.248.19c-.993.71-2.1 1.028-3.244 1.317-.455.114-.939.17-1.48.17z" id="Fill-1" fill="#FFF" mask="url(#mask-2)"/></g></g></g></svg>