<svg width="506" height="9" viewBox="0 0 506 9" version="1.1" xmlns="http://www.w3.org/2000/svg" xmlns:xlink="http://www.w3.org/1999/xlink"><defs><path id="path-1" d="M0 0h505.182v7.026H0z"/></defs><g id="Page-1" stroke="none" stroke-width="1" fill="none" fill-rule="evenodd"><g id="About-Us" transform="translate(-347 -2773)"><g id="Group-3" transform="translate(347 2773.056)"><mask id="mask-2" fill="#fff"><use xlink:href="#path-1"/></mask><path d="M23.426 2.932c8.755-.51 16.902-1.013 25.609-.25C65.454 4.122 81.829 5.49 98.317 5.07c16.029-.409 32.067-.786 48.084-1.576 8.103-.4 16.372-1.456 24.464-.681 8.272.792 16.564 1.826 24.864 2.272 16.899.908 33.95 2.566 50.858 1.697 17.408-.894 34.02-2.315 51.139-2.081 16.406.226 32.819.042 49.226-.063 15.86-.102 31.506-.744 47.335.432 15.908 1.181 31.763.717 47.668-.421 16.44-1.177 32.863-.556 49.732-1.382l12.138-.595c1.484-.073 1.952-2.701.38-2.624-8.092.396-16.203 1.017-24.302 1.191-8.284.178-16.597-.422-24.876-.112C438.21 1.758 422.87 3.783 406 3.324c-8.48-.231-16.925-1.619-25.404-1.873-8.304-.249-16.698.408-25.006.558-16.544.301-33.104.193-49.65.2-7.841.003-15.696-.442-23.534-.301-7.466.133-15.514 1.184-22.628 1.629-7.248.453-15.57 1.288-23.17 1.04-8.175-.267-16.35-.845-24.52-1.272-8.083-.423-16.152-.771-24.21-1.534-8.104-.768-16.275-2.113-24.417-1.691-16.588.86-33.167 1.623-49.77 2.155-16.818.539-33.26.675-50.063-.42C55.7 1.298 47.572-.108 39.635.093c-8.646.219-17.086 1.508-25.633 1.531-4.457.013-8.915.021-13.372.031-.685.001-.908 1.2-.175 1.208 7.642.088 15.339.513 22.97.069z" id="Fill-1" fill="#BFB047" mask="url(#mask-2)"/></g></g></g></svg>