<svg width="406" height="302" viewBox="0 0 406 302" version="1.1" xmlns="http://www.w3.org/2000/svg" xmlns:xlink="http://www.w3.org/1999/xlink"><defs><path id="path-1" d="M0 0h404.755v301.63H0z"/></defs><g id="Page-1" stroke="none" stroke-width="1" fill="none" fill-rule="evenodd"><g id="Home-Logo-1---d-Copy-15" transform="translate(-397 -204)"><g id="Group-3" transform="translate(397.5 204)"><mask id="mask-2" fill="#fff"><use xlink:href="#path-1"/></mask><path d="M361.108 236.637c1.413-.037 2.822-.187 4.234-.246 1.64-.069 3.282-.15 4.92-.116 1.31.028 2.616.312 3.926.327 3.354.038 6.71-.071 10.062-.009 3.252.06 6.5.261 9.98.41l1.098-2.264c-.8-.397-1.483-1.026-1.899-.882-.899.31-1.645.05-2.492-.004-3.75-.243-7.511-.327-11.27-.418-2.642-.065-5.286-.052-7.93-.068-2.072-.014-4.145-.026-6.218-.029-2.074-.002-4.148.022-6.222.01-2.395-.014-4.848-.391-7.166.016-2.09.367-4.064.077-6.092.045-2.707-.043-5.482-.607-7.564.725-1.552-.18-2.712-.411-3.874-.43-2.169-.034-4.34.082-6.508.085-2.892.003-5.784-.089-8.676-.053-2.959.036-5.916.185-8.875.268-1.337.038-2.678-.015-4.013.066-1.208.074-2.408.275-3.572.416-.037 2.492.093 2.656 2.169 2.582 2.644-.094 5.286-.253 7.93-.343.884-.03 1.77.081 2.655.1 3.345.073 6.691.115 10.036.207 1.568.043 3.134.254 4.7.238 1.375-.014 2.75-.373 4.12-.341 3.108.07 6.212.293 9.32.438.387.018.783-.044 1.171-.102 1.093-.16 2.185-.485 3.275-.477 2.037.014 4.011-.604 6.127-.208 1.115.208 2.777.649 3.736-.848.72 1.244 1.878.932 2.912.905M307.092 9.114c.105 6.51.191 13.022.23 19.533.032 5.518.012 11.036-.03 16.554-.029 3.96-.11 7.92-.21 11.878-.04 1.536-1.776 2.932-3.286 2.882a28.137 28.137 0 00-4.113.158c-.578.066-1.498.136-1.248 1.346 1.263.123 2.502.339 3.742.346 3.88.02 7.762-.02 11.643-.08 1.133-.016 2.263-.212 3.397-.255 1.245-.047 2.493-.01 4.18-.01-.355-.755-.457-1.388-.826-1.672-.933-.718-4.332-.459-5.238.194-2.187-1.184-2.613-3.276-2.747-5.091.195-.804.41-1.303.42-1.806.024-1.335-.102-2.674-.056-4.007.076-2.274.22-4.547.371-6.82.06-.884.432-1.799.288-2.636-.427-2.48-.293-4.993-.649-7.491-.375-2.633.09-5.382.14-8.081.066-3.54.11-7.08.114-10.621.002-2.118-.142-4.237-.122-6.356.01-1.038.246-2.074.384-3.14 1.028-.32 2.061-.548 3.275-.44 1.717.151 3.525-.043 4.91-1.207L318.826.484l.112 1.518c-1.268-1.409-2.6-1.367-4.05-1.196-1.612.191-3.298-.084-4.873.233-2.58.52-3.299.47-5.215.425-1.978-.044-4.077-.17-5.945.87.465 1.214 1.975 1.438 6.464 1.058 1.633 1.686 1.741 3.71 1.774 5.722M87.525 297.434c-2.134-.567-2.147-.622-1.914-2.891.04-.39.006-.789-.009-1.183-.084-2.188-.22-4.375-.249-6.563-.037-2.71.066-5.422.01-8.13-.06-2.877-.31-5.75-.341-8.627-.03-2.777.138-5.555.173-8.334a93.81 93.81 0 00-.072-5.656c-.048-1.008-.301-2.006-.466-3.038.063-1.122.2-2.318.178-3.512-.025-1.396-.561-2.892-.21-4.159.59-2.118.338-4.197.45-6.295.029-.528.349-1.282.763-1.5 1.237-.653 2.5-1.3 4.04-1.073 1.806.268 2.87-.765 2.799-2.504-2.897-1.904-4.739-2.087-6-.733-.734-.218-1.392-.575-2.054-.581a114.68 114.68 0 00-7.325.133 50.74 50.74 0 00-5.65.634c-.498.083-1.249.682-1.27 1.078-.029.502.467 1.157.915 1.537 1.16.987 2.618 1.028 4.073 1.122.95.062 1.884.392 2.589.55.758 2.457-.35 4.667.667 6.703-.99 2.991-.2 6.064-.397 9.094-.14 2.147-.011 4.312-.03 6.468-.014 1.54-.12 3.083-.095 4.622.016.926.301 1.85.295 2.773-.012 1.544-.24 3.087-.237 4.629.013 5.752.124 11.503.115 17.255-.003 2.316-.222 4.632-.326 6.62-2.036 2.061-4.72.989-6.741 2.138v2.255c.487.15 1.04.439 1.607.47 1.445.08 2.896.056 4.345.056 4.199.001 8.398-.017 12.598-.002 1.644.005 2.017-.375 1.89-2.379-1.422-.334-2.78-.621-4.121-.977M217.41 36.067c-.026-.755.092-1.698-.302-2.215-.533-.698-.405-1.203-.287-1.916.084-.502-.24-1.073-.388-1.612-.067-.246-.286-.571-.199-.72.724-1.224.49-2.584.576-3.885.142-2.14.031-4.304.298-6.425.371-2.952.171-5.852-.055-8.796-.15-1.932-.273-4.077 1.443-5.656.77-.709 1.458-1.507 1.995-2.07l2.904-.438c.435-1.853-.055-2.406-1.827-2.327-1.497.067-2.994.154-4.492.178-2.157.036-4.316-.01-6.472.05-.66.02-1.378.528-1.957.378-2.237-.577-4.429.156-6.645.062-1.492-.063-1.922.976-1.152 2.383 1.54 0 3.106-.105 4.649.034 1.241.112 2.777-.437 3.572 1.131 1.286 2.537 2.756 5.013 2.124 8.08-.168.81-.086 1.686-.025 2.525.243 3.336.748 6.67.735 10.003-.019 4.856-.438 9.71-.614 14.567-.118 3.253-.113 6.51-.154 9.767-.056 4.49.02 8.988-.194 13.471-.165 3.435-.257 6.86-.21 10.298.024 1.764.186 3.603-1.088 4.896-1.613 1.256-4.438-.635-5.059 2.3-.72.194-1.354.364-2.125.573 1.363 0 2.595.13 3.789-.03 2.04-.274 4.052-.721 6.139-.48.685.08 1.399-.055 2.097-.12.762-.07 1.531-.298 2.28-.237 1.764.145 3.515.43 5.275.635.84.1 1.601.02 1.721-1.254-.466-.183-.965-.55-1.449-.532-1.08.04-1.68-.551-2.355-1.248-1.34-1.382-1.448-2.992-1.6-4.833-.311-3.748.02-7.438.301-11.14.132-1.734-.198-3.437-.18-5.167.02-1.898-.445-3.836-.131-5.79.069-.43.155-1.177-.035-1.28-1.254-.675-.42-1.723-.284-2.371.237-1.117-.109-1.52-.904-1.643 1.25-1.813.827-3.453-.251-5.103l.547-.263c0-1.387.03-2.585-.01-3.78m138.77 235.436c.432 1.468.77 3.478 1.617 5.244.845 1.762 2.363 3.14 3.843 4.456.789.702 1.532 1.517 2.444 2.002 2.083 1.105 4.416 1.226 6.714 1.173 3.532-.08 6.337-1.808 8.69-4.29 1.253-1.32 1.903-2.97 2.14-4.805.568-4.413.022-8.668-1.698-12.763-.374-.89-.868-1.742-1.387-2.56-.542-.856-1.129-1.695-1.794-2.455-.468-.535-1.034-1.135-1.673-1.336-1.245-.393-2.566-.565-3.865-.761-3.308-.502-6.43-.187-9.167 2.02-1.7 1.373-2.862 3.063-3.758 5.051-1.228 2.726-1.843 5.547-2.106 9.024M343.92 259.47c-1.519 1.29-1.745 1.3-2.986.177-1.455-1.317-2.95-2.57-4.807-3.303-.208-.082-.401-.243-.615-.273-2.936-.41-5.868-1.057-8.848-.474-1.957.383-3.27 1.866-4.784 2.999-2.836 2.12-4.237 5.053-4.729 8.47-.121.843-.074 1.722-.014 2.578.25 3.595 1.856 6.62 4.433 9.301 3.027 3.149 6.626 3.907 10.792 3.37 2.06-.266 4.123-.271 6.015-1.31 2.515-1.382 4.158-3.612 5.77-5.855.63-.877.95-1.97 1.506-2.91 1.139-1.92 2.253-3.864 3.54-5.685a183.665 183.665 0 016.118-8.17c2.99-3.77 7.166-5.334 11.759-6.052 3.824-.598 7.351.38 10.621 2.217 2.17 1.217 3.573 3.255 4.64 5.493.434.91.738 1.909 1.307 2.723.65.93 1.025 1.798.989 2.986-.032 1.063.403 2.138.62 3.21.117.575.208 1.155.367 2.048-.087.8-.31 1.962-.316 3.124-.011 1.856-.559 3.49-1.38 5.148-.86 1.74-1.755 3.346-3.412 4.457-2.76 1.85-5.81 3.09-9.065 3.367-2.477.21-5.094.166-7.41-1.182a.856.856 0 00-.324-.091c-4.051-.479-6.172-3.405-8.258-6.43-1.314-1.904-1.8-4.07-2.246-6.264-.055-.267.145-.587.243-.944-1.228-1.176-.926-3.832.01-8.45-1.025 1.713-2.309 3.325-3.025 5.159-1.824 4.675-4.323 8.917-8.195 12.071-2.877 2.343-5.984 4.684-9.974 4.81a25.812 25.812 0 01-5.624-.47c-1.44-.276-2.88-.84-4.168-1.551-1.298-.716-2.42-1.758-3.596-2.685-.95-.749-1.958-1.457-2.763-2.343-.453-.5-.532-1.33-.809-2-.119-.29-.271-.748-.48-.791-1.028-.218-1.103-1.085-1.242-1.807-.49-2.56-1.609-5.066-.812-7.763.235-.797.443-1.605.73-2.384 1.238-3.372 3.344-6.135 6.152-8.328.759-.593 1.775-.961 2.73-1.177 1.603-.362 3.151-.88 4.823-1.112 2.162-.301 4.251.053 6.365-.126.947-.08 1.98.299 2.905.648 1.734.657 3.421 1.433 5.119 2.18 1.456.642 1.73 2.083 2.328 3.394M150 35.914c.543.173 1.012.464 1.467.444 7.243-.322 14.485-.683 21.816-1.04-.082-.76-.046-1.228-.19-1.631-.784-2.192-1.579-4.382-2.434-6.546-.797-2.014-1.682-3.995-2.512-5.996-.185-.448-.178-1.036-.475-1.366-1.97-2.188-2.634-5.008-3.768-7.597-.465-1.06-.813-2.172-1.214-3.26l-.464-.028L150 35.914m33.4 23.473c-.845-1.912-1.66-3.685-2.416-5.484-1.674-3.991-3.33-7.991-4.965-11.998-.252-.617-.354-1.293-.534-1.939-.478-1.719-1.013-1.968-2.828-1.766a291.27 291.27 0 01-9.957.92c-3.662.28-7.33.478-10.995.719-.105.007-.221.146-.305.124-2.676-.73-3.544 1.097-4.4 3.037a718.102 718.102 0 01-5.272 11.702c-.451.976-1.153 1.834-1.65 2.792-.218.418-.21.952-.329 1.558 2.075.149 3.973.613 5.942.158.468-.108 1.035.21 1.637.352l-.53 1.93c-1.096.096-2.221.278-3.345.272-1.606-.007-3.214-.253-4.815-.21-1.59.044-3.172.323-4.759.494-1.083.116-2.165.27-3.25.304-.292.01-.596-.36-.785-.483l-2.847.427-.41-2.133 6.297-.375c1.071-1.038 1.916-1.801 2.689-2.63.383-.412.64-.942.945-1.424.12-.188.169-.516.323-.57 1.321-.469 1.476-1.775 1.983-2.782 2.48-4.924 4.92-9.869 7.329-14.828 1.22-2.514 2.25-5.122 3.53-7.603 1.86-3.61 3.157-7.46 5.107-11.049 1.964-3.614 3.268-7.584 4.925-11.37a80.288 80.288 0 012.834-5.806c.264-.493.932-.769 1.424-1.152l2.679 5.099-.915.475c.075.138.115.31.18.32.882.135 1.183.658 1.492 1.504.679 1.852 1.656 3.594 2.478 5.396 1.015 2.22 1.89 4.51 3.02 6.669 1.351 2.584 2.022 5.48 3.733 7.902.45.639.571 1.526.783 2.314.406 1.514.715 3.055 1.172 4.552.209.685.699 1.278 1.012 1.935.311.652.669 1.309.82 2.003.547 2.53 2.133 4.533 3.279 6.762 1.316 2.564 2.514 5.19 3.7 7.82.644 1.429 1.058 2.967 1.754 4.367.664 1.336 1.887 1.945 3.412 1.877.543-.024 1.088-.004 1.586-.004.362 1.816-.121 2.398-1.637 2.396-1.715-.003-3.431.055-5.146.121-2.774.107-5.547.29-8.322.33-.616.009-1.237-.445-1.839-.911 1.783-1.606 4.161-1.198 6.185-2.114m-12.913 181.7c-.044 3.715-.03 7.43-.043 11.145-.006 1.623-.001 3.247-.036 4.868-.034 1.593-.173 3.186-.154 4.777.024 2.09.21 4.177.23 6.266.022 2.337-.076 4.675-.097 7.013-.01 1.189.07 2.379.05 3.567-.094 5.314-.22 10.63-.307 15.945-.017.96-.274 1.651-1.326 1.83-1.47.249-2.949.459-4.4.795-.973.225-2.19.04-2.79 1.31.845.822 1.46 1.866 2.832 1.874 3.086.016 6.158.108 9.244.419 3.309.333 6.67.144 10.01.16 3.404.017 6.809.003 10.214.006 2.118.002 4.236.017 6.355.012 1.064-.003 2.13-.081 3.19-.044.928.032 1.857.287 2.777.244 1.091-.05 2.266.43 3.272-.377 1.787 1.09 3.569-.097 5.357-.04.719.024 1.076-.53 1.274-1.313.32-1.266.906-2.463 1.343-3.702 1.285-3.644 2.55-7.294 3.856-11.036l-1.823-.572c-2.872 3.697-3.506 8.468-5.95 12.05-2.124.697-4.342-.66-6.21 1.033-3.289-1.167-6.86-.614-10.374-.696-3.382-.08-6.77.083-10.154.089-2.54.003-5.097-.274-7.61-.04-1.508.14-2.406-.09-2.776-1.477.187-.419.285-.855.29-1.291.026-3.305.043-6.61.048-9.914.006-3.824.036-7.65-.018-11.474-.059-4.143-.223-8.285-.3-12.428-.054-2.87-.058-5.742-.05-8.613.007-2.287.067-4.575.097-6.862.01-.856.001-1.711.001-2.81l.665-4.554c.57.057 1.005.122 1.441.14 3.104.126 6.2-.02 9.319.225 3.652.287 7.38.129 11.032-.253 3.615-.378 7.02.767 10.528.696 1.052 2.09 2.026 4.042 3.018 5.987.36.705.796 1.372 1.137 2.086.433.903.736 1.874 1.223 2.744.437.78 1.3.724 2.307-.133-.627-1.797-1.298-3.64-1.913-5.503-1.062-3.22-2.756-6.235-2.96-9.861-2.317-.225-4.491-.646-6.726.392l-.298-.356c-.36.206-.722.584-1.088.589-1.264.017-2.53-.087-3.796-.16-1.211-.071-2.422-.236-3.63-.22-1.039.015-2.078.358-3.11.33-4.177-.114-8.352-.342-12.529-.472-1.953-.061-3.91.007-5.864.01-1.451.001-2.902-.01-4.353-.011-2.327-.003-4.655 0-7.197 0-1.244 1.242-1.447 2.175-.646 3.393h7.694c-.107 1.566-.26 2.89-.276 4.218M61.344 285.07c-.863.721-1.856 1.39-2.449 2.303-.588.906-1.55 1.146-2.236 1.82-2.144 2.104-4.722 3.68-7.424 4.806-3.614 1.505-7.384 2.508-11.437 2.615-3.226.084-6.363-.158-9.466-.795-1.71-.35-3.441-.814-4.977-1.891-1.008-.707-2.124-1.279-3.166-1.989-2.7-1.839-4.826-4.198-6.625-6.833-4.158-6.088-5.187-13.118-5.56-20.242-.302-5.792 1.689-11.074 4.366-16.113.496-.932.877-2.014 1.612-2.711 2.052-1.949 4.167-3.86 6.438-5.541 1.968-1.459 4.05-2.932 6.525-3.374 2.81-.502 5.662-.82 8.51-1.04 3.192-.248 6.378-.227 9.529.635a37.61 37.61 0 019.62 4.11c2.407 1.456 4.439 3.315 5.789 5.834.213.399.41.807.573 1.127 2.92-2.099 3.21-6.05.866-7.541h-1.335c-1.909-2.386-4.451-3.843-7.004-5.14-4.256-2.16-8.872-3.287-13.647-3.392-3.193-.07-6.426.03-9.586.459-3.252.44-6.466 1.183-9.57 2.421-2.411.961-4.708 2.08-6.746 3.631-3.542 2.694-6.595 5.891-8.935 9.7-.966 1.57-2.041 3.168-2.552 4.906-.974 3.312-2.02 6.656-1.796 10.201.052.823.019 1.65.047 2.474.092 2.665-.029 5.363.36 7.984.333 2.237 1.245 4.39 1.923 6.574.381 1.23.738 2.474 1.228 3.662 1.174 2.84 3.286 5.081 5.305 7.26 1.894 2.045 4.348 3.594 6.645 5.233.977.697 2.184 1.072 3.289 1.589 1.308.612 2.568 1.392 3.939 1.788 2.071.598 4.204 1.174 6.34 1.317 4.265.285 8.51 1.314 12.837.223 3.382-.853 6.68-1.803 9.554-3.862.772-.553 1.48-1.238 2.325-1.637 1.996-.943 3.934-1.935 5.42-3.626.184-.209.356-.472.592-.584 2.53-1.203 3.82-3.617 5.473-5.658.273-.337.212-1.233-.05-1.645-.328-.514-1.023-.795-1.685-1.266-1.007.773-1.96 1.458-2.859 2.208M351.984 3.83c3.703-.05 7.423-.356 11.106-.106 5.72.39 11.457-.227 17.164.454 1.784.213 3.59.386 5.38.353 3.11-.057 4.938 1.622 6.053 4.248 1.26 2.969 2.365 6.003 3.581 8.99.3.738.77 1.406 1.2 2.175 2.116-2.335 2.266-2.566 1.38-5.062-1.428-4.025-3.004-7.997-4.569-12.126-2.996-1.098-6.15-1.741-9.458-.84-.035.009-.083-.03-.124-.047-3.03-.819-6.115-.94-9.144-.7l-.526.873-.65-1.041c-2.58 0-5.177-.02-7.775.005-2.491.025-4.985.202-7.472.113-2.467-.087-4.908.289-7.411-.032-2.469-.316-5.028.045-7.546.155-2.576.114-5.15.282-7.645.422-.62 1.812.368 2.077 1.682 2.06 1.727-.02 3.456.084 5.18.133 0 .517-.082.827.013 1.067.696 1.758 1.371 3.506.752 5.449-.06.19.047.435.084.653.393 2.293.502 4.581.19 6.905-.092.677.269 1.415.384 1.95-.138.838-.358 1.567-.36 2.298-.011 2.33.08 4.66.086 6.99.002.95-.177 1.899-.166 2.847.027 2.458.14 4.916.17 7.374.027 2.307-.05 4.616-.005 6.924.045 2.29.193 4.58.277 6.87.03.838.006 1.678.004 2.517-.01 2.782.01 5.565-.046 8.347-.024 1.226-.275 2.448-.29 3.673-.044 3.227-.016 6.456-.016 9.748-1.053.31-1.883.823-2.63.723-1.974-.262-3.38.636-4.757 1.83.32 1.373 1.819 1.393 2.425 1.205 1.806-.56 3.509-.043 5.245-.009 2.223.044 4.437-.121 6.668-.04 2.304.086 4.622-.434 6.94-.515 3.389-.119 6.781-.085 10.172-.109 2.326-.015 4.65-.03 6.976-.023 2.002.007 4.004.081 6.007.063 3.35-.03 6.701-.12 10.053-.161 1.011-.013 2.03.141 3.034.067 1.344-.098 2.77-.377 3.506-1.598 1.235-2.046 2.384-4.165 3.339-6.354.932-2.135 1.612-4.383 2.323-6.607.185-.58.306-1.389.042-1.86-.432-.768-1.272-1.089-2.246-.61-1.115 2.398-2.12 4.9-3.415 7.241-1.302 2.354-2.894 4.548-4.255 6.649-4.46.252-8.531.642-12.606.676-7.076.06-14.154-.133-21.23-.154-2.182-.007-4.363.205-6.544.305-1.455.066-2.502-.44-2.671-1.493-.244-1.521-.357-3.07-.421-4.61-.086-2.027-.07-4.058-.1-6.088a185.5 185.5 0 00.318-6.9c.005-.143-.191-.284-.218-.439a3.09 3.09 0 01-.022-.73c.027-.428.104-.855.11-1.282.013-.937-.061-1.88.002-2.812.123-1.84.77-3.783.37-5.488-.574-2.444.314-4.646.096-7.15 1.429-.09 2.648-.193 3.87-.24 3.575-.14 7.15-.258 10.726-.38 2.074-.07 4.154-.064 6.222-.219 1.395-.104 2.24.577 3 1.579.678.895 1.403 1.757 2.095 2.618l-.651.235c.694.574 1.229.66 1.172-.388-.103-1.892-.278-3.78-.389-5.672-.028-.474 0-.979.135-1.429.304-.999.692-1.973 1.034-2.925l-1.096-1.271c-1.2-.07-1.436.873-1.701 1.518-.61 1.482-1.028 3.039-2.494 3.318-.81-.196-1.272-.338-1.745-.418-2.355-.399-4.699.176-7.072.066-3.947-.184-7.913.04-11.871.067-.505.004-1.01-.135-1.245-.169-.153-1.477-.313-2.662-.39-3.852-.122-1.866-.192-3.735-.27-5.603-.011-.278.066-.558.08-.838.053-.996.185-1.998.127-2.988-.241-4.086-.415-8.166-.197-12.263.137-2.57.026-5.154.026-8.11.834 0 1.737.01 2.64-.002M15.346 44.74c.732-.128 1.375-.325 2.023-.34 3.95-.088 7.894-.03 11.846-.351 3.266-.266 6.562.014 9.845-.39 3.354-.413 6.479-1.37 9.13-3.47 1.067-.845 1.72-2.204 2.765-3.088 1.49-1.26 2.06-2.942 2.457-4.674.626-2.728 1.18-5.488 1.515-8.265.336-2.782.721-5.654-1.092-8.177-.48-.667-1.311-1.22-1.479-1.942-.39-1.677-1.684-2.456-2.831-3.41-2.28-1.897-4.629-3.687-7.631-4.3-1.903-.39-3.82-.712-5.71-1.152-.588-.136-1.11-.56-1.383-.705-.572.14-1.017.372-1.431.326-1.204-.133-2.389-.449-3.593-.564-3.78-.36-7.563-.684-11.348-.972-1.158-.087-2.33-.013-3.34-.013.058 1.314-.001 2.624.195 3.894.38 2.47-.79 5.066.622 7.447.093.158.017.421.006.635-.23 4.133-.488 8.266-.685 12.4-.092 1.92-.034 3.846-.111 5.766-.032.794-.238 1.58-.33 2.149.985 3.068-.23 6.11.56 9.195m17.366 2.63l-.49-1.358c-.2.042-.42.021-.497.116-.71.875-1.28 1.567-2.714.951-.906-.39-2.177.132-3.286.142-3.425.03-6.851.01-10.464.01-.057.38-.208.917-.206 1.453.006 3.336.056 6.673.072 10.01.012 2.442.275 4.927-.084 7.317-.418 2.781.337 5.593-.568 8.353-.468 1.427.326 2.327 1.866 2.58 1.545.255 3.106.412 4.659.62.803.107 1.586.255 1.71 1.599-1.1.297-2.223.732-3.383.88-1.52.194-3.07.158-4.605.225-1.725.075-3.451.231-5.175.216-2.51-.023-5.021-.16-7.531-.267-.329-.014-.653-.143-.958-.214-.341-1.495.282-2.314 1.856-2.186 1.914.154 3.567-.319 4.973-1.587.537-.485.955-1.102 1.278-1.483-.282-.828-.716-1.508-.71-2.183.04-4.148.196-8.295.283-12.442.052-2.511.016-5.025.08-7.537.14-5.628.428-11.256.445-16.884.011-3.69-.442-7.38-.497-11.072-.03-1.903.403-3.808.533-5.718.07-1.04-.084-2.093-.083-3.14 0-.728.004-1.476.164-2.179.546-2.4.525-4.828.075-7.198-.25-1.318-1.072-2.528-1.644-3.805-2.752.073-5.352.14-7.81-.981C4.274.806 8.543.214 13.147.52c.267-.05.821-.253 1.37-.24 4.841.122 9.683.25 14.521.452 1.219.05 2.422.406 3.64.563.977.125 1.98.08 2.946.251 3.842.684 7.698 1.315 11.494 2.201 1.29.302 2.41 1.314 3.623 1.976 1.189.65 2.454 1.18 3.582 1.919 1.818 1.19 2.829 3.089 3.755 4.96.787 1.59 1.29 3.322 1.93 4.986.889 2.31.392 4.68.32 7.032-.01.334-.164.675-.122.996.316 2.35-.469 4.581-1.202 6.663-1.098 3.121-2.721 6.01-5.534 8.143-3.857 2.924-8.242 4.7-12.666 6.434-.69.27-1.535.133-2.307.197-1.657.136-3.312.285-4.97.415-.218.016-.442-.05-.816-.098m77.036 189.981c0 2.807-.015 5.521.005 8.235.022 2.876.104 5.752.111 8.627.008 3.04-.041 6.078-.068 9.118a6962.82 6962.82 0 01-.088 8.823c-.013 1.232-.04 2.464-.045 3.695-.007 1.285.001 2.57.008 3.855.006 1.238.015 2.477.029 3.716.014 1.271.242 2.584-.006 3.8-.226 1.108-.044 2.146-.054 3.212-.019 1.796-.005 3.591-.005 5.566 1.489 0 2.694-.011 3.9.003 3.203.035 6.413.228 9.608.086 4.13-.184 8.243-.75 12.372-.927 2.868-.123 5.362-.894 7.523-2.797 2.122-1.868 4.03-3.892 5.256-6.481 1.251-2.646 2.536-5.265 3.074-8.192.388-2.113 1.02-4.18 1.473-6.282.25-1.16.352-2.35.51-3.454-.169-.375-.449-.732-.48-1.109-.344-4.065-.704-8.136-2.374-11.92-.911-2.065-1.757-4.256-3.133-5.993-1.888-2.385-4.202-4.448-6.439-6.537a9.071 9.071 0 00-3.002-1.846c-2.408-.88-4.916-1.484-7.338-2.33-4.673-1.631-9.535-.994-14.315-1.262-2.076-.117-4.178.237-6.522.394m-13.644-1.73c-.745-1.908-.074-2.903 1.81-2.824 4.06.17 8.12.388 12.183.465 2.452.047 4.908-.177 7.362-.199 2.048-.017 4.096.069 6.142.156.187.008.358.363.59.614 1.616-.807 3.35-.322 5.073-.154.33.032.652.14.98.196 2.063.346 4.124.96 6.187.964 3.269.008 5.775 2.159 8.826 2.738.9.171 1.674 1.178 2.436 1.878 1.965 1.807 3.916 3.62 5.216 6.024.556 1.028 1.489 1.863 1.983 2.912.769 1.633 1.293 3.38 1.953 5.067.434 1.11 1.051 2.163 1.356 3.304.4 1.493.626 3.04.826 4.576.238 1.833.369 3.68.551 5.52.011.11.102.217.098.323-.09 2.35.01 4.728-.331 7.042-.554 3.757-1.689 7.34-3.405 10.794-2.339 4.704-5.669 8.42-9.948 11.343-1.227.839-2.503 1.735-3.892 2.178-1.864.593-3.696 1.48-5.845.99-1.068-.245-2.294.284-3.453.33-3.26.126-6.525.18-9.787.27-4.346.12-8.692.229-13.037.377-4.108.139-8.215.354-12.324.456-.673.016-1.356-.382-2.187-.635.118-.827.133-1.496.32-2.112.263-.87.764-1.43 1.857-1.192.636.14 1.336.057 2-.005 1.555-.148 2.976-1.704 2.988-3.332.031-4.591-.047-9.185.05-13.774.093-4.415.409-8.825.519-13.24.111-4.477.103-8.957.123-13.437.015-3.178-.173-6.369.05-9.53.124-1.787-.35-3.378-.758-5.001-.573-2.286-2.491-2.785-4.534-2.958-.668-.056-1.339-.084-1.978-.123m143.694 1.85c0 .72.017 1.395-.003 2.07-.095 3.208-.19 6.417-.313 9.626-.018.496-.285.993-.254 1.478.138 2.149.657 4.327.428 6.428-.2 1.838-.133 3.685-.451 5.495l-.575.056c.169.714.367 1.3.432 1.902.071.647.016 1.307.016 2.026.576.133 1.166.373 1.76.385 3.008.063 6.018.086 9.027.084 2.42-.003 4.875.194 7.25-.148 5.066-.727 9.307-3.124 12.582-7.116 1.055-1.286 1.87-2.686 1.766-4.432-.093-1.563-.14-3.135-.343-4.684-.714-5.453-4.041-9.13-8.379-12.077-.396-.269-.93-.42-1.414-.459-2.584-.208-5.172-.39-7.761-.529-2.621-.14-5.246-.217-7.785-.32l-.578-1.09-.09 1.236-3.438-.238.065-.563-1.942.87m-5.741 29.895c.24-7.75-.534-15.488.411-23.146-.146-.515-.39-1.03-.419-1.557-.047-.895.06-1.797.069-2.697.02-2.271-1.07-3.552-3.33-3.905-.601-.093-1.215-.17-1.82-.154-.878.024-1.48-.4-1.54-1.193-.07-.899.646-1.216 1.466-1.248a54.67 54.67 0 011.354-.038c1.893-.024 3.785-.065 5.677-.044.289.003.574.294.766.4 1.183-.162 2.397-.42 3.62-.474 1.43-.062 2.868.04 4.302.095 1.707.068 3.415.161 5.122.246 1.363.067 2.727.13 4.09.21 1.387.082 2.773.252 4.16.265 3.986.035 7.897.56 11.523 2.243 1.326.616 2.436 1.77 3.522 2.807.834.796 1.64 1.709 2.166 2.722.878 1.693 1.542 3.5 2.24 5.28.097.25-.126.626.013.852.322 1.031.812 2.044.927 3.098.166 1.522.248 3.101.023 4.604-.25 1.668-.901 3.27-2.19 4.496-.082.077-.175.146-.246.232-3.505 4.264-8.223 6.56-13.33 8.23-.152.05-.278.182-.555.373.402.278.634.522.916.621 3.558 1.24 6.523 3.397 8.91 6.23 1.368 1.622 2.147 3.73 3.45 5.419 2.453 3.179 4.196 6.752 6.1 10.243.9 1.647 1.693 3.365 2.73 4.92.983 1.473 2.347 2.4 4.327 2.252.937-.07 1.91.362 2.754.542.313 1.202-.298 1.544-.985 1.664-.737.129-1.523.196-2.255.083a23.175 23.175 0 00-6.967-.043c-.433.063-.931-.384-1.413-.557-.33-.118-.682-.168-.952-.232-.261-.623-.52-1.276-.807-1.916-1.868-4.175-3.87-8.295-5.575-12.536-1.39-3.458-3.79-6.147-6.03-8.992-1.363-1.732-3.044-3.123-4.602-4.652-1.404-1.377-3.027-1.48-4.793-1.38-2.729.157-5.458.323-8.19.405-3.132.095-6.267.103-9.72.154.729 8.46.422 16.696.039 24.769l2.15 1.888c1.196 0 2.365.052 3.525-.015 1.15-.067 1.759.214 1.38 1.51-.07.241.03.533.063.96-1.635.618-3.32.445-4.914.289-2.172-.214-4.288-.344-6.489-.123-2.503.25-5.06.01-7.59-.114-.38-.019-.882-.503-1.049-.892-.109-.254.221-.777.47-1.087.781-.974 1.793-1.314 3.075-1.29 1.198.023 2.402-.3 3.8-.5l.747-25.184c-.719-.156-1.55-.457-2.392-.496-1.714-.08-3.435.009-5.153-.023-5.486-.104-10.971-.315-16.457-.32-4.242-.003-8.485.212-12.724.391-2.01.085-2.432.556-3.066 2.58-.28.896-.687 1.798-2.257 1.708l.395-12.797 1.304-.374c.19.198.304.263.337.357.437 1.256.82 2.532 1.304 3.77.443 1.133 1.591 1.238 2.524 1.236 5.33-.013 10.66-.171 15.99-.21 5.092-.037 10.185-.003 15.277.033 1.15.008 2.296.173 3.446.22.376.016.758-.111 1.346-.208m8.889-226.96c1.168-.394 1.852-.83 2.526-.816 3.277.071 6.61-.395 9.75 1.125 2.192 1.062 4.563 1.504 7.009 1.67 2.484.169 4.88-.282 7.31-.633 1.788-.258 3.346-.94 4.555-2.19 2.018-2.088 3.935-4.28 5.823-6.49 3.001-3.51 4.994-7.397 4.403-12.233-.307-2.517-1.418-4.717-2.483-6.946a1.764 1.764 0 00-.521-.657 653.21 653.21 0 00-7.097-5.065c-.261-.182-.625-.223-.945-.317-2.133-.621-4.25-1.308-6.405-1.836-1.674-.41-3.393-.826-5.1-.862-1.694-.035-3.404.134-5.111.093-.512-.012-1.028.101-1.538.08-1.671-.068-3.377.014-5.004-.303-2.62-.509-5.195-.128-7.78-.191 0 1.164-.182 2.187.03 3.12 1.04 4.573 1.254 9.229 1.491 13.877.122 2.373-.042 4.76-.073 7.142-.007.614.046 1.233-.004 1.843-.256 3.092-.536 6.182-.836 9.589m73.098 36.282c1.109-.565 2.274-1.043 3.315-1.714 2.426-1.562 4.793-3.217 7.183-4.834 1.62.224 2.528-1.256 4.22-1.904-.696 2.672-2.392 4.258-4.08 5.642-2.177 1.785-4.66 3.198-7.027 4.744-.047.032-.304-.258-.394-.336-.254.303-.43.708-.724.832-2.79 1.176-5.547 2.478-8.429 3.374-1.47.458-3.177.257-4.77.186-2.106-.095-4.26-.122-6.291-.61-1.961-.47-3.791-1.486-5.678-2.266-.567-.234-.183-1.22-1.232-1.245-2.569-.061-4.1-2.211-5.873-3.596-2.962-2.311-5.45-5.22-8.2-7.813-1.774-1.67-3.668-3.21-5.486-4.834-.75-.67-1.42-1.428-2.17-2.1-.614-.551-1.26-1.083-1.95-1.537-1.76-1.159-3.534-2.277-5.031-3.802-.764-.777-1.505-1.54-2.648-2.01-1.086-.446-1.83-1.73-2.718-2.65-.186-.194-.35-.595-.519-.592-1.541.029-2.07-1.291-2.587-2.234-1.027-1.874-2.521-2.509-4.49-2.476h-.57c-1.605-2.798-4.59-1.352-7.05-2.15-.201 1.216-.136 2.133.223 3.212.376 1.133-.055 2.52-.058 3.797-.01 4.646.033 9.292.013 13.938-.01 2.494.28 4.991-.411 7.477-.273.98-.146 2.14.053 3.17.256 1.322.39 2.517-1.141 3.613 1.33.096 2.29.201 3.253.222.813.019 1.628-.09 2.442-.087.888.002 1.574.287 1.418 1.527-1.103.98-2.358 1.208-4.04.817-2.965-.688-6.004-1.003-9.086-.499-1.95.32-3.944.374-6.006.555.226-1.056.222-1.07 2.28-1.591 1.033-.262 2.08-.467 3.023-.676.567-2.159 1.279-4.226 1.617-6.352.287-1.81.138-3.686.195-5.533.024-.838.105-1.675.113-2.514.01-1.08-.048-2.16-.04-3.24.025-3.29.094-6.58.092-9.871 0-1.575-.187-3.151-.174-4.726.015-1.667.216-3.33.248-4.998.059-3.06.015-6.123.092-9.182.037-1.495.276-2.984.37-4.48.047-.762-.035-1.532-.038-2.298-.02-4.864-.181-9.732.01-14.587.095-2.432-.445-4.415-1.975-6.258-.574-.692-1.153-.975-2.004-.964-.958.014-1.94.061-2.87-.122-.857-.169-1.965-.314-1.821-1.62.581-.317 1.057-.635 1.576-.838.336-.131.791-.231 1.103-.11 2.028.783 4.128.347 6.195.44 1.55.069 3.1.114 4.647.22 2.498.17 4.998.331 7.488.586 4.807.494 9.617-.429 14.409.052 1.426.143 2.755-.264 4.154-.196 1.958.096 3.852.157 5.533 1.407.794.591 1.814.87 2.69 1.365.524.297 1.418.251 1.325 1.275-.014.15.519.532.734.489 1.802-.366 2.975.872 4.05 1.83 1.907 1.698 3.827 3.517 5.208 5.634 1.212 1.859 2.094 4.067 2.237 6.403.072 1.167-.012 2.343.038 3.512.201 4.817-1.488 9.073-4.022 13.013-1.232 1.916-2.75 3.664-4.264 5.38-.596.674-1.531 1.05-2.373 1.6l-.41-.717c-.168.073-.337.096-.356.161-.469 1.658-2.073 1.707-3.278 2.16-2.595.975-5.307.46-7.982.274-1.296-.09-2.597-.134-4.204-.214l3.176 3.72-.21.095c.413.137.88.2 1.223.437.242.168.258.63.478.865 1.63 1.748 3.299 3.46 4.927 5.21.757.814 1.419 1.715 2.18 2.524 1.909 2.031 3.823 4.058 5.79 6.032.863.866 1.837 1.626 2.8 2.385 2.074 1.635 4.08 3.382 6.288 4.816 2.608 1.694 5.27 3.435 8.143 4.561 4.02 1.576 8.238 2.259 12.616 1.009 1.686-.481 3.56-.31 5.348-.434l.164.249M79.252 40.216c1.274.604 2.467.542 3.698.582 2.945.098 5.82.959 8.81.87 2.005-.06 4.016.225 6.026.268 1.877.04 3.753-.039 5.612-.368 1.475-.262 3.03-.264 4.423-.746 2.097-.727 4.269-1.506 6.062-2.76 1.597-1.115 2.726-2.904 4.052-4.404.143-.162.274-.373.317-.58.523-2.55 1.057-5.1 1.524-7.66.21-1.156.304-2.335.401-3.507.05-.59.087-1.21-.039-1.778-.38-1.723-.816-3.435-1.286-5.137-.185-.668-.442-1.34-.8-1.93-.427-.707-1.236-1.257-1.455-2-.45-1.52-1.488-2.209-2.84-2.676-.192-.065-.309-.33-.5-.415-1.058-.471-2.09-1.085-3.202-1.332-2.17-.483-4.387-.75-6.582-1.118-1.88-.314-3.745-.74-5.635-.943-2.858-.307-5.793-.175-8.583-.762-2.912-.612-5.749-.316-8.627-.268-.915.014-1.39.368-1.438 1.257-.067 1.224-.15 2.452-.13 3.677.027 1.74.147 3.477.213 5.216.032.866-.11 1.614-1.12 1.401.369 8.437.734 16.784 1.1 25.113m18.293 4.821c1.25.79 2.5 1.58 3.748 2.372.421.267.867.506 1.25.82 1.196.981 2.335 2.033 3.558 2.977 1.135.877 2.463 1.531 3.492 2.509.756.719 1.165 1.802 1.492 2.869.3.092.762.094.87.292 1.023 1.848 2.905 2.757 4.45 3.982 2.658 2.104 5.514 3.961 8.31 5.887 1.127.776 2.305 1.48 3.478 2.186 1.767 1.061 3.513 2.165 5.337 3.119 1.556.813 3.206 1.447 4.821 2.145.411.177.973.172 1.253.458 1.199 1.22 2.853 1.221 4.304 1.763 1.02.38 2.009.847 2.978 1.26.794.153 1.604.304 2.414.466 1.324.263 2.642.555 3.97.796 2.636.478 5.262 1.044 7.918 1.354 1.742.203 3.53-.008 5.295.023.833.015 1.662.161 2.643.264l.097-.398c1.989-.615 3.884-1.366 5.85-1.76a42.004 42.004 0 005.067-1.325c.843-.28 1.503-.669 2.213-1.123 1.263-.81 2.59-1.52 3.888-2.277 1.58-.922 3.182-1.812 4.729-2.787 1.27-.8 1.64-.932 3.012-.459-1.254 1.394-2.265 2.91-3.637 3.953-2.356 1.792-4.837 3.48-7.454 4.85-2.334 1.222-4.918 1.974-7.403 2.904-3.282 1.227-6.749 1.736-10.187 1.914-3.532.182-7.094.749-10.666-.21-2.97-.796-6.073-1.089-9.072-1.797-2.684-.634-5.3-1.555-7.96-2.298-1.048-.294-2.187-.31-3.194-.691-2.225-.844-4.409-1.801-6.58-2.78-2.327-1.05-4.848-1.867-6.864-3.356-2.161-1.597-4.979-2.454-6.345-5.095-.243-.47-.907-.729-1.387-1.07-2.4-1.712-4.128-3.967-5.658-6.474-1.21-1.983-2.91-3.66-4.218-5.591-1.565-2.309-3.706-3.972-5.799-5.715-.455-.38-.815-.874-1.217-1.314-2.035-.066-3.258-2.022-5.265-2.54-1.993-.515-3.969-1.122-6.013-1.43-2.037-.307-4.085-.543-6.266-.828.127 1.3.298 2.494.342 3.694.031.874-.148 1.755-.16 2.633-.018 1.33.099 2.665.03 3.992-.078 1.517-.324 3.025-.447 4.54-.165 2.036-.21 4.084-.447 6.11-.153 1.302.675 2.75-.536 3.903.053 2.802.023 5.611.229 8.402.043.596.942 1.13 1.447 1.692l-.192.314c1.192 0 2.388.057 3.576-.015 1.275-.077 1.975.418 2.192 1.972-1.401.223-2.82.671-4.223.628-3.317-.1-6.627-.422-9.938-.68-1.285-.1-2.577-.203-3.841-.435-.777-.143-1.51-.534-2.386-.86l.776-1.406 7.05.404c-.992-3.207.19-6.223.328-9.294.052-1.161.126-2.328.074-3.488-.222-4.977-.551-9.95-.715-14.928-.114-3.436-.023-6.879-.023-10.414 2.072-1.026.966-2.982 1.107-4.57.112-1.27-.21-2.572-.247-3.861a97.54 97.54 0 01-.018-5.51c.024-.887.23-1.768.39-2.928l.706.771c.2-.783.2-.783-1.058-1.567 0-2.84-.021-5.775.007-8.71.028-2.94.106-5.88.163-8.88-1.128 0-2.446.103-3.738-.034-.992-.104-1.95-.518-2.926-.778-.198-.053-.416-.026-.623-.045-1.068-.1-1.604-.801-1.56-2.328 2.73-.167 5.49-.34 8.252-.497.214-.012.452.17.65.125C75.997.172 79.005.678 81.99.451 86.155.136 90.343.076 94.523.02 96.013 0 97.508.303 99 .467c.335.037.666.117 1 .159 2.732.338 5.457.791 8.2.973 2.335.155 4.034 1.647 6.057 2.442 1.21.475 2.438.905 3.656 1.361.46.173.922.34 1.367.544 2.705 1.243 4.973 3.118 6.277 5.736.943 1.89 1.306 4.108 1.702 6.222.716 3.818.18 7.64-.891 11.282-.714 2.429-1.904 4.864-3.447 6.858-1.361 1.76-3.11 3.365-5.397 4.232-2.18.826-4.16 2.172-6.33 3.031-2.863 1.134-5.912 1.409-8.987 1.342-1.477-.032-2.956-.005-4.434-.005l-.227.394m-80.392 67.734v36.658c1.131 0 2.337-.023 3.542.005 2.887.067 5.776.115 8.66.25 2.793.132 5.583.355 8.373.56.447.033.893.29 1.325.257 1.325-.1 2.653-.478 3.962-.414 4.045.197 7.815-.73 11.24-2.775 2.062-1.23 4.263-2.434 5.439-4.739.536-1.052 1.057-2.111 1.592-3.164a261.1 261.1 0 011.302-2.523c.463-.888-.041-1.813.123-2.787.37-2.182.152-4.508-.125-6.738-.202-1.64-1.057-3.193-1.304-4.833-.5-3.333-3.09-4.786-5.617-5.84-2.392-1-5.148-1.177-7.767-1.558-2.426-.354-4.887-.45-7.322-.75-1.639-.203-3.253-.485-4.917-.193-.468.083-1.023-.06-1.477-.247-.379-.156-.641-.183-1.075-.173-1.77.046-3.549-.236-5.267-.393-3.577.562-7.026-.855-10.687-.603m-.176 39.86l-.438 46.674c.944 1.511 2.292 1.165 3.655 1.109 2.835-.118 5.676-.094 8.514-.089 1.113.003 2.227.181 3.338.157 2.815-.063 5.632-.325 8.44-.258a75.883 75.883 0 006.287-.134c3.013-.178 6.017-.564 9.012-.957 4.234-.555 8.42-1.221 11.513-4.688 1.58-1.773 3.019-3.669 3.688-5.903.892-2.969 1.42-6.05 2.026-9.1.24-1.208.55-2.512.332-3.68-.408-2.184-1.164-4.305-1.808-6.442-.144-.476-.584-.898-.62-1.365-.237-3.034-1.924-5.305-4.041-7.193-1.507-1.342-3.369-2.293-5.11-3.357-.261-.158-.81.169-1.086.018-.428-.234-.735-.688-.962-.916-.564.086-1.114.278-1.64.225-.823-.082-1.626-.36-2.446-.501-2.364-.41-4.726-.846-7.103-1.17-2.002-.273-4.025-.391-6.036-.603-1.525-.161-3.124.067-4.519-.818-1.792.852-3.587.085-5.375-.011-2.833-.153-5.66-.407-8.492-.592-2.337-.153-4.678-.268-7.13-.406m-6.188 19.466c-.371-1.378-.066-3.192.268-5.314-.903-1.08-.43-2.755-.533-4.333 1.179-.448.564-.933.13-1.574-.25-.368-.144-.984-.176-1.489-.048-.75-.135-1.505-.094-2.251.033-.564.24-1.12.614-1.577-.193-.537-.544-1.07-.553-1.61-.063-3.663-.035-7.328-.071-10.99-.036-3.61-.143-7.22-.164-10.83-.023-3.827.021-7.656.031-11.483.006-2.225.001-4.45.001-6.48-.71-.829-1.307-1.53-2.048-2.395-.325-.109-.899-.312-1.48-.491-.37-.115-.773-.328-1.123-.268-2.705.46-2.741.478-4.27-.055.22-.599.442-1.197.717-1.941 2.1.87 4.5-.49 6.322.886 1.622 0 3.079-.027 4.534.005 2.882.062 5.804-.106 8.63.333 1.708.266 3.274-.246 4.943-.073 2.325.243 4.711-.161 7.056-.025 4.776.277 9.56.073 14.342.547 3.648.363 7.059 1.144 10.228 2.962.288.165.575.346.817.57.156.143.229.377.297.498.427.054.918-.035 1.16.17 1.926 1.624 3.957 3.065 5.245 5.414 2.131 3.883 2.65 8.058 2.95 12.327.02.266-.03.55-.107.808-.632 2.084-1.1 4.241-1.975 6.219-.676 1.528-1.798 2.88-2.845 4.213-.788 1.004-1.669 1.996-2.692 2.74-1.843 1.342-3.807 2.523-5.76 3.702-.369.222-.927.126-1.487.186.184.971 1.013 1.099 1.593.993 1.72-.314 3.268.217 4.858.668 1.61.455 3.247.812 4.85 1.285 1.68.495 2.993 1.534 4.375 2.629 1.73 1.37 3.232 2.768 4.138 4.776.021.048.066.1.112.117 1.575.61 2.241 2.004 2.789 3.415.963 2.481 2.044 4.95 2.66 7.522.951 3.966 1.477 7.995-.029 12.018-.636 1.7-.785 3.595-1.51 5.246-1.539 3.507-4.324 5.985-7.319 8.275-1.426 1.09-2.636 2.46-3.99 3.652-.45.397-1.007.772-1.578.921-2.458.642-4.914 1.376-7.42 1.736a69.896 69.896 0 01-8.979.683c-2.257.031-4.521-.526-6.782-.522-3.246.004-6.491.396-9.738.406-2.805.01-5.61-.316-8.418-.432-4.366-.18-8.735-.448-13.1-.409-2.545.023-5.083.604-7.631.855-.543.054-1.119-.23-1.68-.36.166-.542.226-1.151.518-1.614.603-.957 1.475-1.276 2.686-1.26 1.68.022 3.366-.314 5.043-.542 1.011-.137 1.642-.746 1.655-1.791.034-2.823.027-5.645.023-8.467-.006-4.74-.022-9.478-.033-14.217-.003-1.17 0-2.34 0-3.984m208.894-9.527c-.571-.99-1.095-1.714-1.429-2.517-.616-1.482-.797-3.268-1.744-4.46-1.712-2.154-2.044-4.875-3.501-7.118-1.24-1.907-2.108-4.067-3.029-6.163-.47-1.07-.695-2.247-1.135-3.729-.954-.39-1.819-1.38-1.819-2.974 0-.159-.025-.371-.126-.47-1.793-1.76-2.545-4.112-3.593-6.293-.312-.65-.43-1.4-.782-2.021-1.343-2.373-2.206-4.93-3.048-7.503-.085-.26-.479-.42-.787-.674-5.96 15.14-13.322 29.436-19.188 44.538 2.377.106 4.453.294 6.577.24 3.964-.1 7.938.156 11.904.337.796.036 1.578.397 2.482.64.05-.052.239-.415.428-.416 6.145-.03 12.29-.024 18.435-.024l.355-1.393M95.338 114.322l-8.565-.521c-.508-1.183-.508-1.183.217-3.724 2.313-.049 4.71-.289 7.077-.11 4.966.372 9.92.161 14.881.064 2.374-.046 4.753.125 7.13.174.306.006.62-.117.923-.204.32-.092.625-.244.948-.314 1.22-.264 2.351.522 3.674.124 1.245-.374 2.662-.212 4.004-.208.566.002 1.322.492 1.665.266 1.896-1.253 3.903-.09 5.83-.416 1.376-.233 2.8-.2 4.204-.228 1.162-.023 2.326.023 3.489.064 3.291.114 6.582.227 9.872.37.836.037 1.666.223 2.502.27 1.645.093 1.095 1.367 1.523 2.167.417 1.048.873 2.083 1.241 3.148.553 1.598.844 3.318 1.6 4.806 1.495 2.941 2.196 6.067 2.74 9.268.196 1.147.526 2.272.84 3.599l-.811 1.276c-.555-.378-1.407-.639-1.62-1.16-.79-1.942-1.923-3.826-1.63-6.072.025-.188-.067-.402-.138-.591-.36-.971-.705-1.95-1.106-2.905-.823-1.96-1.494-3.916-2.77-5.758-1.476-2.133-2.79-2.914-5.438-2.886-5.256.055-10.519-.53-15.779-.84-2.793-.165-5.588-.419-8.383-.424-2.835-.005-5.67.288-8.507.373-2.52.076-5.046.006-7.567.079-1.455.042-2.906.242-4.667.398 0 1.39.018 2.683-.004 3.976-.063 3.715-.143 7.43-.216 11.145-.01.598-.052 1.198-.017 1.794.102 1.704.315 3.404.34 5.108.03 2.17-.12 4.342-.123 6.514-.004 2.276.098 4.552.1 6.828.002.987-.131 1.973-.23 3.323 1.872 0 3.541.037 5.208-.007 4.622-.122 9.242-.322 13.865-.4 2.38-.042 4.766.073 7.148.183 1.534.07 2.13-.31 2.726-1.634.513-1.14 1.208-2.2 1.823-3.295 1.27.408 1.7 1.054 1.727 2.079.059 2.179.218 4.355.249 6.533.018 1.374-.083 2.754-.215 4.124-.042.44-.352.854-.548 1.297-2.131-.41-1.403-2.111-1.848-3.344-1.615-.01-1.561-1.503-2.056-2.7-9.322.472-18.677-.648-27.95 1.032-.999 3.055-.437 6.36-.552 9.571-.106 2.963-.02 5.973-.124 8.968-.048 1.37.21 2.748.27 4.125.1 2.284.437 4.606.147 6.844-.286 2.217-.038 4.388-.1 6.576-.076 2.701.04 5.409.075 8.406 1.746.031 3.238.104 4.727.073 2.798-.057 5.595-.235 8.392-.25 3.602-.02 7.205.126 10.806.09 1.531-.015 3.059-.328 4.592-.47 1.315-.12 2.64-.143 3.951-.29 3.018-.337 6.053-.598 9.04-1.12 4.556-.794 8.879-2.336 12.824-4.788.84-.523 1.55-1.308 2.206-2.07 4.793-5.579 9.244-11.397 11.617-18.477 1.018-3.036 2.296-5.927 3.655-8.818 1.397-2.97 2.428-6.114 3.613-9.183.081-.208.047-.486.173-.648 1.737-2.254 2.105-5.116 3.387-7.586 1.183-2.282 1.907-4.798 2.898-7.184.883-2.124 1.806-4.244 2.707-6.347.714-1.666 1.57-3.308 2.21-5.03.81-2.182 1.9-4.26 2.846-6.394 1.063-2.395 2.036-4.832 3.167-7.193 1.277-2.666 2.672-5.276 4.055-7.89.156-.294.563-.455.957-.757.932 1.626 2.43 2.673 2.732 4.569.096.608 1 1.043 1.287 1.67 1.652 3.613 3.226 7.26 4.831 10.894.875 1.98 1.798 3.938 2.63 5.934 1.07 2.568 1.984 5.203 3.12 7.74 1.588 3.548 3.32 7.033 4.99 10.545.12.254.284.495.36.762.688 2.433 2.002 4.603 2.905 6.95 1.12 2.912 2.476 5.737 3.816 8.559 1.669 3.511 3.447 6.97 5.125 10.478.352.734.387 1.617.718 2.365.534 1.21 1.205 2.362 1.796 3.549 1.044 2.097 2.134 4.175 3.084 6.314.681 1.533 1.074 3.196 1.774 4.717.417.908 1.276 1.604 1.764 2.49.592 1.075.91 2.3 1.509 3.37 1.218 2.179 3.354 3.362 5.358 4.67 1.458-.446 2.77 1.576 4.206.022l.952 1.801c-2.474.605-4.76.662-7.095.061-.522.823-2.499.935-3.593.165-1.282 1.24-2.795-.045-4.286.397-1.598.475-3.514-.154-5.293-.238-1.694-.079-3.359-.224-4.95-.924.162-1.62 1.215-1.702 2.303-1.715 1.112-.013 2.228.043 3.335-.033.582-.04 1.15-.297 1.572-.414 1.15-2.43-1.387-4.104-.912-6.346-.433-.396-1.427-.62-.897-1.685-1.283-.908-1.01-2.619-1.917-3.725-.138-.17-.223-.396-.287-.61-1.052-3.477-3.44-6.298-4.725-9.663-.406-1.064-.616-2.134-.804-3.258-.206-1.225-1.244-2.292-1.821-3.475-.852-1.748-1.618-3.537-2.434-5.34-2.337 0-4.628-.01-6.92.003-1.71.01-3.419.061-5.128.067-1.003.004-2.007-.061-3.01-.067-3.551-.023-7.103-.08-10.653-.036-2.99.037-5.976.205-8.965.297-.71.021-1.424-.075-2.134-.045-1.607.07-3.21.222-4.818.258-.614.014-1.234-.197-2.201-.368-.29.625-.678 1.45-1.059 2.28-1.841 4.017-3.524 8.117-5.568 12.027-1.873 3.585-3.693 7.25-6.662 10.151-1.88 1.838-3.5 3.972-5.519 5.631-2.979 2.45-6.386 4.275-10.138 5.301-1.152.315-2.4.298-3.606.389-2.636.198-5.272.402-7.91.54-2.072.11-4.147.148-6.222.176-4.541.06-9.084.098-13.626.139-2.995.027-5.99.021-8.985.071-3.174.053-6.346.216-9.519.218-3.34.002-6.682-.153-10.023-.191-.9-.01-1.55-.237-1.79-1.206.163-1.295 1.211-1.045 2.054-1.065 1.59-.039 3.179-.011 4.522-.011.491-.586.732-1.057 1.117-1.301 1.326-.84 1.538-2.188 1.576-3.525.08-2.8.028-5.607.022-8.41-.012-5.096-.013-10.19-.055-15.285-.02-2.565-.175-5.129-.169-7.693.008-2.984.155-5.968.185-8.953.015-1.5-.146-3.002-.137-4.502.029-4.342.124-8.683.152-13.024.02-3.205-.043-6.41-.036-9.615.007-2.874.046-5.749.096-8.623.038-2.284.171-4.574-.921-7.023m177.55 42.908c1.934.16 3.803.222 5.642.49 2.532.37 5.105.504 7.541 1.475 1.497.596 3.08 1.131 4.668 1.31 2.427.274 4.889.285 7.342.192.362-.015.737.298.986.407.52-.207.95-.448 1.412-.55 1.854-.411 3.73-.729 5.573-1.179 1.586-.386 3.117-1.02 4.713-1.344 3.557-.724 5.533-3.544 7.944-5.794.189-.177.25-.493.362-.748.889-2.035 1.775-4.064 3.344-5.71.278-.292.395-.788.472-1.211.336-1.846.494-3.735.97-5.54.785-2.976.339-5.929-.287-8.766-.686-3.112-2.874-5.534-5.225-7.588-1.862-1.626-4.012-2.947-6.132-4.243-1.41-.863-2.984-1.47-4.505-2.141-.798-.353-1.621-.754-2.468-.864-3.334-.43-6.677-.837-10.029-1.096-3.733-.29-7.478-.479-11.222-.584-3.373-.096-6.75-.021-10.222-.021-.155.442-.41.852-.426 1.27-.048 1.262.106 2.537-.018 3.788-.299 3.038-.655 6.039-.23 9.124.292 2.11-.004 4.298.02 6.45.012 1.116.212 2.23.21 3.344-.002 2-.73 3.962-.232 6.007.108.449-.312 1.027-.385 1.244.542 4.13.17 8.017.183 12.278m-.024 3.57c-.089 1.68-.227 3.25-.242 4.822-.021 2.258.842 4.412.239 6.801-.486 1.924-.097 4.074-.068 6.123.067 4.785.133 9.571.236 14.356.054 2.498.197 4.994.276 7.491.026.795.251 1.333 1.055 1.717.618.295 1.07.935 1.597 1.422 1.026-1.101 4.705-1.218 6.77-.15.014.909-.409 1.426-1.365 1.491-3.125.214-6.249.47-9.378.607-.676.03-1.372-.375-2.145-.604-1.91.746-4.04.223-6.125.292-2.043.067-4.09.015-6.323.015l-.694-1.758 3.564-1.177c1.538 1.735 2.29 1.712 2.85.04.491 0 .995-.026 1.495.009.416.029.827.13 1.367.22l-.337-1.287c1.316-.6 1.124-1.746 1.068-2.938-.101-2.107.33-4.322-.188-6.302-.447-1.713.068-3.218.07-4.801.003-1.33-.147-2.644-.134-3.963.005-.515.285-1.026.498-1.736 0-.838.087-1.943-.02-3.028-.157-1.61-.588-3.199-.655-4.806-.095-2.28.07-4.569.058-6.853-.006-1.227-.255-2.459-.204-3.68.107-2.61.324-5.215.54-7.819.022-.257.347-.488.423-.588-.21-.593-.547-1.116-.557-1.645-.043-2.242-.149-4.503.067-6.728.297-3.035-.012-6.06.115-9.09.146-3.506.09-7.02.129-10.531.042-3.657.097-7.313.136-10.97.004-.443-.06-.887-.098-1.378-2.685-.845-5.309-.556-7.943-.05-2.05-1.283-2.118-1.506-.84-2.798l-.552-.036-.1-.28c.513-.17 1.029-.497 1.537-.488 4.323.077 8.643.25 12.966.325 3.278.056 6.561.082 9.837-.03 1.143-.04 2.184.466 3.404.18 1.124-.264 2.399.205 3.608.201 2.442-.006 4.883-.14 7.326-.174 1.85-.026 3.606.356 5.25 1.542l.401-.787c2.014 0 4.025-.106 6.02.028 2.41.16 4.744.652 6.948 1.8 2.34 1.22 4.375 2.872 6.58 4.248 2.983 1.863 4.754 4.673 6.547 7.39 1.656 2.509 3.227 5.262 3.662 8.339.286 2.02.107 4.105.128 6.162.022 2.035-.132 4.008-1.46 5.726-.272.353-.116 1.016-.217 1.523-.525 2.632-2.897 4.133-3.964 6.412-.92 1.967-2.43 3.458-3.85 4.97-.942 1.007-2.433 1.545-3.744 2.15-1.294.597-2.66 1.047-4.013 1.503-1.286.433-2.58.871-3.903 1.16-2.039.447-4.094.847-6.162 1.114-1.273.164-2.583.048-3.877.053-.989.004-1.977 0-3.135.3.447.306.903.599 1.338.92 2.114 1.557 4.243 3.097 6.323 4.701.656.505 1.158 1.206 1.757 1.79 1.3 1.267 2.617 2.516 3.926 3.773.724.696 1.47 1.372 2.162 2.099.463.486.678 1.16 1.497 1.356.312.075.458.834.82 1.056.923.76 1.852 1.511 2.766 2.283.547.462 1.084.938 1.597 1.437.873.85 1.7 1.75 2.59 2.58.848.79 1.753 1.52 2.635 2.273 1.235 1.053 2.436 2.152 3.72 3.143 1.32 1.02 2.83 1.813 4.056 2.926 1.022.929 2.517 1.186 3.161 2.283.62.181 1.15.235 1.572.476 2.185 1.25 4.244 2.776 6.536 3.77 2.85 1.237 5.865 2.145 9.034 2.256 3.407.12 6.817.342 10.222.285 2.368-.039 4.734-.44 7.092-.741 2.16-.277 4.305-.655 6.461-.958a30.507 30.507 0 0011.791-4.213c3.389-2.066 5.365-5.203 7.197-8.52.082-.148.133-.335.255-.434 1.72-1.39 1.801-3.524 2.106-5.387.349-2.138.056-4.382.028-6.58a1.205 1.205 0 00-.176-.574c-.904-1.513-.908-1.511-.446-3.312-1.833-4.225-4.968-7.296-9.093-9.334-2.65-1.312-5.535-2.18-8.1-3.629-2.82-1.592-6.023-1.724-8.917-2.897-1.757-.712-3.424-1.646-5.138-2.466-.341-.163-.718-.392-1.069-.375-2.648.124-4.889-1.196-7.257-2.037-.384-.136-.616-.698-1.008-1.172-.682.586-1.494.2-2.4-.369-1.893-1.189-3.897-2.198-5.78-3.4-.913-.584-1.658-1.432-2.473-2.168-.08-.071-.093-.26-.17-.283-2.843-.844-3.35-3.684-4.87-5.66-1.149-1.493-1.193-3.25-1.594-4.986-.829-3.584.154-6.852 1.008-10.164.572-2.22 1.633-4.203 3.538-5.711 2.056-1.628 3.941-3.47 5.9-5.22l-.36-.299c1.776-.65 3.542-1.322 5.328-1.941 2.237-.776 4.508-1.191 6.918-1.157 1.798.026 3.611-.45 5.403-.781 1.028-.191 1.903-.118 2.388.538 1.043.055 1.9.037 2.736.156 1.771.253 3.563.458 5.289.903 2.004.517 3.96 1.236 5.913 1.933 1.52.542 3.005 1.186 4.505 1.784.2.08.44.117.595.25 2.509 2.151 5.906 1.643 7.635-1.152.622-1.006.794-1.114 2.416-1.47.103.878.336 1.754.281 2.61-.124 1.95-.423 3.886-.585 5.834a54.03 54.03 0 00-.212 4.582c.004 1.638-.31 3.274.038 4.928.066.311-.591.775-.915 1.169-.376-.338-1.08-.682-1.074-1.012.036-2.045-1.338-3.275-2.499-4.61-1.688-1.943-3.28-4.028-5.242-5.658-1.688-1.403-3.757-2.437-5.795-3.313-4.384-1.883-9.086-2.35-13.8-2.597-2.916-.151-5.842-.358-8.755-.269-3.647.113-6.764 1.67-9.456 4.118a23.362 23.362 0 00-4.96 6.429c-.475.902-.493 2.058-.66 3.108-.13.824-.043 1.697-.267 2.488-1.471 5.2 2.853 10.946 7.063 12.477 3.4 1.237 6.695 2.763 10.077 4.052 3.114 1.186 6.285 2.217 9.424 3.336.792.283 1.587.585 2.33.973 1.393.728 2.8 1.238 4.398 1.473 2.187.32 4.338.968 6.463 1.614 2.402.73 4.757 1.613 7.224 2.46l.215 1.588c.44-.414.754-.712 1.314-1.241 1.602 1.426 3.357 2.743 4.801 4.342 1.487 1.645 2.741 3.517 3.97 5.374 1.751 2.645 2.346 5.637 2.38 8.78.024 2.138.125 4.278.251 6.414.117 1.966.067 4.058-1.01 5.607-1.402 2.017-2.005 4.53-4.043 6.175-1.055.85-1.744 2.153-2.607 3.245-.17.216-.357.436-.58.592-1.647 1.146-3.21 2.46-4.983 3.365-2.483 1.269-5.123 2.234-7.7 3.317-1.001.42-2.026.78-3.019 1.218-3.607 1.588-7.463 1.79-11.305 2.222-1.99.224-4 .317-5.995.602-2.05.294-4.203.009-6.299-.162-2.66-.217-5.326-.468-7.958-.895-3.582-.583-7.096-1.457-10.432-2.972-3.081-1.4-6.268-2.575-9.305-4.061-1.94-.949-3.689-2.284-5.526-3.441-1.15-.724-2.312-1.43-3.459-2.16-1.992-1.269-4.008-2.589-5.281-4.603-1.481-2.34-4.09-3.385-5.775-5.452a111.445 111.445 0 00-3.209-3.782c-.323-.362-.804-.58-1.207-.872-2.232-1.615-3.88-3.781-5.618-5.873-.888-1.07-2.024-1.932-2.912-3-2.772-3.336-6.461-5.27-10.227-7.235-3.516-1.833-7.31-1.907-11.023-2.585-.657-.12-1.323-.19-2.373-.338" id="Fill-1" fill="#FFF" mask="url(#mask-2)"/></g></g></g></svg>