<?xml version="1.0" encoding="UTF-8"?>
<svg width="406px" height="302px" viewBox="0 0 406 302" version="1.1" xmlns="http://www.w3.org/2000/svg" xmlns:xlink="http://www.w3.org/1999/xlink">
    <title>Group 3</title>
    <defs>
        <polygon id="path-1" points="6.21399177e-05 0 404.754568 0 404.754568 301.630757 6.21399177e-05 301.630757"></polygon>
    </defs>
    <g id="Page-1" stroke="none" stroke-width="1" fill="none" fill-rule="evenodd">
        <g id="Home-Logo-1---d-Copy-15" transform="translate(-397.000000, -204.000000)">
            <g id="Group-3" transform="translate(397.500000, 204.000000)">
                <mask id="mask-2" fill="white">
                    <use xlink:href="#path-1"></use>
                </mask>
                <g id="Clip-2"></g>
                <path d="M361.107552,236.637133 C362.520614,236.599849 363.929947,236.450092 365.342387,236.391059 C366.981638,236.322084 368.623996,236.240681 370.262005,236.275479 C371.572535,236.303442 372.878095,236.5868 374.188005,236.601714 C377.541696,236.639619 380.897251,236.530874 384.250321,236.593014 C387.502103,236.653911 390.750778,236.854002 394.230614,237.003137 C394.547527,236.348804 394.911046,235.598775 395.328005,234.73938 C394.528885,234.342306 393.844725,233.712829 393.429009,233.856993 C392.530465,234.167693 391.783544,233.907948 390.937198,233.853265 C387.187054,233.609677 383.425725,233.526409 379.667502,233.435063 C377.025313,233.370438 374.38126,233.383487 371.737828,233.366709 C369.66484,233.353039 367.592474,233.340611 365.519486,233.338125 C363.445256,233.33564 361.371025,233.359874 359.296795,233.348067 C356.901922,233.334397 354.448638,232.956586 352.131441,233.363602 C350.041675,233.731471 348.066869,233.440656 346.039243,233.408965 C343.332428,233.366088 340.556638,232.802479 338.474951,234.134137 C336.922696,233.953932 335.763165,233.722771 334.600527,233.704129 C332.432465,233.669952 330.261918,233.786154 328.092614,233.789261 C325.201243,233.792368 322.30863,233.700401 319.41726,233.735821 C316.458157,233.772483 313.500918,233.920998 310.542437,234.004265 C309.205186,234.041549 307.863585,233.98873 306.528819,234.070133 C305.320819,234.14408 304.120898,234.345413 302.957017,234.485849 C302.919733,236.978281 303.049605,237.141709 305.1257,237.067763 C307.769753,236.973932 310.411943,236.814853 313.056618,236.724751 C313.939626,236.694302 314.825741,236.806154 315.711235,236.825417 C319.056227,236.8975 322.402461,236.940376 325.746832,237.032343 C327.314622,237.07522 328.881169,237.285874 330.447095,237.270339 C331.82163,237.256047 333.197408,236.896878 334.566972,236.92857 C337.674589,236.999409 340.779099,237.222491 343.886095,237.367277 C344.27447,237.385298 344.670301,237.322537 345.058054,237.265368 C346.151095,237.104426 347.242893,236.780055 348.332828,236.787512 C350.370395,236.802426 352.343959,236.184133 354.460445,236.579965 C355.574614,236.787512 357.237478,237.228705 358.195675,235.732376 C358.916498,236.976417 360.073544,236.664475 361.107552,236.637133 M307.091807,9.11431029 C307.196823,15.6247095 307.283198,22.13573 307.321725,28.647372 C307.354037,34.1647753 307.333531,39.6828 307.292519,45.2008247 C307.263313,49.1603802 307.18191,53.1205572 307.081865,57.0794914 C307.042716,58.6149687 305.305906,60.0112527 303.795906,59.9609193 C302.426342,59.9149358 301.043729,59.9646477 299.683486,60.1193761 C299.104963,60.1852444 298.185293,60.2548412 298.435095,61.4647053 C299.6984,61.5877424 300.936848,61.8039893 302.17654,61.8108247 C306.057177,61.8307095 309.939058,61.7903185 313.819696,61.731907 C314.953128,61.7151292 316.082832,61.5187671 317.216885,61.4758905 C318.461548,61.4292856 319.709939,61.4653267 321.396416,61.4653267 C321.041597,60.7109481 320.940309,60.0783638 320.570577,59.793763 C319.637856,59.0760469 316.239424,59.3351704 315.333424,59.9882609 C313.146099,58.8038741 312.719819,56.7122444 312.585597,54.896516 C312.780716,54.0930469 312.996342,53.5940634 313.005663,53.0913514 C313.029898,51.7559646 312.904375,50.4174708 312.949737,49.0839481 C313.026169,46.8096272 313.169712,44.536549 313.321334,42.2647136 C313.380367,41.3804626 313.752585,40.4651416 313.609042,39.6281169 C313.18214,37.1481128 313.315741,34.6345531 312.960301,32.1365284 C312.584976,29.5036601 313.050404,26.7552115 313.100737,24.0558535 C313.165984,20.5163638 313.210725,16.9756313 313.213832,13.4348988 C313.215696,11.316549 313.071531,9.19757778 313.092037,7.07922798 C313.10198,6.04086996 313.338112,5.00499753 313.476062,3.93929794 C314.503856,3.61927737 315.537243,3.39060247 316.750836,3.49810453 C318.467762,3.65034733 320.276033,3.45584938 321.661753,2.29196872 C320.713498,1.68734733 319.833597,1.12684527 318.825066,0.484318519 C318.861729,0.975845267 318.886585,1.31512922 318.936918,2.00239671 C317.668642,0.593063374 316.336984,0.635318519 314.887881,0.806203292 C313.27535,0.99697284 311.589494,0.721693004 310.014247,1.03922798 C307.434819,1.5587177 306.715239,1.50838436 304.798844,1.46426502 C302.82093,1.41952428 300.722465,1.29338025 298.853918,2.33360247 C299.319346,3.54843786 300.828725,3.77152016 305.317712,3.39246667 C306.951371,5.07832263 307.059494,7.10284115 307.091807,9.11431029 M87.5247576,297.433586 C85.3908728,296.86687 85.3784449,296.811565 85.6114695,294.542837 C85.6512391,294.15322 85.6170621,293.754281 85.6021486,293.360314 C85.5176383,291.172368 85.3821733,288.985043 85.3529675,286.797096 C85.3156835,284.087174 85.4194572,281.375388 85.3629099,278.666709 C85.3026342,275.789631 85.0528317,272.916281 85.0217617,270.039825 C84.992556,267.262792 85.1597123,264.484516 85.1945107,261.70624 C85.2187453,259.820915 85.2125313,257.932483 85.1230498,256.049644 C85.0745807,255.041734 84.8216712,254.043767 84.6570004,253.011623 C84.7197617,251.889998 84.8570909,250.693804 84.835342,249.500096 C84.810486,248.104434 84.2735971,246.608105 84.6259305,245.341072 C85.2143955,243.222722 84.9627288,241.14352 85.0758235,239.045677 C85.1037864,238.518109 85.423807,237.76373 85.8376588,237.545619 C87.075486,236.892528 88.3375477,236.245652 89.8773749,236.473084 C91.6837823,236.740907 92.7488605,235.708142 92.6767782,233.969467 C89.7804366,232.0655 87.9379881,231.881565 86.6765477,233.235594 C85.9432967,233.018105 85.2846136,232.661421 84.6228235,232.654586 C82.1813461,232.62973 79.7355189,232.657072 77.2983914,232.788187 C75.4074737,232.889475 73.5146918,233.10945 71.6473872,233.422014 C71.1496465,233.505281 70.3989963,234.103689 70.3772473,234.49952 C70.3492844,235.001611 70.8451609,235.657187 71.2931897,236.037483 C72.4527206,237.023644 73.9111444,237.065277 75.3658399,237.159109 C76.3165807,237.220627 77.2499222,237.551212 77.9545889,237.709047 C78.7126959,240.166059 77.6047412,242.375755 78.6219716,244.41208 C77.6320827,247.403495 78.4218811,250.475693 78.2248975,253.506257 C78.0857041,255.653191 78.2137123,257.817524 78.1950704,259.973779 C78.1813996,261.514849 78.0745189,263.056541 78.0999963,264.596368 C78.1155313,265.522253 78.4013749,266.445652 78.3945395,267.369051 C78.3827329,268.912607 78.154058,270.455541 78.1577864,271.997853 C78.1714572,277.749524 78.2820663,283.501195 78.2727453,289.252866 C78.2696383,291.569442 78.0509058,293.884775 77.9471321,295.873874 C75.9114284,297.934434 73.2276053,296.861899 71.2055724,298.010866 L71.2055724,300.265923 C71.6927494,300.415059 72.2457947,300.704631 72.8125107,300.736323 C74.2578852,300.816483 75.7088523,300.791627 77.1579551,300.792249 C81.3567494,300.793491 85.556165,300.774849 89.7555807,300.789763 C91.4004243,300.795417 91.7726424,300.415059 91.6452556,298.411047 C90.2241156,298.076734 88.865737,297.789648 87.5247576,297.433586 M217.411478,36.0674996 C217.385379,35.3118782 217.503445,34.3685942 217.108856,33.8515901 C216.576317,33.1537588 216.704326,32.6491827 216.822391,31.9358165 C216.905659,31.4337259 216.581288,30.8626601 216.434017,30.323907 C216.366906,30.0778329 216.147552,29.7528412 216.235169,29.6043267 C216.959099,28.379549 216.724832,27.0199276 216.811206,25.7193391 C216.952885,23.5798617 216.842276,21.414907 217.108856,19.2940716 C217.480453,16.3418041 217.280363,13.4423556 217.053552,10.4975449 C216.904416,8.56623621 216.781379,6.42116626 218.497062,4.84219095 C219.267597,4.13317449 219.954865,3.33467654 220.492375,2.77231029 C221.645692,2.59831852 222.558527,2.4609893 223.396173,2.33422387 C223.830531,0.481211523 223.340869,-0.072455144 221.568638,0.00708395062 C220.071688,0.0741950617 218.575358,0.161190947 217.077165,0.185425514 C214.920288,0.220845267 212.760926,0.174861728 210.605293,0.235758848 C209.945367,0.254400823 209.227029,0.76270535 208.647885,0.612948148 C206.410848,0.0356683128 204.219173,0.768919342 202.003264,0.675088066 C200.510663,0.61170535 200.080655,1.65130617 200.85119,3.05815391 C202.391638,3.05815391 203.956943,2.95251605 205.499877,3.09170947 C206.741433,3.20356132 208.27691,2.65486584 209.072301,4.22327737 C210.357976,6.76045021 211.828206,9.23610453 211.195622,12.3020881 C211.028465,13.1123926 211.109869,13.9891868 211.170766,14.8280757 C211.413733,18.1637465 211.91893,21.4975531 211.905881,24.8307383 C211.887239,29.6869728 211.467795,34.5407218 211.291939,39.3981992 C211.174494,42.6512239 211.178844,45.9085984 211.138453,49.16473 C211.081906,53.6555819 211.158338,58.1526477 210.943955,62.6360428 C210.779284,66.0711374 210.686696,69.4969111 210.733922,72.93387 C210.758157,74.6980222 210.920342,76.5373638 209.646474,77.8298741 C208.0327,79.0863432 205.208441,77.1954255 204.587042,80.1296724 C203.866219,80.323549 203.233013,80.4944337 202.461856,80.7026025 C203.825206,80.7026025 205.057441,80.8337177 206.250527,80.6733967 C208.291823,80.3987383 210.302671,79.9519523 212.389951,80.1930551 C213.075354,80.2725942 213.788721,80.1377506 214.486552,80.0731251 C215.249009,80.0022856 216.018301,79.7754749 216.767087,79.836372 C218.530618,79.9805366 220.282342,80.2651374 222.041523,80.471442 C222.882276,80.5702444 223.64349,80.490084 223.76342,79.216837 C223.296749,79.0341457 222.798387,78.6668988 222.314317,78.6849193 C221.234326,78.7246889 220.634675,78.1337383 219.958593,77.4365284 C218.618856,76.0545366 218.511354,74.4451128 218.35849,72.603907 C218.047791,68.8562486 218.379618,65.1663802 218.66049,61.4634626 C218.791605,59.7303802 218.461642,58.0265037 218.479663,56.2971498 C218.499548,54.3987753 218.035363,52.4612527 218.348548,50.5075737 C218.417523,50.076944 218.503898,49.3300222 218.313749,49.2274914 C217.060387,48.5520305 217.893062,47.5043514 218.030391,46.8556107 C218.267144,45.7389564 217.921025,45.3362897 217.125634,45.2132527 C218.376511,43.4000099 217.953338,41.7601374 216.874589,40.1097012 C217.151733,39.9773432 217.431363,39.843121 217.422042,39.8474708 C217.422042,38.4598864 217.45249,37.2624502 217.411478,36.0674996 M356.182342,271.50322 C356.614214,272.970965 356.951634,274.981191 357.798601,276.746586 C358.644326,278.508874 360.162404,279.887137 361.641955,281.203261 C362.430511,281.904821 363.173704,282.720096 364.085918,283.204788 C366.16947,284.310257 368.502202,284.430808 370.800136,284.377989 C374.331548,284.297829 377.136544,282.570339 379.490404,280.088471 C380.743144,278.767998 381.393128,277.118804 381.629881,275.283191 C382.198461,270.870014 381.652251,266.615294 379.932219,262.520273 C379.558136,261.629187 379.064124,260.778491 378.545256,259.960109 C378.003395,259.104442 377.416173,258.264932 376.750655,257.50496 C376.282741,256.969936 375.716647,256.370286 375.077848,256.168952 C373.833186,255.775607 372.512091,255.6041 371.212745,255.407738 C367.905037,254.906269 364.782507,255.220697 362.045865,257.428528 C360.345716,258.800578 359.1837,260.490784 358.288264,262.479261 C357.060379,265.204718 356.445194,268.026491 356.182342,271.50322 M343.919651,259.469825 C342.400951,260.759849 342.175383,260.770413 340.933828,259.646923 C339.478511,258.330179 337.983424,257.076816 336.127305,256.344187 C335.918515,256.261541 335.725881,256.100598 335.51212,256.070771 C332.576009,255.661891 329.643626,255.013771 326.664017,255.596644 C324.706609,255.980047 323.394214,257.463327 321.880486,258.595516 C319.04442,260.716351 317.642544,263.649356 317.151017,267.065808 C317.029844,267.909047 317.07707,268.787705 317.136725,269.643993 C317.387149,273.238788 318.992844,276.26438 321.569786,278.945096 C324.596622,282.093726 328.196387,282.852454 332.362247,282.314944 C334.421564,282.048985 336.484609,282.044014 338.37677,281.005035 C340.892194,279.623043 342.535173,277.393463 344.146461,275.150212 C344.77656,274.272796 345.096581,273.179133 345.652733,272.240821 C346.791758,270.320697 347.905926,268.375718 349.192223,266.555018 C351.155223,263.776742 353.196519,261.049421 355.31114,258.38424 C358.301935,254.615454 362.477116,253.051393 367.069877,252.333055 C370.893967,251.735269 374.421029,252.713351 377.691453,254.549586 C379.860136,255.766907 381.264498,257.805096 382.330819,260.042755 C382.764556,260.953726 383.069042,261.951693 383.638243,262.766347 C384.287605,263.695339 384.66293,264.564055 384.626889,265.75217 C384.594577,266.814763 385.030177,267.889784 385.247667,268.962319 C385.363869,269.537113 385.455214,270.116878 385.614293,271.01045 C385.527297,271.810191 385.304836,272.971586 385.298,274.134224 C385.286815,275.989722 384.739363,277.624623 383.918494,279.281895 C383.057235,281.021812 382.163042,282.628129 380.506391,283.739191 C377.746758,285.589718 374.696309,286.829409 371.440799,287.105932 C368.963902,287.315965 366.34719,287.271845 364.031856,285.92403 C363.938025,285.869347 363.818095,285.845734 363.706865,285.832685 C359.655963,285.354207 357.534507,282.428039 355.449091,279.403689 C354.135453,277.4991 353.648898,275.332281 353.202733,273.139364 C353.14805,272.871541 353.347519,272.55152 353.446321,272.195458 C352.217815,271.018528 352.519815,268.362668 353.455642,263.74443 C352.430955,265.457627 351.147144,267.070158 350.431293,268.903907 C348.606865,273.578693 346.108219,277.820985 342.235659,280.975207 C339.358581,283.317882 336.252206,285.659314 332.262202,285.784216 C330.390548,285.842627 328.477881,285.668014 326.637918,285.315059 C325.197515,285.038537 323.757733,284.474928 322.469572,283.764047 C321.172091,283.047574 320.050465,282.006109 318.873535,281.078981 C317.923416,280.330195 316.915507,279.622421 316.110795,278.735685 C315.658416,278.23608 315.578877,277.405269 315.302354,276.735401 C315.183046,276.445207 315.030803,275.988479 314.822634,275.944981 C313.793597,275.727491 313.719029,274.860018 313.580457,274.137952 C313.089552,271.577166 311.971033,269.072306 312.767667,266.375434 C313.003177,265.578179 313.211346,264.769738 313.49719,263.990504 C314.73626,260.618792 316.842181,257.856051 319.649663,255.663133 C320.409013,255.069697 321.425,254.701829 322.380712,254.486203 C323.983301,254.123928 325.531206,253.606923 327.203391,253.373899 C329.364618,253.07252 331.454383,253.426718 333.568383,253.247755 C334.515395,253.168216 335.54754,253.546648 336.473424,253.896495 C338.206507,254.552693 339.894227,255.328821 341.591889,256.076364 C343.048449,256.717648 343.321243,258.158672 343.919651,259.469825 M149.999609,35.914014 C150.543334,36.086763 151.011869,36.3781992 151.466733,36.357693 C158.709762,36.0364296 165.951548,35.6753967 173.283437,35.3187136 C173.200791,34.5574996 173.236832,34.0902074 173.092667,33.6869193 C172.309083,31.4952444 171.514313,29.3054337 170.658647,27.1411004 C169.862013,25.1265243 168.97714,23.1461251 168.146951,21.1445984 C167.961774,20.6971909 167.969231,20.1087259 167.672202,19.778763 C165.701745,17.5914379 165.038091,14.770907 163.904037,12.182158 C163.439231,11.1214296 163.091247,10.0103679 162.689823,8.92229794 C162.535716,8.91297695 162.380988,8.90365597 162.22626,8.89371358 C158.166037,17.8660963 154.106437,26.838479 149.999609,35.914014 M183.399194,59.3873679 C182.555334,57.4753226 181.739437,55.7018494 180.984437,53.9028988 C179.309766,49.9116519 177.654358,45.9117053 176.018836,41.9049235 C175.767169,41.2884955 175.66526,40.6117918 175.485054,39.966158 C175.006577,38.2473679 174.471552,37.9975654 172.657066,38.1995202 C169.344387,38.5686313 166.023009,38.8650387 162.699766,39.1191909 C159.03786,39.4000634 155.369741,39.5982897 151.704729,39.8387712 C151.599712,39.8456066 151.483511,39.9854214 151.400243,39.963051 C148.723877,39.2322856 147.856404,41.0598206 147.000737,42.9998288 C145.275112,46.9146436 143.523387,50.8188947 141.728165,54.7020181 C141.277029,55.6782362 140.574848,56.5357671 140.077107,57.4939646 C139.860239,57.9115449 139.868317,58.4459481 139.749009,59.0518123 C141.82386,59.2009481 143.722235,59.6651333 145.690828,59.2096477 C146.158741,59.1015243 146.726079,59.4209235 147.327593,59.5619811 C147.134338,60.2666477 146.990795,60.7911086 146.798161,61.4920469 C145.702013,61.5877424 144.576659,61.7698123 143.452548,61.7642198 C141.846852,61.756763 140.239293,61.5106889 138.637947,61.5548082 C137.048408,61.5983062 135.465704,61.876693 133.879272,62.0475778 C132.796173,62.1637794 131.714317,62.3185078 130.628112,62.3520634 C130.336675,62.3613844 130.033433,61.9928947 129.843906,61.8686148 C128.934799,62.0053226 128.036877,62.1401663 126.996655,62.2961374 C126.85684,61.5703432 126.756795,61.0489893 126.586531,60.1634955 C128.944741,60.0224379 131.114046,59.8931868 132.884412,59.787549 C133.955083,58.7498123 134.799564,57.9867342 135.572585,57.1577877 C135.955988,56.7464214 136.213869,56.2163679 136.518354,55.7335407 C136.637663,55.5458782 136.686753,55.2177794 136.841482,55.1630963 C138.161955,54.6951827 138.316684,53.3890016 138.824367,52.3817136 C141.304371,47.4583679 143.744605,42.5132733 146.152527,37.5538864 C147.372334,35.0403267 148.403235,32.4323144 149.682074,29.9510675 C151.542544,26.3413597 152.840025,22.490549 154.789976,18.9019687 C156.753597,15.2879111 158.057914,11.3184132 159.714564,7.53284938 C160.577688,5.5605284 161.529671,3.62238436 162.548766,1.72587407 C162.813482,1.23310453 163.481486,0.957203292 163.973013,0.574421399 C164.949852,2.43302634 165.791848,4.03623621 166.651865,5.67300165 C166.291453,5.8600428 166.017416,6.00234321 165.737165,6.14775062 C165.811733,6.28570123 165.852124,6.45720741 165.917371,6.46714979 C166.799136,6.60323621 167.099893,7.12645432 167.40935,7.9715572 C168.087918,9.82394815 169.064758,11.56573 169.88749,13.3677877 C170.901614,15.5874255 171.777165,17.8785243 172.906247,20.0366436 C174.258412,22.6210428 174.928902,25.5161416 176.640235,27.938977 C177.090749,28.5777753 177.211301,29.4645119 177.423198,30.2530675 C177.828972,31.7667959 178.138428,33.3084872 178.595157,34.8054379 C178.803947,35.4895984 179.293609,36.0830346 179.607416,36.7404749 C179.918116,37.3917012 180.276042,38.0485202 180.42642,38.7432444 C180.973873,41.2729605 182.560305,43.27573 183.705544,45.5053103 C185.021667,48.0692033 186.220346,50.6958576 187.405976,53.3243761 C188.050367,54.7535942 188.464219,56.2915572 189.160186,57.6921909 C189.824461,59.0275778 191.047375,59.636549 192.571667,59.5694379 C193.11477,59.5452033 193.659737,59.5650881 194.158099,59.5650881 C194.520375,61.3814379 194.036926,61.9630675 192.521334,61.9605819 C190.806272,61.9580963 189.089967,62.0158864 187.374906,62.0823761 C184.60098,62.1892568 181.827675,62.3719481 179.052507,62.4124622 C178.437321,62.4210387 177.815922,61.9674173 177.214408,61.5007465 C178.997202,59.895051 181.375297,60.3026889 183.399194,59.3873679 M170.485898,241.087594 C170.441778,244.802319 170.45607,248.517043 170.443021,252.232388 C170.437428,253.854862 170.441778,255.478578 170.40698,257.10043 C170.372803,258.693076 170.234231,260.285722 170.252873,261.877125 C170.277107,263.966269 170.462284,266.05417 170.482169,268.143314 C170.50454,270.480397 170.40698,272.8181 170.386474,275.155804 C170.37591,276.344541 170.45607,277.53452 170.435564,278.722635 C170.341733,284.037463 170.216832,289.35229 170.128593,294.667738 C170.112437,295.627179 169.855177,296.319417 168.802527,296.497759 C167.33354,296.74694 165.853988,296.956973 164.403642,297.292528 C163.42991,297.518096 162.212589,297.332298 161.612317,298.602438 C162.458042,299.424549 163.073848,300.469121 164.444655,300.476578 C167.531144,300.492734 170.602721,300.584701 173.68921,300.896022 C176.99754,301.229092 180.35993,301.040187 183.698708,301.056343 C187.103354,301.0725 190.508,301.058829 193.912647,301.061936 C196.030996,301.0638 198.149346,301.078714 200.267696,301.073742 C201.331531,301.071257 202.397231,300.99296 203.458581,301.030244 C204.38633,301.061936 205.315321,301.317331 206.234992,301.274454 C207.326169,301.2235 208.500614,301.703841 209.50728,300.896644 C211.294424,301.987821 213.075976,300.799705 214.864363,300.857495 C215.5827,300.881109 215.940005,300.326821 216.137609,299.544479 C216.45763,298.278067 217.044231,297.081253 217.481074,295.842183 C218.765507,292.198298 220.031297,288.548199 221.336856,284.805512 C220.606712,284.576216 220.141284,284.430187 219.514293,284.233825 C216.641564,287.93115 216.007737,292.702253 213.564395,296.283998 C211.439832,296.980586 209.222058,295.624072 207.354132,297.316763 C204.065066,296.149775 200.494507,296.703442 196.979873,296.620796 C193.597597,296.541257 190.21035,296.704063 186.825589,296.709656 C184.286552,296.713384 181.728873,296.435619 179.215935,296.669265 C177.707799,296.809701 176.810498,296.579162 176.440144,295.193442 C176.627186,294.773998 176.725367,294.338397 176.729095,293.901553 C176.756437,290.596952 176.773214,287.292351 176.778186,283.988372 C176.783778,280.16366 176.813605,276.338327 176.759544,272.514236 C176.701132,268.370747 176.537083,264.229121 176.459408,260.085631 C176.405967,257.215388 176.402239,254.343903 176.410317,251.473039 C176.416531,249.185668 176.477428,246.898298 176.506634,244.610928 C176.517198,243.755261 176.508498,242.899594 176.508498,241.800339 C176.703618,240.459981 176.940371,238.838129 177.172774,237.247347 C177.74384,237.303895 178.178198,237.369142 178.61442,237.387162 C181.717688,237.513306 184.81412,237.367899 187.932922,237.612109 C191.584885,237.898574 195.31328,237.740738 198.964622,237.358578 C202.579922,236.980767 205.985811,238.126006 209.492988,238.055166 C210.545017,240.14431 211.519371,242.097368 212.511124,244.041726 C212.870914,244.747014 213.306515,245.414397 213.647663,246.127763 C214.080778,247.031277 214.384021,248.001903 214.871198,248.872483 C215.308042,249.652339 216.170544,249.595792 217.177832,248.738882 C216.55084,246.941796 215.879729,245.098105 215.264544,243.235771 C214.202572,240.016923 212.508638,237.000652 212.304819,233.374788 C209.988243,233.149841 207.813967,232.728533 205.578795,233.766891 C205.608622,233.802932 205.468807,233.636397 205.281144,233.41145 C204.920112,233.617133 204.559079,233.994944 204.193074,233.999915 C202.928527,234.017314 201.662116,233.912919 200.396947,233.839594 C199.18584,233.768755 197.975354,233.604084 196.766112,233.620862 C195.728375,233.635154 194.689395,233.977545 193.657251,233.949582 C189.479585,233.835866 185.305025,233.608434 181.12798,233.47794 C179.174922,233.417043 177.218758,233.484775 175.263836,233.487261 C173.812869,233.489125 172.361902,233.47794 170.910935,233.476697 C168.583795,233.474212 166.256033,233.476076 163.713889,233.476076 C162.47047,234.719495 162.267272,235.652216 163.068256,236.869537 L170.761799,236.869537 C170.654918,238.436084 170.502054,239.760907 170.485898,241.087594 M61.3439675,285.070228 C60.480844,285.791051 59.4878481,286.459055 58.8950333,287.373133 C58.3071897,288.278512 57.3458852,288.518993 56.6592391,289.19259 C54.5154119,291.296648 51.9366053,292.873759 49.2347617,293.999113 C45.6213255,295.50352 41.8512967,296.50708 37.7979099,296.61396 C34.5722267,296.698471 31.4354037,296.456125 28.3321362,295.819191 C26.6220457,295.468722 24.8908276,295.005158 23.3553502,293.927652 C22.3474407,293.2205 21.2314078,292.649434 20.1887,291.939174 C17.4880992,290.100454 15.362914,287.741002 13.5639634,285.106269 C9.40618148,279.018421 8.37714444,271.987911 8.00492634,264.86357 C7.70168354,259.071508 9.6926465,253.790236 12.3702556,248.750689 C12.8655107,247.819212 13.2470498,246.736734 13.9815436,246.039524 C16.0340251,244.091438 18.1492679,242.180635 20.4204819,240.498508 C22.3884531,239.040084 24.4701403,237.566747 26.9451733,237.124932 C29.7551403,236.623463 32.6073626,236.304063 35.455235,236.084088 C38.6473626,235.836771 41.8326547,235.857899 44.98377,236.720401 C48.3902802,237.651878 51.5948358,239.007771 54.6036506,240.829092 C57.010951,242.285652 59.0429263,244.144878 60.3926053,246.66403 C60.6063667,247.062969 60.8033502,247.471228 60.9655354,247.790627 C63.8854901,245.692162 64.1750621,241.740685 61.8317658,240.249948 L60.4970004,240.249948 C58.5880621,237.864397 56.0459181,236.406594 53.4932103,235.110356 C49.2372473,232.949751 44.6208728,231.822533 39.8460416,231.718137 C36.6526712,231.647919 33.4201527,231.748586 30.2597165,232.17673 C27.0079346,232.616681 23.794058,233.360495 20.6895477,234.598323 C18.2785189,235.559006 15.982449,236.678146 13.9436383,238.229158 C10.4022844,240.922923 7.34872881,244.120022 5.00853951,247.928578 C4.04288519,249.499475 2.96786461,251.097092 2.45707449,252.834524 C1.48272058,256.146582 0.43752716,259.490952 0.661230864,263.036035 C0.713428395,263.858767 0.67987284,264.685849 0.707835802,265.510446 C0.799802881,268.175006 0.67925144,270.8725 1.06824733,273.494183 C1.40069588,275.73122 2.31290988,277.884368 2.99085638,280.067965 C3.37239547,281.297714 3.7290786,282.542376 4.21936255,283.72987 C5.3931856,286.569664 7.5053214,288.811051 9.52424733,290.990919 C11.418272,293.035323 13.871556,294.583849 16.1694901,296.2231 C17.1463296,296.92031 18.3530868,297.295014 19.4579346,297.812018 C20.7659798,298.424096 22.0261774,299.203952 23.396984,299.599784 C25.4681074,300.19757 27.6007494,300.773607 29.7371198,300.91715 C34.0017823,301.202372 38.2471815,302.231409 42.573984,301.140232 C45.9562597,300.287051 49.2540251,299.336932 52.1279963,297.277615 C52.8997741,296.72457 53.6087905,296.040409 54.453272,295.640849 C56.4492062,294.697565 58.3873502,293.705812 59.873737,292.014985 C60.0570498,291.806195 60.228556,291.543343 60.4653091,291.43087 C62.9944037,290.227841 64.2856712,287.814327 65.9379716,285.77303 C66.2113872,285.435611 66.1498687,284.539553 65.8882597,284.128187 C65.5601609,283.613668 64.8648152,283.332796 64.2030251,282.862397 C63.195737,283.635417 62.2425107,284.320199 61.3439675,285.070228 M351.983548,3.82993169 C355.687087,3.77959835 359.407404,3.47386996 363.089815,3.72429383 C368.810416,4.11391111 374.546552,3.49686173 380.254103,4.17791523 C382.037519,4.39105514 383.843305,4.56442551 385.634799,4.53149136 C388.743659,4.47432263 390.571815,6.15272181 391.687227,8.77937613 C392.947424,11.7478 394.052272,14.7820922 395.26835,17.7697794 C395.568486,18.5073802 396.038264,19.1753844 396.467651,19.9440551 C398.584136,17.6094584 398.733893,17.3782979 397.8484,14.881516 C396.420424,10.8567136 394.843935,6.88535144 393.279251,2.75553251 C390.282865,1.65814156 387.129264,1.01499342 383.820935,1.91540082 C383.786136,1.92472181 383.738288,1.88619506 383.696655,1.86941728 C380.666091,1.05041317 377.582087,0.92861893 374.552766,1.16972181 C374.384367,1.44997284 374.238338,1.69107572 374.027062,2.04216626 C373.757996,1.61153663 373.590219,1.34309218 373.376457,1.00070123 C370.797651,1.00070123 368.199581,0.98143786 365.602132,1.00629383 C363.110943,1.0305284 360.616647,1.20762716 358.130428,1.11938848 C355.662852,1.03177119 353.221996,1.4077177 350.719,1.08707572 C348.250181,0.771404938 345.690638,1.13243786 343.17335,1.24242551 C340.597029,1.35552016 338.023815,1.52391934 335.527655,1.66373416 C334.908741,3.47573416 335.895523,3.7410716 337.209782,3.72491523 C338.937272,3.70378765 340.666005,3.80756132 342.389766,3.85727325 C342.389766,4.37365597 342.308363,4.68373416 342.402815,4.92359424 C343.098782,6.68153251 343.774243,8.4295284 343.15533,10.3726436 C343.095054,10.5621704 343.201935,10.807623 343.239219,11.0257342 C343.631943,13.3186971 343.740688,15.6073103 343.428124,17.9307218 C343.3374,18.6080469 343.697811,19.3456477 343.813391,19.8812938 C343.674819,20.7189399 343.455465,21.4484626 343.452358,22.1786066 C343.441795,24.5088535 343.53314,26.8391004 343.538733,29.1693473 C343.541219,30.1182239 343.362256,31.0677218 343.372819,32.015977 C343.400161,34.4742321 343.513256,36.9318658 343.543083,39.390121 C343.570424,41.6973761 343.492749,44.0064955 343.538112,46.3137506 C343.582852,48.6048494 343.731367,50.894084 343.815256,53.1845613 C343.845704,54.0222074 343.82147,54.8617177 343.818984,55.7006066 C343.809042,58.4832321 343.828305,61.266479 343.773,64.0484831 C343.749387,65.2738823 343.498342,66.4955531 343.482186,67.7209523 C343.438688,70.9484996 343.467272,74.1772897 343.467272,77.4688412 C342.414,77.7789193 341.584433,78.2915737 340.836268,78.1921498 C338.863326,77.9299193 337.457099,78.8278412 336.080079,80.0227918 C336.400099,81.3954626 337.898914,81.4147259 338.504778,81.2270634 C340.311186,80.6671827 342.013819,81.1835654 343.750009,81.2183638 C345.972753,81.2618617 348.18742,81.0965695 350.418243,81.1785942 C352.72177,81.2637259 355.04021,80.7436148 357.358651,80.6628329 C360.746519,80.5441457 364.139358,80.5777012 367.530334,80.5540881 C369.855609,80.5385531 372.180885,80.5236395 374.506161,80.5310963 C376.508309,80.5379317 378.510457,80.6124996 380.512605,80.594479 C383.863811,80.5646519 387.214395,80.4739276 390.565601,80.4329152 C391.577239,80.4204872 392.595712,80.5739728 393.599893,80.5000263 C394.94398,80.4018453 396.36947,80.122837 397.106449,78.9017877 C398.341169,76.8555202 399.489515,74.736549 400.444605,72.5479811 C401.376704,70.4134749 402.057136,68.1646313 402.768017,65.9406436 C402.953194,65.3602568 403.073745,64.5524379 402.809651,64.0814173 C402.3784,63.3127465 401.538268,62.9921045 400.563914,63.4718247 C399.448502,65.8685613 398.444943,68.3715572 397.149326,70.7123679 C395.846873,73.066228 394.254848,75.2597671 392.893984,77.3607177 C388.434823,77.6130058 384.362795,78.0032444 380.287659,78.0374214 C373.211786,78.0964543 366.13405,77.904442 359.057556,77.8833144 C356.876445,77.876479 354.695334,78.0883761 352.513601,78.1878 C351.058906,78.2542897 350.01247,77.7484708 349.842828,76.6945778 C349.598618,75.174014 349.486144,73.6254872 349.421519,72.0850387 C349.335766,70.0580346 349.351301,68.0266807 349.322716,65.9971909 C349.478688,63.707335 349.569412,61.401944 349.640251,59.0965531 C349.644601,58.9536313 349.44886,58.8131951 349.421519,58.6584667 C349.378642,58.4210922 349.385478,58.1706683 349.400391,57.9270798 C349.427112,57.4995572 349.503544,57.0732774 349.509136,56.6457547 C349.522807,55.7086848 349.44886,54.7666436 349.511622,53.8339235 C349.63528,51.9933391 350.282778,50.0508453 349.882597,48.3463473 C349.308424,45.901763 350.195782,43.7001457 349.978293,41.1965284 C351.406889,41.1058041 352.626074,41.0032733 353.847745,40.9554255 C357.422655,40.8168535 360.998186,40.6981663 364.573716,40.576372 C366.647947,40.5061539 368.72777,40.5117465 370.795786,40.3570181 C372.191449,40.252623 373.035309,40.9336765 373.79528,41.9359934 C374.47447,42.8314296 375.199021,43.6926889 375.89126,44.5539481 C375.772572,44.5968247 375.506614,44.6925202 375.240033,44.788837 C375.934136,45.3630099 376.46854,45.4481416 376.411992,44.401084 C376.309461,42.5089235 376.133605,40.6211128 376.022996,38.7289523 C375.995033,38.2554461 376.022375,37.7502486 376.158461,37.3003556 C376.461704,36.3011457 376.850079,35.3274132 377.191848,34.3748082 C376.736363,33.8466189 376.385272,33.4402239 376.0957,33.1040469 C374.8964,33.0338288 374.660268,33.9771128 374.39493,34.6221251 C373.784716,36.1041621 373.366515,37.6607671 371.900634,37.9403967 C371.091572,37.7440346 370.629251,37.6017342 370.155745,37.5215737 C367.800642,37.1232568 365.457346,37.698051 363.084223,37.5880634 C359.137095,37.4041292 355.171326,37.6272115 351.213013,37.6551745 C350.708437,37.6589029 350.202618,37.5203309 349.967729,37.4861539 C349.814865,36.0090881 349.654544,34.8240798 349.57749,33.6341004 C349.456317,31.7680387 349.386099,29.8994914 349.308424,28.030944 C349.296618,27.7531786 349.373671,27.4729276 349.387963,27.1926765 C349.440782,26.1965737 349.57314,25.1948782 349.514729,24.2049893 C349.273626,20.1192897 349.100256,16.0391827 349.318367,11.9416765 C349.455074,9.37156955 349.343844,6.78779177 349.343844,3.83179588 C350.177762,3.83179588 351.080655,3.84235967 351.983548,3.82993169 M15.3461362,44.7391251 C16.077523,44.6117383 16.7212926,44.4153761 17.3694119,44.4004626 C21.3184037,44.3116025 25.2630457,44.370014 29.214523,44.0487506 C32.4805971,43.7834132 35.7771198,44.0630428 39.0599716,43.6585119 C42.4142844,43.2459029 45.5386794,42.2895695 48.1901897,40.1892403 C49.2571321,39.343516 49.9102226,37.9851374 50.955416,37.1008864 C52.4449099,35.8406889 53.0153543,34.1585613 53.4124284,32.4273432 C54.0381774,29.6987794 54.591844,26.9391457 54.9267782,24.1621128 C55.2629551,21.3801086 55.6482226,18.5080016 53.8349798,15.985121 C53.3558811,15.3183597 52.5238276,14.7653144 52.3560498,14.0432486 C51.9658111,12.3660922 50.672058,11.5868576 49.5249551,10.6330099 C47.245663,8.73649959 44.8961527,6.94624856 41.8935519,6.33230617 C39.991449,5.94393169 38.0744325,5.62142551 36.1847576,5.1814749 C35.5962926,5.04476708 35.0749387,4.62159424 34.8009016,4.47618683 C34.228593,4.61600165 33.7836712,4.84840494 33.3698193,4.8024214 C32.1661691,4.66944198 30.9811609,4.35314979 29.7768893,4.23819095 C25.9975395,3.87777942 22.2144613,3.55403045 18.4288975,3.26632263 C17.2706095,3.17870535 16.099272,3.25327325 15.0894984,3.25327325 C15.1466671,4.56691111 15.0876342,5.87682058 15.2839963,7.14696049 C15.664914,9.61702222 14.4935765,12.2126066 15.9060169,14.5944296 C15.9992267,14.7516436 15.923416,15.0151169 15.9116095,15.2288782 C15.6810704,19.3624255 15.4238111,23.49473 15.2268276,27.6295202 C15.1348605,29.5490222 15.1926506,31.4753597 15.1155971,33.3954831 C15.0839058,34.1890099 14.8776012,34.9750798 14.7862556,35.5436601 C15.7705519,38.6121292 14.5557165,41.6544996 15.3461362,44.7391251 M32.7117576,47.3695078 C32.5340374,46.8748741 32.3842802,46.459158 32.2227165,46.0105078 C32.0213831,46.0533844 31.8014078,46.0322568 31.7249757,46.1267095 C31.0147165,47.0016395 30.4455148,47.6944996 29.0107041,47.0780716 C28.1053255,46.6884543 26.8339428,47.2104296 25.7253667,47.2197506 C22.3002144,47.2501992 18.8738193,47.2309358 15.2610045,47.2309358 C15.2038358,47.6106107 15.0534572,48.1468782 15.0547,48.6831457 C15.060914,52.0194379 15.1112473,55.3563514 15.1274037,58.6926436 C15.1385889,61.1353638 15.4020621,63.6203391 15.0428934,66.0096189 C14.6246918,68.7910016 15.3796918,71.6028329 14.4749346,74.3630881 C14.007021,75.790442 14.8011691,76.690228 16.3409963,76.9437588 C17.8857947,77.1979111 19.4467494,77.3551251 20.9996259,77.5626724 C21.8030951,77.6701745 22.586058,77.8180675 22.7103379,79.1615325 C21.6104613,79.4585613 20.4869716,79.8941621 19.3268193,80.0420551 C17.806877,80.2359317 16.2577288,80.1998905 14.72163,80.2670016 C12.9966259,80.3421909 11.2710004,80.4981621 9.54723909,80.4826272 C7.03616502,80.4602568 4.52571235,80.323549 2.01588107,80.2160469 C1.68716091,80.2017547 1.36279053,80.0725037 1.05768354,80.0016642 C0.716535391,78.5071992 1.33979877,77.6881951 2.91442428,77.8155819 C4.82771235,77.9703103 6.48063416,77.4974255 7.88686049,76.2291498 C8.42437078,75.7444584 8.84195103,75.1274091 9.1650786,74.7464914 C8.88296337,73.9181663 8.44860535,73.2383556 8.45481934,72.5628947 C8.49583169,68.4150551 8.65118148,64.2684584 8.73755597,60.1212403 C8.7903749,57.6095449 8.75371235,55.0959852 8.81709506,52.5842897 C8.95877407,46.955656 9.24586049,41.328265 9.26325967,35.6996313 C9.27444486,32.009763 8.82144486,28.3198947 8.76551893,24.6275407 C8.73631317,22.7254379 9.1694284,20.820228 9.29930082,18.9100469 C9.36951893,17.8704461 9.21479053,16.8171745 9.21603333,15.7701169 C9.21665473,15.0424584 9.22038313,14.2942938 9.38008272,13.5914914 C9.92629259,11.1904049 9.90516502,8.76259835 9.45527202,6.39258189 C9.20484815,5.07459424 8.38335844,3.86535144 7.81104979,2.58837613 C5.05887284,2.66107984 2.45893868,2.72881235 6.21399176e-05,1.60656543 C4.27528848,0.805581893 8.54367942,0.214009877 13.1476259,0.520359671 C13.415449,0.470647737 13.9691156,0.267450206 14.5178111,0.28046257 C19.3591321,0.402293827 24.2010745,0.530302058 29.0392885,0.73225679 C30.2578523,0.782590123 31.4608811,1.13803045 32.6782021,1.29462305 C33.655663,1.42014568 34.6592226,1.37416214 35.6254984,1.54628971 C39.4669881,2.22982881 43.3233914,2.86054897 47.1188975,3.7472856 C48.4095436,4.0486642 49.5299263,5.06092346 50.7422761,5.72271358 C51.9310128,6.37207572 53.1955601,6.90212922 54.324021,7.64159424 C56.142235,8.83281646 57.15263,10.7305695 58.0785148,12.6016025 C58.8658276,14.1923844 59.3685395,15.9236025 60.0092021,17.5883309 C60.8978029,19.8980716 60.4006835,22.2687095 60.3286012,24.620084 C60.3186588,24.9537753 60.1645519,25.2949235 60.2074284,25.6155654 C60.5230992,27.9656971 59.738272,30.1971416 59.005021,32.2794502 C57.9070086,35.4001169 56.283914,38.289623 53.4708399,40.422265 C49.6144366,43.3459481 45.2292226,45.121907 40.8048605,46.8556107 C40.1157288,47.1259193 39.2700045,46.9892115 38.4982267,47.0525942 C36.8409551,47.1886807 35.1855477,47.3378165 33.5276547,47.4676889 C33.310165,47.4844667 33.0864613,47.4173556 32.7117576,47.3695078 M109.748478,237.351121 C109.748478,240.157981 109.732943,242.872253 109.752828,245.585903 C109.774577,248.461738 109.857223,251.337574 109.864058,254.213409 C109.871515,257.252672 109.823046,260.291314 109.795704,263.330578 C109.768984,266.27166 109.738535,269.213364 109.708087,272.154446 C109.695037,273.386059 109.668317,274.617672 109.662725,275.849286 C109.655889,277.133718 109.663967,278.418771 109.670803,279.703825 C109.677017,280.942273 109.686338,282.181343 109.700009,283.420413 C109.714301,284.691174 109.941733,286.00357 109.693795,287.220269 C109.468227,288.327602 109.650297,289.36596 109.639733,290.432281 C109.621091,292.228125 109.634762,294.023347 109.634762,295.998154 C111.123634,295.998154 112.329149,295.986969 113.535284,296.00064 C116.737976,296.036059 119.947502,296.229314 123.142737,296.087014 C127.272556,295.90308 131.385597,295.336364 135.515416,295.159886 C138.383173,295.037471 140.876848,294.265693 143.038074,292.362969 C145.159531,290.495043 147.067848,288.471146 148.293869,285.881775 C149.545367,283.236479 150.83042,280.617281 151.36793,277.68987 C151.755684,275.577113 152.388889,273.510339 152.841268,271.408146 C153.090449,270.248615 153.19298,269.057393 153.351437,267.953788 C153.182416,267.579084 152.902165,267.222401 152.870474,266.845212 C152.52684,262.780018 152.16705,258.709232 150.496729,254.92429 C149.585758,252.860002 148.740033,250.668948 147.364256,248.931516 C145.475823,246.546586 143.161733,244.483541 140.925317,242.395018 C140.080214,241.605841 139.008922,240.945915 137.922716,240.549463 C135.514795,239.669561 133.006828,239.06494 130.584614,238.219216 C125.912313,236.588043 121.049865,237.224977 116.270062,236.956533 C114.193967,236.839709 112.091774,237.193907 109.748478,237.351121 M96.104416,235.621767 C95.358737,233.712829 96.0298481,232.717969 97.9133091,232.796886 C101.974153,232.96715 106.034375,233.185261 110.097083,233.262314 C112.549124,233.308919 115.004893,233.085216 117.45942,233.063467 C119.50693,233.046067 121.555062,233.131821 123.60133,233.218816 C123.787749,233.226895 123.959256,233.581714 124.190416,233.832759 C125.806675,233.025561 127.540379,233.511495 129.26414,233.678652 C129.594103,233.710965 129.915988,233.819709 130.244708,233.875014 C132.306511,234.220512 134.368313,234.835076 136.431358,234.839426 C139.699918,234.846882 142.206021,236.997545 145.257091,237.576689 C146.157498,237.748195 146.93114,238.755483 147.692976,239.455179 C149.658461,241.261586 151.609033,243.07545 152.909,245.479022 C153.465153,246.507438 154.397873,247.341977 154.891885,248.390899 C155.660556,250.023936 156.185017,251.77131 156.844943,253.457788 C157.278679,254.567607 157.89635,255.6215 158.201457,256.762388 C158.600395,258.254989 158.826585,259.801652 159.026675,261.338372 C159.264671,263.1715 159.395786,265.018298 159.578478,266.858882 C159.589042,266.96887 159.679766,267.075129 159.676149,267.180767 C159.585313,269.530277 159.685358,271.908993 159.344832,274.223084 C158.791165,277.980063 157.65649,281.56243 155.939564,285.017409 C153.601239,289.721401 150.271161,293.436125 145.992206,296.359808 C144.764943,297.198697 143.48921,298.095376 142.099762,298.537812 C140.236186,299.131249 138.403679,300.018607 136.254881,299.527701 C135.186696,299.283491 133.961297,299.812302 132.802387,299.857664 C129.541284,299.98443 126.277074,300.03787 123.014729,300.127973 C118.669284,300.247903 114.323219,300.356648 109.978395,300.504541 C105.869704,300.643734 101.762877,300.858738 97.6535642,300.96054 C96.9812103,300.976804 96.2982926,300.579109 95.4674819,300.326199 C95.5849263,299.499117 95.5998399,298.830491 95.7862597,298.214063 C96.0503543,297.343483 96.5512021,296.783602 97.6436218,297.02222 C98.2799346,297.161413 98.97963,297.079388 99.6432844,297.016627 C101.198647,296.868734 102.620408,295.313372 102.631593,293.685306 C102.663284,289.093788 102.584988,284.500405 102.681926,279.910751 C102.774515,275.495709 103.090807,271.086261 103.200795,266.67122 C103.312025,262.194039 103.303947,257.713751 103.324453,253.234084 C103.339367,250.055627 103.151083,246.865364 103.373544,243.703063 C103.498445,241.917162 103.023074,240.325759 102.616058,238.702664 C102.042507,236.417158 100.124869,235.917553 98.0817082,235.745426 C97.4137041,235.688878 96.7432144,235.660915 96.104416,235.621767 M239.798005,237.471672 C239.798005,238.191874 239.814782,238.867335 239.794898,239.541553 C239.699823,242.750458 239.604749,245.959364 239.482334,249.167648 C239.463692,249.663524 239.197112,250.161265 239.228181,250.645956 C239.366132,252.794755 239.885,254.972759 239.656326,257.074331 C239.456856,258.911808 239.522725,260.758607 239.204568,262.568742 C238.96533,262.592356 238.677,262.62094 238.629774,262.62529 C238.798795,263.339277 238.997021,263.925878 239.062268,264.526771 C239.133107,265.173648 239.078424,265.834195 239.078424,266.553154 C239.654461,266.685512 240.243548,266.925993 240.837605,266.938421 C243.845799,267.001183 246.855856,267.024174 249.864671,267.021689 C252.2844,267.019203 254.740169,267.216187 257.115778,266.874417 C262.181424,266.146759 266.422474,263.750022 269.697247,259.757533 C270.751762,258.471858 271.566416,257.072467 271.462642,255.326335 C271.370054,253.762895 271.322828,252.191376 271.120251,250.641607 C270.406264,245.18945 267.078671,241.51201 262.741305,238.565335 C262.345474,238.296269 261.810449,238.145269 261.327,238.106121 C258.742601,237.897952 256.155095,237.715261 253.565725,237.57731 C250.944663,237.437495 248.320494,237.359821 245.780836,237.257911 C245.600009,236.916763 245.473243,236.676281 245.202935,236.166113 C245.161301,236.739043 245.143902,236.983874 245.113453,237.403319 C243.949572,237.322537 242.81614,237.243619 241.675251,237.164701 C241.706943,236.8888 241.726206,236.726615 241.740498,236.601714 C241.168811,236.85773 240.584696,237.119339 239.798005,237.471672 M234.056898,267.366565 C234.297379,259.617718 233.523116,251.878812 234.468264,244.220689 C234.322235,243.70617 234.077404,243.19103 234.049441,242.664084 C234.001593,241.769269 234.109716,240.866998 234.117795,239.967212 C234.137679,237.695998 233.047745,236.415294 230.788338,236.062339 C230.186823,235.969129 229.572881,235.891454 228.967638,235.908232 C228.090223,235.932467 227.488708,235.50743 227.427811,234.714524 C227.358214,233.815981 228.074066,233.499067 228.893692,233.467376 C229.344828,233.450598 229.796585,233.434442 230.248342,233.428849 C232.141124,233.404615 234.033284,233.364224 235.925445,233.38473 C236.213774,233.387837 236.498996,233.679273 236.691009,233.785533 C237.873531,233.622726 239.088367,233.364845 240.311902,233.311405 C241.741741,233.249265 243.179037,233.350553 244.612605,233.406479 C246.32021,233.47359 248.027815,233.567421 249.73542,233.651932 C251.098149,233.719043 252.46212,233.781183 253.824227,233.861965 C255.211811,233.943989 256.597531,234.114253 257.985737,234.126681 C261.971391,234.1621 265.881856,234.686561 269.507721,236.369932 C270.833786,236.985738 271.943605,238.140298 273.029811,239.176792 C273.863729,239.973426 274.670926,240.88564 275.196009,241.89852 C276.074046,243.591833 276.7377,245.398862 277.435531,247.179792 C277.533091,247.429594 277.310009,247.804919 277.448581,248.031109 C277.771087,249.06201 278.260749,250.074891 278.375708,251.128784 C278.542243,252.65059 278.623647,254.230187 278.3987,255.733351 C278.148276,257.401187 277.497671,259.003154 276.208268,260.228553 C276.126865,260.306228 276.033655,260.374582 275.962815,260.460956 C272.457502,264.724998 267.73984,267.021067 262.633181,268.690767 C262.480939,268.740479 262.355416,268.873458 262.077651,269.063607 C262.480317,269.341993 262.712099,269.586203 262.994214,269.685006 C266.551725,270.92594 269.517042,273.082195 271.903836,275.914533 C273.271535,277.537006 274.05077,279.64417 275.354465,281.333755 C277.807128,284.512833 279.550153,288.0865 281.45412,291.576899 C282.353284,293.224228 283.147433,294.942397 284.184548,296.497759 C285.16698,297.970475 286.530951,298.897602 288.51135,298.749088 C289.447799,298.67887 290.421531,299.110742 291.26477,299.290948 C291.577955,300.492734 290.96712,300.835125 290.280474,300.955055 C289.543494,301.083685 288.757424,301.150796 288.024795,301.037701 C285.697655,300.67729 283.3904,300.653055 281.057667,300.994825 C280.624552,301.058207 280.126811,300.6108 279.644605,300.438051 C279.315885,300.319985 278.96293,300.269652 278.693243,300.205648 C278.431634,299.583006 278.172511,298.929915 277.886046,298.289874 C276.01812,294.115314 274.015972,289.994816 272.311474,285.754388 C270.920782,282.295681 268.520939,279.606886 266.281416,276.762121 C264.918066,275.030281 263.23656,273.638969 261.678712,272.110327 C260.274972,270.732685 258.651877,270.629533 256.886482,270.730199 C254.157297,270.886792 251.428112,271.052705 248.696441,271.135351 C245.563967,271.229804 242.429009,271.237882 238.976515,271.288837 C239.704795,279.748565 239.397823,287.985212 239.015042,296.057808 C239.875058,296.812808 240.565433,297.418672 241.165704,297.945619 C242.361276,297.945619 243.529507,297.998438 244.69028,297.930705 C245.839247,297.863594 246.44884,298.145088 246.070408,299.440084 C245.999568,299.68243 246.099614,299.974487 246.133169,300.400146 C244.498268,301.019059 242.813655,300.845689 241.219144,300.689718 C239.046733,300.475956 236.93149,300.346084 234.730494,300.566681 C232.227498,300.817726 229.669819,300.577244 227.140725,300.452965 C226.759807,300.434323 226.258338,299.949631 226.091181,299.560635 C225.982437,299.307105 226.3124,298.783886 226.560959,298.47443 C227.342058,297.500076 228.354317,297.16017 229.635642,297.184405 C230.8337,297.206775 232.037972,296.883648 233.43612,296.6848 C233.684679,288.307718 233.928889,280.068586 234.183042,271.500113 C233.464083,271.34352 232.633272,271.043384 231.790655,271.003615 C230.076836,270.923454 228.35556,271.012936 226.638013,270.980623 C221.151679,270.877471 215.666589,270.665574 210.180877,270.661845 C205.939206,270.658117 201.696293,270.8725 197.457107,271.052084 C195.447502,271.137216 195.024951,271.607615 194.391124,273.631512 C194.110251,274.528191 193.703856,275.430463 192.133581,275.34036 C192.264696,271.097446 192.394568,266.895545 192.529412,262.542644 C192.99919,262.4078 193.450326,262.278549 193.833107,262.169183 C194.023877,262.366788 194.136972,262.432035 194.169906,262.525866 C194.606749,263.781714 194.989531,265.058067 195.473601,266.295273 C195.916659,267.428705 197.065005,267.534343 197.998346,267.531858 C203.328087,267.51943 208.657828,267.360973 213.98819,267.321825 C219.079935,267.284541 224.172922,267.319339 229.265288,267.35538 C230.414256,267.363458 231.561358,267.528129 232.710947,267.575356 C233.086893,267.590891 233.469054,267.463504 234.056898,267.366565 M242.946013,40.40673 C244.114243,40.0133844 244.797782,39.5771621 245.472,39.5914543 C248.74926,39.6622938 252.082445,39.195623 255.221753,40.7161868 C257.41405,41.778158 259.785309,42.2199728 262.230515,42.3858864 C264.71549,42.554907 267.110984,42.1037712 269.540655,41.7533021 C271.329042,41.4948 272.886889,40.8137465 274.095511,39.5634914 C276.114437,37.4749687 278.030832,35.2826724 279.919264,33.0735984 C282.92,29.5620716 284.913449,25.6764626 284.321877,20.8401128 C284.014906,18.3234461 282.904465,16.1230716 281.839387,13.8941128 C281.721321,13.6461745 281.537387,13.3951292 281.318033,13.2366724 C278.962309,11.5346601 276.599128,9.84259012 274.221033,8.17226914 C273.960046,7.98957778 273.595906,7.94856543 273.275885,7.85535556 C271.143243,7.23395638 269.026758,6.54731029 266.871124,6.01912099 C265.197074,5.60899753 263.478284,5.19266008 261.771301,5.15724033 C260.077367,5.12244198 258.367276,5.29146255 256.659671,5.25045021 C256.14826,5.23802222 255.632498,5.35111687 255.12233,5.3306107 C253.450766,5.26225679 251.745025,5.34366008 250.118202,5.0273679 C247.498383,4.51844198 244.923305,4.89935967 242.337663,4.83597695 C242.337663,5.99985761 242.156214,7.02268066 242.368112,7.95664362 C243.407712,12.5288988 243.622095,17.1850428 243.85947,21.8331086 C243.980642,24.2062321 243.816593,26.5936477 243.786144,28.9748494 C243.778688,29.5887918 243.832128,30.2077053 243.781795,30.8179193 C243.525778,33.9100016 243.245527,37.0002198 242.946013,40.40673 M316.043684,76.6889852 C317.152881,76.1235119 318.318005,75.645656 319.35947,74.9751663 C321.785412,73.4129687 324.1517,71.7581827 326.542223,70.1406807 C328.162832,70.3650058 329.070074,68.8854543 330.762144,68.2367136 C330.066177,70.9093514 328.369758,72.4945407 326.681416,73.8790181 C324.504655,75.6636765 322.022786,77.0767383 319.655256,78.6234008 C319.608029,78.6550922 319.35077,78.3648988 319.260667,78.2866025 C319.006515,78.5898453 318.83128,78.9949975 318.537358,79.118656 C315.746655,80.2949646 312.989507,81.5967959 310.108079,82.4934749 C308.63847,82.9508247 306.930865,82.7501128 305.338219,82.6786519 C303.231675,82.5841992 301.077284,82.5568576 299.046552,82.0696807 C297.086037,81.5992815 295.256017,80.5826724 293.369449,79.8034379 C292.802112,79.568549 293.186136,78.5830099 292.137214,78.5581539 C289.56835,78.4966354 288.036601,76.3465942 286.263749,74.9621169 C283.302161,72.6505119 280.813457,69.741121 278.063144,67.149265 C276.290293,65.4783226 274.396268,63.9384955 272.578054,62.3154008 C271.828025,61.6455325 271.157535,60.8868041 270.408749,60.215693 C269.793564,59.6638905 269.14793,59.1319728 268.458799,58.6783514 C266.697753,57.519442 264.92428,56.4009235 263.426708,54.8760099 C262.663009,54.0992609 261.921679,53.3368041 260.778926,52.8664049 C259.692721,52.4196189 258.948906,51.1364296 258.060926,50.215516 C257.874507,50.0216395 257.710457,49.620837 257.542058,49.623944 C256.000988,49.6525284 255.472177,48.3326765 254.955173,47.390014 C253.928,45.5164955 252.433535,44.8814255 250.464321,44.9137383 C250.351848,44.9149811 250.238753,44.9137383 249.894498,44.9137383 C248.290046,42.1155778 245.305465,43.5621951 242.844725,42.7643185 C242.644013,43.9797753 242.70926,44.8969605 243.067807,45.9757095 C243.444375,47.1091416 243.012502,48.4961045 243.010017,49.7730798 C243.000074,54.4186601 243.042951,59.0648617 243.023066,63.7110634 C243.012502,66.2047383 243.302074,68.7021416 242.6117,71.1877383 C242.338906,72.1689276 242.466293,73.327837 242.66514,74.3574955 C242.920535,75.6798329 243.054758,76.8747835 241.52363,77.9709317 C242.854046,78.0666272 243.814729,78.172265 244.777276,78.1933926 C245.590066,78.2120346 246.404721,78.1039111 247.218753,78.1057753 C248.107354,78.1076395 248.792758,78.3928617 248.636786,79.6331745 C247.533803,80.613121 246.279198,80.8411745 244.596449,80.4503144 C241.631753,79.7624255 238.593112,79.4467547 235.510972,79.9513309 C233.5604,80.2713514 231.566951,80.3254132 229.505149,80.5062403 C229.730716,79.4498617 229.726988,79.4368123 231.784441,78.914837 C232.817828,78.653228 233.864885,78.4475449 234.808169,78.2387547 C235.374885,76.080014 236.087009,74.0132403 236.42505,71.8868123 C236.712136,70.0779193 236.563,68.2006724 236.619548,66.3538741 C236.644404,65.5156066 236.725186,64.6785819 236.733264,63.8403144 C236.743828,62.7603226 236.685416,61.6797095 236.693494,60.5997177 C236.71835,57.3094091 236.787326,54.0191004 236.785461,50.7287918 C236.784219,49.1535449 236.597799,47.5776765 236.61147,46.003051 C236.625762,44.3364584 236.827095,42.6723514 236.858786,41.0051374 C236.917819,37.9453679 236.874321,34.8824914 236.950753,31.8233432 C236.988037,30.3282568 237.226655,28.838763 237.320486,27.3436765 C237.368334,26.5812198 237.285688,25.8113062 237.282581,25.045121 C237.262074,20.1814296 237.101753,15.3127671 237.292523,10.4577753 C237.387597,8.02561893 236.848223,6.04273416 235.318338,4.1996642 C234.744165,3.50804691 234.165021,3.22531029 233.314326,3.23649547 C232.356128,3.24954486 231.374317,3.29739259 230.444704,3.11407984 C229.587173,2.94505926 228.478597,2.80027325 228.622762,1.49409218 C229.204391,1.1771786 229.679762,0.859022222 230.199251,0.655824691 C230.535428,0.524709465 230.990293,0.424664198 231.301614,0.545215638 C233.330482,1.3294214 235.43019,0.893199177 237.496963,0.985787654 C239.046733,1.05476296 240.597745,1.1001251 242.144408,1.20576296 C244.642433,1.37602634 247.142321,1.53696872 249.632268,1.79236379 C254.439412,2.28575473 259.249042,1.36297695 264.040651,1.84393992 C265.466762,1.98748313 266.795935,1.57984527 268.194704,1.64819918 C270.153354,1.74389465 272.047379,1.80479177 273.728264,3.05504691 C274.522412,3.64599753 275.541507,3.92562716 276.417058,4.42026091 C276.941519,4.71666831 277.836334,4.67130617 277.743124,5.69537202 C277.729453,5.84450782 278.261992,6.22728971 278.476996,6.18379177 C280.279054,5.81778765 281.452256,7.05561481 282.526655,8.01319095 C284.43435,9.7120963 286.354474,11.5309317 287.735223,13.6480387 C288.946951,15.5066436 289.828716,17.7150963 289.97226,20.0509358 C290.043721,21.2179235 289.960453,22.3936107 290.009544,23.563084 C290.211498,28.379549 288.521914,32.6361333 285.98847,36.5758041 C284.755614,38.4921992 283.237535,40.2401951 281.723807,41.9552568 C281.127885,42.6300963 280.192679,43.0054214 279.351305,43.5566025 C279.21149,43.3117712 279.075404,43.0731539 278.941181,42.8388864 C278.772782,42.9115901 278.603762,42.9352033 278.58512,43.0004502 C278.115963,44.6583432 276.512132,44.7074337 275.306618,45.1598123 C272.711655,46.1347877 269.999869,45.6196477 267.325367,45.4344708 C266.028507,45.3443679 264.727918,45.3002486 263.12098,45.2200881 C264.345758,46.6548988 265.321354,47.7976519 266.296951,48.9404049 C266.226733,48.9720963 266.157136,49.0031663 266.086918,49.0348576 C266.500149,49.1721868 266.966198,49.2343267 267.309832,49.4723226 C267.551556,49.6401004 267.568334,50.1024214 267.787688,50.3373103 C269.417618,52.0853062 271.086696,53.7978823 272.714762,55.547121 C273.471626,56.3605325 274.134037,57.2621827 274.89463,58.0712444 C276.803568,60.101977 278.718099,62.1289811 280.685449,64.1031663 C281.547951,64.9687753 282.521684,65.7293679 283.484231,66.4880963 C285.559083,68.1229975 287.565581,69.8697506 289.772791,71.3039399 C292.381424,72.9978741 295.043498,74.7390346 297.915605,75.8650099 C301.935437,77.4414996 306.154116,78.1237959 310.531873,76.8735407 C312.21835,76.3925778 314.091869,76.5647053 315.879634,76.4398041 C315.934317,76.5224502 315.989,76.6057177 316.043684,76.6889852 M79.2520704,40.2159605 C80.5259387,40.8199605 81.7190251,40.7578206 82.9500169,40.7982115 C85.8948276,40.8963926 88.7700416,41.7570305 91.7608358,41.667549 C93.7648481,41.6078947 95.7763173,41.8931169 97.7859222,41.9359934 C99.6625477,41.9763844 101.538552,41.8974667 103.3984,41.5675037 C104.87298,41.3058947 106.427721,41.3040305 107.820898,40.8218247 C109.91812,40.0954091 112.08991,39.3161745 113.883268,38.0628123 C115.480264,36.9467794 116.609346,35.1583926 117.934791,33.658335 C118.078334,33.4955284 118.209449,33.2848741 118.252326,33.0773267 C118.774922,30.5271045 119.308704,27.9787465 119.775996,25.4179605 C119.986651,24.262158 120.07986,23.0833638 120.17742,21.9107835 C120.226511,21.3216971 120.263795,20.7015407 120.138272,20.1329605 C119.757976,18.4098206 119.321753,16.6978658 118.851976,14.9964749 C118.66742,14.3284708 118.40954,13.6561169 118.052235,13.0657877 C117.624712,12.3592568 116.816272,11.8093185 116.596918,11.0661251 C116.147647,9.54556132 115.109288,8.85705103 113.756502,8.39038025 C113.565112,8.32451193 113.448288,8.05979588 113.257519,7.9746642 C112.199276,7.50364362 111.167132,6.89032263 110.054828,6.64300576 C107.885523,6.1601786 105.668371,5.89235556 103.472967,5.52510864 C101.593856,5.21068066 99.728416,4.78502222 97.8381198,4.58182469 C94.9803049,4.2748535 92.0454366,4.40659012 89.2547329,3.8199893 C86.3428564,3.20791111 83.5061691,3.50431852 80.6278481,3.55154486 C79.7131486,3.56645844 79.2377782,3.92003457 79.1899305,4.80863539 C79.1234407,6.03341317 79.0407947,7.26129794 79.0594366,8.48607572 C79.0867782,10.2259934 79.2073296,11.9634255 79.2725765,13.7021004 C79.3048893,14.5677095 79.1632103,15.3164955 78.1521938,15.1033556 C78.5219263,23.5400922 78.8873091,31.8873473 79.2520704,40.2159605 M97.5460621,45.0373967 C98.7956959,45.8271951 100.04533,46.616372 101.293721,47.408656 C101.715029,47.6758576 102.160572,47.9150963 102.544597,48.2295243 C103.740169,49.2100922 104.879194,50.262121 106.102107,51.2060263 C107.237404,52.0828206 108.565334,52.7371539 109.594371,53.7146148 C110.349992,54.4335737 110.759494,55.5172938 111.08635,56.5836148 C111.385243,56.6762033 111.848186,56.6780675 111.95693,56.8756724 C112.979132,58.724335 114.860729,59.633442 116.406149,60.8575984 C119.063873,62.9622774 121.919823,64.8190181 124.71612,66.7453556 C125.842716,67.5214831 127.020889,68.2255284 128.194091,68.9308165 C129.960729,69.9921663 131.707482,71.0957712 133.531288,72.0496189 C135.087272,72.8630305 136.737087,73.497479 138.352103,74.1946889 C138.76347,74.3724091 139.324593,74.3668165 139.605465,74.6526601 C140.803523,75.8724667 142.458309,75.8743309 143.908655,76.4155695 C144.928992,76.7964872 145.917638,77.2625366 146.887021,77.6757671 C147.680548,77.8286313 148.491474,77.9802527 149.300535,78.1418165 C150.624737,78.4052897 151.943346,78.6967259 153.271276,78.9378288 C155.90663,79.4163062 158.533284,79.9817794 161.189144,80.2918576 C162.930926,80.4950551 164.71807,80.2844008 166.484087,80.3154708 C167.316762,80.329763 168.14633,80.4764132 169.126898,80.578944 C169.144918,80.5056189 169.213893,80.2222609 169.224457,80.1812486 C171.212935,79.5660634 173.108202,78.8147918 175.07493,78.4214461 C176.80242,78.0765695 178.468391,77.6515325 180.140577,77.0960016 C180.983815,76.8157506 181.644363,76.4273761 182.354,75.9725119 C183.617305,75.1622074 184.944614,74.4531909 186.242095,73.6957053 C187.822935,72.7741704 189.423659,71.8837053 190.970943,70.9093514 C192.240461,70.1096107 192.611437,69.9766313 193.982865,70.4501374 C192.728881,71.8439358 191.717865,73.3607712 190.346437,74.403479 C187.990091,76.1949728 185.509465,77.8820716 182.892132,79.2522568 C180.557535,80.4751704 177.973758,81.2270634 175.488782,82.1566765 C172.207173,83.3839399 168.740387,83.8934872 165.302186,84.0712074 C161.770153,84.2532774 158.208293,84.8199934 154.63649,83.8617959 C151.665581,83.0651621 148.562935,82.7724831 145.564062,82.0640881 C142.879618,81.4302609 140.264149,80.5087259 137.603317,79.7655325 C136.555638,79.4722321 135.416614,79.4560757 134.409947,79.0745366 C132.184716,78.2312979 130.00112,77.2737218 127.830572,76.2943967 C125.503433,75.2442321 122.981795,74.4277136 120.965976,72.9388412 C118.804749,71.3418453 115.987326,70.4849358 114.62149,67.8439893 C114.377902,67.3735901 113.713626,67.1150881 113.233906,66.7733185 C110.834062,65.0619852 109.105951,62.8069276 107.576066,60.2995819 C106.366202,58.3166971 104.666675,56.6395407 103.358009,54.7088535 C101.793326,52.4003556 99.651984,50.7374914 97.5591115,48.9938453 C97.1036259,48.6141704 96.7438358,48.1195366 96.3417905,47.679586 C94.3073296,47.6143391 93.084416,45.6581745 91.0772967,45.1399276 C89.0844695,44.6254091 87.1084202,44.0183021 85.0640169,43.7100881 C83.0270704,43.4031169 80.9789387,43.1669852 78.7978276,42.881763 C78.924593,44.1811086 79.0960992,45.3760593 79.1395971,46.5759811 C79.1712885,47.4502897 78.9917041,48.3308123 78.9798975,49.2094708 C78.9624984,50.5398864 79.0787,51.8740305 79.0103461,53.2007177 C78.9320498,54.7175531 78.6859757,56.2256889 78.5629387,57.7412815 C78.3976465,59.7769852 78.3529058,61.8251169 78.1155313,63.8514996 C77.9632885,65.1527095 78.7909922,66.6018123 77.5798852,67.7538864 C77.6333255,70.5563967 77.602877,73.365121 77.8085601,76.1564461 C77.852058,76.7523679 78.7512226,77.2855284 79.2564202,77.8478947 C79.192416,77.9529111 79.1277905,78.0573062 79.0637864,78.1623226 C80.2562514,78.1623226 81.4518235,78.21887 82.6399387,78.1467877 C83.9150498,78.0697342 84.6147453,78.5649893 84.8316136,80.1191086 C83.4309798,80.3421909 82.0123255,80.7902198 80.6092062,80.7473432 C77.2921774,80.6466765 73.981984,80.3247918 70.6711691,80.0669111 C69.3861156,79.9662444 68.0942267,79.864335 66.8296794,79.6319317 C66.0529305,79.4890099 65.3209222,79.0981498 64.4435066,78.7719152 C64.8101321,78.1082609 65.0443996,77.6850881 65.2202556,77.3663103 C67.5952432,77.5023967 69.8565148,77.6322691 72.2706506,77.7702198 C71.2782761,74.5631786 72.459556,71.546907 72.5975066,68.4759523 C72.6497041,67.3145572 72.724272,66.1475695 72.6720745,64.9880387 C72.450235,60.0112527 72.1208934,55.0381951 71.956844,50.0601663 C71.843128,46.6244502 71.9344737,43.1812774 71.9344737,39.6461374 C74.0055971,38.6202074 72.900128,36.6640428 73.0405642,35.0751251 C73.1530374,33.806228 72.8317741,32.5043967 72.7938687,31.2149934 C72.7391856,29.3793802 72.727379,27.5406601 72.7764695,25.7050469 C72.8000827,24.8183103 73.0051444,23.9365449 73.1660868,22.777014 C73.5662679,23.2138576 73.7166465,23.3785284 73.8719963,23.5481704 C74.0720868,22.7652074 74.0720868,22.7652074 72.8143749,21.9810016 C72.8143749,19.1412074 72.7926259,16.2057177 72.8205889,13.2708494 C72.8485519,10.3303885 72.9268481,7.39054897 72.9840169,4.39105514 C71.855556,4.39105514 70.5375683,4.49420741 69.2456794,4.35749959 C68.2539263,4.25310453 67.2963502,3.83863128 66.3195107,3.57888642 C66.1219058,3.52606749 65.904416,3.55340905 65.6968687,3.53414568 C64.6293049,3.43410041 64.0930374,2.73254074 64.1365354,1.20576296 C66.866342,1.03860658 69.6272185,0.865857613 72.3887165,0.709265021 C72.6030992,0.697458436 72.8410951,0.878285597 73.0380786,0.834166255 C75.9978029,0.171754733 79.0059963,0.677573663 81.9905765,0.451384362 C86.1551938,0.13571358 90.3434243,0.0760592593 94.5229551,0.018890535 C96.0130704,-0.00161563786 97.5081568,0.30224856 99.0001362,0.466297942 C99.3350704,0.502960494 99.6656547,0.583120988 99.9999675,0.624754733 C102.73226,0.963417284 105.457095,1.41641728 108.199951,1.59786584 C110.535169,1.75259424 112.234074,3.24519506 114.256729,4.03996461 C115.466593,4.51533498 116.695099,4.94534321 117.913042,5.40145021 C118.372256,5.57357778 118.835198,5.74073416 119.28012,5.94517449 C121.98507,7.18797284 124.252556,9.06273416 125.557494,11.6813103 C126.499535,13.5716066 126.863054,15.7893802 127.258885,17.9027588 C127.974737,21.7212568 127.43847,25.5428617 126.367799,29.1848823 C125.653811,31.6139317 124.463832,34.0491951 122.920898,36.043265 C121.560033,37.8024461 119.811416,39.4081416 117.524046,40.2749934 C115.344799,41.1014543 113.3644,42.4474049 111.194474,43.3061786 C108.331066,44.4396107 105.282482,44.7148905 102.207177,44.6477794 C100.730112,44.6160881 99.2511815,44.6428082 97.7734942,44.6428082 C97.6976835,44.7739235 97.6218728,44.9056601 97.5460621,45.0373967 M17.1544078,112.77115 L17.1544078,149.429351 C18.2853543,149.429351 19.4914901,149.405738 20.6963831,149.433701 C23.5834037,149.500812 26.4716671,149.549281 29.3562021,149.684747 C32.1493914,149.816483 34.9388523,150.038944 37.7289346,150.244006 C38.1757206,150.27694 38.6218852,150.534199 39.054379,150.501265 C40.3792021,150.400598 41.7065107,150.023409 43.0164202,150.087413 C47.0611074,150.283775 50.8311362,149.357891 54.2569099,147.312244 C56.3180909,146.081253 58.5190868,144.877602 59.6947741,142.573454 C60.2310416,141.521426 60.7523955,140.46194 61.2874202,139.408668 C61.7155642,138.564808 62.1505436,137.724677 62.58863,136.885788 C63.0521938,135.99843 62.5476177,135.072545 62.7122885,134.098812 C63.0813996,131.91708 62.8639099,129.591183 62.5873872,127.360981 C62.3848111,125.72173 61.5297658,124.168232 61.2830704,122.52836 C60.782844,119.195174 58.1922309,117.741722 55.6656218,116.687207 C53.2744778,115.688619 50.517951,115.510899 47.8993749,115.129981 C45.4734325,114.776405 43.0120704,114.679467 40.5774284,114.379331 C38.9381774,114.176755 37.3237823,113.89464 35.6602967,114.187319 C35.1917617,114.269965 34.6374737,114.126421 34.1832309,113.940002 C33.8041774,113.78403 33.5419469,113.756689 33.1075889,113.767253 C31.337844,113.813236 29.5593996,113.5305 27.8406095,113.373907 C24.2644572,113.935652 20.8150704,112.518862 17.1544078,112.77115 M16.9779305,152.631421 C16.8300374,168.41496 16.68463,183.928812 16.5404654,199.304714 C17.4843708,200.815956 18.8315642,200.470458 20.194914,200.413911 C23.029737,200.296467 25.8707741,200.32008 28.7093255,200.325051 C29.8222514,200.327537 30.9364202,200.5065 32.0474819,200.481644 C34.8624202,200.418882 37.6786012,200.156652 40.4879469,200.224384 C42.5913831,200.275339 44.6892267,200.212578 46.774021,200.090162 C49.7865642,199.912442 52.7910292,199.525932 55.7861733,199.133207 C60.0203872,198.578298 64.2067535,197.911537 67.2988358,194.444751 C68.8796753,192.671899 70.317593,190.77601 70.9874613,188.54208 C71.8785477,185.573035 72.4073584,182.491516 73.0132226,179.44231 C73.2530827,178.233689 73.5631609,176.929993 73.3450498,175.762384 C72.9374119,173.578166 72.1811691,171.456709 71.5367782,169.319718 C71.393235,168.843726 70.9532844,168.422417 70.9166218,167.955125 C70.6798687,164.920833 68.9933914,162.65024 66.875663,160.76243 C65.3693914,159.419586 63.507058,158.468845 61.7652761,157.40501 C61.5049099,157.246553 60.9562144,157.57403 60.6796918,157.42303 C60.2521691,157.188763 59.9451979,156.735142 59.7183872,156.507088 C59.1541568,156.593463 58.6042185,156.784853 58.0785148,156.732035 C57.2545395,156.65001 56.4523132,156.372866 55.6320663,156.230565 C53.2676424,155.821063 50.9063255,155.385463 48.5294737,155.061092 C46.5273255,154.787677 44.5040498,154.669611 42.4932021,154.457714 C40.9682885,154.296771 39.3694284,154.524825 37.9743872,153.639952 C36.182272,154.491891 34.3870498,153.725084 32.598663,153.628767 C29.7657041,153.475903 26.9389593,153.221751 24.1072432,153.036574 C21.7695395,152.883709 19.4287288,152.769372 16.9779305,152.631421 M10.7887947,172.097372 C10.4178193,170.719109 10.7229263,168.905244 11.0572391,166.782545 C10.1543461,165.703796 10.6266095,164.027882 10.5240786,162.449528 C11.7028728,162.002121 11.0883091,161.516808 10.653951,160.875524 C10.40477,160.507656 10.5097864,159.892471 10.4780951,159.387273 C10.4302473,158.636623 10.34263,157.882244 10.3842638,157.135944 C10.4165765,156.571714 10.6247453,156.016804 10.9982062,155.558833 C10.804951,155.021944 10.4538605,154.488162 10.4445395,153.948166 C10.3823996,150.28564 10.4103626,146.621249 10.3737,142.9581 C10.3376588,139.348393 10.2313996,135.739306 10.2096506,132.129598 C10.1872802,128.301779 10.2313996,124.473339 10.241342,120.64552 C10.2469346,118.420911 10.2419634,116.196923 10.2419634,114.166191 C9.53294691,113.337244 8.93453951,112.636928 8.19383169,111.770697 C7.86883992,111.661952 7.29528848,111.458755 6.71490165,111.279792 C6.34454774,111.165454 5.94063827,110.952314 5.59079053,111.011969 C2.88583992,111.472426 2.84979877,111.489825 1.32053539,110.956664 C1.5411321,110.358257 1.7629716,109.759849 2.03763004,109.016035 C4.13733786,109.886615 6.53842428,108.526372 8.35974527,109.901528 C9.98159712,109.901528 11.4387782,109.87543 12.8940951,109.907121 C15.7761444,109.969261 18.6979634,109.801483 21.5240868,110.240191 C23.2316918,110.505528 24.7982391,109.994117 26.4666959,110.167487 C28.7919716,110.409833 31.1781444,110.005923 33.5226835,110.14201 C38.2987576,110.418533 43.0829099,110.214714 47.8651979,110.689463 C51.5134325,111.051738 54.9236712,111.832837 58.092807,113.651051 C58.3805148,113.816343 58.6676012,113.99717 58.9099469,114.220253 C59.0659181,114.363796 59.1386218,114.598063 59.2069757,114.718615 C59.6344984,114.772677 60.1247823,114.683816 60.3677494,114.888878 C62.292844,116.513216 64.3235765,117.953619 65.6123584,120.303129 C67.7431362,124.186253 68.2620045,128.360812 68.5627617,132.629825 C68.5814037,132.896405 68.5323132,133.180384 68.4546383,133.438265 C67.8232967,135.521816 67.3541403,137.679314 66.4798317,139.656607 C65.8043708,141.184627 64.6821239,142.537413 63.6350663,143.870314 C62.8465107,144.873874 61.9659881,145.865627 60.943165,146.610063 C59.1000951,147.952286 57.1364737,149.132944 55.1821733,150.31236 C54.8143049,150.534199 54.2556671,150.437882 53.6957864,150.498158 C53.8797206,151.469405 54.7086671,151.596792 55.2890539,151.491154 C57.0097082,151.176726 58.5569922,151.708022 60.1471527,152.158537 C61.7565765,152.614022 63.3939634,152.971327 64.9977947,153.444212 C66.6768152,153.939467 67.9898317,154.977825 69.3724449,156.07273 C71.1024202,157.442915 72.604342,158.841063 73.510342,160.849426 C73.5314695,160.896652 73.5762103,160.948849 73.6221938,160.966249 C75.1974407,161.576463 75.8629593,162.96964 76.4110333,164.381458 C77.3735807,166.862084 78.4554366,169.330281 79.0718646,171.903495 C80.021984,175.869265 80.5483091,179.897796 79.0420374,183.920734 C78.4057247,185.620261 78.2572103,187.515528 77.5326588,189.166586 C75.9934531,192.673763 73.2077206,195.151903 70.2131979,197.44238 C68.7870868,198.532936 67.5772226,199.9025 66.2238152,201.094343 C65.7726794,201.491417 65.2159058,201.866121 64.6454613,202.015257 C62.1872062,202.657162 59.7314366,203.391035 57.2253337,203.750825 C54.2587741,204.177105 51.2437453,204.393973 48.2461156,204.434364 C45.9885724,204.465434 43.7248152,203.908039 41.464165,203.911767 C38.2179757,203.916117 34.9730292,204.307598 31.7262185,204.318162 C28.9206012,204.327483 26.1156053,204.002491 23.3081239,203.88629 C18.9421733,203.705463 14.5731156,203.438261 10.2077864,203.477409 C7.66253539,203.500401 5.12536255,204.080788 2.57700453,204.331833 C2.03390165,204.385895 1.45848601,204.101294 0.897362551,203.972664 C1.06265473,203.429561 1.12293045,202.82059 1.41498807,202.357648 C2.01836667,201.400693 2.88956831,201.081915 4.10129671,201.098072 C5.78031728,201.120442 7.46679465,200.784265 9.14395103,200.556212 C10.1549675,200.418882 10.7863091,199.809911 10.798737,198.764718 C10.832914,195.942323 10.8260786,193.119928 10.8223502,190.298154 C10.8161362,185.558742 10.7999798,180.819952 10.7887947,176.081162 C10.7863091,174.910446 10.7887947,173.740351 10.7887947,172.097372 M219.683313,162.57008 C219.111626,161.57957 218.587786,160.85564 218.254095,160.052792 C217.637667,158.571376 217.457461,156.785475 216.509828,155.592388 C214.798494,153.438619 214.466046,150.717512 213.008865,148.474882 C211.769795,146.56843 210.901079,144.408446 209.980165,142.311845 C209.510387,141.241796 209.285441,140.064866 208.844869,138.58345 C207.891021,138.193833 207.026033,137.203944 207.026033,135.609434 C207.026033,135.450356 207.000556,135.237837 206.899889,135.139035 C205.107153,133.379853 204.354638,131.027236 203.306959,128.846125 C202.995017,128.196763 202.877572,127.446734 202.525239,126.824714 C201.181774,124.452212 200.319272,121.895154 199.477276,119.32194 C199.392144,119.061574 198.998177,118.902495 198.689963,118.648343 C192.730745,133.787491 185.367786,148.084022 179.5024,163.185886 C181.879251,163.292146 183.954725,163.479808 186.079288,163.425747 C190.042572,163.32508 194.017042,163.581718 197.982811,163.762545 C198.779445,163.798586 199.561165,164.16024 200.465301,164.402586 C200.515634,164.35101 200.703918,163.988113 200.893445,163.987491 C207.03784,163.957664 213.182235,163.963257 219.328494,163.963257 C219.485708,163.344965 219.605638,162.873323 219.683313,162.57008 M95.3376095,114.321541 C92.5431774,114.151899 89.6157658,113.973557 86.773486,113.800808 C86.2645601,112.617664 86.2645601,112.617664 86.9897329,110.077384 C89.3032021,110.028294 91.7005601,109.788434 94.0668481,109.966154 C99.0330704,110.338993 103.986243,110.128339 108.948116,110.031401 C111.322482,109.985417 113.700577,110.156302 116.07805,110.204771 C116.3844,110.210985 116.698206,110.087948 117.001449,110.000952 C117.32147,109.908985 117.625955,109.756742 117.949083,109.687146 C119.168889,109.423051 120.300457,110.2085 121.622795,109.810804 C122.868079,109.436722 124.28549,109.598907 125.627091,109.603257 C126.193186,109.605121 126.949428,110.095405 127.292441,109.869216 C129.187708,108.616475 131.194828,109.779113 133.122408,109.452878 C134.497564,109.220475 135.921811,109.253409 137.325552,109.225446 C138.487568,109.201833 139.65207,109.248438 140.814708,109.288829 C144.10626,109.402545 147.39719,109.516261 150.686877,109.659183 C151.52328,109.695845 152.352848,109.882265 153.189251,109.929491 C154.834095,110.02208 154.284157,111.295948 154.711679,112.09631 C155.128638,113.143989 155.585367,114.178619 155.953235,115.243697 C156.505659,116.841936 156.797095,118.561969 157.553338,120.05022 C159.047803,122.991302 159.748741,126.11694 160.293087,129.317767 C160.488828,130.465491 160.819412,131.590224 161.13384,132.916911 C160.987811,133.146207 160.731795,133.548253 160.321671,134.192644 C159.767383,133.815454 158.915445,133.554467 158.702926,133.032491 C157.912507,131.090619 156.779074,129.207158 157.072375,126.9608 C157.097231,126.772516 157.004642,126.559376 156.934424,126.369849 C156.573391,125.398602 156.229136,124.42052 155.828334,123.46543 C155.00498,121.504294 154.333869,119.549372 153.058758,117.706923 C151.581692,115.574281 150.267433,114.792561 147.619651,114.820524 C142.363856,114.87645 137.101227,114.290471 131.841083,113.981014 C129.047893,113.816343 126.25284,113.562191 123.458408,113.55722 C120.622963,113.551627 117.78814,113.844928 114.951453,113.930059 C112.430437,114.006491 109.90507,113.935652 107.384054,114.008977 C105.928737,114.051232 104.478391,114.250701 102.716725,114.406672 C102.716725,115.796121 102.735367,117.089874 102.712996,118.383006 C102.649614,122.098351 102.570074,125.813076 102.497371,129.528421 C102.486186,130.126207 102.444552,130.726479 102.479972,131.321779 C102.581881,133.025656 102.795021,134.725804 102.819256,136.429681 C102.849704,138.600228 102.700568,140.772018 102.69684,142.943808 C102.693112,145.219993 102.795021,147.496179 102.797507,149.772364 C102.798749,150.759146 102.66577,151.745306 102.566967,153.094985 C104.439243,153.094985 106.108321,153.131648 107.774914,153.087528 C112.396881,152.966356 117.016984,152.766265 121.639572,152.687347 C124.020774,152.646335 126.406326,152.761294 128.787527,152.87066 C130.321762,152.9415 130.917062,152.561203 131.513605,151.237002 C132.026881,150.096113 132.722227,149.037249 133.337412,147.942343 C134.606309,148.349981 135.036317,148.995615 135.063659,150.020923 C135.122692,152.199549 135.282391,154.375689 135.31284,156.554314 C135.331482,157.928228 135.230194,159.308356 135.098457,160.677919 C135.056202,161.11787 134.745502,161.531722 134.550383,161.975401 C132.418984,161.565899 133.146642,159.863886 132.702342,158.63103 C131.086704,158.621088 131.140766,157.128487 130.645511,155.93043 C121.323902,156.402693 111.968737,155.282932 102.695597,156.962574 C101.697009,160.017993 102.258753,163.323837 102.144416,166.533985 C102.038157,169.496816 102.12391,172.507495 102.019515,175.502018 C101.971667,176.872203 102.229548,178.250467 102.289823,179.627487 C102.39049,181.911129 102.726667,184.232677 102.437095,186.470956 C102.15063,188.688109 102.398568,190.858656 102.33705,193.047224 C102.261239,195.748446 102.376198,198.455882 102.412239,201.452891 C104.157749,201.48396 105.649729,201.556664 107.139223,201.526216 C109.937383,201.469047 112.733679,201.290705 115.531219,201.275792 C119.132848,201.256528 122.735721,201.401936 126.336729,201.366516 C127.868478,201.350981 129.395877,201.037796 130.928869,200.896117 C132.243749,200.775565 133.568572,200.752574 134.880346,200.605923 C137.898482,200.268504 140.932774,200.007516 143.920461,199.486784 C148.475939,198.692014 152.799013,197.150323 156.743655,194.69766 C157.584408,194.175063 158.294046,193.390236 158.949622,192.627779 C163.743095,187.049479 168.194177,181.230697 170.567301,174.151096 C171.584531,171.11494 172.862749,168.22357 174.222371,165.332821 C175.619276,162.362533 176.650177,159.219495 177.835186,156.149784 C177.915967,155.941615 177.881791,155.664471 178.007935,155.501664 C179.745367,153.248471 180.113235,150.386306 181.395181,147.915623 C182.577704,145.633845 183.301634,143.1178 184.293387,140.732249 C185.175774,138.608306 186.098552,136.488092 186.999581,134.385277 C187.713568,132.718685 188.569856,131.076948 189.209276,129.355051 C190.020202,127.172697 191.109515,125.094117 192.055906,122.960853 C193.11912,120.565981 194.091609,118.129475 195.222556,115.768158 C196.499531,113.101734 197.895194,110.492479 199.278428,107.878874 C199.433778,107.584331 199.841416,107.423388 200.235383,107.120767 C201.167482,108.746969 202.665675,109.794026 202.967054,111.689915 C203.063371,112.297644 203.967507,112.733244 204.253972,113.360858 C205.905651,116.973051 207.480276,120.620664 209.08535,124.253985 C209.96028,126.233142 210.883058,128.191792 211.715112,130.188347 C212.78454,132.755969 213.699239,135.390701 214.834535,137.927253 C216.423453,141.476063 218.15405,144.96087 219.824371,148.473018 C219.944922,148.726549 220.108972,148.968273 220.184782,149.234853 C220.873293,151.667631 222.18693,153.837557 223.089823,156.185825 C224.210206,159.09708 225.566099,161.92196 226.906457,164.743734 C228.574914,168.255261 230.353358,171.71459 232.031136,175.222388 C232.382848,175.956261 232.418268,176.838648 232.748852,177.586812 C233.283256,178.797919 233.953745,179.948751 234.544696,181.135623 C235.588647,183.232845 236.678581,185.310804 237.629321,187.450281 C238.310375,188.982652 238.703099,190.645516 239.403416,192.167323 C239.820375,193.075187 240.679149,193.771154 241.166947,194.657269 C241.758519,195.731668 242.077918,196.957067 242.675704,198.027117 C243.893647,200.205742 246.030017,201.388886 248.034029,202.697553 C249.492453,202.251388 250.804848,204.2728 252.24028,202.718681 C252.591992,203.384199 252.828745,203.832849 253.191642,204.520117 C250.717852,205.124738 248.431103,205.181907 246.097128,204.581014 C245.574531,205.403747 243.598482,205.515598 242.503577,204.745685 C241.222251,205.986619 239.708523,204.700944 238.218408,205.14338 C236.619548,205.618129 234.704395,204.988652 232.924708,204.905384 C231.230774,204.826467 229.566046,204.681059 227.975264,203.980742 C228.137449,202.360133 229.190099,202.27873 230.278169,202.265681 C231.390474,202.252631 232.505885,202.309179 233.612597,202.233368 C234.19547,202.192977 234.763428,201.935718 235.185358,201.818895 C236.334326,199.389845 233.797774,197.715174 234.272523,195.472545 C233.840029,195.076714 232.845791,194.852388 233.376465,193.787932 C232.092655,192.880067 232.365449,191.169356 231.459449,190.062644 C231.320877,189.893623 231.236367,189.666812 231.171741,189.453051 C230.120334,185.976323 227.731054,183.154549 226.447243,179.789672 C226.040848,178.725837 225.831437,177.656409 225.643153,176.531677 C225.43747,175.306899 224.399112,174.239956 223.821832,173.056812 C222.969893,171.309438 222.20433,169.52043 221.387811,167.717129 C219.050729,167.717129 216.75963,167.707187 214.46791,167.720236 C212.758441,167.729557 211.048972,167.781133 209.339502,167.787347 C208.336564,167.791076 207.333005,167.725829 206.329445,167.719615 C202.77877,167.696623 199.226852,167.639454 195.676799,167.684195 C192.687869,167.720858 189.700803,167.889257 186.712494,167.980602 C186.002235,168.002351 185.287626,167.906035 184.577988,167.936483 C182.97105,168.005458 181.367219,168.158323 179.759659,168.194364 C179.145716,168.208035 178.526181,167.996759 177.558663,167.826495 C177.269091,168.451002 176.880716,169.276841 176.50042,170.106409 C174.658593,174.123133 172.975844,178.222504 170.932062,182.132969 C169.058544,185.717821 167.239087,189.382833 164.270042,192.284146 C162.389688,194.121623 160.7697,196.256129 158.751395,197.915265 C155.772408,200.364199 152.364655,202.18987 148.612647,203.216421 C147.461194,203.531471 146.213424,203.514072 145.006667,203.604796 C142.371313,203.803022 139.735338,204.006841 137.096256,204.145413 C135.025132,204.254158 132.949659,204.292685 130.875428,204.320648 C126.333622,204.381545 121.791194,204.418829 117.248766,204.459841 C114.253622,204.487183 111.258478,204.480969 108.263955,204.531302 C105.09047,204.584121 101.918227,204.746928 98.7453626,204.748792 C95.4040992,204.750656 92.0634572,204.595928 88.7221938,204.558022 C87.8224078,204.54808 87.1724243,204.321269 86.9313214,203.351886 C87.0947494,202.056891 88.1430498,202.307314 88.9862885,202.286808 C90.5752062,202.248281 92.1647453,202.275623 93.5082103,202.275623 C93.9991156,201.689644 94.2402185,201.219244 94.625486,200.975035 C95.9509305,200.134903 96.1628276,198.787088 96.2007329,197.450458 C96.2808934,194.649191 96.2293173,191.842952 96.2231033,189.039199 C96.2106753,183.944347 96.2100539,178.849495 96.1684202,173.754644 C96.147914,171.190129 95.9925642,168.626236 95.9993996,166.062343 C96.0068564,163.077763 96.1535066,160.093804 96.1839551,157.109224 C96.1988687,155.608545 96.0379263,154.107244 96.0472473,152.606565 C96.0758317,148.265471 96.1709058,143.924376 96.1988687,139.58266 C96.2187535,136.378105 96.1559922,133.172928 96.163449,129.968372 C96.1702844,127.093779 96.2094325,124.219187 96.258523,121.345216 C96.2970498,119.060952 96.4300292,116.771096 95.3376095,114.321541 M272.888753,157.230397 C274.821926,157.390718 276.691095,157.452236 278.529815,157.720681 C281.062017,158.090413 283.635231,158.224014 286.071116,159.19464 C287.568066,159.791183 289.151391,160.326207 290.739066,160.50517 C293.16563,160.779207 295.627614,160.790393 298.080898,160.696561 C298.443173,160.682269 298.817877,160.995454 299.067058,161.104199 C299.586548,160.897273 300.017799,160.65617 300.478877,160.55364 C302.332511,160.142895 304.208515,159.82536 306.052206,159.375467 C307.638017,158.988956 309.168523,158.355129 310.764898,158.030759 C314.322408,157.30745 316.298457,154.486919 318.708865,152.236833 C318.89777,152.060356 318.959288,151.744063 319.07114,151.48929 C319.959741,149.454207 320.845856,147.424718 322.414889,145.778631 C322.692655,145.486574 322.810099,144.990697 322.887153,144.567524 C323.22333,142.721969 323.380544,140.832915 323.857157,139.027129 C324.641984,136.052491 324.195819,133.098981 323.57007,130.261672 C322.884046,127.150327 320.696099,124.728113 318.344725,122.674388 C316.483013,121.048187 314.332972,119.727092 312.213379,118.430853 C310.802181,117.56773 309.22942,116.961244 307.707614,116.289512 C306.910358,115.937179 306.087005,115.535755 305.240037,115.426388 C301.905609,114.995137 298.563103,114.589364 295.211276,114.329619 C291.47791,114.040047 287.732737,113.851142 283.989428,113.745504 C280.616474,113.649808 277.239791,113.724998 273.767412,113.724998 C273.612062,114.166812 273.357288,114.576936 273.341132,114.995137 C273.292663,116.256578 273.44677,117.53231 273.323112,118.783187 C273.024219,121.821207 272.667535,124.821944 273.093815,127.907191 C273.385251,130.017463 273.089465,132.205409 273.112457,134.357936 C273.124885,135.472726 273.324976,136.586895 273.323733,137.701063 C273.321247,139.700105 272.593589,141.663105 273.090708,143.707508 C273.199453,144.156779 272.779387,144.735302 272.706062,144.951549 C273.247922,149.081368 272.875704,152.969463 272.888753,157.230397 M272.86514,160.799092 C272.77628,162.479356 272.63833,164.049631 272.623416,165.621771 C272.601667,167.879936 273.465412,170.034327 272.862033,172.422985 C272.376099,174.346837 272.765095,176.496878 272.793679,178.545631 C272.861412,183.331026 272.92728,188.117043 273.030433,192.901816 C273.084494,195.399841 273.227416,197.896002 273.306334,200.393405 C273.331811,201.187553 273.557379,201.726306 274.360848,202.109709 C274.978519,202.404874 275.431519,203.044915 275.957844,203.532092 C276.983774,202.430973 280.663079,202.31415 282.728609,203.382335 C282.741659,204.290821 282.319107,204.807825 281.362774,204.873072 C278.237758,205.086833 275.113984,205.343471 271.985239,205.479557 C271.308535,205.509384 270.61319,205.105475 269.840169,204.876179 C267.929988,205.622479 265.800453,205.09864 263.715037,205.167615 C261.672498,205.235347 259.625609,205.182528 257.392301,205.182528 C257.219552,204.745063 257.003926,204.200718 256.697577,203.42459 C258.027371,202.985882 259.183795,202.604343 260.261922,202.248281 C261.799885,203.983228 262.551157,203.960236 263.11228,202.288672 C263.603186,202.288672 264.10714,202.261952 264.606745,202.296751 C265.023083,202.325956 265.434449,202.426623 265.973823,202.516726 C265.852029,202.051298 265.760062,201.700207 265.637025,201.23043 C266.953149,200.630158 266.761136,199.483677 266.704589,198.292454 C266.603922,196.184668 267.034552,193.970002 266.516926,191.989602 C266.069519,190.277026 266.58528,188.771998 266.587766,187.188672 C266.590251,185.858878 266.439873,184.54524 266.452922,183.22601 C266.457893,182.711491 266.737523,182.20008 266.951284,181.489821 C266.951284,180.651553 267.037659,179.547327 266.9314,178.461742 C266.773564,176.85294 266.342935,175.263401 266.275823,173.655841 C266.181371,171.376549 266.34542,169.087314 266.334235,166.803051 C266.328021,165.575788 266.079461,164.344174 266.129795,163.122504 C266.237297,160.513249 266.454165,157.907722 266.670412,155.304059 C266.69154,155.047421 267.017153,154.816261 267.092963,154.716216 C266.88293,154.123401 266.546132,153.600183 266.53619,153.071372 C266.492692,150.828742 266.387054,148.568092 266.603301,146.343483 C266.899708,143.307948 266.591494,140.283598 266.717638,137.253656 C266.864288,133.7471 266.80712,130.232467 266.846889,126.721561 C266.888523,123.065249 266.944449,119.408936 266.982976,115.752002 C266.987326,115.308944 266.922079,114.864644 266.885416,114.37436 C264.20035,113.529257 261.576181,113.817586 258.94207,114.324026 C256.891453,113.041458 256.823721,112.818376 258.10256,111.526487 C257.915519,111.514059 257.732206,111.501631 257.549515,111.489825 C257.516581,111.396615 257.483647,111.304026 257.450712,111.210816 C257.963367,111.039932 258.478507,110.713076 258.987433,110.722397 C263.309885,110.79945 267.630474,110.972199 271.952926,111.046767 C275.231428,111.102693 278.51428,111.129413 281.790297,111.01694 C282.93305,110.97717 283.973893,111.482989 285.194321,111.196524 C286.317811,110.933051 287.592922,111.401586 288.801544,111.398479 C291.243642,111.391644 293.68512,111.258664 296.12784,111.224487 C297.978367,111.198388 299.733819,111.579928 301.37742,112.766179 C301.522828,112.481578 301.659535,112.214376 301.779465,111.979487 C303.792799,111.979487 305.804268,111.873228 307.799581,112.006829 C310.209367,112.167771 312.543342,112.658677 314.747445,113.807022 C317.087634,115.026207 319.122095,116.678508 321.326198,118.054907 C324.310157,119.918483 326.081144,122.727829 327.873881,125.444586 C329.52991,127.953796 331.101428,130.707216 331.536408,133.783763 C331.822251,135.80331 331.642667,137.889347 331.664416,139.946179 C331.686165,141.981261 331.532058,143.953582 330.204749,145.671751 C329.931955,146.024705 330.087926,146.687738 329.986638,147.195421 C329.461556,149.827047 327.089675,151.327726 326.023354,153.607018 C325.103062,155.573747 323.592441,157.065105 322.173786,158.57759 C321.230502,159.584257 319.740387,160.121767 318.429235,160.72701 C317.135482,161.324174 315.769647,161.774067 314.416239,162.229553 C313.129943,162.662668 311.835568,163.101376 310.512609,163.390948 C308.47442,163.837113 306.418832,164.236672 304.351437,164.503874 C303.077568,164.667923 301.767659,164.552343 300.473906,164.557314 C299.48526,164.561043 298.496614,164.557936 297.338947,164.856829 C297.785733,165.162557 298.24184,165.455858 298.677441,165.7765 C300.791441,167.334347 302.920354,168.874174 305.000177,170.478006 C305.655753,170.983203 306.157844,171.68352 306.756873,172.267635 C308.056219,173.534668 309.373585,174.783681 310.682873,176.041393 C311.407424,176.73736 312.153103,177.413442 312.844721,178.139858 C313.308284,178.626413 313.522667,179.30001 314.342293,179.496372 C314.653614,179.57094 314.800264,180.329668 315.161918,180.551508 C316.084696,181.311479 317.014309,182.063372 317.927766,182.83515 C318.474597,183.296849 319.012107,183.772841 319.525383,184.272446 C320.398449,185.12252 321.224288,186.022306 322.114753,186.852495 C322.962963,187.642294 323.867721,188.371816 324.750107,189.124952 C325.985449,190.178224 327.185992,191.277479 328.469803,192.267989 C329.790276,193.287084 331.300276,194.080611 332.526297,195.194158 C333.548498,196.122528 335.042963,196.380409 335.687354,197.476557 C336.306889,197.658006 336.836321,197.712067 337.258873,197.95317 C339.444334,199.202804 341.503029,200.72896 343.794749,201.723199 C346.645729,202.960405 349.660136,203.868269 352.828651,203.978878 C356.235782,204.098187 359.646021,204.320648 363.051288,204.2641 C365.419441,204.224952 367.785107,203.824771 370.143317,203.522771 C372.302679,203.246249 374.448371,202.868438 376.604005,202.564574 C380.825791,201.969895 384.731284,200.586039 388.395054,198.352109 C391.783544,196.285956 393.760214,193.149133 395.592099,189.832105 C395.674124,189.684212 395.725079,189.496549 395.847494,189.397747 C397.567527,188.007055 397.648309,185.874413 397.952795,184.010837 C398.302021,181.872602 398.008721,179.62873 397.980758,177.430841 C397.978272,177.238207 397.905568,177.025067 397.804902,176.85729 C396.901387,175.344183 396.897037,175.346047 397.359358,173.544611 C395.525609,169.319718 392.390651,166.248763 388.266424,164.210574 C385.615535,162.899421 382.731,162.030705 380.166486,160.582224 C377.346577,158.989578 374.143264,158.857841 371.249408,157.685261 C369.492091,156.973137 367.825498,156.039174 366.111058,155.218928 C365.76991,155.0555 365.392721,154.827446 365.042251,154.843602 C362.393848,154.967882 360.153083,153.64803 357.78493,152.807277 C357.400906,152.671191 357.168502,152.108825 356.777021,151.635319 C356.094725,152.220677 355.282556,151.834788 354.376556,151.266207 C352.484395,150.077471 350.480383,149.067697 348.597544,147.865911 C347.684087,147.282417 346.939029,146.434207 346.123753,145.698471 C346.044836,145.62701 346.031165,145.438105 345.954733,145.415113 C343.11121,144.571253 342.603527,141.731458 341.083585,139.754788 C339.935239,138.261565 339.89112,136.505491 339.489696,134.768681 C338.661371,131.185072 339.643803,127.917133 340.497605,124.605076 C341.069914,122.384195 342.131264,120.401932 344.036474,118.893796 C346.092062,117.266351 347.977387,115.423281 349.936659,113.674664 C349.816729,113.574619 349.696799,113.475195 349.576247,113.37515 C351.351585,112.725788 353.118223,112.053434 354.904124,111.433899 C357.14054,110.657771 359.411753,110.242677 361.822161,110.276853 C363.619869,110.302952 365.433112,109.827582 367.224605,109.495755 C368.253021,109.304985 369.127951,109.377689 369.612642,110.033886 C370.655972,110.08857 371.51226,110.07117 372.349284,110.190479 C374.120272,110.443388 375.911766,110.647829 377.638013,111.092751 C379.642025,111.609755 381.597568,112.329335 383.551247,113.025923 C385.07119,113.568405 386.555712,114.211553 388.05577,114.80996 C388.256482,114.890121 388.495099,114.927405 388.65107,115.060384 C391.159659,117.211047 394.556848,116.703364 396.286202,113.90831 C396.908223,112.902265 397.079729,112.79352 398.702202,112.438701 C398.805354,113.316117 399.037758,114.191668 398.983074,115.048578 C398.859416,116.997286 398.559902,118.934187 398.397716,120.881652 C398.27033,122.405323 398.183955,123.937072 398.186441,125.464471 C398.189548,127.102479 397.87512,128.738002 398.223725,130.392166 C398.289593,130.703487 397.632774,131.167051 397.309025,131.561018 C396.933079,131.222977 396.229033,130.879343 396.234626,130.548759 C396.270667,128.504356 394.896753,127.273985 393.73598,125.938598 C392.047638,123.996105 390.455614,121.91131 388.494478,120.28138 C386.806136,118.87764 384.737498,117.844253 382.699309,116.96808 C378.314716,115.084619 373.61321,114.617327 368.899276,114.371253 C365.98305,114.219631 363.056881,114.012705 360.143762,114.102187 C356.497391,114.21466 353.380453,115.771265 350.68793,118.219578 C348.649741,120.07259 347.000548,122.236923 345.728544,124.648574 C345.252552,125.550845 345.235153,126.707269 345.068618,127.757434 C344.938124,128.580788 345.02512,129.453853 344.801416,130.244895 C343.329943,135.444142 347.653638,141.190841 351.863618,142.721969 C355.263914,143.959174 358.558572,145.485331 361.94147,146.774113 C365.054679,147.959742 368.226301,148.991265 371.364988,150.109784 C372.157272,150.39252 372.952042,150.69452 373.695856,151.082895 C375.088412,151.811174 376.49526,152.321343 378.092877,152.555611 C380.280202,152.875631 382.430865,153.524372 384.55605,154.170006 C386.957758,154.90015 389.313482,155.782537 391.780437,156.630747 C391.836984,157.045841 391.900988,157.519347 391.995441,158.218421 C392.434149,157.803948 392.749198,157.505677 393.309079,156.976866 C394.911046,158.402977 396.665877,159.720343 398.110009,161.318582 C399.597017,162.964047 400.851,164.836323 402.080128,166.693063 C403.831231,169.33836 404.42591,172.329775 404.460087,175.472191 C404.4837,177.611047 404.584988,179.751146 404.711132,181.886895 C404.827955,183.853002 404.778243,185.945253 403.701358,187.493779 C402.29886,189.511463 401.696103,192.023779 399.657914,193.668623 C398.6034,194.51994 397.914268,195.822393 397.050523,196.91357 C396.88026,197.129816 396.694461,197.350413 396.471379,197.505763 C394.82405,198.651623 393.260609,199.966504 391.488379,200.871261 C389.004647,202.139537 386.364943,203.10457 383.787379,204.18829 C382.786926,204.608356 381.761618,204.968767 380.769243,205.405611 C377.162021,206.993907 373.306239,207.195862 369.463507,207.628356 C367.473165,207.852059 365.46356,207.944648 363.46949,208.230491 C361.418251,208.524413 359.266346,208.23857 357.170367,208.067685 C354.510157,207.850816 351.844354,207.600393 349.212107,207.17287 C345.629741,206.589998 342.11635,205.71631 338.780058,204.201339 C335.69854,202.801948 332.512005,201.62564 329.475227,200.139874 C327.53584,199.190998 325.78598,197.855611 323.948502,196.698565 C322.798293,195.974635 321.636898,195.269347 320.490416,194.539203 C318.497589,193.270306 316.482391,191.950454 315.208523,189.935878 C313.727729,187.595689 311.119095,186.551117 309.43386,184.484343 C308.389288,183.203018 307.325453,181.935364 306.224955,180.701886 C305.902449,180.340232 305.420865,180.1215 305.017577,179.830063 C302.785511,178.215047 301.13756,176.048849 299.399507,173.956598 C298.512149,172.887792 297.376231,172.02529 296.488251,170.956483 C293.71619,167.621434 290.026943,165.686397 286.260642,163.722154 C282.745387,161.889026 278.950502,161.81508 275.238264,161.137133 C274.580823,161.017203 273.914684,160.946985 272.86514,160.799092" id="Fill-1" fill="#FFFFFF" mask="url(#mask-2)"></path>
            </g>
        </g>
    </g>
</svg>