<svg width="345" height="35" viewBox="0 0 345 35" version="1.1" xmlns="http://www.w3.org/2000/svg" xmlns:xlink="http://www.w3.org/1999/xlink"><defs><path id="path-1" d="M.6.577h16.887v30.306H.6z"/><path id="path-3" d="M.053.27h15.498v29.063H.053z"/></defs><g id="Chosen-ones" stroke="none" stroke-width="1" fill="none" fill-rule="evenodd"><g id="Home-Logo-2---b" transform="translate(-425 -1300)"><g id="Group-43" transform="translate(425 1300)"><path d="M10.1 15.661c1.589-.61 2.322-2.197 2.077-3.786-.082-.326-.082-.691-.122-1.018-.204-1.1-1.058-1.994-2.525-2.117l-.895-.123a36.971 36.971 0 00-3.502-.244c-.203 3.502-.244 6.636-.284 7.534.406.12.813.12 1.261.12h1.06c.326 0 2.24-.04 2.932-.366M.003 32.071c-.04-.123.326-1.06.367-1.222.163-.773.325-2.89.365-3.298 0-.774 0-1.547.042-2.32 0-.896.162-5.172.081-9.244v-2.28c.163-3.258.367-4.072-.04-7.003-.123-.367-.164-.773-.327-1.18l-.202-.53c-.204-.447 0-.489.244-.489.61 0 2.605.082 4.153.164.407 0 5.415.243 6.35.284 1.955.326 4.235 2.322 4.725 4.398.162.733.202 1.465.202 2.198.042.978-.244 3.258-1.26 5.212-.328.448-.653.855-1.06 1.222-.408.406-.896.652-1.425.896-.57.244-1.1.528-1.75.65-.245.082-.53.123-.855.163-.896.123-1.63.327-2.892.327-.732 0-1.343-.123-1.872-.082-.042.367 0 .732-.082 1.099-.04.937-.245 6.76-.326 8.143 0 .734.326 1.425.49 2.688.08.326-2.526.326-4.073.285-.367.041-.815 0-.855-.081" id="Fill-1" fill="#FFF"/><path d="M29.484 10.369c-.406-.734-.529-1.1-1.873-1.303-.773-.163-2.157-.285-3.012-.245-.693 0-1.344.162-1.955.204-.04.488 0 .936 0 1.384l-.122 2.442c-.04.775 0 2.078-.04 2.851.202 0 3.134-.121 4.07-.121.692-.042 1.548-.856 1.874-1.14.896-1.06.652-1.467 1.017-2.078-.04-.04 0-.122.041-.202.163-.53.163-1.182 0-1.792m3.868 4.072c-1.14 2.768-2.157 3.46-3.868 4.193.571 2.117 1.1 3.095 2.076 6.515.367 1.302.775 2.361 1.263 4.112.204.773 1.181 2.157 1.303 2.606.041.163-.244.163-.488.243l-4.276-.08c-.61 0-.855-.083-.936-.245.162-.732.53-1.018.244-2.566-.448-1.709-.978-3.378-1.343-5.048l-.693-2.565c-.163-.57-.326-1.465-.61-2.443-.814 0-2.037.122-2.606.163h-1.182c0 .732-.08 1.425-.08 2.157 0 .246-.164 2.607-.082 3.991-.203 1.465.162 3.99.49 5.579.04.284.243.732.243.692.04.162-.123.162-.244.162-.652 0-3.95.244-4.479.123-.366 0-.366-.041-.366-.083-.042-.365.121-.65.244-.936.57-1.18.57-4.356.53-5.537 0-.367 0-.733-.042-1.14.041-.896.164-7.573.204-9.243.041-1.385.204-6.392.122-7.044-.204-1.18-.61-2.484-.773-3.257 0-.244.284-.284.488-.284.815 0 3.664.203 4.683.243.448.082 5.008.041 5.13.041a4.46 4.46 0 011.058.244c1.262.285 2.606 1.181 3.624 3.665.162.895.896 2.972.366 5.742" id="Fill-3" fill="#FFF"/><path d="M46.872 19.937c.123-.082-.53-2.484-.977-4.398-.163-1.098-.53-3.664-.734-3.745-.121.121-1.832 7.98-1.79 8.184.12.04.854.04 1.14.04.936 0 2.238 0 2.36-.081M35.717 31.705c.407-.694.936-3.218 1.628-5.09.245-.937.57-1.874.815-2.81.244-.936.57-1.832.814-2.77.53-1.872 1.059-3.704 1.67-5.537.285-.936.61-1.832.854-2.768.244-.936.448-1.913.692-2.85.692-3.054.896-3.502.815-4.113-.204-1.18-.081-1.18.448-1.18 1.221.04 1.873-.04 3.379-.04.204-.04 1.018-.082.977.202l-.284.856c-.081.65 1.832 8.794 2.728 13.15.163.734 1.79 6.923 1.995 7.86.162.692.652 3.663.692 3.867.04.367.162.488.244.61.529.449.04.409-.203.409h-1.792c-.53 0-2.117.204-2.199 0-.081-.368.204-.936.082-1.548-.042-.244-.286-1.018-.367-1.506l-.367-2.525c-.04-.448-.284-1.588-.406-1.955-1.832 0-3.583.042-4.56.042-.408.041-.938.041-1.14.041-.163.61-.244 1.18-.408 1.75-.082.814-.203 1.22-.284 1.67-.164.936-.896 2.28-1.263 3.785.041.246.367.408.367.53.04.162-.082.162-.286.122-1.628 0-3.257.244-5.05.244-.08-.204.165-.08.409-.446" id="Fill-5" fill="#FFF"/><path d="M55.547 31.867c0-.123.325-.977.406-1.263l.246-1.588c.04-.244.162-.854.202-1.546a9.45 9.45 0 00.123-1.63c.04-.61 0-1.18 0-1.75.04-.57.081-1.14.081-1.71-.081-1.18-.041-2.32-.041-3.46 0-1.02.083-4.642.083-5.213-.042-.407 0-2.321 0-2.565 0-.122 0-1.059-.042-1.71 0-.652-.081-1.589-.244-2.525-.081-.407-.122-1.099-.285-1.67-.041-.12-.081-.325 0-.406.123-.081.773-.123 1.221-.163.163 0 2.159.203 2.891.244.652 0 .896-.122 1.019.042.162.204-.204 1.302-.367 1.71-.041.122-.163.774-.163.976.04 2.2-.041 1.1 0 2.443-.041.53-.041 1.1-.081 1.63l-.123 3.257c-.081 1.79-.081 3.012-.041 4.966 0 .531 0 1.1-.04 1.63-.041 1.058-.081 2.158-.204 3.216-.081.977-.121 2.768-.121 3.136.04 1.953-.042 2.524.365 3.664.083.122.123.285.041.406-.57.286-4.072 0-4.56.042-.162 0-.285 0-.366-.163" id="Fill-7" fill="#FFF"/><path d="M76.476 10.369c-.407-.734-.53-1.1-1.874-1.303-.773-.163-2.157-.285-3.012-.245-.693 0-1.344.162-1.954.204-.042.488 0 .936 0 1.384l-.123 2.442c-.04.775 0 2.078-.04 2.851.203 0 3.135-.121 4.07-.121.693-.042 1.549-.856 1.874-1.14.896-1.06.652-1.467 1.017-2.078-.04-.04 0-.122.042-.202.162-.53.162-1.182 0-1.792m3.868 4.072c-1.14 2.768-2.158 3.46-3.868 4.193.57 2.117 1.1 3.095 2.076 6.515.366 1.302.774 2.361 1.262 4.112.204.773 1.182 2.157 1.303 2.606.041.163-.244.163-.488.243l-4.276-.08c-.61 0-.855-.083-.936-.245.163-.732.53-1.018.244-2.566-.448-1.709-.977-3.378-1.343-5.048l-.693-2.565c-.163-.57-.325-1.465-.61-2.443-.814 0-2.037.122-2.606.163h-1.181c0 .732-.082 1.425-.082 2.157 0 .246-.162 2.607-.08 3.991-.204 1.465.162 3.99.488 5.579.04.284.244.732.244.692.04.162-.122.162-.244.162-.652 0-3.949.244-4.478.123-.367 0-.367-.041-.367-.083-.041-.365.121-.65.244-.936.57-1.18.57-4.356.53-5.537 0-.367 0-.733-.042-1.14.041-.896.164-7.573.204-9.243.041-1.385.204-6.392.123-7.044-.204-1.18-.61-2.484-.774-3.257 0-.244.284-.284.488-.284.815 0 3.664.203 4.683.243.448.082 5.008.041 5.13.041a4.46 4.46 0 011.058.244c1.263.285 2.607 1.181 3.624 3.665.163.895.896 2.972.367 5.742" id="Fill-9" fill="#FFF"/><path d="M84.173 31.867c0-.123.325-.977.406-1.263l.246-1.588c.04-.244.162-.854.202-1.546a9.45 9.45 0 00.123-1.63c.04-.61 0-1.18 0-1.75.04-.57.081-1.14.081-1.71-.08-1.18-.04-2.32-.04-3.46 0-1.02.082-4.642.082-5.213-.042-.407 0-2.321 0-2.565 0-.122 0-1.059-.042-1.71 0-.652-.08-1.589-.244-2.525-.08-.407-.122-1.099-.285-1.67-.041-.12-.081-.325 0-.406.123-.081.773-.123 1.221-.163.163 0 2.16.203 2.891.244.652 0 .896-.122 1.019.042.162.204-.204 1.302-.367 1.71-.041.122-.163.774-.163.976.04 2.2-.04 1.1 0 2.443-.04.53-.04 1.1-.08 1.63l-.124 3.257c-.08 1.79-.08 3.012-.04 4.966 0 .531 0 1.1-.04 1.63-.042 1.058-.082 2.158-.205 3.216-.081.977-.121 2.768-.121 3.136.04 1.953-.042 2.524.365 3.664.083.122.123.285.041.406-.57.286-4.072 0-4.56.042-.162 0-.285 0-.366-.163" id="Fill-11" fill="#FFF"/><path d="M108.767 5.605c-.041.284.123 2.198-.041 3.541-.04.164-.936-.121-.976-.121-.408-.163-.775-.284-1.263-.284-1.425 0-2.361-.123-3.38-.123-.284 0-3.257.081-3.745.04 0 .488.04.977.04 1.465 0 .898 0 1.834.041 2.77-.041 1.628-.041 2.362-.041 2.525.285-.041.61 0 .937 0 .65-.041.855-.041 2.118-.041l1.75-.082c.244-.04.326-.408.488-.529.082-.041.246-.083.286.081l.08 2.158c.042.856.042 1.996.124 2.321 0 .204.08.407 0 .53-.123.122-.367-.449-.815-.489-.244 0-1.059-.041-1.303-.081-.366-.041-1.181.04-2.077.04-.53-.04-1.343 0-1.79 0 0 1.344-.163 5.864-.042 7.167-.081.569-.081 1.14-.121 1.669.325 0 .773.04 1.342.04 1.75.083 2.688 0 3.706 0 .529-.04 1.058-.121 1.344-.121.733.04 1.71-.042 2.157 0 .693-.123.896-.734 1.223-.611.162.04.162.488.162.895-.081.408-.204 2.769-.204 2.89v.53c0 .122-.041.325-.204.325-.488.041-1.67-.121-1.994-.121-.448 0-1.06.081-1.466.041-1.058.08-1.792.08-2.28.08 1.914 0-7.29.083-5.945.041-.285 0-2.117.042-2.728-.081-.081-.123.081-.61.123-.732.162-.245.61-1.996.65-2.363v-1.262c-.04-.203 0-.528.082-1.587.08-.856.122-3.136.122-3.339.042-.326.042-1.629.042-3.297.04-.204.162-1.67.12-2.159.042-1.058.164-2.973.205-4.316.081-1.1.121-2.036.081-2.24.082-1.057 0-1.465-.041-2.076.041-.162 0-.977-.04-1.098 0-.123-.815-2.159-.815-2.77.123-.082.407-.041.53-.041.204.041.366 0 .57.041.082 0 2.118 0 2.483.04l4.479.082h4.682c.244.041.53.041.815 0 .57-.04.57.489.53.652" id="Fill-13" fill="#FFF"/><path d="M132.92 11.618c.432-.95 3.497-6.088-1.813-6.262-.39 0-1.642-.086-1.9-.086-.648-.043-1.21 0-1.815.042.044.563.044 1.166.044 1.684l-.044 2.938-.172 2.85h.172c1.641 0 2.245.086 3.844-.044.82-.086 1.425-.69 1.684-1.122m-5.916 14.552c.388 0 1.036 0 1.381-.043h1.339c.519 0 2.592.13 3.412-.69.95-1.08.993-1.21 1.21-2.678.129-1.339-.26-2.03-.606-3.153a5.153 5.153 0 00-.475-.906c-.345-.432-1.165-1.685-3.541-1.728h-2.633v3.283c0 1.381-.044 2.548-.131 3.195 0 .864-.043 1.338-.043 2.03-.042.475-.129.69.087.69m-1.468 4.104c-.39 0-2.463.085-3.283.042-.82 0-.906.043-1.036-.129 0-.216.13-.345.216-.475.259-.345.388-.778.604-1.166.174-.562.216-1.123.174-1.382 0-.476.042-.95.086-1.425.043-.475.086-.95.086-1.425.044-.475.086-.95.086-1.426l.043-1.424c.044-.994.13-1.986.13-2.937 0-.561.043-2.159.086-2.936.044-1.685.087-2.073.173-2.937.043-.475.043-.95.043-1.468.044-.562.044-.82-.043-2.202.043-.562 0-1.857 0-2.202-.042-.95.043-1.859.087-2.764-.044-.13 0-.26-.044-.388-.085-.304-.432-1.254-.82-2.118-.043-.044-.043-.129 0-.129h1.252c1.21.043 2.03 0 2.677 0 2.722 0 3.887-.087 7.126.345.95.303 2.332.735 3.325 1.642.864.993 1.599 2.548 1.77 3.8.13.82.087 1.641-.042 2.417-.13 1.037-.561 2.419-1.08 3.283-.303.561-1.597 1.77-2.29 2.16.778.345.994.776 1.642 1.338.519.604 1.425 2.116 1.512 2.764.172.562.303 1.08.388 1.64.13.692.044 2.895-.043 3.24-.086 1.08-.69 2.634-1.166 3.195-.388.475-1.511 2.332-2.894 2.59-1.9.822-7.21.477-7.945.477-.259-.043-.519 0-.82 0" id="Fill-15" fill="#FFF"/><path d="M157.84 2.204c-.043.3.13 2.332-.043 3.756-.044.173-.993-.128-1.037-.128-.432-.174-.82-.303-1.339-.303-1.51 0-2.504-.13-3.584-.13-.302 0-3.454.087-3.973.043 0 .518.044 1.036.044 1.555 0 .95 0 1.944.043 2.936-.043 1.728-.043 2.505-.043 2.679.301-.044.648 0 .993 0 .691-.044.907-.044 2.246-.044l1.857-.087c.259-.043.345-.43.517-.56.087-.044.26-.088.303.085l.087 2.29c.042.906.042 2.116.13 2.46 0 .217.086.432 0 .562-.13.13-.39-.476-.865-.518-.259 0-1.123-.043-1.381-.087-.39-.043-1.254.044-2.203.044-.561-.044-1.425 0-1.9 0 0 1.425-.173 6.219-.044 7.6-.085.604-.085 1.21-.13 1.77.346 0 .822.043 1.426.043 1.857.088 2.85 0 3.93 0 .56-.042 1.122-.13 1.425-.13.777.045 1.813-.042 2.29 0 .732-.128.948-.776 1.294-.646.173.043.173.518.173.95-.087.432-.216 2.936-.216 3.066v.56c0 .13-.043.346-.216.346-.519.044-1.77-.128-2.116-.128-.475 0-1.123.085-1.555.042-1.122.086-1.9.086-2.418.086 2.03 0-7.73.088-6.304.044-.303 0-2.247.044-2.894-.087-.086-.13.086-.648.13-.777.172-.26.648-2.116.69-2.504v-1.34c-.042-.215 0-.56.087-1.683.087-.908.13-3.327.13-3.541.042-.346.042-1.728.042-3.498.044-.217.173-1.772.13-2.29.043-1.122.173-3.152.215-4.576.087-1.167.131-2.16.087-2.376.087-1.122 0-1.555-.043-2.202.043-.173 0-1.037-.044-1.166 0-.13-.862-2.29-.862-2.936.13-.087.432-.044.561-.044.216.044.388 0 .604.044.087 0 2.245 0 2.635.042l4.75.087h4.966c.26.044.561.044.864 0 .604-.044.604.517.561.69" id="Fill-17" fill="#FFF"/><path d="M172.913 17.404c.13-.086-.561-2.634-1.036-4.664-.173-1.165-.561-3.886-.777-3.973-.13.13-1.944 8.464-1.9 8.681.13.043.907.043 1.208.043.993 0 2.376 0 2.505-.087m-11.832 12.482c.432-.735.994-3.412 1.727-5.399.259-.993.605-1.987.864-2.98.259-.993.604-1.944.864-2.937.561-1.986 1.123-3.93 1.77-5.874.302-.992.647-1.942.907-2.936.259-.993.475-2.029.734-3.022.734-3.239.95-3.715.864-4.362-.216-1.253-.087-1.253.474-1.253 1.296.044 1.987-.043 3.586-.043.216-.042 1.078-.086 1.036.216l-.303.907c-.087.692 1.944 9.328 2.893 13.948.174.779 1.9 7.343 2.116 8.336.174.735.69 3.887.735 4.101.043.39.172.52.259.648.56.476.044.432-.216.432h-1.9c-.562 0-2.246.218-2.332 0-.087-.389.216-.992.086-1.64-.042-.26-.302-1.08-.39-1.598l-.387-2.678c-.043-.474-.303-1.684-.432-2.073-1.943 0-3.8.044-4.836.044-.432.044-.993.044-1.21.044-.173.647-.26 1.25-.431 1.856-.087.864-.216 1.296-.303 1.77-.172.994-.95 2.42-1.339 4.017.043.258.39.432.39.561.042.172-.087.172-.303.13-1.728 0-3.455.258-5.355.258-.086-.216.172-.085.432-.473" id="Fill-19" fill="#FFF"/><path d="M194.637 7.257c-.432-.78-.562-1.167-1.987-1.382-.82-.173-2.288-.302-3.196-.26-.733 0-1.424.172-2.072.216-.044.519 0 .992 0 1.468l-.13 2.59c-.043.822 0 2.204-.043 3.025.216 0 3.325-.13 4.318-.13.735-.043 1.642-.907 1.987-1.209.95-1.124.69-1.554 1.08-2.202-.044-.043 0-.131.043-.216.173-.562.173-1.254 0-1.9m4.102 4.318c-1.209 2.936-2.289 3.67-4.102 4.447.604 2.247 1.165 3.283 2.202 6.91.388 1.382.82 2.505 1.34 4.362.215.82 1.251 2.288 1.38 2.764.044.173-.258.173-.517.259l-4.535-.086c-.648 0-.906-.088-.993-.26.172-.777.561-1.08.259-2.721-.475-1.813-1.036-3.583-1.426-5.355l-.733-2.72c-.173-.605-.345-1.554-.648-2.59-.864 0-2.159.129-2.764.172h-1.252c0 .777-.087 1.512-.087 2.289 0 .259-.172 2.763-.086 4.232-.216 1.555.173 4.232.518 5.916.043.303.26.777.26.733.043.174-.13.174-.26.174-.69 0-4.189.258-4.75.13-.388 0-.388-.044-.388-.088-.044-.388.13-.69.258-.993.606-1.252.606-4.62.562-5.872 0-.39 0-.777-.043-1.21.043-.95.172-8.031.216-9.802.043-1.47.216-6.78.13-7.47-.217-1.254-.649-2.635-.82-3.457 0-.258.3-.301.517-.301.864 0 3.886.216 4.966.259.475.086 5.312.042 5.442.042.388.044.777.13 1.122.26 1.34.303 2.764 1.252 3.843 3.887.173.95.95 3.152.39 6.09" id="Fill-21" fill="#FFF"/><g id="Group-25" transform="translate(200.667 .09)"><mask id="mask-2" fill="#fff"><use xlink:href="#path-1"/></mask><path d="M4.898 29.752c-.518-.39-.95-.82-1.512-1.165-.43-.345-.862-.735-1.165-1.21-.519-.69-1.944-3.109-1.555-3.585.52-.43 1.771-.993 2.504-1.25.778-.304 1.254-.692 1.512-.78.735-.215 1.036.13.994.78.086 1.597.258 2.157.906 3.065 1.21 1.295 3.24 1.165 4.448.172.648-.432 1.512-2.03 1.555-3.237a3.484 3.484 0 000-1.34c-.259-1.727-.907-3.067-2.635-4.578l-1.078-.82c-1.987-1.554-2.462-1.381-4.103-3.24-.907-.905-1.468-2.59-1.599-3.497-.042-.345-.214-2.548.216-3.715.39-.862 1.21-2.633 2.203-3.194.69-.475 1.641-.863 2.16-1.08C9.173.646 9.95.43 11.68.688c1.597.347 3.325.995 4.405 3.198.258.604.517.949.95 1.209.344.301.518.388.431.517-.259.303-1.468.907-1.944 1.252-.215.087-1.424.735-2.288 1.383-.519.303-.259-.303-.216-.519.216-.561 0-2.03-.648-2.59-1.381-1.08-2.72-.691-3.713.214-.174.13-.778.822-.907 1.038-1.037 1.209-.173 3.109.561 3.972.734.908 4.362 2.333 6.088 4.924.303.474.606.949.908 1.468.13.172 1.424 2.376 1.727 5.096a5.25 5.25 0 01-.087 1.728c-.172 2.029-.648 2.59-1.813 4.404-.388.474-.475.734-2.936 2.46-1.21.649-2.592.39-3.196.39-1.036 0-3.11-.216-4.103-1.08" id="Fill-23" fill="#FFF" mask="url(#mask-2)"/></g><g id="Group-28" transform="translate(228 4.09)"><mask id="mask-4" fill="#fff"><use xlink:href="#path-3"/></mask><path d="M6.016 29.098c-.208-.084-.417-.124-.667-.21-.501-.332-2.126-1.291-2.71-2.083l-.334-.543c-1.084-1.584-1.293-1.917-2.001-6.337-.125-1.96-.25-3.961-.25-5.921 0-.96.04-1.918.166-2.876.084-.96.333-1.878.5-2.795.167-.875.417-1.75.668-2.585.208-.376.292-.792.5-1.168.917-1.792 1.543-2.502 3.377-3.586C6.85.244 8.768.16 10.352.37c.625.167.917.292 1.335.541.125.043 3.169 1.794 3.461 3.628.25.459.292 1.835.375 2.46.042.126.042.294-.042.375-.125.127-.374.043-.542.043-.542.042-2.043.042-2.668.124-.334 0-.626.376-1.043.209-.041-.25.21-.29.25-.543.083-.374-.166-1.292-.375-1.71-.416-.707-1.459-1.458-2.251-1.54-.292 0-.584 0-.876.082-1.585.5-2.044 1.543-2.793 2.752l-.251.835c-.71 1.835-1.001 3.836-.917 7.13v1.877c0 .792.166 3 .292 3.71.082.626.249 1.292.5 1.876.376 1.21.625 1.919 2.126 2.794.584.374 1.168.417 1.794.25 1.166-.166 2.042-1.125 2.293-2.044.041-.166.125-.916.083-1.082-.083-.084-.416-.21-.292-.376.292-.167 1.585-.334 2.461-.334.541 0 1.667-.166 1.75-.166.209.04.293.166.334.333 0 .167-.041.667 0 .75-.041 1.334-.792 3.002-1.335 3.837-.208.333-.416.666-.708 1-.376.542-1.542 1.585-4.504 2.128-.708.082-2.168-.043-2.793-.21" id="Fill-26" fill="#FFF" mask="url(#mask-4)"/></g><path d="M246.611 32.73c0-.126.334-1.002.418-1.294l.249-1.627c.043-.25.167-.874.21-1.582.082-.543.125-.96.125-1.668.041-.627 0-1.211 0-1.794.041-.584.082-1.168.082-1.752-.082-1.21-.041-2.377-.041-3.544 0-1.042.083-4.753.083-5.337-.042-.417 0-2.377 0-2.627 0-.125 0-1.084-.042-1.752 0-.666-.082-1.626-.25-2.585-.083-.416-.124-1.125-.291-1.71-.043-.125-.084-.333 0-.415.124-.086.792-.126 1.25-.167.167 0 2.21.208 2.96.25.669 0 .918-.126 1.043.04.167.21-.208 1.335-.374 1.753-.043.125-.168.792-.168 1 .042 2.252-.042 1.126 0 2.502-.042.542-.042 1.126-.083 1.668l-.125 3.335c-.084 1.835-.084 3.087-.042 5.088 0 .543 0 1.125-.042 1.668-.042 1.084-.083 2.21-.208 3.293-.083 1-.126 2.835-.126 3.21.043 2.002-.041 2.586.376 3.754.083.126.126.292.042.416-.584.292-4.17 0-4.671.043-.167 0-.29 0-.375-.167" id="Fill-29" fill="#FFF"/><path d="M263.083 28.768c2.877-.334 3.461-1.127 4.336-3.92.75-2.21.793-6.922.75-9.215-.041-.543-.166-3.128-.625-4.085-1.335-2.67-4.461-2.628-6.088-2.628-.083 2.042-.083 13.636-.416 16.345-.167 1.21-.417 2.376-.417 3.628.292 0 2.376-.125 2.46-.125m-7.047 4.086c-.084-.125.584-2.001.667-2.418 0-.167.041-1.002.125-1.502 0-.166.125-1.501.125-2.334.208-2.711.292-7.756.375-9.215-.041-1.793 0-8.507.043-9.467.082-.874.124-1.708-.126-2.376-.084-.292-.584-.333-.584-.417 0-.292.459-.167.959-.167 1.001.084 3.336.084 3.712.084 1.667 0 3.335.208 4.419.459 2.502.583 4.17 2.417 5.17 4.379.876 1.5 1.168 5.586 1.376 8.464.043 3.168.418 6.713-2.042 10.924-1.126 1.334-2.211 2.502-3.503 3.002-1.501.584-4.212.792-6.921.626l-2.628.125c-.708 0-1.126-.043-1.167-.167" id="Fill-31" fill="#FFF"/><path d="M290.313 5.834c-.042.292.125 2.252-.042 3.627-.042.168-.96-.124-1-.124-.418-.167-.793-.292-1.293-.292-1.46 0-2.419-.126-3.461-.126-.292 0-3.336.084-3.836.042 0 .5.041 1.001.041 1.501 0 .919 0 1.877.041 2.836-.04 1.667-.04 2.419-.04 2.585.291-.041.624 0 .958 0 .668-.041.876-.041 2.17-.041l1.791-.084c.25-.041.335-.417.501-.541.083-.043.25-.084.292.082l.083 2.21c.041.877.041 2.044.125 2.377 0 .208.084.416 0 .543-.125.125-.374-.46-.834-.502-.25 0-1.084-.041-1.334-.082-.376-.043-1.209.041-2.126.041-.543-.041-1.376 0-1.835 0 0 1.376-.167 6.005-.041 7.339-.084.584-.084 1.168-.126 1.709.334 0 .792.041 1.376.041 1.792.084 2.752 0 3.795 0 .541-.041 1.084-.124 1.376-.124.75.042 1.75-.042 2.21 0 .709-.125.917-.75 1.25-.625.167.041.167.5.167.916-.083.419-.208 2.836-.208 2.961v.542c0 .125-.042.333-.208.333-.502.043-1.71-.124-2.044-.124-.459 0-1.084.083-1.502.043a28.903 28.903 0 01-2.334.081c1.96 0-7.464.085-6.088.043-.292 0-2.168.042-2.794-.084-.084-.126.084-.626.126-.75.166-.25.625-2.044.666-2.418v-1.294c-.04-.208 0-.541.084-1.625.083-.876.126-3.212.126-3.42.041-.333.041-1.668.041-3.377.041-.208.167-1.71.125-2.21.042-1.084.167-3.045.208-4.42.084-1.126.126-2.085.084-2.294.083-1.083 0-1.5-.042-2.126.042-.166 0-1.001-.042-1.125 0-.125-.833-2.21-.833-2.836.124-.084.416-.041.541-.041.208.041.376 0 .584.041.083 0 2.168 0 2.544.041l4.587.084h4.795c.25.042.542.042.833 0 .584-.042.584.5.543.667" id="Fill-33" fill="#FFF"/><path d="M305.785 10.713c-.418-.752-.543-1.127-1.919-1.335-.792-.166-2.21-.292-3.085-.25-.708 0-1.376.166-2.002.209-.04.5 0 .959 0 1.417l-.125 2.502c-.041.793 0 2.128-.041 2.918.208 0 3.21-.124 4.17-.124.708-.042 1.584-.876 1.918-1.168.917-1.084.666-1.501 1.042-2.126-.042-.042 0-.126.042-.208.166-.543.166-1.21 0-1.835m3.961 4.17c-1.168 2.835-2.21 3.543-3.961 4.294.584 2.168 1.125 3.17 2.126 6.672.375 1.335.792 2.419 1.292 4.212.21.792 1.21 2.21 1.335 2.668.041.167-.25.167-.5.25l-4.379-.083c-.625 0-.876-.084-.958-.251.166-.75.541-1.043.25-2.627-.458-1.75-1-3.46-1.376-5.17l-.709-2.627c-.167-.584-.333-1.5-.625-2.501-.835 0-2.086.124-2.67.166h-1.209c0 .75-.083 1.459-.083 2.21 0 .25-.166 2.669-.084 4.086-.208 1.502.167 4.087.502 5.714.041.29.25.749.25.708.04.166-.126.166-.25.166-.668 0-4.046.25-4.587.126-.376 0-.376-.042-.376-.084-.041-.375.125-.667.25-.96.585-1.208.585-4.46.542-5.67 0-.376 0-.75-.041-1.168.041-.917.166-7.754.208-9.464.042-1.418.21-6.548.125-7.214-.208-1.21-.625-2.544-.792-3.336 0-.25.292-.291.5-.291.835 0 3.753.208 4.796.25.459.083 5.128.04 5.253.04.376.043.751.126 1.084.251 1.294.292 2.67 1.208 3.711 3.752.168.918.917 3.046.376 5.88" id="Fill-35" fill="#FFF"/><path d="M324.885 20.32c-.097-.04-.194-.06-.31-.098-.234-.156-.992-.603-1.266-.972l-.154-.254c-.507-.738-.604-.894-.934-2.956-.058-.914-.117-1.848-.117-2.762 0-.447.02-.895.077-1.342.04-.448.156-.876.234-1.304.078-.408.194-.816.312-1.205.097-.175.136-.37.233-.545.428-.836.72-1.167 1.575-1.672.74-.35 1.634-.39 2.373-.292.292.078.428.136.623.253.058.019 1.478.836 1.614 1.692.116.213.136.856.175 1.147.02.058.02.137-.02.176-.057.058-.175.018-.252.018-.253.02-.953.02-1.245.06-.156 0-.292.175-.487.096-.019-.116.097-.136.117-.252.04-.176-.077-.604-.174-.797-.195-.33-.682-.681-1.05-.72-.137 0-.273 0-.409.039-.74.233-.953.72-1.304 1.284l-.116.388c-.33.856-.467 1.79-.428 3.326v.875c0 .37.077 1.4.136 1.73.039.293.116.605.233.877.175.564.292.894.992 1.302.272.176.544.195.836.118.546-.078.954-.526 1.071-.954.019-.077.057-.428.039-.505-.039-.039-.195-.097-.136-.176.136-.077.738-.155 1.146-.155.254 0 .78-.077.818-.077.097.019.136.077.156.155 0 .077-.02.312 0 .35-.02.623-.37 1.4-.623 1.79a3.46 3.46 0 01-.33.466c-.175.252-.72.74-2.102.992-.33.04-1.01-.02-1.303-.097" id="Fill-37" fill="#FFF"/><path d="M336.38 13.803l.02-.681c.039-.37.116-2.256-.681-3.656-.118-.233-.311-.428-.39-.467-.37-.194-.641-.233-1.128-.02-.058.059-.39.272-.564.564-.428.798-.856 2.082-.933 2.84-.02.175-.059 1.868-.077 2.1 0 .215.077 1.848.136 2.14 0 .079.077.623.116.682.233.952 1.576 2.217 2.8.389.234-.35.624-2.937.7-3.89m-4.454 5.465c-.174-.234-.33-.447-.446-.7-.254-.506-.37-1.11-.408-1.576-.06-.544-.156-1.108-.195-1.654a6.077 6.077 0 01-.059-.836c-.038-.35.059-1.692.116-2.43.059-.72.098-.974.235-1.556.136-.546.272-1.11.427-1.479a5.01 5.01 0 01.35-.641c.895-1.538 1.556-1.479 2.548-1.42.292 0 .779.116 1.167.213.253.077 1.615.603 1.984 2.043.097.253.175.485.253.738.059.254.078.526.116.798.079.253.274 2.16.136 3.229-.018.213-.174 2.587-.233 2.743-.077.544-.641 2.041-1.128 2.605-.175.253-.992.837-1.42.953-.213.078-.485.118-.739.156-.428.059-1.497-.136-2.158-.622a2.489 2.489 0 01-.546-.564" id="Fill-39" fill="#FFF"/><path d="M341.383 19.7c-.37-.313-.427-1.08-.455-1.166 0-.627.114-1.139.796-1.508.542-.228 1.139-.939 2.078-.597.228.085.398.198.569.341.199.17.341.37.427.91.113.711-.143 1.65-.228 1.85-.143.256-.768.996-1.451.996-.427 0-1.196-.228-1.736-.825" id="Fill-41" fill="#FFF"/></g></g></g></svg>