<svg width="348" height="302" viewBox="0 0 348 302" version="1.1" xmlns="http://www.w3.org/2000/svg"><g id="Chosen-ones" stroke="none" stroke-width="1" fill="none" fill-rule="evenodd"><g id="Home-Logo-2---b" transform="translate(-426 -227)" fill="#FFF"><g id="Group-3" transform="translate(426.463 227)"><path d="M339.572 257.413c-.767-.651-.885-2.247-.944-2.422 0-1.303.236-2.364 1.655-3.134 1.123-.473 2.364-1.951 4.315-1.24a3.94 3.94 0 011.182.707c.412.356.708.767.886 1.89.236 1.48-.297 3.432-.474 3.844-.294.53-1.594 2.07-3.015 2.07-.886 0-2.482-.474-3.605-1.715m-12.816-18.442l.06-2.067c.118-1.123.355-6.857-2.07-11.112-.356-.711-.945-1.3-1.182-1.419-1.123-.592-1.95-.71-3.43-.06-.175.178-1.182.827-1.712 1.715-1.3 2.42-2.6 6.321-2.837 8.628-.06.533-.178 5.675-.237 6.385 0 .649.237 5.616.415 6.501 0 .237.236 1.89.355 2.07.708 2.897 4.786 6.735 8.509 1.182.71-1.063 1.892-8.926 2.13-11.823m-13.538 16.61c-.53-.709-1.004-1.36-1.357-2.13-.77-1.534-1.125-3.368-1.241-4.786-.178-1.653-.474-3.37-.592-5.023a18.367 18.367 0 01-.178-2.544c-.118-1.064.178-5.142.355-7.387.178-2.186.297-2.956.708-4.73.415-1.655.83-3.367 1.3-4.49.178-.473.83-1.596 1.064-1.951 2.721-4.668 4.73-4.493 7.745-4.315.885 0 2.363.355 3.545.651.77.234 4.907 1.83 6.03 6.205.296.767.533 1.478.77 2.245.174.77.234 1.596.352 2.425.237.768.83 6.56.415 9.812-.06.65-.533 7.86-.711 8.335-.234 1.652-1.949 6.207-3.427 7.92-.533.766-3.015 2.543-4.315 2.893-.651.237-1.478.355-2.245.474-1.303.18-4.552-.412-6.563-1.89-.649-.474-1.182-1.063-1.655-1.715m-21.388 3.193c-.296-.119-.592-.18-.944-.294-.711-.473-3.015-1.833-3.844-2.958l-.471-.767c-1.538-2.245-1.834-2.719-2.838-8.986-.177-2.775-.355-5.615-.355-8.39 0-1.363.06-2.722.237-4.081.118-1.36.474-2.66.708-3.96.237-1.241.592-2.485.947-3.664.296-.533.412-1.125.708-1.655 1.3-2.544 2.186-3.548 4.79-5.085 2.244-1.061 4.963-1.18 7.208-.886.888.237 1.303.415 1.893.77.177.06 4.492 2.538 4.907 5.141.353.65.412 2.6.53 3.486.06.18.06.415-.06.533-.177.178-.53.06-.766.06-.77.059-2.897.059-3.782.177-.474 0-.889.533-1.478.296-.06-.355.293-.414.352-.767.119-.535-.234-1.833-.53-2.425-.592-1.004-2.07-2.068-3.192-2.186-.415 0-.827 0-1.241.118-2.248.708-2.897 2.186-3.96 3.901l-.356 1.179c-1.004 2.603-1.418 5.44-1.3 10.108v2.66c0 1.122.237 4.258.415 5.262.118.886.355 1.83.708 2.66.533 1.715.888 2.719 3.015 3.96.826.533 1.655.59 2.54.352 1.656-.236 2.897-1.593 3.253-2.893.059-.237.177-1.3.118-1.537-.118-.119-.592-.294-.414-.53.414-.238 2.247-.474 3.486-.474.77 0 2.366-.237 2.484-.237.296.056.415.237.471.473 0 .237-.056.945 0 1.061-.056 1.892-1.122 4.256-1.89 5.44-.296.474-.592.945-1.006 1.419-.53.767-2.186 2.245-6.383 3.012-1.004.119-3.074-.056-3.96-.293m-31.589-30.464c-1.354-2.434-1.76-3.65-6.224-4.33-2.57-.54-7.17-.944-10.01-.812-2.302 0-4.467.541-6.496.678-.135 1.624 0 3.115 0 4.6l-.407 8.12c-.135 2.57 0 6.899-.135 9.47.676 0 10.418-.407 13.53-.407 2.302-.134 5.142-2.842 6.224-3.787 2.977-3.519 2.164-4.873 3.38-6.902-.134-.132 0-.404.138-.676.541-1.758.541-3.925 0-5.954m12.854 13.532c-3.79 9.2-7.171 11.5-12.854 13.936 1.895 7.036 3.653 10.283 6.9 21.648 1.219 4.329 2.57 7.85 4.193 13.667.679 2.57 3.925 7.171 4.332 8.66.134.54-.813.54-1.624.81l-14.207-.27c-2.03 0-2.84-.271-3.112-.812.54-2.436 1.757-3.384.813-8.525-1.489-5.68-3.25-11.231-4.466-16.776l-2.3-8.523c-.54-1.898-1.084-4.872-2.029-8.121-2.708 0-6.765.406-8.66.54h-3.924c0 2.437-.27 4.738-.27 7.172 0 .813-.54 8.66-.272 13.26-.675 4.873.542 13.26 1.624 18.537.137.947.813 2.436.813 2.298.134.542-.407.542-.813.542-2.165 0-13.123.813-14.881.409-1.22 0-1.22-.138-1.22-.272-.134-1.22.407-2.167.813-3.112 1.893-3.925 1.893-14.477 1.758-18.402 0-1.217 0-2.433-.134-3.787.134-2.978.54-25.167.675-30.712.135-4.6.679-21.245.407-23.41-.676-3.924-2.03-8.252-2.571-10.823 0-.813.947-.948 1.623-.948 2.706 0 12.178.676 15.56.813 1.488.27 16.64.135 17.047.135 1.22.134 2.436.404 3.519.81 4.196.948 8.66 3.925 12.043 12.178.541 2.975 2.975 9.877 1.217 19.078m-63.058-29.36c-.135.947.406 7.305-.135 11.77-.134.542-3.111-.406-3.246-.406-1.354-.54-2.57-.947-4.194-.947-4.735 0-7.85-.407-11.23-.407-.948 0-10.825.272-12.448.138 0 1.623.135 3.246.135 4.87 0 2.976 0 6.086.134 9.2-.134 5.41-.134 7.847-.134 8.388.947-.134 2.03 0 3.111 0 2.165-.134 2.843-.134 7.037-.134l5.817-.27c.813-.137 1.082-1.354 1.623-1.76.272-.137.813-.27.948.272l.272 7.171c.134 2.84.134 6.63.406 7.71 0 .678.27 1.354 0 1.757-.406.41-1.22-1.486-2.708-1.62-.813 0-3.518-.137-4.328-.272-1.22-.135-3.925.135-6.902.135-1.758-.135-4.463 0-5.952 0 0 4.465-.541 19.484-.135 23.815-.272 1.892-.272 3.787-.406 5.545 1.082 0 2.57.137 4.463.137 5.817.27 8.932 0 12.313 0 1.758-.137 3.518-.406 4.466-.406 2.436.137 5.682-.135 7.17 0 2.3-.406 2.975-2.436 4.06-2.03.541.138.541 1.624.541 2.975-.272 1.354-.678 9.2-.678 9.61v1.758c0 .404-.135 1.082-.676 1.082-1.623.135-5.548-.407-6.63-.407-1.488 0-3.518.272-4.87.138-3.518.269-5.954.269-7.577.269 6.358 0-24.22.27-19.753.135-.948 0-7.037.134-9.067-.27-.269-.406.272-2.03.407-2.436.54-.813 2.03-6.63 2.164-7.85v-4.19c-.135-.676 0-1.761.272-5.277.27-2.843.404-10.418.404-11.096.137-1.085.137-5.413.137-10.961.135-.676.541-5.546.406-7.172.135-3.515.539-9.876.676-14.34.27-3.652.407-6.767.27-7.442.271-3.516 0-4.87-.135-6.9.134-.54 0-3.246-.135-3.653 0-.406-2.705-7.171-2.705-9.2.404-.27 1.351-.135 1.758-.135.675.134 1.216 0 1.895.134.269 0 7.034 0 8.253.135l14.88.272h15.563c.81.134 1.758.134 2.705 0 1.895-.137 1.895 1.623 1.758 2.164m-88.356 74.415c9.335-1.082 11.23-3.65 14.07-12.716 2.436-7.174 2.57-22.462 2.436-29.902-.134-1.76-.54-10.149-2.03-13.26-4.328-8.658-14.476-8.526-19.753-8.526-.271 6.63-.271 44.244-1.354 53.039-.54 3.925-1.354 7.715-1.354 11.774.948 0 7.715-.409 7.985-.409m-22.868 13.26c-.27-.403 1.895-6.492 2.167-7.846 0-.542.134-3.247.406-4.873 0-.54.404-4.87.404-7.575.678-8.797.95-25.166 1.22-29.904-.135-5.817 0-27.598.134-30.712.27-2.84.407-5.545-.404-7.712-.272-.948-1.897-1.083-1.897-1.354 0-.945 1.49-.539 3.114-.539 3.247.27 10.824.27 12.041.27 5.413 0 10.824.675 14.342 1.488 8.12 1.892 13.53 7.847 16.776 14.208 2.843 4.87 3.79 18.13 4.466 27.465.135 10.283 1.352 21.783-6.63 35.45-3.653 4.329-7.171 8.116-11.365 9.742-4.87 1.892-13.664 2.568-22.459 2.03l-8.525.404c-2.299 0-3.653-.135-3.79-.542m-30.58-.403c0-.41 1.082-3.25 1.354-4.197l.81-5.276c.135-.813.541-2.843.676-5.142.272-1.757.406-3.112.406-5.413.135-2.03 0-3.922 0-5.817.135-1.893.272-3.788.272-5.683-.272-3.922-.137-7.712-.137-11.5 0-3.383.272-15.424.272-17.317-.135-1.354 0-7.715 0-8.525 0-.407 0-3.518-.135-5.685 0-2.162-.272-5.276-.813-8.388-.272-1.352-.406-3.65-.947-5.548-.135-.404-.27-1.082 0-1.352.406-.269 2.57-.406 4.059-.54.541 0 7.171.675 9.607.81 2.165 0 2.978-.404 3.381.137.544.675-.675 4.328-1.216 5.682-.135.407-.541 2.569-.541 3.247.134 7.306-.135 3.653 0 8.119-.135 1.757-.135 3.653-.27 5.413l-.406 10.822c-.272 5.954-.272 10.013-.137 16.506 0 1.758 0 3.653-.135 5.414-.134 3.515-.27 7.17-.676 10.687-.269 3.249-.406 9.2-.406 10.42.137 6.496-.135 8.388 1.217 12.175.272.407.406.95.137 1.354-1.895.945-13.532 0-15.155.138-.542 0-.948 0-1.217-.541m-40.869 1.486c-.675-.27-1.351-.407-2.164-.676-1.623-1.082-6.902-4.194-8.794-6.765l-1.083-1.76c-3.518-5.142-4.194-6.224-6.495-20.564-.407-6.36-.81-12.856-.81-19.215 0-3.111.134-6.223.54-9.335.27-3.112 1.083-6.09 1.624-9.066.541-2.84 1.351-5.68 2.164-8.388.676-1.217.945-2.571 1.623-3.788 2.978-5.82 5.007-8.119 10.96-11.637 5.14-2.436 11.364-2.705 16.509-2.03 2.027.544 2.974.948 4.328 1.76.404.135 10.283 5.818 11.228 11.772.813 1.49.948 5.952 1.22 7.982.134.406.134.947-.135 1.22-.407.403-1.22.134-1.76.134-1.758.135-6.63.135-8.658.406-1.085 0-2.03 1.217-3.383.676-.138-.813.675-.947.81-1.758.272-1.22-.541-4.196-1.217-5.548-1.354-2.299-4.735-4.737-7.306-5.007-.947 0-1.895 0-2.842.27-5.142 1.625-6.63 5.006-9.064 8.931l-.813 2.706c-2.299 5.951-3.246 12.45-2.977 23.137v6.089c0 2.57.544 9.739.947 12.04.272 2.03.813 4.195 1.624 6.09 1.219 3.922 2.03 6.223 6.902 9.063 1.895 1.22 3.787 1.354 5.817.813 3.787-.54 6.63-3.653 7.44-6.63.137-.541.407-2.977.272-3.516-.272-.271-1.354-.678-.947-1.219.947-.544 5.141-1.082 7.984-1.082 1.758 0 5.41-.541 5.68-.541.678.134.95.54 1.084 1.08 0 .543-.134 2.166 0 2.438-.134 4.329-2.57 9.742-4.33 12.447-.676 1.083-1.352 2.165-2.3 3.247-1.216 1.758-5.007 5.141-14.611 6.9-2.302.271-7.037-.135-9.067-.676m274.19-104.648c-1.852-1.387-3.392-2.932-5.398-4.165-1.542-1.235-3.085-2.621-4.164-4.317-1.852-2.469-6.94-11.104-5.553-12.803 1.852-1.54 6.323-3.545 8.945-4.471 2.778-1.08 4.474-2.469 5.4-2.776 2.622-.772 3.701.463 3.548 2.776.307 5.706.923 7.71 3.238 10.948 4.318 4.63 11.567 4.167 15.885.619 2.315-1.543 5.4-7.25 5.553-11.567.307-1.543.307-3.088 0-4.781-.926-6.17-3.238-10.954-9.408-16.35l-3.857-2.932c-7.093-5.551-8.79-4.937-14.65-11.565-3.24-3.243-5.246-9.257-5.71-12.496-.153-1.232-.77-9.1.773-13.265 1.39-3.082 4.318-9.408 7.866-11.411 2.469-1.699 5.86-3.088 7.712-3.858 5.09-1.542 7.866-2.312 14.036-1.386 5.707 1.233 11.877 3.545 15.732 11.41.926 2.163 1.852 3.395 3.394 4.319 1.233 1.082 1.85 1.389 1.542 1.852-.926 1.08-5.243 3.238-6.942 4.474-.77.307-5.088 2.622-8.173 4.934-1.852 1.08-.926-1.077-.772-1.85.772-2.005 0-7.249-2.312-9.254-4.937-3.858-9.718-2.469-13.266.77-.617.463-2.776 2.931-3.239 3.701-3.7 4.32-.616 11.107 2.006 14.192 2.622 3.238 15.575 8.329 21.745 17.583 1.082 1.696 2.162 3.395 3.241 5.244.46.617 5.09 8.485 6.17 18.2.307 2.313 0 4.934-.31 6.17-.616 7.247-2.315 9.252-6.476 15.732-1.39 1.698-1.699 2.621-10.488 8.791-4.32 2.315-9.255 1.39-11.416 1.39-3.702 0-11.104-.773-14.652-3.858m-39.02-80.666c-1.54-2.778-2.002-4.164-7.093-4.937-2.931-.616-8.175-1.08-11.413-.923-2.622 0-5.09.616-7.403.77-.156 1.85 0 3.548 0 5.244l-.463 9.257c-.156 2.926 0 7.863-.156 10.795.772 0 11.876-.463 15.424-.463 2.622-.154 5.863-3.241 7.096-4.318 3.392-4.011 2.469-5.554 3.855-7.869-.153-.153 0-.463.153-.77.62-2.005.62-4.47 0-6.786m14.655 15.425c-4.32 10.485-8.175 13.11-14.655 15.885 2.162 8.022 4.168 11.723 7.869 24.676 1.386 4.937 2.931 8.948 4.78 15.578.77 2.932 4.475 8.178 4.938 9.872.153.619-.926.619-1.852.926l-16.198-.307c-2.312 0-3.238-.307-3.545-.926.617-2.776 2.006-3.855.926-9.715-1.698-6.48-3.704-12.803-5.09-19.129l-2.622-9.715c-.616-2.159-1.233-5.553-2.315-9.255-3.085 0-7.712.463-9.871.617h-4.472c0 2.775-.31 5.4-.31 8.175 0 .926-.616 9.871-.306 15.115-.773 5.553.616 15.118 1.85 21.131.153 1.08.925 2.776.925 2.622.154.617-.463.617-.926.617-2.465 0-14.961.926-16.967.463-1.386 0-1.386-.156-1.386-.307-.153-1.39.463-2.469.923-3.55 2.162-4.472 2.162-16.505 2.008-20.976 0-1.386 0-2.775-.156-4.318.156-3.394.617-28.687.773-35.013.153-5.242.77-24.214.46-26.683-.77-4.47-2.312-9.408-2.929-12.337 0-.928 1.08-1.082 1.852-1.082 3.085 0 13.88.773 17.735.926 1.698.307 18.972.156 19.435.156 1.39.151 2.776.463 4.008.926 4.784 1.077 9.872 4.472 13.73 13.88.616 3.394 3.394 11.257 1.388 21.748m-92.227 20.819c.463-.307-2.006-9.408-3.701-16.655-.62-4.164-2.006-13.882-2.779-14.192-.463.463-6.94 30.233-6.786 31.003.463.156 3.241.156 4.32.156 3.549 0 8.483 0 8.946-.312m-42.26 44.578c1.54-2.625 3.548-12.184 6.167-19.28.926-3.55 2.159-7.095 3.085-10.643.926-3.548 2.159-6.94 3.085-10.488 2.005-7.096 4.01-14.038 6.323-20.978 1.082-3.545 2.315-6.94 3.241-10.485.926-3.55 1.696-7.252 2.622-10.8 2.622-11.567 3.392-13.263 3.085-15.575-.773-4.474-.31-4.474 1.696-4.474 4.627.153 7.096-.156 12.802-.156.77-.154 3.855-.307 3.702.772l-1.082 3.239c-.307 2.468 6.942 33.315 10.334 49.819.619 2.775 6.789 26.219 7.559 29.77.616 2.619 2.468 13.879 2.622 14.649.153 1.392.616 1.855.926 2.318 2.005 1.693.153 1.54-.773 1.54h-6.786c-2.003 0-8.02.772-8.329 0-.307-1.39.773-3.549.31-5.86-.154-.927-1.08-3.858-1.39-5.708l-1.388-9.564c-.154-1.696-1.077-6.014-1.54-7.403-6.943 0-13.573.156-17.277.156-1.542.151-3.548.151-4.318.151-.616 2.315-.926 4.477-1.542 6.633-.307 3.088-.77 4.627-1.08 6.326-.616 3.545-3.394 8.636-4.78 14.342.153.926 1.386 1.543 1.386 2.006.156.619-.307.619-1.08.463-6.17 0-12.34.926-19.125.926-.307-.77.619-.307 1.545-1.696m-11.565-98.868c-.153 1.082.463 8.328-.153 13.419-.154.616-3.548-.463-3.702-.463-1.545-.617-2.931-1.08-4.783-1.08-5.397 0-8.945-.46-12.8-.46-1.08 0-12.34.307-14.192.15 0 1.853.156 3.702.156 5.557 0 3.389 0 6.94.154 10.485-.154 6.17-.154 8.945-.154 9.564 1.08-.156 2.313 0 3.546 0 2.468-.156 3.24-.156 8.021-.156l6.633-.307c.926-.156 1.233-1.542 1.85-2.005.31-.156.926-.307 1.082.307l.307 8.175c.156 3.238.156 7.559.463 8.792 0 .772.31 1.542 0 2.005-.463.463-1.39-1.696-3.085-1.85-.926 0-4.011-.155-4.937-.309-1.387-.153-4.471.154-7.866.154-2.005-.154-5.09 0-6.786 0 0 5.093-.617 22.21-.154 27.148-.307 2.158-.307 4.315-.463 6.323 1.233 0 2.932.153 5.09.153 6.63.307 10.179 0 14.036 0 2.006-.153 4.011-.463 5.09-.463 2.776.154 6.477-.153 8.176 0 2.62-.463 3.392-2.775 4.625-2.312.616.153.616 1.85.616 3.394-.307 1.54-.77 10.485-.77 10.948v2.006c0 .463-.153 1.233-.77 1.233-1.852.156-6.323-.463-7.559-.463-1.695 0-4.01.312-5.55.156-4.011.307-6.79.307-8.639.307 7.247 0-27.608.31-22.52.156-1.08 0-8.02.153-10.334-.307-.307-.463.31-2.315.463-2.778.616-.923 2.315-7.556 2.468-8.945v-4.781c-.153-.773 0-2.006.31-6.017.307-3.24.46-11.876.46-12.649.156-1.233.156-6.167.156-12.493.154-.77.617-6.323.463-8.175.154-4.008.617-11.258.77-16.348.31-4.165.463-7.71.31-8.482.31-4.011 0-5.554-.154-7.866.154-.62 0-3.701-.156-4.164 0-.463-3.082-8.176-3.082-10.49.46-.308 1.54-.152 2.003-.152.772.151 1.389 0 2.159.151.31 0 8.021 0 9.41.156l16.965.307h17.737c.926.156 2.005.156 3.085 0 2.159-.15 2.159 1.852 2.005 2.469M42.15 131.502c1.543-3.392 12.493-21.748-6.48-22.364-1.385 0-5.86-.307-6.785-.307-2.313-.156-4.318 0-6.477.15.153 2.006.153 4.165.153 6.02l-.153 10.485-.617 10.18h.617c5.86 0 8.019.31 13.726-.153 2.931-.307 5.09-2.468 6.016-4.01M21.018 183.48c1.389 0 3.701 0 4.937-.153h4.78c1.85 0 9.253.46 12.184-2.469 3.395-3.854 3.548-4.318 4.32-9.561.464-4.784-.925-7.252-2.158-11.26a18.663 18.663 0 00-1.699-3.239c-1.233-1.542-4.164-6.016-12.646-6.17h-9.409v11.723c0 4.935-.153 9.096-.463 11.414 0 3.082-.156 4.778-.156 7.247-.153 1.696-.463 2.468.31 2.468m-5.244 14.655c-1.389 0-8.792.307-11.723.15-2.93 0-3.239.157-3.702-.462 0-.77.463-1.233.773-1.696.926-1.233 1.389-2.776 2.159-4.162.616-2.008.77-4.014.616-4.937 0-1.696.154-3.394.31-5.09.153-1.696.307-3.395.307-5.09.156-1.697.31-3.392.31-5.088l.153-5.09c.156-3.549.463-7.097.463-10.488 0-2.009.156-7.715.31-10.49.153-6.014.306-7.403.616-10.486.153-1.698.153-3.394.153-5.246.154-2.006.154-2.932-.153-7.869.153-2.002 0-6.627 0-7.863-.154-3.394.153-6.633.307-9.87-.154-.464 0-.927-.154-1.39-.307-1.08-1.542-4.471-2.931-7.559-.154-.15-.154-.463 0-.463h4.474c4.32.156 7.249 0 9.564 0 9.715 0 13.882-.307 25.447 1.236 3.394 1.08 8.331 2.622 11.879 5.86 3.085 3.55 5.707 9.101 6.323 13.573.463 2.931.307 5.863-.153 8.638-.463 3.701-2.008 8.636-3.858 11.723-1.08 2.006-5.707 6.32-8.175 7.71 2.778 1.235 3.548 2.778 5.863 4.78 1.85 2.162 5.088 7.56 5.397 9.872.617 2.005 1.08 3.857 1.39 5.863.46 2.468.153 10.334-.157 11.567-.307 3.857-2.468 9.408-4.164 11.414-1.39 1.695-5.398 8.328-10.334 9.254-6.787 2.932-25.757 1.699-28.379 1.699-.926-.156-1.852 0-2.931 0M337.486 3.241c-.12.843.358 6.482-.12 10.445-.122.481-2.766-.361-2.884-.361-1.2-.48-2.28-.837-3.72-.837-4.205 0-6.964-.361-9.968-.361-.84 0-9.605.24-11.045.118 0 1.44.121 2.88.121 4.324 0 2.64 0 5.402.121 8.162-.121 4.805-.121 6.963-.121 7.445.84-.12 1.8 0 2.76 0 1.921-.12 2.524-.12 6.244-.12l5.163-.24c.72-.122.961-1.201 1.44-1.562.243-.12.72-.24.84.24l.24 6.364c.121 2.522.121 5.884.36 6.842 0 .603.243 1.204 0 1.562-.36.36-1.081-1.32-2.4-1.44-.72 0-3.123-.122-3.844-.24-1.08-.119-3.478.118-6.122.118-1.561-.118-3.962 0-5.281 0 0 3.966-.482 17.29-.121 21.135-.24 1.68-.24 3.359-.361 4.92.96 0 2.283.121 3.962.121 5.163.24 7.923 0 10.927 0 1.561-.12 3.122-.36 3.96-.36 2.164.118 5.044-.121 6.366 0 2.038-.361 2.64-2.162 3.602-1.801.479.118.479 1.44.479 2.643-.24 1.198-.598 8.162-.598 8.523v1.561c0 .36-.12.959-.603.959-1.44.12-4.92-.361-5.884-.361-1.32 0-3.12.242-4.32.12-3.12.24-5.285.24-6.725.24 5.645 0-21.49.243-17.53.122-.837 0-6.242.12-8.043-.24-.24-.358.242-1.8.36-2.159.48-.721 1.801-5.884 1.922-6.964v-3.723c-.12-.603 0-1.561.237-4.68.243-2.526.361-9.248.361-9.85.121-.959.121-4.8.121-9.724.121-.6.482-4.92.36-6.363.122-3.12.483-8.765.601-12.728.24-3.24.358-6 .24-6.603.24-3.12 0-4.32-.119-6.121.119-.482 0-2.883-.12-3.241 0-.361-2.402-6.367-2.402-8.168.36-.237 1.2-.118 1.561-.118.6.118 1.08 0 1.68.118.242 0 6.243 0 7.325.121l13.206.24h13.807c.721.121 1.561.121 2.404 0 1.68-.118 1.68 1.44 1.561 1.922m-72.525 77.44c0-.36.964-2.882 1.2-3.722l.722-4.681c.121-.722.482-2.523.6-4.563.242-1.561.36-2.762.36-4.802.12-1.801 0-3.484 0-5.164.12-1.68.24-3.362.24-5.042-.24-3.483-.12-6.845-.12-10.205 0-3.001.239-13.688.239-15.368-.118-1.2 0-6.845 0-7.564 0-.36 0-3.122-.118-5.044 0-1.92-.24-4.682-.72-7.444-.241-1.197-.36-3.24-.842-4.92-.12-.361-.24-.961 0-1.204.36-.237 2.283-.358 3.602-.479.482 0 6.364.6 8.525.722 1.92 0 2.644-.361 3.002.118.479.603-.6 3.844-1.082 5.042-.119.36-.48 2.283-.48 2.886.119 6.482-.12 3.24 0 7.2-.12 1.562-.12 3.242-.242 4.806l-.358 9.602c-.24 5.284-.24 8.886-.118 14.646 0 1.562 0 3.244-.121 4.803-.122 3.125-.24 6.366-.6 9.486-.243 2.883-.361 8.164-.361 9.247.118 5.76-.122 7.443 1.082 10.805.24.36.36.84.118 1.198-1.68.842-12.006 0-13.446.12-.482 0-.843 0-1.082-.478M242.265 17.29c-1.203-2.164-1.564-3.244-5.523-3.844-2.283-.482-6.364-.84-8.886-.719-2.04 0-3.963.48-5.764.598-.12 1.44 0 2.765 0 4.084l-.358 7.206c-.12 2.277 0 6.121-.12 8.404.6 0 9.243-.36 12.008-.36 2.038-.122 4.56-2.526 5.52-3.363 2.642-3.123 1.92-4.323 3.002-6.127-.118-.118 0-.358.121-.597.48-1.562.48-3.481 0-5.282m11.406 12.006c-3.362 8.162-6.364 10.205-11.406 12.367 1.68 6.242 3.242 9.122 6.122 19.206 1.08 3.844 2.283 6.964 3.723 12.127.597 2.283 3.483 6.364 3.844 7.686.116.479-.722.479-1.443.719l-12.606-.24c-1.801 0-2.523-.237-2.762-.719.479-2.161 1.558-3.001.721-7.564-1.321-5.045-2.883-9.965-3.965-14.889l-2.04-7.564c-.48-1.68-.959-4.32-1.799-7.201-2.403 0-6.005.358-7.685.476h-3.483c0 2.162-.24 4.205-.24 6.367 0 .718-.479 7.682-.24 11.766-.6 4.32.48 11.766 1.443 16.448.116.842.72 2.161.72 2.04.118.482-.362.482-.72.482-1.922 0-11.647.719-13.209.358-1.08 0-1.08-.121-1.08-.237-.12-1.082.362-1.922.72-2.765 1.682-3.48 1.682-12.845 1.564-16.326 0-1.082 0-2.162-.122-3.362.122-2.644.48-22.332.598-27.256.121-4.08.603-18.848.36-20.77-.6-3.481-1.8-7.325-2.28-9.605 0-.722.84-.84 1.444-.84 2.398 0 10.802.6 13.804.721 1.321.237 14.767.119 15.128.119 1.082.118 2.162.36 3.123.721 3.723.84 7.682 3.48 10.684 10.806.48 2.64 2.643 8.764 1.082 16.929m-73.12 51.386c0-.36.958-2.883 1.198-3.723l.721-4.681c.121-.722.48-2.523.6-4.563.24-1.561.361-2.762.361-4.802.119-1.801 0-3.484 0-5.164.119-1.68.24-3.362.24-5.042-.24-3.483-.121-6.845-.121-10.205 0-3.001.242-13.688.242-15.368-.121-1.2 0-6.845 0-7.564 0-.36 0-3.122-.121-5.044 0-1.92-.24-4.682-.722-7.444-.237-1.197-.358-3.24-.84-4.92-.118-.361-.24-.961 0-1.204.361-.237 2.283-.358 3.605-.479.476 0 6.36.6 8.522.722 1.923 0 2.641-.361 3.002.118.482.603-.6 3.844-1.08 5.042-.12.36-.481 2.283-.481 2.886.12 6.482-.119 3.24 0 7.2-.119 1.562-.119 3.242-.24 4.806l-.36 9.602c-.24 5.284-.24 8.886-.122 14.646 0 1.562 0 3.244-.118 4.803-.121 3.125-.24 6.366-.6 9.486-.24 2.883-.361 8.164-.361 9.247.12 5.76-.119 7.443 1.08 10.805.242.36.36.84.12 1.198-1.68.842-12.006 0-13.446.12-.482 0-.84 0-1.08-.478m-25.578-35.18c.361-.24-1.56-7.323-2.88-12.965-.482-3.241-1.564-10.808-2.164-11.048-.361.361-5.403 23.536-5.282 24.133.36.122 2.52.122 3.362.122 2.76 0 6.604 0 6.964-.243m-32.897 34.702c1.197-2.044 2.761-9.484 4.8-15.008.723-2.764 1.682-5.524 2.403-8.285.719-2.762 1.68-5.403 2.401-8.165 1.562-5.521 3.123-10.926 4.924-16.33.84-2.758 1.8-5.402 2.52-8.16.72-2.766 1.318-5.646 2.04-8.408 2.043-9.004 2.64-10.323 2.404-12.124-.6-3.483-.24-3.483 1.319-3.483 3.602.12 5.524-.122 9.965-.122.6-.118 3.002-.24 2.88.603l-.84 2.52c-.239 1.922 5.406 25.934 8.044 38.78.482 2.161 5.284 20.41 5.885 23.174.479 2.04 1.919 10.803 2.04 11.403.119 1.08.48 1.443.722 1.804 1.56 1.319.12 1.198-.603 1.198h-5.282c-1.561 0-6.243.603-6.482 0-.242-1.08.6-2.76.24-4.56-.122-.722-.84-3.002-1.08-4.442l-1.082-7.446c-.121-1.319-.84-4.681-1.2-5.763-5.403 0-10.566.12-13.447.12-1.2.12-2.762.12-3.362.12-.482 1.8-.721 3.483-1.2 5.162-.24 2.404-.6 3.602-.84 4.924-.482 2.762-2.641 6.722-3.723 11.166.12.719 1.082 1.2 1.082 1.561.12.482-.24.482-.843.36-4.802 0-9.604.72-14.886.72-.24-.598.482-.24 1.2-1.32M103.698 17.29c-1.198-2.164-1.559-3.244-5.521-3.844-2.28-.482-6.364-.84-8.886-.719-2.04 0-3.96.48-5.76.598-.122 1.44 0 2.765 0 4.084l-.361 7.206c-.122 2.277 0 6.121-.122 8.404.6 0 9.247-.36 12.006-.36 2.043-.122 4.563-2.526 5.524-3.363 2.64-3.123 1.922-4.323 3.002-6.127-.122-.118 0-.358.118-.597.482-1.562.482-3.481 0-5.282m11.406 12.006c-3.363 8.162-6.361 10.205-11.406 12.367 1.682 6.242 3.244 9.122 6.124 19.206 1.082 3.844 2.283 6.964 3.723 12.127.6 2.283 3.48 6.364 3.841 7.686.121.479-.721.479-1.44.719l-12.609-.24c-1.8 0-2.52-.237-2.759-.719.482-2.161 1.561-3.001.719-7.564-1.32-5.045-2.88-9.965-3.96-14.889l-2.043-7.564c-.48-1.68-.961-4.32-1.801-7.201-2.401 0-6.003.358-7.685.476h-3.481c0 2.162-.237 4.205-.237 6.367 0 .718-.482 7.682-.242 11.766-.6 4.32.479 11.766 1.44 16.448.121.842.721 2.161.721 2.04.119.482-.36.482-.721.482-1.92 0-11.645.719-13.207.358-1.082 0-1.082-.121-1.082-.237-.118-1.082.361-1.922.722-2.765 1.682-3.48 1.682-12.845 1.561-16.326 0-1.082 0-2.162-.121-3.362.121-2.644.482-22.332.603-27.256.118-4.08.598-18.848.358-20.77-.6-3.481-1.798-7.325-2.28-9.605 0-.722.84-.84 1.44-.84 2.404 0 10.808.6 13.807.721C86.41.958 99.856.84 100.216.84c1.08.118 2.162.36 3.12.721 3.723.84 7.686 3.48 10.687 10.806.482 2.64 2.64 8.764 1.08 16.929m-68.56 3.602c4.68-1.801 6.842-6.485 6.12-11.169-.239-.958-.239-2.04-.36-2.999-.597-3.243-3.12-5.884-7.44-6.242l-2.644-.361c-2.64-.36-8.164-.721-10.326-.721-.6 10.323-.719 19.57-.84 22.21 1.2.361 2.401.361 3.72.361H37.9c.958 0 6.603-.12 8.643-1.08M16.765 81.283c-.119-.358.96-3.123 1.08-3.604.48-2.278.963-8.523 1.081-9.724 0-2.282 0-4.56.121-6.842 0-2.641.48-15.25.24-27.256v-6.722c.48-9.604 1.08-12.008-.119-20.652-.36-1.08-.481-2.28-.963-3.48l-.598-1.562c-.6-1.322 0-1.44.719-1.44 1.8 0 7.685.24 12.248.48 1.198 0 15.968.72 18.728.839 5.766.964 12.487 6.843 13.928 12.97.479 2.159.6 4.32.6 6.482.118 2.88-.719 9.604-3.72 15.368-.964 1.319-1.922 2.52-3.126 3.602-1.198 1.2-2.638 1.922-4.199 2.64-1.682.722-3.241 1.562-5.163 1.922-.722.24-1.561.361-2.522.48-2.641.36-4.803.96-8.526.96-2.159 0-3.96-.36-5.52-.242-.12 1.082 0 2.165-.24 3.244-.121 2.762-.722 19.93-.961 24.012 0 2.161.96 4.202 1.44 7.925.24.96-7.443.96-12.006.84-1.082.12-2.401 0-2.522-.24" id="Fill-1"/></g></g></g></svg>