<svg width="361" height="268" viewBox="0 0 361 268" version="1.1" xmlns="http://www.w3.org/2000/svg"><g id="Chosen-ones" stroke="none" stroke-width="1" fill="none" fill-rule="evenodd"><g id="Home-Logo-1---a" transform="translate(-281 -242)" fill="#FFF"><g id="Group-3" transform="translate(281.5 242)"><path d="M257.631 267.193c-.532-1.134-1.587-1.046-2.406-1.425l-.035 1.182c.814.08 1.628.162 2.441.243zM311.127 69.1c-.283-.38-.596-.737-.896-1.105l-.6 1.353c.226.345.465.707.696 1.056h1.706c-.3-.435-.59-.88-.906-1.304zm36.641 139.058v-.91l-.563.247-.269 1.785 2.082.287-.348-1.533-.902.124zm1.25 1.409h1.205l.389-.917-1.185-.991c.083-.11.165-.22.249-.329l-1.138.213.132.49.348 1.534zm2.924-191.609l.933-1.503c-.54.21-.77.298-.81.313l-.315-2.61c-.603.492-1.07.213-1.502-.264.065 1.495.372 2.89 1.694 4.064zm-232.615 33.51c-.36.3-.983.562-.653 1.26l1.312-.973.12.17c-.23.37-.458.74-.721 1.166 1.252.303 1.916.212 3.07-.346-2.134-1.282-1.799-1.407-1.327-2.477-.604.394-1.249.742-1.8 1.2zm90.663 156.34l-.045-.73c-.8-.047-1.58-.108-2.36-.129-.171-.005-.346.133-.518.206l1.828.47 1.593 2.555c1.308-.59-.006-1.856.99-2.476l1.974-.6c-1.147.186-2.433-.34-3.462.704zM280.238 3.513c1.288-.083 2.61-.048 3.843-.36.465-.119 1.567-.162 1.479-1.034L282.753.554l.083 1.03-.58-.249.334 1.679c-.895-.52-1.69-.281-2.464.13.038.129.083.371.112.369zm23.373 245.74l-1.144.134.84-1.649-4.493 3.352.31 1.211c1.632-.816 3.214-1.705 4.487-3.047zm-87.603 17.563l.177-.507 1.294.776.133-1.823-4.737-.382-.654-1.198-.214.856c-.567.37-1.3-.057-1.747.773 1.178.269 2.22.507 3.44.784l.027.542 2.281.179zm71.397-41.494c-.748.251-1.428.704-2.139 1.064.23.269.998.158.611.864 1.343-.416 2.671-.895 4.035-1.224.843-.204 1.747-.15 2.616-.266 1.421-.19 2.794.062 4.168.365-.4-.403-.798-.807-1.197-1.211-2.734-.579-5.443-.484-8.094.408zm-80.676 39.971h-5.141l-.734 1.491 12.551-.171c-.486-.078-.975-.235-1.457-.216-1.285.05-2.183-.412-2.454-1.64l-2.486-.193-.279.73zm18.22-57.784c-1.032-.029-2.067.022-3.096-.036-1.709-.094-3.412-.307-5.121-.356-.799-.023-1.604.22-2.406.343l-.304.876c.772.09 1.541.221 2.315.262 2.736.143 5.473.255 8.21.38-.01-.635.09-1.188.904-1.205-.168-.092-.333-.26-.503-.264zm71.747 18.616l3.999 1.546c1.05 1.11 1.956 2.567 3.429 3.454.773-.814.796-.819.657-1.457-.267-1.22-.912-2.206-2.066-2.723-1.311-.585-2.642-1.165-4.019-1.553-1.024-.289-2.041-.952-3.197-.478l1.197 1.211zm-114.24 11.491c-1.254-.494-2.515-.333-3.768-.348-1.497-.018-2.997.127-4.518.202-.096-.232-.132-.445-.254-.585-.223-.256-.496-.468-.732-.683.18-1.36-.09-1.696-1.869-2.206-.16 1.045-.422 2.076-.454 3.113-.044 1.465.07 2.935.14 4.402.026.56.102 1.127.931 1.092.833-.776.831-1.745.52-2.968 1.215-.175 2.37-.404 3.537-.495 2.262-.178 4.53-.28 6.795-.413.846.006 1.743.089 1.777-1.155-.708.03-1.503.281-2.106.044zm18.818-.076c-2.623.021-5.247.037-7.87.091-1.037.021-2.072.216-3.106.198-1.913-.034-3.825-.166-5.737-.257-.034 1.244-.93 1.161-1.777 1.155.311.097.657.333.926.266 1.153-.289 2.244-.025 3.349.218.084.018.186-.05.278-.077.189-.314.378-.628.59-.975.742.982 1.447 1.443 2.323 1.422a260.58 260.58 0 005.568-.215c2.324-.106 4.654-.201 6.97-.303 1.571-.07 3.284.03 4.908.326-.257-.686-.11-1.306.309-1.881-2.244.01-4.487.014-6.73.032zm83.992-11.154c-.842-.026-1.538.241-2.14.87-1.614 1.688-3.666 3.033-4.208 5.539-.039.177-.207.327-.314.49-1.18 1.821-1.51 3.895-1.354 5.962.124 1.663.719 3.29 1.118 4.93.058.235.155.478.298.67 1.256 1.682 2.133 3.656 4.166 4.712 1.167.606 2.102 1.644 3.227 2.348 1.09.682 2.428.797 3.606 1.341.682.314 1.566.19 2.358.271 2.481.256 4.943.402 7.102-1.218l-.311-1.21c-.2.017-.432-.027-.593.061-1.684.918-3.494.909-5.347.885-2.523-.033-4.783-.86-6.926-2.053-1.665-.926-3.34-1.988-4.203-3.734-.759-1.536-1.255-3.23-1.662-4.905-.685-2.814-.286-5.638.706-8.284.938-2.506 2.897-4.305 5.088-5.81.387-.707-.38-.596-.61-.865zm61.939-18.891c-.775.07-1.55.206-2.324.197-1.141-.013-2.28-.18-3.421-.181-.561-.001-1.122.221-1.894.388-.91-.385-2.043-.692-3.355-.6-1.818.125-3.658-.047-5.487-.117-1.135-.043-2.269-.215-3.4-.181-1.428.043-2.875.45-4.272.304-1.234-.13-2.452-.075-3.66-.164-2.69-.2-5.352.057-8.026.112-.489.01-.98.222-1.462.195-1.892-.11-3.785-.433-5.669-.37-1.457.05-3.101-.34-4.167.86-.785-.243-1.434-.618-2.08-.613-1.744.012-3.51-.25-5.232.287-.357.111-.77.071-1.155.053-1.556-.072-3.11-.214-4.666-.233-2.148-.028-4.297.025-6.446.056-3.156.044-6.313.064-9.467.177-.743.027-1.474.383-2.307.614l1.034 1.77c.721.058 1.511.228 2.28.161 1.75-.151 3.492-.203 5.24-.049.79.07 1.58.215 2.369.218 1.68.006 3.363-.108 5.042-.08 1.587.027 3.171.194 4.758.259.8.033 1.601-.022 2.659-.043.066.02.436.257.767.212 1.712-.233 3.417-.406 5.152-.338.55.022 1.111-.258 1.785-.43.769.475.757.434 1.451.236.67-.19 1.402-.492 2.045-.382 2.676.456 5.336.694 8.032.2.571-.104 1.169-.118 1.751-.102 2.317.06 4.63.197 6.946.213 1.806.012 3.612-.105 5.417-.182.91-.038 1.817-.157 2.725-.162.765-.005 1.53.1 2.295.157.692.052 1.383.12 2.076.151 2.138.096 4.3-.585 6.42.207.167.062.391.006.58-.035 1.315-.282 2.596-.199 3.936.008 1.19.183 2.455-.116 3.771-.208l-.31-.78.269-1.785zm-7.785 35.308c-.041-.824.023-1.633-.141-2.392-.391-1.808.012-3.777-1.174-5.428-1.128-1.57-1.475-3.606-2.958-4.984-.367-.342-.56-.863-.877-1.268-.85-1.087-1.591-2.39-3.074-2.65-2.192-.386-4.322-.755-6.616.115-2.534.962-4.845 2.197-6.944 3.842-1.088.853-1.894 2.077-2.108 3.433-.267 1.685-.311 3.425-.26 5.136.077 2.525.577 4.969 2.153 7.053.292.387.815.657.97 1.077.504 1.353 1.796 1.946 2.666 2.937.574.653 1.28 1.256 2.044 1.665 1.818.973 3.869.872 5.853 1.012.975.07 2.028.244 2.926-.028 1.907-.579 3.642-1.466 5.04-3.058 1.676-1.905 2.387-4.058 2.5-6.462zm-36.113 4.935c2.974-2.595 4.429-6.166 6.194-9.55.717-1.375 1.223-2.863 2.056-4.16.882-1.372 1.836-2.745 2.99-3.884 1.98-1.953 4.32-3.402 6.883-4.567 2.29-1.04 4.667-1.547 7.075-1.358 3.085.241 6.01.914 8.42 3.372 1.413 1.44 1.956 3.209 3.023 4.743a12.99 12.99 0 011.301 2.33c.242.571-.081 1.231.218 1.892.292.642.24 1.438.356 2.164.083.516.195 1.028.333 1.74-.086.886-.237 2.008-.295 3.135-.078 1.52-.377 2.941-1.217 4.253-.575.9-.87 1.898-1.748 2.692-2.894 2.612-6.19 3.738-10.069 3.557-2.42-.114-4.705-.71-6.977-1.416-.876-.273-1.677-.783-2.69-1.27-.263-.182-.735-.44-1.125-.79a42.5 42.5 0 01-2.37-2.263c-1.624-1.693-1.998-3.894-2.385-6.08-.024-.136.032-.295.084-.43.034-.087.127-.152.118-.142-1.567-2.71.049-5.295.308-8.022-1.414 1.436-2.12 3.128-2.921 4.776-.862 1.77-1.489 3.654-2.363 5.385-.784 1.554-2.25 2.77-3.449 4.106-.431.48-.961.871-1.446 1.303l-1.144.133.84-1.649zM69.643 210.451c.754 2.386.825 4.903 1.021 7.383.086 1.082-.023 2.179-.026 3.269a82.2 82.2 0 00.034 2.995c.032.94.123 1.85.007 2.821-.285 2.417-.306 4.867-.379 7.305-.037 1.23.045 2.464.08 3.954.06-.06-.278.118-.303.331-.134 1.187-.537 2.49-.205 3.552.713 2.279.033 4.539.3 6.81.282 2.39-.113 4.855-.142 7.289-.028 2.442.03 4.886.05 7.172l-2.07 1.81h-3.57l.098.843-.922.182c.448.238 1.024.063 1.251.27.804.734 1.786.488 2.641.52 3.335.122 6.676.133 10.013.062.796-.017 1.846.183 2.408-.905l-.61-1.084c-.547.054-.983.115-1.42.135-.5.024-1.002.013-1.502.016-1.639.008-2.418-.853-2.335-2.516.078-1.561.123-3.125.16-4.687.025-1.077.003-2.155.018-3.232.035-2.608.11-5.216.11-7.825.003-2.39-.151-4.78-.083-7.167.056-2.01.333-4.015.526-6.17l-1.284.29-.216-.746h1.22c.1-.18.192-.267.192-.353-.02-2.498-.098-4.996-.063-7.492.028-2.025.412-4.067.232-6.065-.18-1.992.47-3.965-.115-5.965-.218-.747.315-1.691.181-2.491-.155-.933-.043-1.652.619-2.284 1.856-.767 4.043.33 5.851-1.02-.5-1.573-1.94-.916-2.908-1.21-.452-.138-1.114.417-1.685.66-.49-.136-1.098-.449-1.706-.448-2.021.003-4.042.115-6.063.193-1.44.056-2.882.095-4.317.212-.333.027-.643.343-1.128.619 1.452 1.176 2.974.326 4.46.688.554.773 1.316 1.448 1.58 2.28zM282.59 3.014l-.334-1.679-.84-.587-4.28.21c-.745.037-1.736-.208-2.181.176-.814.705-1.646.054-2.4.4-.701.32-1.424-.076-2.088-.08-1.78-.007-3.637-.12-5.312.692-.185.89.21 1.13.973 1.116 1.618-.027 3.238-.008 4.752-.008 1.09 1.304 1.408 2.75 1.558 4.3.185 1.908.713 3.759.385 5.735-.41 2.482-.754 4.986-.285 7.53.2 1.082.186 2.216.172 3.325-.043 3.317-.19 6.633-.19 9.95 0 2.598.25 5.197.224 7.794-.032 3.181-.236 6.36-.364 9.504-.353.419-.745.755-.97 1.18-.429.802-1.02.842-1.853.78-1.556-.117-3.128-.034-4.72-.034l-.332 1.385c1.253.127 2.396.242 3.538.36.645.066 1.309.276 1.93.185 2.402-.35 4.803-.355 7.222-.273 1.406.048 2.82-.163 4.23-.21 1.145-.04 2.293-.01 3.424-.01.105-1.268-.011-1.641-.774-1.725-1.228-.135-2.475-.115-3.714-.151-.477-.014-.954-.002-1.332-.002-1.253-1.687-1.268-1.686-1.332-3.538-.03-.855.016-1.712.018-2.567.001-.932-.05-1.865-.008-2.795.156-3.427.446-6.85.36-10.286-.036-1.485.189-3.023-.123-4.445-.581-2.647-.053-5.25-.07-7.87-.014-2.32.118-4.64.146-6.96.04-3.15-.87-6.303.03-9.457.103-.358.014-.77.014-1.2l2.062-.615c.775-.411 1.569-.65 2.464-.13zM26.854 263.186c-1.59-.366-3.217-.572-4.8-.963-1.149-.283-2.35-.593-3.349-1.19-1.812-1.083-3.521-2.353-5.023-3.86-.438-.44-.813-.95-1.169-1.46-.878-1.265-1.692-2.575-2.603-3.814-.716-.975-1.723-1.776-2.267-2.827-.757-1.462-1.27-3.064-1.77-4.643-.91-2.87-1.59-5.724-.974-8.837.386-1.95.134-4.038.078-6.061-.06-2.183.628-4.21 1.806-5.893 1.225-1.75 2.03-3.792 3.679-5.273 1.297-1.166 2.442-2.502 3.626-3.791 1.344-1.464 3.175-2.177 4.835-3.138a14.001 14.001 0 016.029-1.862c1.437-.107 2.87-.28 4.302-.445 1.208-.14 2.41-.368 3.622-.461 1.95-.15 3.826.282 5.73.69 1.764.377 3.54.454 5.271 1.217 2.493 1.098 5.048 1.966 7.198 3.76 1.366 1.14 2.562 2.278 2.975 4.074.067.293.393.526.578.76 1.151-.409 1.876-1.327 1.742-2.645-.12-1.18-.368-2.43-1.366-3.266l-1.088-.07c-.966-.817-1.773-1.403-2.46-2.108-.68-.698-1.383-1.043-2.288-.6-.064-.325-.038-.69-.165-.754-1.369-.7-2.729-1.8-4.157-1.905-1.84-.137-3.54-.77-5.345-.945-1.82-.176-3.567-.898-5.455-.656-2.111.271-4.232.486-6.354.662-3.423.283-6.79.803-9.827 2.52-2.21 1.248-4.699 1.94-6.473 4.06-1.423 1.7-3.31 2.984-4.781 4.744-1.82 2.177-3.109 4.564-4.384 7.048-1.088 2.118-.93 4.384-1.32 6.572-.293 1.657-.04 3.403-.14 5.102-.146 2.504-.283 4.992.658 7.395.053.136.072.295.064.442-.094 1.752 1.112 3.061 1.754 4.501.934 2.095 2.47 3.94 3.864 5.806 1.19 1.593 2.514 3.092 3.837 4.58.369.415.963.624 1.424.967.855.634 1.618 1.428 2.543 1.925a148.886 148.886 0 007.346 3.665c.926.433 1.946.846 2.946.907 3.517.212 7.043.268 10.518.381l.676-.607c.582 0 .893.065 1.163-.012 1.11-.312 2.2-.893 3.31-.928a8.693 8.693 0 002.13-.337c2.012-.552 3.621-1.75 5.283-2.914 1.842-1.29 3.735-2.466 5.5-3.905 1.825-1.488 3.312-3.164 4.723-4.979.567-.729.522-1.326-.392-1.966-.863.723-1.752 1.393-2.55 2.158-.668.64-1.188 1.435-1.85 2.082-1.64 1.602-3.299 3.172-5.395 4.215-.517.257-.836.912-1.43 1.597l-6.19 2.121c-.015.114-.044.33-.09.654l-.85-.677c-1.96.443-3.902.608-5.845.76-1.865.148-3.612-.86-5.257-.678-.783-.4-1.265-.77-1.803-.895zM193.286 39.141c-.024-1.596-.137-3.19-.251-4.783a66.971 66.971 0 00-.336-3.351c-.064-.524-.21-1.038-.318-1.556l.084-.011c-.12-.94-.242-1.878-.395-3.065-.085.069.213-.051.234-.209.11-.82.171-1.65.21-2.477.137-2.843.26-5.687.38-8.53.024-.547.035-1.096.016-1.643-.07-2.007-.168-4.013-.228-6.02-.031-1.034.257-1.967 1.003-2.73.72-.738 1.42-1.494 2.008-2.112.75-.08 1.334-.135 1.915-.209.562-.07.94-.353.95-.963.009-.626-.282-1.06-.914-1.187-.388-.078-.789-.096-1.185-.13-.726-.063-1.452-.16-2.179-.165-.686-.004-1.373.107-2.06.14-1.539.072-3.08.106-4.617.196-1.144.068-2.282.248-3.427.294-1.725.07-3.462-.024-5.178.128-1.282.114-1.56 1.137-.68 2.26h6.393c1.495 1.893 2.578 3.985 2.699 6.328.102 1.97.014 3.936.222 5.932.328 3.147.274 6.344.228 9.518-.036 2.52-.308 5.036-.456 7.556-.016.267.118.54.147.814.04.375.067.755.062 1.133-.008.586-.07 1.17-.07 1.756-.003 1.947.082 3.896.003 5.839-.124 3.02-.38 6.036-.524 9.056-.042.88.268 1.793.141 2.65-.25 1.698.03 3.39-.325 5.124-.374 1.826.075 3.81.076 5.726 0 1.694.222 3.464-1.182 5.017-.608.042-1.343.067-2.073.147-1.028.114-2.04.282-2.112 1.535l-1.478.526.08.35c1.479-.144 2.958-.279 4.436-.431.782-.081 1.559-.262 2.34-.276 1.25-.022 2.533.46 3.715-.37.153-.108.476.022.719.048 1.756.186 3.51.376 5.267.557.838.086 1.751.308 2.007-1.098-.427-.178-.874-.537-1.29-.505-1.194.092-1.805-.67-2.396-1.45-.819-1.08-1.262-2.233-1.144-3.694.133-1.648-.269-3.338-.15-4.989.177-2.444.54-4.874.29-7.332-.057-.56-.16-1.113-.242-1.678l.43-.123c-.552-1.835-.622-3.419-.347-5.492.094-.713.209-1.499-.655-1.89.763-1.957.643-2.618-.369-3.013.183-.38.532-.767.526-1.148zm-.86 182.287c.01-.433.131-.899.014-1.293-.425-1.437-.937-2.848-1.405-4.271-.933-2.833-2.424-5.488-2.578-8.454-1.734-.8-5.202-.662-5.9.112-.177-.132-.372-.396-.518-.37-2.304.398-4.606.526-6.94.256-.594-.069-1.227.287-1.84.284-1.642-.007-3.283-.104-4.924-.162-2.716-.095-5.43-.229-8.147-.268-2.283-.032-4.568.023-6.851.086-.974.027-1.955.302-2.915.232-1.667-.121-3.32-.423-5.028-.655l-.873 1.37c.821.239 1.445.514 2.092.587 1.187.134 2.392.107 3.58.238.386.043.811.295 1.096.576.755.744.578 1.683.478 2.63-.13 1.235-.222 2.485-.171 3.723.089 2.19.41 4.375.43 6.564.029 2.982-.175 5.966-.205 8.95a643.35 643.35 0 000 11.852c.022 2.53.173 5.06.182 7.59.012 3.503-.463 6.999-.216 10.51.02.29 0 .63-.132.876-.5.933-1.054 1.838-1.437 2.496-2.165.206-4.114-.369-5.915 1.292.641.221 1.074.494 1.511.501 2.765.042 5.516.175 8.276.437 2.841.27 5.723.15 8.587.127 2.905-.022 5.833-.397 8.709-.138 3.452.311 6.89-.138 10.359.32 2.838.376 5.793-.103 8.693-.254.661-.034 1.114-.36 1.348-1.147a56.897 56.897 0 011.303-3.875c.887-2.35 1.709-4.727 2.473-7.119.306-.956.16-1.922-.674-2.748-.934.723-1.295 1.69-1.622 2.666-.422 1.264-.727 2.573-1.233 3.801a35.325 35.325 0 01-1.966 3.981c-.67 1.18-1.606 2.04-3.124 2.016-1.185-.019-2.371.101-3.558.114-2.139.025-4.279.017-6.418.02-1.42 0-2.842-.027-4.262.001-1.68.034-3.358.161-5.038.164-1.675.003-3.35-.106-5.027-.146-.242-.006-.483.118-.73.15-.277.035-.562.068-.838.043-1.128-.1-2.251-.299-3.379-.316-1.192-.017-1.413-.16-1.416-1.303-.012-5.016-.022-10.032-.063-15.049-.01-1.248-.241-2.5-.189-3.743.131-3.088-.089-6.171.16-9.268.24-2.998-.01-6.032.045-9.049.03-1.582-.255-3.148.027-4.756.177-1.008-.157-2.107-.272-3.266.585-.358.354-1.068.266-1.743-.07-.538-.26-1.09-.191-1.61.252-1.886.378-3.74-.773-5.56.41-.064.686-.146.96-.143 4.023.027 8.045.07 12.067.1 1.184.008 2.369-.05 3.55-.02 1.72.047 3.44.214 5.157.207a63.55 63.55 0 005.373-.256c2.456-.218 4.394.93 5.58 2.78 1.161 1.814 1.689 4.036 2.477 6.085.434 1.13.59 2.391 1.486 3.295l.489-.05zM153.744 31.303c-.13-.583-.174-1.031-.334-1.433-.274-.689-.692-1.325-.92-2.024-.505-1.552-.85-3.158-1.41-4.688-.474-1.296-1.252-2.481-1.724-3.778-.459-1.26-1.334-2.261-1.871-3.456-.689-1.53-1.537-3.023-1.964-4.625-.328-1.235-1.054-2.233-1.302-3.417-1.519 1.721-1.765 4.098-3.469 5.923-.074.227-.19.755-.414 1.235a216.16 216.16 0 01-2.526 5.245c-.406.812-.97 1.55-1.323 2.38-.444 1.047-.681 2.182-1.122 3.232-.872 2.077-1.822 4.12-2.814 6.346 1.087-.192 1.862.112 2.78-.112 1.449-.352 3.033-.135 4.56-.177 4.546-.125 9.116.187 13.853-.651zm-32.616 18.965c.106-.452.103-1.218.338-1.3.92-.32 1.037-1.091 1.389-1.801 2.04-4.123 4.17-8.2 6.198-12.33 1.268-2.582 2.411-5.227 3.61-7.845.041-.09.047-.205.106-.279 1.15-1.453 1.299-3.32 2.051-4.931.75-1.606 1.688-3.124 2.477-4.713.5-1.01.86-2.087 1.315-3.12 1.235-2.801 2.476-5.6 3.736-8.39.605-1.34 1.203-2.688 1.926-3.964.239-.422.858-.63 1.243-.894.663 1.212 1.248 2.174 1.728 3.185.476 1 .811 2.065 1.27 3.073.926 2.04 1.914 4.052 2.837 6.094.569 1.26 1.048 2.558 1.597 3.828.51 1.178 1.04 2.349 1.593 3.508.485 1.012.784 2.116 1.404 3.056 1.32 2 1.622 4.37 2.42 6.556.64 1.747 1.64 3.358 2.071 5.154.514 2.139 1.849 3.799 2.828 5.671 1.16 2.218 2.124 4.542 3.13 6.838.518 1.182.884 2.433 1.432 3.6.548 1.168 1.591 1.685 2.865 1.728.494.017.99.003 1.477.003.66 1.38.146 2.215-1.297 2.216-1.511.001-3.023.056-4.534.109-2.52.088-5.038.194-7.558.289-.723.028-1.252-.254-1.586-1.143 1.56-1.25 3.684-.83 5.353-1.54l-7.862-19.182c-3.084.186-6.064.375-9.046.534-.48.026-.968-.094-1.453-.125-3.42-.221-6.831.203-10.243.158-1.03-.014-1.876.499-2.938.365-1.373 3.23-2.708 6.42-4.085 9.592a68.777 68.777 0 01-1.971 4.138c-.18.348-.597.573-.845.8l-.416 1.849.556 1.47c1.24.147 2.484.32 3.732.423.323.026.661-.174.997-.251.872-.199 1.294-.054 2.073.669-.18.203-.475.381-.521.61-.186.914-.706.975-1.538.92-1.466-.1-2.948-.052-4.418.036-2.81.168-5.614.453-8.424.594-1.128.057-2.267-.138-3.56-.23l-.224-1.76c.773-.079 1.388-.167 2.005-.198 1.275-.064 2.553-.08 3.827-.163.17-.01.321-.292.481-.448l1.312-.972.12.17c-.23.37-.458.74-.721 1.166 1.252.303 1.916.212 3.07-.346-2.134-1.282-1.799-1.407-1.327-2.477zm92.571 215.827l-3.439-.784c.447-.83 1.18-.402 1.747-.773l.214-.856c-.03-2.325-.122-4.652-.066-6.974.04-1.69.352-3.373.408-5.064.051-1.529-.067-3.065-.133-4.596-.106-2.465-.23-4.929-.357-7.626 2.214-.038 4.266-.13 6.316-.096 2.753.046 5.503.216 8.256.279 1.145.026 2.202.18 3.306.6 2.427.922 3.88 2.981 5.642 4.63 1.566 1.465 2.706 3.388 4.031 5.112.18.233.383.46.506.724.7 1.498 1.378 3.007 2.066 4.511 1.586 3.472 3.18 6.94 4.75 10.419.125.277.104.62.153.949l.95-.196c.054.983.766.866 1.382.843 1.92-.07 3.84-.163 5.759-.247l.035-1.182-.857-.804-1.982-.16c-.79-.952-1.772-1.9-2.466-3.027-1.086-1.762-1.994-3.636-2.944-5.479-.752-1.46-1.376-2.989-2.192-4.41-2.11-3.669-4.983-6.756-7.763-9.908-.288-.327-.662-.597-1.04-.823-1.163-.7-2.347-1.366-3.61-2.095.32-.228.57-.482.875-.607.87-.354 1.79-.591 2.638-.988 3.313-1.552 6.644-3.093 8.892-6.182.058-.08.135-.15.214-.21 1.095-.826 1.694-1.975 1.83-3.285.17-1.649.148-3.316.24-4.973.058-1.044-.439-1.826-1.023-2.525.05-.351.238-.741.123-.997-.814-1.822-.995-3.927-2.427-5.47-.437-.472-.854-.967-1.333-1.393-.999-.887-1.9-2.093-3.077-2.527-2.598-.958-5.15-2.419-8.124-1.81-.156.032-.347-.168-.527-.183-1.315-.113-2.636-.314-3.894.008-.442-.05-.885-.098-1.327-.147-.814.017-.914.57-.905 1.205 1.556.191 3.11.396 4.67.57 1.181.133 2.386.136 3.547.365 1.114.22 2.155.617 2.935 1.612 1.615 2.058 3.44 3.956 4.964 6.073.556.772.538 1.975.717 2.993.128.735.118 1.494.223 2.235.248 1.744-.02 3.413-.595 5.063-.207.591-.255 1.237-.41 2.039-.87.26-.625 1.276-.93 2.11l-2.326 1.971v.848c-.14.062-.259.15-.387.166-.225.028-.526-.082-.672.029-2.574 1.966-7.543 2.865-10.79 2.772-2.281-.066-4.556-.333-6.835-.475-.54-.033-1.095.043-1.634.128-1.504.235-2.998.132-4.715-.28-.032-.377-.11-.976-.127-1.577-.053-1.824.335-3.632.332-5.431-.003-1.026.37-1.97.275-2.98-.098-1.037-.12-2.082-.185-3.123-.252-3.974.25-7.936.18-11.906-.01-.6-.299-1.192-.397-1.797-.083-.515-.171-1.062-.081-1.563.074-.411.354-.821.96-.478.19.108.502.002.757-.006l.304-.876-.874-.357-1.973.601c-.997.62.317 1.886-.991 2.476l-1.593-2.555-1.828-.47c-1.218.016-2.436.025-3.654.05-.572.013-1.217-.078-1.451.8 1.918.552 3.802.71 5.696.48l1.02 1.1c-.05 2.61-.054 5.272-.168 7.93-.067 1.557-.344 3.103-.467 4.66-.292 3.694.36 7.4-.183 11.106-.2 1.373.082 2.816.145 4.227-.418.575-.566 1.195-.309 1.881.08.681.228 1.363.226 2.044-.003.94-.188 1.882-.168 2.82.036 1.727.238 3.452.238 5.178 0 2.369-.168 4.738-.181 7.108-.016 2.704.21 5.423-.803 8.025.79.06 1.58.123 2.486.193.27 1.228 1.169 1.69 2.454 1.64.482-.02.971.138 1.457.216l.322.024-.028-.542zm-76.859-29.28c-.075-1.109-.247-2.256-.211-3.397.1-3.169-.534-6.187-1.634-9.136-.292-.784-.33-1.699-.75-2.392-.933-1.539-1.823-3.202-3.116-4.4-1.793-1.662-2.955-3.892-5.192-5.186-1.74-1.005-3.492-1.811-5.429-2.16-2.587-.466-5.193-.866-7.807-1.142-2.809-.297-5.634-.47-8.456-.6-1.805-.082-3.618.011-5.427.024-.45.004-.899 0-1.573 0-.708.633-.826.907-.687 1.983.039.295.184.594.152.876a212.81 212.81 0 01-.697 5.62c-.246 1.757-.723 3.503.003 5.266.128.309.117.694.099 1.04-.126 2.403-.274 4.804-.403 7.207-.024.438.023.88.016 1.32-.014.79-.044 1.58-.071 2.535l.315.222v9.223l-.54.282c.927.797 1.205 5.596.448 7.241.162.182.463.363.465.546.027 3.755.02 7.51.02 11.594l1.38 1.403c2.221-.139 4.009-.32 5.798-.345 2.364-.031 4.73.119 7.094.086 3.21-.045 6.455.452 9.594-.766 1.751-.68 3.55-1.225 5.001-2.48a35.795 35.795 0 002.088-1.962c1.484-1.508 2.655-3.341 4.584-4.387.12-.065.184-.233.268-.357 1.823-2.674 2.823-5.734 3.72-8.77.569-1.922.395-4.06.58-6.098.083-.914.23-1.822.368-2.89zm-46.16-28.369c-1.393.103-2.493.213-3.596.256-.805.031-1.357-.378-1.835-1.232.189-.795.781-.894 1.48-.87 3.613.125 7.225.274 10.84.342 2.175.04 4.352-.077 6.529-.075 1.43.002 2.86.084 4.289.141 1.232.05 2.47.066 3.696.186 2.648.26 5.303.49 7.93.895 2.42.372 4.81.938 6.957 2.217.043.026.086.07.13.071 2.593.055 3.936 2.139 5.56 3.617 2.247 2.046 3.78 4.718 5.32 7.319.635 1.074.841 2.401 1.246 3.613.058.173.09.372.197.509 1.294 1.647 1.42 3.68 1.743 5.607.32 1.904.325 3.86.477 5.793.015.196.136.39.126.58-.135 2.34-.27 4.681-.445 7.019-.04.536-.15 1.1-.375 1.583-.746 1.602-.752 3.466-1.883 4.943-1.11 1.45-2.165 2.954-3.099 4.52-.954 1.6-2.448 2.709-3.526 4.15-1.835 2.45-4.437 3.71-6.975 5.122-.392.218-.85.352-1.182.636-.708.606-1.471.79-2.36.557-1.133-.297-2.238-.078-3.344.186-2.025.482-4.084.136-6.127.21-1.43.052-2.938-.408-4.284-.092-1.934.454-3.798-.027-5.691.07-1.513.077-3.006.252-4.51.377-2.409.2-4.828.287-7.244.39-1.32.057-2.642.06-3.963.056-.331-.001-.662-.126-.94-.184-.48-1.023-.003-1.515.822-1.762 1.027-.308 2.108-.46 3.105-.839 1.875-.713 2.056-1.17 1.998-3.159-.097-3.384-.118-6.77-.166-10.156-.003-.147.074-.295.07-.442-.06-2.65-.169-5.298-.175-7.947-.004-1.229.255-2.457.277-3.687.03-1.773-.082-3.547-.068-5.32.015-1.735.094-3.471.176-5.205.093-1.964.266-3.925.321-5.89.065-2.306.071-4.615.042-6.922-.016-1.23-.03-2.487-.284-3.68-.25-1.17-.803-2.275-1.258-3.503zM310.328 70.404l-.697-1.056c.218-.49.41-.921.6-1.353-.112-3.086-.226-6.172-.351-9.582.744-1.942.12-4.236.105-6.507.02-.342.246-.732.17-1.05-.306-1.286-.06-2.53.089-3.798.161-1.372.242-2.759.255-4.14.01-.93-.265-1.865-.224-2.79.064-1.416.29-2.825.454-4.307 2.427.102 4.833.227 7.241.297 2.584.074 5.17.15 7.754.114 1.037-.014 2.07-.326 3.23-.524 2.269.21 3.007 2.472 4.33 3.976l-.487.229c.41.835.781.478 1.34.077-.188-1.835-.394-3.702-.556-5.574-.032-.37.058-.77.172-1.13.28-.887.607-1.76.903-2.604l-1.048-1.306c-1.871.72-1.677 2.754-2.675 3.935l-1.19.415c-.965-.528-1.865-.368-2.704-.344-1.276.036-2.562.372-3.818.27a79.23 79.23 0 00-10.086-.181c-.904.04-1.963.594-2.81-.252.073-.576.344-1.192.172-1.635-.871-2.242.137-4.615-.566-6.85-.027-.086.035-.195.04-.295.067-1.08.27-2.176.166-3.24-.329-3.38-.286-6.758-.2-10.144.065-2.513.013-5.03.013-7.555 1.15-.267 2.466-.163 3.807-.113 2.823.103 5.656.013 8.484-.055 1.485-.035 2.968-.193 4.453-.288 1.17-.075 2.34-.14 3.71-.22.526.57 1.445.195 2.346.27 3.341.278 6.657.806 10.033.727.827-.02 1.762.092 2.37.998.508.758 1.253 1.355 1.864 2.049.456.52 1.018 1.018 1.266 1.634.532 1.326.876 2.728 1.334 4.086.153.455.418.872.632 1.306.432.477.9.756 1.502.264-.07-.13-.183-.254-.208-.392-.366-2.042-.694-4.095-2.048-5.789a.62.62 0 01-.12-.408c.184-1.893-1.314-3.348-1.162-5.114l-1.726-.724c-.622 0-1.169.079-1.684-.015-1.32-.24-2.632-.37-3.965-.158-.21.033-.473.12-.632.034-1.245-.68-2.628-.126-3.92-.473-.697-.188-1.473-.102-2.214-.099-1.325.006-2.675.218-3.97.03-2.568-.371-5.11.025-7.663.015-2.14-.007-4.282.013-6.422.057-.912.019-1.821.129-2.773.2-.75-.087-1.597-.295-2.434-.265-4.141.15-8.279.389-12.42.518-.563.018-.968.147-.959.607.01.418.292.932.619 1.208.25.212.757.151 1.15.156 1.419.015 2.838.006 4.231.006.634 2.101 1.606 3.918.932 5.999-.039.12.07.284.09.43.207 1.55.507 3.088.277 4.674-.131.905-.15 1.833-.136 2.75.037 2.532.152 5.064.171 7.597.025 3.332-.02 6.664-.02 9.996 0 2.81-.003 5.619.04 8.427.016 1.055.2 2.107.23 3.162.03.985-.077 1.975-.059 2.96.037 2.033.201 4.066.158 6.096-.049 2.263-.294 4.522-.409 6.785-.107 2.124-.157 4.25-.23 6.3-.336.228-.786.382-.797.563-.089 1.422-1.074 1.252-2.01 1.216-.675-.026-1.358-.106-2.025-.036-.597.062-1.349-.052-1.69.976.432.231.857.563 1.335.685.626.159 1.255.084 1.934-.032 1.149-.196 2.374.098 3.567.118 1.5.025 3.002-.02 4.504-.034.499-.053 1.024.15 1.534.118 2.057-.13 4.107-.38 6.165-.49 1.365-.073 2.739.036 4.109.031 1.38-.005 2.71-.35 4.15-.15 1.725.238 3.523-.086 5.29-.114 1.835-.03 3.68-.113 5.504.032 2.535.202 5.05-.192 7.595-.063 1.598.08 3.251.093 4.876.145 1.79.058 2.924-.618 3.554-2.306.06-.162.016-.411.122-.504 1.232-1.089 1.277-2.653 1.823-4.09l-.843.065c.284-.387.423-.785.687-.901 1.362-.602 1.465-1.898 1.77-3.072.196-.75.267-1.531.449-2.285.113-.473.328-.92.534-1.478l-1.077-.636c-.485.976-1.092 1.777-1.285 2.668-.535 2.458-1.273 4.765-3.317 6.405l.384 1.013-.861-.33-2.698 3.37c-2.536 0-5.261-.02-7.986.006-2.714.026-5.428.135-8.141.139-1.97.002-3.942-.083-5.91-.178-2.003-.097-3.988.205-5.992.207-2.34.002-4.677.48-7.016.736-.22.023-.453-.076-.68-.118h-1.705zM13.689 40.226l1.219.386c.949-.366 1.93-.67 2.709-.074.904-.077 1.574-.159 2.247-.183.647-.024 1.3.063 1.944.014 3.753-.282 7.52-.453 11.249-.927 3.633-.461 7.124-1.545 10.038-3.9.827-.668 1.29-1.784 2.112-2.458 1.263-1.033 1.784-2.455 2.099-3.868.677-3.047 1.23-6.137 1.577-9.238.221-1.98.167-4.096-1.187-5.763-.76-.934-1.372-1.883-1.793-3-.28-.74-.825-1.234-1.635-1.495-.6-.193-1.261-.496-1.661-.954-1.074-1.231-2.444-1.953-3.876-2.62-.786-.367-1.53-.839-2.34-1.137-.725-.268-1.522-.332-2.273-.539-1.943-.536-3.872-1.102-5.916-1.165-2.913-.088-5.804-.171-8.71-.725-1.99-.38-4.153.138-6.268.257.953 3.064.265 6.058.47 9.004.22.623.523 1.27.5 1.904-.131 3.534-.36 7.065-.518 10.598-.084 1.87-.071 3.743-.152 5.612-.028.649-.207 1.291-.262 1.61.825 3.04-.29 5.929.427 8.661zM7.062 2.559c-2.588.043-4.886.107-7.058-.712L0 1.383c.735-.071 1.47-.144 2.204-.213C4.764.927 7.321.659 9.884.465c.559-.042 1.138.181 1.392.227C11.998.558 12.45.394 12.9.404c4.308.106 8.617.212 12.923.385 1.084.043 2.155.352 3.237.495.818.108 1.657.089 2.468.23 3.45.596 6.91 1.161 10.33 1.898 1.024.22 1.947.941 2.898 1.467.875.484 1.696 1.074 2.592 1.513 2.195 1.074 3.368 3.018 4.314 5.097.68 1.493 1.404 2.969 1.857 4.582.27.963.216 1.894.279 2.819.081 1.2-.188 2.425-.304 3.64-.01.099-.015.201-.003.3.263 2.19-.668 4.186-1.05 6.27-.104.56-.427 1.09-.706 1.603-1.614 2.965-3.551 5.6-6.77 7.058-2.708 1.226-5.347 2.609-8.054 3.84-.75.342-1.635.39-2.585.6l-.071.363-.737-.695-4.436.518-.55-1.49c-.34.32-.556.57-.816.757-.332.238-.799.682-1.037.59-1.303-.495-2.594.026-3.893-.072-2.974-.225-5.969-.189-9.207-.264 0 1.511-.01 2.908.003 4.303.012 1.435.065 2.869.066 4.303 0 1.467-.034 2.934-.062 4.4-.028 1.443.084 2.91-.144 4.32-.22 1.362-.014 2.704-.15 4.05-.14 1.39-.233 2.786-.346 4.165.976 1.092 2.282.956 3.483 1.144.98.155 1.983.232 2.927.51.4.118.673.663 1.209 1.23-1.193.367-2.014.76-2.869.855-1.998.224-4.008.341-6.03.18-.725-.058-1.47.122-2.204.2-.098.01-.193.087-.287.083-2.687-.132-5.373-.269-8.06-.412-.091-.005-.18-.079-.336-.152l-.104-1.023c.703-.636 1.39-1.108 2.483-.917 1.041.183 2.076-.113 2.976-.748.527-.373 1.076-.715 1.753-1.162-.142-1.167-.408-2.383-.416-3.602-.019-2.642.091-5.285.156-7.928.06-2.411.12-4.823.197-7.234.081-2.549.199-5.097.269-7.647.035-1.287-.003-2.575-.001-3.862.002-2.722.05-5.444 0-8.165-.048-2.685-.25-5.37-.266-8.054-.007-1.248.318-2.494.403-3.747.057-.827-.12-1.67-.059-2.496.073-.982.322-1.949.428-2.93.06-.567-.01-1.149-.022-1.724-.023-1.18.127-2.397-.116-3.53-.273-1.273-.901-2.47-1.398-3.759zm233.04 34.517c.334-.177.778-.384 1.193-.637.62-.377 1.326-.686 1.81-1.2a178.13 178.13 0 005.196-5.768c2.649-3.065 4.38-6.468 3.898-10.702-.256-2.234-1.266-4.177-2.164-6.17-.136-.303-.397-.614-.683-.773-1.51-.838-2.645-2.224-4.298-2.866-.478-.186-.832-.686-1.254-1.03-.266-.217-.523-.514-.832-.6-2.38-.665-4.753-1.366-7.165-1.888-1.292-.28-2.71-.028-3.973-.374-1.629-.446-3.29.354-4.86-.343a.212.212 0 00-.139-.016c-1.599.51-3.249.21-4.802-.016-2.36-.344-4.67-.108-7.083-.168.198 2.141.344 4.146.579 6.14.231 1.962.852 3.928.757 5.866-.111 2.256.806 4.53-.112 6.756.486 2.726-.126 5.41-.28 8.114-.083 1.453-.015 2.914-.015 4.212 1.251-.13 2.356-.274 3.465-.352.759-.053 1.52-.028 2.287.009 1.551.073 3.048.189 4.483.838.985.446 1.975 1.007 3.018 1.176 2.99.483 6.005.832 9.017.021.563-.152 1.17-.142 1.956-.229zm7.723 2.008l-.487-1.042c-.483 1.69-1.903 1.815-3.018 2.237-2.302.872-4.713.411-7.086.272-1.129-.066-2.256-.151-3.535-.239.482 1.511 2.456 1.765 2.33 3.204.502.244.912.372 1.228.621.212.169.22.632.435.751 1.956 1.078 2.6 3.372 4.373 4.641.737.528 1.192 1.435 1.826 2.123 1.611 1.749 3.212 3.51 4.895 5.188.906.904 1.961 1.659 2.968 2.457.88.698 1.732 1.454 2.692 2.023 1.466.87 2.537 2.266 4.218 2.876 1.087.395 2.104 1.11 3.009 1.857 1.859 1.532 4.16 1.776 6.332 2.432 2.532.765 4.991.294 7.481-.206 1.561-.312 3.153-.448 5.192-.097 3.067-1.927 6.461-4.064 9.87-6.178.087-.054.334.15.505.234.612-.675 1.242-1.309 2.253-1.358-.187 2.454-8.078 9.392-9.879 8.884-.475.35-.846.764-1.307.94-1.835.708-3.65 1.412-5.39 2.377-.966.536-2.299.62-3.45.567-2.217-.102-4.428-.676-6.631-.626-2.148.05-3.881-.862-5.705-1.645-.421-.18-.678-.712-1.064-1.014-.375-.293-.894-.777-1.22-.69-1.003.267-1.42-.478-2.024-.908-.768-.547-1.555-1.077-2.268-1.692-.813-.702-1.55-1.492-2.324-2.239-1.841-1.778-3.65-3.59-5.537-5.319-1.412-1.293-2.943-2.455-4.38-3.72-.894-.787-1.704-1.667-2.572-2.483-.357-.336-.737-.665-1.159-.907-1.79-1.027-3.48-2.166-4.899-3.695a6.853 6.853 0 00-2.124-1.54c-.968-.462-1.654-1.512-2.463-2.306-.174-.17-.326-.432-.533-.488-1.155-.314-1.691-1.292-2.282-2.155-1.047-1.53-2.142-2.192-3.863-2.132-.147.005-.295 0-.533 0-.984-1.339-2.366-1.784-4.057-1.597-.708.078-1.452-.161-2.466-.294.226 1.053.505 1.882.559 2.727.062.981-.103 1.974-.118 2.963-.05 3.325-.107 6.651-.105 9.977.002 2.337.096 4.674.148 7.01.004.195.047.403-.006.582-.547 1.853-.457 3.718-.256 5.614.074.698-.273 1.442-.452 2.282 1.244 0 2.672-.03 4.1.01 1.154.031 1.282.162 1.752 1.308-1.063 1.03-2.204 1.343-3.75.927-1.766-.475-3.629-.773-5.452-.791-1.749-.018-3.512.367-5.25.678-1 .18-1.924.099-3.166-.245 1.532-1.628 3.584-.928 5.26-1.922l.462-2.387c.085-.44.084-.919.265-1.313 1.003-2.176.653-4.477.685-6.744.002-.1-.028-.2-.024-.299.095-2.503.272-5.005.269-7.508-.003-2.361-.192-4.723-.304-7.085-.019-.394-.157-.805-.084-1.177.405-2.056.141-4.145.367-6.214.172-1.567.052-3.165.104-4.747.052-1.57.199-3.137.23-4.706.041-2.013-.012-4.028.013-6.04.054-4.25.233-8.5.155-12.746-.037-1.943-.866-3.736-2.462-5.013-.237-.19-.655-.187-.993-.208-.899-.056-1.807-.018-2.699-.122-1.134-.132-1.562-.641-1.55-1.627l1.886-.878c1.971.817 4.195.47 6.394.511 1.326.026 2.648.162 3.972.252 2.117.144 4.242.22 6.35.452 4.267.469 8.532-.353 12.79.027 1.86.166 3.717-.475 5.564.042.838.235 1.706.408 2.497.753 1.09.476 2.142 1.05 3.165 1.658.495.294.887.762 1.505 1.311 1.203-.327 2.287.639 3.277 1.396 1.366 1.047 2.477 2.426 3.693 3.668.37.378.73.766 1.079 1.165.229.261.53.517.625.828.726 2.398 1.853 4.69 1.759 7.301-.08 2.229-.044 4.484-.798 6.6-.69 1.939-1.513 3.853-2.496 5.659-.702 1.29-2.02 2.27-2.606 3.59-.761 1.72-2.541 1.978-3.705 3.367zM15.27 133.438c.905-.092 1.588-.204 2.274-.226 2.478-.08 4.956-.163 7.434-.176 1.403-.008 2.808.086 4.207.192 1.832.138 3.682.127 5.47.673.304.093.699-.08 1.045-.158.323-.072.634-.234.958-.262a94.312 94.312 0 013.925-.276c4.391-.199 7.916-2.345 11.238-4.956.115-.09.214-.218.282-.347a804.79 804.79 0 002.675-5.133c.15-.288.252-.602.381-.902.144-.333.407-.658.42-.994.04-.955.03-1.919-.053-2.87-.196-2.238.415-4.52-.49-6.725-.615-1.5-.927-3.133-1.622-4.59-1.282-2.685-4.073-3.45-6.462-4.69-2.042-1.06-4.528-.481-6.53-1.725-.02-.013-.083.065-.125.063-1.646-.059-3.293-.146-4.94-.172-.589-.01-1.179.166-1.771.194-3.425.167-6.836-.333-10.28-.083-2.39.173-4.82-.267-7.235-.404-.256-.014-.523.169-.764.252 0 1.592-.016 3.083.003 4.574.03 2.324.079 4.65.133 6.975.032 1.368.18 2.74.117 4.105-.091 1.968-.327 3.93-.5 5.893-.008.096-.04.213 0 .288.845 1.61-.037 3.276.15 4.932.242 2.129.06 4.305.06 6.548zm-.105 1.955l-.386 41.44 1.397 1.993c1.941.188 1.941.188 2.19.622.343-.177.674-.493 1.005-.492.77.002 1.538.23 2.308.236 2.916.019 5.829.232 8.747-.206 1.435-.216 2.93-.027 4.397-.032 1.93-.008 3.86-.013 5.79-.045 1.846-.032 3.739.143 5.528-.203 2.865-.555 5.662-1.463 8.484-2.232.186-.05.36-.167.522-.278 1.532-1.05 3.074-2.049 4.4-3.407 2.292-2.347 3.543-5.158 4.167-8.285.457-2.286.69-4.616 1.138-6.904.378-1.934-.179-3.713-.692-5.501-.365-1.273-.982-2.474-1.333-3.75-.531-1.937-1.528-3.56-2.918-4.974-.384-.39-.834-.758-1.086-1.227-.63-1.167-1.648-1.833-2.797-2.314-3.625-1.516-7.41-2.441-11.303-2.936-1.068-.135-2.146-.188-3.215-.32-1.576-.195-3.142-.522-4.724-.622-4.17-.266-8.348-.42-12.519-.667-1.04-.062-2.073-.466-3.1-.433-1.912.062-3.817.33-6 .537zM1.77 96.809c1.964.757 4.08-.365 5.67.746 4.502.16 8.796.063 13.648.422.957-.048 2.505-.208 4.05-.188 2.642.032 5.28.214 7.922.258 1.508.026 3.027-.223 4.527-.124 2.87.189 5.77.33 8.579.892 1.96.393 3.8 1.425 5.665 2.24.34.148.535.626.66.78.532.095.999.043 1.262.25.985.778 1.874 1.68 2.857 2.462 1.302 1.036 1.784 2.606 2.511 3.966.668 1.249.821 2.778 1.162 4.193.196.811.315 1.641.468 2.464.65 3.465-.75 6.534-2.024 9.569-.528 1.257-1.61 2.295-2.503 3.38-.628.762-1.277 1.557-2.07 2.123-1.648 1.179-3.385 2.24-5.12 3.292-.33.198-.821.126-1.36.425.432.199.957.661 1.28.548 1.182-.415 2.295-.025 3.35.234 2.353.578 4.658 1.36 6.963 2.117.491.16.915.548 1.346.862.918.67 1.843 1.332 2.72 2.054.366.302.73.703.894 1.136a5.115 5.115 0 001.917 2.461c.856.594 1.176 1.496 1.58 2.409 1.061 2.388 2.269 4.743 2.695 7.325.4 2.424.65 4.914.568 7.36-.05 1.51-.846 2.994-1.308 4.489-.054.174-.193.365-.16.517.304 1.36-.468 2.397-1.082 3.434-1.557 2.631-3.694 4.71-6.195 6.48-1.256.89-2.258 2.134-3.409 3.18-.358.326-.796.652-1.252.772-2.856.754-5.678 1.834-8.634 1.924-2.45.075-4.883.412-7.387.087-3.124-.405-6.298-.427-9.492-.126-3.608.34-7.256.161-10.895-.118a140.077 140.077 0 00-11.922-.4c-2.305.02-4.606.513-6.909.793-.653.08-1.35.219-1.637-.608-.192-.55.362-1.412 1.093-1.573a20.965 20.965 0 013.08-.448c1.093-.075 2.195-.017 3.3-.017l1.358-1.847c.414-7.89-.399-15.809.05-24.157-.303-1.211-.195-2.834.319-4.617-.957-1.174-.425-2.777-.585-4.288l.533.058c-.183-.79-.407-1.569-.534-2.364a15.75 15.75 0 01-.19-2.294c-.008-.891.1-1.783.104-2.676.019-3.812.048-7.625.016-11.437-.023-2.82-.166-5.638-.191-8.458-.016-1.78.15-3.562.12-5.342-.032-1.847-.27-3.69-.292-5.536-.02-1.536.141-3.074.21-4.378L7.324 99.39l-1.638-.548c-1.468.736-2.92.113-4.542 0l.627-2.033zm68.64-60.99c.967.458 1.864.742 2.841.538a1.72 1.72 0 01.567-.025c1.949.261 3.889.676 5.844.77 3.876.186 7.758.523 11.64-.087 2.126-.335 4.288-.467 6.276-1.403 1.645-.775 3.481-1.204 4.66-2.787.821-1.104 1.728-2.146 2.422-3.002.46-1.703.885-3.173 1.251-4.657.28-1.13.661-2.28.646-3.418-.007-.531-.24-1.084-.055-1.674.375-1.195.12-2.318-.397-3.43-.222-.478-.31-1.032-.386-1.56-.193-1.333-.28-2.631-1.376-3.697-.711-.691-1.084-1.73-1.694-2.757-.705-.426-1.562-.994-2.465-1.473-.734-.39-1.495-.813-2.294-.978-2.823-.581-5.666-1.071-8.507-1.566-.928-.162-1.874-.333-2.81-.323-2.509.025-4.992-.428-7.445-.73-2.569-.319-5.073-.13-7.606-.171-.758-.013-1.13.36-1.176 1.055-.067 1.037-.119 2.08-.098 3.117.032 1.643.149 3.285.188 4.928.017.706-.152 1.341-1.01 1.143l.983 22.187zm-5.37-15.09c-.164-.905-.371-1.55-.382-2.197-.033-2.062.134-4.134-.015-6.186-.184-2.533-.158-5.032.307-7.526.035-.19.025-.39.044-.7-1.197 0-2.363-.122-3.492.03-1.567.21-2.791-.593-4.078-1.168-.705-.315-.671-.62-.344-1.84 2.435-.094 4.941-.19 7.45-.283.095-.004.212.074.286.04C66.44.149 68.132.89 69.792.673 71.436.457 73.11.445 74.772.39c3.032-.1 6.064-.193 9.097-.228 1.035-.01 2.076.14 3.109.262 2.418.286 4.834.596 7.25.906.529.067 1.053.244 1.581.247 2.177.008 3.829 1.325 5.67 2.183.989.46 2.04.79 3.072 1.147 2.064.714 3.898 1.752 5.292 3.494.61.762 1.598 1.242 1.802 2.306.254 1.324.905 2.528 1.19 3.825.284 1.302.525 2.675.417 3.986-.22 2.66-.444 5.365-1.133 7.926-.519 1.927-1.53 3.84-2.757 5.42-1.095 1.409-2.18 3.098-4.209 3.526-.272.057-.509.303-.75.477-2.25 1.622-4.796 2.692-7.426 3.365-2.019.516-4.192.432-6.298.592-1.165.09-2.333.131-3.818.212.973 1.006 1.928 1.599 2.928 2.137.345.186.8.286 1.018.568 1.54 1.992 3.781 3.096 5.73 4.56 1.577 1.185 1.714 1.229 2.09 2.911.286.1.653.116.735.277.882 1.727 2.61 2.547 4.018 3.665 1.542 1.223 3.235 2.242 4.776 3.508 1.768 1.452 3.891 2.47 5.846 3.7.613.384 1.13.96 1.781 1.239 1.459.623 2.72 1.595 4.226 2.157 1.687.628 3.245 1.594 4.9 2.318.86.375 1.824.5 2.712.817.955.342 1.877.777 2.789 1.16.665.117 1.352.224 2.033.36 1.229.245 2.453.51 3.68.762 1.01.206 2.017.43 3.034.601 1.387.235 2.776.537 4.175.613 1.673.09 3.357-.055 5.035-.039.526.005 1.05.203 1.68.334l.056-.764c1.6-.135 3.193-.23 4.666-1 .465-.243 1.048-.253 1.571-.394 1.61-.436 3.403-.586 4.764-1.43.976-.604 1.916-1.368 2.965-1.928.914-.487 1.836-.961 2.74-1.467 1.29-.724 2.552-1.5 3.86-2.189.3-.157.737-.053 1.26-.076-1.496 2.635-3.329 4.506-5.879 5.649-.711.318-1.337.835-1.989 1.28-1.727 1.18-3.562 2.096-5.595 2.665-1.892.529-3.692 1.45-5.605 1.825-2.81.55-5.679.827-8.534 1.102a24.79 24.79 0 01-4.45.002 69.458 69.458 0 01-6.062-.812c-1.428-.25-2.843-.628-4.23-1.056-2.457-.757-5.107-.819-7.426-2.077-.28-.151-.678-.069-.999-.167-2.164-.656-4.385-1.182-6.464-2.047-1.842-.766-3.525-1.915-5.278-2.895-.13-.073-.25-.18-.388-.223-2.14-.653-3.747-2.195-5.544-3.4-1.01-.678-1.73-1.788-2.739-2.47-1.898-1.283-3.096-3.202-4.65-4.791-.43-.439-.583-1.13-.953-1.642-1.447-1.997-2.872-4.014-4.423-5.929-.775-.957-1.798-1.715-2.72-2.551-.862-.782-1.738-1.548-2.617-2.329-.424-.165-1.045-.233-1.404-.576-1.629-1.555-3.744-2.014-5.78-2.478-2.65-.604-5.38-.87-8.211-1.303.13 1.21.302 2.274.338 3.343.025.77-.18 1.547-.195 2.322-.023 1.13.081 2.263.041 3.39-.047 1.326-.167 2.65-.3 3.97-.176 1.77-.47 3.532-.569 5.306-.072 1.303.14 2.526-.288 3.912-.531 1.72-.213 3.711-.207 5.585.002.754.422 1.382.83 2.004.258.394.411.856.656 1.385.753 0 1.59.042 2.42-.01 1.146-.074 2.184.047 2.929 1.257-1.055 1.006-2.393 1.238-3.765 1.208-1.762-.039-3.523-.18-5.28-.323-2.323-.189-4.64-.437-6.963-.627-.923-.077-1.758-.276-2.403-1.13l.484-.954h6.34c-.665-1.65-.232-3.4.03-5.129.342-2.265.39-4.518.255-6.801-.145-2.454-.108-4.918-.182-7.376-.035-1.175-.17-2.347-.213-3.522a480.422 480.422 0 01-.196-7.017c-.026-1.209-.005-2.418-.005-3.605l1.112-.966c-.114-3.146-.164-6.31-.366-9.462-.13-2.018-.093-2.94.549-4.242zm93.79 125.506c2.533.16 4.96.383 7.391.441 1.827.044 3.66-.19 5.49-.187 3.17.003 6.339.089 9.508.149.897.017 1.794.103 2.69.088 3.245-.052 6.49-.191 9.735-.16.747.008 1.331-.038 1.878-.545-.99-.374-.842-1.134-.712-1.657-.418-.684-.768-1.201-1.061-1.749-1.054-1.976-1.224-4.365-2.832-6.086-.03-.033-.029-.095-.044-.142-.557-1.681-1.436-3.227-2.1-4.846a45.14 45.14 0 00-2.601-5.287c-.48-.841-.555-1.915-.883-3.144-1.407-.897-1.495-1.035-1.647-2.416-1.053-1.834-1.945-3.178-2.624-4.622-1.026-2.185-1.92-4.432-2.836-6.667-.494-1.205-.907-2.444-1.39-3.655-.045-.112-.33-.129-.409-.156-1.408 3.521-3.032 6.862-4.329 10.353-1.271 3.423-2.956 6.743-4.567 10.047-1.613 3.31-3.375 6.581-4.497 10.058-1.117 3.456-3.286 6.428-4.16 10.183zm53.79 24.727c1.21.593 1.587 1.924 1.928 3.083.332 1.13.929 2.006 1.625 2.846 1.012 1.22 2.232 2.3 3.767 2.706 1.21.321 2.375 1.342 3.882.415.229.566.42 1.036.683 1.69-2.085.393-4.033.468-6.082.036l-.062.436c-1.07-.181-2.217.474-3.23-.183-.406.098-.874.365-1.25.27-.914-.233-1.75-.14-2.662.045-.796.16-1.671-.03-2.507-.115-1.67-.17-3.343-.342-5.006-.581-.543-.078-1.056-.369-1.73-.616l.753-1.245c2.019-.61 4.176.546 5.94-.738.932-2.014-1.244-3.457-.938-5.132-.531-1.003-1.032-1.897-1.485-2.815-1.103-2.237-1.685-4.674-3.115-6.816-1.246-1.866-1.9-4.126-2.827-6.207-.139-.311-.338-.595-.51-.892l.323-.174c-1.431-2.556-2.4-5.327-3.755-7.983-2.023 0-4.049-.008-6.075.002-1.52.009-3.04.044-4.561.061-1.333.015-2.666.049-3.998.021-1.136-.023-2.271-.122-3.407-.185-.2-.011-.4-.024-.6-.017-4.132.126-8.264.26-12.396.376-.534.016-1.072-.095-1.605-.074-1.38.053-2.758.18-4.138.212-.596.013-1.196-.134-2.038-.24-.535.983-1.323 2.09-1.75 3.322-.356 1.03-.97 1.92-1.288 2.98-.33 1.096-1.107 2.093-1.825 3.03-1.358 1.773-1.707 4-2.785 5.883-.853 1.49-1.692 3.022-2.777 4.337a89.91 89.91 0 01-5.781 6.344c-2.675 2.673-5.923 4.456-9.567 5.46-.927.255-1.925.306-2.895.346-4.63.189-9.26.363-13.892.499-3.702.109-7.405.168-11.109.223-2.61.039-5.221.014-7.832.053-2.776.042-5.551.176-8.327.177-3.02 0-6.04-.127-9.06-.155-.894-.008-1.414-.347-1.574-1.22 1.217-.93 1.678-.97 2.537-.379l3.478-.258c.316-.543.463-1.124.833-1.37 1.217-.805 1.378-2.04 1.401-3.268.068-3.564.074-7.13.038-10.694-.042-4.172-.179-8.342-.227-12.513-.043-3.795-.03-7.59-.026-11.385.002-1.713.038-3.426.063-5.138.056-3.76.143-7.521.162-11.282.009-1.776-.158-3.552-.164-5.329-.007-2.126.078-4.251.113-6.377.044-2.577.236-5.164.06-7.726-.113-1.646-.773-3.255-1.216-4.99H76.87c.045-.602.09-1.194.143-1.924 1.555-.048 2.986-.162 4.413-.122 2.568.071 5.132.322 7.7.334 2.468.013 4.938-.202 7.41-.276 1.017-.03 2.051.158 3.057.048 1.638-.18 3.295.34 4.943-.31.636-.25 1.501.08 2.24.236 1.817-.347 3.67-.62 5.576-.29.362.063.957.228 1.062.078.605-.86 1.346-.363 2.052-.344 2.096.058 4.189.25 6.29-.091 1.006-.163 2.06-.075 3.09-.038 2.965.109 5.93.24 8.894.381.749.036 1.493.174 2.242.216.664.037.984.409 1.077 1.003.052.34.01.696.01 1.143 1.192.757 1.336 2.05 1.502 3.338.05.384.055.812.233 1.137 1.886 3.457 2.976 7.162 3.56 11.039.102.678.286 1.357.536 1.995.3.767.145 1.346-.434 1.841-1.085-.023-1.695-.554-1.997-1.528-.354-1.138-.801-2.25-1.11-3.4-.133-.497-.022-1.06-.022-1.365-.404-.988-.763-1.786-1.057-2.608-.536-1.497-1.03-3.01-1.554-4.51-.06-.172-.195-.321-.314-.466-.553-.679-1.19-1.304-1.656-2.038-.905-1.429-2.015-2.39-3.826-2.331-2.48.081-4.962.107-7.442.143-.447.006-.895-.068-1.343-.09-1.428-.067-2.858-.11-4.285-.197-1.226-.075-2.448-.246-3.676-.29-2.394-.085-4.79-.088-7.185-.168-2.127-.071-4.253-.2-6.43-.305-.438.108-.955.345-1.471.343-1.535-.007-3.069-.152-4.604-.156-.98-.004-1.962.147-3.148.245 0 1.367.009 2.627-.004 3.886-.006.582-.003 1.17-.088 1.743-.446 2.997-.231 6.009-.247 9.015-.004.829-.057 1.66-.007 2.486.077 1.267.31 2.528.323 3.793.031 2.77.072 5.543-.255 8.307-.068.575.164 1.18.174 1.772.026 1.675.009 3.35.009 5.219.195.024.606.136 1.01.113 1.66-.09 3.319-.227 4.978-.338 1.658-.112 3.315-.247 4.975-.312a208 208 0 016.124-.135c2.337-.022 4.675-.005 7.214-.005 1.347-1.096 1.23-3.447 3.078-4.493.866.3 1.252.913 1.271 1.883.036 1.888.19 3.775.212 5.663.016 1.28-.077 2.564-.188 3.84-.031.356-.301.691-.465 1.043-1.988-.207-1.373-1.79-1.727-2.923-1.38-.077-1.434-1.315-1.84-2.472h-8.292c-.148 0-.327.054-.441-.01-1.593-.89-3.251-.065-4.878-.171-2.123-.14-4.247.145-6.369.443-1.554.218-3.163.042-4.767.042l-.368 3.097c.026 1.141.095 2.64.084 4.138-.015 2.243-.119 4.485-.125 6.727-.006 2.301.048 4.603.1 6.904.043 1.976.33 3.974.126 5.922-.205 1.936-.026 3.845-.081 5.765-.068 2.397.024 4.8.045 6.95 1.475 1.384 2.856 1.534 4.479 1.123.845-.214 1.824.155 2.743.163 2.414.024 4.829-.012 7.243-.012 2.437 0 4.875.061 7.31.007 1.877-.041 3.75-.225 5.626-.337 2.358-.14 4.718-.26 7.076-.412.785-.05 1.564-.209 2.349-.252 2.019-.11 4.019-.28 5.9-1.118 2.064-.918 4.045-1.926 5.539-3.72.684-.82 1.618-1.43 2.332-2.23 1.777-1.991 3.57-3.977 5.2-6.087.757-.982 1.153-2.246 1.704-3.386.846-1.752 1.65-3.526 2.546-5.252.263-.508.775-.887 1.236-1.393.05-.31.04-.76.199-1.141 1.456-3.497 2.941-6.98 4.416-10.47.077-.183.075-.426.2-.559 1.587-1.707 1.794-4.03 2.72-6.03.321-.692.958-1.268.578-2.159-.05-.116.167-.341.252-.52.67-1.392 1.384-2.765 1.996-4.183a37.813 37.813 0 012.067-4.136c.396-.675.27-1.669 1.297-2.105-.534-1.541.725-2.557 1.23-3.804.74-1.832 1.73-3.56 2.534-5.368 2.026-4.565 3.979-9.163 6.023-13.72.668-1.49 1.527-2.895 2.316-4.372 1.256-.209 1.586.184 2.076 2.55 1.212.59 1.517 1.837 2.016 2.905.96 2.054 1.835 4.149 2.71 6.241.65 1.556 1.212 3.15 1.874 4.7 1.135 2.662 2.319 5.304 3.482 7.954 1.207 2.748 2.417 5.493 3.618 8.242.697 1.596 1.183 3.325 2.122 4.76.93 1.42 1.291 3.01 1.98 4.49 1.193 2.568 2.29 5.18 3.498 7.74.887 1.88 2.025 3.65 2.796 5.57.788 1.962 2.073 3.7 2.394 5.892.148 1.01.98 1.912 1.469 2.88.934 1.85 1.896 3.689 2.747 5.576.654 1.45 1.156 2.967 1.8 4.652zm30.182-70.31c-.142 1.286-.332 2.537-.407 3.796-.105 1.76-.116 3.526-.186 5.29-.016.385-.32.62-.188 1.17.538 2.234.648 4.53.338 6.83-.06.443-.055.896-.055 1.345 0 1.323.033 2.646.012 3.97-.019 1.196-.14 2.393-.128 3.588.015 1.497.318 3.016.143 4.483-.328 2.743.158 5.478-.269 8.346.782.14 1.446.293 2.119.37 2.106.245 4.212.56 6.327.655 1.522.069 2.793.797 4.19 1.18 1.146.314 2.29.757 3.459.845 2.072.156 4.16.202 6.245.128.343-.012.693.2.907.268.406-.15.706-.3 1.024-.372 1.689-.383 3.388-.716 5.07-1.125a70.234 70.234 0 004.163-1.153c1.883-.583 3.808-1.1 4.904-3.012.235-.41.735-.66 1.072-1.02.494-.528 1.077-1.025 1.399-1.65.925-1.793 1.607-3.717 3.094-5.181.221-.218.315-.612.374-.94.303-1.693.543-3.397.867-5.085.535-2.776.375-5.533-.514-8.176-1.438-4.273-4.894-6.83-8.448-9.173-1.844-1.216-3.91-2.102-5.899-3.087-.792-.392-1.677-.965-2.473-.898-1.435.12-2.635-.697-4.084-.63-.998.046-2.124-.435-3.238-.465-.362-.01-.721-.19-1.151-.31V99.12l-.205-.048c-.28.544-.56 1.087-.812 1.58h-17.65zm53.492 73.583c.79-.194 1.094.723 1.778 1.028.479.22.987.394 1.43.67 2.144 1.336 4.121 2.957 6.51 3.873.784.3 1.625.448 2.428.705.895.288 1.762.67 2.665.92.994.278 2.006.56 3.027.65 2.264.204 4.538.283 6.807.434.296.02.584.169.924.273.04-.054.164-.384.3-.39 2.973-.123 5.929-.88 9.107-.405l.373-.31c.28.308.525.58.94 1.04v-.993c2.037-.64 4.024-1.233 5.985-1.902.592-.202 1.115-.615 1.665-.94 1.28-.756 2.523-1.582 3.844-2.257 1.135-.579 1.85-1.584 2.778-2.344 1.565-1.282 2.277-3.079 3.415-4.607.26-.349.38-.798.628-1.16.376-.55.807-1.063 1.318-1.726.157-.666.443-1.53.55-2.415.166-1.352.062-2.749.341-4.07.343-1.619-.66-2.876-.835-4.332-.069-.57-.012-1.156.109-1.767-1.273-2.982-3.17-5.516-6.061-7.184-1.325-.764-2.666-1.555-4.099-2.052-.773-.269-1.426-.674-2.145-.992-2.14-.949-4.072-2.433-6.527-2.627-.537-.043-1.07-.244-1.585-.427-2.47-.877-4.926-1.788-7.236-3.053-.358-.196-.821-.24-1.241-.273-2.299-.176-4.352-1.128-6.425-2.01-.241-.101-.387-.43-.582-.66-.47-.06-1.067.025-1.474-.214-2.434-1.432-4.893-2.843-7.199-4.465-.974-.685-1.902-1.49-2.846-2.25-.337-.27-.584-.675-.815-1.054-.642-1.052-1.208-2.152-1.89-3.177-.768-1.157-1.115-2.398-1.045-3.77.005-.1.044-.22.004-.297-1.155-2.21-.03-4.4.149-6.57.157-1.903.909-3.742 1.867-5.425.379-.665.965-1.228 1.522-1.773 1.522-1.49 3.086-2.938 4.614-4.423.245-.237.393-.575.485-.715 1.913-.707 3.648-1.428 5.435-1.986 1.806-.563 3.642-.908 5.588-.874 1.642.03 3.294-.441 4.942-.69 1.215-.185 1.263-.17 2.122.586.852 0 1.578-.08 2.28.016 1.672.229 3.36.431 4.99.848 1.73.443 3.411 1.092 5.093 1.706 1.297.473 2.562 1.033 3.843 1.553.224.09.562.104.662.267.865 1.402 2.355 1.293 3.514 1.041 1.192-.258 2.648-.487 3.248-2.052.252-.657 1.051-1.103 1.649-1.69 1.044.804.742 1.929.748 2.807.01 1.68-.328 3.358-.47 5.04a61.16 61.16 0 00-.22 4.13c-.023 1.408.094 2.818.04 4.223-.019.469-.377.924-.573 1.369-1.83-.458-1.193-1.898-1.765-3.117-.443-.534-1.076-1.345-1.762-2.11-1.492-1.665-2.91-3.418-4.547-4.93-1.891-1.744-3.956-3.303-6.439-4.196-1.752-.631-3.45-1.426-5.225-1.98-1.41-.441-2.955-.477-4.342-.967-1.819-.642-3.693-.509-5.528-.614-1.381-.08-2.856.272-4.186.732-3.37 1.166-6.457 2.792-8.879 5.575-.866.996-2 1.72-2.555 3.028-.492 1.161-.88 2.318-1.03 3.574a65.399 65.399 0 01-.636 4.078c-.63 3.419.816 6.069 3.052 8.448 1.087 1.156 2.473 1.769 3.914 2.335 2.782 1.094 5.521 2.298 8.314 3.362 2.145.818 4.366 1.435 6.514 2.247 1.951.736 3.85 1.613 5.768 2.432.18.077.334.232.518.274 2.067.473 4.138.924 6.204 1.397.629.145 1.253.318 1.866.518 1.838.597 3.67 1.214 5.582 1.85l.241 1.4.817-.934c.383.202.83.384 1.219.65 1.924 1.324 3.377 3.1 4.772 4.943 1.263 1.668 2.693 3.236 3.264 5.308.407 1.475.846 2.971.981 4.484.218 2.431.324 4.889.234 7.326-.071 1.914-.25 3.808-1.781 5.412-.677.71-.789 2.07-1.525 2.977-1.18 1.452-2.288 2.961-3.487 4.395-.338.405-.883.64-1.342.94-.948.62-1.893 1.245-2.855 1.842-.865.537-1.713 1.122-2.636 1.537-1.621.729-3.347 1.24-4.924 2.048-.883.453-1.818.664-2.693 1.04-3.263 1.408-6.716 1.576-10.167 1.974-1.765.203-3.595 0-5.312.626a1.19 1.19 0 01-.443.054c-1.524-.06-3.055-.065-4.573-.21-2.708-.26-5.427-.489-8.105-.944-3.224-.549-6.364-1.443-9.355-2.837-1.866-.868-3.88-1.426-5.721-2.337-2.346-1.161-4.777-2.204-6.788-3.969-.695-.609-1.5-1.116-2.315-1.562-2.505-1.371-4.617-3.169-6.325-5.465-.46-.618-1.048-1.167-1.66-1.641-2.11-1.638-4.048-3.419-5.517-5.687-.3-.463-.976-.667-1.425-1.053-1.387-1.193-2.797-2.338-3.776-3.963-.596-.986-1.573-1.738-2.36-2.611-.654-.725-1.225-1.534-1.937-2.194-.68-.63-1.515-1.091-2.247-1.67a189.44 189.44 0 01-4.143-3.372c-1.612-1.352-3.248-2.606-5.492-2.7-.67-.027-1.331-.269-2.277-.473h-5.778c-.089 2.064-.236 4.188-.245 6.312-.004.83.301 1.661.464 2.491.038.195.15.42.092.581-.703 1.92-.182 3.907-.252 5.85-.15 4.195.018 8.403.088 12.604.042 2.541.143 5.081.228 7.621.012.344.089.685.125.95l2.215 1.806c.732-.912 3.922-1.022 5.984-.11.08.972-.393 1.407-1.367 1.466-2.423.146-4.843.363-7.268.461-.902.036-1.815-.182-2.892-.304-3.463.32-7.16-.017-10.945.315l-.62-1.46 1.73-1.29c.546.073 1.485-.076 1.865.316.587.604 1.336-.37 1.822.413l.061-.877 2.574.117-.15-1.01.942-.83c-.091-1.793-.287-3.671-.252-5.545.035-1.862-.348-3.713.107-5.597.414-1.713-.606-3.58.253-5.187-.066-1.51-.111-2.934-.2-4.355-.042-.636-.246-1.266-.252-1.9-.035-3.12-.065-6.243-.023-9.364.035-2.561.164-5.122.28-7.682.013-.287.218-.566.29-.743-.138-.586-.383-1.156-.385-1.727-.005-1.757.079-3.513.138-5.27.018-.558.067-1.116.08-1.321-.285-9.704.487-19.064.119-28.587l-6.808-.298-1.698-1.623c.486-.1.947-.284 1.404-.273 3.936.09 7.871.243 11.807.322 2.762.055 5.53.126 8.284-.019 1.089-.056 2.096.37 3.223.139 1.025-.21 2.154.141 3.237.135 2.272-.01 4.548-.186 6.817-.114 1.484.048 3.048.16 4.235 1.511l.454-.788c1.874 0 3.706-.057 5.534.015 2.019.08 3.936.517 5.785 1.47 2.131 1.097 4.018 2.519 6.011 3.801 1.681 1.081 2.864 2.499 3.97 4.015 1.098 1.504 2.59 2.784 2.966 4.763.078.408.447.756.661 1.143.287.517.623 1.02.82 1.572.84 2.363.869 4.836.885 7.303.005.745.032 1.508-.11 2.231-.197 1.007-.524 1.99-.833 2.97-.26.823-.726 1.608-.826 2.443-.144 1.185-.95 1.914-1.536 2.801-.926 1.4-1.835 2.815-2.825 4.169-.572.782-1.36 1.407-1.923 2.194-.621.867-1.46 1.265-2.406 1.644-1.043.418-1.975 1.109-3.01 1.552-1.031.44-2.124.746-3.204 1.065-1.255.37-2.526.69-3.79 1.033-.192.053-.38.156-.573.165-2.327.111-4.654.217-6.982.305-.777.029-1.557.004-2.476.27.367.238.747.46 1.1.719 1.903 1.395 3.83 2.761 5.688 4.215 1.001.784 1.912 1.693 2.81 2.6 1.537 1.553 3.03 3.15 4.547 4.724.148.154.324.288.505.404.24.155.7.267.712.425.066.846.876.958 1.297 1.437.486.552.997 1.092 1.557 1.565.604.511 1.333.88 1.906 1.418.716.671 1.312 1.467 1.99 2.18.477.498.975.985 1.516 1.41 1.093.858 2.222 1.67 3.336 2.502 1.542 1.15 3.085 2.3 4.623 3.455.225.169.424.373.858.758z" id="Fill-1"/></g></g></g></svg>