<svg width="402" height="28" viewBox="0 0 402 28" version="1.1" xmlns="http://www.w3.org/2000/svg" xmlns:xlink="http://www.w3.org/1999/xlink"><defs><path id="path-1" d="M.09.123h103.372v25.46H.09z"/></defs><g id="Chosen-ones" stroke="none" stroke-width="1" fill="none" fill-rule="evenodd"><g id="Home-Logo-1---b" transform="translate(-399 -1302)"><g id="Group-9" transform="translate(0 730)"><g id="Group-8" transform="translate(399.5 572.948)"><path d="M362.89 25.172c-.216-.458-.642-.423-.973-.575l-.014.477.986.098m36.4-23.84V.964l-.227.1-.109.72c.28.04.561.078.841.116l-.14-.619-.365.05m.505.57h.487l.157-.37-.479-.401.1-.133-.459.086.054.198.14.62m-56.144-.71l-.019-.295c-.322-.02-.637-.044-.953-.053-.069-.002-.139.054-.209.083l.739.19.643 1.032c.528-.238-.003-.75.4-1l.797-.242c-.464.075-.982-.138-1.398.284m37.807 16.737l-.462.054.34-.666-1.815 1.354.126.49c.658-.33 1.297-.69 1.811-1.232M346.08 25.02l.072-.205.522.313.054-.736-1.913-.154-.264-.484-.087.346c-.229.15-.525-.023-.705.312l1.389.317.011.218.921.073m28.833-16.757c-.302.101-.577.284-.864.43.093.108.403.064.247.349.542-.168 1.078-.362 1.629-.495.34-.082.706-.06 1.056-.107.575-.077 1.13.025 1.684.148l-.483-.49c-1.105-.233-2.199-.195-3.27.165m-32.579 16.142h-2.076l-.297.602 5.07-.07c-.197-.03-.395-.094-.59-.087-.519.02-.881-.166-.99-.662l-1.005-.078-.112.295M349.69 1.07c-.416-.012-.834.008-1.25-.015-.69-.038-1.378-.124-2.068-.144-.322-.01-.647.089-.971.138l-.123.354c.312.037.622.09.935.106 1.105.058 2.21.103 3.315.153-.004-.256.037-.48.366-.486-.068-.037-.135-.105-.204-.106m28.975 7.518l1.615.623c.424.448.79 1.037 1.384 1.395.312-.328.322-.33.266-.588-.108-.493-.369-.891-.835-1.1-.529-.236-1.066-.47-1.623-.627-.413-.116-.824-.384-1.29-.193l.483.49m-46.135 4.64c-.506-.2-1.015-.135-1.521-.14-.605-.008-1.21.05-1.825.08-.038-.093-.053-.18-.102-.236-.09-.103-.2-.188-.296-.275.073-.55-.036-.685-.754-.891-.065.422-.171.838-.184 1.257-.018.591.029 1.185.057 1.777.01.227.041.456.376.442.336-.314.335-.705.21-1.199.49-.07.957-.163 1.428-.2.913-.072 1.83-.113 2.744-.166.342.002.704.035.718-.467-.286.012-.607.114-.85.018m7.6-.031c-1.06.009-2.12.015-3.18.037-.418.008-.836.087-1.253.08-.773-.014-1.545-.067-2.317-.104-.014.502-.376.469-.718.467.126.038.265.134.374.106.466-.116.906-.01 1.353.088.033.008.074-.02.112-.03l.238-.394c.3.397.584.583.938.574.75-.018 1.5-.052 2.249-.087.938-.043 1.88-.08 2.814-.122a9.04 9.04 0 011.983.132c-.104-.277-.045-.528.124-.76-.906.004-1.812.006-2.718.013m33.92-4.504a1.085 1.085 0 00-.865.351c-.652.681-1.48 1.225-1.7 2.237-.015.071-.083.132-.126.198-.477.735-.61 1.573-.547 2.407.05.672.29 1.33.451 1.991a.762.762 0 00.12.27c.508.68.862 1.477 1.683 1.904.471.244.849.663 1.303.948.44.275.98.322 1.457.541.275.128.632.077.951.11 1.003.103 1.997.162 2.869-.492l-.126-.489c-.08.007-.174-.01-.24.025-.68.37-1.41.367-2.159.357-1.019-.013-1.931-.347-2.797-.829-.672-.374-1.349-.803-1.697-1.508-.307-.62-.507-1.304-.671-1.98-.277-1.137-.115-2.277.285-3.346.379-1.012 1.17-1.738 2.055-2.346.156-.285-.154-.24-.247-.35m25.013-7.628c-.313.028-.626.083-.938.08-.461-.006-.921-.073-1.382-.074-.227 0-.453.09-.765.157a2.93 2.93 0 00-1.355-.243c-.734.051-1.477-.018-2.216-.047-.458-.017-.916-.087-1.372-.073-.577.018-1.162.182-1.726.123-.498-.052-.99-.03-1.477-.066-1.087-.08-2.162.023-3.242.045-.197.004-.396.09-.59.079-.764-.044-1.53-.175-2.29-.15-.588.02-1.252-.137-1.683.348-.317-.099-.579-.25-.84-.248-.704.005-1.417-.101-2.112.116-.144.045-.311.029-.467.021-.628-.029-1.256-.086-1.884-.094-.868-.01-1.735.01-2.603.023-1.275.018-2.55.026-3.823.072-.3.01-.596.154-.932.247l.418.715c.29.024.61.092.92.065a12.27 12.27 0 012.117-.02c.319.029.637.087.956.088.679.003 1.358-.043 2.036-.032.641.011 1.28.078 1.922.105.322.013.647-.01 1.073-.017.027.008.177.103.31.085.692-.094 1.38-.164 2.08-.136.223.008.45-.105.722-.174.31.192.306.175.586.095.27-.076.566-.199.825-.154 1.081.184 2.155.28 3.244.08a3.46 3.46 0 01.707-.04c.935.024 1.87.08 2.805.085.73.005 1.459-.042 2.188-.073.367-.016.733-.063 1.1-.066.309-.002.618.04.927.064.28.02.559.049.838.061.864.039 1.737-.236 2.593.083.067.025.158.003.234-.013.531-.114 1.049-.08 1.59.003.48.073.991-.047 1.522-.084l-.125-.315.109-.721m-3.144 14.258c-.016-.332.01-.659-.057-.966-.158-.73.005-1.525-.474-2.192-.455-.634-.596-1.456-1.194-2.012-.149-.138-.227-.349-.355-.512-.343-.44-.642-.965-1.24-1.07-.886-.157-1.746-.306-2.673.046-1.023.388-1.956.887-2.804 1.551-.44.345-.765.84-.851 1.387-.108.68-.126 1.383-.105 2.074.03 1.02.233 2.006.87 2.848.117.156.328.265.391.435.203.546.725.786 1.076 1.186.232.264.517.507.826.672.734.394 1.562.353 2.364.41.393.027.819.097 1.181-.012.77-.234 1.471-.592 2.036-1.235.676-.77.964-1.639 1.01-2.61m-14.585 1.993c1.202-1.048 1.789-2.49 2.502-3.856.29-.556.493-1.157.83-1.68.356-.554.742-1.109 1.208-1.569.8-.789 1.744-1.374 2.78-1.844.924-.42 1.884-.625 2.856-.549 1.246.098 2.427.37 3.4 1.362.571.582.79 1.296 1.222 1.916.204.293.385.611.525.94.097.231-.033.498.088.764.117.26.097.581.144.874.033.209.078.415.134.703-.035.358-.096.811-.119 1.266-.031.614-.152 1.188-.492 1.718-.232.363-.35.766-.706 1.087-1.168 1.055-2.5 1.51-4.066 1.436-.977-.046-1.9-.287-2.817-.572-.354-.11-.678-.316-1.087-.513-.106-.073-.296-.177-.454-.318a17.304 17.304 0 01-.957-.914c-.656-.684-.807-1.573-.963-2.456a.351.351 0 01.034-.173.124.124 0 01.047-.057c-.632-1.095.02-2.139.125-3.24-.571.58-.856 1.263-1.18 1.928-.348.715-.601 1.476-.954 2.175-.317.628-.909 1.119-1.393 1.658-.174.194-.388.352-.584.526l-.462.054.34-.666M286.972 2.258c.304.963.333 1.98.412 2.981.035.437-.01.88-.01 1.32-.002.403 0 .807.013 1.21.013.38.05.746.003 1.139-.115.976-.123 1.965-.153 2.95-.015.497.019.995.032 1.597.025-.025-.112.047-.122.133-.054.48-.217 1.006-.083 1.435.288.92.013 1.833.122 2.75.114.965-.046 1.96-.058 2.943-.011.987.012 1.974.02 2.896l-.836.732h-1.441c.02.175.03.265.04.34l-.373.074c.18.096.414.025.505.109.325.296.721.197 1.067.21 1.346.049 2.696.053 4.043.025.322-.007.746.074.972-.366l-.245-.437c-.221.021-.397.046-.574.054-.202.01-.404.005-.606.006-.662.003-.977-.344-.944-1.016.032-.63.05-1.261.065-1.893.01-.434.001-.87.007-1.304.015-1.054.044-2.107.045-3.16 0-.965-.061-1.931-.034-2.895.023-.812.135-1.621.213-2.491l-.519.116-.087-.301h.492c.041-.072.078-.107.078-.142-.008-1.009-.04-2.018-.025-3.026.011-.817.166-1.642.093-2.45-.072-.804.19-1.6-.046-2.408-.088-.302.127-.683.073-1.006-.063-.376-.017-.667.25-.922.75-.31 1.633.133 2.363-.412-.202-.635-.783-.37-1.174-.489-.183-.056-.45.169-.681.267-.197-.055-.443-.181-.69-.181-.815.001-1.631.046-2.447.078-.582.022-1.164.038-1.744.085-.134.011-.26.139-.455.25.586.475 1.2.132 1.8.278.224.312.532.585.639.92m-17.28 21.297c-.642-.148-1.299-.231-1.938-.389-.464-.115-.95-.24-1.353-.48a10.333 10.333 0 01-2.028-1.56 4.327 4.327 0 01-.472-.59c-.355-.51-.683-1.039-1.051-1.54-.29-.393-.696-.717-.916-1.141-.306-.59-.513-1.237-.715-1.875-.367-1.16-.642-2.312-.393-3.569.156-.787.054-1.63.032-2.447-.025-.882.253-1.7.729-2.38.494-.707.82-1.531 1.485-2.13.524-.47.987-1.01 1.465-1.53.543-.592 1.282-.88 1.952-1.268a5.65 5.65 0 012.435-.751c.58-.044 1.159-.113 1.737-.18.488-.057.974-.149 1.463-.187.787-.06 1.545.114 2.314.279.712.152 1.43.183 2.129.491 1.007.444 2.038.794 2.907 1.52.551.46 1.034.919 1.2 1.644.028.118.16.213.234.307.465-.165.758-.536.704-1.068-.049-.477-.149-.982-.552-1.319l-.44-.028c-.39-.33-.715-.567-.992-.851-.275-.282-.56-.422-.925-.243-.026-.13-.015-.278-.066-.304-.553-.283-1.102-.727-1.679-.77-.743-.055-1.43-.31-2.159-.381-.735-.071-1.44-.363-2.202-.265-.853.11-1.71.196-2.566.267-1.383.115-2.742.324-3.97 1.018-.892.504-1.896.783-2.613 1.64-.575.686-1.337 1.204-1.93 1.915-.735.88-1.256 1.843-1.771 2.846-.44.856-.376 1.77-.533 2.655-.118.668-.016 1.374-.057 2.06-.059 1.011-.114 2.016.266 2.986a.44.44 0 01.026.179c-.038.707.45 1.236.708 1.817.377.846.998 1.591 1.56 2.345.481.644 1.016 1.248 1.55 1.85.15.167.39.251.576.39.345.256.653.577 1.026.778a60.227 60.227 0 002.967 1.48c.374.175.786.341 1.19.366 1.42.086 2.844.108 4.247.154l.273-.246c.235 0 .36.027.47-.004.448-.126.888-.361 1.336-.375.308-.01.57-.056.86-.136.813-.223 1.463-.707 2.134-1.177.744-.52 1.508-.996 2.22-1.577.738-.6 1.338-1.278 1.908-2.01.23-.295.211-.536-.158-.795-.349.292-.707.563-1.03.872-.27.258-.48.58-.747.84-.662.647-1.332 1.282-2.178 1.703-.21.104-.338.368-.578.645l-2.5.856-.036.264-.344-.273c-.791.179-1.575.245-2.36.307-.753.06-1.458-.348-2.123-.274-.316-.161-.51-.311-.728-.361M336.557 6.69c.004-.174.053-.362.006-.522-.172-.58-.379-1.15-.568-1.725-.377-1.144-.979-2.216-1.04-3.414-.7-.322-2.101-.267-2.384.046-.071-.054-.15-.16-.209-.15-.93.16-1.86.213-2.803.104-.24-.028-.495.116-.743.115-.663-.003-1.325-.043-1.988-.066-1.097-.039-2.193-.092-3.29-.108-.922-.013-1.845.01-2.767.034-.393.011-.789.122-1.177.094-.673-.049-1.34-.17-2.03-.265l-.353.554c.332.096.584.207.845.237.48.054.966.043 1.446.096a.82.82 0 01.442.233c.305.3.234.68.193 1.062a10.34 10.34 0 00-.069 1.503c.036.885.166 1.767.174 2.65.012 1.205-.07 2.41-.083 3.615a258.169 258.169 0 000 4.786c.009 1.022.07 2.044.074 3.065.005 1.415-.187 2.827-.087 4.245a.683.683 0 01-.054.354c-.202.377-.425.742-.58 1.008-.874.083-1.662-.15-2.389.521.26.09.434.2.61.203 1.117.017 2.228.07 3.342.176 1.148.11 2.312.06 3.468.052 1.173-.01 2.356-.16 3.517-.056 1.394.125 2.783-.056 4.183.13 1.147.15 2.34-.043 3.511-.104.267-.014.45-.145.544-.463.157-.525.332-1.049.527-1.565.358-.949.69-1.908.998-2.875a1.031 1.031 0 00-.272-1.11c-.377.293-.523.683-.655 1.077-.17.51-.293 1.04-.498 1.535a14.198 14.198 0 01-.794 1.608c-.27.476-.648.824-1.261.814-.479-.007-.958.04-1.437.046-.864.01-1.728.007-2.592.008-.574 0-1.148-.01-1.721 0-.678.015-1.356.066-2.034.067-.677.001-1.354-.043-2.03-.06-.098-.002-.196.049-.295.061a1.593 1.593 0 01-.34.018c-.454-.04-.908-.12-1.363-.128-.482-.007-.571-.064-.572-.526-.005-2.026-.009-4.052-.026-6.077-.004-.504-.097-1.01-.076-1.512.053-1.247-.036-2.492.064-3.742.097-1.211-.004-2.437.019-3.655.012-.639-.103-1.271.01-1.92.072-.408-.063-.851-.11-1.32.237-.144.143-.43.108-.704-.028-.217-.105-.44-.077-.65.102-.761.153-1.51-.312-2.245.166-.026.277-.059.388-.058 1.624.012 3.248.03 4.873.04.478.004.956-.02 1.434-.007.694.019 1.388.086 2.082.083a25.79 25.79 0 002.17-.103c.992-.088 1.774.375 2.253 1.123.469.732.682 1.63 1 2.457.176.456.239.966.6 1.33l.198-.02m8.59 18.039l-1.388-.317c.18-.335.476-.163.705-.312l.087-.346c-.012-.939-.05-1.878-.027-2.816.017-.683.142-1.362.165-2.045.02-.618-.027-1.238-.054-1.857-.043-.995-.093-1.99-.144-3.079.894-.016 1.723-.053 2.55-.039 1.112.019 2.223.087 3.335.113.462.01.889.072 1.335.242.98.372 1.567 1.204 2.278 1.87.633.592 1.093 1.368 1.628 2.064.073.094.155.186.204.293.283.605.557 1.214.835 1.822.64 1.402 1.284 2.802 1.918 4.207.05.112.042.25.062.383l.384-.08c.021.398.309.35.558.342.775-.029 1.55-.066 2.325-.1l.014-.477-.346-.325-.8-.065c-.319-.384-.716-.767-.996-1.222-.438-.712-.805-1.468-1.189-2.213-.303-.589-.556-1.207-.885-1.78-.852-1.482-2.013-2.729-3.135-4.002a1.777 1.777 0 00-.42-.333c-.47-.282-.948-.551-1.458-.846.13-.091.23-.194.354-.244.35-.143.723-.24 1.065-.4 1.338-.626 2.683-1.249 3.59-2.496a.415.415 0 01.087-.085c.442-.333.684-.797.739-1.327.069-.665.06-1.338.097-2.008.023-.421-.177-.737-.413-1.02.02-.141.096-.299.05-.402-.329-.736-.402-1.586-.98-2.209-.177-.19-.346-.39-.539-.563-.403-.358-.767-.845-1.242-1.02-1.05-.387-2.08-.977-3.281-.73-.063.012-.14-.069-.213-.075-.53-.045-1.065-.127-1.573.003l-.535-.059c-.33.007-.37.23-.366.486.629.078 1.256.16 1.886.231.477.053.963.055 1.432.147.45.089.87.25 1.186.651.652.831 1.389 1.598 2.004 2.453.225.312.218.797.29 1.208.052.297.048.604.09.903.1.704-.008 1.378-.24 2.045-.084.238-.103.499-.166.823-.35.105-.252.515-.376.852l-.939.796v.342c-.056.026-.105.061-.156.068-.091.01-.213-.034-.271.011-1.04.794-3.047 1.157-4.358 1.12-.921-.027-1.84-.135-2.76-.192a3.075 3.075 0 00-.66.051c-.607.095-1.21.054-1.904-.113-.013-.152-.044-.394-.051-.636-.022-.737.135-1.467.133-2.194 0-.414.15-.795.112-1.203-.04-.419-.048-.84-.075-1.261-.102-1.605.101-3.205.073-4.808-.004-.243-.121-.482-.16-.726-.034-.208-.07-.429-.033-.631.03-.166.143-.332.387-.193.077.043.203 0 .306-.003l.123-.354-.353-.143-.797.242c-.403.25.128.762-.4 1l-.643-1.032c-.16-.04-.45-.115-.739-.19-.492.007-.983.01-1.475.02-.231.006-.491-.03-.586.324a5.724 5.724 0 002.3.194l.412.443c-.02 1.054-.022 2.13-.068 3.203-.027.629-.139 1.253-.188 1.882-.118 1.492.145 2.988-.074 4.485-.081.555.033 1.137.058 1.707-.169.232-.228.483-.124.76.032.275.091.55.09.825 0 .38-.075.76-.067 1.139.015.697.096 1.394.096 2.09 0 .958-.068 1.915-.073 2.871-.007 1.093.085 2.19-.325 3.241l1.005.078c.109.496.471.682.99.662.195-.007.393.056.59.087l.13.01-.012-.218m-31.039-11.825c-.03-.448-.1-.911-.085-1.372.04-1.28-.216-2.498-.66-3.69-.118-.316-.133-.685-.303-.965-.376-.622-.736-1.293-1.258-1.777-.724-.67-1.193-1.572-2.097-2.094-.702-.406-1.41-.732-2.192-.873a43.912 43.912 0 00-3.153-.46 57.836 57.836 0 00-3.415-.243c-.729-.033-1.46.005-2.191.01h-.636c-.286.255-.333.366-.277.8.015.12.074.24.061.354a84.637 84.637 0 01-.281 2.27c-.1.71-.292 1.414.001 2.126.052.125.047.28.04.42-.05.97-.11 1.94-.163 2.91-.01.178.01.356.007.534-.006.319-.018.638-.029 1.024l.128.09v3.724l-.219.114c.375.321.487 2.26.181 2.924.066.073.187.146.188.22.011 1.517.008 3.034.008 4.683l.558.566c.897-.056 1.618-.13 2.34-.139.956-.013 1.911.048 2.866.035 1.296-.019 2.606.182 3.874-.31.707-.274 1.434-.494 2.02-1.001.291-.252.572-.518.843-.793.599-.609 1.072-1.349 1.851-1.771.048-.026.074-.094.108-.144.737-1.08 1.14-2.316 1.503-3.542.23-.776.16-1.64.234-2.463.033-.37.093-.736.148-1.167M295.47 1.448c-.563.041-1.007.086-1.453.103-.325.013-.548-.152-.74-.497.075-.321.315-.361.597-.352 1.459.05 2.918.111 4.377.138.878.017 1.758-.03 2.637-.03.577 0 1.155.034 1.732.057.498.02.997.027 1.492.075 1.07.105 2.142.198 3.203.361.977.15 1.943.38 2.81.896.017.01.034.029.052.029 1.047.022 1.59.863 2.245 1.46.908.826 1.527 1.906 2.148 2.956.257.434.34.97.504 1.46.023.069.036.15.08.205.522.665.573 1.486.703 2.264.13.769.132 1.559.193 2.34.006.078.055.157.05.233-.054.945-.108 1.89-.179 2.835a1.87 1.87 0 01-.151.64c-.301.647-.304 1.399-.76 1.995a19.17 19.17 0 00-1.252 1.826c-.385.646-.989 1.094-1.424 1.675-.741.99-1.792 1.5-2.817 2.07-.158.087-.343.141-.477.256-.286.245-.594.32-.953.225-.458-.12-.904-.031-1.35.075-.819.195-1.65.055-2.475.085-.577.02-1.187-.165-1.73-.037-.781.183-1.534-.011-2.298.028-.611.031-1.214.102-1.821.152-.973.08-1.95.116-2.926.158a35.57 35.57 0 01-1.6.022c-.134 0-.268-.05-.38-.074-.194-.413-.001-.612.332-.712.415-.124.851-.185 1.254-.338.757-.289.83-.473.807-1.276-.04-1.367-.048-2.734-.067-4.102-.001-.059.03-.119.028-.178-.024-1.07-.068-2.14-.07-3.21-.002-.496.102-.992.111-1.488.012-.716-.033-1.433-.027-2.149.006-.7.038-1.401.07-2.102.039-.793.108-1.585.13-2.378.027-.931.03-1.864.017-2.796-.006-.496-.012-1.004-.114-1.486-.101-.472-.325-.918-.508-1.414" id="Fill-1" fill="#FFF"/><g id="Group-5" transform="translate(140.265 .068)"><mask id="mask-2" fill="#fff"><use xlink:href="#path-1"/></mask><path d="M4.3 10.7c.262-.028.459-.06.657-.066.714-.023 1.429-.047 2.143-.051.405-.002.81.025 1.213.056.529.04 1.062.036 1.578.194.088.027.201-.024.301-.046.093-.02.183-.068.276-.076.377-.032.754-.062 1.132-.08 1.266-.056 2.283-.675 3.24-1.428a.317.317 0 00.082-.1c.259-.493.516-.986.772-1.48.043-.084.072-.174.11-.26.04-.097.117-.19.12-.287a6.476 6.476 0 00-.015-.828c-.056-.645.12-1.303-.141-1.94-.177-.432-.267-.903-.468-1.322-.37-.775-1.174-.996-1.863-1.353-.589-.306-1.306-.139-1.883-.498-.006-.003-.024.02-.036.019-.475-.017-.95-.043-1.425-.05-.17-.003-.34.048-.51.056-.988.048-1.972-.096-2.965-.024-.689.05-1.39-.077-2.086-.116-.074-.005-.151.048-.22.072 0 .46-.005.89 0 1.319.01.67.023 1.341.039 2.011.009.395.052.79.033 1.184-.026.568-.094 1.133-.144 1.7-.002.027-.011.06 0 .083.244.464-.01.944.044 1.422.07.614.017 1.242.017 1.888zm-.03.563l-.11 11.95.402.574c.56.054.56.054.632.18.098-.051.194-.142.29-.142.221 0 .443.066.665.068.84.005 1.68.067 2.522-.06.414-.062.845-.007 1.268-.009.557-.002 1.113-.003 1.67-.013.532-.009 1.078.042 1.594-.058.826-.16 1.632-.422 2.447-.644a.53.53 0 00.15-.08c.442-.302.886-.59 1.269-.982.66-.677 1.021-1.488 1.201-2.39.132-.659.2-1.33.329-1.99.108-.558-.052-1.071-.2-1.587-.105-.367-.283-.713-.384-1.081a3.238 3.238 0 00-.842-1.435c-.11-.112-.24-.218-.313-.353-.181-.337-.475-.529-.807-.668a12.466 12.466 0 00-3.259-.846c-.308-.04-.619-.054-.927-.092-.455-.057-.906-.15-1.362-.18-1.203-.077-2.407-.121-3.61-.192-.3-.018-.598-.135-.895-.125-.55.018-1.1.095-1.73.155zM.408.137C.975.355 1.585.03 2.043.352 3.341.398 4.58.37 5.98.473 6.255.46 6.7.413 7.147.42c.762.01 1.522.062 2.284.075.435.007.873-.065 1.306-.036.827.054 1.664.095 2.473.257.566.113 1.096.41 1.634.646.098.043.154.18.19.225.154.027.288.012.364.072.285.224.54.484.824.71.376.299.515.751.724 1.144.193.36.237.8.335 1.209.057.234.091.473.135.71.188 1-.216 1.884-.584 2.76-.152.362-.464.662-.721.974-.181.22-.368.45-.597.613a23.1 23.1 0 01-1.477.949c-.095.057-.236.036-.392.122.125.058.276.191.37.158.34-.12.661-.007.965.068.679.166 1.344.392 2.009.61.141.047.263.158.387.249.265.193.532.384.785.592a.85.85 0 01.258.328c.113.298.295.53.552.71.247.17.34.43.456.694.306.689.654 1.368.777 2.112.116.7.188 1.417.164 2.123-.015.435-.244.863-.377 1.294-.016.05-.056.105-.046.15.087.391-.135.69-.312.99-.45.758-1.066 1.358-1.787 1.868-.362.257-.65.616-.983.917a.932.932 0 01-.361.223c-.823.217-1.637.529-2.49.555-.706.021-1.408.119-2.13.025-.9-.117-1.816-.123-2.737-.037-1.04.099-2.092.047-3.142-.034a40.365 40.365 0 00-3.438-.115c-.664.006-1.328.148-1.992.229-.188.023-.389.063-.472-.176-.055-.158.104-.407.315-.453a6.07 6.07 0 01.889-.13c.315-.021.632-.004.951-.004l.392-.533c.119-2.275-.115-4.559.014-6.966-.087-.35-.056-.817.092-1.331-.276-.339-.123-.801-.169-1.237l.154.017c-.053-.228-.117-.453-.154-.682a4.52 4.52 0 01-.055-.661c-.002-.257.029-.515.03-.772.006-1.1.014-2.199.005-3.298-.007-.813-.048-1.626-.055-2.439-.005-.513.043-1.027.034-1.54-.009-.533-.077-1.065-.084-1.597-.006-.443.04-.886.06-1.262L2.01.88 1.537.723c-.423.212-.842.033-1.31 0L.408.137zm45.29 14.252c.731.046 1.431.111 2.132.128.527.012 1.056-.055 1.584-.054.913 0 1.827.025 2.741.042.259.005.517.03.776.026.935-.015 1.871-.055 2.807-.046.215.002.384-.011.541-.157-.285-.108-.242-.327-.205-.478-.12-.198-.221-.347-.306-.504-.304-.57-.353-1.26-.816-1.756-.01-.009-.009-.027-.013-.04-.16-.485-.414-.93-.606-1.398a12.98 12.98 0 00-.75-1.524c-.138-.243-.16-.553-.254-.907-.406-.259-.431-.298-.475-.697-.304-.529-.561-.916-.757-1.333-.296-.63-.554-1.278-.818-1.922-.142-.348-.261-.705-.4-1.054-.013-.032-.096-.037-.118-.045-.407 1.015-.875 1.979-1.249 2.985-.366.987-.852 1.945-1.317 2.898-.465.954-.973 1.897-1.297 2.9-.321.996-.947 1.853-1.2 2.936zm15.512 7.13c.349.172.458.556.556.89.096.326.268.578.469.82.291.352.643.664 1.086.78.349.093.685.388 1.12.12l.196.488c-.6.113-1.163.135-1.754.01l-.017.126c-.31-.052-.64.136-.932-.053-.117.028-.252.105-.36.078-.264-.067-.505-.04-.768.013-.23.046-.482-.009-.723-.033a35.198 35.198 0 01-1.443-.168c-.157-.022-.305-.106-.5-.177l.218-.36c.582-.175 1.204.158 1.713-.212.268-.581-.36-.997-.271-1.48-.153-.29-.297-.547-.428-.812-.318-.645-.486-1.348-.898-1.965-.36-.539-.548-1.19-.816-1.79-.04-.09-.097-.172-.146-.257l.093-.05c-.413-.737-.693-1.537-1.083-2.303-.583 0-1.168-.002-1.752.001-.438.002-.877.013-1.315.018-.384.004-.769.014-1.153.006-.328-.007-.655-.036-.983-.054-.057-.003-.115-.007-.173-.005-1.191.037-2.383.075-3.574.109-.154.004-.31-.028-.463-.022-.398.016-.795.052-1.193.061-.172.004-.345-.038-.588-.068-.154.283-.381.602-.504.957-.103.297-.28.554-.372.86-.095.316-.32.603-.526.873-.392.511-.492 1.154-.803 1.697-.247.43-.488.871-.801 1.25a25.981 25.981 0 01-1.667 1.83c-.772.77-1.708 1.285-2.759 1.574-.267.074-.555.089-.835.1a221.311 221.311 0 01-7.21.208c-.752.011-1.505.004-2.258.016-.8.012-1.6.05-2.401.05-.87 0-1.742-.036-2.613-.044-.257-.002-.407-.1-.453-.352.35-.268.484-.28.731-.11l1.003-.074c.091-.156.134-.324.24-.394.351-.233.398-.589.404-.943.02-1.028.022-2.056.011-3.084-.012-1.203-.051-2.405-.065-3.608-.013-1.094-.009-2.189-.008-3.283 0-.494.011-.988.018-1.482.017-1.084.042-2.169.047-3.253.002-.512-.045-1.024-.047-1.537-.002-.613.022-1.226.033-1.839.012-.743.067-1.489.017-2.228-.033-.474-.223-.938-.35-1.438h-2.096l.042-.555c.448-.014.86-.047 1.272-.036.74.021 1.48.093 2.22.097.712.003 1.424-.058 2.137-.08.294-.009.592.046.881.014.473-.052.95.098 1.426-.09.183-.072.433.024.646.069.524-.1 1.058-.179 1.608-.084.104.018.276.066.306.023.175-.248.388-.105.592-.1.604.017 1.208.072 1.814-.026.29-.047.594-.021.89-.01.856.03 1.71.068 2.565.11.217.01.431.05.647.061.191.011.284.118.31.29.016.098.003.2.003.33.344.217.386.59.434.962.014.11.015.234.067.328.544.997.858 2.065 1.026 3.183.03.195.083.391.155.575.086.221.042.388-.125.531-.313-.007-.49-.16-.576-.44-.102-.329-.231-.65-.32-.981-.039-.143-.007-.306-.007-.393-.116-.286-.22-.516-.304-.753-.155-.431-.297-.867-.448-1.3-.018-.05-.057-.093-.09-.135-.16-.195-.344-.376-.478-.587-.262-.412-.582-.69-1.104-.673-.715.024-1.43.031-2.146.041-.129.002-.258-.019-.387-.025-.412-.02-.824-.032-1.236-.057-.353-.022-.706-.071-1.06-.084-.69-.024-1.381-.025-2.072-.048-.613-.02-1.226-.058-1.854-.088-.126.031-.275.1-.424.099-.443-.002-.885-.044-1.328-.045-.282-.001-.565.042-.908.07 0 .395.003.758 0 1.121-.002.168-.001.338-.026.503-.129.864-.067 1.732-.071 2.6-.001.238-.017.478-.002.716.022.366.089.73.093 1.094.009.799.02 1.598-.074 2.395-.02.166.048.34.05.512.008.482.003.965.003 1.504.056.007.175.04.291.033.479-.026.957-.065 1.436-.098.478-.032.956-.07 1.434-.09a59.894 59.894 0 011.766-.038c.674-.007 1.348-.002 2.08-.002.39-.316.355-.994.888-1.296.25.087.361.264.367.544.01.544.054 1.088.061 1.633.005.368-.022.739-.054 1.107-.01.103-.087.2-.134.3-.574-.059-.396-.516-.498-.842-.398-.023-.414-.38-.53-.713h-2.392c-.043 0-.094.015-.127-.003-.46-.257-.938-.019-1.407-.05-.612-.04-1.225.042-1.836.128-.449.063-.913.013-1.375.013l-.106.893c.007.329.027.76.024 1.193-.004.647-.034 1.293-.036 1.94-.002.663.014 1.327.029 1.99.012.57.095 1.147.036 1.708-.059.559-.007 1.11-.023 1.663-.02.691.007 1.384.012 2.004.426.399.824.442 1.292.324.244-.062.526.044.791.047.696.007 1.393-.004 2.089-.004.702 0 1.406.018 2.108.002.541-.012 1.081-.065 1.622-.097.68-.04 1.36-.075 2.04-.119.227-.014.452-.06.678-.072.582-.032 1.159-.08 1.701-.323.596-.265 1.167-.555 1.598-1.072.197-.237.466-.413.672-.643.513-.575 1.03-1.147 1.5-1.756.218-.283.332-.647.49-.976.245-.505.477-1.017.735-1.515.076-.146.224-.255.357-.402.014-.089.011-.219.057-.329.42-1.008.848-2.012 1.273-3.019.023-.052.022-.122.058-.16.458-.493.517-1.163.785-1.74.092-.2.276-.365.166-.622-.014-.034.048-.099.073-.15.193-.402.399-.798.575-1.206.178-.41.37-.806.596-1.193.114-.195.078-.481.375-.607-.155-.444.208-.737.354-1.097.214-.528.5-1.027.73-1.548.585-1.316 1.148-2.642 1.738-3.957.192-.43.44-.834.668-1.26.362-.06.457.053.598.735.35.17.438.53.581.838.277.592.53 1.196.782 1.8.188.448.35.908.54 1.355.328.768.67 1.53 1.005 2.294.347.792.697 1.584 1.043 2.376.2.46.34.96.612 1.373.268.41.372.868.57 1.295.345.74.661 1.493 1.01 2.231.255.542.583 1.053.806 1.607.227.565.597 1.067.69 1.699.043.291.283.551.423.83.27.534.547 1.064.793 1.608.188.418.333.856.519 1.342zm8.703-20.274c-.04.37-.095.731-.117 1.095-.03.507-.033 1.016-.054 1.525-.004.11-.092.179-.054.337.155.645.187 1.307.098 1.97-.017.128-.016.258-.016.388 0 .381.01.763.003 1.144-.005.345-.04.69-.037 1.035.005.432.092.87.042 1.293-.095.79.045 1.58-.078 2.407.226.04.417.084.611.106.608.07 1.215.162 1.825.19.439.019.805.229 1.208.34.33.09.66.218.997.243.598.045 1.2.058 1.801.037.1-.004.2.058.262.077.117-.043.203-.086.295-.107.487-.11.977-.207 1.462-.324.403-.098.804-.21 1.2-.333.543-.168 1.099-.317 1.415-.869.067-.118.211-.19.309-.294.142-.152.31-.295.403-.475.267-.517.464-1.072.893-1.494.063-.063.09-.177.107-.272.088-.488.157-.979.25-1.466.155-.8.108-1.595-.148-2.358-.415-1.232-1.411-1.969-2.436-2.644-.532-.351-1.127-.607-1.701-.89-.228-.114-.484-.28-.713-.26-.414.035-.76-.201-1.178-.182-.288.014-.612-.125-.934-.134-.104-.002-.208-.054-.332-.09V.804L75.238.79l-.235.456h-5.09zM85.34 22.464c.228-.056.315.208.513.296.137.063.284.113.412.193.618.385 1.188.853 1.877 1.117.226.086.469.13.7.203.258.083.508.193.769.266.286.08.578.16.873.187.652.06 1.308.082 1.962.125.086.006.169.049.267.08.012-.017.047-.112.087-.113.857-.036 1.71-.254 2.626-.117l.107-.09.271.3v-.286c.588-.185 1.16-.356 1.726-.549.171-.058.322-.177.48-.27.37-.219.728-.457 1.109-.651.327-.167.533-.457.8-.677.452-.37.657-.887.986-1.328.074-.1.11-.23.18-.334.11-.159.233-.307.38-.498.046-.192.128-.441.16-.697.047-.39.017-.792.098-1.173.099-.467-.19-.83-.241-1.25a1.63 1.63 0 01.031-.509c-.367-.86-.914-1.59-1.748-2.071-.382-.22-.768-.449-1.181-.592-.223-.078-.412-.195-.619-.286-.617-.274-1.174-.702-1.882-.758-.155-.012-.309-.07-.457-.123-.713-.253-1.42-.516-2.087-.88-.103-.057-.237-.07-.358-.08-.663-.05-1.255-.324-1.853-.578-.07-.03-.11-.124-.167-.19-.136-.018-.308.006-.425-.063-.702-.413-1.411-.82-2.076-1.287-.281-.198-.549-.43-.82-.649a1.147 1.147 0 01-.236-.304c-.185-.303-.348-.62-.545-.916a1.746 1.746 0 01-.301-1.088c.001-.028.012-.063 0-.085-.332-.637-.008-1.269.044-1.895.045-.548.262-1.079.538-1.564.11-.192.279-.354.439-.511.439-.43.89-.847 1.33-1.276.071-.068.114-.166.14-.206.552-.204 1.052-.412 1.568-.572a5.052 5.052 0 011.611-.252c.474.008.95-.128 1.425-.2.35-.053.364-.049.612.17.246 0 .455-.024.657.004.483.066.97.124 1.44.245.498.127.983.315 1.468.491.374.137.74.299 1.108.448.065.026.162.03.191.077.25.405.68.373 1.014.3.343-.074.763-.14.936-.591.073-.19.303-.318.476-.488.3.232.214.557.215.81.003.484-.094.968-.135 1.454-.034.396-.057.793-.063 1.19-.007.406.026.813.01 1.218-.005.135-.108.267-.164.395-.528-.132-.344-.548-.51-.9-.127-.153-.31-.387-.507-.607-.43-.48-.84-.986-1.312-1.422-.545-.503-1.14-.953-1.856-1.21-.506-.182-.995-.411-1.507-.571-.407-.127-.852-.137-1.252-.279C94.148.812 93.608.85 93.079.82c-.399-.023-.824.078-1.207.211-.972.337-1.862.805-2.56 1.608-.25.287-.578.496-.737.873a3.765 3.765 0 00-.297 1.03c-.048.394-.112.786-.184 1.176-.182.986.235 1.75.88 2.437.313.333.713.51 1.129.673.802.316 1.592.662 2.397.97.619.235 1.26.413 1.879.647.562.213 1.11.465 1.663.702.052.022.096.067.15.079.595.136 1.193.266 1.789.403.18.041.36.091.537.149.53.172 1.058.35 1.61.533l.07.404.235-.27c.11.059.24.111.352.189.554.381.974.893 1.376 1.425.364.48.776.933.941 1.53.117.425.244.857.283 1.293.063.701.093 1.41.067 2.113-.02.552-.072 1.098-.513 1.56-.195.205-.228.598-.44.859-.34.419-.66.854-1.006 1.267-.097.117-.254.185-.386.271-.274.18-.546.36-.824.532-.249.154-.494.323-.76.443-.467.21-.965.357-1.42.59-.254.13-.524.192-.776.3-.941.406-1.937.455-2.932.57-.51.058-1.037 0-1.532.18a.335.335 0 01-.127.016c-.44-.018-.882-.02-1.32-.061-.78-.075-1.564-.14-2.337-.272a10.524 10.524 0 01-2.697-.818c-.538-.25-1.12-.411-1.65-.674-.677-.335-1.377-.636-1.958-1.145a3.709 3.709 0 00-.667-.45 5.567 5.567 0 01-1.824-1.576 2.514 2.514 0 00-.478-.473c-.609-.473-1.168-.986-1.592-1.64-.086-.134-.28-.193-.41-.304-.4-.344-.807-.674-1.09-1.143-.17-.284-.453-.5-.68-.753-.189-.209-.353-.442-.558-.632-.197-.182-.437-.315-.648-.482a55.508 55.508 0 01-1.195-.972c-.465-.39-.937-.752-1.584-.778-.193-.009-.384-.078-.656-.137h-1.666c-.026.595-.069 1.207-.071 1.82-.002.24.087.479.134.718.01.056.043.122.026.168-.203.554-.052 1.126-.072 1.687-.044 1.21.005 2.423.025 3.634.012.733.041 1.465.066 2.198.003.1.025.198.036.274l.638.52c.211-.262 1.131-.294 1.726-.031.023.28-.113.406-.394.423-.699.042-1.397.105-2.096.133-.26.01-.524-.053-.834-.088-.999.092-2.065-.005-3.156.09l-.18-.42.5-.372c.157.02.428-.022.538.09.169.175.385-.106.525.12l.018-.253.742.034-.043-.291.271-.24c-.026-.517-.083-1.058-.072-1.599.01-.537-.1-1.07.03-1.614.12-.494-.174-1.032.074-1.495-.02-.436-.033-.846-.058-1.256-.012-.184-.071-.365-.073-.548-.01-.9-.019-1.8-.006-2.7.01-.739.047-1.477.08-2.215.004-.083.063-.164.084-.215-.04-.17-.11-.333-.111-.498-.002-.506.022-1.013.04-1.52.005-.16.019-.321.023-.38-.083-2.799.14-5.498.034-8.244l-1.963-.086-.49-.468c.14-.029.273-.082.405-.079 1.135.026 2.27.07 3.405.093.796.016 1.595.036 2.389-.005.314-.017.604.106.929.04.296-.06.621.04.933.039.656-.003 1.312-.054 1.966-.033.428.014.88.046 1.221.436l.131-.228c.54 0 1.07-.016 1.596.005a3.905 3.905 0 011.668.423c.615.317 1.16.727 1.734 1.097.484.311.825.72 1.145 1.157.316.434.747.803.855 1.374.022.117.129.218.19.33.083.149.18.294.237.453.242.681.25 1.394.255 2.106.002.215.01.435-.032.643-.056.29-.15.574-.24.857-.075.237-.21.463-.238.704-.041.342-.274.552-.443.808-.267.404-.529.811-.815 1.202-.164.225-.392.406-.554.632-.18.25-.421.365-.694.475-.3.12-.57.32-.868.447-.297.127-.612.215-.924.307-.362.107-.728.2-1.093.298-.055.015-.11.045-.165.048-.671.032-1.342.062-2.013.088-.225.008-.45 0-.714.077.105.07.215.133.317.208.549.402 1.104.796 1.64 1.215.289.226.552.489.81.75.444.448.874.909 1.312 1.363a.823.823 0 00.145.116c.07.044.202.077.205.122.02.244.253.277.375.415.14.16.287.315.449.451.174.147.384.254.55.41.206.193.377.422.573.627.137.144.281.285.437.407.315.248.641.482.962.722.445.331.89.663 1.333.996.065.049.123.108.248.219z" id="Fill-3" fill="#FFF" mask="url(#mask-2)"/></g><path d="M107.672 24.342c-.098-.131-.207-.255-.31-.382l-.208.468.24.365h.591c-.104-.15-.204-.304-.313-.451zm14.124-17.699l.323-.52-.28.108-.109-.903c-.208.17-.37.074-.52-.091.023.517.129 1 .586 1.406zm-80.5 11.597c-.125.104-.34.194-.226.436l.454-.337.04.06-.248.403c.433.105.662.073 1.062-.12-.739-.444-.622-.487-.46-.857-.208.136-.431.257-.622.415zM96.982 1.644c.446-.029.903-.016 1.33-.125.16-.04.542-.055.512-.357L97.852.62l.029.357-.2-.086.115.58c-.31-.18-.585-.097-.853.046.013.044.029.128.039.127zm.814-.173l-.116-.58-.29-.204-1.482.073c-.257.013-.6-.072-.754.061-.282.244-.57.019-.831.138-.243.111-.493-.026-.723-.027-.615-.003-1.258-.042-1.838.239-.064.308.073.391.337.387.56-.01 1.12-.003 1.644-.003.377.45.488.951.54 1.488.064.66.246 1.3.133 1.985-.142.858-.261 1.725-.099 2.605.07.375.064.767.06 1.15-.015 1.149-.066 2.296-.066 3.444 0 .9.087 1.799.078 2.698-.012 1.1-.082 2.2-.127 3.289-.122.145-.257.261-.335.408-.149.278-.353.292-.641.27-.539-.04-1.083-.012-1.634-.012l-.115.48c.434.044.83.083 1.225.124.223.023.453.095.667.064.832-.121 1.663-.123 2.5-.094.486.016.976-.057 1.464-.073.396-.014.793-.003 1.185-.003.036-.44-.004-.568-.268-.597-.425-.047-.857-.04-1.285-.053-.165-.005-.33 0-.461 0-.434-.584-.44-.584-.462-1.225-.01-.295.006-.592.007-.888 0-.322-.018-.646-.003-.967.054-1.186.154-2.37.125-3.56-.013-.514.065-1.046-.043-1.538-.201-.916-.018-1.817-.024-2.724-.005-.803.04-1.605.05-2.409.014-1.09-.3-2.18.01-3.272.036-.124.006-.267.006-.416l.713-.212c.268-.143.543-.226.853-.046zM66.89 13.974a29.086 29.086 0 00-.203-2.815c-.022-.181-.072-.359-.11-.538l.03-.004-.137-1.061c-.03.024.073-.018.08-.072a9.84 9.84 0 00.074-.857c.047-.984.09-1.969.131-2.953.008-.189.012-.379.005-.568-.024-.695-.058-1.389-.078-2.084-.011-.357.088-.68.346-.944.25-.256.492-.517.695-.731.26-.028.462-.047.663-.072.195-.025.325-.122.329-.333.003-.217-.098-.368-.316-.411-.135-.028-.273-.034-.41-.046-.252-.021-.503-.055-.754-.056-.238-.002-.476.037-.714.048-.532.025-1.065.037-1.597.068-.396.024-.79.085-1.186.102C63.14.67 62.54.638 61.946.69c-.444.04-.54.393-.236.782h2.213c.517.655.892 1.38.934 2.19.035.682.005 1.362.077 2.053.113 1.089.094 2.195.079 3.294-.013.872-.107 1.743-.158 2.614-.006.093.04.187.05.282.015.13.024.262.022.392-.003.203-.024.405-.024.608-.001.674.028 1.348 0 2.02-.042 1.046-.13 2.09-.18 3.135-.015.305.092.62.049.917-.087.587.01 1.173-.113 1.773-.13.632.026 1.319.026 1.982 0 .586.077 1.199-.409 1.736-.21.014-.465.023-.717.051-.356.04-.706.097-.731.531l-.511.182.027.12c.512-.048 1.024-.095 1.535-.148.27-.028.54-.09.81-.095.433-.008.877.159 1.286-.129.053-.037.164.008.249.017.607.064 1.215.13 1.822.193.29.03.606.106.695-.38-.148-.062-.302-.186-.447-.175-.413.032-.625-.232-.829-.501-.283-.374-.436-.774-.396-1.279.046-.57-.093-1.155-.051-1.727.06-.846.186-1.686.1-2.537-.02-.194-.055-.385-.084-.58l.149-.043c-.191-.635-.215-1.183-.12-1.9.032-.247.072-.52-.227-.655.264-.677.223-.906-.128-1.043.064-.131.184-.265.182-.397zm-13.684-2.713c-.045-.201-.06-.356-.115-.496-.095-.238-.24-.458-.319-.7-.174-.537-.294-1.093-.488-1.622-.164-.449-.433-.859-.597-1.308-.158-.435-.461-.782-.647-1.196-.238-.53-.532-1.046-.68-1.6-.113-.428-.364-.773-.45-1.183-.526.596-.611 1.418-1.2 2.05-.026.078-.067.261-.144.427a75.15 75.15 0 01-.874 1.816c-.14.28-.336.536-.458.823-.154.362-.236.755-.388 1.119-.302.718-.63 1.426-.974 2.196.376-.066.644.039.962-.039.501-.122 1.05-.046 1.578-.061 1.573-.044 3.155.065 4.794-.226zM41.92 17.825c.037-.157.035-.422.117-.45.318-.111.358-.378.48-.624.706-1.426 1.443-2.837 2.145-4.266.44-.894.835-1.81 1.25-2.715.014-.032.016-.071.036-.097.398-.503.45-1.149.71-1.706.26-.556.584-1.081.857-1.632.174-.349.298-.722.456-1.079.427-.97.856-1.938 1.293-2.904.209-.463.416-.93.666-1.371.083-.147.297-.219.43-.31.23.42.432.752.598 1.102.165.346.28.715.44 1.064.32.706.662 1.402.981 2.109.197.436.363.885.553 1.324.176.408.36.813.551 1.214.168.35.272.733.486 1.058.457.692.561 1.513.838 2.269.22.604.567 1.162.717 1.784.177.74.64 1.314.978 1.962.402.768.735 1.572 1.083 2.366.18.41.306.843.496 1.246.19.405.55.584.991.598.171.006.343.001.512.001.228.478.05.767-.45.767-.522 0-1.045.02-1.568.038-.872.03-1.744.067-2.616.1-.25.01-.433-.088-.549-.395.54-.433 1.275-.288 1.852-.533l-2.72-6.639c-1.067.065-2.099.13-3.13.185-.167.009-.336-.032-.504-.043-1.183-.077-2.364.07-3.544.054-.357-.004-.65.173-1.017.127-.475 1.118-.937 2.222-1.414 3.319-.21.485-.44.963-.682 1.432-.062.12-.206.199-.292.277l-.144.64.192.509c.43.05.86.11 1.292.146.111.01.229-.06.345-.087.301-.069.447-.019.717.232-.062.07-.164.132-.18.211-.065.316-.245.338-.533.318a12.09 12.09 0 00-1.528.013c-.973.058-1.943.157-2.916.206-.39.02-.784-.049-1.232-.08l-.077-.61c.267-.027.48-.057.694-.068.44-.022.883-.028 1.324-.056.059-.004.111-.101.167-.155l.454-.337.04.06-.248.403c.433.105.662.073 1.062-.12-.739-.444-.622-.487-.46-.857zm65.476 6.968l-.241-.365.207-.468-.121-3.317c.257-.672.041-1.465.036-2.251.007-.119.085-.254.059-.364-.106-.445-.021-.875.03-1.314.057-.475.084-.955.089-1.433.003-.322-.092-.645-.077-.965.021-.49.1-.978.157-1.49.84.034 1.672.078 2.505.102.895.025 1.79.052 2.684.04.359-.006.716-.113 1.118-.182.785.073 1.04.855 1.498 1.376l-.169.079c.142.29.27.166.464.027-.065-.635-.136-1.282-.192-1.93-.011-.127.02-.265.06-.39.096-.307.21-.609.312-.901l-.363-.452c-.647.249-.58.953-.926 1.361l-.412.144c-.333-.183-.645-.127-.935-.12-.441.013-.887.13-1.321.094a27.42 27.42 0 00-3.49-.062c-.314.014-.68.205-.973-.087.025-.2.119-.413.06-.566-.302-.776.047-1.597-.197-2.371-.009-.03.012-.067.015-.102.022-.374.093-.753.057-1.121-.114-1.17-.1-2.339-.07-3.51.023-.87.005-1.741.005-2.616.398-.092.854-.055 1.317-.038.978.035 1.958.004 2.936-.02.515-.012 1.028-.066 1.541-.1.405-.025.81-.047 1.284-.075.183.197.5.067.812.093 1.157.096 2.304.28 3.473.252.286-.007.61.032.82.345.175.263.433.469.645.71.158.179.352.352.438.565.184.459.303.944.461 1.414.053.157.145.302.22.452.149.165.31.261.52.091-.026-.045-.064-.088-.073-.136-.127-.706-.24-1.416-.709-2.003a.217.217 0 01-.041-.141c.063-.655-.455-1.159-.402-1.77l-.598-.25c-.215 0-.404.027-.583-.006-.456-.083-.91-.127-1.372-.054-.072.011-.163.041-.218.011-.431-.235-.91-.043-1.357-.163-.241-.065-.51-.035-.766-.034-.459.002-.926.075-1.374.01-.889-.128-1.768.008-2.652.005-.74-.002-1.482.005-2.222.02-.316.006-.63.044-.96.07-.26-.031-.553-.103-.842-.093-1.434.052-2.865.135-4.299.18-.194.006-.335.05-.331.21.003.144.1.322.214.418.086.073.262.052.398.054.49.005.982.002 1.464.002.22.727.556 1.356.323 2.076-.014.042.024.098.03.149.072.536.176 1.068.096 1.617a6.047 6.047 0 00-.047.952c.013.876.053 1.752.06 2.629.008 1.153-.007 2.306-.007 3.46 0 .972-.001 1.944.013 2.916.006.365.07.729.08 1.094.01.34-.027.683-.02 1.024.012.704.07 1.408.054 2.11-.017.783-.101 1.565-.141 2.348-.038.735-.055 1.471-.08 2.18-.116.079-.272.132-.275.195-.031.492-.372.433-.696.42-.234-.008-.47-.036-.701-.012-.207.022-.467-.018-.585.338.15.08.297.195.462.237.217.055.435.029.67-.011.397-.068.82.034 1.234.04.52.01 1.039-.006 1.559-.01.172-.02.354.051.53.04.712-.045 1.422-.132 2.134-.17.472-.025.948.013 1.422.011.478-.001.938-.121 1.436-.052.597.083 1.22-.03 1.83-.04.636-.01 1.274-.038 1.906.012.877.07 1.747-.067 2.628-.022.553.028 1.125.032 1.688.05.619.02 1.011-.213 1.23-.798.02-.056.005-.142.042-.174.426-.377.442-.918.63-1.416l-.291.023c.098-.134.146-.272.238-.312.47-.208.507-.657.612-1.063.068-.26.093-.53.155-.79.04-.164.114-.32.185-.513l-.372-.22c-.168.339-.378.616-.445.924-.185.85-.44 1.649-1.148 2.216l.133.351-.298-.114-.934 1.166c-.877 0-1.82-.007-2.764.002-.939.01-1.878.047-2.817.048a42.267 42.267 0 01-2.045-.061c-.693-.034-1.38.07-2.074.071-.81.001-1.618.167-2.428.255-.076.008-.156-.026-.235-.04h-.59zM4.737 14.35l.422.134c.329-.127.668-.232.938-.026.313-.026.545-.054.777-.063.224-.008.45.022.673.005 1.299-.097 2.603-.157 3.893-.32 1.257-.16 2.465-.536 3.474-1.35.286-.232.446-.618.73-.851.438-.358.618-.85.727-1.339a30.06 30.06 0 00.546-3.197c.077-.685.058-1.417-.41-1.994a3.695 3.695 0 01-.621-1.038c-.097-.256-.286-.428-.566-.518-.208-.067-.437-.171-.575-.33-.372-.426-.846-.676-1.341-.907-.272-.127-.53-.29-.81-.393-.251-.093-.527-.115-.787-.187-.672-.185-1.34-.38-2.047-.403-1.008-.03-2.009-.059-3.014-.25-.69-.132-1.438.047-2.17.088.33 1.06.092 2.097.163 3.116.076.216.181.44.173.66-.046 1.222-.124 2.444-.18 3.667-.028.647-.024 1.295-.052 1.942-.01.225-.071.447-.09.557.285 1.052-.101 2.052.147 2.997zM2.444 1.314c-.896.015-1.691.037-2.443-.246V.907L.762.833C1.649.75 2.533.656 3.42.59c.194-.014.395.063.482.079.25-.046.407-.103.562-.1 1.491.037 2.983.074 4.473.134.375.015.745.121 1.12.17.283.038.573.031.854.08 1.194.207 2.391.402 3.575.657.354.077.674.326 1.003.508.302.168.587.372.897.524.76.371 1.165 1.044 1.493 1.764.235.516.486 1.027.642 1.585.094.333.075.656.097.976.028.415-.065.839-.105 1.26a.484.484 0 00-.001.103c.09.758-.232 1.449-.364 2.17-.036.194-.148.377-.244.555-.559 1.026-1.229 1.938-2.343 2.442-.937.425-1.85.903-2.787 1.33-.26.118-.566.134-.895.207l-.025.126-.254-.24-1.536.178-.19-.516c-.117.111-.192.198-.282.262-.115.083-.277.237-.36.205-.45-.172-.897.009-1.346-.025-1.03-.078-2.066-.065-3.187-.092 0 .524-.003 1.007.001 1.49.005.496.023.992.023 1.489 0 .507-.012 1.015-.021 1.523-.01.499.029 1.006-.05 1.495-.076.471-.005.935-.052 1.4-.048.482-.08.965-.12 1.443.338.377.79.33 1.206.396.339.053.686.08 1.012.176.139.04.233.23.419.426-.413.127-.697.262-.993.296-.692.077-1.387.118-2.087.062-.25-.02-.508.042-.763.069-.033.004-.066.03-.099.029-.93-.046-1.86-.093-2.789-.143-.032-.001-.062-.027-.116-.053l-.037-.353c.244-.22.482-.384.86-.318.36.064.719-.039 1.03-.259.182-.129.372-.247.607-.402-.05-.403-.142-.825-.145-1.246-.006-.915.032-1.83.055-2.744.02-.835.041-1.669.068-2.503.028-.883.068-1.765.093-2.647.012-.445-.001-.89 0-1.336 0-.942.016-1.884 0-2.826-.017-.93-.087-1.858-.093-2.787-.002-.432.11-.863.14-1.297.02-.286-.041-.578-.02-.864.025-.34.11-.674.147-1.014.021-.196-.003-.397-.007-.596-.008-.409.044-.83-.04-1.222-.095-.44-.312-.855-.484-1.3zM83.092 13.26c.116-.062.27-.134.413-.221.214-.13.459-.238.626-.415a61.848 61.848 0 001.798-1.996c.917-1.061 1.517-2.239 1.35-3.704-.089-.773-.439-1.446-.75-2.135a.604.604 0 00-.236-.268c-.522-.29-.915-.77-1.487-.992-.166-.064-.288-.237-.434-.356-.092-.075-.181-.178-.288-.208-.824-.23-1.645-.472-2.48-.653-.447-.097-.938-.01-1.375-.13-.563-.154-1.138.123-1.682-.118a.075.075 0 00-.048-.006c-.553.177-1.124.073-1.662-.006-.816-.118-1.616-.037-2.45-.058.068.741.118 1.435.2 2.125.08.68.294 1.36.262 2.03-.039.781.279 1.568-.04 2.338.169.944-.043 1.873-.096 2.809-.029.502-.005 1.008-.005 1.457.433-.045.815-.095 1.199-.122.263-.018.526-.01.792.003.536.026 1.054.066 1.55.29.342.155.684.35 1.045.407 1.035.167 2.079.288 3.12.008.196-.053.406-.05.678-.08zm2.673.694l-.169-.36c-.167.585-.658.628-1.044.774-.797.301-1.631.142-2.452.094-.391-.023-.781-.052-1.224-.083.167.523.85.611.806 1.11.174.083.316.128.425.214.074.058.076.219.151.26.677.373.9 1.167 1.513 1.606.255.183.413.497.632.735.558.605 1.112 1.214 1.694 1.795.314.313.68.574 1.027.85.305.242.6.503.932.7.507.302.878.785 1.46.996.376.137.728.384 1.041.642.643.53 1.44.615 2.191.842.877.265 1.728.102 2.59-.071a4.643 4.643 0 011.796-.034c1.062-.667 2.236-1.406 3.416-2.138.03-.018.115.052.175.081.212-.234.43-.453.78-.47-.065.85-2.796 3.25-3.42 3.075-.164.121-.292.264-.452.325-.635.245-1.263.489-1.865.823-.334.185-.796.214-1.194.196-.767-.035-1.532-.234-2.295-.217-.743.017-1.343-.298-1.974-.569-.146-.062-.235-.246-.368-.35-.13-.102-.31-.27-.423-.24-.347.093-.491-.165-.7-.314-.266-.19-.539-.373-.785-.585-.281-.243-.536-.517-.804-.776-.637-.615-1.264-1.242-1.916-1.84-.489-.448-1.019-.85-1.516-1.288-.31-.272-.59-.577-.89-.859a2.217 2.217 0 00-.401-.314c-.62-.355-1.205-.75-1.696-1.278a2.37 2.37 0 00-.735-.533c-.335-.16-.572-.524-.852-.798-.06-.06-.113-.15-.185-.17-.4-.108-.585-.446-.79-.745-.362-.53-.74-.759-1.336-.738-.051.002-.102 0-.185 0-.34-.463-.818-.617-1.404-.553-.245.028-.502-.056-.853-.101.078.364.175.651.193.943.022.34-.035.684-.04 1.026-.018 1.15-.038 2.302-.037 3.453 0 .808.033 1.617.051 2.426.002.067.017.14-.002.201-.189.641-.158 1.286-.088 1.943.025.242-.095.499-.157.79.43 0 .925-.01 1.42.003.398.01.443.056.606.453-.368.356-.763.464-1.299.32a7.645 7.645 0 00-1.886-.273c-.605-.007-1.215.127-1.817.234-.346.062-.666.034-1.096-.085.53-.563 1.24-.32 1.82-.664.045-.227.103-.527.16-.827.03-.152.03-.318.092-.454.347-.753.226-1.55.238-2.334 0-.034-.01-.07-.009-.104.033-.866.094-1.732.093-2.598 0-.817-.066-1.634-.105-2.451-.006-.137-.054-.279-.029-.408.14-.711.049-1.435.127-2.15.06-.543.018-1.096.036-1.643.018-.544.069-1.086.08-1.63.014-.695-.005-1.393.004-2.09.019-1.47.08-2.94.054-4.41a2.235 2.235 0 00-.852-1.735c-.082-.066-.227-.065-.344-.072-.311-.02-.625-.006-.934-.042-.392-.046-.54-.222-.536-.563l.652-.304c.682.282 1.452.162 2.213.177.459.009.917.056 1.375.087.732.05 1.468.076 2.197.156 1.477.163 2.953-.122 4.427.01.643.057 1.286-.165 1.925.014.29.081.59.142.864.261a9.75 9.75 0 011.095.574c.172.101.307.263.521.453.417-.113.792.221 1.134.484.473.362.858.839 1.278 1.269.128.13.253.265.374.403.079.09.183.179.216.287.251.83.641 1.622.609 2.526-.028.771-.015 1.552-.276 2.284-.24.671-.524 1.334-.864 1.959-.243.446-.7.785-.902 1.242-.263.595-.88.685-1.282 1.165zm-61.398-1.13c.335.159.645.257.983.187a.595.595 0 01.197-.01c.674.091 1.345.235 2.022.267 1.341.065 2.685.182 4.028-.03.736-.115 1.484-.161 2.172-.486.57-.267 1.205-.416 1.613-.964.284-.382.598-.742.838-1.039.16-.589.306-1.098.433-1.611.097-.391.229-.79.223-1.183-.002-.184-.082-.376-.018-.58.13-.413.04-.802-.138-1.187a1.962 1.962 0 01-.134-.54c-.066-.46-.097-.91-.476-1.279-.246-.239-.375-.598-.586-.954-.244-.147-.54-.344-.853-.51-.254-.134-.517-.281-.794-.338-.977-.201-1.96-.371-2.944-.542-.321-.056-.648-.115-.972-.112-.869.009-1.728-.148-2.577-.253-.889-.11-1.755-.045-2.632-.059-.262-.004-.391.125-.407.365-.023.36-.041.72-.034 1.08.011.568.052 1.136.065 1.705.006.244-.052.464-.35.395l.34 7.678zm-1.858-5.221c-.057-.314-.129-.537-.132-.76-.012-.715.046-1.432-.006-2.142-.063-.876-.054-1.741.106-2.604.013-.066.01-.135.016-.243-.414 0-.818-.042-1.209.01-.542.074-.966-.204-1.41-.404-.245-.109-.233-.214-.12-.636l2.578-.098c.033-.002.074.026.1.014.561-.26 1.147-.004 1.72-.08.57-.074 1.15-.078 1.725-.097a146.93 146.93 0 013.148-.079c.358-.003.718.048 1.075.09.837.1 1.673.207 2.51.314.183.024.364.085.547.086.753.003 1.325.458 1.962.755.342.16.706.274 1.063.397.714.248 1.349.607 1.831 1.21.212.263.553.43.624.798.088.458.313.874.412 1.323.098.45.181.926.144 1.38-.076.92-.154 1.856-.392 2.743a5.453 5.453 0 01-.954 1.875c-.38.488-.755 1.073-1.457 1.22-.094.02-.176.106-.26.166-.778.56-1.66.932-2.57 1.164-.698.179-1.45.15-2.179.205-.403.03-.807.046-1.32.073.336.348.666.554 1.012.74.12.064.277.099.353.197.532.69 1.308 1.071 1.983 1.578.545.41.593.425.723 1.007.099.035.226.04.254.096.305.598.903.881 1.39 1.268.534.424 1.12.776 1.653 1.214.612.503 1.347.855 2.024 1.28.212.134.39.333.616.43.505.215.941.552 1.463.746.583.217 1.122.551 1.695.802.298.13.631.173.939.283.33.118.65.269.965.402.23.04.468.077.704.124.425.085.848.177 1.273.264.35.071.698.148 1.05.208.48.081.96.185 1.445.212.579.031 1.162-.02 1.743-.014.181.002.363.07.58.116l.02-.265c.554-.046 1.105-.08 1.615-.346.16-.084.363-.087.544-.136.557-.151 1.177-.203 1.648-.495.338-.209.663-.473 1.026-.667.317-.169.636-.333.948-.508.447-.25.884-.519 1.336-.757.104-.055.255-.019.436-.027-.517.912-1.152 1.56-2.034 1.955-.246.11-.463.29-.688.443a6.532 6.532 0 01-1.937.922c-.655.183-1.277.502-1.94.632-.972.19-1.965.286-2.953.381-.509.05-1.03.045-1.54.001-.702-.06-1.403-.16-2.097-.28a12.055 12.055 0 01-1.465-.366c-.85-.262-1.767-.284-2.57-.719-.097-.052-.234-.024-.345-.058-.749-.227-1.518-.41-2.237-.708-.638-.265-1.22-.663-1.827-1.002-.045-.025-.086-.062-.134-.077-.74-.227-1.297-.76-1.919-1.177-.35-.235-.598-.619-.947-.855-.657-.444-1.072-1.108-1.61-1.658-.148-.152-.202-.391-.33-.568-.5-.691-.993-1.39-1.53-2.052-.268-.33-.622-.593-.941-.883-.299-.27-.602-.535-.906-.806-.147-.057-.362-.08-.486-.199-.564-.538-1.296-.697-2-.858-.918-.209-1.862-.3-2.842-.45.045.418.104.787.117 1.157.009.266-.062.535-.067.803-.008.391.028.783.014 1.174-.017.458-.058.916-.104 1.373-.06.613-.163 1.222-.197 1.836-.025.451.049.874-.1 1.354-.184.595-.073 1.285-.071 1.933 0 .26.146.478.287.694.09.136.142.296.227.479.26 0 .55.014.837-.004.397-.025.756.017 1.014.435-.365.348-.828.429-1.303.418a30.98 30.98 0 01-1.827-.111c-.804-.066-1.606-.151-2.41-.218-.32-.026-.608-.095-.832-.39l.168-.33h2.194c-.23-.571-.08-1.177.01-1.776.12-.783.136-1.563.089-2.353-.05-.85-.037-1.702-.063-2.553-.012-.407-.059-.812-.074-1.219a178.4 178.4 0 01-.068-2.428c-.009-.418-.001-.837-.001-1.248l.385-.334c-.04-1.089-.057-2.184-.127-3.275-.045-.698-.033-1.017.19-1.467z" id="Fill-6" fill="#FFF"/></g></g></g></g></svg>