<?xml version="1.0" encoding="UTF-8"?>
<svg width="1205px" height="19px" viewBox="0 0 1205 19" version="1.1" xmlns="http://www.w3.org/2000/svg" xmlns:xlink="http://www.w3.org/1999/xlink">
    <title>Group 3</title>
    <defs>
        <polygon id="path-1" points="0 0.000693108194 18.8978137 0.000693108194 18.8978137 1204.68972 0 1204.68972"></polygon>
    </defs>
    <g id="Page-1" stroke="none" stroke-width="1" fill="none" fill-rule="evenodd">
        <g id="About-Us" transform="translate(0.000000, -597.000000)">
            <g id="Group-3" transform="translate(602.500000, 606.500000) rotate(90.000000) translate(-602.500000, -606.500000) translate(593.000000, 4.000000)">
                <mask id="mask-2" fill="white">
                    <use xlink:href="#path-1"></use>
                </mask>
                <g id="Clip-2"></g>
                <path d="M4.6810775,2.92661782 C4.13332333,21.8219894 3.68650667,40.4467643 4.95428167,59.2895628 C5.43743583,66.4611449 5.9084775,73.6342733 6.42662333,80.8012166 C6.6110025,83.343278 6.76173583,85.8930708 6.97976083,88.4304934 C7.05378167,89.3025875 7.1520275,92.7121042 7.20720667,90.4375468 C6.9501525,101.146986 5.19114833,111.836323 4.62993583,122.531846 C2.70001083,159.255665 5.60701083,196.409347 5.524915,233.160999 C5.50338167,242.993705 4.99869417,253.001139 5.573365,262.812197 C6.2314775,274.042728 7.92588167,285.203676 8.48574833,296.440392 C8.98909,306.535963 8.65666917,316.769152 8.72799833,326.881732 C8.79394417,336.057275 9.8975275,345.166329 10.6902233,354.293938 C10.9365108,357.118966 11.1814525,359.943994 11.4263942,362.770568 C11.49234,363.528239 11.8543692,367.857784 11.8422567,366.838794 C11.8301442,365.911035 11.6040442,369.526205 11.5367525,370.399845 C11.2837358,373.640819 11.0307192,376.881793 10.7777025,380.122766 C10.0657567,389.230273 9.25018167,398.323864 8.8397025,407.454566 C7.84916917,429.461024 7.7092025,451.02989 7.88012333,473.064182 C7.95414417,482.790195 7.77649417,492.52394 7.70651083,502.249954 C7.689015,504.621926 7.70381917,506.998537 7.65536917,509.372056 C7.60557333,511.81361 7.78456917,508.139682 7.54501083,511.048208 C7.03494,517.250281 6.57197333,523.45854 6.08478167,529.662159 C5.38225667,538.624317 4.83854,546.770047 5.38629417,555.709011 C5.98249833,565.447395 6.88689833,575.225982 7.059165,584.989106 C7.25565667,596.080473 7.8384025,607.382131 7.42792333,618.46422 C7.52886083,615.744338 7.1681775,620.041412 7.08877333,620.792897 C6.768465,623.876152 6.44815667,626.960952 6.1265025,630.045753 L4.087565,649.641583 C3.12125667,658.925365 3.89107333,668.492113 4.0270025,677.817644 C4.06872333,680.617932 4.10909833,683.41822 4.14947333,686.220054 C4.15889417,686.867939 4.18715667,692.134522 4.23829833,689.233726 C4.14947333,694.174047 3.83993167,699.123644 3.64074833,704.060872 C2.85478167,723.554648 2.2424275,743.229338 3.4456025,762.726207 C4.13466917,773.91035 5.30958167,785.369728 6.76711917,796.454909 C7.10896083,799.046451 6.95284417,796.931159 6.913815,797.710477 C6.8128775,799.736086 6.50871917,801.772518 6.30684417,803.788849 C5.62450667,810.626438 4.94216917,817.464026 4.25983167,824.301615 C3.3648525,833.279236 3.60171917,841.689377 3.89241917,850.750496 C4.087565,856.821137 4.27463583,862.891778 4.47785667,868.960872 C4.56264417,871.481286 4.54784,867.829005 4.51688583,869.952029 C4.48189417,872.416777 4.35538583,874.884617 4.27463583,877.349366 C3.57749417,898.621348 3.1952775,919.853128 2.88439,941.13748 C2.59638167,960.682284 2.50217333,979.645691 3.6555525,999.134829 C4.70934,1016.95555 4.91794417,1034.84894 4.74702333,1052.7114 C4.6810775,1059.48714 4.6164775,1066.26288 4.5518775,1073.03707 C4.5276525,1075.46162 4.56937333,1077.89853 4.48189417,1080.31998 C4.39306917,1082.75535 4.77259417,1079.11544 4.23964417,1082.12293 C2.521015,1091.83657 -0.030685,1102.95577 0.000269166667,1112.87662 C0.0325691667,1123.08197 2.13879833,1133.33681 2.61522333,1143.53289 C3.05934833,1153.03933 2.76864833,1162.66638 2.84266917,1172.1852 C2.91534417,1181.70401 2.99071083,1191.22283 3.06204,1200.74164 C3.11183583,1207.43388 11.1383858,1204.82224 11.0939733,1198.83045 C10.951315,1179.76963 11.5502108,1160.50934 10.6552317,1141.47945 C10.4049067,1136.14173 9.74814,1130.78856 9.29594,1125.46941 C9.02408167,1122.264 8.7508775,1119.05704 8.47901917,1115.85163 C8.38481083,1114.74296 8.06854,1110.61752 8.0402775,1111.38601 C7.99451917,1112.58437 8.496515,1108.71871 8.59879833,1108.01979 C9.08060667,1104.69687 9.56376083,1101.3724 10.0455692,1098.04947 C10.8449942,1092.54786 11.9674192,1086.9813 12.4586483,1081.43175 C14.15709,1062.25032 12.8597067,1041.99887 12.63899,1022.70302 C12.4357692,1005.02919 10.1976483,987.347642 10.4950775,969.707839 C10.8557608,948.250304 11.1101233,926.789677 11.4627317,905.332143 C11.4963775,903.348284 11.4008233,906.947991 11.5017608,903.963697 C11.5932775,901.253093 11.6821025,898.540942 11.7709275,895.830338 C11.9956817,889.076248 12.21909,882.322157 12.4424983,875.568067 C12.7480025,866.373969 12.3173358,857.238629 12.0239442,848.042985 C11.8610983,842.920205 11.4411983,837.710835 11.532715,832.584963 C11.4909942,834.956935 11.70229,831.569066 11.807265,830.601103 C12.1289192,827.610625 12.4061608,824.612415 12.7062817,821.618843 C13.599915,812.692249 15.5998233,803.114677 14.9053733,794.121594 C14.04404,782.99157 12.31599,771.923398 11.6323067,760.777912 C10.99169,750.340616 11.2352858,739.739416 11.0509067,729.277379 C11.02399,727.71565 10.9661192,726.149283 10.9688108,724.587554 C10.9661192,727.466702 11.0778233,722.241869 11.1033942,721.584705 C11.3698692,714.748663 11.6269233,707.912621 11.888015,701.076578 C12.2204358,692.378832 12.26754,683.849628 12.12219,675.141057 C12.0131775,668.561695 11.9270442,661.980787 11.7924608,655.399878 C11.7655442,654.043803 11.8785942,651.776977 11.7480483,653.592293 C11.8745567,651.823365 12.1087317,650.057529 12.2890733,648.294786 C13.357665,637.809555 15.1032108,627.120218 15.408715,616.565406 C16.0156858,595.669166 14.5541108,574.658502 13.2338483,553.841122 C13.0763858,551.354726 12.9404567,548.866784 12.7614608,546.381934 C12.5622775,543.620303 12.5878483,547.124142 12.7264692,544.716606 C13.0615817,538.902645 13.6133733,533.093324 14.0574983,527.288641 C14.7452192,518.272363 15.3952567,509.449369 15.441015,500.409897 C15.5500275,479.308004 15.004965,458.206111 15.1301275,437.113495 C15.1166692,439.278268 15.2014567,435.830094 15.2431775,434.885326 C15.3817983,431.761868 15.5204192,428.636865 15.65904,425.513407 C15.9483942,418.998988 16.2377483,412.486115 16.5257567,405.973243 C16.9416192,396.599778 17.8527483,387.249507 18.5754608,377.902328 C19.9562858,360.075426 16.4625025,342.880948 16.3252275,325.074147 C16.2471692,314.963113 16.5728608,304.729925 16.0641358,294.637446 C15.4961942,283.402276 13.7950608,272.242874 13.1302192,261.01389 C12.0374025,242.56075 13.0602358,223.696304 12.6336067,205.164305 C12.21909,187.103917 12.0185608,169.040437 12.0158692,150.972318 C12.0145233,144.20895 12.0131775,137.445582 12.0118317,130.682214 C12.0118317,128.486516 11.9808775,126.28618 12.0104858,124.090482 C12.0441317,121.686038 11.8826317,125.02288 12.1181525,122.278258 C13.0212067,111.745093 14.57699,100.85938 14.633515,90.2751889 C14.730415,71.7292735 11.2473983,53.1988207 11.0038025,34.6080636 C10.8638358,23.906356 10.3026233,13.2324813 9.81946917,2.54469009 C9.64989417,-1.20809769 4.78336083,-0.578767395 4.6810775,2.92661782" id="Fill-1" fill="#FFFFFF" mask="url(#mask-2)"></path>
            </g>
        </g>
    </g>
</svg>