<svg width="1205" height="19" viewBox="0 0 1205 19" version="1.1" xmlns="http://www.w3.org/2000/svg" xmlns:xlink="http://www.w3.org/1999/xlink"><defs><path id="path-1" d="M0 0h18.898v1204.69H0z"/></defs><g id="Page-1" stroke="none" stroke-width="1" fill="none" fill-rule="evenodd"><g id="About-Us" transform="translate(0 -597)"><g id="Group-3" transform="rotate(90 304 901)"><mask id="mask-2" fill="#fff"><use xlink:href="#path-1"/></mask><path d="M4.681 2.927c-.548 18.895-.994 37.52.273 56.363.483 7.171.954 14.344 1.473 21.511.184 2.542.335 5.092.553 7.63.074.872.172 4.281.227 2.007-.257 10.709-2.016 21.398-2.577 32.094-1.93 36.724.977 73.877.895 110.629-.022 9.833-.526 19.84.048 29.651.658 11.23 2.353 22.392 2.913 33.628.503 10.096.17 20.33.242 30.442.066 9.175 1.17 18.284 1.962 27.412.247 2.825.491 5.65.736 8.477.066.757.428 5.087.416 4.068-.012-.928-.238 2.687-.305 3.56l-.76 9.724c-.711 9.107-1.527 18.2-1.937 27.332-.99 22.006-1.13 43.575-.96 65.61.074 9.725-.104 19.459-.173 29.185-.018 2.372-.003 4.749-.052 7.122-.05 2.442.13-1.232-.11 1.676-.51 6.202-.973 12.41-1.46 18.614-.703 8.962-1.246 17.108-.699 26.047.596 9.738 1.5 19.517 1.673 29.28.197 11.091.78 22.393.369 33.475.1-2.72-.26 1.577-.34 2.329l-.961 9.253-2.04 19.596c-.966 9.283-.196 18.85-.06 28.176.042 2.8.082 5.6.122 8.402.01.648.038 5.915.09 3.014-.09 4.94-.4 9.89-.598 14.827-.786 19.494-1.399 39.168-.195 58.665.689 11.184 1.864 22.644 3.321 33.729.342 2.591.186.476.147 1.255-.101 2.026-.405 4.063-.607 6.079L4.26 824.302c-.895 8.977-.658 17.387-.368 26.448.196 6.071.383 12.142.586 18.21.085 2.521.07-1.131.039.992-.035 2.465-.162 4.933-.242 7.397-.698 21.272-1.08 42.504-1.39 63.788-.289 19.545-.383 38.509.77 57.998 1.054 17.82 1.263 35.714 1.092 53.576l-.195 20.326c-.024 2.425.017 4.862-.07 7.283-.089 2.435.29-1.205-.242 1.803-1.719 9.714-4.27 20.833-4.24 30.754.033 10.205 2.139 20.46 2.615 30.656.444 9.506.154 19.133.228 28.652.072 9.519.148 19.038.219 28.557.05 6.692 8.076 4.08 8.032-1.912-.143-19.06.456-38.32-.439-57.35-.25-5.338-.907-10.691-1.36-16.01-.27-3.206-.544-6.413-.816-9.618-.094-1.109-.41-5.234-.439-4.466-.045 1.198.457-2.667.559-3.366l1.447-9.97c.799-5.502 1.921-11.069 2.413-16.618 1.698-19.182.4-39.433.18-58.729-.203-17.674-2.441-35.355-2.144-52.995.36-21.458.615-42.918.968-64.376.033-1.984-.062 1.616.039-1.368.091-2.71.18-5.423.269-8.134.225-6.754.448-13.508.671-20.262.306-9.194-.125-18.33-.418-27.525-.163-5.123-.583-10.332-.491-15.458-.042 2.372.17-1.016.274-1.984.322-2.99.6-5.989.9-8.982.893-8.927 2.893-18.504 2.198-27.497-.861-11.13-2.589-22.199-3.273-33.344-.64-10.437-.397-21.039-.581-31.5-.027-1.562-.085-3.129-.082-4.69-.003 2.879.109-2.346.134-3.003.267-6.836.524-13.672.785-20.508.332-8.698.38-17.227.234-25.936-.109-6.58-.195-13.16-.33-19.741-.026-1.356.087-3.623-.044-1.808.127-1.769.36-3.534.541-5.297 1.069-10.485 2.814-21.175 3.12-31.73.607-20.896-.855-41.906-2.175-62.724-.158-2.486-.294-4.974-.473-7.46-.199-2.76-.173.743-.035-1.664.336-5.814.887-11.624 1.331-17.428.688-9.017 1.338-17.84 1.384-26.88.109-21.101-.436-42.203-.31-63.296-.014 2.165.07-1.283.112-2.228l.416-9.372.867-19.54c.416-9.373 1.327-18.723 2.05-28.07 1.38-17.828-2.113-35.022-2.25-52.829-.079-10.11.247-20.344-.262-30.437-.568-11.235-2.269-22.394-2.934-33.623-1.093-18.453-.07-37.318-.496-55.85a2377.07 2377.07 0 01-.618-54.192l-.004-20.29c0-2.195-.031-4.396-.002-6.592.034-2.404-.127.933.108-1.812.903-10.533 2.459-21.419 2.516-32.003.096-18.546-3.387-37.076-3.63-55.667-.14-10.702-.701-21.376-1.185-32.063-.17-3.753-5.036-3.124-5.138.382" id="Fill-1" fill="#FFF" mask="url(#mask-2)"/></g></g></g></svg>