<svg width="708" height="286" viewBox="0 0 708 286" version="1.1" xmlns="http://www.w3.org/2000/svg" xmlns:xlink="http://www.w3.org/1999/xlink"><defs><filter x="-21.6%" y="-93.3%" width="143.2%" height="286.6%" filterUnits="objectBoundingBox" id="filter-1"><feOffset dx="0" dy="0" in="SourceAlpha" result="shadowOffsetOuter1"/><feGaussianBlur stdDeviation="39.5" in="shadowOffsetOuter1" result="shadowBlurOuter1"/><feColorMatrix values="0 0 0 0 1 0 0 0 0 1 0 0 0 0 1 0 0 0 0.496612762 0" type="matrix" in="shadowBlurOuter1" result="shadowMatrixOuter1"/><feMerge><feMergeNode in="shadowMatrixOuter1"/><feMergeNode in="SourceGraphic"/></feMerge></filter><path id="path-2" d="M0 0h43.116v67.269H0z"/></defs><g id="Page-1" stroke="none" stroke-width="1" fill="none" fill-rule="evenodd"><g id="Home-Logo-1---d-Copy-22" transform="translate(-246 -191)"><g id="Group-107" filter="url(#filter-1)" transform="translate(325.702 270.175)"><g id="Group-105"><path d="M7.076 32.171c0 5.223.472 9.736 1.415 13.539.944 3.808 2.186 6.934 3.727 9.387 1.54 2.453 3.286 4.264 5.236 5.425 1.948 1.166 3.963 1.746 6.038 1.746 2.956 0 5.755-1.13 8.397-3.394 2.642-2.267 4.623-5.535 5.942-9.812l.662.283c-.629 2.893-1.54 5.438-2.736 7.64-1.197 2.2-2.58 4.059-4.151 5.566-1.572 1.51-3.289 2.66-5.142 3.446a14.543 14.543 0 01-5.708 1.177c-2.516 0-5.018-.692-7.5-2.076-2.485-1.381-4.72-3.52-6.699-6.413-1.981-2.893-3.57-6.528-4.767-10.9C.595 43.418 0 38.21 0 32.172c0-4.086.472-8.066 1.413-11.932.943-3.87 2.314-7.299 4.106-10.286 1.79-2.988 4.04-5.391 6.746-7.218C14.97.914 18.052.002 21.511.002c1.256 0 2.372.123 3.35.377.974.252 1.852.55 2.64.894.785.346 1.51.647 2.17.899.661.251 1.275.375 1.84.375.567 0 1.133-.187 1.699-.564.566-.378 1.161-1.038 1.792-1.981h.19l.093 17.074h-.566c-.694-2.136-1.449-4.086-2.264-5.847-.818-1.761-1.745-3.27-2.783-4.531-1.038-1.256-2.235-2.23-3.585-2.925-1.355-.69-2.878-1.038-4.576-1.038-2.327 0-4.387.836-6.18 2.503-1.792 1.667-3.302 3.866-4.528 6.602-1.227 2.736-2.157 5.867-2.784 9.387-.629 3.522-.943 7.17-.943 10.944" id="Fill-1" fill="#313233"/><path d="M54.341.661v.094c-1.132.567-1.732 2.422-1.792 5.567v54.532c.06 3.208.66 5.092 1.792 5.658v.095H44.246v-.095c1.195-.626 1.824-2.639 1.887-6.035V6.79c-.063-3.457-.692-5.47-1.887-6.036V.661h10.095z" id="Fill-3" fill="#313233"/><path d="M76.136 64.533c2.83 0 5.312-.881 7.45-2.642 2.141-1.761 3.918-4.088 5.331-6.982 1.415-2.89 2.485-6.193 3.208-9.906a59.31 59.31 0 001.087-11.369 59.34 59.34 0 00-1.087-11.369c-.723-3.71-1.793-7.01-3.208-9.906-1.413-2.893-3.19-5.22-5.33-6.981-2.139-1.76-4.621-2.642-7.451-2.642h-5.663v61.797h5.663zm0-63.873c4.023 0 7.531.944 10.52 2.83 2.985 1.888 5.485 4.372 7.497 7.456 2.013 3.082 3.54 6.586 4.578 10.518a46.929 46.929 0 011.557 12.029c0 4.09-.49 8.113-1.462 12.076-.977 3.962-2.471 7.487-4.484 10.567-2.013 3.084-4.513 5.582-7.498 7.5-2.988 1.919-6.463 2.91-10.425 2.972H62.17v-.094c1.195-.627 1.826-2.642 1.887-6.038V6.793c-.06-3.457-.692-5.472-1.887-6.038V.66h13.966z" id="Fill-5" fill="#313233"/><path d="M130.006 64.533c1.195 0 2.248-.14 3.16-.423.91-.283 1.73-.82 2.453-1.606.724-.786 1.368-1.9 1.935-3.35.566-1.446 1.069-3.301 1.51-5.566h.093v13.02H107.08v-.094c1.195-.627 1.824-2.642 1.887-6.038V6.793c-.063-3.457-.692-5.472-1.887-6.038V.66h30.662v13.02h-.094c-.44-2.264-.944-4.12-1.51-5.566-.564-1.447-1.213-2.564-1.934-3.347-.723-.789-1.54-1.324-2.453-1.607-.912-.283-1.968-.424-3.16-.424h-13.209V33.21h10.944c2.137 0 3.585-.58 4.34-1.746.755-1.161 1.415-2.844 1.982-5.047h.096v15.755h-.096c-.567-2.264-1.227-3.978-1.982-5.141-.755-1.164-2.203-1.746-4.34-1.746h-10.944v29.248h14.624z" id="Fill-7" fill="#313233"/><path d="M154.253 2.736v31.89h5.663c2.387 0 4.384-.787 5.988-2.36 1.604-1.572 2.8-3.537 3.585-5.896.787-2.359 1.18-4.922 1.18-7.69 0-2.767-.393-5.33-1.18-7.688-.786-2.36-1.98-4.325-3.585-5.897-1.604-1.57-3.6-2.359-5.988-2.359h-5.663zm27.549 61.23c.817 0 1.462-.172 1.934-.52.471-.344.77-.989.896-1.932l.283.094c-.063 1.887-.582 3.35-1.557 4.387-.977 1.038-2.565 1.557-4.764 1.557-2.139 0-3.916-.755-5.33-2.264-1.416-1.51-2.642-3.412-3.68-5.708a58.425 58.425 0 01-2.736-7.406 191.663 191.663 0 00-2.359-7.407c-.786-2.295-1.669-4.198-2.642-5.707-.977-1.51-2.154-2.265-3.538-2.265h-2.028c-.66 0-1.337-.031-2.028-.094v23.398c0 3.648.626 5.786 1.886 6.415v.095H145.95v-.095c1.195-.566 1.824-2.579 1.887-6.038V6.793c-.063-3.457-.692-5.472-1.887-6.038V.661h13.966c3.645 0 6.696.817 9.149 2.453 2.453 1.635 4.34 3.71 5.66 6.224 1.322 2.518 2.06 5.254 2.218 8.21.157 2.957-.27 5.756-1.274 8.397-1.006 2.642-2.579 4.954-4.717 6.935-2.14 1.981-4.875 3.192-8.208 3.632 1.887.883 3.49 2.17 4.811 3.868A30.546 30.546 0 01171 45.994a77.766 77.766 0 012.642 6.227A98.681 98.681 0 00176 58.023c.787 1.761 1.636 3.192 2.548 4.29.912 1.104 1.994 1.654 3.255 1.654z" id="Fill-9" fill="#313233"/><path d="M218.69 32.171c0 5.223.472 9.736 1.415 13.539.944 3.808 2.186 6.934 3.727 9.387 1.54 2.453 3.286 4.264 5.236 5.425 1.948 1.166 3.963 1.746 6.038 1.746 2.956 0 5.755-1.13 8.397-3.394 2.642-2.267 4.623-5.535 5.942-9.812l.662.283c-.629 2.893-1.54 5.438-2.736 7.64-1.197 2.2-2.58 4.059-4.15 5.566-1.573 1.51-3.29 2.66-5.143 3.446a14.543 14.543 0 01-5.708 1.177c-2.516 0-5.018-.692-7.5-2.076-2.485-1.381-4.72-3.52-6.699-6.413-1.981-2.893-3.57-6.528-4.767-10.9-1.195-4.368-1.79-9.575-1.79-15.614 0-4.086.472-8.066 1.413-11.932.944-3.87 2.314-7.299 4.106-10.286 1.79-2.988 4.04-5.391 6.746-7.218 2.705-1.821 5.787-2.733 9.246-2.733 1.256 0 2.372.123 3.35.377.974.252 1.853.55 2.641.894.784.346 1.51.647 2.17.899.66.251 1.274.375 1.84.375.566 0 1.132-.187 1.698-.564.566-.378 1.161-1.038 1.793-1.981h.188l.095 17.074h-.567c-.694-2.136-1.448-4.086-2.264-5.847-.817-1.761-1.745-3.27-2.783-4.531-1.038-1.256-2.235-2.23-3.585-2.925-1.355-.69-2.878-1.038-4.576-1.038-2.327 0-4.387.836-6.18 2.503-1.792 1.667-3.302 3.866-4.528 6.602-1.227 2.736-2.157 5.867-2.783 9.387-.63 3.522-.944 7.17-.944 10.944" id="Fill-11" fill="#313233"/><g id="Group-15" transform="translate(255.106)"><mask id="mask-3" fill="#fff"><use xlink:href="#path-2"/></mask><path d="M21.51 64.533c2.389 0 4.498-.881 6.322-2.642 1.824-1.761 3.35-4.088 4.578-6.982 1.224-2.89 2.136-6.193 2.734-9.906.597-3.711.896-7.5.896-11.369 0-3.868-.299-7.655-.896-11.369-.598-3.71-1.51-7.01-2.734-9.906-1.229-2.893-2.754-5.22-4.578-6.981-1.824-1.76-3.933-2.642-6.321-2.642-2.39 0-4.497.883-6.319 2.642-1.826 1.76-3.338 4.088-4.53 6.981-1.196 2.896-2.092 6.196-2.69 9.906a71.427 71.427 0 00-.896 11.37c0 3.867.299 7.657.896 11.368.598 3.713 1.494 7.015 2.69 9.906 1.192 2.894 2.704 5.22 4.53 6.982 1.822 1.761 3.929 2.642 6.319 2.642M21.51 0c3.585 0 6.73.959 9.435 2.877 2.702 1.919 4.953 4.468 6.745 7.642 1.793 3.177 3.145 6.78 4.057 10.803a55.56 55.56 0 011.368 12.312 55.53 55.53 0 01-1.368 12.312c-.912 4.028-2.264 7.627-4.057 10.803-1.792 3.176-4.043 5.724-6.745 7.644-2.705 1.919-5.85 2.876-9.435 2.876-3.585 0-6.714-.957-9.388-2.876-2.673-1.92-4.906-4.468-6.698-7.644-1.793-3.176-3.147-6.775-4.057-10.803A55.53 55.53 0 010 33.634c0-4.183.456-8.284 1.368-12.312.91-4.023 2.264-7.626 4.057-10.803 1.792-3.174 4.025-5.723 6.698-7.642C14.797.96 17.926 0 21.511 0" id="Fill-13" fill="#313233" mask="url(#mask-3)"/></g><path d="M311.619 32.171c0 5.223.472 9.736 1.415 13.539.944 3.808 2.186 6.934 3.727 9.387 1.54 2.453 3.286 4.264 5.236 5.425 1.948 1.166 3.963 1.746 6.038 1.746 2.956 0 5.755-1.13 8.397-3.394 2.642-2.267 4.623-5.535 5.942-9.812l.662.283c-.629 2.893-1.54 5.438-2.736 7.64-1.197 2.2-2.58 4.059-4.151 5.566-1.572 1.51-3.289 2.66-5.142 3.446a14.543 14.543 0 01-5.708 1.177c-2.516 0-5.018-.692-7.5-2.076-2.485-1.381-4.72-3.52-6.699-6.413-1.981-2.893-3.57-6.528-4.767-10.9-1.195-4.368-1.79-9.575-1.79-15.614 0-4.086.472-8.066 1.413-11.932.943-3.87 2.314-7.299 4.106-10.286 1.79-2.988 4.04-5.391 6.746-7.218 2.705-1.821 5.787-2.733 9.246-2.733 1.256 0 2.372.123 3.35.377.974.252 1.852.55 2.64.894.785.346 1.51.647 2.17.899.661.251 1.275.375 1.84.375.567 0 1.133-.187 1.699-.564.566-.378 1.161-1.038 1.792-1.981h.19l.093 17.074h-.566c-.694-2.136-1.448-4.086-2.264-5.847-.818-1.761-1.745-3.27-2.783-4.531-1.038-1.256-2.235-2.23-3.585-2.925-1.355-.69-2.878-1.038-4.576-1.038-2.327 0-4.387.836-6.18 2.503-1.792 1.667-3.302 3.866-4.528 6.602-1.227 2.736-2.157 5.867-2.784 9.387-.629 3.522-.943 7.17-.943 10.944" id="Fill-16" fill="#313233"/><path d="M385.678 63.967c.818 0 1.462-.173 1.934-.52.472-.345.77-.99.899-1.933l.283.094c-.065 1.887-.584 3.35-1.56 4.387-.974 1.038-2.562 1.557-4.764 1.557-1.95 0-3.648-.865-5.092-2.595-1.45-1.73-2.736-3.9-3.87-6.51-1.133-2.608-2.14-5.44-3.02-8.49a262.25 262.25 0 00-2.594-8.492c-.85-2.61-1.73-4.78-2.642-6.51-.912-1.73-1.932-2.594-3.066-2.594-.566 0-1.1.22-1.604.66l-3.397 5.284h-.094v22.548c.063 3.208.66 5.095 1.793 5.661v.094h-10.095v-.094c1.195-.629 1.826-2.642 1.887-6.038V6.793c-.061-3.457-.692-5.472-1.887-6.038V.66h10.095v.095c-1.132.566-1.73 2.421-1.793 5.566v28.21l18.022-27.36c1.133-1.888 1.51-3.35 1.133-4.388-.378-1.038-.912-1.714-1.604-2.028V.66h9.904v.095c-.566.314-1.478.849-2.736 1.604-1.258.754-2.485 1.95-3.677 3.585l-15.664 24.152c.818-.503 1.73-.754 2.738-.754 1.698 0 3.206.849 4.526 2.547 1.321 1.698 2.532 3.839 3.635 6.416a102.963 102.963 0 013.111 8.35 250.8 250.8 0 002.88 8.349c.941 2.579 1.916 4.717 2.923 6.415 1.006 1.699 2.138 2.548 3.396 2.548" id="Fill-18" fill="#313233"/><path d="M425.21.661v13.02h-.094c-.44-2.264-.943-4.12-1.51-5.569-.566-1.444-1.21-2.56-1.934-3.347-.723-.786-1.556-1.323-2.5-1.606-.943-.283-2.012-.422-3.208-.422h-5.094v57.457c0 3.585.597 5.692 1.792 6.318v.095h-10.095v-.095c1.193-.626 1.822-2.639 1.887-6.035V2.737H398.7c-1.195 0-2.25.139-3.16.422-.912.283-1.73.82-2.453 1.606-.724.786-1.353 1.903-1.887 3.347-.535 1.45-1.054 3.305-1.557 5.569h-.094V.66h35.662z" id="Fill-20" fill="#313233"/><path d="M444.175 44.814l-7.737-28.87-6.981 28.87h14.718zm10.755 16.04c.88 3.145 2.013 5.032 3.397 5.66v.093h-10.19v-.094c.692-.312 1.007-.973.946-1.981-.065-1.004-.348-2.482-.851-4.432l-3.492-13.21h-15.85l-3.11 13.21c-.254 1.132-.301 2.06-.144 2.78.155.724.427 1.34.802 1.84.377.506.817.883 1.32 1.133.504.254.913.471 1.227.66v.094h-9.906v-.094c.626-.312 1.4-.894 2.311-1.743.912-.85 1.651-2.28 2.217-4.293L438.137.096h.849l.094.943 15.85 59.816z" id="Fill-22" fill="#313233"/><path d="M472.572.661v.094c-1.132.567-1.732 2.422-1.792 5.567v54.532c.06 3.208.66 5.092 1.792 5.658v.095h-10.095v-.095c1.195-.626 1.824-2.639 1.887-6.035V6.79c-.063-3.457-.692-5.47-1.887-6.036V.661h10.095z" id="Fill-24" fill="#313233"/><path d="M501.913 64.533c1.192 0 2.248-.14 3.16-.423.91-.283 1.73-.82 2.453-1.606.721-.786 1.368-1.9 1.934-3.35.566-1.446 1.07-3.301 1.51-5.566h.094v13.02h-30.662v-.094c1.195-.566 1.824-2.579 1.887-6.038V6.793c-.063-3.457-.692-5.472-1.887-6.038V.66h10.19v.095c-1.261.63-1.888 2.706-1.888 6.226v57.552h13.209z" id="Fill-26" fill="#313233"/><path d="M522.101 13.398c0 2.453.66 4.685 1.981 6.696 1.321 2.015 2.988 3.949 4.999 5.802a114.893 114.893 0 006.464 5.52 67.668 67.668 0 016.463 5.851 30.552 30.552 0 015 6.79c1.321 2.456 1.982 5.255 1.982 8.4 0 2.013-.443 3.915-1.321 5.708a15.397 15.397 0 01-3.585 4.715c-1.51 1.354-3.305 2.424-5.378 3.21-2.076.786-4.308 1.177-6.699 1.177-1.257 0-2.453-.124-3.587-.377a29.62 29.62 0 01-3.205-.894 48.839 48.839 0 00-2.88-.897c-.912-.251-1.777-.377-2.593-.377a4.67 4.67 0 00-2.266.566c-.69.377-1.384 1.038-2.073 1.979h-.19l-.093-17.074h.566c.691 2.138 1.601 4.088 2.736 5.847 1.132 1.763 2.419 3.273 3.868 4.53 1.446 1.26 3.003 2.234 4.67 2.925 1.665.692 3.35 1.038 5.047 1.038 1.133 0 2.28-.251 3.444-.755a11.125 11.125 0 003.208-2.125c.975-.91 1.777-2.026 2.403-3.347.632-1.323.946-2.799.946-4.434 0-2.516-.66-4.843-1.983-6.982-1.319-2.138-2.988-4.214-4.998-6.226a109.446 109.446 0 00-6.463-5.944 91 91 0 01-6.463-6.038c-2.013-2.076-3.68-4.246-5.002-6.512a14.364 14.364 0 01-1.98-7.357c0-2.013.313-3.916.944-5.708a13.721 13.721 0 012.783-4.72c1.227-1.35 2.75-2.419 4.576-3.205C525.244.394 527.353 0 529.743 0c1.258 0 2.359.126 3.302.378.944.251 1.793.55 2.548.896.754.346 1.43.647 2.028.896.598.252 1.18.378 1.745.378.564 0 1.117-.189 1.652-.566.532-.378 1.116-1.038 1.745-1.982h.283l.094 17.077h-.66c-.63-2.136-1.337-4.088-2.123-5.85-.788-1.76-1.667-3.27-2.642-4.528-.974-1.258-2.122-2.233-3.443-2.925-1.321-.692-2.83-1.038-4.529-1.038-2.201 0-4.027.96-5.472 2.878-1.449 1.92-2.17 4.513-2.17 7.784" id="Fill-28" fill="#313233"/><path d="M73.275 107.965l-3.502-13.06-3.156 13.06h6.658zm4.865 7.254c.398 1.424.91 2.278 1.537 2.563v.043h-4.61v-.043c.313-.142.454-.44.425-.896-.027-.454-.155-1.124-.384-2.006l-1.58-5.976h-7.167l-1.409 5.976c-.114.512-.137.932-.063 1.26.07.326.191.602.362.831.17.227.368.4.595.512.23.115.414.214.555.299v.043H61.92v-.043c.285-.142.635-.407 1.046-.789.414-.384.748-1.03 1.002-1.943l6.575-27.315h.384l.043.427 7.17 27.057z" id="Fill-30" fill="#313233"/><path d="M92.566 95.929c.625-.454.811-1.11.555-1.964-.256-.853-.883-1.763-1.878-2.731l2.177-1.11c.795 1.195 1.116 2.37.961 3.52-.157 1.155-.647 2.044-1.473 2.669l-.342-.384zm1.92 2.432a.464.464 0 01.365.063c.098.074.148.18.148.322v19.078c0 1.424-.142 2.648-.425 3.67-.285 1.025-.72 1.894-1.305 2.604a7.13 7.13 0 01-2.197 1.772c-.882.47-1.92.845-3.115 1.13l-.086-.299c.91-.37 1.665-.81 2.262-1.323a5.829 5.829 0 001.431-1.835c.355-.71.602-1.53.746-2.453.142-.926.213-2.013.213-3.266v-16.39c0-.795-.065-1.33-.19-1.599-.129-.272-.35-.478-.66-.62v-.043l2.814-.81z" id="Fill-32" fill="#313233"/><path d="M105.752 117.183c.969 0 1.78-.44 2.433-1.323.654-.88 1.146-1.983 1.471-3.309.328-1.32.492-2.75.492-4.288 0-1.534-.164-2.965-.492-4.288-.325-1.323-.817-2.426-1.47-3.309-.655-.88-1.465-1.32-2.434-1.32-.968 0-1.77.44-2.41 1.32-.64.883-1.125 1.986-1.453 3.309-.326 1.323-.488 2.754-.488 4.288 0 1.539.162 2.967.488 4.288.328 1.326.813 2.429 1.453 3.31.64.882 1.442 1.322 2.41 1.322m0-18.822c1.622 0 2.966.492 4.035 1.474 1.067.981 1.862 2.206 2.388 3.67.528 1.465.797 3.058.813 4.78.013 1.723-.252 3.316-.79 4.78-.542 1.465-1.344 2.69-2.411 3.671-1.07.982-2.413 1.472-4.035 1.472-1.592 0-2.931-.49-4.012-1.472-1.082-.981-1.893-2.206-2.432-3.67-.54-1.465-.805-3.058-.791-4.78.016-1.723.285-3.316.813-4.78.526-1.465 1.328-2.69 2.41-3.671 1.08-.982 2.42-1.474 4.012-1.474" id="Fill-34" fill="#313233"/><path d="M132.3 115.477h.171c0 .882-.233 1.543-.703 1.985-.47.44-1.004.66-1.602.66-1.65 0-2.518-.938-2.603-2.816-.568.883-1.388 1.572-2.453 2.07-1.07.497-2.157.747-3.266.747a6.417 6.417 0 01-1.964-.3 4.391 4.391 0 01-1.664-.96c-.483-.439-.874-1.01-1.173-1.708-.3-.694-.449-1.527-.449-2.495v-11.31c-.03-.769-.106-1.286-.236-1.557a1.293 1.293 0 00-.618-.62v-.086l2.775-.768c.143-.056.263-.043.361.043.1.085.15.2.15.341v13.957c0 1.48.365 2.54 1.088 3.18a3.73 3.73 0 002.54.96c.513 0 1.018-.077 1.517-.236a6.131 6.131 0 001.429-.66 4.968 4.968 0 001.195-1.045 4.4 4.4 0 00.768-1.346V101.35c0-.768-.072-1.285-.213-1.556a1.426 1.426 0 00-.64-.62v-.086l2.816-.768c.142-.056.263-.043.364.043a.43.43 0 01.148.341v15.75c0 .626.1 1.116.3 1.47.2.358.538.535 1.023.535.454 0 .769-.326.94-.981" id="Fill-36" fill="#313233"/><path d="M138.02 101.136c.514-.882 1.172-1.543 1.985-1.985a5.324 5.324 0 012.581-.66c1.222 0 2.377.354 3.457 1.066l-1.323 1.878c-.483-.512-.981-.89-1.494-1.13a3.562 3.562 0 00-1.536-.364c-.768 0-1.478.263-2.134.789-.654.528-1.168 1.29-1.537 2.284v12.079c0 1.595.286 2.547.854 2.86v.042h-4.14v-.043c.54-.285.824-1.195.854-2.731v-13.615c-.03-.798-.108-1.33-.234-1.602a1.313 1.313 0 00-.62-.618v-.042l2.305-.64.47-.171a.455.455 0 01.363.063c.099.072.148.177.148.321v2.22z" id="Fill-38" fill="#313233"/><path d="M162.132 115.477c.03 1.253.3 2.019.811 2.304v.043h-4.137v-.043c.566-.285.851-1.251.851-2.902v-11.14c0-1.48-.364-2.538-1.087-3.18a3.717 3.717 0 00-2.54-.957c-.51 0-1.018.076-1.517.233a6.166 6.166 0 00-1.427.66 4.6 4.6 0 00-1.174 1.047c-.328.412-.578.86-.748 1.346l-.04-.045v12.164c.024 1.566.31 2.489.853 2.774v.043h-4.14v-.043c.568-.312.853-1.264.853-2.86v-13.486c-.029-.796-.107-1.33-.235-1.6a1.303 1.303 0 00-.618-.62v-.042l2.302-.64.47-.171c.144-.059.263-.043.364.042.099.086.15.2.15.342v2.347c.569-.88 1.386-1.572 2.45-2.069a7.738 7.738 0 013.31-.748c.683 0 1.33.101 1.94.301.614.196 1.162.51 1.645.94.485.424.874.972 1.175 1.641.299.67.46 1.472.49 2.41v11.909z" id="Fill-40" fill="#313233"/><path d="M168.58 108.264c0 .656.042 1.264.128 1.835a8.11 8.11 0 013.05-2.581c1.238-.611 2.795-1.004 4.675-1.173a31.748 31.748 0 00-.193-2.37 10.366 10.366 0 00-.533-2.306c-.256-.697-.606-1.272-1.046-1.728-.44-.454-1.018-.683-1.73-.683-.71 0-1.343.263-1.898.79-.555.527-1.009 1.21-1.366 2.05-.357.837-.627 1.799-.811 2.88a19.547 19.547 0 00-.276 3.286m.424 3.457c.23.883.542 1.637.94 2.262.4.627.846 1.139 1.345 1.536.498.398 1.024.69 1.579.874a5.11 5.11 0 001.644.279c.91 0 1.757-.247 2.539-.748.781-.497 1.33-1.2 1.644-2.112l.683.342c-.515 1.31-1.317 2.304-2.413 2.987a6.612 6.612 0 01-3.565 1.025c-.936 0-1.864-.2-2.774-.596-.91-.4-1.725-1.006-2.453-1.815-.725-.81-1.316-1.835-1.772-3.073-.454-1.237-.68-2.711-.68-4.418 0-1.254.147-2.469.446-3.648.301-1.18.748-2.233 1.343-3.159a7.3 7.3 0 012.262-2.241c.913-.569 1.964-.854 3.159-.854 1.112 0 2.071.243 2.882.725a5.947 5.947 0 012.006 1.986c.528.84.916 1.809 1.175 2.903a15.03 15.03 0 01.384 3.434h-2.307c-2.105.144-3.796.562-5.077 1.26-1.283.697-2.278 1.714-2.99 3.05" id="Fill-42" fill="#313233"/><path d="M195.937 98.662v.043c-.229.141-.514.37-.856.68-.339.315-.667.84-.98 1.58-.257.768-.55 1.68-.875 2.731a219.872 219.872 0 01-1.067 3.331 508.789 508.789 0 00-1.173 3.606c-.4 1.237-.784 2.433-1.154 3.585-.369 1.152-.71 2.22-1.025 3.2-.312.983-.584 1.814-.808 2.499-.4 1.363-.876 2.48-1.431 3.35-.555.866-1.088 1.556-1.602 2.07-.568.598-1.15 1.067-1.748 1.409l-1.664-2.39a13.142 13.142 0 002.388-1.067 10.18 10.18 0 001.9-1.517c.611-.61 1.06-1.372 1.343-2.284.115-.312.23-.647.344-1.002.112-.357.24-.748.384-1.173l-5.85-15.749c-.311-.856-.617-1.51-.916-1.963-.298-.456-.606-.755-.916-.896v-.088h4.31v.088c-.514.256-.456 1.208.171 2.86l4.396 11.862-.045.216c.344-1.024.69-2.094 1.047-3.203.355-1.108.705-2.188 1.045-3.242.341-1.053.67-2.055.984-3.01a485.2 485.2 0 01.851-2.581h-.04c.168-.483.24-.899.213-1.238-.03-.343-.108-.626-.236-.853a1.673 1.673 0 00-.447-.535c-.17-.128-.33-.22-.47-.276v-.043h3.927z" id="Fill-44" fill="#313233"/><path d="M215.27 117.183c.968 0 1.78-.44 2.433-1.323.653-.88 1.145-1.983 1.471-3.309.328-1.32.492-2.75.492-4.288 0-1.534-.164-2.965-.492-4.288-.326-1.323-.818-2.426-1.471-3.309-.654-.88-1.465-1.32-2.433-1.32-.968 0-1.77.44-2.41 1.32-.64.883-1.126 1.986-1.454 3.309-.325 1.323-.487 2.754-.487 4.288 0 1.539.162 2.967.487 4.288.328 1.326.813 2.429 1.454 3.31.64.882 1.442 1.322 2.41 1.322m0-18.822c1.622 0 2.965.492 4.034 1.474 1.067.981 1.863 2.206 2.388 3.67.528 1.465.798 3.058.813 4.78.014 1.723-.251 3.316-.79 4.78-.542 1.465-1.344 2.69-2.41 3.671-1.07.982-2.413 1.472-4.035 1.472-1.593 0-2.931-.49-4.012-1.472-1.083-.981-1.894-2.206-2.433-3.67-.539-1.465-.804-3.058-.79-4.78.015-1.723.285-3.316.813-4.78.525-1.465 1.327-2.69 2.41-3.671 1.08-.982 2.42-1.474 4.012-1.474" id="Fill-46" fill="#313233"/><path d="M227.092 88.63c-.569 0-1.045.25-1.431.748-.384.499-.654 1.117-.809 1.856-.157.74-.193 1.545-.108 2.41a6.36 6.36 0 00.726 2.415 5.307 5.307 0 001.667 1.855c.71.497 1.62.748 2.729.748h1.067v.809h-2.988v15.536c.03 1.565.315 2.49.854 2.776v.04h-4.14v-.04c.57-.285.854-1.238.854-2.862v-15.45h-2.262v-.809h3.627c-1.05-.314-1.913-.797-2.58-1.453-.67-.654-1.162-1.386-1.472-2.197a5.978 5.978 0 01-.407-2.498 5.41 5.41 0 01.64-2.345 4.77 4.77 0 011.622-1.752c.697-.454 1.557-.68 2.582-.68.939 0 1.877.262 2.816.788.94.525 1.737 1.428 2.393 2.709l-2.262 1.621c-.43-1.478-.926-2.554-1.494-3.22-.57-.67-1.11-1.005-1.624-1.005" id="Fill-48" fill="#313233"/><path d="M246.083 108.264c0 1.538.17 2.846.514 3.926.34 1.08.78 1.964 1.32 2.647.542.682 1.16 1.181 1.859 1.493.696.313 1.386.47 2.068.47.969 0 1.858-.27 2.67-.811a4.204 4.204 0 001.684-2.177l.685.342c-.514 1.31-1.319 2.304-2.415 2.987a6.604 6.604 0 01-3.563 1.025c-.939 0-1.864-.2-2.774-.596-.91-.4-1.727-1.006-2.455-1.815-.723-.81-1.316-1.835-1.77-3.073-.456-1.237-.68-2.711-.68-4.418 0-1.65.224-3.093.68-4.333.454-1.236 1.047-2.274 1.77-3.114.728-.838 1.552-1.467 2.478-1.878a6.785 6.785 0 012.794-.62c1.195 0 2.318.315 3.372.94 1.053.626 1.92 1.578 2.603 2.859l-2.262 1.622c-.397-1.451-.995-2.568-1.792-3.352-.798-.782-1.606-1.172-2.433-1.172-.541 0-1.074.18-1.6.534-.527.355-.997.903-1.408 1.642-.413.742-.739 1.678-.982 2.817-.242 1.139-.363 2.491-.363 4.055" id="Fill-50" fill="#313233"/><path d="M262.643 101.136c.514-.882 1.172-1.543 1.986-1.985a5.324 5.324 0 012.58-.66c1.223 0 2.377.354 3.458 1.066l-1.323 1.878c-.483-.512-.982-.89-1.494-1.13a3.562 3.562 0 00-1.537-.364c-.768 0-1.478.263-2.134.789-.653.528-1.168 1.29-1.536 2.284v12.079c0 1.595.285 2.547.853 2.86v.042h-4.14v-.043c.54-.285.825-1.195.854-2.731v-13.615c-.03-.798-.108-1.33-.234-1.602a1.313 1.313 0 00-.62-.618v-.042l2.305-.64.47-.171a.455.455 0 01.364.063c.098.072.148.177.148.321v2.22z" id="Fill-52" fill="#313233"/><path d="M274.127 108.264c0 .656.042 1.264.128 1.835a8.11 8.11 0 013.05-2.581c1.238-.611 2.795-1.004 4.675-1.173a31.748 31.748 0 00-.193-2.37 10.366 10.366 0 00-.533-2.306c-.256-.697-.606-1.272-1.046-1.728-.44-.454-1.018-.683-1.73-.683-.71 0-1.343.263-1.898.79-.555.527-1.009 1.21-1.366 2.05-.357.837-.627 1.799-.811 2.88a19.547 19.547 0 00-.276 3.286m.424 3.457c.23.883.542 1.637.94 2.262.4.627.846 1.139 1.345 1.536.498.398 1.024.69 1.579.874a5.11 5.11 0 001.644.279c.91 0 1.757-.247 2.539-.748.781-.497 1.33-1.2 1.644-2.112l.683.342c-.515 1.31-1.316 2.304-2.413 2.987a6.612 6.612 0 01-3.565 1.025c-.936 0-1.864-.2-2.774-.596-.91-.4-1.725-1.006-2.453-1.815-.725-.81-1.316-1.835-1.772-3.073-.454-1.237-.68-2.711-.68-4.418 0-1.254.147-2.469.446-3.648.301-1.18.748-2.233 1.343-3.159a7.3 7.3 0 012.263-2.241c.912-.569 1.963-.854 3.158-.854 1.112 0 2.071.243 2.882.725a5.947 5.947 0 012.006 1.986c.528.84.916 1.809 1.175 2.903a15.03 15.03 0 01.384 3.434h-2.307c-2.105.144-3.796.562-5.077 1.26-1.283.697-2.278 1.714-2.99 3.05" id="Fill-54" fill="#313233"/><path d="M297.384 106.728v-1.087c0-.328-.016-.647-.043-.961-.37.768-.974 1.437-1.812 2.003-.84.57-1.687 1.175-2.54 1.815-.855.64-1.603 1.38-2.24 2.22-.64.84-.962 1.914-.962 3.223 0 .683.213 1.215.64 1.6.427.384.966.577 1.622.577.568 0 1.16-.17 1.77-.512.613-.342 1.189-.874 1.73-1.602.541-.726.982-1.671 1.323-2.837.341-1.168.512-2.577.512-4.225v-.214zm4.908 8.75c0 .88-.235 1.543-.705 1.983-.47.443-.986.66-1.557.66-1.707 0-2.59-1.037-2.646-3.113v-2.691c-.285 1.024-.663 1.9-1.132 2.626-.47.726-.98 1.33-1.534 1.815-.557.485-1.14.84-1.752 1.065a5.034 5.034 0 01-1.77.344c-1.081 0-2.02-.371-2.817-1.11-.796-.74-1.195-1.777-1.195-3.116v-.045c0-1.049.27-1.963.81-2.73a9.413 9.413 0 011.984-2.05 22.087 22.087 0 012.498-1.642 25.56 25.56 0 002.412-1.537c.726-.525 1.288-1.087 1.685-1.687.398-.595.497-1.307.299-2.134-.283-.91-.667-1.547-1.152-1.918-.483-.368-1.083-.555-1.793-.555-.624 0-1.323.12-2.091.362-.769.242-1.622.564-2.561.961l-.256-.557c1.136-.653 2.212-1.157 3.223-1.512 1.009-.359 1.941-.536 2.795-.536 1.45 0 2.61.613 3.48 1.837.866 1.224 1.313 3.273 1.343 6.146v8.107c0 .629.105 1.119.319 1.474.215.357.561.534 1.046.534.427 0 .74-.341.94-1.024l.127.043z" id="Fill-56" fill="#313233"/><path d="M313.903 114.623c-.486 1.168-1.18 2.035-2.092 2.604-.912.568-1.85.853-2.817.853a3.953 3.953 0 01-2.646-.981c-.768-.654-1.152-1.665-1.152-3.03V99.471h-1.323v-.81h1.323v-5.507l2.006-.555a.293.293 0 01.319.02c.1.072.15.18.15.321v5.722h3.884v.809h-3.884v13.401c0 1.31.263 2.269.789 2.882.528.611 1.145.917 1.857.917.569 0 1.146-.193 1.73-.578.582-.384 1.072-.945 1.471-1.684l.385.213z" id="Fill-58" fill="#313233"/><path d="M319.11 115.007c0 .827.07 1.458.214 1.9.141.44.355.733.64.874v.043h-4.14v-.043c.54-.285.825-1.235.854-2.86v-13.486c-.03-.796-.108-1.33-.234-1.6a1.308 1.308 0 00-.62-.62v-.042l2.305-.64.47-.171c.14-.059.262-.043.363.042a.43.43 0 01.149.342v16.261zm-2.387-19.078c.595-.454.772-1.11.532-1.963-.245-.854-.863-1.764-1.858-2.732l2.134-1.11c.825 1.195 1.16 2.37 1.002 3.52-.155 1.155-.647 2.042-1.471 2.669l-.34-.384z" id="Fill-60" fill="#313233"/><path d="M337.377 98.662v.043c-.256.141-.57.388-.939.745-.37.358-.712.946-1.024 1.773l-5.506 16.816h-.384l-6.234-17.03c-.283-.685-.561-1.201-.83-1.559-.272-.357-.535-.604-.79-.745v-.088h4.312v.088c-.515.256-.456 1.208.17 2.86l4.311 11.777 3.927-11.735c.168-.483.24-.899.213-1.238-.03-.343-.108-.626-.236-.853a1.673 1.673 0 00-.447-.535c-.17-.128-.33-.22-.47-.276v-.043h3.927z" id="Fill-62" fill="#313233"/><path d="M342.412 115.007c0 .827.07 1.458.213 1.9.142.44.355.733.64.874v.043h-4.14v-.043c.54-.285.825-1.235.854-2.86v-13.486c-.03-.796-.108-1.33-.234-1.6a1.308 1.308 0 00-.62-.62v-.042l2.305-.64.47-.171c.141-.059.262-.043.364.042a.43.43 0 01.148.342v16.261zm-2.388-19.078c.595-.454.773-1.11.532-1.963-.245-.854-.862-1.764-1.857-2.732l2.134-1.11c.824 1.195 1.159 2.37 1.001 3.52-.155 1.155-.646 2.042-1.47 2.669l-.34-.384z" id="Fill-64" fill="#313233"/><path d="M355.857 114.623c-.485 1.168-1.18 2.035-2.091 2.604-.912.568-1.851.853-2.817.853a3.953 3.953 0 01-2.646-.981c-.769-.654-1.153-1.665-1.153-3.03V99.471h-1.323v-.81h1.323v-5.507l2.006-.555a.293.293 0 01.32.02c.1.072.15.18.15.321v5.722h3.884v.809h-3.884v13.401c0 1.31.262 2.269.788 2.882.528.611 1.146.917 1.858.917.568 0 1.145-.193 1.73-.578.581-.384 1.071-.945 1.47-1.684l.385.213z" id="Fill-66" fill="#313233"/><path d="M371.904 98.662v.043c-.23.141-.515.37-.856.68-.34.315-.667.84-.98 1.58-.258.768-.55 1.68-.876 2.731a219.872 219.872 0 01-1.067 3.331 508.789 508.789 0 00-1.172 3.606c-.4 1.237-.784 2.433-1.155 3.585l-1.024 3.2a285.69 285.69 0 01-.809 2.499c-.4 1.363-.876 2.48-1.43 3.35-.556.866-1.088 1.556-1.602 2.07-.569.598-1.15 1.067-1.748 1.409l-1.665-2.39a13.142 13.142 0 002.388-1.067 10.18 10.18 0 001.9-1.517c.612-.61 1.06-1.372 1.344-2.284.115-.312.23-.647.344-1.002.112-.357.24-.748.384-1.173l-5.85-15.749c-.312-.856-.617-1.51-.916-1.963-.299-.456-.607-.755-.917-.896v-.088h4.311v.088c-.514.256-.456 1.208.17 2.86l4.397 11.862-.045.216c.344-1.024.69-2.094 1.047-3.203.355-1.108.705-2.188 1.044-3.242.342-1.053.67-2.055.984-3.01a485.2 485.2 0 01.851-2.581h-.04c.169-.483.24-.899.213-1.238-.029-.343-.107-.626-.235-.853a1.672 1.672 0 00-.447-.535 2.127 2.127 0 00-.47-.276v-.043h3.927z" id="Fill-68" fill="#313233"/><path d="M393.755 106.728v-1.087c0-.328-.016-.647-.043-.961-.37.768-.974 1.437-1.812 2.003-.84.57-1.687 1.175-2.54 1.815-.855.64-1.603 1.38-2.24 2.22-.64.84-.962 1.914-.962 3.223 0 .683.213 1.215.64 1.6.427.384.966.577 1.622.577.568 0 1.16-.17 1.77-.512.613-.342 1.189-.874 1.73-1.602.541-.726.982-1.671 1.323-2.837.341-1.168.512-2.577.512-4.225v-.214zm4.908 8.75c0 .88-.235 1.543-.705 1.983-.47.443-.986.66-1.557.66-1.707 0-2.59-1.037-2.646-3.113v-2.691c-.285 1.024-.663 1.9-1.132 2.626-.47.726-.98 1.33-1.534 1.815-.557.485-1.14.84-1.752 1.065a5.034 5.034 0 01-1.77.344c-1.081 0-2.02-.371-2.817-1.11-.796-.74-1.195-1.777-1.195-3.116v-.045c0-1.049.27-1.963.81-2.73a9.413 9.413 0 011.984-2.05 22.087 22.087 0 012.498-1.642 25.56 25.56 0 002.412-1.537c.726-.525 1.288-1.087 1.685-1.687.398-.595.497-1.307.299-2.134-.283-.91-.667-1.547-1.152-1.918-.483-.368-1.083-.555-1.793-.555-.624 0-1.323.12-2.091.362-.769.242-1.622.564-2.561.961l-.256-.557c1.136-.653 2.212-1.157 3.223-1.512 1.009-.359 1.941-.536 2.795-.536 1.45 0 2.61.613 3.48 1.837.866 1.224 1.313 3.273 1.343 6.146v8.107c0 .629.105 1.119.319 1.474.215.357.561.534 1.046.534.427 0 .74-.341.94-1.024l.127.043z" id="Fill-70" fill="#313233"/><path d="M415.095 115.477c.03 1.253.3 2.019.811 2.304v.043h-4.137v-.043c.566-.285.85-1.251.85-2.902v-11.14c0-1.48-.363-2.538-1.086-3.18a3.717 3.717 0 00-2.541-.957c-.51 0-1.018.076-1.516.233a6.166 6.166 0 00-1.427.66 4.6 4.6 0 00-1.174 1.047 4.6 4.6 0 00-.749 1.346l-.04-.045v12.164c.025 1.566.31 2.489.854 2.774v.043h-4.14v-.043c.568-.312.853-1.264.853-2.86v-13.486c-.029-.796-.108-1.33-.236-1.6a1.303 1.303 0 00-.617-.62v-.042l2.302-.64.47-.171c.143-.059.262-.043.364.042.098.086.15.2.15.342v2.347c.568-.88 1.386-1.572 2.45-2.069a7.738 7.738 0 013.31-.748c.683 0 1.33.101 1.94.301.614.196 1.162.51 1.645.94.485.424.874.972 1.175 1.641.298.67.46 1.472.49 2.41v11.909z" id="Fill-72" fill="#313233"/><path d="M430.545 102.672c-.4-.995-.954-1.77-1.664-2.325-.712-.555-1.48-.831-2.307-.831-.625 0-1.236.168-1.833.51-.6.343-1.132.862-1.602 1.559-.47.696-.853 1.595-1.152 2.689-.297 1.094-.447 2.41-.447 3.949 0 1.534.15 2.85.447 3.946.299 1.097.683 1.99 1.152 2.69.47.696 1.002 1.217 1.602 1.556.597.344 1.208.514 1.833.514.827 0 1.595-.278 2.307-.833.71-.555 1.265-1.33 1.664-2.327v-11.097zm4.866 12.764c0 .91-.234 1.579-.703 2.003-.47.43-.99.64-1.56.64-1.536 0-2.405-.824-2.603-2.473-.485.825-1.132 1.443-1.94 1.856a5.622 5.622 0 01-2.586.618c-.854 0-1.712-.194-2.581-.575-.867-.385-1.656-.982-2.368-1.793-.712-.811-1.287-1.835-1.727-3.073-.445-1.238-.663-2.711-.663-4.416 0-1.71.218-3.188.663-4.441.44-1.25 1.015-2.283 1.727-3.094.712-.81 1.5-1.408 2.368-1.792.87-.387 1.727-.575 2.581-.575.912 0 1.772.204 2.586.618a4.772 4.772 0 011.94 1.815v-9.99c-.029-.795-.107-1.33-.233-1.6a1.318 1.318 0 00-.62-.62v-.042l2.305-.64.467-.17a.467.467 0 01.366.062c.099.074.148.18.148.321v26.422c.03.595.142 1.064.34 1.408.2.34.543.51 1.024.51.458 0 .77-.326.939-.98h.13z" id="Fill-74" fill="#313233"/><path d="M448.983 95.929c.625-.454.811-1.11.555-1.964-.256-.853-.883-1.763-1.878-2.731l2.177-1.11c.795 1.195 1.116 2.37.961 3.52-.157 1.155-.647 2.044-1.473 2.669l-.342-.384zm1.921 2.432a.464.464 0 01.364.063c.099.074.148.18.148.322v19.078c0 1.424-.141 2.648-.424 3.67-.286 1.025-.721 1.894-1.306 2.604a7.13 7.13 0 01-2.196 1.772c-.883.47-1.921.845-3.116 1.13l-.085-.299c.91-.37 1.664-.81 2.262-1.323a5.829 5.829 0 001.43-1.835c.355-.71.603-1.53.746-2.453.142-.926.214-2.013.214-3.266v-16.39c0-.795-.065-1.33-.191-1.599-.128-.272-.35-.478-.66-.62v-.043l2.814-.81z" id="Fill-76" fill="#313233"/><path d="M462.17 117.183c.968 0 1.779-.44 2.432-1.323.654-.88 1.146-1.983 1.472-3.309.328-1.32.492-2.75.492-4.288 0-1.534-.164-2.965-.492-4.288-.326-1.323-.818-2.426-1.472-3.309-.653-.88-1.464-1.32-2.432-1.32-.969 0-1.77.44-2.41 1.32-.641.883-1.126 1.986-1.454 3.309-.326 1.323-.488 2.754-.488 4.288 0 1.539.162 2.967.488 4.288.328 1.326.813 2.429 1.453 3.31.64.882 1.442 1.322 2.41 1.322m0-18.822c1.622 0 2.966.492 4.035 1.474 1.067.981 1.862 2.206 2.388 3.67.528 1.465.797 3.058.813 4.78.013 1.723-.252 3.316-.79 4.78-.542 1.465-1.344 2.69-2.411 3.671-1.07.982-2.413 1.472-4.034 1.472-1.593 0-2.932-.49-4.012-1.472-1.083-.981-1.894-2.206-2.433-3.67-.54-1.465-.804-3.058-.79-4.78.015-1.723.284-3.316.812-4.78.526-1.465 1.328-2.69 2.41-3.671 1.081-.982 2.42-1.474 4.013-1.474" id="Fill-78" fill="#313233"/><path d="M485.774 98.662v.043c-.23.141-.515.37-.856.68-.34.315-.667.84-.98 1.58-.258.768-.55 1.68-.875 2.731a219.883 219.883 0 01-1.067 3.331 508.788 508.788 0 00-1.173 3.606c-.4 1.237-.784 2.433-1.155 3.585l-1.024 3.2c-.312.983-.584 1.814-.809 2.499-.4 1.363-.876 2.48-1.43 3.35-.555.866-1.088 1.556-1.602 2.07-.569.598-1.15 1.067-1.748 1.409l-1.664-2.39a13.142 13.142 0 002.387-1.067c.656-.4 1.288-.903 1.9-1.517.612-.61 1.061-1.372 1.344-2.284.115-.312.23-.647.344-1.002.112-.357.24-.748.384-1.173l-5.85-15.749c-.312-.856-.617-1.51-.916-1.963-.299-.456-.607-.755-.917-.896v-.088h4.311v.088c-.514.256-.456 1.208.17 2.86l4.397 11.862-.045.216c.344-1.024.69-2.094 1.047-3.203.355-1.108.705-2.188 1.044-3.242.342-1.053.67-2.055.984-3.01.313-.952.596-1.815.852-2.581h-.04c.168-.483.24-.899.213-1.238-.03-.343-.108-.626-.236-.853a1.673 1.673 0 00-.447-.535 2.127 2.127 0 00-.47-.276v-.043h3.927z" id="Fill-80" fill="#313233"/></g></g></g></g></svg>