<?xml version="1.0" encoding="UTF-8"?>
<svg width="708px" height="286px" viewBox="0 0 708 286" version="1.1" xmlns="http://www.w3.org/2000/svg" xmlns:xlink="http://www.w3.org/1999/xlink">
    <title>Group 107</title>
    <defs>
        <filter x="-21.6%" y="-93.3%" width="143.2%" height="286.6%" filterUnits="objectBoundingBox" id="filter-1">
            <feOffset dx="0" dy="0" in="SourceAlpha" result="shadowOffsetOuter1"></feOffset>
            <feGaussianBlur stdDeviation="39.5" in="shadowOffsetOuter1" result="shadowBlurOuter1"></feGaussianBlur>
            <feColorMatrix values="0 0 0 0 1   0 0 0 0 1   0 0 0 0 1  0 0 0 0.496612762 0" type="matrix" in="shadowBlurOuter1" result="shadowMatrixOuter1"></feColorMatrix>
            <feMerge>
                <feMergeNode in="shadowMatrixOuter1"></feMergeNode>
                <feMergeNode in="SourceGraphic"></feMergeNode>
            </feMerge>
        </filter>
        <polygon id="path-2" points="0 0 43.1161816 0 43.1161816 67.2685663 0 67.2685663"></polygon>
    </defs>
    <g id="Page-1" stroke="none" stroke-width="1" fill="none" fill-rule="evenodd">
        <g id="Home-Logo-1---d-Copy-22" transform="translate(-246, -191)">
            <g id="Group-107" filter="url(#filter-1)" transform="translate(325.7018, 270.1745)">
                <g id="Group-105" transform="translate(0, -0)">
                    <path d="M7.07595978,32.1713566 C7.07595978,37.3940888 7.54769043,41.9069787 8.49115173,45.7100263 C9.43461304,49.5175665 10.6768371,52.6444668 12.2178239,55.0974662 C13.7588107,57.5504656 15.5042141,59.3610128 17.4540341,60.5223687 C19.4016078,61.6882173 21.4165716,62.2677721 23.4921865,62.2677721 C26.4483652,62.2677721 29.2473004,61.1378649 31.8889921,58.8735578 C34.5306837,56.6070043 36.5119525,53.3385848 37.8305519,49.0615602 L38.4932212,49.3445986 C37.864247,52.23788 36.9522344,54.7829791 35.7571834,56.9843888 C34.5598861,59.1857986 33.1761428,61.0435188 31.6059537,62.5508105 C30.0335182,64.0603486 28.3173171,65.2104729 26.4640896,65.9966906 C24.6086157,66.7806621 22.7037224,67.1737709 20.7561487,67.1737709 C18.2402519,67.1737709 15.7378331,66.4818993 13.2556313,65.0981561 C10.7711832,63.7166591 8.53607846,61.5781469 6.55705606,58.6848655 C4.57578732,55.7915842 2.98762746,52.1570118 1.79033014,47.7856411 C0.595279156,43.4165168 0,38.2095089 0,32.1713566 C0,28.0852706 0.471730652,24.1047624 1.41294562,20.2388174 C2.35640692,16.3683797 3.72667215,12.9404703 5.51924863,9.95284285 C7.30957877,6.96521539 9.55816154,4.5616354 12.2649969,2.73536388 C14.969586,0.913585029 18.0515596,0.00157243551 21.5109177,0.00157243551 C22.7666198,0.00157243551 23.883049,0.12512094 24.8602054,0.378956957 C25.8351154,0.630546638 26.7134329,0.929309384 27.501897,1.27299886 C28.2858684,1.61893467 29.0114351,1.91994375 29.671858,2.17153343 C30.3322809,2.42312312 30.9455308,2.54667162 31.5116075,2.54667162 C32.0776843,2.54667162 32.6437611,2.36022569 33.2098379,1.98284117 C33.7759147,1.60545665 34.3711938,0.945033739 35.0024144,0.00157243551 L35.1911066,0.00157243551 L35.2854528,17.0759757 L34.719376,17.0759757 C34.025258,14.9397097 33.270489,12.9898897 32.4550688,11.228762 C31.6374024,9.46763418 30.7096654,7.9580961 29.671858,6.69790136 C28.6340506,5.44219929 27.4367532,4.46728927 26.086705,3.77317131 C24.7321642,3.08354603 23.2091481,2.73536388 21.5109177,2.73536388 C19.1837132,2.73536388 17.1238227,3.57100103 15.3312462,5.23778267 C13.5386697,6.90456431 12.0291316,9.10372768 10.8026319,11.8397655 C9.57613223,14.5758032 8.64614895,17.7071962 8.01942108,21.2272054 C7.39044688,24.749461 7.07595978,28.3975113 7.07595978,32.1713566" id="Fill-1" fill="#313233"></path>
                    <path d="M54.3411248,0.661096814 L54.3411248,0.755442944 C53.2089712,1.32151973 52.6091994,3.17699362 52.5485483,6.32186464 L52.5485483,60.853928 C52.6091994,64.0616964 53.2089712,65.9463727 54.3411248,66.5124495 L54.3411248,66.6067956 L44.2460888,66.6067956 L44.2460888,66.5124495 C45.4411398,65.8857216 46.070114,63.8730042 46.1330114,60.4765435 L46.1330114,6.79134895 C46.070114,3.33423717 45.4411398,1.32151973 44.2460888,0.755442944 L44.2460888,0.661096814 L54.3411248,0.661096814 Z" id="Fill-3" fill="#313233"></path>
                    <path d="M76.1355301,64.5325285 C78.9659141,64.5325285 81.4481158,63.6519647 83.5866281,61.8908369 C85.7273867,60.1297091 87.5042389,57.8025046 88.9171845,54.9092232 C90.3323764,52.0181883 91.4016326,48.7160737 92.1249529,45.0028796 C92.8482732,41.2919318 93.2121797,37.5023622 93.2121797,33.6341708 C93.2121797,29.7659795 92.8482732,25.9786563 92.1249529,22.2654621 C91.4016326,18.5545143 90.3323764,15.2546461 88.9171845,12.3591184 C87.5042389,9.46583711 85.7273867,7.13863256 83.5866281,5.3775048 C81.4481158,3.61862337 78.9659141,2.73581315 76.1355301,2.73581315 L70.472516,2.73581315 L70.472516,64.5325285 L76.1355301,64.5325285 Z M76.1355301,0.660198279 C80.1587187,0.660198279 83.6674962,1.60365958 86.6551237,3.49058219 C89.6405048,5.3775048 92.1406773,7.8619529 94.1533947,10.9461728 C96.1661122,14.0281464 97.6936209,17.5324313 98.7314284,21.46352 C99.7692358,25.3946088 100.28814,29.4043193 100.28814,33.4926516 C100.28814,37.5832303 99.7984382,41.6064189 98.8257745,45.5689563 C97.8486181,49.5314938 96.3548044,53.0559957 94.342087,56.1357229 C92.3293695,59.2199429 89.8291971,61.717869 86.8438159,63.6362403 C83.8561885,65.5546116 80.381106,66.545246 76.4185685,66.6081434 L62.1700565,66.6081434 L62.1700565,66.5137973 C63.3651075,65.8870694 63.996328,63.8721056 64.0569791,60.4756449 L64.0569791,6.79269675 C63.996328,3.33558498 63.3651075,1.32062119 62.1700565,0.754544409 L62.1700565,0.660198279 L76.1355301,0.660198279 Z" id="Fill-5" fill="#313233"></path>
                    <path d="M130.005823,64.5325285 C131.200874,64.5325285 132.254406,64.3932557 133.166418,64.1102173 C134.076184,63.8271789 134.896097,63.2903045 135.619418,62.5040867 C136.342738,61.717869 136.987436,60.6036861 137.553513,59.1547991 C138.11959,57.7081584 138.622769,55.8526845 139.063051,53.5883774 L139.157397,53.5883774 L139.157397,66.6081434 L107.079713,66.6081434 L107.079713,66.5137973 C108.274764,65.8870694 108.903738,63.8721056 108.966636,60.4756449 L108.966636,6.79269675 C108.903738,3.33558498 108.274764,1.32062119 107.079713,0.754544409 L107.079713,0.660198279 L137.742205,0.660198279 L137.742205,13.6799643 L137.647859,13.6799643 C137.207577,11.4156571 136.704398,9.56018324 136.138321,8.11354258 C135.574491,6.66690191 134.9253,5.5504727 134.204226,4.76650129 C133.480905,3.9780372 132.663239,3.44340913 131.751226,3.16037073 C130.839214,2.87733234 129.783435,2.73581315 128.590631,2.73581315 L115.382173,2.73581315 L115.382173,33.2096133 L126.326324,33.2096133 C128.46259,33.2096133 129.911477,32.6300585 130.666246,31.4642098 C131.421015,30.3028539 132.081438,28.6203479 132.647514,26.4166919 L132.744107,26.4166919 L132.744107,42.1724956 L132.647514,42.1724956 C132.081438,39.9081885 131.421015,38.1942338 130.666246,37.0306315 C129.911477,35.8670293 128.46259,35.2852281 126.326324,35.2852281 L115.382173,35.2852281 L115.382173,64.5325285 L130.005823,64.5325285 Z" id="Fill-7" fill="#313233"></path>
                    <path d="M154.252554,2.73626241 L154.252554,34.6252545 L159.915568,34.6252545 C162.303423,34.6252545 164.300417,33.8390367 165.904301,32.2666012 C167.508185,30.6941657 168.703236,28.7286213 169.489454,26.3699681 C170.275671,24.0113148 170.66878,21.4482449 170.66878,18.6807584 C170.66878,15.913272 170.275671,13.3502021 169.489454,10.9915488 C168.703236,8.63289556 167.508185,6.66735118 165.904301,5.09491567 C164.300417,3.5247265 162.303423,2.73626241 159.915568,2.73626241 L154.252554,2.73626241 Z M181.801624,63.966901 C182.61929,63.966901 183.263989,63.7939331 183.735719,63.445751 C184.20745,63.1020615 184.506213,62.4573629 184.632008,61.5139016 L184.915046,61.6082478 C184.852149,63.4951704 184.333245,64.9575354 183.358335,65.9953428 C182.381179,67.0331503 180.793019,67.552054 178.593855,67.552054 C176.455343,67.552054 174.678491,66.7972849 173.263299,65.2877469 C171.848107,63.7782088 170.621607,61.8755618 169.5838,59.579806 C168.545992,57.2840501 167.63398,54.8153264 166.847762,52.1736347 C166.061544,49.5319431 165.275327,47.0632193 164.489109,44.7674635 C163.702891,42.4717077 162.820081,40.5690607 161.847417,39.0595226 C160.870261,37.5499845 159.693181,36.7952155 158.309437,36.7952155 L156.280995,36.7952155 C155.620573,36.7952155 154.944425,36.7637668 154.252554,36.7008693 L154.252554,60.0987097 C154.252554,63.7467601 154.879282,65.8852723 156.139476,66.5142465 L156.139476,66.6085927 L145.950094,66.6085927 L145.950094,66.5142465 C147.145145,65.9481698 147.774119,63.9354523 147.837017,60.4760942 L147.837017,6.79314602 C147.774119,3.33603424 147.145145,1.32107046 145.950094,0.754993677 L145.950094,0.660647546 L159.915568,0.660647546 C163.561372,0.660647546 166.611897,1.47831401 169.064896,3.11364694 C171.517896,4.74897986 173.404818,6.82459473 174.725664,9.3382452 C176.04651,11.8563884 176.785554,14.5924261 176.942798,17.5486049 C177.100042,20.5047836 176.673238,23.3037188 175.669125,25.9454105 C174.662767,28.5871021 173.090331,30.8985823 170.951819,32.8798511 C168.81106,34.8611198 166.077269,36.0718951 162.743705,36.5121771 C164.630628,37.3949873 166.234512,38.6821381 167.555358,40.3803684 C168.876204,42.0785988 170.024082,43.9520434 170.998992,45.9939632 C171.973902,48.0381294 172.852219,50.1137442 173.640683,52.2208078 C174.424655,54.3278714 175.213119,56.261967 175.999337,58.0230948 C176.785554,59.7842226 177.63467,61.2151389 178.546682,62.3135974 C179.458695,63.4165486 180.541429,63.966901 181.801624,63.966901 L181.801624,63.966901 Z" id="Fill-9" fill="#313233"></path>
                    <path d="M218.690062,32.1713566 C218.690062,37.3940888 219.161793,41.9069787 220.105254,45.7100263 C221.048715,49.5175665 222.290939,52.6444668 223.831926,55.0974662 C225.372913,57.5504656 227.118316,59.3610128 229.068137,60.5223687 C231.01571,61.6882173 233.030674,62.2677721 235.106289,62.2677721 C238.062468,62.2677721 240.861403,61.1378649 243.503094,58.8735578 C246.144786,56.6070043 248.126055,53.3385848 249.444654,49.0615602 L250.107324,49.3445986 C249.478349,52.23788 248.566337,54.7829791 247.371286,56.9843888 C246.173988,59.1857986 244.790245,61.0435188 243.220056,62.5508105 C241.647621,64.0603486 239.93142,65.2104729 238.078192,65.9966906 C236.222718,66.7806621 234.317825,67.1737709 232.370251,67.1737709 C229.854354,67.1737709 227.351935,66.4818993 224.869734,65.0981561 C222.385286,63.7166591 220.150181,61.5781469 218.171158,58.6848655 C216.18989,55.7915842 214.60173,52.1570118 213.404433,47.7856411 C212.209382,43.4165168 211.614102,38.2095089 211.614102,32.1713566 C211.614102,28.0852706 212.085833,24.1047624 213.027048,20.2388174 C213.970509,16.3683797 215.340775,12.9404703 217.133351,9.95284285 C218.923681,6.96521539 221.172264,4.5616354 223.879099,2.73536388 C226.583688,0.913585029 229.665662,0.00157243551 233.12502,0.00157243551 C234.380722,0.00157243551 235.497151,0.12512094 236.474308,0.378956957 C237.449218,0.630546638 238.327535,0.929309384 239.115999,1.27299886 C239.899971,1.61893467 240.625537,1.91994375 241.28596,2.17153343 C241.946383,2.42312312 242.559633,2.54667162 243.12571,2.54667162 C243.691787,2.54667162 244.257864,2.36022569 244.82394,1.98284117 C245.390017,1.60545665 245.985296,0.945033739 246.616517,0.00157243551 L246.805209,0.00157243551 L246.899555,17.0759757 L246.333478,17.0759757 C245.63936,14.9397097 244.884591,12.9898897 244.069171,11.228762 C243.251505,9.46763418 242.323768,7.9580961 241.28596,6.69790136 C240.248153,5.44219929 239.050856,4.46728927 237.700807,3.77317131 C236.346267,3.08354603 234.82325,2.73536388 233.12502,2.73536388 C230.797816,2.73536388 228.737925,3.57100103 226.945349,5.23778267 C225.152772,6.90456431 223.643234,9.10372768 222.416734,11.8397655 C221.190235,14.5758032 220.260251,17.7071962 219.633523,21.2272054 C219.004549,24.749461 218.690062,28.3975113 218.690062,32.1713566" id="Fill-11" fill="#313233"></path>
                    <g id="Group-15" transform="translate(255.1056, 0)">
                        <mask id="mask-3" fill="white">
                            <use xlink:href="#path-2"></use>
                        </mask>
                        <g id="Clip-14"></g>
                        <path d="M21.5109177,64.5325285 C23.8987734,64.5325285 26.0080833,63.6519647 27.8321085,61.8908369 C29.6561336,60.1297091 31.1813961,57.8025046 32.4101421,54.9092232 C33.6343955,52.0181883 34.5464081,48.7160737 35.1439336,45.0028796 C35.7414591,41.2919318 36.0402218,37.5023622 36.0402218,33.6341708 C36.0402218,29.7659795 35.7414591,25.9786563 35.1439336,22.2654621 C34.5464081,18.5545143 33.6343955,15.2546461 32.4101421,12.3591184 C31.1813961,9.46583711 29.6561336,7.13863256 27.8321085,5.3775048 C26.0080833,3.61862337 23.8987734,2.73581315 21.5109177,2.73581315 C19.1208158,2.73581315 17.0137522,3.61862337 15.1919733,5.3775048 C13.3657018,7.13863256 11.8539174,9.46583711 10.6611127,12.3591184 C9.46606175,15.2546461 8.56977351,18.5545143 7.97224802,22.2654621 C7.37472252,25.9786563 7.07595978,29.7659795 7.07595978,33.6341708 C7.07595978,37.5023622 7.37472252,41.2919318 7.97224802,45.0028796 C8.56977351,48.7160737 9.46606175,52.0181883 10.6611127,54.9092232 C11.8539174,57.8025046 13.3657018,60.1297091 15.1919733,61.8908369 C17.0137522,63.6519647 19.1208158,64.5325285 21.5109177,64.5325285 M21.5109177,-0.000224633644 C25.0960707,-0.000224633644 28.2409417,0.958961025 30.9455308,2.87733234 C33.6478735,4.79570366 35.8987026,7.34529552 37.6912791,10.5193689 C39.4838556,13.6956886 40.8361501,17.2988123 41.7481627,21.3220008 C42.6601753,25.3496821 43.1161816,29.4514924 43.1161816,33.6341708 C43.1161816,37.8168493 42.6601753,41.9231523 41.7481627,45.9463409 C40.8361501,49.9740221 39.4838556,53.5726531 37.6912791,56.7489728 C35.8987026,59.9252925 33.6478735,62.472638 30.9455308,64.3932557 C28.2409417,66.311627 25.0960707,67.2685663 21.5109177,67.2685663 C17.9257648,67.2685663 14.7966181,66.311627 12.1234778,64.3932557 C9.45033739,62.472638 7.21747897,59.9252925 5.4249025,56.7489728 C3.63232602,53.5726531 2.27778515,49.9740221 1.36801889,45.9463409 C0.456006297,41.9231523 0,37.8168493 0,33.6341708 C0,29.4514924 0.456006297,25.3496821 1.36801889,21.3220008 C2.27778515,17.2988123 3.63232602,13.6956886 5.4249025,10.5193689 C7.21747897,7.34529552 9.45033739,4.79570366 12.1234778,2.87733234 C14.7966181,0.958961025 17.9257648,-0.000224633644 21.5109177,-0.000224633644" id="Fill-13" fill="#313233" mask="url(#mask-3)"></path>
                    </g>
                    <path d="M311.618979,32.1713566 C311.618979,37.3940888 312.09071,41.9069787 313.034171,45.7100263 C313.977632,49.5175665 315.219856,52.6444668 316.760843,55.0974662 C318.30183,57.5504656 320.047233,59.3610128 321.997053,60.5223687 C323.944627,61.6882173 325.959591,62.2677721 328.035206,62.2677721 C330.991384,62.2677721 333.79032,61.1378649 336.432011,58.8735578 C339.073703,56.6070043 341.054972,53.3385848 342.373571,49.0615602 L343.03624,49.3445986 C342.407266,52.23788 341.495254,54.7829791 340.300203,56.9843888 C339.102905,59.1857986 337.719162,61.0435188 336.148973,62.5508105 C334.576537,64.0603486 332.860336,65.2104729 331.007109,65.9966906 C329.151635,66.7806621 327.246741,67.1737709 325.299168,67.1737709 C322.783271,67.1737709 320.280852,66.4818993 317.79865,65.0981561 C315.314202,63.7166591 313.079098,61.5781469 311.100075,58.6848655 C309.118806,55.7915842 307.530647,52.1570118 306.333349,47.7856411 C305.138298,43.4165168 304.543019,38.2095089 304.543019,32.1713566 C304.543019,28.0852706 305.01475,24.1047624 305.955965,20.2388174 C306.899426,16.3683797 308.269691,12.9404703 310.062268,9.95284285 C311.852598,6.96521539 314.101181,4.5616354 316.808016,2.73536388 C319.512605,0.913585029 322.594579,0.00157243551 326.053937,0.00157243551 C327.309639,0.00157243551 328.426068,0.12512094 329.403224,0.378956957 C330.378134,0.630546638 331.256452,0.929309384 332.044916,1.27299886 C332.828888,1.61893467 333.554454,1.91994375 334.214877,2.17153343 C334.8753,2.42312312 335.48855,2.54667162 336.054627,2.54667162 C336.620703,2.54667162 337.18678,2.36022569 337.752857,1.98284117 C338.318934,1.60545665 338.914213,0.945033739 339.545433,0.00157243551 L339.734126,0.00157243551 L339.828472,17.0759757 L339.262395,17.0759757 C338.568277,14.9397097 337.813508,12.9898897 336.998088,11.228762 C336.180421,9.46763418 335.252685,7.9580961 334.214877,6.69790136 C333.17707,5.44219929 331.979772,4.46728927 330.629724,3.77317131 C329.275183,3.08354603 327.752167,2.73536388 326.053937,2.73536388 C323.726732,2.73536388 321.666842,3.57100103 319.874265,5.23778267 C318.081689,6.90456431 316.572151,9.10372768 315.345651,11.8397655 C314.119151,14.5758032 313.189168,17.7071962 312.56244,21.2272054 C311.933466,24.749461 311.618979,28.3975113 311.618979,32.1713566" id="Fill-16" fill="#313233"></path>
                    <path d="M385.677996,63.9666764 C386.495662,63.9666764 387.140361,63.7937085 387.612091,63.4477727 C388.083822,63.1018369 388.382585,62.4571383 388.510626,61.513677 L388.793664,61.6080231 C388.728521,63.4949457 388.209617,64.9573108 387.234707,65.9951182 C386.259797,67.0329256 384.671637,67.5518293 382.470227,67.5518293 C380.520407,67.5518293 378.822177,66.6869898 377.377782,64.9573108 C375.928895,63.2276317 374.641745,61.0576707 373.507345,58.4474278 C372.375191,55.8394312 371.368833,53.0068009 370.488269,49.956276 C369.607705,46.9057512 368.745112,44.0776136 367.89375,41.4651243 C367.044635,38.8548814 366.164071,36.6849204 365.252058,34.9552413 C364.340046,33.2255622 363.320209,32.3607227 362.185809,32.3607227 C361.619732,32.3607227 361.085104,32.5808637 360.581925,33.0211456 L357.185464,38.3045289 L357.091118,38.3045289 L357.091118,60.8532541 C357.154016,64.0610225 357.751541,65.9479451 358.883695,66.5140219 L358.883695,66.608368 L348.788659,66.608368 L348.788659,66.5140219 C349.98371,65.8850477 350.61493,63.8723303 350.675581,60.4758696 L350.675581,6.79292139 C350.61493,3.33580961 349.98371,1.32084583 348.788659,0.754769043 L348.788659,0.660422913 L358.883695,0.660422913 L358.883695,0.754769043 C357.751541,1.32084583 357.154016,3.17631972 357.091118,6.32119074 L357.091118,34.5306837 L375.113475,7.17030591 C376.245629,5.2833833 376.623013,3.82101828 376.245629,2.78321085 C375.868244,1.74540341 375.333616,1.06925614 374.641745,0.754769043 L374.641745,0.660422913 L384.545842,0.660422913 L384.545842,0.754769043 C383.979765,1.06925614 383.067753,1.60388422 381.809804,2.35865326 C380.551856,3.1134223 379.325356,4.30847329 378.132552,5.94380621 L362.468848,30.0964156 C363.286514,29.5932362 364.198527,29.3416465 365.207132,29.3416465 C366.905362,29.3416465 368.412654,30.1907617 369.7335,31.8889921 C371.054345,33.5872224 372.265121,35.727981 373.368072,38.3045289 C374.46653,40.8855695 375.504338,43.6687803 376.479248,46.6541615 C377.454158,49.6417889 378.41559,52.4249998 379.359051,55.003794 C380.300266,57.5825882 381.275176,59.7211005 382.281535,61.4193309 C383.287894,63.1175612 384.420047,63.9666764 385.677996,63.9666764" id="Fill-18" fill="#313233"></path>
                    <path d="M425.210372,0.661096814 L425.210372,13.6808628 L425.116026,13.6808628 C424.675744,11.4165557 424.172565,9.56108178 423.606488,8.11219478 C423.040411,6.66780045 422.395713,5.55137124 421.672392,4.76515348 C420.949072,3.97893573 420.115681,3.44206132 419.17222,3.15902293 C418.228758,2.87598454 417.159502,2.73671168 415.964451,2.73671168 L410.86976,2.73671168 L410.86976,60.1935051 C410.86976,63.778658 411.467286,65.8857216 412.662337,66.5124495 L412.662337,66.6067956 L402.567301,66.6067956 L402.567301,66.5124495 C403.760105,65.8857216 404.38908,63.8730042 404.454223,60.4765435 L404.454223,2.73671168 L398.699109,2.73671168 C397.504058,2.73671168 396.44828,2.87598454 395.538514,3.15902293 C394.626501,3.44206132 393.808835,3.97893573 393.085515,4.76515348 C392.362194,5.55137124 391.73322,6.66780045 391.198592,8.11219478 C390.663964,9.56108178 390.14506,11.4165557 389.641881,13.6808628 L389.547535,13.6808628 L389.547535,0.661096814 L425.210372,0.661096814 Z" id="Fill-20" fill="#313233"></path>
                    <path d="M444.174843,44.8135134 L436.43846,15.9435975 L429.456846,44.8135134 L444.174843,44.8135134 Z M454.930302,60.8546019 C455.810866,63.9994729 456.943019,65.8863955 458.326762,66.5131234 L458.326762,66.6074695 L448.13738,66.6074695 L448.13738,66.5131234 C448.829252,66.2008826 449.143739,65.5404597 449.083088,64.5318546 C449.017944,63.5277423 448.734906,62.0496529 448.231726,60.0998329 L444.74092,46.8913746 L428.89077,46.8913746 L425.779594,60.0998329 C425.525758,61.2319864 425.478585,62.1597234 425.635828,62.8807974 C425.790825,63.6041177 426.062632,64.2196139 426.43777,64.7205469 C426.815155,65.2259726 427.255437,65.6033571 427.758616,65.8527005 C428.261795,66.1065365 428.670629,66.3244311 428.985116,66.5131234 L428.985116,66.6074695 L419.078772,66.6074695 L419.078772,66.5131234 C419.7055,66.2008826 420.47824,65.6190815 421.390252,64.7699663 C422.302265,63.9208511 423.04131,62.4899348 423.607386,60.4772174 L438.13669,0.0956939322 L438.985806,0.0956939322 L439.080152,1.03915524 L454.930302,60.8546019 Z" id="Fill-22" fill="#313233"></path>
                    <path d="M472.57213,0.661096814 L472.57213,0.755442944 C471.439976,1.32151973 470.840204,3.17699362 470.779553,6.32186464 L470.779553,60.853928 C470.840204,64.0616964 471.439976,65.9463727 472.57213,66.5124495 L472.57213,66.6067956 L462.477094,66.6067956 L462.477094,66.5124495 C463.672145,65.8857216 464.301119,63.8730042 464.364016,60.4765435 L464.364016,6.79134895 C464.301119,3.33423717 463.672145,1.32151973 462.477094,0.755442944 L462.477094,0.661096814 L472.57213,0.661096814 Z" id="Fill-24" fill="#313233"></path>
                    <path d="M501.912653,64.5325285 C503.105458,64.5325285 504.161236,64.3932557 505.073248,64.1102173 C505.983015,63.8271789 506.802927,63.2903045 507.526248,62.5040867 C508.247322,61.717869 508.894267,60.6036861 509.460343,59.1547991 C510.02642,57.7081584 510.529599,55.8526845 510.969881,53.5883774 L511.064228,53.5883774 L511.064228,66.6081434 L480.401735,66.6081434 L480.401735,66.5137973 C481.596786,65.9477205 482.22576,63.9350031 482.288658,60.4756449 L482.288658,6.79269675 C482.22576,3.33558498 481.596786,1.32062119 480.401735,0.754544409 L480.401735,0.660198279 L490.591117,0.660198279 L490.591117,0.754544409 C489.330923,1.38576495 488.704195,3.46137982 488.704195,6.98138901 L488.704195,64.5325285 L501.912653,64.5325285 Z" id="Fill-26" fill="#313233"></path>
                    <path d="M522.101152,13.3975998 C522.101152,15.8505992 522.761575,18.0834576 524.082421,20.0939287 C525.403267,22.1088925 527.070049,24.0429882 529.08052,25.8962157 C531.095483,27.753936 533.24972,29.5936855 535.545476,31.4154643 C537.841232,33.2417359 539.995468,35.1915559 542.008186,37.2671708 C544.020903,39.3427856 545.687685,41.6070928 547.008531,44.0578458 C548.329377,46.5130915 548.9898,49.3120267 548.9898,52.4568978 C548.9898,54.4696152 548.547271,56.3722622 547.668954,58.1648386 C546.786143,59.9574151 545.593339,61.5298506 544.083801,62.8798988 C542.574263,64.2344397 540.77944,65.3036958 538.706071,66.0899136 C536.630456,66.8761313 534.397598,67.2669939 532.007496,67.2669939 C530.749548,67.2669939 529.554497,67.1434454 528.420097,66.8896094 C527.29019,66.6380197 526.218687,66.3415033 525.214575,65.9955675 C524.20597,65.6496317 523.24903,65.3508689 522.334771,65.0992792 C521.422759,64.8476895 520.557919,64.7218947 519.742499,64.7218947 C518.924833,64.7218947 518.170064,64.910587 517.475946,65.2879715 C516.78632,65.665356 516.092202,66.3257789 515.402577,67.2669939 L515.213885,67.2669939 L515.119539,50.1925906 L515.685615,50.1925906 C516.377487,52.3311029 517.287253,54.2809229 518.421653,56.0398044 C519.553807,57.8031785 520.840958,59.3127166 522.289845,60.570665 C523.736485,61.8308597 525.293196,62.8035234 526.959978,63.495395 C528.624513,64.1872666 530.309266,64.5332024 532.007496,64.5332024 C533.13965,64.5332024 534.287528,64.2816128 535.45113,63.7784334 C536.614732,63.275254 537.683988,62.5676581 538.658898,61.6533991 C539.633808,60.7436329 540.43575,59.6272037 541.062478,58.3063578 C541.693699,56.9832657 542.008186,55.5074226 542.008186,53.8720897 C542.008186,51.3561929 541.347763,49.0289884 540.024671,46.8904761 C538.706071,44.7519638 537.037043,42.6763489 535.026572,40.6636315 C533.011608,38.650914 530.857372,36.6696453 528.563862,34.7198252 C526.26586,32.7700052 524.11387,30.7572878 522.101152,28.6816729 C520.088435,26.606058 518.421653,24.436097 517.098561,22.1695436 C515.779962,19.9052364 515.119539,17.4544834 515.119539,14.8127917 C515.119539,12.8000743 515.431779,10.8974273 516.063,9.10485085 C516.691974,7.31227437 517.619711,5.73983887 518.846211,4.38529799 C520.072711,3.03524979 521.595727,1.96599365 523.421998,1.1797759 C525.243777,0.393558144 527.353087,0.000449267288 529.743189,0.000449267288 C531.001137,0.000449267288 532.101842,0.126244108 533.045303,0.377833789 C533.988765,0.62942347 534.83788,0.928186216 535.592649,1.27412203 C536.347418,1.62005784 537.023565,1.92106692 537.621091,2.17041027 C538.218616,2.42199995 538.800417,2.54779479 539.366494,2.54779479 C539.930325,2.54779479 540.482923,2.35910253 541.017551,1.98171801 C541.549933,1.60433348 542.133981,0.943910571 542.762955,0.000449267288 L543.045993,0.000449267288 L543.140339,17.0770989 L542.479917,17.0770989 C541.850942,14.9408329 541.143346,12.9887665 540.357129,11.2276388 C539.568664,9.46651102 538.690347,7.95697293 537.715437,6.69902452 C536.740527,5.44107612 535.592649,4.46616611 534.271803,3.77429448 C532.950957,3.08242286 531.441419,2.73648705 529.743189,2.73648705 C527.541779,2.73648705 525.715508,3.69567271 524.271113,5.61404402 C522.822226,7.53466168 522.101152,10.1269339 522.101152,13.3975998" id="Fill-28" fill="#313233"></path>
                    <path d="M73.2748207,107.965444 L69.7727822,94.9052435 L66.6166795,107.965444 L73.2748207,107.965444 Z M78.1403854,115.218864 C78.537987,116.643041 79.0501517,117.496649 79.6768795,117.781934 L79.6768795,117.824614 L75.0673972,117.824614 L75.0673972,117.781934 C75.3796379,117.640415 75.5211571,117.341652 75.4919548,116.885646 C75.4649987,116.431886 75.3369575,115.762477 75.1078312,114.879667 L73.5286567,108.904412 L66.3605971,108.904412 L64.9521442,114.879667 C64.837581,115.391832 64.8151177,115.811897 64.8892468,116.139862 C64.9588832,116.465581 65.0801854,116.74188 65.2509069,116.971006 C65.4216285,117.197886 65.6193061,117.370854 65.8461861,117.483171 C66.0753124,117.597734 66.259512,117.696573 66.4010312,117.781934 L66.4010312,117.824614 L61.91959,117.824614 L61.91959,117.781934 C62.2048747,117.640415 62.5553032,117.375347 62.9663828,116.99347 C63.3797087,116.609346 63.7144128,115.962401 63.9682488,115.050389 L70.5432756,87.7349376 L70.9273991,87.7349376 L70.9700795,88.1617415 L78.1403854,115.218864 Z" id="Fill-30" fill="#313233"></path>
                    <path d="M92.5661334,95.9286744 C93.1906149,95.4749144 93.3770608,94.8189842 93.1209785,93.9653763 C92.8648961,93.1117685 92.2381683,92.2020022 91.2430412,91.2338312 L93.4197412,90.124141 C94.2149443,91.319192 94.5361704,92.494026 94.3811732,93.6441502 C94.2239297,94.7987672 93.7342283,95.6883164 92.9075765,96.3127979 L92.5661334,95.9286744 Z M94.486751,98.3614568 C94.6282702,98.3345007 94.7495724,98.3547177 94.8506575,98.4243542 C94.9494963,98.4984833 94.9989157,98.6040611 94.9989157,98.7455803 L94.9989157,117.823716 C94.9989157,119.247893 94.8573965,120.472146 94.5743582,121.494229 C94.2890734,122.518559 93.8532842,123.387891 93.2692367,124.097733 C92.6874356,124.807576 91.9551299,125.400608 91.0723197,125.870093 C90.1895094,126.339577 89.151702,126.714715 87.956651,127 L87.8712902,126.701237 C88.7810565,126.330592 89.5358255,125.89031 90.133351,125.378145 C90.7308765,124.86598 91.2093462,124.252731 91.5642673,123.542888 C91.9191885,122.833046 92.1662855,122.013133 92.310051,121.089889 C92.4515702,120.164398 92.523453,119.077171 92.523453,117.823716 L92.523453,101.434445 C92.523453,100.639242 92.4583092,100.104614 92.3325144,99.8350535 C92.2044732,99.5632468 91.9820859,99.3565838 91.6720915,99.2150646 L91.6720915,99.1723842 L94.486751,98.3614568 Z" id="Fill-32" fill="#313233"></path>
                    <path d="M105.752353,117.183285 C106.720524,117.183285 107.531451,116.743003 108.185135,115.860193 C108.838819,114.979629 109.330767,113.876678 109.656486,112.551339 C109.984451,111.230494 110.148433,109.801824 110.148433,108.263083 C110.148433,106.728835 109.984451,105.297919 109.656486,103.974827 C109.330767,102.651735 108.838819,101.548784 108.185135,100.665973 C107.531451,99.7854094 106.720524,99.3451275 105.752353,99.3451275 C104.784182,99.3451275 103.98224,99.7854094 103.342034,100.665973 C102.701828,101.548784 102.216619,102.651735 101.888654,103.974827 C101.562935,105.297919 101.401199,106.728835 101.401199,108.263083 C101.401199,109.801824 101.562935,111.230494 101.888654,112.551339 C102.216619,113.876678 102.701828,114.979629 103.342034,115.860193 C103.98224,116.743003 104.784182,117.183285 105.752353,117.183285 M105.752353,98.3612321 C107.374208,98.3612321 108.717517,98.8531798 109.786773,99.8348288 C110.853783,100.816478 111.648986,102.040731 112.174629,103.505343 C112.702518,104.969954 112.972078,106.562606 112.987803,108.285547 C113.001281,110.008487 112.736213,111.601139 112.197092,113.06575 C111.655725,114.530362 110.853783,115.754615 109.786773,116.736264 C108.717517,117.717913 107.374208,118.207615 105.752353,118.207615 C104.1597,118.207615 102.820884,117.717913 101.740396,116.736264 C100.657662,115.754615 99.8467344,114.530362 99.3076137,113.06575 C98.7684929,111.601139 98.5034252,110.008487 98.5169032,108.285547 C98.5326276,106.562606 98.802188,104.969954 99.330077,103.505343 C99.8557198,102.040731 100.657662,100.816478 101.740396,99.8348288 C102.820884,98.8531798 104.1597,98.3612321 105.752353,98.3612321" id="Fill-34" fill="#313233"></path>
                    <path d="M132.300455,115.476519 L132.471177,115.476519 C132.471177,116.359329 132.237558,117.019752 131.768074,117.46228 C131.298589,117.902562 130.763961,118.122703 130.166436,118.122703 C128.515379,118.122703 127.648293,117.183734 127.562932,115.305797 C126.994609,116.188607 126.174696,116.878233 125.109933,117.376919 C124.040676,117.87336 122.95345,118.122703 121.843759,118.122703 C121.160873,118.122703 120.507189,118.023864 119.880461,117.82394 C119.253733,117.626263 118.698888,117.305037 118.215926,116.862508 C117.732964,116.424473 117.342101,115.853903 117.043338,115.155293 C116.742329,114.461175 116.594071,113.627784 116.594071,112.659613 L116.594071,101.349309 C116.564869,100.581062 116.488493,100.064404 116.358206,99.7925977 C116.232411,99.520791 116.025748,99.3163744 115.740463,99.1726088 L115.740463,99.0872481 L118.514689,98.319001 C118.658454,98.2628426 118.77751,98.2763206 118.876349,98.3616814 C118.975188,98.4470422 119.026853,98.5616053 119.026853,98.7031245 L119.026853,112.659613 C119.026853,114.139949 119.39076,115.200219 120.11408,115.840425 C120.839647,116.478385 121.686516,116.799611 122.654687,116.799611 C123.166852,116.799611 123.672277,116.723235 124.170964,116.563746 C124.667404,116.408748 125.143628,116.188607 125.599634,115.903323 C126.05564,115.618038 126.453242,115.269856 126.794685,114.858776 C127.136128,114.44545 127.39221,113.998429 127.562932,113.513221 L127.562932,101.349309 C127.562932,100.581062 127.491049,100.064404 127.34953,99.7925977 C127.205764,99.520791 126.994609,99.3163744 126.709324,99.1726088 L126.709324,99.0872481 L129.52623,98.319001 C129.667749,98.2628426 129.789051,98.2763206 129.890136,98.3616814 C129.988975,98.4470422 130.038395,98.5616053 130.038395,98.7031245 L130.038395,114.452189 C130.038395,115.078917 130.137233,115.568619 130.337157,115.92354 C130.537081,116.280707 130.876278,116.458168 131.361487,116.458168 C131.815247,116.458168 132.129734,116.132449 132.300455,115.476519" id="Fill-36" fill="#313233"></path>
                    <path d="M138.019403,101.136356 C138.533814,100.253546 139.191991,99.593123 140.005165,99.1505947 C140.813846,98.7103128 141.676439,98.4901718 142.586205,98.4901718 C143.808212,98.4901718 144.962829,98.845093 146.043317,99.5571816 L144.720225,101.435119 C144.237263,100.922954 143.738576,100.54557 143.226411,100.305212 C142.714247,100.062607 142.202082,99.9413052 141.689917,99.9413052 C140.92167,99.9413052 140.211828,100.204127 139.555898,100.729769 C138.902214,101.257658 138.387803,102.019166 138.019403,103.014293 L138.019403,115.092844 C138.019403,116.687743 138.304688,117.64019 138.873011,117.952431 L138.873011,117.995111 L134.733013,117.995111 L134.733013,117.952431 C135.272134,117.667146 135.557419,116.75738 135.586621,115.220886 L135.586621,101.60584 C135.557419,100.808391 135.478797,100.276009 135.353002,100.004203 C135.224961,99.7346422 135.016052,99.5279793 134.733013,99.3864601 L134.733013,99.3437797 L137.037754,98.7035738 L137.507239,98.5328522 C137.648758,98.5036499 137.77006,98.5261132 137.871145,98.5957496 C137.969984,98.6676324 138.019403,98.7732102 138.019403,98.9169758 L138.019403,101.136356 Z" id="Fill-38" fill="#313233"></path>
                    <path d="M162.132477,115.476519 C162.16168,116.729974 162.43124,117.495975 162.943405,117.78126 L162.943405,117.82394 L158.805653,117.82394 L158.805653,117.78126 C159.37173,117.495975 159.657014,116.53005 159.657014,114.878993 L159.657014,103.739411 C159.657014,102.259075 159.293108,101.201051 158.569788,100.558598 C157.844221,99.9183925 156.997352,99.6016591 156.029181,99.6016591 C155.519263,99.6016591 155.011591,99.6780345 154.512904,99.8352781 C154.016464,99.9902753 153.54024,100.212663 153.08648,100.495701 C152.630474,100.780986 152.239612,101.129168 151.911646,101.542494 C151.583681,101.953573 151.334338,102.402841 151.163616,102.888049 L151.123182,102.843123 L151.123182,115.007034 C151.147892,116.572731 151.433177,117.495975 151.97679,117.78126 L151.97679,117.82394 L147.836792,117.82394 L147.836792,117.78126 C148.405115,117.469019 148.6904,116.516572 148.6904,114.921674 L148.6904,101.43467 C148.661198,100.639467 148.582576,100.104838 148.454535,99.8352781 C148.326494,99.5634714 148.119831,99.3568084 147.836792,99.2152892 L147.836792,99.1726088 L150.139287,98.532403 L150.608771,98.3616814 C150.752537,98.3032766 150.871593,98.319001 150.972678,98.4043618 C151.071517,98.4897226 151.123182,98.6042857 151.123182,98.7458049 L151.123182,101.093226 C151.691505,100.212663 152.509172,99.520791 153.573935,99.0243506 C154.643192,98.525664 155.743896,98.2763206 156.882789,98.2763206 C157.565675,98.2763206 158.21262,98.3774057 158.823624,98.5773297 C159.436874,98.772761 159.98498,99.0872481 160.467942,99.5162983 C160.953151,99.9408559 161.341767,100.488962 161.642776,101.15837 C161.941539,101.827779 162.103275,102.629721 162.132477,103.568689 L162.132477,115.476519 Z" id="Fill-40" fill="#313233"></path>
                    <path d="M168.579687,108.263757 C168.579687,108.919687 168.622368,109.528444 168.707729,110.099014 C169.502932,108.989324 170.520522,108.128977 171.758254,107.517973 C172.995985,106.90697 174.552696,106.513861 176.43288,106.345386 C176.401431,105.601848 176.338534,104.815631 176.239695,103.975501 C176.13861,103.135371 175.961149,102.367124 175.707313,101.668513 C175.451231,100.972149 175.100802,100.397087 174.66052,99.9410805 C174.220238,99.4873206 173.64293,99.2581943 172.930841,99.2581943 C172.220999,99.2581943 171.587532,99.5210156 171.032687,100.048905 C170.477842,100.574547 170.024082,101.257434 169.666914,102.097564 C169.309747,102.935447 169.040186,103.896879 168.855987,104.977367 C168.671787,106.060101 168.579687,107.154067 168.579687,108.263757 M169.004245,111.720869 C169.233371,112.603679 169.545612,113.358448 169.943214,113.98293 C170.343062,114.609657 170.790083,115.121822 171.288769,115.519424 C171.787456,115.917025 172.313099,116.209049 172.867944,116.393249 C173.422789,116.579695 173.968649,116.671794 174.512262,116.671794 C175.422028,116.671794 176.268897,116.424697 177.050622,115.923764 C177.832347,115.427324 178.380453,114.724221 178.69494,113.812208 L179.377827,114.153651 C178.863416,115.463265 178.061474,116.458392 176.965261,117.141279 C175.869049,117.824165 174.682984,118.165608 173.400325,118.165608 C172.463603,118.165608 171.535866,117.965684 170.6261,117.570329 C169.716334,117.170481 168.900914,116.56397 168.173101,115.755289 C167.447534,114.944362 166.856747,113.920032 166.400741,112.682301 C165.946981,111.444569 165.720101,109.970973 165.720101,108.263757 C165.720101,107.010301 165.868359,105.795033 166.167122,104.615707 C166.468131,103.43638 166.915152,102.382848 167.510431,101.457358 C168.110203,100.534113 168.862726,99.7860833 169.772492,99.2155139 C170.684505,98.6471908 171.73579,98.361906 172.930841,98.361906 C174.042778,98.361906 175.001963,98.6045104 175.812891,99.0874727 C176.623818,99.5726814 177.293226,100.233104 177.818869,101.073234 C178.346758,101.913364 178.735374,102.881535 178.993703,103.975501 C179.249786,105.069467 179.377827,106.215098 179.377827,107.410149 L177.070839,107.410149 C174.966022,107.553915 173.274531,107.971733 171.994119,108.670344 C170.711461,109.366708 169.716334,110.384299 169.004245,111.720869" id="Fill-42" fill="#313233"></path>
                    <path d="M195.937145,98.6620166 L195.937145,98.704697 C195.708019,98.8462162 195.422734,99.0753425 195.081291,99.3853369 C194.742094,99.699824 194.414129,100.225467 194.101888,100.964511 C193.843559,101.732758 193.551536,102.644771 193.225817,103.696057 C192.897852,104.749588 192.542931,105.859279 192.158807,107.027373 C191.774684,108.193222 191.383821,109.395012 190.98622,110.632743 C190.586372,111.870475 190.202248,113.065526 189.831603,114.217896 C189.463203,115.370267 189.12176,116.437277 188.807273,117.418926 C188.495032,118.400575 188.223226,119.231719 187.998592,119.916852 C187.598744,121.280378 187.122521,122.396807 186.567676,123.26614 C186.012831,124.133225 185.480449,124.822851 184.966038,125.337262 C184.397715,125.934787 183.815914,126.404272 183.218388,126.745715 L181.553853,124.355613 C182.407461,124.070328 183.202664,123.713161 183.941708,123.288603 C184.597639,122.888755 185.228859,122.385576 185.842109,121.772326 C186.453113,121.161322 186.90238,120.399814 187.185418,119.487802 C187.299981,119.175561 187.414545,118.840857 187.529108,118.485936 C187.641425,118.128768 187.769466,117.737906 187.913231,117.313348 L182.063771,101.564283 C181.75153,100.708429 181.446029,100.054745 181.147266,99.6009852 C180.848503,99.1449789 180.540755,98.8462162 180.230761,98.704697 L180.230761,98.6170898 L184.54148,98.6170898 L184.54148,98.704697 C184.027069,98.9607793 184.085474,99.913226 184.712202,101.564283 L189.108282,113.427186 L189.063356,113.642834 C189.407045,112.618505 189.752981,111.549249 190.110148,110.439559 C190.465069,109.332115 190.815498,108.251627 191.154695,107.198095 C191.496138,106.144563 191.824103,105.142697 192.13859,104.188004 C192.450831,103.235558 192.733869,102.372964 192.989952,101.606964 L192.949518,101.606964 C193.117993,101.124001 193.189876,100.708429 193.16292,100.369232 C193.133717,100.025543 193.055095,99.7425044 192.927054,99.5156244 C192.801259,99.2864981 192.648508,99.1090375 192.480033,98.9809963 C192.309312,98.8529552 192.149822,98.7608554 192.010549,98.704697 L192.010549,98.6620166 L195.937145,98.6620166 Z" id="Fill-44" fill="#313233"></path>
                    <path d="M215.270015,117.183285 C216.238186,117.183285 217.049113,116.743003 217.702797,115.860193 C218.356481,114.979629 218.848429,113.876678 219.174148,112.551339 C219.502113,111.230494 219.666095,109.801824 219.666095,108.263083 C219.666095,106.728835 219.502113,105.297919 219.174148,103.974827 C218.848429,102.651735 218.356481,101.548784 217.702797,100.665973 C217.049113,99.7854094 216.238186,99.3451275 215.270015,99.3451275 C214.301844,99.3451275 213.499902,99.7854094 212.859696,100.665973 C212.21949,101.548784 211.734281,102.651735 211.406316,103.974827 C211.080597,105.297919 210.918861,106.728835 210.918861,108.263083 C210.918861,109.801824 211.080597,111.230494 211.406316,112.551339 C211.734281,113.876678 212.21949,114.979629 212.859696,115.860193 C213.499902,116.743003 214.301844,117.183285 215.270015,117.183285 M215.270015,98.3612321 C216.89187,98.3612321 218.235179,98.8531798 219.304435,99.8348288 C220.371445,100.816478 221.166648,102.040731 221.692291,103.505343 C222.22018,104.969954 222.48974,106.562606 222.505465,108.285547 C222.518943,110.008487 222.253875,111.601139 221.714754,113.06575 C221.173387,114.530362 220.371445,115.754615 219.304435,116.736264 C218.235179,117.717913 216.89187,118.207615 215.270015,118.207615 C213.677362,118.207615 212.338546,117.717913 211.258058,116.736264 C210.175324,115.754615 209.364396,114.530362 208.825276,113.06575 C208.286155,111.601139 208.021087,110.008487 208.034565,108.285547 C208.05029,106.562606 208.31985,104.969954 208.847739,103.505343 C209.373382,102.040731 210.175324,100.816478 211.258058,99.8348288 C212.338546,98.8531798 213.677362,98.3612321 215.270015,98.3612321" id="Fill-46" fill="#313233"></path>
                    <path d="M227.09181,88.6301027 C226.523487,88.6301027 226.047263,88.879446 225.660893,89.3781327 C225.27677,89.8768194 225.00721,90.4945619 224.852212,91.2336066 C224.694969,91.9748976 224.659027,92.7790861 224.744388,93.6439256 C224.829749,94.5132578 225.072353,95.3196926 225.469955,96.0587373 C225.867556,96.797782 226.422401,97.4155245 227.136736,97.9142112 C227.846579,98.4106515 228.756345,98.6622412 229.866035,98.6622412 L230.933045,98.6622412 L230.933045,99.4709223 L227.945418,99.4709223 L227.945418,115.006585 C227.97462,116.572282 228.259905,117.497772 228.799025,117.783057 L228.799025,117.823491 L224.659027,117.823491 L224.659027,117.783057 C225.229597,117.497772 225.512635,116.545326 225.512635,114.921224 L225.512635,99.4709223 L223.250574,99.4709223 L223.250574,98.6622412 L226.878408,98.6622412 C225.827122,98.3477541 224.964529,97.8647918 224.297367,97.2088615 C223.627959,96.5551776 223.136011,95.8228719 222.826017,95.0119445 C222.51153,94.1987707 222.374503,93.3676262 222.41943,92.5140184 C222.459864,91.6626569 222.675512,90.8786855 223.059636,90.1688431 C223.443759,89.4567545 223.98288,88.872707 224.681491,88.4167007 C225.377855,87.9629408 226.238202,87.7360608 227.262531,87.7360608 C228.2015,87.7360608 229.140469,87.9988821 230.079437,88.5245249 C231.018406,89.0501676 231.815855,89.9531948 232.471785,91.2336066 L230.209725,92.8554615 C229.780674,91.3773721 229.284234,90.301377 228.715911,89.6342151 C228.145342,88.9648068 227.606221,88.6301027 227.09181,88.6301027" id="Fill-48" fill="#313233"></path>
                    <path d="M246.082563,108.263757 C246.082563,109.802498 246.253284,111.109865 246.596974,112.190353 C246.93617,113.270841 247.376452,114.153651 247.917819,114.836537 C248.459187,115.519424 249.076929,116.01811 249.77554,116.330351 C250.471904,116.642592 251.161529,116.799836 251.844416,116.799836 C252.812587,116.799836 253.702136,116.530275 254.513063,115.988908 C255.321744,115.447541 255.883328,114.724221 256.197816,113.812208 L256.882948,114.153651 C256.368537,115.463265 255.564349,116.458392 254.468137,117.141279 C253.374171,117.824165 252.185859,118.165608 250.905447,118.165608 C249.966478,118.165608 249.040988,117.965684 248.131221,117.570329 C247.221455,117.170481 246.403789,116.56397 245.675976,115.755289 C244.952655,114.944362 244.359623,113.920032 243.905863,112.682301 C243.449856,111.444569 243.225223,109.970973 243.225223,108.263757 C243.225223,106.614946 243.449856,105.170552 243.905863,103.930574 C244.359623,102.695089 244.952655,101.657282 245.675976,100.817152 C246.403789,99.9792683 247.228194,99.3502941 248.153685,98.9392145 C249.076929,98.5258886 250.009159,98.3192256 250.948127,98.3192256 C252.143178,98.3192256 253.266347,98.6337127 254.319878,99.2581943 C255.37341,99.8849221 256.240496,100.837369 256.923382,102.117781 L254.661321,103.739635 C254.26372,102.288502 253.666194,101.172073 252.868745,100.388101 C252.071296,99.6063764 251.262614,99.2155139 250.435963,99.2155139 C249.894596,99.2155139 249.362214,99.3952208 248.836571,99.7501419 C248.308682,100.105063 247.839198,100.653169 247.428118,101.392214 C247.014792,102.133505 246.689073,103.070227 246.446469,104.20912 C246.203865,105.348012 246.082563,106.700307 246.082563,108.263757" id="Fill-50" fill="#313233"></path>
                    <path d="M262.642779,101.136356 C263.15719,100.253546 263.815367,99.593123 264.628541,99.1505947 C265.437222,98.7103128 266.299815,98.4901718 267.209581,98.4901718 C268.431588,98.4901718 269.586205,98.845093 270.666693,99.5571816 L269.343601,101.435119 C268.860639,100.922954 268.361952,100.54557 267.849787,100.305212 C267.337623,100.062607 266.825458,99.9413052 266.313293,99.9413052 C265.545046,99.9413052 264.835204,100.204127 264.179274,100.729769 C263.52559,101.257658 263.011179,102.019166 262.642779,103.014293 L262.642779,115.092844 C262.642779,116.687743 262.928064,117.64019 263.496387,117.952431 L263.496387,117.995111 L259.356389,117.995111 L259.356389,117.952431 C259.89551,117.667146 260.180795,116.75738 260.209997,115.220886 L260.209997,101.60584 C260.180795,100.808391 260.102173,100.276009 259.976378,100.004203 C259.848337,99.7346422 259.639428,99.5279793 259.356389,99.3864601 L259.356389,99.3437797 L261.66113,98.7035738 L262.130615,98.5328522 C262.272134,98.5036499 262.393436,98.5261132 262.494521,98.5957496 C262.59336,98.6676324 262.642779,98.7732102 262.642779,98.9169758 L262.642779,101.136356 Z" id="Fill-52" fill="#313233"></path>
                    <path d="M274.126725,108.263757 C274.126725,108.919687 274.169406,109.528444 274.254766,110.099014 C275.049969,108.989324 276.06756,108.128977 277.305291,107.517973 C278.543023,106.90697 280.099734,106.513861 281.979917,106.345386 C281.948469,105.601848 281.885571,104.815631 281.786732,103.975501 C281.685647,103.135371 281.508187,102.367124 281.254351,101.668513 C280.998268,100.972149 280.64784,100.397087 280.207558,99.9410805 C279.767276,99.4873206 279.189968,99.2581943 278.477879,99.2581943 C277.768037,99.2581943 277.13457,99.5210156 276.579725,100.048905 C276.02488,100.574547 275.57112,101.257434 275.213952,102.097564 C274.856785,102.935447 274.587224,103.896879 274.403025,104.977367 C274.218825,106.060101 274.126725,107.154067 274.126725,108.263757 M274.551283,111.720869 C274.780409,112.603679 275.09265,113.358448 275.490251,113.98293 C275.890099,114.609657 276.33712,115.121822 276.835807,115.519424 C277.334494,115.917025 277.860136,116.209049 278.414981,116.393249 C278.969827,116.579695 279.515686,116.671794 280.0593,116.671794 C280.969066,116.671794 281.815935,116.424697 282.59766,115.923764 C283.379385,115.427324 283.927491,114.724221 284.241978,113.812208 L284.924864,114.153651 C284.410453,115.463265 283.608511,116.458392 282.512299,117.141279 C281.416087,117.824165 280.230021,118.165608 278.947363,118.165608 C278.010641,118.165608 277.082904,117.965684 276.173138,117.570329 C275.263371,117.170481 274.447951,116.56397 273.720138,115.755289 C272.994572,114.944362 272.403785,113.920032 271.947779,112.682301 C271.494019,111.444569 271.267139,109.970973 271.267139,108.263757 C271.267139,107.010301 271.415397,105.795033 271.71416,104.615707 C272.015169,103.43638 272.46219,102.382848 273.057469,101.457358 C273.657241,100.534113 274.409764,99.7860833 275.31953,99.2155139 C276.231542,98.6471908 277.282828,98.361906 278.477879,98.361906 C279.589815,98.361906 280.549001,98.6045104 281.359929,99.0874727 C282.170856,99.5726814 282.840264,100.233104 283.365907,101.073234 C283.893796,101.913364 284.282412,102.881535 284.540741,103.975501 C284.796823,105.069467 284.924864,106.215098 284.924864,107.410149 L282.617877,107.410149 C280.51306,107.553915 278.821568,107.971733 277.541157,108.670344 C276.258498,109.366708 275.263371,110.384299 274.551283,111.720869" id="Fill-54" fill="#313233"></path>
                    <path d="M297.38417,106.728161 L297.38417,105.640935 C297.38417,105.312969 297.368445,104.99399 297.341489,104.679503 C296.970844,105.44775 296.366579,106.117158 295.528696,106.683235 C294.688566,107.253804 293.841697,107.858069 292.988089,108.498275 C292.134481,109.13848 291.386451,109.877525 290.748492,110.717655 C290.108286,111.557785 289.78706,112.631534 289.78706,113.941148 C289.78706,114.624034 290.000462,115.156416 290.427266,115.540539 C290.854069,115.924663 291.39319,116.117848 292.04912,116.117848 C292.617444,116.117848 293.20823,115.947126 293.819234,115.605683 C294.432483,115.26424 295.007546,114.731858 295.548913,114.004045 C296.09028,113.278479 296.530562,112.332771 296.872005,111.166922 C297.213448,109.998827 297.38417,108.590374 297.38417,106.941563 L297.38417,106.728161 Z M302.292415,115.477642 C302.292415,116.358206 302.056549,117.020875 301.587065,117.461157 C301.117581,117.903685 300.600923,118.12158 300.030354,118.12158 C298.323138,118.12158 297.440328,117.083772 297.38417,115.008158 L297.38417,112.317047 C297.098885,113.341376 296.7215,114.217447 296.252016,114.943014 C295.782532,115.66858 295.272613,116.272845 294.717768,116.758054 C294.160677,117.243262 293.578876,117.598183 292.965626,117.822817 C292.354622,118.051943 291.763836,118.166507 291.195513,118.166507 C290.115025,118.166507 289.176056,117.795861 288.378607,117.056816 C287.583404,116.317772 287.183556,115.279964 287.183556,113.941148 L287.183556,113.896221 C287.183556,112.847182 287.453116,111.932923 287.994483,111.166922 C288.53585,110.398675 289.196273,109.715789 289.977998,109.116017 C290.76197,108.520738 291.593114,107.972632 292.475924,107.473945 C293.356488,106.975258 294.160677,106.46534 294.88849,105.937451 C295.614056,105.411808 296.175641,104.850224 296.573242,104.250452 C296.970844,103.655173 297.069682,102.943085 296.872005,102.116433 C296.588966,101.206666 296.204843,100.568707 295.719634,100.198061 C295.236672,99.8296623 294.6369,99.6432163 293.927058,99.6432163 C293.302576,99.6432163 292.603966,99.7622722 291.835719,100.004876 C291.067471,100.247481 290.213864,100.568707 289.274895,100.966308 L289.018813,100.409217 C290.155459,99.7555332 291.231454,99.2523538 292.242305,98.8974326 C293.25091,98.5380188 294.18314,98.3605582 295.036748,98.3605582 C296.487881,98.3605582 297.646991,98.9738081 298.516323,100.198061 C299.383409,101.422315 299.83043,103.470974 299.859632,106.344038 L299.859632,114.451066 C299.859632,115.08004 299.96521,115.569742 300.178612,115.924663 C300.39426,116.28183 300.740196,116.459291 301.225405,116.459291 C301.652209,116.459291 301.96445,116.117848 302.164373,115.434961 L302.292415,115.477642 Z" id="Fill-56" fill="#313233"></path>
                    <path d="M313.902605,114.623135 C313.417396,115.79123 312.723278,116.658316 311.811265,117.226639 C310.899253,117.794963 309.960284,118.080247 308.994359,118.080247 C307.996986,118.080247 307.116422,117.754528 306.348175,117.098598 C305.579928,116.444914 305.195804,115.434063 305.195804,114.06829 L305.195804,99.4715962 L303.872712,99.4715962 L303.872712,98.6629151 L305.195804,98.6629151 L305.195804,93.1548982 L307.201783,92.6000531 C307.3141,92.5438947 307.421924,92.5506337 307.520763,92.6202701 C307.621848,92.6921529 307.671267,92.799977 307.671267,92.9414962 L307.671267,98.6629151 L311.555183,98.6629151 L311.555183,99.4715962 L307.671267,99.4715962 L307.671267,112.873239 C307.671267,114.182854 307.934089,115.142039 308.459731,115.755289 C308.98762,116.366293 309.605363,116.671794 310.317452,116.671794 C310.885775,116.671794 311.463083,116.478609 312.047131,116.094486 C312.628932,115.710362 313.118633,115.148778 313.518481,114.409734 L313.902605,114.623135 Z" id="Fill-58" fill="#313233"></path>
                    <path d="M319.110511,115.007034 C319.110511,115.833686 319.180147,116.464907 319.323913,116.907435 C319.465432,117.347717 319.678834,117.639741 319.964119,117.78126 L319.964119,117.82394 L315.824121,117.82394 L315.824121,117.78126 C316.363241,117.495975 316.648526,116.545775 316.677729,114.921674 L316.677729,101.43467 C316.648526,100.639467 316.569904,100.104838 316.44411,99.8352781 C316.316068,99.5634714 316.107159,99.3568084 315.824121,99.2152892 L315.824121,99.1726088 L318.128862,98.532403 L318.598346,98.3616814 C318.739865,98.3032766 318.861168,98.319001 318.962253,98.4043618 C319.061092,98.4897226 319.110511,98.6042857 319.110511,98.7458049 L319.110511,115.007034 Z M316.722655,95.928899 C317.317934,95.4751391 317.495395,94.8192088 317.255037,93.965601 C317.010186,93.1119931 316.392444,92.2022269 315.397317,91.2340559 L317.531336,90.1243657 C318.355742,91.3194167 318.690446,92.4942506 318.533202,93.6443749 C318.378205,94.7989918 317.886258,95.6862947 317.061852,96.3130226 L316.722655,95.928899 Z" id="Fill-60" fill="#313233"></path>
                    <path d="M337.37727,98.6620166 L337.37727,98.704697 C337.121187,98.8462162 336.8067,99.0933132 336.438301,99.4504807 C336.067655,99.8076482 335.726212,100.396188 335.413972,101.22284 L329.908201,118.038915 L329.524077,118.038915 L323.290494,101.009438 C323.007455,100.324306 322.72891,99.8076482 322.459349,99.4504807 C322.187543,99.0933132 321.924721,98.8462162 321.670885,98.704697 L321.670885,98.6170898 L325.981605,98.6170898 L325.981605,98.704697 C325.467194,98.9607793 325.525599,99.913226 326.152326,101.564283 L330.463046,113.341825 L334.389642,101.606964 C334.558117,101.124001 334.63,100.708429 334.603044,100.369232 C334.573842,100.025543 334.49522,99.7425044 334.367179,99.5156244 C334.241384,99.2864981 334.088633,99.1090375 333.920158,98.9809963 C333.749436,98.8529552 333.589946,98.7608554 333.450673,98.704697 L333.450673,98.6620166 L337.37727,98.6620166 Z" id="Fill-62" fill="#313233"></path>
                    <path d="M342.411759,115.007034 C342.411759,115.833686 342.481395,116.464907 342.625161,116.907435 C342.76668,117.347717 342.980082,117.639741 343.265367,117.78126 L343.265367,117.82394 L339.125369,117.82394 L339.125369,117.78126 C339.664489,117.495975 339.949774,116.545775 339.978976,114.921674 L339.978976,101.43467 C339.949774,100.639467 339.871152,100.104838 339.745357,99.8352781 C339.617316,99.5634714 339.408407,99.3568084 339.125369,99.2152892 L339.125369,99.1726088 L341.43011,98.532403 L341.899594,98.3616814 C342.041113,98.3032766 342.162415,98.319001 342.263501,98.4043618 C342.362339,98.4897226 342.411759,98.6042857 342.411759,98.7458049 L342.411759,115.007034 Z M340.023903,95.928899 C340.619182,95.4751391 340.796643,94.8192088 340.556285,93.965601 C340.311434,93.1119931 339.693692,92.2022269 338.698565,91.2340559 L340.832584,90.1243657 C341.65699,91.3194167 341.991694,92.4942506 341.83445,93.6443749 C341.679453,94.7989918 341.187505,95.6862947 340.3631,96.3130226 L340.023903,95.928899 Z" id="Fill-64" fill="#313233"></path>
                    <path d="M355.856981,114.623135 C355.371772,115.79123 354.677654,116.658316 353.765642,117.226639 C352.853629,117.794963 351.91466,118.080247 350.948736,118.080247 C349.951362,118.080247 349.070799,117.754528 348.302551,117.098598 C347.534304,116.444914 347.150181,115.434063 347.150181,114.06829 L347.150181,99.4715962 L345.827089,99.4715962 L345.827089,98.6629151 L347.150181,98.6629151 L347.150181,93.1548982 L349.156159,92.6000531 C349.268476,92.5438947 349.3763,92.5506337 349.475139,92.6202701 C349.576224,92.6921529 349.625644,92.799977 349.625644,92.9414962 L349.625644,98.6629151 L353.509559,98.6629151 L353.509559,99.4715962 L349.625644,99.4715962 L349.625644,112.873239 C349.625644,114.182854 349.888465,115.142039 350.414108,115.755289 C350.941997,116.366293 351.559739,116.671794 352.271828,116.671794 C352.840151,116.671794 353.41746,116.478609 354.001507,116.094486 C354.583308,115.710362 355.073009,115.148778 355.472857,114.409734 L355.856981,114.623135 Z" id="Fill-66" fill="#313233"></path>
                    <path d="M371.903685,98.6620166 L371.903685,98.704697 C371.674559,98.8462162 371.389274,99.0753425 371.047831,99.3853369 C370.708634,99.699824 370.380669,100.225467 370.068428,100.964511 C369.8101,101.732758 369.518076,102.644771 369.192357,103.696057 C368.864392,104.749588 368.509471,105.859279 368.125347,107.027373 C367.741224,108.193222 367.350361,109.395012 366.95276,110.632743 C366.552912,111.870475 366.168788,113.065526 365.798143,114.217896 C365.429744,115.370267 365.0883,116.437277 364.773813,117.418926 C364.461573,118.400575 364.189766,119.231719 363.965132,119.916852 C363.565284,121.280378 363.089061,122.396807 362.534216,123.26614 C361.979371,124.133225 361.446989,124.822851 360.932578,125.337262 C360.364255,125.934787 359.782454,126.404272 359.184928,126.745715 L357.520393,124.355613 C358.374001,124.070328 359.169204,123.713161 359.908249,123.288603 C360.564179,122.888755 361.195399,122.385576 361.808649,121.772326 C362.419653,121.161322 362.86892,120.399814 363.151958,119.487802 C363.266522,119.175561 363.381085,118.840857 363.495648,118.485936 C363.607965,118.128768 363.736006,117.737906 363.879771,117.313348 L358.030311,101.564283 C357.718071,100.708429 357.412569,100.054745 357.113806,99.6009852 C356.815043,99.1449789 356.507295,98.8462162 356.197301,98.704697 L356.197301,98.6170898 L360.50802,98.6170898 L360.50802,98.704697 C359.993609,98.9607793 360.052014,99.913226 360.678742,101.564283 L365.074822,113.427186 L365.029896,113.642834 C365.373585,112.618505 365.719521,111.549249 366.076689,110.439559 C366.43161,109.332115 366.782038,108.251627 367.121235,107.198095 C367.462678,106.144563 367.790643,105.142697 368.10513,104.188004 C368.417371,103.235558 368.700409,102.372964 368.956492,101.606964 L368.916058,101.606964 C369.084533,101.124001 369.156416,100.708429 369.12946,100.369232 C369.100257,100.025543 369.021636,99.7425044 368.893594,99.5156244 C368.7678,99.2864981 368.615049,99.1090375 368.446573,98.9809963 C368.275852,98.8529552 368.116362,98.7608554 367.977089,98.704697 L367.977089,98.6620166 L371.903685,98.6620166 Z" id="Fill-68" fill="#313233"></path>
                    <path d="M393.755148,106.728161 L393.755148,105.640935 C393.755148,105.312969 393.739423,104.99399 393.712467,104.679503 C393.341822,105.44775 392.737557,106.117158 391.899674,106.683235 C391.059544,107.253804 390.212675,107.858069 389.359067,108.498275 C388.505459,109.13848 387.757429,109.877525 387.11947,110.717655 C386.479264,111.557785 386.158038,112.631534 386.158038,113.941148 C386.158038,114.624034 386.37144,115.156416 386.798244,115.540539 C387.225048,115.924663 387.764168,116.117848 388.420099,116.117848 C388.988422,116.117848 389.579208,115.947126 390.190212,115.605683 C390.803461,115.26424 391.378524,114.731858 391.919891,114.004045 C392.461258,113.278479 392.90154,112.332771 393.242983,111.166922 C393.584426,109.998827 393.755148,108.590374 393.755148,106.941563 L393.755148,106.728161 Z M398.663393,115.477642 C398.663393,116.358206 398.427527,117.020875 397.958043,117.461157 C397.488559,117.903685 396.971901,118.12158 396.401332,118.12158 C394.694116,118.12158 393.811306,117.083772 393.755148,115.008158 L393.755148,112.317047 C393.469863,113.341376 393.092478,114.217447 392.622994,114.943014 C392.15351,115.66858 391.643591,116.272845 391.088746,116.758054 C390.531655,117.243262 389.949854,117.598183 389.336604,117.822817 C388.7256,118.051943 388.134814,118.166507 387.566491,118.166507 C386.486003,118.166507 385.547034,117.795861 384.749585,117.056816 C383.954382,116.317772 383.554534,115.279964 383.554534,113.941148 L383.554534,113.896221 C383.554534,112.847182 383.824094,111.932923 384.365461,111.166922 C384.906828,110.398675 385.567251,109.715789 386.348976,109.116017 C387.132948,108.520738 387.964092,107.972632 388.846902,107.473945 C389.727466,106.975258 390.531655,106.46534 391.259468,105.937451 C391.985034,105.411808 392.546619,104.850224 392.94422,104.250452 C393.341822,103.655173 393.44066,102.943085 393.242983,102.116433 C392.959944,101.206666 392.575821,100.568707 392.090612,100.198061 C391.60765,99.8296623 391.007878,99.6432163 390.298036,99.6432163 C389.673554,99.6432163 388.974944,99.7622722 388.206697,100.004876 C387.438449,100.247481 386.584842,100.568707 385.645873,100.966308 L385.389791,100.409217 C386.526437,99.7555332 387.602432,99.2523538 388.613283,98.8974326 C389.621889,98.5380188 390.554118,98.3605582 391.407726,98.3605582 C392.858859,98.3605582 394.017969,98.9738081 394.887301,100.198061 C395.754387,101.422315 396.201408,103.470974 396.23061,106.344038 L396.23061,114.451066 C396.23061,115.08004 396.336188,115.569742 396.54959,115.924663 C396.765238,116.28183 397.111174,116.459291 397.596383,116.459291 C398.023187,116.459291 398.335428,116.117848 398.535351,115.434961 L398.663393,115.477642 Z" id="Fill-70" fill="#313233"></path>
                    <path d="M415.095344,115.476519 C415.124546,116.729974 415.394106,117.495975 415.906271,117.78126 L415.906271,117.82394 L411.768519,117.82394 L411.768519,117.78126 C412.334596,117.495975 412.619881,116.53005 412.619881,114.878993 L412.619881,103.739411 C412.619881,102.259075 412.255974,101.201051 411.532654,100.558598 C410.807087,99.9183925 409.960219,99.6016591 408.992048,99.6016591 C408.482129,99.6016591 407.974457,99.6780345 407.475771,99.8352781 C406.97933,99.9902753 406.503107,100.212663 406.049347,100.495701 C405.593341,100.780986 405.202478,101.129168 404.874513,101.542494 C404.546548,101.953573 404.297204,102.402841 404.126483,102.888049 L404.086049,102.843123 L404.086049,115.007034 C404.110759,116.572731 404.396043,117.495975 404.939657,117.78126 L404.939657,117.82394 L400.799659,117.82394 L400.799659,117.78126 C401.367982,117.469019 401.653266,116.516572 401.653266,114.921674 L401.653266,101.43467 C401.624064,100.639467 401.545442,100.104838 401.417401,99.8352781 C401.28936,99.5634714 401.082697,99.3568084 400.799659,99.2152892 L400.799659,99.1726088 L403.102153,98.532403 L403.571638,98.3616814 C403.715403,98.3032766 403.834459,98.319001 403.935544,98.4043618 C404.034383,98.4897226 404.086049,98.6042857 404.086049,98.7458049 L404.086049,101.093226 C404.654372,100.212663 405.472038,99.520791 406.536802,99.0243506 C407.606058,98.525664 408.706763,98.2763206 409.845655,98.2763206 C410.528542,98.2763206 411.175487,98.3774057 411.78649,98.5773297 C412.39974,98.772761 412.947846,99.0872481 413.430808,99.5162983 C413.916017,99.9408559 414.304633,100.488962 414.605642,101.15837 C414.904405,101.827779 415.066141,102.629721 415.095344,103.568689 L415.095344,115.476519 Z" id="Fill-72" fill="#313233"></path>
                    <path d="M430.545421,102.671952 C430.145573,101.676825 429.590728,100.901839 428.880886,100.346994 C428.168797,99.7921484 427.40055,99.5158491 426.573898,99.5158491 C425.949417,99.5158491 425.338413,99.6843243 424.740888,100.025767 C424.141116,100.369457 423.608734,100.888361 423.13925,101.584725 C422.669766,102.281089 422.285642,103.179624 421.986879,104.27359 C421.690363,105.367555 421.539858,106.683909 421.539858,108.222649 C421.539858,109.756897 421.690363,111.07325 421.986879,112.169462 C422.285642,113.265674 422.669766,114.159716 423.13925,114.858327 C423.608734,115.554691 424.141116,116.075841 424.740888,116.415038 C425.338413,116.758728 425.949417,116.929449 426.573898,116.929449 C427.40055,116.929449 428.168797,116.650903 428.880886,116.096058 C429.590728,115.541213 430.145573,114.766227 430.545421,113.768854 L430.545421,102.671952 Z M435.410986,115.435635 C435.410986,116.345402 435.177367,117.01481 434.707883,117.439367 C434.238398,117.868418 433.717248,118.079573 433.148925,118.079573 C431.612431,118.079573 430.743099,117.255168 430.545421,115.606357 C430.060212,116.430762 429.413268,117.048505 428.604586,117.461831 C427.791413,117.875157 426.931066,118.079573 426.019053,118.079573 C425.165445,118.079573 424.307345,117.886388 423.438013,117.504511 C422.570927,117.120388 421.782463,116.522862 421.070374,115.711935 C420.358285,114.901007 419.783223,113.876678 419.342941,112.638947 C418.898167,111.401215 418.680272,109.927618 418.680272,108.222649 C418.680272,106.513187 418.898167,105.035098 419.342941,103.781642 C419.783223,102.532679 420.358285,101.499364 421.070374,100.688437 C421.782463,99.8775092 422.570927,99.2799837 423.438013,98.8958602 C424.307345,98.5094903 425.165445,98.3207981 426.019053,98.3207981 C426.931066,98.3207981 427.791413,98.5252147 428.604586,98.9385406 C429.413268,99.3496202 430.060212,99.956131 430.545421,100.75358 L430.545421,90.7641223 C430.516219,89.9689192 430.437597,89.4342911 430.311802,89.1647307 C430.181515,88.892924 429.974852,88.6862611 429.691813,88.5447419 L429.691813,88.5020615 L431.996554,87.8618556 L432.463792,87.691134 C432.607558,87.664178 432.72886,87.684395 432.829945,87.7540315 C432.928784,87.8281606 432.978203,87.9337384 432.978203,88.0752576 L432.978203,114.496667 C433.007406,115.091946 433.119723,115.56143 433.3174,115.90512 C433.517324,116.244317 433.861014,116.415038 434.34173,116.415038 C434.799982,116.415038 435.112223,116.089319 435.280698,115.435635 L435.410986,115.435635 Z" id="Fill-74" fill="#313233"></path>
                    <path d="M448.983351,95.9286744 C449.607832,95.4749144 449.794278,94.8189842 449.538196,93.9653763 C449.282113,93.1117685 448.655385,92.2020022 447.660258,91.2338312 L449.836958,90.124141 C450.632162,91.319192 450.953388,92.494026 450.79839,93.6441502 C450.641147,94.7987672 450.151446,95.6883164 449.324794,96.3127979 L448.983351,95.9286744 Z M450.903968,98.3614568 C451.045487,98.3345007 451.16679,98.3547177 451.267875,98.4243542 C451.366714,98.4984833 451.416133,98.6040611 451.416133,98.7455803 L451.416133,117.823716 C451.416133,119.247893 451.274614,120.472146 450.991575,121.494229 C450.706291,122.518559 450.270501,123.387891 449.686454,124.097733 C449.104653,124.807576 448.372347,125.400608 447.489537,125.870093 C446.606727,126.339577 445.568919,126.714715 444.373868,127 L444.288507,126.701237 C445.198274,126.330592 445.953043,125.89031 446.550568,125.378145 C447.148094,124.86598 447.626563,124.252731 447.981485,123.542888 C448.336406,122.833046 448.583503,122.013133 448.727268,121.089889 C448.868787,120.164398 448.94067,119.077171 448.94067,117.823716 L448.94067,101.434445 C448.94067,100.639242 448.875526,100.104614 448.749732,99.8350535 C448.62169,99.5632468 448.399303,99.3565838 448.089309,99.2150646 L448.089309,99.1723842 L450.903968,98.3614568 Z" id="Fill-76" fill="#313233"></path>
                    <path d="M462.16957,117.183285 C463.137741,117.183285 463.948669,116.743003 464.602352,115.860193 C465.256036,114.979629 465.747984,113.876678 466.073703,112.551339 C466.401668,111.230494 466.565651,109.801824 466.565651,108.263083 C466.565651,106.728835 466.401668,105.297919 466.073703,103.974827 C465.747984,102.651735 465.256036,101.548784 464.602352,100.665973 C463.948669,99.7854094 463.137741,99.3451275 462.16957,99.3451275 C461.201399,99.3451275 460.399457,99.7854094 459.759251,100.665973 C459.119045,101.548784 458.633837,102.651735 458.305871,103.974827 C457.980153,105.297919 457.818416,106.728835 457.818416,108.263083 C457.818416,109.801824 457.980153,111.230494 458.305871,112.551339 C458.633837,113.876678 459.119045,114.979629 459.759251,115.860193 C460.399457,116.743003 461.201399,117.183285 462.16957,117.183285 M462.16957,98.3612321 C463.791425,98.3612321 465.134734,98.8531798 466.20399,99.8348288 C467.271,100.816478 468.066203,102.040731 468.591846,103.505343 C469.119735,104.969954 469.389295,106.562606 469.40502,108.285547 C469.418498,110.008487 469.15343,111.601139 468.614309,113.06575 C468.072942,114.530362 467.271,115.754615 466.20399,116.736264 C465.134734,117.717913 463.791425,118.207615 462.16957,118.207615 C460.576918,118.207615 459.238101,117.717913 458.157613,116.736264 C457.074879,115.754615 456.263952,114.530362 455.724831,113.06575 C455.18571,111.601139 454.920642,110.008487 454.93412,108.285547 C454.949845,106.562606 455.219405,104.969954 455.747294,103.505343 C456.272937,102.040731 457.074879,100.816478 458.157613,99.8348288 C459.238101,98.8531798 460.576918,98.3612321 462.16957,98.3612321" id="Fill-78" fill="#313233"></path>
                    <path d="M485.773849,98.6620166 L485.773849,98.704697 C485.544722,98.8462162 485.259438,99.0753425 484.917995,99.3853369 C484.578798,99.699824 484.250833,100.225467 483.938592,100.964511 C483.680263,101.732758 483.388239,102.644771 483.062521,103.696057 C482.734556,104.749588 482.379634,105.859279 481.995511,107.027373 C481.611387,108.193222 481.220525,109.395012 480.822923,110.632743 C480.423075,111.870475 480.038952,113.065526 479.668306,114.217896 C479.299907,115.370267 478.958464,116.437277 478.643977,117.418926 C478.331736,118.400575 478.059929,119.231719 477.835296,119.916852 C477.435448,121.280378 476.959225,122.396807 476.404379,123.26614 C475.849534,124.133225 475.317153,124.822851 474.802742,125.337262 C474.234418,125.934787 473.652617,126.404272 473.055092,126.745715 L471.390557,124.355613 C472.244164,124.070328 473.039367,123.713161 473.778412,123.288603 C474.434342,122.888755 475.065563,122.385576 475.678813,121.772326 C476.289816,121.161322 476.739084,120.399814 477.022122,119.487802 C477.136685,119.175561 477.251248,118.840857 477.365811,118.485936 C477.478128,118.128768 477.606169,117.737906 477.749935,117.313348 L471.900475,101.564283 C471.588234,100.708429 471.282732,100.054745 470.98397,99.6009852 C470.685207,99.1449789 470.377459,98.8462162 470.067464,98.704697 L470.067464,98.6170898 L474.378184,98.6170898 L474.378184,98.704697 C473.863773,98.9607793 473.922178,99.913226 474.548906,101.564283 L478.944986,113.427186 L478.900059,113.642834 C479.243749,112.618505 479.589685,111.549249 479.946852,110.439559 C480.301773,109.332115 480.652202,108.251627 480.991398,107.198095 C481.332842,106.144563 481.660807,105.142697 481.975294,104.188004 C482.287535,103.235558 482.570573,102.372964 482.826655,101.606964 L482.786221,101.606964 C482.954697,101.124001 483.026579,100.708429 482.999623,100.369232 C482.970421,100.025543 482.891799,99.7425044 482.763758,99.5156244 C482.637963,99.2864981 482.485212,99.1090375 482.316737,98.9809963 C482.146015,98.8529552 481.986526,98.7608554 481.847253,98.704697 L481.847253,98.6620166 L485.773849,98.6620166 Z" id="Fill-80" fill="#313233"></path>
                </g>
            </g>
        </g>
    </g>
</svg>