<?xml version="1.0" encoding="UTF-8"?>
<svg width="20px" height="18px" viewBox="0 0 20 18" version="1.1" xmlns="http://www.w3.org/2000/svg" xmlns:xlink="http://www.w3.org/1999/xlink">
    <title></title>
    <g id="Page-1" stroke="none" stroke-width="1" fill="none" fill-rule="evenodd">
        <g id="Home-Logo-1---d-Copy-15" transform="translate(-1123.000000, -53.000000)" fill="#FFFFFF" fill-rule="nonzero">
            <path d="M1139.37496,70.1249949 C1139.88408,70.1249949 1140.32125,69.9423782 1140.68648,69.5771447 C1141.05172,69.2119112 1141.23433,68.7747376 1141.23433,68.2656244 C1141.23433,67.9114584 1141.14026,67.5849619 1140.95211,67.2861345 C1140.76396,66.9873071 1140.50387,66.7604198 1140.17184,66.6054721 L1140.17184,66.6054721 L1140.37105,65.7753959 C1140.41532,65.5319071 1140.35999,65.3105533 1140.20504,65.111335 C1140.05009,64.9121167 1139.85087,64.8125076 1139.60738,64.8125076 L1139.60738,64.8125076 L1130.67576,64.8125076 L1130.47655,63.7500101 L1140.20504,63.7500101 C1140.38212,63.7500101 1140.5426,63.6946716 1140.68648,63.5839949 C1140.83036,63.4733183 1140.92444,63.3183705 1140.96871,63.1191523 L1140.96871,63.1191523 L1142.52925,56.2129187 C1142.59566,55.9694299 1142.55139,55.7480761 1142.39644,55.5488578 C1142.24149,55.3496395 1142.03121,55.2500304 1141.76558,55.2500304 L1141.76558,55.2500304 L1128.71678,55.2500304 L1128.41796,53.7558933 C1128.37369,53.5788106 1128.27961,53.4293969 1128.13573,53.3076522 C1127.99185,53.1859075 1127.83137,53.1250355 1127.65429,53.1250355 L1127.65429,53.1250355 L1124.23437,53.1250355 C1124.01302,53.1250355 1123.82487,53.2025091 1123.66992,53.3574568 C1123.51497,53.5124045 1123.4375,53.7005548 1123.4375,53.9219086 L1123.4375,53.9219086 L1123.4375,54.4531573 C1123.4375,54.6745111 1123.51497,54.8626614 1123.66992,55.0176091 C1123.82487,55.1725568 1124.01302,55.2500304 1124.23437,55.2500304 L1124.23437,55.2500304 L1126.55859,55.2500304 L1128.8828,66.6386751 C1128.59504,66.8157579 1128.36815,67.0481792 1128.20214,67.3359391 C1128.03612,67.623699 1127.95311,67.9335939 1127.95311,68.2656244 C1127.95311,68.7747376 1128.13573,69.2119112 1128.50096,69.5771447 C1128.8662,69.9423782 1129.30337,70.1249949 1129.81248,70.1249949 C1130.3216,70.1249949 1130.75877,69.9423782 1131.12401,69.5771447 C1131.48924,69.2119112 1131.67186,68.7692041 1131.67186,68.2490228 C1131.67186,67.7288416 1131.4837,67.2916685 1131.1074,66.9375025 L1131.1074,66.9375025 L1138.08004,66.9375025 C1137.70374,67.2916685 1137.51559,67.7288416 1137.51559,68.2490228 C1137.51559,68.7692041 1137.69821,69.2119112 1138.06344,69.5771447 C1138.42868,69.9423782 1138.86585,70.1249949 1139.37496,70.1249949 Z" id=""></path>
        </g>
    </g>
</svg>