<?xml version="1.0" encoding="UTF-8"?>
<svg width="506px" height="115px" viewBox="0 0 506 115" version="1.1" xmlns="http://www.w3.org/2000/svg" xmlns:xlink="http://www.w3.org/1999/xlink">
    <title>Group 4</title>
    <defs>
        <polygon id="path-1" points="0.000241944371 -0.000155336993 505.182 -0.000155336993 505.182 7.02641197 0.000241944371 7.02641197"></polygon>
    </defs>
    <g id="Page-1" stroke="none" stroke-width="1" fill="none" fill-rule="evenodd">
        <g id="About-Us" transform="translate(-364.000000, -3222.000000)">
            <g id="Group-4" transform="translate(364.000000, 3223.495751)">
                <g id="Group-3-Copy-5" transform="translate(0.000000, 48.000000)">
                    <mask id="mask-2" fill="white">
                        <use xlink:href="#path-1"></use>
                    </mask>
                    <g id="Clip-2"></g>
                    <path d="M23.4258,2.93199 C32.1808,2.42199 40.3278,1.91899 49.0348,2.68199 C65.4538,4.12199 81.8288,5.48999 98.3168,5.06999 C114.3458,4.66099 130.3838,4.28399 146.4008,3.49399 C154.5038,3.09399 162.7728,2.03799 170.8648,2.81299 C179.1368,3.60499 187.4288,4.63899 195.7288,5.08499 C212.6278,5.99299 229.6798,7.65099 246.5868,6.78199 C263.9948,5.88799 280.6068,4.46699 297.7258,4.70099 C314.1318,4.92699 330.5448,4.74299 346.9518,4.63799 C362.8128,4.53599 378.4578,3.89399 394.2868,5.06999 C410.1948,6.25099 426.0498,5.78699 441.9548,4.64899 C458.3948,3.47199 474.8178,4.09299 491.6868,3.26699 C495.7328,3.06799 499.7788,2.86999 503.8248,2.67199 C505.3088,2.59899 505.7768,-0.02901 504.2048,0.04799 C496.1128,0.44399 488.0018,1.06499 479.9028,1.23899 C471.6188,1.41699 463.3058,0.81699 455.0268,1.12699 C438.2108,1.75799 422.8708,3.78299 405.9998,3.32399 C397.5208,3.09299 389.0748,1.70499 380.5958,1.45099 C372.2918,1.20199 363.8978,1.85899 355.5898,2.00899 C339.0458,2.30999 322.4858,2.20199 305.9398,2.20899 C298.0988,2.21199 290.2438,1.76699 282.4058,1.90799 C274.9398,2.04099 266.8918,3.09199 259.7778,3.53699 C252.5298,3.98999 244.2088,4.82499 236.6088,4.57699 C228.4328,4.30999 220.2588,3.73199 212.0888,3.30499 C204.0048,2.88199 195.9358,2.53399 187.8778,1.77099 C179.7738,1.00299 171.6028,-0.34201 163.4608,0.07999 C146.8728,0.93999 130.2938,1.70299 113.6918,2.23499 C96.8728,2.77399 80.4318,2.90999 63.6278,1.81499 C55.7008,1.29799 47.5718,-0.10801 39.6348,0.09299 C30.9888,0.31199 22.5488,1.60099 14.0018,1.62399 C9.5448,1.63699 5.0868,1.64499 0.6298,1.65499 C-0.0552,1.65599 -0.2782,2.85499 0.4548,2.86299 C8.0968,2.95099 15.7938,3.37599 23.4258,2.93199 Z" id="Fill-1" fill="#BFB047" mask="url(#mask-2)"></path>
                </g>
                <g id="Group-2-Copy" transform="translate(199.500000, 0.000000)">
                    <rect id="Rectangle" stroke="#A89934" stroke-width="2" fill="#FFFFFF" x="0.5" y="0" width="106" height="112"></rect>
                    <text id="Farm-to-Finish" font-family="PitchSansTest-Bold, Pitch Sans Test" font-size="15" font-weight="bold" fill="#A89934">
                        <tspan x="35.08" y="31.9705882">Farm </tspan>
                        <tspan x="44.29" y="57.3545882">to </tspan>
                        <tspan x="25.87" y="82.7385882">Finish</tspan>
                    </text>
                </g>
            </g>
        </g>
    </g>
</svg>