<?xml version="1.0" encoding="UTF-8"?>
<svg width="86px" height="77px" viewBox="0 0 86 77" version="1.1" xmlns="http://www.w3.org/2000/svg" xmlns:xlink="http://www.w3.org/1999/xlink">
    <title>Group</title>
    <g id="Page-1" stroke="none" stroke-width="1" fill="none" fill-rule="evenodd">
        <g id="Home-Logo-1---d-Copy-15" transform="translate(-22.000000, -23.000000)">
            <g id="Group" transform="translate(23.447619, 25.555429)">
                <path d="M25.9515048,23.0857143 L25.9515048,19.3465143 L30.6027048,19.3465143 L30.6027048,17.9177143 L25.9515048,17.9177143 L25.9515048,16.3065143 L26.4075048,15.8505143 L31.2715048,15.8505143 L31.2715048,14.4217143 L24.4163048,14.4217143 L24.4163048,23.0857143 L25.9515048,23.0857143 Z M39.6467048,23.2985143 C40.3307048,23.2985143 40.7715048,23.0553143 41.5011048,22.4017143 L40.8171048,21.3985143 C40.3611048,21.7481143 40.1787048,21.9001143 39.9659048,21.9001143 C39.6619048,21.9001143 39.6011048,21.7025143 39.6011048,21.4137143 L39.6011048,18.7841143 C39.6011048,17.4617143 38.7955048,16.4281143 36.8651048,16.4281143 C35.5123048,16.4281143 34.1747048,16.8233143 33.1411048,17.7353143 L33.8859048,18.9817143 C34.6915048,18.2521143 35.6795048,17.7961143 36.6979048,17.7961143 C37.7923048,17.7961143 38.1267048,18.1609143 38.1267048,18.7233143 L38.1267048,18.7841143 L35.1171048,19.5441143 C33.7187048,19.8937143 33.0043048,20.5777143 33.0043048,21.5505143 C33.0043048,22.6905143 33.8555048,23.2985143 35.1627048,23.2985143 C36.1963048,23.2985143 37.0627048,22.8121143 37.7619048,22.3409143 L38.2331048,22.3409143 C38.4763048,22.9337143 39.0387048,23.2985143 39.6467048,23.2985143 Z M35.3755048,22.0217143 C34.9043048,22.0217143 34.6155048,21.8393143 34.6155048,21.4137143 C34.6155048,21.0033143 35.0107048,20.7753143 35.4211048,20.6689143 L37.7771048,20.0913143 L38.1267048,20.3041143 L38.1267048,20.7449143 C37.2755048,21.4137143 36.2723048,22.0217143 35.3755048,22.0217143 Z M44.7387048,23.0857143 L44.7387048,19.9545143 C45.8483048,18.6473143 46.6387048,17.8873143 47.4291048,17.8873143 C48.2651048,17.8873143 48.5691048,18.5561143 48.7819048,19.3465143 L50.1955048,18.7233143 C49.8459048,17.3705143 49.1011048,16.4281143 47.7179048,16.4281143 C46.7147048,16.4281143 45.8483048,16.9905143 45.0883048,17.8265143 L44.7387048,17.8265143 L44.7387048,16.6409143 L43.1883048,16.6409143 L43.1883048,23.0857143 L44.7387048,23.0857143 Z M53.1443048,23.0857143 L53.1443048,19.3161143 C53.5851048,18.5561143 53.9347048,17.9025143 54.3907048,17.9025143 C54.8163048,17.9025143 54.8619048,18.3129143 54.8619048,18.7233143 L54.8619048,23.0857143 L56.3667048,23.0857143 L56.3667048,19.3161143 C56.8075048,18.5561143 57.1571048,17.9025143 57.6131048,17.9025143 C58.0387048,17.9025143 58.0843048,18.3129143 58.0843048,18.7233143 L58.0843048,23.0857143 L59.5891048,23.0857143 L59.5891048,18.1913143 C59.5891048,17.2033143 59.0419048,16.4281143 58.1147048,16.4281143 C57.3851048,16.4281143 56.8987048,16.8841143 56.5187048,17.3705143 L56.2299048,17.3705143 C56.0171048,16.8233143 55.6067048,16.4281143 54.9683048,16.4281143 C54.2387048,16.4281143 53.7827048,16.8841143 53.4027048,17.3705143 L53.1443048,17.3705143 L53.1443048,16.6409143 L51.6395048,16.6409143 L51.6395048,23.0857143 L53.1443048,23.0857143 Z M42.4413969,38.8339418 L42.4413969,35.6276918 L45.6328032,35.6276918 L45.6328032,33.8612855 L42.4413969,33.8612855 L42.4413969,30.6698793 L40.6824126,30.6698793 L40.6824126,33.8612855 L37.4761626,33.8612855 L37.4761626,35.6276918 L40.6824126,35.6276918 L40.6824126,38.8339418 L42.4413969,38.8339418 Z M18.5491048,56.1605943 C20.2059048,56.1605943 21.2699048,55.3701943 22.1211048,53.8805943 L20.8443048,52.9077943 C20.2059048,53.9565943 19.5523048,54.6405943 18.5339048,54.6405943 C16.8923048,54.6405943 16.1019048,53.2877943 16.1019048,51.6157943 C16.1019048,49.9437943 16.8923048,48.5909943 18.5339048,48.5909943 C19.5523048,48.5909943 20.2059048,49.2749943 20.8443048,50.3237943 L22.1211048,49.3509943 C21.2699048,47.8613943 20.2059048,47.0709943 18.5491048,47.0709943 C16.2843048,47.0709943 14.4755048,48.9253943 14.4755048,51.6157943 C14.4755048,54.3061943 16.2843048,56.1605943 18.5491048,56.1605943 Z M27.6387048,48.3021943 C28.3987048,48.3021943 28.9611048,47.7397943 28.9611048,47.0253943 C28.9611048,46.2653943 28.3987048,45.7029943 27.6387048,45.7029943 C26.9243048,45.7029943 26.3619048,46.2653943 26.3619048,47.0253943 C26.3619048,47.7397943 26.9243048,48.3021943 27.6387048,48.3021943 Z M31.1195048,55.9477943 L31.1195048,54.6709943 L29.0219048,54.6709943 L28.6267048,54.2757943 L28.6267048,49.5029943 L24.3099048,49.5029943 L24.3099048,50.7797943 L26.8635048,50.7797943 L27.2587048,51.1749943 L27.2587048,54.2757943 L26.8635048,54.6709943 L24.3099048,54.6709943 L24.3099048,55.9477943 L31.1195048,55.9477943 Z M36.1963048,56.1605943 C37.1235048,56.1605943 37.8987048,55.7653943 38.2787048,55.3549943 L38.6435048,55.3549943 L38.6435048,55.9477943 L40.1939048,55.9477943 L40.1939048,46.6301943 L38.6435048,46.6301943 L38.6435048,50.0957943 L38.2787048,50.0957943 C37.8987048,49.6853943 37.1235048,49.2901943 36.1963048,49.2901943 C34.2507048,49.2901943 32.8675048,50.8101943 32.8675048,52.7253943 C32.8675048,54.6405943 34.2507048,56.1605943 36.1963048,56.1605943 Z M36.4091048,54.7773943 C35.2083048,54.7773943 34.4635048,53.8805943 34.4635048,52.7253943 C34.4635048,51.5701943 35.2083048,50.6733943 36.4091048,50.6733943 C37.4123048,50.6733943 38.1267048,51.2965943 38.6739048,52.0717943 L38.6739048,53.3789943 C38.1267048,54.1541943 37.4123048,54.7773943 36.4091048,54.7773943 Z M46.4715048,56.1605943 C47.5811048,56.1605943 48.6907048,55.7501943 49.8155048,54.8533943 L49.0555048,53.8197943 C48.2043048,54.4581943 47.3987048,54.7621943 46.4715048,54.7621943 C45.2251048,54.7621943 44.5107048,54.1693943 44.2219048,53.4701943 L44.5259048,53.2573943 L50.0283048,53.2573943 C50.0283048,51.3117943 48.8579048,49.2901943 46.2891048,49.2901943 C44.1763048,49.2901943 42.6107048,50.7797943 42.6107048,52.7253943 C42.6107048,54.6709943 44.1763048,56.1605943 46.4715048,56.1605943 Z M48.0523048,52.0565943 L44.5259048,52.0565943 L44.2523048,51.8589943 C44.6019048,51.0837943 45.4227048,50.6733943 46.2891048,50.6733943 C47.1707048,50.6733943 47.8699048,51.1445943 48.1891048,51.7373943 L48.0523048,52.0565943 Z M54.0715048,55.9477943 L54.0715048,52.8165943 C55.1811048,51.5093943 55.9715048,50.7493943 56.7619048,50.7493943 C57.5979048,50.7493943 57.9019048,51.4181943 58.1147048,52.2085943 L59.5283048,51.5853943 C59.1787048,50.2325943 58.4339048,49.2901943 57.0507048,49.2901943 C56.0475048,49.2901943 55.1811048,49.8525943 54.4211048,50.6885943 L54.0715048,50.6885943 L54.0715048,49.5029943 L52.5211048,49.5029943 L52.5211048,55.9477943 L54.0715048,55.9477943 Z M62.6139048,59.0181943 C64.1795048,59.0181943 64.9243048,57.6957943 65.7299048,56.1301943 L69.1347048,49.5029943 L67.4171048,49.5029943 L65.1523048,54.0781943 L64.6963048,54.0781943 L62.4315048,49.5029943 L60.6835048,49.5029943 L64.1491048,56.2973943 C63.6779048,57.1941943 63.2979048,57.6045943 62.6291048,57.6045943 C62.1579048,57.6045943 61.8691048,57.3917943 61.5347048,56.7685943 L60.3339048,57.6501943 C60.8507048,58.6533943 61.7171048,59.0181943 62.6139048,59.0181943 Z" id="Farm+Cidery" fill="#FFFFFF" fill-rule="nonzero"></path>
                <g id="Group-4" transform="translate(0.677871, 0.000000)" stroke="#FFFFFF" stroke-width="2.4">
                    <rect id="Rectangle" x="0" y="0" width="81.8823529" height="72"></rect>
                </g>
            </g>
        </g>
    </g>
</svg>