<?xml version="1.0" encoding="UTF-8"?>
<svg width="16px" height="17px" viewBox="0 0 16 17" version="1.1" xmlns="http://www.w3.org/2000/svg" xmlns:xlink="http://www.w3.org/1999/xlink">
    <title></title>
    <g id="Page-1" stroke="none" stroke-width="1" fill="none" fill-rule="evenodd">
        <g id="Home-Logo-1---d-Copy-26" transform="translate(-907, -1263)" fill="#30ABA7" fill-rule="nonzero">
            <g id="Group-12" transform="translate(72.5, 812.6674)">
                <g id="Group-3-Copy" transform="translate(27.75, 32.7827)">
                    <g id="Group-3" transform="translate(574, 408.05)">
                        <g id="" transform="translate(232.7474, 9.8688)">
                            <path d="M7.88115326,3.83818397 C5.64521554,3.83818397 3.84169981,5.6416997 3.84169981,7.87763688 C3.84169981,10.1135746 5.64521554,11.9170898 7.88115326,11.9170898 C10.117091,11.9170898 11.9206062,10.1135746 11.9206062,7.87763688 C11.9206062,5.64169917 10.117091,3.83818397 7.88115326,3.83818397 Z M7.88115326,10.5038092 C6.43623117,10.5038092 5.25498149,9.32607481 5.25498149,7.87763742 C5.25498149,6.42920002 6.43271586,5.25146565 7.88115326,5.25146565 C9.32959011,5.25146565 10.5073245,6.42920002 10.5073245,7.87763742 C10.5073245,9.32607481 9.32607427,10.5038092 7.88115272,10.5038092 L7.88115326,10.5038092 Z M13.028028,3.67294917 C13.028028,3.15263709 12.606153,2.73076209 12.085841,2.73076209 C11.5655289,2.73076209 11.1436539,3.15263709 11.1436539,3.67294917 C11.1436539,4.19326231 11.5620131,4.61513731 12.085841,4.61513731 C12.606153,4.61513731 13.028028,4.19677815 13.028028,3.67294917 Z M15.7034189,4.62919959 C15.6436528,3.36709043 15.3553722,2.24912104 14.4307622,1.32802793 C13.509668,0.406933755 12.3916997,0.118653148 11.1295905,0.0553712547 C9.82880929,-0.0184570849 5.92998138,-0.0184570849 4.62920013,0.0553712547 C3.37060627,0.115137309 2.25263742,0.403417915 1.32802793,1.32451209 C0.403418452,2.24560627 0.118652612,3.36357459 0.0553712547,4.62568375 C-0.0184570849,5.926465 -0.0184570849,9.82529292 0.0553712547,11.1260742 C0.115136772,12.3881833 0.403417915,13.5061527 1.3280274,14.4272458 C2.25263688,15.3483389 3.3670899,15.6366206 4.62919959,15.6999025 C5.92998084,15.7737308 9.82880875,15.7737308 11.12959,15.6999025 C12.3916992,15.6401365 13.5096686,15.3518558 14.4307617,14.4272458 C15.3518558,13.5061516 15.6401365,12.3881833 15.7034183,11.1260742 C15.7772467,9.82529292 15.7772467,5.92998031 15.7034183,4.62919959 L15.7034189,4.62919959 Z M14.022949,12.5217777 C13.7487306,13.2108404 13.217871,13.7417 12.5252925,14.0194342 C11.4881831,14.4307627 9.02724561,14.3358404 7.88115165,14.3358404 C6.73505768,14.3358404 4.27060488,14.4272469 3.23701081,14.0194342 C2.54794809,13.7452159 2.0170885,13.2143563 1.73935434,12.5217777 C1.32802632,11.4846683 1.42294809,9.02373084 1.42294809,7.87763688 C1.42294809,6.73154292 1.33154163,4.26709065 1.73935434,3.23349604 C2.0135732,2.54443333 2.54443279,2.01357374 3.23701081,1.73583958 C4.27412018,1.32451209 6.73505768,1.41943333 7.88115165,1.41943333 C9.02724561,1.41943333 11.491699,1.32802686 12.5252925,1.73583958 C13.2143552,2.01005897 13.7452148,2.54091749 14.022949,3.23349604 C14.4342775,4.27060542 14.3393552,6.73154292 14.3393552,7.87763688 C14.3393552,9.02373084 14.4342775,11.4881831 14.022949,12.5217777 Z" id="Shape"></path>
                        </g>
                    </g>
                </g>
            </g>
        </g>
    </g>
</svg>