<?xml version="1.0" encoding="UTF-8"?>
<svg width="345px" height="35px" viewBox="0 0 345 35" version="1.1" xmlns="http://www.w3.org/2000/svg" xmlns:xlink="http://www.w3.org/1999/xlink">
    <title>Group 43</title>
    <defs>
        <polygon id="path-1" points="0.599906479 0.577333333 17.487159 0.577333333 17.487159 30.8832445 0.599906479 30.8832445"></polygon>
        <polygon id="path-3" points="0.0533333333 0.269813202 15.5507879 0.269813202 15.5507879 29.3333333 0.0533333333 29.3333333"></polygon>
    </defs>
    <g id="Chosen-ones" stroke="none" stroke-width="1" fill="none" fill-rule="evenodd">
        <g id="Home-Logo-2---b" transform="translate(-425.000000, -1300.000000)">
            <g id="Group-43" transform="translate(425.000000, 1300.000000)">
                <path d="M10.1008,15.6612 C11.6888,15.0505333 12.4221333,13.4638667 12.1768,11.8745333 C12.0954667,11.5492 12.0954667,11.1838667 12.0554667,10.8572 C11.8514667,9.7572 10.9968,8.86253333 9.53013333,8.73986667 L8.63546667,8.6172 C7.73946667,8.49453333 5.86613333,8.3732 5.1328,8.3732 C4.93013333,11.8745333 4.8888,15.0092 4.8488,15.9065333 C5.25546667,16.0278667 5.66213333,16.0278667 6.11013333,16.0278667 L7.1688,16.0278667 C7.49546667,16.0278667 9.4088,15.9865333 10.1008,15.6612 M0.00346666667,32.0705333 C-0.0378666667,31.9478667 0.3288,31.0118667 0.370133333,30.8492 C0.5328,30.0758667 0.695466667,27.9585333 0.735466667,27.5505333 C0.735466667,26.7772 0.735466667,26.0038667 0.7768,25.2305333 C0.7768,24.3345333 0.939466667,20.0585333 0.858133333,15.9865333 L0.858133333,13.7065333 C1.0208,10.4492 1.2248,9.63453333 0.818133333,6.70386667 C0.695466667,6.3372 0.654133333,5.93053333 0.491466667,5.52386667 L0.2888,4.99453333 C0.0848,4.54653333 0.2888,4.5052 0.5328,4.5052 C1.14346667,4.5052 3.13813333,4.58653333 4.68613333,4.6692 C5.0928,4.6692 10.1008,4.91186667 11.0368,4.9532 C12.9914667,5.27853333 15.2714667,7.27453333 15.7608,9.35053333 C15.9234667,10.0838667 15.9634667,10.8158667 15.9634667,11.5492 C16.0048,12.5265333 15.7194667,14.8065333 14.7021333,16.7612 C14.3754667,17.2092 14.0501333,17.6158667 13.6434667,17.9825333 C13.2354667,18.3892 12.7474667,18.6345333 12.2181333,18.8785333 C11.6474667,19.1225333 11.1181333,19.4065333 10.4674667,19.5292 C10.2234667,19.6105333 9.93813333,19.6518667 9.6128,19.6918667 C8.7168,19.8145333 7.98346667,20.0185333 6.7208,20.0185333 C5.9888,20.0185333 5.37813333,19.8958667 4.8488,19.9372 C4.80746667,20.3038667 4.8488,20.6692 4.76746667,21.0358667 C4.72613333,21.9732 4.52213333,27.7958667 4.4408,29.1785333 C4.4408,29.9132 4.76746667,30.6038667 4.93013333,31.8665333 C5.01146667,32.1932 2.4048,32.1932 0.858133333,32.1518667 C0.491466667,32.1932 0.0434666667,32.1518667 0.00346666667,32.0705333" id="Fill-1" fill="#FFFFFF"></path>
                <path d="M29.4844,10.3688 C29.0777333,9.63546667 28.9550667,9.2688 27.6110667,9.06613333 C26.8377333,8.90346667 25.4537333,8.7808 24.5990667,8.8208 C23.9057333,8.8208 23.2550667,8.98346667 22.6444,9.0248 C22.6030667,9.5128 22.6444,9.9608 22.6444,10.4088 L22.5217333,12.8514667 C22.4817333,13.6261333 22.5217333,14.9288 22.4817333,15.7021333 C22.6844,15.7021333 25.6164,15.5808 26.5524,15.5808 C27.2444,15.5394667 28.1004,14.7248 28.4257333,14.4408 C29.3217333,13.3808 29.0777333,12.9741333 29.4430667,12.3634667 C29.4030667,12.3234667 29.4430667,12.2408 29.4844,12.1608 C29.6470667,11.6301333 29.6470667,10.9794667 29.4844,10.3688 M33.3524,14.4408 C32.2124,17.2088 31.1950667,17.9008 29.4844,18.6341333 C30.0550667,20.7514667 30.5844,21.7288 31.5604,25.1488 C31.9270667,26.4514667 32.3350667,27.5101333 32.8230667,29.2608 C33.0270667,30.0341333 34.0044,31.4181333 34.1257333,31.8674667 C34.1670667,32.0301333 33.8817333,32.0301333 33.6377333,32.1101333 L29.3617333,32.0301333 C28.7510667,32.0301333 28.5070667,31.9474667 28.4257333,31.7848 C28.5884,31.0528 28.9550667,30.7674667 28.6697333,29.2194667 C28.2217333,27.5101333 27.6924,25.8408 27.3270667,24.1714667 L26.6337333,21.6061333 C26.4710667,21.0354667 26.3084,20.1408 26.0230667,19.1634667 C25.2097333,19.1634667 23.9870667,19.2848 23.4177333,19.3261333 L22.2364,19.3261333 C22.2364,20.0581333 22.1550667,20.7514667 22.1550667,21.4834667 C22.1550667,21.7288 21.9924,24.0901333 22.0737333,25.4741333 C21.8710667,26.9394667 22.2364,29.4648 22.5630667,31.0528 C22.6030667,31.3368 22.8070667,31.7848 22.8070667,31.7448 C22.8470667,31.9074667 22.6844,31.9074667 22.5630667,31.9074667 C21.9110667,31.9074667 18.6137333,32.1514667 18.0844,32.0301333 C17.7177333,32.0301333 17.7177333,31.9888 17.7177333,31.9474667 C17.6764,31.5821333 17.8390667,31.2968 17.9617333,31.0114667 C18.5310667,29.8301333 18.5310667,26.6554667 18.4910667,25.4741333 C18.4910667,25.1074667 18.4910667,24.7408 18.4497333,24.3341333 C18.4910667,23.4381333 18.6137333,16.7608 18.6537333,15.0914667 C18.6950667,13.7061333 18.8577333,8.69946667 18.7764,8.04746667 C18.5724,6.86613333 18.1657333,5.56346667 18.0030667,4.79013333 C18.0030667,4.54613333 18.2870667,4.50613333 18.4910667,4.50613333 C19.3057333,4.50613333 22.1550667,4.7088 23.1737333,4.7488 C23.6217333,4.83146667 28.1817333,4.79013333 28.3030667,4.79013333 C28.6697333,4.83146667 29.0364,4.91146667 29.3617333,5.03413333 C30.6244,5.31946667 31.9684,6.21546667 32.9857333,8.69946667 C33.1484,9.59413333 33.8817333,11.6714667 33.3524,14.4408" id="Fill-3" fill="#FFFFFF"></path>
                <path d="M46.8718667,19.9368 C46.9945333,19.8554667 46.3425333,17.4528 45.8945333,15.5394667 C45.7318667,14.4408 45.3652,11.8754667 45.1612,11.7941333 C45.0398667,11.9154667 43.3292,19.7741333 43.3705333,19.9781333 C43.4918667,20.0181333 44.2252,20.0181333 44.5105333,20.0181333 C45.4465333,20.0181333 46.7492,20.0181333 46.8718667,19.9368 M35.7158667,31.7048 C36.1225333,31.0114667 36.6518667,28.4874667 37.3438667,26.6141333 C37.5892,25.6781333 37.9145333,24.7408 38.1585333,23.8048 C38.4025333,22.8688 38.7292,21.9728 38.9732,21.0354667 C39.5025333,19.1634667 40.0318667,17.3314667 40.6425333,15.4981333 C40.9278667,14.5621333 41.2532,13.6661333 41.4972,12.7301333 C41.7412,11.7941333 41.9452,10.8168 42.1892,9.8808 C42.8812,6.82613333 43.0852,6.37813333 43.0038667,5.76746667 C42.7998667,4.58613333 42.9225333,4.58613333 43.4518667,4.58613333 C44.6732,4.62746667 45.3252,4.54613333 46.8305333,4.54613333 C47.0345333,4.50613333 47.8492,4.4648 47.8078667,4.7488 L47.5238667,5.6048 C47.4425333,6.25546667 49.3558667,14.3994667 50.2518667,18.7554667 C50.4145333,19.4888 52.0425333,25.6781333 52.2465333,26.6141333 C52.4092,27.3074667 52.8985333,30.2781333 52.9385333,30.4821333 C52.9798667,30.8488 53.1012,30.9701333 53.1825333,31.0928 C53.7118667,31.5408 53.2238667,31.5008 52.9798667,31.5008 L51.1878667,31.5008 C50.6585333,31.5008 49.0705333,31.7048 48.9892,31.5008 C48.9078667,31.1328 49.1932,30.5648 49.0705333,29.9528 C49.0292,29.7088 48.7852,28.9354667 48.7038667,28.4474667 L48.3372,25.9221333 C48.2972,25.4741333 48.0532,24.3341333 47.9305333,23.9674667 C46.0985333,23.9674667 44.3478667,24.0088 43.3705333,24.0088 C42.9625333,24.0501333 42.4332,24.0501333 42.2305333,24.0501333 C42.0678667,24.6594667 41.9865333,25.2301333 41.8225333,25.7994667 C41.7412,26.6141333 41.6198667,27.0208 41.5385333,27.4701333 C41.3745333,28.4061333 40.6425333,29.7501333 40.2758667,31.2554667 C40.3172,31.5008 40.6425333,31.6634667 40.6425333,31.7848 C40.6825333,31.9474667 40.5612,31.9474667 40.3572,31.9074667 C38.7292,31.9074667 37.0998667,32.1514667 35.3078667,32.1514667 C35.2265333,31.9474667 35.4718667,32.0701333 35.7158667,31.7048" id="Fill-5" fill="#FFFFFF"></path>
                <path d="M55.5466667,31.8670667 C55.5466667,31.7444 55.872,30.8897333 55.9533333,30.6044 L56.1986667,29.0164 C56.2386667,28.7724 56.3613333,28.1617333 56.4013333,27.4697333 C56.4826667,26.9404 56.524,26.5324 56.524,25.8404 C56.564,25.2297333 56.524,24.6604 56.524,24.0897333 C56.564,23.5204 56.6053333,22.9497333 56.6053333,22.3790667 C56.524,21.1990667 56.564,20.0590667 56.564,18.9190667 C56.564,17.9004 56.6466667,14.2777333 56.6466667,13.7070667 C56.6053333,13.3004 56.6466667,11.3857333 56.6466667,11.1417333 C56.6466667,11.0204 56.6466667,10.0830667 56.6053333,9.4324 C56.6053333,8.7804 56.524,7.84306667 56.3613333,6.90706667 C56.28,6.5004 56.2386667,5.8084 56.076,5.23773333 C56.0346667,5.1164 55.9946667,4.9124 56.076,4.83106667 C56.1986667,4.74973333 56.8493333,4.7084 57.2973333,4.6684 C57.46,4.6684 59.456,4.87106667 60.188,4.9124 C60.84,4.9124 61.084,4.78973333 61.2066667,4.95373333 C61.3693333,5.15773333 61.0026667,6.2564 60.84,6.66306667 C60.7986667,6.78573333 60.6773333,7.43773333 60.6773333,7.6404 C60.7173333,9.83906667 60.636,8.7404 60.6773333,10.0830667 C60.636,10.6124 60.636,11.1830667 60.596,11.7124 L60.4733333,14.9697333 C60.392,16.7604 60.392,17.9817333 60.432,19.9364 C60.432,20.4670667 60.432,21.0350667 60.392,21.5657333 C60.3506667,22.6244 60.3106667,23.7244 60.188,24.7817333 C60.1066667,25.7590667 60.0666667,27.5497333 60.0666667,27.9177333 C60.1066667,29.8710667 60.0253333,30.4417333 60.432,31.5817333 C60.5146667,31.7044 60.5546667,31.8670667 60.4733333,31.9884 C59.9026667,32.2737333 56.4013333,31.9884 55.9133333,32.0297333 C55.7506667,32.0297333 55.628,32.0297333 55.5466667,31.8670667" id="Fill-7" fill="#FFFFFF"></path>
                <path d="M76.4757333,10.3688 C76.0690667,9.63546667 75.9464,9.2688 74.6024,9.06613333 C73.8290667,8.90346667 72.4450667,8.7808 71.5904,8.8208 C70.8970667,8.8208 70.2464,8.98346667 69.6357333,9.0248 C69.5944,9.5128 69.6357333,9.9608 69.6357333,10.4088 L69.5130667,12.8514667 C69.4730667,13.6261333 69.5130667,14.9288 69.4730667,15.7021333 C69.6757333,15.7021333 72.6077333,15.5808 73.5437333,15.5808 C74.2357333,15.5394667 75.0917333,14.7248 75.4170667,14.4408 C76.3130667,13.3808 76.0690667,12.9741333 76.4344,12.3634667 C76.3944,12.3234667 76.4344,12.2408 76.4757333,12.1608 C76.6384,11.6301333 76.6384,10.9794667 76.4757333,10.3688 M80.3437333,14.4408 C79.2037333,17.2088 78.1864,17.9008 76.4757333,18.6341333 C77.0464,20.7514667 77.5757333,21.7288 78.5517333,25.1488 C78.9184,26.4514667 79.3264,27.5101333 79.8144,29.2608 C80.0184,30.0341333 80.9957333,31.4181333 81.1170667,31.8674667 C81.1584,32.0301333 80.8730667,32.0301333 80.6290667,32.1101333 L76.3530667,32.0301333 C75.7424,32.0301333 75.4984,31.9474667 75.4170667,31.7848 C75.5797333,31.0528 75.9464,30.7674667 75.6610667,29.2194667 C75.2130667,27.5101333 74.6837333,25.8408 74.3184,24.1714667 L73.6250667,21.6061333 C73.4624,21.0354667 73.2997333,20.1408 73.0144,19.1634667 C72.2010667,19.1634667 70.9784,19.2848 70.4090667,19.3261333 L69.2277333,19.3261333 C69.2277333,20.0581333 69.1464,20.7514667 69.1464,21.4834667 C69.1464,21.7288 68.9837333,24.0901333 69.0650667,25.4741333 C68.8624,26.9394667 69.2277333,29.4648 69.5544,31.0528 C69.5944,31.3368 69.7984,31.7848 69.7984,31.7448 C69.8384,31.9074667 69.6757333,31.9074667 69.5544,31.9074667 C68.9024,31.9074667 65.6050667,32.1514667 65.0757333,32.0301333 C64.7090667,32.0301333 64.7090667,31.9888 64.7090667,31.9474667 C64.6677333,31.5821333 64.8304,31.2968 64.9530667,31.0114667 C65.5224,29.8301333 65.5224,26.6554667 65.4824,25.4741333 C65.4824,25.1074667 65.4824,24.7408 65.4410667,24.3341333 C65.4824,23.4381333 65.6050667,16.7608 65.6450667,15.0914667 C65.6864,13.7061333 65.8490667,8.69946667 65.7677333,8.04746667 C65.5637333,6.86613333 65.1570667,5.56346667 64.9944,4.79013333 C64.9944,4.54613333 65.2784,4.50613333 65.4824,4.50613333 C66.2970667,4.50613333 69.1464,4.7088 70.1650667,4.7488 C70.6130667,4.83146667 75.1730667,4.79013333 75.2944,4.79013333 C75.6610667,4.83146667 76.0277333,4.91146667 76.3530667,5.03413333 C77.6157333,5.31946667 78.9597333,6.21546667 79.9770667,8.69946667 C80.1397333,9.59413333 80.8730667,11.6714667 80.3437333,14.4408" id="Fill-9" fill="#FFFFFF"></path>
                <path d="M84.1728,31.8670667 C84.1728,31.7444 84.4981333,30.8897333 84.5794667,30.6044 L84.8248,29.0164 C84.8648,28.7724 84.9874667,28.1617333 85.0274667,27.4697333 C85.1088,26.9404 85.1501333,26.5324 85.1501333,25.8404 C85.1901333,25.2297333 85.1501333,24.6604 85.1501333,24.0897333 C85.1901333,23.5204 85.2314667,22.9497333 85.2314667,22.3790667 C85.1501333,21.1990667 85.1901333,20.0590667 85.1901333,18.9190667 C85.1901333,17.9004 85.2728,14.2777333 85.2728,13.7070667 C85.2314667,13.3004 85.2728,11.3857333 85.2728,11.1417333 C85.2728,11.0204 85.2728,10.0830667 85.2314667,9.4324 C85.2314667,8.7804 85.1501333,7.84306667 84.9874667,6.90706667 C84.9061333,6.5004 84.8648,5.8084 84.7021333,5.23773333 C84.6608,5.1164 84.6208,4.9124 84.7021333,4.83106667 C84.8248,4.74973333 85.4754667,4.7084 85.9234667,4.6684 C86.0861333,4.6684 88.0821333,4.87106667 88.8141333,4.9124 C89.4661333,4.9124 89.7101333,4.78973333 89.8328,4.95373333 C89.9954667,5.15773333 89.6288,6.2564 89.4661333,6.66306667 C89.4248,6.78573333 89.3034667,7.43773333 89.3034667,7.6404 C89.3434667,9.83906667 89.2621333,8.7404 89.3034667,10.0830667 C89.2621333,10.6124 89.2621333,11.1830667 89.2221333,11.7124 L89.0994667,14.9697333 C89.0181333,16.7604 89.0181333,17.9817333 89.0581333,19.9364 C89.0581333,20.4670667 89.0581333,21.0350667 89.0181333,21.5657333 C88.9768,22.6244 88.9368,23.7244 88.8141333,24.7817333 C88.7328,25.7590667 88.6928,27.5497333 88.6928,27.9177333 C88.7328,29.8710667 88.6514667,30.4417333 89.0581333,31.5817333 C89.1408,31.7044 89.1808,31.8670667 89.0994667,31.9884 C88.5288,32.2737333 85.0274667,31.9884 84.5394667,32.0297333 C84.3768,32.0297333 84.2541333,32.0297333 84.1728,31.8670667" id="Fill-11" fill="#FFFFFF"></path>
                <path d="M108.7672,5.60466667 C108.725867,5.88866667 108.889867,7.80333333 108.725867,9.146 C108.685867,9.31 107.789867,9.02466667 107.749867,9.02466667 C107.341867,8.862 106.9752,8.74066667 106.4872,8.74066667 C105.061867,8.74066667 104.125867,8.618 103.1072,8.618 C102.8232,8.618 99.8498667,8.69933333 99.3618667,8.658 C99.3618667,9.146 99.4018667,9.63533333 99.4018667,10.1233333 C99.4018667,11.0206667 99.4018667,11.9566667 99.4432,12.8926667 C99.4018667,14.5206667 99.4018667,15.2553333 99.4018667,15.418 C99.6872,15.3766667 100.012533,15.418 100.3392,15.418 C100.989867,15.3766667 101.193867,15.3766667 102.456533,15.3766667 L104.2072,15.2953333 C104.4512,15.2553333 104.532533,14.8873333 104.6952,14.766 C104.776533,14.7246667 104.940533,14.6833333 104.980533,14.8473333 L105.061867,17.0046667 C105.1032,17.8606667 105.1032,19.0006667 105.184533,19.326 C105.184533,19.53 105.265867,19.7326667 105.184533,19.8553333 C105.061867,19.978 104.817867,19.4073333 104.369867,19.3673333 C104.125867,19.3673333 103.3112,19.326 103.0672,19.286 C102.700533,19.2446667 101.885867,19.326 100.989867,19.326 C100.460533,19.286 99.6472,19.326 99.1992,19.326 C99.1992,20.67 99.0365333,25.19 99.1578667,26.4926667 C99.0765333,27.062 99.0765333,27.6326667 99.0365333,28.162 C99.3618667,28.162 99.8098667,28.202 100.3792,28.202 C102.129867,28.2846667 103.0672,28.202 104.084533,28.202 C104.613867,28.162 105.1432,28.0806667 105.428533,28.0806667 C106.161867,28.1206667 107.1392,28.0393333 107.585867,28.0806667 C108.2792,27.958 108.481867,27.3473333 108.808533,27.47 C108.9712,27.51 108.9712,27.958 108.9712,28.3646667 C108.889867,28.7726667 108.7672,31.134 108.7672,31.2553333 L108.7672,31.7846667 C108.7672,31.9073333 108.725867,32.11 108.5632,32.11 C108.0752,32.1513333 106.893867,31.9886667 106.568533,31.9886667 C106.120533,31.9886667 105.509867,32.07 105.1032,32.03 C104.044533,32.11 103.3112,32.11 102.8232,32.11 C104.736533,32.11 95.5338667,32.1926667 96.8778667,32.1513333 C96.5925333,32.1513333 94.7605333,32.1926667 94.1498667,32.07 C94.0685333,31.9473333 94.2312,31.4593333 94.2725333,31.338 C94.4352,31.0926667 94.8832,29.342 94.9232,28.9753333 L94.9232,27.7126667 C94.8832,27.51 94.9232,27.1846667 95.0045333,26.126 C95.0858667,25.27 95.1272,22.99 95.1272,22.7873333 C95.1685333,22.4606667 95.1685333,21.158 95.1685333,19.49 C95.2085333,19.286 95.3312,17.8193333 95.2898667,17.3313333 C95.3312,16.2726667 95.4525333,14.358 95.4938667,13.0153333 C95.5752,11.9153333 95.6152,10.9793333 95.5752,10.7753333 C95.6565333,9.718 95.5752,9.31 95.5338667,8.69933333 C95.5752,8.53666667 95.5338667,7.722 95.4938667,7.60066667 C95.4938667,7.478 94.6792,5.442 94.6792,4.83133333 C94.8018667,4.74866667 95.0858667,4.79 95.2085333,4.79 C95.4125333,4.83133333 95.5752,4.79 95.7792,4.83133333 C95.8605333,4.83133333 97.8965333,4.83133333 98.2618667,4.87133333 L102.740533,4.95266667 L107.4232,4.95266667 C107.6672,4.994 107.952533,4.994 108.237867,4.95266667 C108.808533,4.91266667 108.808533,5.442 108.7672,5.60466667" id="Fill-13" fill="#FFFFFF"></path>
                <path d="M132.92,11.6177333 C133.352,10.6670667 136.417333,5.52973333 131.106667,5.3564 C130.717333,5.3564 129.465333,5.26973333 129.206667,5.26973333 C128.558667,5.22706667 127.997333,5.26973333 127.392,5.3124 C127.436,5.87506667 127.436,6.47773333 127.436,6.9964 L127.392,9.93373333 L127.22,12.7844 L127.392,12.7844 C129.033333,12.7844 129.637333,12.8697333 131.236,12.7404 C132.056,12.6537333 132.661333,12.0497333 132.92,11.6177333 M127.004,26.1697333 C127.392,26.1697333 128.04,26.1697333 128.385333,26.1270667 L129.724,26.1270667 C130.242667,26.1270667 132.316,26.2577333 133.136,25.4364 C134.085333,24.3577333 134.129333,24.2270667 134.345333,22.7590667 C134.474667,21.4204 134.085333,20.7297333 133.74,19.6057333 C133.568,19.1750667 133.352,18.8297333 133.265333,18.7004 C132.92,18.2684 132.1,17.0150667 129.724,16.9724 L127.090667,16.9724 L127.090667,20.2550667 C127.090667,21.6364 127.046667,22.8030667 126.96,23.4497333 C126.96,24.3137333 126.917333,24.7884 126.917333,25.4790667 C126.874667,25.9550667 126.788,26.1697333 127.004,26.1697333 M125.536,30.2737333 C125.146667,30.2737333 123.073333,30.3590667 122.253333,30.3164 C121.433333,30.3164 121.346667,30.3590667 121.217333,30.1870667 C121.217333,29.9710667 121.346667,29.8417333 121.433333,29.7124 C121.692,29.3670667 121.821333,28.9337333 122.037333,28.5457333 C122.210667,27.9844 122.253333,27.4230667 122.210667,27.1644 C122.210667,26.6884 122.253333,26.2137333 122.297333,25.7390667 C122.34,25.2644 122.382667,24.7884 122.382667,24.3137333 C122.426667,23.8390667 122.469333,23.3644 122.469333,22.8884 L122.512,21.4644 C122.556,20.4697333 122.642667,19.4777333 122.642667,18.5270667 C122.642667,17.9657333 122.685333,16.3684 122.728,15.5910667 C122.772,13.9057333 122.814667,13.5177333 122.901333,12.6537333 C122.944,12.1790667 122.944,11.7044 122.944,11.1857333 C122.988,10.6244 122.988,10.3657333 122.901333,8.9844 C122.944,8.42173333 122.901333,7.12706667 122.901333,6.78173333 C122.858667,5.83106667 122.944,4.92306667 122.988,4.01773333 C122.944,3.88706667 122.988,3.75773333 122.944,3.62973333 C122.858667,3.32573333 122.512,2.3764 122.124,1.5124 C122.081333,1.4684 122.081333,1.38306667 122.124,1.38306667 L123.376,1.38306667 C124.585333,1.42573333 125.405333,1.38306667 126.053333,1.38306667 C128.774667,1.38306667 129.94,1.2964 133.178667,1.7284 C134.129333,2.03106667 135.510667,2.46306667 136.504,3.36973333 C137.368,4.36306667 138.102667,5.91773333 138.274667,7.16973333 C138.404,7.98973333 138.361333,8.81106667 138.232,9.58706667 C138.102667,10.6244 137.670667,12.0057333 137.152,12.8697333 C136.849333,13.4310667 135.554667,14.6404 134.862667,15.0297333 C135.64,15.3750667 135.856,15.8057333 136.504,16.3684 C137.022667,16.9724 137.929333,18.4844 138.016,19.1324 C138.188,19.6937333 138.318667,20.2124 138.404,20.7724 C138.533333,21.4644 138.448,23.6670667 138.361333,24.0124 C138.274667,25.0910667 137.670667,26.6457333 137.194667,27.2070667 C136.806667,27.6817333 135.684,29.5390667 134.301333,29.7977333 C132.401333,30.6190667 127.090667,30.2737333 126.356,30.2737333 C126.097333,30.2310667 125.837333,30.2737333 125.536,30.2737333" id="Fill-15" fill="#FFFFFF"></path>
                <path d="M157.840133,2.2036 C157.797467,2.50493333 157.969467,4.5356 157.797467,5.9596 C157.753467,6.13293333 156.804133,5.8316 156.760133,5.8316 C156.328133,5.65826667 155.940133,5.52893333 155.421467,5.52893333 C153.9108,5.52893333 152.917467,5.3996 151.837467,5.3996 C151.5348,5.3996 148.3828,5.48626667 147.864133,5.44226667 C147.864133,5.9596 147.908133,6.47826667 147.908133,6.99693333 C147.908133,7.9476 147.908133,8.94093333 147.9508,9.93293333 C147.908133,11.6609333 147.908133,12.4382667 147.908133,12.6116 C148.209467,12.5676 148.556133,12.6116 148.901467,12.6116 C149.592133,12.5676 149.808133,12.5676 151.1468,12.5676 L153.004133,12.4809333 C153.2628,12.4382667 153.349467,12.0502667 153.521467,11.9209333 C153.608133,11.8769333 153.781467,11.8329333 153.824133,12.0062667 L153.9108,14.2956 C153.953467,15.2022667 153.953467,16.4116 154.040133,16.7569333 C154.040133,16.9729333 154.1268,17.1876 154.040133,17.3182667 C153.9108,17.4476 153.6508,16.8422667 153.176133,16.7996 C152.917467,16.7996 152.053467,16.7569333 151.7948,16.7129333 C151.405467,16.6702667 150.541467,16.7569333 149.592133,16.7569333 C149.0308,16.7129333 148.1668,16.7569333 147.692133,16.7569333 C147.692133,18.1822667 147.5188,22.9756 147.648133,24.3569333 C147.5628,24.9609333 147.5628,25.5662667 147.5188,26.1276 C147.864133,26.1276 148.340133,26.1702667 148.944133,26.1702667 C150.801467,26.2582667 151.7948,26.1702667 152.873467,26.1702667 C153.4348,26.1276 153.996133,26.0409333 154.2988,26.0409333 C155.076133,26.0849333 156.112133,25.9982667 156.588133,26.0409333 C157.321467,25.9116 157.537467,25.2636 157.8828,25.3942667 C158.056133,25.4369333 158.056133,25.9116 158.056133,26.3436 C157.969467,26.7756 157.840133,29.2796 157.840133,29.4102667 L157.840133,29.9702667 C157.840133,30.1009333 157.797467,30.3156 157.624133,30.3156 C157.105467,30.3596 155.853467,30.1876 155.508133,30.1876 C155.033467,30.1876 154.385467,30.2729333 153.953467,30.2302667 C152.8308,30.3156 152.053467,30.3156 151.5348,30.3156 C153.565467,30.3156 143.805467,30.4036 145.2308,30.3596 C144.928133,30.3596 142.984133,30.4036 142.337467,30.2729333 C142.2508,30.1436 142.4228,29.6249333 142.4668,29.4956 C142.6388,29.2369333 143.1148,27.3796 143.157467,26.9916 L143.157467,25.6516 C143.1148,25.4369333 143.157467,25.0916 143.244133,23.9689333 C143.3308,23.0609333 143.373467,20.6422667 143.373467,20.4276 C143.416133,20.0822667 143.416133,18.6996 143.416133,16.9302667 C143.460133,16.7129333 143.589467,15.1582667 143.5468,14.6409333 C143.589467,13.5182667 143.7188,11.4876 143.761467,10.0636 C143.848133,8.89693333 143.892133,7.9036 143.848133,7.6876 C143.9348,6.56626667 143.848133,6.13293333 143.805467,5.48626667 C143.848133,5.31293333 143.805467,4.44893333 143.761467,4.3196 C143.761467,4.19026667 142.8988,2.03026667 142.8988,1.3836 C143.028133,1.29693333 143.3308,1.3396 143.460133,1.3396 C143.676133,1.3836 143.848133,1.3396 144.064133,1.3836 C144.1508,1.3836 146.309467,1.3836 146.6988,1.42626667 L151.449467,1.51293333 L156.4148,1.51293333 C156.6748,1.55693333 156.976133,1.55693333 157.2788,1.51293333 C157.8828,1.46893333 157.8828,2.03026667 157.840133,2.2036" id="Fill-17" fill="#FFFFFF"></path>
                <path d="M172.9132,17.4044 C173.042533,17.3177333 172.351867,14.7697333 171.8772,12.7404 C171.703867,11.5750667 171.315867,8.85373333 171.099867,8.76706667 C170.970533,8.8964 169.155867,17.2310667 169.199867,17.4484 C169.3292,17.4910667 170.106533,17.4910667 170.407867,17.4910667 C171.4012,17.4910667 172.783867,17.4910667 172.9132,17.4044 M161.0812,29.8857333 C161.5132,29.1510667 162.074533,26.4737333 162.807867,24.4870667 C163.066533,23.4937333 163.4132,22.5004 163.671867,21.5070667 C163.930533,20.5137333 164.275867,19.5630667 164.535867,18.5697333 C165.0972,16.5844 165.658533,14.6404 166.306533,12.6964 C166.607867,11.7044 166.9532,10.7537333 167.2132,9.7604 C167.471867,8.76706667 167.687867,7.73106667 167.946533,6.73773333 C168.6812,3.49906667 168.8972,3.02306667 168.810533,2.3764 C168.594533,1.12306667 168.723867,1.12306667 169.2852,1.12306667 C170.5812,1.16706667 171.271867,1.0804 172.870533,1.0804 C173.086533,1.03773333 173.9492,0.993733333 173.906533,1.2964 L173.603867,2.20306667 C173.5172,2.89506667 175.547867,11.5310667 176.4972,16.1510667 C176.670533,16.9297333 178.3972,23.4937333 178.6132,24.4870667 C178.786533,25.2217333 179.303867,28.3737333 179.347867,28.5884 C179.390533,28.9777333 179.519867,29.1070667 179.606533,29.2364 C180.167867,29.7124 179.650533,29.6684 179.390533,29.6684 L177.490533,29.6684 C176.9292,29.6684 175.2452,29.8857333 175.158533,29.6684 C175.071867,29.2790667 175.374533,28.6764 175.2452,28.0270667 C175.202533,27.7684 174.942533,26.9484 174.855867,26.4297333 L174.467867,23.7524 C174.4252,23.2777333 174.1652,22.0684 174.035867,21.6790667 C172.0932,21.6790667 170.235867,21.7230667 169.199867,21.7230667 C168.767867,21.7670667 168.206533,21.7670667 167.990533,21.7670667 C167.8172,22.4137333 167.730533,23.0177333 167.558533,23.6230667 C167.471867,24.4870667 167.342533,24.9190667 167.255867,25.3937333 C167.083867,26.3870667 166.306533,27.8124 165.9172,29.4097333 C165.959867,29.6684 166.306533,29.8417333 166.306533,29.9710667 C166.3492,30.1430667 166.219867,30.1430667 166.003867,30.1004 C164.275867,30.1004 162.5492,30.3590667 160.6492,30.3590667 C160.562533,30.1430667 160.8212,30.2737333 161.0812,29.8857333" id="Fill-19" fill="#FFFFFF"></path>
                <path d="M194.6368,7.25653333 C194.2048,6.47786667 194.075467,6.08986667 192.650133,5.8752 C191.830133,5.70186667 190.362133,5.57253333 189.454133,5.6152 C188.7208,5.6152 188.030133,5.7872 187.382133,5.8312 C187.338133,6.34986667 187.382133,6.8232 187.382133,7.2992 L187.2528,9.88986667 C187.2088,10.7112 187.2528,12.0925333 187.2088,12.9138667 C187.4248,12.9138667 190.534133,12.7845333 191.527467,12.7845333 C192.262133,12.7405333 193.1688,11.8765333 193.514133,11.5752 C194.463467,10.4512 194.2048,10.0205333 194.594133,9.37253333 C194.550133,9.32986667 194.594133,9.24186667 194.6368,9.15653333 C194.810133,8.5952 194.810133,7.9032 194.6368,7.25653333 M198.739467,11.5752 C197.530133,14.5112 196.450133,15.2445333 194.6368,16.0218667 C195.2408,18.2685333 195.802133,19.3045333 196.839467,22.9325333 C197.227467,24.3138667 197.659467,25.4365333 198.178133,27.2938667 C198.394133,28.1138667 199.430133,29.5818667 199.559467,30.0578667 C199.603467,30.2312 199.3008,30.2312 199.042133,30.3165333 L194.507467,30.2312 C193.859467,30.2312 193.6008,30.1432 193.514133,29.9712 C193.686133,29.1938667 194.075467,28.8912 193.7728,27.2498667 C193.298133,25.4365333 192.7368,23.6672 192.347467,21.8952 L191.614133,19.1752 C191.4408,18.5698667 191.2688,17.6205333 190.966133,16.5845333 C190.102133,16.5845333 188.807467,16.7138667 188.202133,16.7565333 L186.950133,16.7565333 C186.950133,17.5338667 186.863467,18.2685333 186.863467,19.0458667 C186.863467,19.3045333 186.691467,21.8085333 186.7768,23.2778667 C186.5608,24.8325333 186.950133,27.5098667 187.295467,29.1938667 C187.338133,29.4965333 187.554133,29.9712 187.554133,29.9272 C187.598133,30.1005333 187.4248,30.1005333 187.295467,30.1005333 C186.6048,30.1005333 183.106133,30.3592 182.5448,30.2312 C182.1568,30.2312 182.1568,30.1872 182.1568,30.1432 C182.1128,29.7552 182.286133,29.4525333 182.415467,29.1498667 C183.0208,27.8978667 183.0208,24.5298667 182.9768,23.2778667 C182.9768,22.8885333 182.9768,22.5005333 182.934133,22.0685333 C182.9768,21.1178667 183.106133,14.0365333 183.150133,12.2658667 C183.1928,10.7965333 183.366133,5.48586667 183.279467,4.7952 C183.063467,3.54186667 182.631467,2.16053333 182.459467,1.3392 C182.459467,1.08053333 182.7608,1.03786667 182.9768,1.03786667 C183.8408,1.03786667 186.863467,1.25386667 187.943467,1.29653333 C188.418133,1.3832 193.255467,1.3392 193.3848,1.3392 C193.7728,1.3832 194.162133,1.46853333 194.507467,1.5992 C195.846133,1.90186667 197.271467,2.8512 198.350133,5.48586667 C198.523467,6.4352 199.3008,8.63786667 198.739467,11.5752" id="Fill-21" fill="#FFFFFF"></path>
                <g id="Group-25" transform="translate(200.666667, 0.089200)">
                    <mask id="mask-2" fill="white">
                        <use xlink:href="#path-1"></use>
                    </mask>
                    <g id="Clip-24"></g>
                    <path d="M4.8984,29.7522667 C4.37973333,29.3629333 3.94773333,28.9322667 3.3864,28.5869333 C2.95573333,28.2416 2.52373333,27.8522667 2.22106667,27.3776 C1.7024,26.6869333 0.277066667,24.2682667 0.6664,23.7922667 C1.18506667,23.3616 2.43706667,22.7989333 3.1704,22.5416 C3.94773333,22.2376 4.42373333,21.8496 4.6824,21.7629333 C5.41706667,21.5469333 5.7184,21.8922667 5.67573333,22.5416 C5.7624,24.1389333 5.9344,24.6989333 6.5824,25.6069333 C7.79173333,26.9016 9.82106667,26.7722667 11.0304,25.7789333 C11.6784,25.3469333 12.5424,23.7496 12.5850667,22.5416 C12.6717333,22.1082667 12.6717333,21.6776 12.5850667,21.2016 C12.3264,19.4749333 11.6784,18.1349333 9.9504,16.6242667 L8.87173333,15.8042667 C6.88506667,14.2496 6.4104,14.4229333 4.76906667,12.5642667 C3.8624,11.6589333 3.30106667,9.9736 3.1704,9.06693333 C3.12773333,8.7216 2.95573333,6.51893333 3.3864,5.35226667 C3.77573333,4.4896 4.59573333,2.71893333 5.58906667,2.1576 C6.27973333,1.68293333 7.2304,1.29493333 7.74906667,1.0776 C9.17306667,0.6456 9.9504,0.430933333 11.6784,0.688266667 C13.2757333,1.03493333 15.0037333,1.68293333 16.0837333,3.8856 C16.3424,4.4896 16.6010667,4.83493333 17.0330667,5.09493333 C17.3784,5.39626667 17.5517333,5.48293333 17.4650667,5.61226667 C17.2064,5.91493333 15.9970667,6.51893333 15.5210667,6.86426667 C15.3064,6.95093333 14.0970667,7.59893333 13.2330667,8.24693333 C12.7144,8.5496 12.9744,7.94426667 13.0170667,7.72826667 C13.2330667,7.16693333 13.0170667,5.6976 12.3690667,5.1376 C10.9877333,4.0576 9.64906667,4.44693333 8.65573333,5.35226667 C8.4824,5.48293333 7.8784,6.1736 7.74906667,6.3896 C6.71173333,7.59893333 7.57573333,9.49893333 8.3104,10.3616 C9.04373333,11.2696 12.6717333,12.6949333 14.3984,15.2856 C14.7010667,15.7602667 15.0037333,16.2349333 15.3064,16.7536 C15.4357333,16.9256 16.7304,19.1296 17.0330667,21.8496 C17.1197333,22.4976 17.0330667,23.2322667 16.9464,23.5776 C16.7744,25.6069333 16.2984,26.1682667 15.1330667,27.9816 C14.7450667,28.4562667 14.6584,28.7162667 12.1970667,30.4429333 C10.9877333,31.0909333 9.60506667,30.8322667 9.00106667,30.8322667 C7.96506667,30.8322667 5.89173333,30.6162667 4.8984,29.7522667" id="Fill-23" fill="#FFFFFF" mask="url(#mask-2)"></path>
                </g>
                <g id="Group-28" transform="translate(228.000000, 4.089200)">
                    <mask id="mask-4" fill="white">
                        <use xlink:href="#path-3"></use>
                    </mask>
                    <g id="Clip-27"></g>
                    <path d="M6.016,29.0982667 C5.808,29.0142667 5.59866667,28.9742667 5.34933333,28.8889333 C4.848,28.5556 3.22266667,27.5969333 2.63866667,26.8049333 L2.30533333,26.2622667 C1.22133333,24.6782667 1.012,24.3449333 0.304,19.9249333 C0.178666667,17.9649333 0.0533333333,15.9636 0.0533333333,14.0036 C0.0533333333,13.0449333 0.0946666667,12.0862667 0.22,11.1276 C0.304,10.1676 0.553333333,9.25026667 0.72,8.33293333 C0.886666667,7.45826667 1.13733333,6.58226667 1.388,5.7476 C1.596,5.3716 1.68,4.9556 1.888,4.5796 C2.80533333,2.7876 3.43066667,2.07826667 5.26533333,0.994266667 C6.84933333,0.2436 8.768,0.1596 10.352,0.368933333 C10.9773333,0.5356 11.2693333,0.660933333 11.6866667,0.910266667 C11.812,0.952933333 14.856,2.7036 15.148,4.53826667 C15.3973333,4.99693333 15.44,6.37293333 15.5226667,6.99826667 C15.5653333,7.1236 15.5653333,7.2916 15.4813333,7.37293333 C15.356,7.4996 15.1066667,7.4156 14.9386667,7.4156 C14.3973333,7.45826667 12.896,7.45826667 12.2706667,7.5396 C11.9373333,7.5396 11.6453333,7.9156 11.228,7.74893333 C11.1866667,7.4996 11.4373333,7.45826667 11.4786667,7.20626667 C11.5613333,6.8316 11.312,5.91426667 11.1026667,5.49693333 C10.6866667,4.78893333 9.644,4.03826667 8.852,3.9556 C8.56,3.9556 8.268,3.9556 7.976,4.03826667 C6.39066667,4.53826667 5.932,5.58093333 5.18266667,6.79026667 L4.932,7.62493333 C4.22266667,9.4596 3.93066667,11.4609333 4.01466667,14.7542667 L4.01466667,16.6316 C4.01466667,17.4236 4.18133333,19.6329333 4.30666667,20.3422667 C4.38933333,20.9676 4.556,21.6342667 4.80666667,22.2182667 C5.18266667,23.4276 5.432,24.1369333 6.93333333,25.0116 C7.51733333,25.3862667 8.10133333,25.4289333 8.72666667,25.2622667 C9.89333333,25.0956 10.7693333,24.1369333 11.02,23.2182667 C11.0613333,23.0516 11.1453333,22.3022667 11.1026667,22.1356 C11.02,22.0516 10.6866667,21.9262667 10.8106667,21.7596 C11.1026667,21.5929333 12.396,21.4262667 13.272,21.4262667 C13.8133333,21.4262667 14.9386667,21.2596 15.0226667,21.2596 C15.2306667,21.3009333 15.3146667,21.4262667 15.356,21.5929333 C15.356,21.7596 15.3146667,22.2596 15.356,22.3436 C15.3146667,23.6769333 14.564,25.3449333 14.0213333,26.1796 C13.8133333,26.5129333 13.6053333,26.8462667 13.3133333,27.1796 C12.9373333,27.7222667 11.7706667,28.7649333 8.80933333,29.3076 C8.10133333,29.3902667 6.64133333,29.2649333 6.016,29.0982667" id="Fill-26" fill="#FFFFFF" mask="url(#mask-4)"></path>
                </g>
                <path d="M246.611333,32.7292 C246.611333,32.6038667 246.944667,31.7278667 247.028667,31.4358667 L247.278,29.8092 C247.320667,29.5598667 247.444667,28.9345333 247.487333,28.2265333 C247.57,27.6838667 247.612667,27.2665333 247.612667,26.5585333 C247.654,25.9318667 247.612667,25.3478667 247.612667,24.7652 C247.654,24.1812 247.695333,23.5972 247.695333,23.0132 C247.612667,21.8038667 247.654,20.6358667 247.654,19.4692 C247.654,18.4265333 247.736667,14.7158667 247.736667,14.1318667 C247.695333,13.7145333 247.736667,11.7545333 247.736667,11.5052 C247.736667,11.3798667 247.736667,10.4212 247.695333,9.7532 C247.695333,9.08653333 247.612667,8.12653333 247.444667,7.16786667 C247.362,6.75186667 247.320667,6.04253333 247.154,5.45853333 C247.111333,5.3332 247.07,5.1252 247.154,5.04253333 C247.278,4.9572 247.946,4.9172 248.404667,4.87586667 C248.571333,4.87586667 250.614,5.08386667 251.364667,5.1252 C252.032667,5.1252 252.282,4.99986667 252.407333,5.16653333 C252.574,5.37586667 252.199333,6.5012 252.032667,6.91853333 C251.99,7.04386667 251.864667,7.71053333 251.864667,7.91853333 C251.907333,10.1705333 251.823333,9.0452 251.864667,10.4212 C251.823333,10.9625333 251.823333,11.5465333 251.782,12.0892 L251.656667,15.4238667 C251.572667,17.2585333 251.572667,18.5105333 251.615333,20.5118667 C251.615333,21.0545333 251.615333,21.6372 251.572667,22.1798667 C251.531333,23.2638667 251.49,24.3892 251.364667,25.4732 C251.282,26.4732 251.239333,28.3078667 251.239333,28.6838667 C251.282,30.6852 251.198,31.2692 251.615333,32.4372 C251.698,32.5625333 251.740667,32.7292 251.656667,32.8532 C251.072667,33.1452 247.487333,32.8532 246.986,32.8958667 C246.819333,32.8958667 246.695333,32.8958667 246.611333,32.7292" id="Fill-29" fill="#FFFFFF"></path>
                <path d="M263.082667,28.7676 C265.96,28.4342667 266.544,27.6409333 267.418667,24.8476 C268.169333,22.6382667 268.212,17.9262667 268.169333,15.6329333 C268.128,15.0902667 268.002667,12.5049333 267.544,11.5476 C266.209333,8.87826667 263.082667,8.9195627 261.456,8.9195627 C261.373333,10.9622667 261.373333,22.5556 261.04,25.2649333 C260.873333,26.4742667 260.622667,27.6409333 260.622667,28.8929333 C260.914667,28.8929333 262.998667,28.7676 263.082667,28.7676 M256.036,32.8542667 C255.952,32.7289333 256.62,30.8529333 256.702667,30.4356 C256.702667,30.2689333 256.744,29.4342667 256.828,28.9342667 C256.828,28.7676 256.953333,27.4329333 256.953333,26.5996 C257.161333,23.8889333 257.245333,18.8436 257.328,17.3849333 C257.286667,15.5916 257.328,8.87826667 257.370667,7.91826667 C257.453333,7.0436 257.494667,6.21026667 257.245333,5.54226667 C257.161333,5.25026667 256.661333,5.20893333 256.661333,5.12493333 C256.661333,4.83293333 257.12,4.95826667 257.62,4.95826667 C258.621333,5.04226667 260.956,5.04226667 261.332,5.04226667 C262.998667,5.04226667 264.666667,5.25026667 265.750667,5.50093333 C268.253333,6.0836 269.921333,7.91826667 270.921333,9.8796 C271.797333,11.3796 272.089333,15.4662667 272.297333,18.3436 C272.34,21.5116 272.714667,25.0569333 270.254667,29.2676 C269.129333,30.6022667 268.044,31.7702667 266.752,32.2702667 C265.250667,32.8542667 262.54,33.0622667 259.830667,32.8956 L257.202667,33.0209333 C256.494667,33.0209333 256.077333,32.9782667 256.036,32.8542667" id="Fill-31" fill="#FFFFFF"></path>
                <path d="M290.3128,5.834 C290.271467,6.126 290.438133,8.086 290.271467,9.46066667 C290.2288,9.62866667 289.311467,9.33666667 289.270133,9.33666667 C288.8528,9.17 288.478133,9.04466667 287.978133,9.04466667 C286.518133,9.04466667 285.559467,8.91933333 284.5168,8.91933333 C284.2248,8.91933333 281.1808,9.00333333 280.6808,8.96066667 C280.6808,9.46066667 280.722133,9.962 280.722133,10.462 C280.722133,11.3806667 280.722133,12.3393333 280.763467,13.298 C280.722133,14.9646667 280.722133,15.7166667 280.722133,15.8833333 C281.014133,15.842 281.347467,15.8833333 281.6808,15.8833333 C282.3488,15.842 282.5568,15.842 283.850133,15.842 L285.642133,15.758 C285.8928,15.7166667 285.9768,15.3406667 286.143467,15.2166667 C286.226133,15.174 286.3928,15.1326667 286.435467,15.2993333 L286.518133,17.5086667 C286.559467,18.386 286.559467,19.5526667 286.643467,19.886 C286.643467,20.094 286.727467,20.302 286.643467,20.4286667 C286.518133,20.554 286.2688,19.9686667 285.8088,19.9273333 C285.559467,19.9273333 284.7248,19.886 284.475467,19.8446667 C284.099467,19.802 283.266133,19.886 282.3488,19.886 C281.806133,19.8446667 280.9728,19.886 280.514133,19.886 C280.514133,21.262 280.347467,25.8913333 280.4728,27.2246667 C280.3888,27.8086667 280.3888,28.3926667 280.347467,28.934 C280.6808,28.934 281.139467,28.9753333 281.723467,28.9753333 C283.515467,29.0593333 284.475467,28.9753333 285.518133,28.9753333 C286.059467,28.934 286.602133,28.8513333 286.894133,28.8513333 C287.6448,28.8926667 288.6448,28.8086667 289.103467,28.8513333 C289.8128,28.726 290.0208,28.1006667 290.354133,28.226 C290.5208,28.2673333 290.5208,28.726 290.5208,29.142 C290.438133,29.5606667 290.3128,31.978 290.3128,32.1033333 L290.3128,32.6446667 C290.3128,32.77 290.271467,32.978 290.1048,32.978 C289.603467,33.0206667 288.394133,32.854 288.0608,32.854 C287.602133,32.854 286.9768,32.9366667 286.559467,32.8966667 C285.475467,32.978 284.7248,32.978 284.2248,32.978 C286.1848,32.978 276.7608,33.0633333 278.1368,33.0206667 C277.8448,33.0206667 275.9688,33.0633333 275.343467,32.9366667 C275.259467,32.8113333 275.427467,32.3113333 275.4688,32.1873333 C275.635467,31.9366667 276.094133,30.1433333 276.135467,29.7686667 L276.135467,28.4753333 C276.094133,28.2673333 276.135467,27.934 276.219467,26.85 C276.302133,25.974 276.3448,23.638 276.3448,23.43 C276.386133,23.0966667 276.386133,21.762 276.386133,20.0526667 C276.427467,19.8446667 276.5528,18.3433333 276.511467,17.8433333 C276.5528,16.7593333 276.678133,14.798 276.719467,13.4233333 C276.803467,12.2966667 276.8448,11.338 276.803467,11.1286667 C276.886133,10.046 276.803467,9.62866667 276.7608,9.00333333 C276.803467,8.83666667 276.7608,8.002 276.719467,7.878 C276.719467,7.75266667 275.886133,5.66733333 275.886133,5.042 C276.010133,4.958 276.302133,5.00066667 276.427467,5.00066667 C276.635467,5.042 276.803467,5.00066667 277.011467,5.042 C277.094133,5.042 279.179467,5.042 279.555467,5.08333333 L284.142133,5.16733333 L288.9368,5.16733333 C289.187467,5.20866667 289.479467,5.20866667 289.770133,5.16733333 C290.354133,5.12466667 290.354133,5.66733333 290.3128,5.834" id="Fill-33" fill="#FFFFFF"></path>
                <path d="M305.7848,10.7129333 C305.367467,9.96093333 305.242133,9.58626667 303.866133,9.37826667 C303.074133,9.2116 301.6568,9.08626667 300.7808,9.1276 C300.0728,9.1276 299.4048,9.29426667 298.779467,9.33693333 C298.738133,9.83693333 298.779467,10.2956 298.779467,10.7542667 L298.654133,13.2556 C298.6128,14.0489333 298.654133,15.3836 298.6128,16.1742667 C298.8208,16.1742667 301.823467,16.0502667 302.782133,16.0502667 C303.491467,16.0076 304.367467,15.1742667 304.7008,14.8822667 C305.618133,13.7982667 305.367467,13.3809333 305.743467,12.7556 C305.7008,12.7142667 305.743467,12.6302667 305.7848,12.5476 C305.951467,12.0049333 305.951467,11.3382667 305.7848,10.7129333 M309.746133,14.8822667 C308.578133,17.7182667 307.535467,18.4262667 305.7848,19.1769333 C306.3688,21.3449333 306.910133,22.3462667 307.911467,25.8489333 C308.286133,27.1836 308.703467,28.2676 309.203467,30.0609333 C309.4128,30.8529333 310.4128,32.2702667 310.538133,32.7289333 C310.579467,32.8956 310.287467,32.8956 310.038133,32.9782667 L305.659467,32.8956 C305.034133,32.8956 304.783467,32.8116 304.7008,32.6449333 C304.867467,31.8956 305.242133,31.6022667 304.951467,30.0182667 C304.4928,28.2676 303.950133,26.5582667 303.575467,24.8476 L302.866133,22.2209333 C302.699467,21.6369333 302.5328,20.7209333 302.2408,19.7196 C301.406133,19.7196 300.155467,19.8436 299.571467,19.8862667 L298.362133,19.8862667 C298.362133,20.6356 298.279467,21.3449333 298.279467,22.0956 C298.279467,22.3462667 298.1128,24.7649333 298.195467,26.1822667 C297.987467,27.6836 298.362133,30.2689333 298.6968,31.8956 C298.738133,32.1862667 298.946133,32.6449333 298.946133,32.6036 C298.987467,32.7702667 298.8208,32.7702667 298.6968,32.7702667 C298.0288,32.7702667 294.651467,33.0209333 294.110133,32.8956 C293.734133,32.8956 293.734133,32.8542667 293.734133,32.8116 C293.6928,32.4369333 293.859467,32.1449333 293.9848,31.8529333 C294.5688,30.6436 294.5688,27.3916 294.526133,26.1822667 C294.526133,25.8062667 294.526133,25.4316 294.4848,25.0142667 C294.526133,24.0969333 294.651467,17.2596 294.6928,15.5502667 C294.735467,14.1316 294.902133,9.00226667 294.818133,8.3356 C294.610133,7.12626667 294.1928,5.7916 294.026133,4.9996 C294.026133,4.75026667 294.318133,4.70893333 294.526133,4.70893333 C295.3608,4.70893333 298.279467,4.91693333 299.322133,4.95826667 C299.7808,5.04226667 304.450133,4.9996 304.575467,4.9996 C304.951467,5.04226667 305.326133,5.12493333 305.659467,5.25026667 C306.9528,5.54226667 308.3288,6.45826667 309.370133,9.00226667 C309.538133,9.9196 310.287467,12.0476 309.746133,14.8822667" id="Fill-35" fill="#FFFFFF"></path>
                <path d="M324.885467,20.3190667 C324.788133,20.2804 324.6908,20.2604 324.5748,20.2217333 C324.341467,20.0657333 323.5828,19.6190667 323.309467,19.2497333 L323.1548,18.9964 C322.648133,18.2577333 322.5508,18.1017333 322.221467,16.0404 C322.1628,15.1257333 322.104133,14.1924 322.104133,13.2777333 C322.104133,12.8310667 322.124133,12.3830667 322.181467,11.9364 C322.221467,11.4884 322.337467,11.0604 322.4148,10.6324 C322.493467,10.2244 322.609467,9.8164 322.7268,9.42706667 C322.824133,9.2524 322.8628,9.05773333 322.960133,8.88173333 C323.388133,8.04573333 323.680133,7.71506667 324.5348,7.20973333 C325.2748,6.8604 326.169467,6.8204 326.908133,6.91773333 C327.200133,6.9964 327.336133,7.05373333 327.5308,7.17106667 C327.589467,7.18973333 329.009467,8.00706667 329.145467,8.86306667 C329.261467,9.0764 329.281467,9.71906667 329.320133,10.0097333 C329.340133,10.0684 329.340133,10.1470667 329.300133,10.1857333 C329.2428,10.2444 329.125467,10.2044 329.048133,10.2044 C328.7948,10.2244 328.0948,10.2244 327.8028,10.2630667 C327.6468,10.2630667 327.5108,10.4390667 327.316133,10.3604 C327.297467,10.2444 327.413467,10.2244 327.433467,10.1084 C327.472133,9.9324 327.356133,9.5044 327.2588,9.31106667 C327.064133,8.9804 326.577467,8.62973333 326.208133,8.59106667 C326.072133,8.59106667 325.936133,8.59106667 325.800133,8.62973333 C325.060133,8.86306667 324.8468,9.34973333 324.496133,9.91373333 L324.380133,10.3017333 C324.049467,11.1577333 323.913467,12.0924 323.952133,13.6284 L323.952133,14.5030667 C323.952133,14.8737333 324.029467,15.9030667 324.088133,16.2337333 C324.1268,16.5257333 324.204133,16.8377333 324.321467,17.1097333 C324.496133,17.6737333 324.613467,18.0044 325.313467,18.4124 C325.585467,18.5884 325.857467,18.6070667 326.149467,18.5297333 C326.6948,18.4524 327.1028,18.0044 327.220133,17.5764 C327.2388,17.4990667 327.277467,17.1484 327.2588,17.0710667 C327.220133,17.0324 327.064133,16.9737333 327.1228,16.8950667 C327.2588,16.8177333 327.861467,16.7404 328.269467,16.7404 C328.5228,16.7404 329.048133,16.6630667 329.0868,16.6630667 C329.184133,16.6817333 329.2228,16.7404 329.2428,16.8177333 C329.2428,16.8950667 329.2228,17.1297333 329.2428,17.1684 C329.2228,17.7910667 328.872133,18.5684 328.620133,18.9577333 C328.5228,19.1137333 328.425467,19.2684 328.289467,19.4244 C328.1148,19.6764 327.569467,20.1630667 326.188133,20.4164 C325.857467,20.4550667 325.177467,20.3964 324.885467,20.3190667" id="Fill-37" fill="#FFFFFF"></path>
                <path d="M336.379867,13.8033333 L336.399867,13.122 C336.438533,12.7526667 336.515867,10.866 335.718533,9.466 C335.6012,9.23266667 335.407867,9.038 335.3292,8.99933333 C334.959867,8.80466667 334.687867,8.766 334.2012,8.97933333 C334.142533,9.038 333.811867,9.25133333 333.6372,9.54333333 C333.2092,10.3406667 332.7812,11.6246667 332.703867,12.3833333 C332.683867,12.558 332.6452,14.2513333 332.626533,14.4833333 C332.626533,14.698 332.703867,16.3313333 332.762533,16.6233333 C332.762533,16.702 332.839867,17.246 332.878533,17.3046667 C333.111867,18.2566667 334.454533,19.522 335.679867,17.694 C335.9132,17.3433333 336.302533,14.7566667 336.379867,13.8033333 M331.9252,19.2686667 C331.750533,19.0353333 331.594533,18.822 331.478533,18.5686667 C331.2252,18.0633333 331.1092,17.4593333 331.070533,16.9926667 C331.011867,16.4486667 330.914533,15.8846667 330.875867,15.3393333 C330.8372,15.0673333 330.8172,14.7753333 330.8172,14.5033333 C330.778533,14.1526667 330.875867,12.8113333 330.9332,12.0726667 C330.991867,11.3526667 331.030533,11.0993333 331.167867,10.5166667 C331.303867,9.97133333 331.439867,9.40733333 331.594533,9.038 C331.6532,8.882 331.867867,8.51266667 331.9452,8.39666667 C332.839867,6.85933333 333.5012,6.918 334.4932,6.97666667 C334.7852,6.97666667 335.271867,7.09266667 335.659867,7.19 C335.9132,7.26733333 337.274533,7.79266667 337.643867,9.23266667 C337.7412,9.486 337.818533,9.718 337.8972,9.97133333 C337.955867,10.2246667 337.974533,10.4966667 338.0132,10.7686667 C338.091867,11.022 338.286533,12.9286667 338.1492,13.998 C338.130533,14.2113333 337.974533,16.5846667 337.915867,16.7406667 C337.838533,17.2846667 337.274533,18.782 336.787867,19.346 C336.6132,19.5993333 335.795867,20.1833333 335.367867,20.2993333 C335.154533,20.3766667 334.882533,20.4166667 334.6292,20.4553333 C334.2012,20.514 333.131867,20.3193333 332.470533,19.8326667 C332.255867,19.6766667 332.0812,19.4833333 331.9252,19.2686667" id="Fill-39" fill="#FFFFFF"></path>
                <path d="M341.382933,19.7008 C341.0136,19.3874667 340.956267,18.6194667 340.928267,18.5341333 C340.928267,17.9074667 341.0416,17.3954667 341.724267,17.0261333 C342.2656,16.7981333 342.862933,16.0874667 343.8016,16.4288 C344.0296,16.5141333 344.200267,16.6274667 344.370933,16.7701333 C344.5696,16.9408 344.712267,17.1394667 344.7976,17.6808 C344.910933,18.3914667 344.654933,19.3301333 344.5696,19.5301333 C344.426933,19.7861333 343.8016,20.5261333 343.118933,20.5261333 C342.692267,20.5261333 341.922933,20.2981333 341.382933,19.7008" id="Fill-41" fill="#FFFFFF"></path>
            </g>
        </g>
    </g>
</svg>