<?xml version="1.0" encoding="UTF-8"?>
<svg width="348px" height="302px" viewBox="0 0 348 302" version="1.1" xmlns="http://www.w3.org/2000/svg" xmlns:xlink="http://www.w3.org/1999/xlink">
    <title>Prairie Bears Cider Co.</title>
    <g id="Chosen-ones" stroke="none" stroke-width="1" fill="none" fill-rule="evenodd">
        <g id="Home-Logo-2---b" transform="translate(-426.000000, -227.000000)" fill="#FFFFFF">
            <g id="Group-3" transform="translate(426.462687, 227.000000)">
                <path d="M339.572427,257.413389 C338.805235,256.761948 338.686791,255.165648 338.627569,254.990674 C338.627569,253.687792 338.864456,252.627182 340.28309,251.857297 C341.405614,251.383522 342.646583,249.905666 344.598213,250.616329 C345.069297,250.793995 345.424628,251.028191 345.77996,251.3243 C346.191821,251.679631 346.487931,252.091493 346.665596,253.214017 C346.902484,254.694565 346.369487,256.646196 346.191821,257.058057 C345.898403,257.588362 344.598213,259.128132 343.176888,259.128132 C342.291251,259.128132 340.694952,258.654357 339.572427,257.413389 M326.756269,238.971149 L326.815491,236.903766 C326.933935,235.781242 327.170822,230.047485 324.745416,225.791584 C324.390085,225.080921 323.800558,224.491394 323.56367,224.37295 C322.441146,223.780731 321.614731,223.662287 320.134183,224.313728 C319.95921,224.491394 318.952437,225.140143 318.422132,226.028471 C317.121942,228.448494 315.821752,232.349064 315.584864,234.656026 C315.525643,235.189023 315.407199,240.330561 315.347977,241.041224 C315.347977,241.689973 315.584864,246.656537 315.76253,247.542174 C315.76253,247.779062 315.999418,249.431891 316.117862,249.612249 C316.825833,252.508738 320.904068,256.347394 324.626972,250.793995 C325.337635,249.730692 326.519381,241.867639 326.756269,238.971149 M313.21868,255.580201 C312.688375,254.87223 312.2146,254.22079 311.86196,253.450905 C311.092075,251.916519 310.736744,250.083332 310.620992,248.664698 C310.443326,247.011869 310.147217,245.294433 310.028773,243.641604 C309.910329,242.812497 309.851107,241.926861 309.851107,241.097754 C309.732664,240.034452 310.028773,235.956216 310.206439,233.711167 C310.384105,231.525341 310.502548,230.755456 310.91441,228.981491 C311.328963,227.32597 311.743516,225.613918 312.2146,224.491394 C312.392265,224.017619 313.043706,222.895094 313.277902,222.539763 C315.999418,217.872 318.007579,218.046974 321.022512,218.22464 C321.908149,218.22464 323.386004,218.579971 324.56775,218.876081 C325.337635,219.110276 329.475093,220.706576 330.597617,225.080921 C330.893727,225.848114 331.130614,226.558777 331.367502,227.32597 C331.542476,228.095854 331.601698,228.922269 331.720141,229.751376 C331.957029,230.518568 332.549248,236.311547 332.134695,239.563368 C332.075473,240.212117 331.601698,247.42373 331.424032,247.897505 C331.189836,249.550335 329.475093,254.105038 327.997237,255.817089 C327.46424,256.584282 324.982304,258.360939 323.682114,258.710887 C323.030673,258.947774 322.204258,259.066218 321.437065,259.184662 C320.134183,259.365019 316.885054,258.7728 314.874202,257.294945 C314.225453,256.821169 313.692455,256.231642 313.21868,255.580201 M291.831497,258.7728 C291.535388,258.654357 291.239278,258.592443 290.886639,258.479383 C290.175976,258.005608 287.871705,256.646196 287.042599,255.52098 L286.571515,254.753787 C285.034438,252.508738 284.738328,252.034963 283.734248,245.768209 C283.556582,242.992855 283.378916,240.152895 283.378916,237.377542 C283.378916,236.015438 283.438138,234.656026 283.615804,233.296614 C283.734248,231.937202 284.089579,230.637012 284.323775,229.336822 C284.560663,228.095854 284.915994,226.852194 285.271325,225.67314 C285.567435,225.140143 285.683187,224.547924 285.979296,224.017619 C287.279486,221.473769 288.165123,220.469688 290.768195,218.932611 C293.013243,217.872 295.732067,217.753556 297.977116,218.046974 C298.865444,218.283862 299.279998,218.461527 299.869525,218.816859 C300.04719,218.876081 304.362314,221.355325 304.776867,223.958397 C305.129507,224.607146 305.188728,226.558777 305.307172,227.444413 C305.366394,227.624771 305.366394,227.858967 305.24795,227.97741 C305.070285,228.155076 304.717645,228.036632 304.480757,228.036632 C303.710873,228.095854 301.584268,228.095854 300.698631,228.214298 C300.224856,228.214298 299.810303,228.747295 299.220776,228.510408 C299.161554,228.155076 299.514193,228.095854 299.573415,227.743215 C299.691859,227.207526 299.339219,225.910028 299.04311,225.317809 C298.450891,224.313728 296.973035,223.250426 295.850511,223.131982 C295.435958,223.131982 295.024096,223.131982 294.609543,223.250426 C292.361802,223.958397 291.713053,225.436252 290.649751,227.150996 L290.29442,228.33005 C289.290339,230.933122 288.875786,233.770389 288.99423,238.438152 L288.99423,241.097754 C288.99423,242.220278 289.231117,245.356347 289.408783,246.360428 C289.527227,247.246064 289.764114,248.190923 290.116754,249.02003 C290.649751,250.734773 291.005082,251.738853 293.131687,252.979821 C293.958102,253.512819 294.787209,253.569349 295.672845,253.332461 C297.328367,253.095573 298.569335,251.738853 298.924666,250.438663 C298.983888,250.201776 299.102332,249.138473 299.04311,248.901586 C298.924666,248.783142 298.450891,248.608168 298.628557,248.371281 C299.04311,248.134393 300.876297,247.897505 302.114573,247.897505 C302.884458,247.897505 304.480757,247.660618 304.599201,247.660618 C304.895311,247.717148 305.013755,247.897505 305.070285,248.134393 C305.070285,248.371281 305.013755,249.079252 305.070285,249.195003 C305.013755,251.087412 303.94776,253.450905 303.180568,254.635343 C302.884458,255.109118 302.588348,255.580201 302.173795,256.053977 C301.64349,256.821169 299.987969,258.299025 295.791289,259.066218 C294.787209,259.184662 292.717134,259.009688 291.831497,258.7728 M260.241995,228.308515 C258.887967,225.875033 258.48149,224.658292 254.018312,223.979932 C251.447543,223.438859 246.847078,223.035073 244.007118,223.166977 C241.705539,223.166977 239.541248,223.70805 237.511552,223.845337 C237.376957,225.468555 237.511552,226.95987 237.511552,228.445802 L237.105074,236.564586 C236.970479,239.135355 237.105074,243.463938 236.970479,246.034707 C237.646147,246.034707 247.38815,245.62823 250.499992,245.62823 C252.801571,245.493634 255.64153,242.785578 256.723676,241.84072 C259.700923,238.3224 258.887967,236.968372 260.104708,234.938676 C259.970113,234.806773 260.104708,234.53489 260.241995,234.263008 C260.783068,232.505194 260.783068,230.338211 260.241995,228.308515 M273.09584,241.84072 C269.305639,251.04165 265.924606,253.340537 260.241995,255.77671 C262.137096,262.813349 263.89491,266.059786 267.141347,277.425008 C268.36078,281.753591 269.712116,285.274602 271.335335,291.091808 C272.013695,293.662577 275.260132,298.263043 275.666609,299.751666 C275.801205,300.292739 274.853654,300.292739 274.043391,300.561929 L259.835518,300.292739 C257.805822,300.292739 256.995558,300.020856 256.723676,299.479784 C257.264749,297.04361 258.48149,296.096059 257.536631,290.954521 C256.048008,285.274602 254.287502,279.723895 253.070761,274.178571 L250.771875,265.656001 C250.230802,263.758208 249.687037,260.783653 248.742178,257.534524 C246.034122,257.534524 241.977422,257.941002 240.082321,258.075597 L236.157524,258.075597 C236.157524,260.511771 235.888333,262.813349 235.888333,265.246831 C235.888333,266.059786 235.347261,273.906689 235.616451,278.507154 C234.940783,283.379501 236.157524,291.767477 237.23967,297.04361 C237.376957,297.99116 238.052625,299.479784 238.052625,299.342496 C238.18722,299.883569 237.646147,299.883569 237.23967,299.883569 C235.075378,299.883569 224.116634,300.696524 222.35882,300.292739 C221.139387,300.292739 221.139387,300.155452 221.139387,300.020856 C221.004792,298.801424 221.545865,297.853873 221.952343,296.909015 C223.844752,292.984217 223.844752,282.431951 223.710156,278.507154 C223.710156,277.290413 223.710156,276.073672 223.575561,274.719644 C223.710156,271.742397 224.116634,249.553027 224.251229,244.007703 C224.385825,239.407238 224.929589,222.763191 224.657707,220.5989 C223.982039,216.674103 222.628011,212.34552 222.086938,209.774751 C222.086938,208.961796 223.034488,208.8272 223.710156,208.8272 C226.415521,208.8272 235.888333,209.502868 239.269366,209.640156 C240.757989,209.909346 255.910721,209.774751 256.317198,209.774751 C257.536631,209.909346 258.753372,210.178536 259.835518,210.585014 C264.032197,211.532565 268.495375,214.509811 271.879099,222.763191 C272.420172,225.737746 274.853654,232.639789 273.09584,241.84072 M210.037972,212.480115 C209.903377,213.427665 210.44445,219.785944 209.903377,224.251814 C209.768782,224.792887 206.791535,223.845337 206.65694,223.845337 C205.302912,223.304264 204.086171,222.897786 202.462953,222.897786 C197.727892,222.897786 194.613358,222.491309 191.232326,222.491309 C190.284776,222.491309 180.408177,222.763191 178.784959,222.628596 C178.784959,224.251814 178.919554,225.875033 178.919554,227.498251 C178.919554,230.475498 178.919554,233.584648 179.054149,236.699182 C178.919554,242.10991 178.919554,244.546084 178.919554,245.087157 C179.867104,244.952562 180.94925,245.087157 182.031396,245.087157 C184.195687,244.952562 184.874047,244.952562 189.068035,244.952562 L194.885241,244.683371 C195.698196,244.546084 195.967386,243.329343 196.508459,242.922865 C196.780342,242.785578 197.321415,242.653675 197.45601,243.194748 L197.727892,250.365982 C197.862487,253.205941 197.862487,256.996143 198.13437,258.075597 C198.13437,258.753957 198.40356,259.429625 198.13437,259.833411 C197.727892,260.24258 196.914937,258.347479 195.426314,258.212884 C194.613358,258.212884 191.907994,258.075597 191.097731,257.941002 C189.878298,257.806407 187.172934,258.075597 184.195687,258.075597 C182.437873,257.941002 179.732509,258.075597 178.243886,258.075597 C178.243886,262.541467 177.702813,277.559603 178.109291,281.890878 C177.837408,283.783287 177.837408,285.678388 177.702813,287.436202 C178.784959,287.436202 180.273582,287.573489 182.165991,287.573489 C187.983197,287.842679 191.097731,287.573489 194.478763,287.573489 C196.236577,287.436202 197.997083,287.167011 198.944633,287.167011 C201.380807,287.304298 204.627244,287.032416 206.115867,287.167011 C208.414754,286.760534 209.090422,284.730838 210.17526,285.137315 C210.716332,285.274602 210.716332,286.760534 210.716332,288.11187 C210.44445,289.465898 210.037972,297.3128 210.037972,297.72197 L210.037972,299.479784 C210.037972,299.883569 209.903377,300.561929 209.362304,300.561929 C207.739086,300.696524 203.814289,300.155452 202.732143,300.155452 C201.24352,300.155452 199.213824,300.427334 197.862487,300.292739 C194.344168,300.561929 191.907994,300.561929 190.284776,300.561929 C196.643055,300.561929 166.065709,300.83112 170.531579,300.696524 C169.584028,300.696524 163.49494,300.83112 161.465244,300.427334 C161.196053,300.020856 161.737126,298.397638 161.871721,297.99116 C162.412794,297.178205 163.901417,291.360999 164.036013,290.141566 L164.036013,285.95027 C163.901417,285.274602 164.036013,284.189765 164.307895,280.674137 C164.577086,277.831486 164.711681,270.256466 164.711681,269.578106 C164.848968,268.493268 164.848968,264.164686 164.848968,258.61667 C164.983563,257.941002 165.390041,253.071346 165.255446,251.445436 C165.390041,247.929808 165.793826,241.568837 165.931114,237.105659 C166.200304,233.452745 166.337591,230.338211 166.200304,229.662543 C166.472186,226.146915 166.200304,224.792887 166.065709,222.763191 C166.200304,222.222118 166.065709,219.516754 165.931114,219.110276 C165.931114,218.703799 163.225749,211.939042 163.225749,209.909346 C163.629535,209.640156 164.577086,209.774751 164.983563,209.774751 C165.659231,209.909346 166.200304,209.774751 166.878664,209.909346 C167.147855,209.909346 173.912611,209.909346 175.132044,210.043941 L190.012893,210.315824 L205.574794,210.315824 C206.385058,210.450419 207.332608,210.450419 208.280159,210.315824 C210.17526,210.178536 210.17526,211.939042 210.037972,212.480115 M121.681584,286.895129 C131.017109,285.812983 132.91221,283.244906 135.75217,274.178571 C138.188344,267.004645 138.322939,251.717318 138.188344,244.276894 C138.053748,242.516388 137.647271,234.128413 136.158647,231.016571 C131.830065,222.359405 121.681584,222.491193 116.405451,222.491193 C116.133568,229.12147 116.133568,266.735455 115.051423,275.529907 C114.51035,279.454704 113.697395,283.244906 113.697395,287.304298 C114.644945,287.304298 121.412393,286.895129 121.681584,286.895129 M98.8138533,300.155452 C98.5446629,299.751666 100.708954,293.662577 100.980837,292.308549 C100.980837,291.767477 101.115432,289.062112 101.387314,287.436202 C101.387314,286.895129 101.7911,282.566546 101.7911,279.861182 C102.46946,271.064037 102.741342,254.694565 103.010533,249.956812 C102.875938,244.139606 103.010533,222.359405 103.145128,219.244872 C103.414318,216.404912 103.551606,213.699548 102.741342,211.532565 C102.46946,210.585014 100.843549,210.450419 100.843549,210.178536 C100.843549,209.233678 102.334865,209.640156 103.958083,209.640156 C107.20452,209.909346 114.782232,209.909346 115.998973,209.909346 C121.412393,209.909346 126.823122,210.585014 130.341441,211.397969 C138.460226,213.290378 143.870954,219.244872 147.117392,225.605842 C149.960043,230.475498 150.907593,243.735821 151.583261,253.071346 C151.717857,263.354422 152.934598,274.854239 144.9531,288.521039 C141.300185,292.849622 137.781866,296.637132 133.587878,298.263043 C128.718223,300.155452 119.92377,300.83112 111.129317,300.292739 L102.604055,300.696524 C100.305169,300.696524 98.9511405,300.561929 98.8138533,300.155452 M68.2338157,299.751666 C68.2338157,299.342496 69.3159614,296.502537 69.5878438,295.554986 L70.3981071,290.278853 C70.5327024,289.465898 70.93918,287.436202 71.0737752,285.137315 C71.3456576,283.379501 71.4802528,282.025473 71.4802528,279.723895 C71.6148481,277.694199 71.4802528,275.80179 71.4802528,273.906689 C71.6148481,272.01428 71.7521352,270.119179 71.7521352,268.224078 C71.4802528,264.301973 71.6148481,260.511771 71.6148481,256.724261 C71.6148481,253.340537 71.8867304,241.299647 71.8867304,239.407238 C71.7521352,238.05321 71.8867304,231.692239 71.8867304,230.881976 C71.8867304,230.475498 71.8867304,227.363656 71.7521352,225.196673 C71.7521352,223.035073 71.4802528,219.92054 70.93918,216.808698 C70.6672976,215.457362 70.5327024,213.158475 69.9916295,211.260682 C69.8570343,210.856896 69.7224391,210.178536 69.9916295,209.909346 C70.3981071,209.640156 72.5623985,209.502868 74.0510218,209.368273 C74.5920947,209.368273 81.222256,210.043941 83.6584298,210.178536 C85.8227212,210.178536 86.6356764,209.774751 87.0394621,210.315824 C87.5832269,210.991492 86.363794,214.644406 85.8227212,215.998434 C85.6881259,216.404912 85.2816483,218.566512 85.2816483,219.244872 C85.4162436,226.550701 85.1470531,222.897786 85.2816483,227.363656 C85.1470531,229.12147 85.1470531,231.016571 85.0124578,232.777077 L84.6059802,243.598534 C84.3340979,249.553027 84.3340979,253.612419 84.4686931,260.105293 C84.4686931,261.863107 84.4686931,263.758208 84.3340979,265.518714 C84.1995026,269.034341 84.0649074,272.689948 83.6584298,276.205575 C83.3892393,279.454704 83.2519522,285.406506 83.2519522,286.625939 C83.3892393,293.121505 83.1173569,295.013914 84.4686931,298.801424 C84.7405755,299.207901 84.8751707,299.751666 84.6059802,300.155452 C82.7108793,301.10031 71.0737752,300.155452 69.4505567,300.292739 C68.9094838,300.292739 68.5030062,300.292739 68.2338157,299.751666 M27.3653183,301.237597 C26.6896503,300.968407 26.0139822,300.83112 25.2010269,300.561929 C23.5778084,299.479784 18.2989833,296.367942 16.4065742,293.797173 L15.3244285,292.036667 C11.8061091,286.895129 11.130441,285.812983 8.82886246,271.473207 C8.42238485,265.112236 8.01859914,258.61667 8.01859914,252.258391 C8.01859914,249.146549 8.15319438,246.034707 8.55967199,242.922865 C8.82886246,239.811024 9.64181769,236.833777 10.1828905,233.85653 C10.7239634,231.016571 11.5342267,228.176611 12.3471819,225.468555 C13.02285,224.251814 13.2920405,222.897786 13.9704005,221.681045 C16.9476471,215.861147 18.9773432,213.562261 24.9291446,210.043941 C30.0706826,207.607767 36.2943663,207.338577 41.4385962,208.014245 C43.4656005,208.55801 44.4131509,208.961796 45.767179,209.774751 C46.1709647,209.909346 56.050255,215.591957 56.9951136,221.54645 C57.8080688,223.035073 57.942664,227.498251 58.2145464,229.527948 C58.3491416,229.934425 58.3491416,230.475498 58.0799512,230.74738 C57.6734735,231.151166 56.8605183,230.881976 56.3194455,230.881976 C54.5616317,231.016571 49.6892842,231.016571 47.6622799,231.288453 C46.5774423,231.288453 45.6325837,232.505194 44.2785557,231.964121 C44.1412685,231.151166 44.9542238,231.016571 45.088819,230.206308 C45.3607014,228.986875 44.5477461,226.009628 43.8720781,224.658292 C42.51805,222.359405 39.1370177,219.92054 36.5662487,219.651349 C35.6186982,219.651349 34.6711477,219.651349 33.7235973,219.92054 C28.5820593,221.54645 27.093436,224.927482 24.6599541,228.852279 L23.8469989,231.557644 C21.5481122,237.509445 20.6005618,244.007703 20.8697523,254.694565 L20.8697523,260.783653 C20.8697523,263.354422 21.413517,270.522964 21.8173027,272.824543 C22.0891851,274.854239 22.6302579,277.018531 23.4405213,278.913631 C24.6599541,282.835737 25.4702174,285.137315 30.342565,287.977275 C32.2376659,289.196708 34.1300749,289.331303 36.1597711,288.79023 C39.947281,288.249157 42.7899324,285.137315 43.6001957,282.160069 C43.7374828,281.618996 44.0066733,279.182822 43.8720781,278.644441 C43.6001957,278.372559 42.51805,277.966081 42.9245276,277.425008 C43.8720781,276.881243 48.0660656,276.342862 50.908717,276.342862 C52.6665308,276.342862 56.3194455,275.80179 56.5886359,275.80179 C57.2669959,275.936385 57.5388783,276.342862 57.6734735,276.881243 C57.6734735,277.425008 57.5388783,279.048227 57.6734735,279.320109 C57.5388783,283.648692 55.1027045,289.062112 53.3421989,291.767477 C52.6665308,292.849622 51.9908627,293.931768 51.0433122,295.013914 C49.8265713,296.771727 46.0363695,300.155452 36.4316534,301.913265 C34.1300749,302.185148 29.3950145,301.77867 27.3653183,301.237597 M301.554657,196.589801 C299.702627,195.203471 298.162857,193.658317 296.157388,192.425425 C294.614927,191.189841 293.072465,189.80351 291.993012,188.10761 C290.140981,185.639133 285.053281,177.003503 286.439612,175.304911 C288.291643,173.765141 292.762896,171.759672 295.384811,170.833657 C298.162857,169.754203 299.858757,168.36518 300.784772,168.058303 C303.406688,167.285727 304.486141,168.521311 304.332703,170.833657 C304.63958,176.540495 305.256026,178.543272 307.571064,181.781634 C311.888879,186.41171 319.138179,185.948702 323.455994,182.400772 C325.771032,180.85831 328.855955,175.151472 329.009393,170.833657 C329.31627,169.291196 329.31627,167.746042 329.009393,166.052834 C328.083378,159.882989 325.771032,155.099474 319.601186,149.702205 L315.743687,146.770721 C308.650518,141.220013 306.954618,141.833768 301.094341,135.206298 C297.853288,131.962553 295.847819,125.948838 295.384811,122.710477 C295.231373,121.477584 294.614927,113.609147 296.157388,109.44477 C297.546411,106.362539 300.475203,100.036563 304.023134,98.033786 C306.49161,96.3351941 309.88341,94.9461713 311.735441,94.1762865 C316.825833,92.6338251 319.601186,91.8639404 325.771032,92.7899556 C331.47787,94.0228479 337.647715,96.3351941 341.502523,104.20094 C342.428538,106.362539 343.354553,107.595432 344.897015,108.518755 C346.129907,109.600901 346.746353,109.907778 346.439476,110.370785 C345.513461,111.450239 341.195646,113.609147 339.497054,114.844731 C338.727169,115.151608 334.409354,117.466646 331.324431,119.778992 C329.472401,120.858446 330.398416,118.70223 330.551855,117.929654 C331.324431,115.924185 330.551855,110.680354 328.239509,108.674885 C323.302555,104.817386 318.521732,106.206409 314.973802,109.44477 C314.357356,109.907778 312.198448,112.376254 311.735441,113.146139 C308.034072,117.466646 311.118995,124.252938 313.74091,127.337861 C316.362825,130.576222 329.31627,135.666614 335.486116,144.921382 C336.568262,146.617282 337.647715,148.315874 338.727169,150.165213 C339.187485,150.781659 343.817561,158.650096 344.897015,168.36518 C345.203892,170.677527 344.897015,173.299442 344.587446,174.535026 C343.971,181.781634 342.272408,183.787103 338.110723,190.266517 C336.7217,191.965109 336.412131,192.888432 327.623062,199.058278 C323.302555,201.373316 318.368294,200.447301 316.206694,200.447301 C312.505325,200.447301 305.102587,199.674724 301.554657,196.589801 M262.535498,115.924185 C260.995729,113.146139 260.532721,111.759808 255.442329,110.987231 C252.510845,110.370785 247.267015,109.907778 244.028653,110.063908 C241.406738,110.063908 238.938261,110.680354 236.625915,110.833793 C236.469785,112.683131 236.625915,114.381723 236.625915,116.077623 L236.162908,125.335084 C236.006777,128.261184 236.162908,133.198137 236.006777,136.129622 C236.779354,136.129622 247.883461,135.666614 251.431391,135.666614 C254.053306,135.513175 257.29436,132.425561 258.527252,131.348799 C261.919052,127.337861 260.995729,125.795399 262.38206,123.480361 C262.228621,123.326923 262.38206,123.017354 262.535498,122.710477 C263.154636,120.705007 263.154636,118.239223 262.535498,115.924185 M277.190227,131.348799 C272.86972,141.833768 269.014913,144.458375 262.535498,147.233728 C264.697098,155.255605 266.702567,158.956974 270.403936,171.910419 C271.790267,176.847372 273.33542,180.85831 275.184758,187.488472 C275.954643,190.419956 279.658704,195.666478 280.121712,197.359686 C280.27515,197.978824 279.195696,197.978824 278.269681,198.285701 L262.072491,197.978824 C259.760144,197.978824 258.834129,197.671947 258.527252,197.052809 C259.143698,194.277455 260.532721,193.198002 259.453267,187.337725 C257.754675,180.85831 255.749206,174.535026 254.362875,168.20905 L251.74096,158.493966 C251.124514,156.335058 250.508068,152.940566 249.425922,149.239197 C246.340999,149.239197 241.713615,149.702205 239.554708,149.855644 L235.083454,149.855644 C235.083454,152.630997 234.773885,155.255605 234.773885,158.030958 C234.773885,158.956974 234.157439,167.902173 234.467008,173.146003 C233.694431,178.699403 235.083454,188.26374 236.316346,194.277455 C236.469785,195.356909 237.242361,197.052809 237.242361,196.89937 C237.3958,197.515817 236.779354,197.515817 236.316346,197.515817 C233.850562,197.515817 221.35474,198.441832 219.349271,197.978824 C217.96294,197.978824 217.96294,197.822694 217.96294,197.671947 C217.809501,196.282924 218.425948,195.203471 218.886263,194.121325 C221.047863,189.650071 221.047863,177.617257 220.894424,173.146003 C220.894424,171.759672 220.894424,170.37065 220.738294,168.828188 C220.894424,165.433696 221.35474,140.14056 221.51087,133.814583 C221.664309,128.573445 222.280755,109.600901 221.971186,107.132424 C221.201301,102.66117 219.65884,97.7242169 219.042394,94.7954246 C219.042394,93.8667175 220.121847,93.7132789 220.894424,93.7132789 C223.979347,93.7132789 234.773885,94.4858556 238.628692,94.6392941 C240.327284,94.9461713 257.601237,94.7954246 258.064244,94.7954246 C259.453267,94.9461713 260.839598,95.2584322 262.072491,95.7214398 C266.856005,96.7982017 271.943705,100.192694 275.801205,109.600901 C276.417651,112.995392 279.195696,120.858446 277.190227,131.348799 M184.96288,152.16799 C185.425888,151.861113 182.957411,142.759783 181.261511,135.513175 C180.642373,131.348799 179.256042,121.631023 178.483465,121.321454 C178.020458,121.784461 171.543735,151.554236 171.697174,152.32412 C172.160181,152.480251 174.938227,152.480251 176.017681,152.480251 C179.565611,152.480251 184.499872,152.480251 184.96288,152.16799 M142.702668,196.745932 C144.242437,194.121325 146.250598,184.562371 148.869822,177.46651 C149.795837,173.915888 151.028729,170.37065 151.954744,166.822719 C152.88076,163.274789 154.113652,159.882989 155.039667,156.335058 C157.045136,149.239197 159.050605,142.296775 161.362951,135.357045 C162.445097,131.811806 163.677989,128.417315 164.604005,124.872076 C165.53002,121.321454 166.299905,117.620085 167.22592,114.072154 C169.847835,102.50504 170.61772,100.80914 170.310843,98.4967936 C169.538266,94.0228479 170.001274,94.0228479 172.006743,94.0228479 C176.634127,94.1762865 179.102603,93.8667175 184.809441,93.8667175 C185.579326,93.7132789 188.664249,93.5598403 188.51081,94.6392941 L187.428665,97.8776555 C187.121788,100.346132 194.371087,131.192668 197.762887,147.696736 C198.382025,150.47209 204.551871,173.915888 205.321755,177.46651 C205.938202,180.085734 207.790232,191.345971 207.943671,192.115856 C208.097109,193.507571 208.560117,193.970578 208.869686,194.433586 C210.875155,196.126794 209.023124,195.973355 208.097109,195.973355 L201.310817,195.973355 C199.30804,195.973355 193.291633,196.745932 192.982064,195.973355 C192.675187,194.584332 193.754641,192.425425 193.291633,190.113079 C193.138195,189.187063 192.212179,186.255579 191.90261,184.406241 L190.513587,174.841903 C190.360149,173.146003 189.436826,168.828188 188.973818,167.439165 C182.031396,167.439165 175.401234,167.595296 171.697174,167.595296 C170.154712,167.746042 168.149243,167.746042 167.379358,167.746042 C166.762912,170.06108 166.453343,172.22268 165.836897,174.378896 C165.53002,177.46651 165.067012,179.00628 164.757443,180.704872 C164.140997,184.25011 161.362951,189.340502 159.97662,195.04734 C160.130059,195.973355 161.362951,196.589801 161.362951,197.052809 C161.519082,197.671947 161.056074,197.671947 160.283498,197.515817 C154.113652,197.515817 147.943806,198.441832 141.157515,198.441832 C140.850637,197.671947 141.776653,198.134955 142.702668,196.745932 M131.138245,97.8776555 C130.984807,98.9598012 131.601253,106.206409 130.984807,111.296801 C130.831368,111.913247 127.436876,110.833793 127.283438,110.833793 C125.738284,110.217347 124.351953,109.754339 122.499923,109.754339 C117.102654,109.754339 113.554724,109.294023 109.699916,109.294023 C108.620462,109.294023 97.3602248,109.600901 95.5081943,109.44477 C95.5081943,111.296801 95.6643248,113.146139 95.6643248,115.000861 C95.6643248,118.389969 95.6643248,121.940592 95.8177634,125.48583 C95.6643248,131.655676 95.6643248,134.43103 95.6643248,135.050168 C96.7437786,134.894037 97.976671,135.050168 99.2095633,135.050168 C101.67804,134.894037 102.450617,134.894037 107.231439,134.894037 L113.864293,134.58716 C114.790308,134.43103 115.097185,133.044699 115.713631,132.581691 C116.0232,132.425561 116.639646,132.274814 116.795777,132.888568 L117.102654,141.063883 C117.258784,144.302244 117.258784,148.622751 117.565662,149.855644 C117.565662,150.62822 117.875231,151.398105 117.565662,151.861113 C117.102654,152.32412 116.176639,150.165213 114.480739,150.011774 C113.554724,150.011774 110.469801,149.855644 109.543786,149.702205 C108.157455,149.548767 105.072532,149.855644 101.67804,149.855644 C99.6725709,149.702205 96.5876481,149.855644 94.8917482,149.855644 C94.8917482,154.948727 94.275302,172.066549 94.7383096,177.003503 C94.4314325,179.16241 94.4314325,181.318626 94.275302,183.326787 C95.5081943,183.326787 97.2067862,183.480225 99.3656938,183.480225 C105.995855,183.787103 109.543786,183.480225 113.401285,183.480225 C115.406754,183.326787 117.412223,183.017218 118.491677,183.017218 C121.267031,183.170656 124.9684,182.863779 126.666991,183.017218 C129.286215,182.55421 130.058791,180.241864 131.291684,180.704872 C131.90813,180.85831 131.90813,182.55421 131.90813,184.099364 C131.601253,185.639133 131.138245,194.584332 131.138245,195.04734 L131.138245,197.052809 C131.138245,197.515817 130.984807,198.285701 130.36836,198.285701 C128.51633,198.441832 124.045076,197.822694 122.809492,197.822694 C121.113592,197.822694 118.798554,198.134955 117.258784,197.978824 C113.247846,198.285701 110.469801,198.285701 108.620462,198.285701 C115.86707,198.285701 81.0122874,198.59527 86.0999874,198.441832 C85.0205336,198.441832 78.0808032,198.59527 75.7657651,198.134955 C75.458888,197.671947 76.0753342,195.819917 76.2287728,195.356909 C76.8452189,194.433586 78.5438108,187.800733 78.6972494,186.41171 L78.6972494,181.630887 C78.5438108,180.85831 78.6972494,179.625418 79.0068184,175.61448 C79.3136956,172.373427 79.4671341,163.737796 79.4671341,162.96522 C79.6232646,161.732327 79.6232646,156.798066 79.6232646,150.47209 C79.7767032,149.702205 80.2397108,144.148806 80.0862722,142.296775 C80.2397108,138.288529 80.7027184,131.03923 80.856157,125.948838 C81.165726,121.784461 81.3191646,118.239223 81.165726,117.466646 C81.475295,113.455708 81.165726,111.913247 81.0122874,109.600901 C81.165726,108.981762 81.0122874,105.899532 80.856157,105.436524 C80.856157,104.973516 77.7739261,97.2612093 77.7739261,94.9461713 C78.2342418,94.6392941 79.3136956,94.7954246 79.7767032,94.7954246 C80.5492798,94.9461713 81.165726,94.7954246 81.9356108,94.9461713 C82.2451798,94.9461713 89.9574868,94.9461713 91.3465096,95.1023017 L108.310893,95.4091789 L126.047853,95.4091789 C126.973869,95.5653093 128.053322,95.5653093 129.132776,95.4091789 C131.291684,95.2584322 131.291684,97.2612093 131.138245,97.8776555 M42.149259,131.502237 C43.6917204,128.110437 54.6423888,109.754339 35.6698444,109.137893 C34.2835135,109.137893 29.8095678,108.831016 28.8835526,108.831016 C26.5712065,108.674885 24.5657374,108.831016 22.4068299,108.981762 C22.5602684,110.987231 22.5602684,113.146139 22.5602684,115.000861 L22.4068299,125.48583 L21.7903837,135.666614 L22.4068299,135.666614 C28.2671064,135.666614 30.426014,135.976183 36.132852,135.513175 C39.0643362,135.206298 41.2232438,133.044699 42.149259,131.502237 M21.017807,183.480225 C22.4068299,183.480225 24.719176,183.480225 25.9547603,183.326787 L30.735583,183.326787 C32.5849216,183.326787 39.9876596,183.787103 42.9191438,180.85831 C46.3136356,177.003503 46.4670742,176.540495 47.2396509,171.296665 C47.7026585,166.51315 46.3136356,164.044673 45.0807433,160.036427 C44.4616052,158.493966 43.6917204,157.261074 43.3821514,156.798066 C42.149259,155.255605 39.2177748,150.781659 30.735583,150.62822 L21.3273761,150.62822 L21.3273761,162.351465 C21.3273761,167.285727 21.1739375,171.447411 20.8643685,173.765141 C20.8643685,176.847372 20.708238,178.543272 20.708238,181.011749 C20.5547994,182.707649 20.2452304,183.480225 21.017807,183.480225 M15.7739766,198.134955 C14.3849538,198.134955 6.98221583,198.441832 4.05073159,198.285701 C1.12193926,198.285701 0.812370218,198.441832 0.349362607,197.822694 C0.349362607,197.052809 0.812370218,196.589801 1.12193926,196.126794 C2.04795448,194.893901 2.51096209,193.35144 3.28084684,191.965109 C3.89729302,189.956948 4.05073159,187.951479 3.89729302,187.028156 C3.89729302,185.332256 4.05073159,183.633664 4.20686207,181.937764 C4.36030063,180.241864 4.5137392,178.543272 4.5137392,176.847372 C4.66986968,175.151472 4.82330825,173.455572 4.82330825,171.759672 L4.97674681,166.669281 C5.13287729,163.12135 5.43975443,159.57342 5.43975443,156.18162 C5.43975443,154.173459 5.5958849,148.466621 5.74932347,145.691267 C5.90276204,139.677552 6.05620061,138.288529 6.36576965,135.206298 C6.51920822,133.507706 6.51920822,131.811806 6.51920822,129.959776 C6.67264679,127.954307 6.67264679,127.028292 6.36576965,122.091338 C6.51920822,120.088561 6.36576965,115.463869 6.36576965,114.228285 C6.21233108,110.833793 6.51920822,107.595432 6.67264679,104.35707 C6.51920822,103.894063 6.67264679,103.431055 6.51920822,102.968047 C6.21233108,101.888594 4.97674681,98.4967936 3.58772398,95.4091789 C3.43428541,95.2584322 3.43428541,94.9461713 3.58772398,94.9461713 L8.06166962,94.9461713 C12.3821767,95.1023017 15.310969,94.9461713 17.6260071,94.9461713 C27.3410912,94.9461713 31.5081597,94.6392941 43.0725824,96.1817555 C46.4670742,97.2612093 51.4040275,98.8036707 54.9519579,102.042032 C58.0368807,105.592654 60.6587959,111.143362 61.2752421,115.614616 C61.7382497,118.5461 61.5821192,121.477584 61.1218035,124.252938 C60.6587959,127.954307 59.1136426,132.888568 57.264304,135.976183 C56.1848502,137.981652 51.557466,142.296775 49.0889894,143.685798 C51.8670351,144.921382 52.6369198,146.463844 54.9519579,148.466621 C56.8012964,150.62822 60.0396578,156.025489 60.3492268,158.337835 C60.965673,160.343304 61.4286806,162.195335 61.7382497,164.200804 C62.1985654,166.669281 61.8916882,174.535026 61.5821192,175.767918 C61.2752421,179.625418 59.1136426,185.176125 57.4177426,187.181594 C56.0287198,188.877494 52.0204736,195.510348 47.0835204,196.436363 C40.2972286,199.367847 21.3273761,198.134955 18.7054609,198.134955 C17.7794456,197.978824 16.8534304,198.134955 15.7739766,198.134955 M337.486201,3.24105328 C337.365066,4.08361946 337.844225,9.72315984 337.365066,13.6856436 C337.24393,14.1674945 334.600479,13.3249283 334.482036,13.3249283 C333.281446,12.8457693 332.201992,12.487746 330.761823,12.487746 C326.557068,12.487746 323.797866,12.1270307 320.7937,12.1270307 C319.953826,12.1270307 311.188984,12.3666103 309.748815,12.2454746 C309.748815,13.6856436 309.869951,15.1258126 309.869951,16.5686735 C309.869951,19.2094321 309.869951,21.9713263 309.991086,24.7305286 C309.869951,29.5355786 309.869951,31.6944861 309.869951,32.1763371 C310.709825,32.0552014 311.670835,32.1763371 312.629153,32.1763371 C314.551173,32.0552014 315.15416,32.0552014 318.874372,32.0552014 L324.037445,31.8156218 C324.756184,31.6944861 324.998455,30.6150323 325.477614,30.2543171 C325.719886,30.1331814 326.196353,30.0147376 326.317489,30.4938966 L326.557068,36.8575594 C326.678204,39.3798741 326.678204,42.7420631 326.917783,43.7003812 C326.917783,44.3033678 327.160055,44.9036626 326.917783,45.2616859 C326.557068,45.6224011 325.835638,43.9426526 324.516604,43.8215169 C323.797866,43.8215169 321.393995,43.7003812 320.672564,43.5819374 C319.593111,43.4634936 317.194623,43.7003812 314.551173,43.7003812 C312.989868,43.5819374 310.588689,43.7003812 309.269656,43.7003812 C309.269656,47.6655568 308.787805,60.9904852 309.14852,64.8345251 C308.908941,66.5142736 308.908941,68.1940222 308.787805,69.7553269 C309.748815,69.7553269 311.07054,69.8764626 312.750289,69.8764626 C317.913362,70.1160422 320.672564,69.8764626 323.67673,69.8764626 C325.238035,69.7553269 326.799339,69.5157474 327.636522,69.5157474 C329.800813,69.6341912 332.681151,69.3946117 334.002877,69.5157474 C336.040648,69.1550322 336.643635,67.3541479 337.604645,67.7148631 C338.083804,67.833307 338.083804,69.1550322 338.083804,70.3583136 C337.844225,71.5562112 337.486201,78.5201687 337.486201,78.8808839 L337.486201,80.4421886 C337.486201,80.8029039 337.365066,81.4005067 336.883215,81.4005067 C335.443046,81.5216424 331.962413,81.0397915 330.998711,81.0397915 C329.679678,81.0397915 327.878793,81.2820629 326.678204,81.1609272 C323.558286,81.4005067 321.393995,81.4005067 319.953826,81.4005067 C325.59875,81.4005067 298.46435,81.6427781 302.424142,81.5216424 C301.58696,81.5216424 296.181615,81.6427781 294.380731,81.2820629 C294.141151,80.9240396 294.623002,79.4811787 294.741446,79.1231553 C295.220605,78.4017249 296.54233,73.2386516 296.663466,72.1591978 L296.663466,68.4362936 C296.54233,67.833307 296.663466,66.8749889 296.900354,63.7550713 C297.142625,61.2300647 297.261069,54.5083786 297.261069,53.9053919 C297.382205,52.9470739 297.382205,49.1057258 297.382205,44.1822321 C297.50334,43.5819374 297.864056,39.2614303 297.74292,37.8185694 C297.864056,34.6986518 298.224771,29.0537276 298.343215,25.0912439 C298.582794,21.8501906 298.701238,19.0909882 298.582794,18.4880016 C298.822374,15.368084 298.582794,14.1674945 298.46435,12.3666103 C298.582794,11.8847593 298.46435,9.48358032 298.343215,9.12555699 C298.343215,8.76484176 295.942036,2.75920233 295.942036,0.958318079 C296.302751,0.721430464 297.142625,0.839874272 297.50334,0.839874272 C298.103635,0.958318079 298.582794,0.839874272 299.183089,0.958318079 C299.42536,0.958318079 305.425616,0.958318079 306.507762,1.07945379 L319.714246,1.31903331 L333.521026,1.31903331 C334.242456,1.44016902 335.08233,1.44016902 335.924896,1.31903331 C337.604645,1.2005895 337.604645,2.75920233 337.486201,3.24105328 M264.960904,80.6817682 C264.960904,80.3210529 265.924606,77.7987382 266.161494,76.9588639 L266.882924,72.2776416 C267.00406,71.5562112 267.364775,69.7553269 267.483219,67.7148631 C267.72549,66.1535584 267.843934,64.9529689 267.843934,62.9125051 C267.962378,61.1116209 267.843934,59.4291804 267.843934,57.7494319 C267.962378,56.0696833 268.083514,54.3872429 268.083514,52.7074944 C267.843934,49.2241696 267.962378,45.8619807 267.962378,42.5024836 C267.962378,39.5010098 268.201958,28.8141481 268.201958,27.1343995 C268.083514,25.93381 268.201958,20.2888858 268.201958,19.5701473 C268.201958,19.2094321 268.201958,16.4475378 268.083514,14.5255179 C268.083514,12.6061898 267.843934,9.84429555 267.364775,7.08240131 C267.122504,5.88450371 267.00406,3.84134803 266.522209,2.16159949 C266.401073,1.80088426 266.28263,1.2005895 266.522209,0.958318079 C266.882924,0.721430464 268.804944,0.600294752 270.123978,0.47915904 C270.605829,0.47915904 276.48764,1.07945379 278.64924,1.2005895 C280.568568,1.2005895 281.29269,0.839874272 281.650714,1.31903331 C282.129873,1.92201997 281.050419,5.16307325 280.568568,6.36097085 C280.450124,6.72168608 280.089409,8.64370604 280.089409,9.2466927 C280.207853,15.7287993 279.968273,12.487746 280.089409,16.4475378 C279.968273,18.0088426 279.968273,19.6885911 279.847137,21.2525877 L279.489114,30.8546119 C279.249535,36.1388208 279.249535,39.7405893 279.37067,45.5012654 C279.37067,47.0625702 279.37067,48.7450106 279.249535,50.3036234 C279.128399,53.4289248 279.009955,56.6699781 278.64924,59.7898957 C278.406968,62.6729256 278.288525,67.9544427 278.288525,69.0365884 C278.406968,74.7972645 278.167389,76.4797049 279.37067,79.8418939 C279.61025,80.2026091 279.731386,80.6817682 279.489114,81.0397915 C277.809366,81.8823577 267.483219,81.0397915 266.04305,81.1609272 C265.561199,81.1609272 265.200484,81.1609272 264.960904,80.6817682 M242.265456,17.290104 C241.062174,15.1258126 240.701459,14.0463588 236.741667,13.4460641 C234.458932,12.9642131 230.378004,12.6061898 227.85569,12.7273255 C225.815226,12.7273255 223.893206,13.2064845 222.092322,13.3249283 C221.971186,14.7650974 222.092322,16.0895145 222.092322,17.4085478 L221.734298,24.6147767 C221.613163,26.8921281 221.734298,30.7361681 221.613163,33.0189033 C222.213457,33.0189033 230.857163,32.658188 233.62175,32.658188 C235.659522,32.5370523 238.181836,30.1331814 239.142846,29.295999 C241.783605,26.1733896 241.062174,24.9728001 242.14432,23.1692239 C242.025876,23.0507801 242.14432,22.8112006 242.265456,22.571621 C242.744615,21.0103163 242.744615,19.0909882 242.265456,17.290104 M253.671056,29.295999 C250.308867,37.4578541 247.307393,39.5010098 242.265456,41.6626093 C243.945204,47.9051363 245.506509,50.7854744 248.386847,60.8693495 C249.466301,64.7133894 250.669582,67.833307 252.109751,72.9963802 C252.707354,75.2791154 255.593076,79.3600429 255.953791,80.6817682 C256.069543,81.1609272 255.232361,81.1609272 254.51093,81.4005067 L241.90474,81.1609272 C240.103856,81.1609272 239.382426,80.9240396 239.142846,80.4421886 C239.622005,78.2805892 240.701459,77.4407149 239.864277,72.8779364 C238.542551,67.833307 236.981247,62.9125051 235.899101,57.9890114 L233.858637,50.4247592 C233.379478,48.7450106 232.900319,46.1042521 232.060445,43.223914 C229.656574,43.223914 226.054805,43.5819374 224.375057,43.7003812 L220.891732,43.7003812 C220.891732,45.8619807 220.652153,47.9051363 220.652153,50.0667358 C220.652153,50.7854744 220.172994,57.7494319 220.412573,61.8330513 C219.812278,66.1535584 220.891732,73.5993669 221.855434,78.2805892 C221.971186,79.1231553 222.574173,80.4421886 222.574173,80.3210529 C222.692616,80.8029039 222.213457,80.8029039 221.855434,80.8029039 C219.933414,80.8029039 210.207562,81.5216424 208.646258,81.1609272 C207.566804,81.1609272 207.566804,81.0397915 207.566804,80.9240396 C207.445668,79.8418939 207.927519,79.0020196 208.285542,78.1594534 C209.967983,74.6788206 209.967983,65.3136841 209.849539,61.8330513 C209.849539,60.7509056 209.849539,59.6714519 209.728403,58.4708623 C209.849539,55.8274119 210.207562,36.1388208 210.326006,31.2153271 C210.447142,27.1343995 210.928993,12.3666103 210.686721,10.4445903 C210.086427,6.9639575 208.885837,3.11991757 208.406678,0.839874272 C208.406678,0.118443808 209.246552,0 209.849539,0 C212.248026,0 220.652153,0.600294752 223.653626,0.721430464 C224.975352,0.958318079 238.421416,0.839874272 238.782131,0.839874272 C239.864277,0.958318079 240.94373,1.2005895 241.90474,1.56130474 C245.627645,2.40117901 249.587437,5.04193753 252.58891,12.3666103 C253.068069,15.0073688 255.232361,21.131452 253.671056,29.295999 M180.550848,80.6817682 C180.550848,80.3210529 181.509166,77.7987382 181.748746,76.9588639 L182.470176,72.2776416 C182.591312,71.5562112 182.949335,69.7553269 183.070471,67.7148631 C183.31005,66.1535584 183.431186,64.9529689 183.431186,62.9125051 C183.54963,61.1116209 183.431186,59.4291804 183.431186,57.7494319 C183.54963,56.0696833 183.670766,54.3872429 183.670766,52.7074944 C183.431186,49.2241696 183.54963,45.8619807 183.54963,42.5024836 C183.54963,39.5010098 183.791901,28.8141481 183.791901,27.1343995 C183.670766,25.93381 183.791901,20.2888858 183.791901,19.5701473 C183.791901,19.2094321 183.791901,16.4475378 183.670766,14.5255179 C183.670766,12.6061898 183.431186,9.84429555 182.949335,7.08240131 C182.712448,5.88450371 182.591312,3.84134803 182.109461,2.16159949 C181.991017,1.80088426 181.869881,1.2005895 182.109461,0.958318079 C182.470176,0.721430464 184.392196,0.600294752 185.713921,0.47915904 C186.190389,0.47915904 192.074892,1.07945379 194.236492,1.2005895 C196.158512,1.2005895 196.87725,0.839874272 197.237965,1.31903331 C197.719816,1.92201997 196.637671,5.16307325 196.158512,6.36097085 C196.037376,6.72168608 195.676661,8.64370604 195.676661,9.2466927 C195.797796,15.7287993 195.558217,12.487746 195.676661,16.4475378 C195.558217,18.0088426 195.558217,19.6885911 195.437081,21.2525877 L195.076366,30.8546119 C194.836786,36.1388208 194.836786,39.7405893 194.95523,45.5012654 C194.95523,47.0625702 194.95523,48.7450106 194.836786,50.3036234 C194.715651,53.4289248 194.597207,56.6699781 194.236492,59.7898957 C193.996912,62.6729256 193.875776,67.9544427 193.875776,69.0365884 C193.996912,74.7972645 193.757333,76.4797049 194.95523,79.8418939 C195.197502,80.2026091 195.315946,80.6817682 195.076366,81.0397915 C193.396617,81.8823577 183.070471,81.0397915 181.630302,81.1609272 C181.148451,81.1609272 180.790428,81.1609272 180.550848,80.6817682 M154.97237,45.5012654 C155.333085,45.2616859 153.411065,38.1792846 152.092031,32.5370523 C151.610181,29.295999 150.528035,21.7290549 149.92774,21.4894754 C149.567025,21.8501906 144.525087,45.0247983 144.646223,45.6224011 C145.006938,45.7435368 147.165846,45.7435368 148.008412,45.7435368 C150.767614,45.7435368 154.611654,45.7435368 154.97237,45.5012654 M122.074602,80.2026091 C123.2725,78.1594534 124.836496,70.7190288 126.874268,65.1952403 C127.59839,62.4306542 128.556709,59.6714519 129.278139,56.9095576 C129.996878,54.1476634 130.957888,51.5069048 131.679318,48.7450106 C133.240623,43.223914 134.801927,37.8185694 136.602812,32.4159166 C137.442686,29.6567143 138.403696,27.0132638 139.122435,24.2540615 C139.843865,21.4894754 140.441468,18.6091373 141.162898,15.8472431 C143.206054,6.84282179 143.803657,5.52378848 143.566769,3.72290422 C142.966474,0.23957952 143.32719,0.23957952 144.885803,0.23957952 C148.487571,0.360715232 150.409591,0.118443808 154.851234,0.118443808 C155.451529,-1.91513472e-15 157.852708,-0.121135712 157.731572,0.721430464 L156.891698,3.24105328 C156.652118,5.16307325 162.297042,29.1748633 164.935109,42.0206326 C165.41696,44.1822321 170.219318,62.4306542 170.819613,65.1952403 C171.298772,67.2357041 172.738941,75.997854 172.860076,76.5981487 C172.97852,77.6776025 173.339235,78.0410096 173.581507,78.4017249 C175.142812,79.7207582 173.702643,79.5996225 172.97852,79.5996225 L167.697003,79.5996225 C166.135698,79.5996225 161.454476,80.2026091 161.214897,79.5996225 C160.972625,78.5201687 161.815191,76.8404201 161.454476,75.0395359 C161.33334,74.3181054 160.614602,72.0380621 160.375022,70.5978931 L159.292877,63.1520847 C159.171741,61.8330513 158.453002,58.4708623 158.092287,57.3887167 C152.689634,57.3887167 147.526561,57.5098524 144.646223,57.5098524 C143.445634,57.6282962 141.884329,57.6282962 141.284034,57.6282962 C140.802183,59.4291804 140.562604,61.1116209 140.083445,62.7913694 C139.843865,65.1952403 139.48315,66.3931379 139.24357,67.7148631 C138.761719,70.4767574 136.602812,74.4365492 135.520666,78.8808839 C135.641802,79.5996225 136.602812,80.0814734 136.602812,80.4421886 C136.723947,80.9240396 136.363232,80.9240396 135.760246,80.8029039 C130.957888,80.8029039 126.15553,81.5216424 120.874012,81.5216424 C120.634433,80.9240396 121.355863,81.2820629 122.074602,80.2026091 M103.696968,17.290104 C102.499071,15.1258126 102.138356,14.0463588 98.1758719,13.4460641 C95.8958286,12.9642131 91.8122092,12.6061898 89.2898944,12.7273255 C87.2494307,12.7273255 85.3301026,13.2064845 83.5292183,13.3249283 C83.4080826,14.7650974 83.5292183,16.0895145 83.5292183,17.4085478 L83.1685031,24.6147767 C83.0473674,26.8921281 83.1685031,30.7361681 83.0473674,33.0189033 C83.6476622,33.0189033 92.2940601,32.658188 95.0532624,32.658188 C97.0964181,32.5370523 99.6160409,30.1331814 100.577051,29.295999 C103.217809,26.1733896 102.499071,24.9728001 103.578525,23.1692239 C103.457389,23.0507801 103.578525,22.8112006 103.696968,22.571621 C104.178819,21.0103163 104.178819,19.0909882 103.696968,17.290104 M115.102569,29.295999 C111.74038,37.4578541 108.741598,39.5010098 103.696968,41.6626093 C105.379409,47.9051363 106.940714,50.7854744 109.821052,60.8693495 C110.903197,64.7133894 112.103787,67.833307 113.543956,72.9963802 C114.144251,75.2791154 117.024589,79.3600429 117.385304,80.6817682 C117.50644,81.1609272 116.663874,81.1609272 115.945135,81.4005067 L103.336253,81.1609272 C101.535369,81.1609272 100.81663,80.9240396 100.577051,80.4421886 C101.058902,78.2805892 102.138356,77.4407149 101.295789,72.8779364 C99.9767562,67.833307 98.4154514,62.9125051 97.3359976,57.9890114 L95.292842,50.4247592 C94.8136829,48.7450106 94.331832,46.1042521 93.4919577,43.223914 C91.0907787,43.223914 87.4890102,43.5819374 85.8065697,43.7003812 L82.3259369,43.7003812 C82.3259369,45.8619807 82.0890493,47.9051363 82.0890493,50.0667358 C82.0890493,50.7854744 81.6071984,57.7494319 81.8467779,61.8330513 C81.2464831,66.1535584 82.3259369,73.5993669 83.2869469,78.2805892 C83.4080826,79.1231553 84.0083774,80.4421886 84.0083774,80.3210529 C84.1268212,80.8029039 83.6476622,80.8029039 83.2869469,80.8029039 C81.3676189,80.8029039 71.6417671,81.5216424 70.0804624,81.1609272 C68.9983167,81.1609272 68.9983167,81.0397915 68.9983167,80.9240396 C68.8798729,79.8418939 69.3590319,79.0020196 69.7197472,78.1594534 C71.4021876,74.6788206 71.4021876,65.3136841 71.2810519,61.8330513 C71.2810519,60.7509056 71.2810519,59.6714519 71.1599162,58.4708623 C71.2810519,55.8274119 71.6417671,36.1388208 71.7629028,31.2153271 C71.8813466,27.1343995 72.3605057,12.3666103 72.1209262,10.4445903 C71.5206314,6.9639575 70.3227338,3.11991757 69.8408829,0.839874272 C69.8408829,0.118443808 70.6807571,0 71.2810519,0 C73.6849228,0 82.0890493,0.600294752 85.0878312,0.721430464 C86.4095564,0.958318079 99.8556205,0.839874272 100.216336,0.839874272 C101.295789,0.958318079 102.377935,1.2005895 103.336253,1.56130474 C107.059157,2.40117901 111.021641,5.04193753 114.023115,12.3666103 C114.504966,15.0073688 116.663874,21.131452 115.102569,29.295999 M46.5424475,32.8977675 C51.2236698,31.0968833 53.3852693,26.4129691 52.6638389,21.7290549 C52.4242593,20.7707368 52.4242593,19.6885911 52.3031236,18.730273 C51.7055208,15.4865278 49.1832061,12.8457693 44.862699,12.487746 L42.2192486,12.1270307 C39.57849,11.7663155 34.0547016,11.4056003 31.8931021,11.4056003 C31.2928073,21.7290549 31.1743635,30.9757476 31.0532278,33.6165061 C32.2538173,33.9772213 33.4544068,33.9772213 34.7734401,33.9772213 L37.8987415,33.9772213 C38.8570596,33.9772213 44.5019838,33.8560856 46.5424475,32.8977675 M16.7645976,81.2820629 C16.6461538,80.9240396 17.7256076,78.1594534 17.8440514,77.6776025 C18.3259023,75.4002511 18.8077532,69.1550322 18.9261971,67.9544427 C18.9261971,65.6717075 18.9261971,63.3943561 19.0473328,61.1116209 C19.0473328,58.4708623 19.5264918,45.8619807 19.2869123,33.8560856 L19.2869123,27.1343995 C19.7660713,17.5296835 20.3663661,15.1258126 19.1684685,6.48210656 C18.8077532,5.40265277 18.6866175,4.20206326 18.2047666,3.00147376 L17.6071637,1.44016902 C17.006869,0.118443808 17.6071637,0 18.3259023,0 C20.1267866,0 26.0112903,0.23957952 30.5740688,0.47915904 C31.7719664,0.47915904 46.5424475,1.2005895 49.3016499,1.31903331 C55.0677098,2.2827352 61.7893959,8.1618551 63.2295649,14.2886302 C63.7087239,16.4475378 63.8298596,18.6091373 63.8298596,20.7707368 C63.9483034,23.6510748 63.1111211,30.3754528 60.1096473,36.1388208 C59.1459454,37.4578541 58.1876273,38.6584436 56.9843459,39.7405893 C55.7864483,40.9411788 54.3462793,41.6626093 52.7849746,42.3813479 C51.1025341,43.1027783 49.5439213,43.9426526 47.6219013,44.3033678 C46.9004709,44.5429473 46.0605966,44.6640831 45.0995866,44.7825269 C42.4588281,45.1432421 40.2972286,45.7435368 36.5743244,45.7435368 C34.4154168,45.7435368 32.6145325,45.3828216 31.0532278,45.5012654 C30.934784,46.5834111 31.0532278,47.6655568 30.8136483,48.7450106 C30.6925126,51.5069048 30.0922178,68.6758731 29.8526383,72.7568007 C29.8526383,74.9184002 30.8136483,76.9588639 31.2928073,80.6817682 C31.5323868,81.6427781 23.8496908,81.6427781 19.2869123,81.5216424 C18.2047666,81.6427781 16.8857333,81.5216424 16.7645976,81.2820629" id="Fill-1"></path>
            </g>
        </g>
    </g>
</svg>