<svg xmlns="http://www.w3.org/2000/svg" version="1.1"><defs><font id="WanderlustRegular" horiz-adv-x="0"><font-face font-family="Wanderlust" font-weight="400" font-stretch="normal" units-per-em="1000" panose-1="0 0 0 0 0 0 0 0 0 0" ascent="800" descent="-200" x-height="478.06" cap-height="698.899" bbox="-703.999 -356.999 1428.35 984.587" underline-thickness="0" underline-position="0" unicode-range="U+000A-F00E"/><glyph glyph-name=".notdef" horiz-adv-x="527" d="M50 700h427V0H50v700zm28-20l185-309 186 309H78zm173-330L71 650V49zm13-21L79 21h370zm12 21L457 47v605z"/><glyph glyph-name=".null"/><glyph glyph-name=".null"/><glyph glyph-name="controlLF"/><glyph glyph-name="controlCR"/><glyph glyph-name="space" horiz-adv-x="379"/><glyph glyph-name="exclam" unicode="!" horiz-adv-x="284" d="M38.342-33.73C32.78-20.45 30-6.39 30 8.44s2.78 28.877 8.342 42.171c5.561 13.28 13.281 24.867 23.172 34.757 9.878 9.878 21.464 17.61 34.758 23.172 13.28 5.562 27.341 8.342 42.17 8.342s28.877-2.78 42.171-8.342c13.28-5.562 24.867-13.294 34.757-23.172 9.878-9.89 17.61-21.476 23.172-34.757 5.562-13.294 8.342-27.341 8.342-42.17s-2.78-28.891-8.342-42.172c-5.562-13.293-13.294-24.88-23.172-34.757-9.89-9.89-21.476-17.61-34.757-23.172-13.294-5.562-27.341-8.342-42.17-8.342s-28.891 2.78-42.171 8.342c-13.294 5.56-24.88 13.28-34.758 23.172-9.89 9.878-17.61 21.464-23.172 34.757zm-6.025 800.964l220.722.001c-27.553-198.609-41.045-394.293 0-572.114H32.317c41.046 177.821 41.046 394.292 0 572.113z"/><glyph glyph-name="quotedbl" unicode="&quot;" horiz-adv-x="372" d="M30 847.461h139.079c-18.802-101.516-18.828-197.841 0-299.516H30c18.828 101.661 18.802 197.986 0 299.516zm311.208 0c-18.802-101.529-18.828-197.854 0-299.516H202.129c18.828 101.661 18.802 197.986 0 299.516h139.079z"/><glyph glyph-name="quotedbl" unicode="”" horiz-adv-x="372" d="M30 847.461h139.079c-18.802-101.516-18.828-197.841 0-299.516H30c18.828 101.661 18.802 197.986 0 299.516zm311.208 0c-18.802-101.529-18.828-197.854 0-299.516H202.129c18.828 101.661 18.802 197.986 0 299.516h139.079z"/><glyph glyph-name="quotedbl" unicode="“" horiz-adv-x="372" d="M30 847.461h139.079c-18.802-101.516-18.828-197.841 0-299.516H30c18.828 101.661 18.802 197.986 0 299.516zm311.208 0c-18.802-101.529-18.828-197.854 0-299.516H202.129c18.828 101.661 18.802 197.986 0 299.516h139.079z"/><glyph glyph-name="numbersign" unicode="#" horiz-adv-x="765" d="M734.745 479.517c-62.946 10.712-129.88 19.04-198.427 25.05-5.111-34.08-9.626-68.347-13.585-102.587 73.314.914 144.919 4.635 212.022 11.321V254.413c-70.612 12.023-146.189 21.093-223.515 27.21-5.402-72.718-7.918-143.754-7.11-210.354H345.242c17.715 68.759 33.088 142.204 45.772 217.385a2951.14 2951.14 0 01-104.177 2.184c-5.905-75.949-8.633-150.148-7.799-219.556H120.15c17.703 68.732 33.076 142.15 45.76 217.318-46.673-1.894-92.26-4.952-135.915-9.295v158.888c49.493-8.421 101.49-15.346 154.743-20.88 4.065 32.532 7.64 65.078 10.62 97.412-56.988-1.668-112.572-5.071-165.362-10.328v158.888c55.491-9.44 114.041-17.08 174.101-22.893 2.172 46.594 3.113 92.09 2.583 135.65h158.888c-11.996-46.514-22.84-95.266-32.571-145.17a3027.386 3027.386 0 0195.505-3.443c2.635 51.108 3.826 101.025 3.257 148.612h158.888c-12.235-47.494-23.278-97.306-33.168-148.295 61.158 1.522 120.808 5.031 177.266 10.658V479.516zm-326.807-76.638c4.74 36.584 8.897 73.22 12.287 109.605a3003.808 3003.808 0 01-107.368 3.178c-5.508-35.803-10.314-71.858-14.552-107.885 36.412-2.304 73.05-3.92 109.633-4.899z"/><glyph glyph-name="dollar" unicode="$" horiz-adv-x="570" d="M498.982 415.221c27.183-30.586 40.78-70.293 40.78-119.085 0-29.66-3.404-55.929-10.196-78.782-6.806-22.866-17.928-43.257-33.366-61.172-15.452-17.928-35.684-33.684-60.708-47.269-23.581-12.817-52.155-24.482-85.349-35.101.45-50.208 1.51-99.424 3.337-146.918l-145.66-4.49c6.37 47.6 12.142 96.881 17.399 147.103-8.938 1.14-18.061 2.635-27.461 4.648a469.314 469.314 0 00-63.952 18.536c-21.013 7.72-40.636 16.684-58.855 26.879-18.232 10.195-33.22 20.854-44.952 31.977L105.073 291.5c45.56-40.265 90.182-64.47 133.862-73.128 3.668 46.077 6.912 92.604 9.64 139.317l-1.708.543c-31.513 9.877-58.392 20.695-80.636 32.44-22.244 11.73-40.477 25.328-54.684 40.78-14.22 15.439-24.72 32.904-31.512 52.367-6.806 19.464-10.196 41.854-10.196 67.197 0 26.56 3.854 52.208 11.586 76.928 7.72 24.707 19.464 46.806 35.22 66.27s35.365 35.83 58.855 49.123c23.475 13.28 51.28 21.463 83.416 24.561v59.424c-.61 35.088-1.484 69.686-2.782 103.343l145.66 4.49c-7.467-55.65-14.128-113.485-20.06-172.604 50.487-8.964 94.274-25.012 131.137-48.409l-68.586-133.466c-25.303 19.358-50.341 32.466-75.14 39.444a6616.237 6616.237 0 01-8.435-125.561l5.733-1.947c61.172-21.012 105.343-46.805 132.539-77.391zM256.943 547.695c.503 17.106.913 34.12 1.284 51.121-6.753-7.918-10.42-16.405-10.42-25.567 0-8.845 3.124-17.345 9.136-25.554zm94.247-297.174c5.786 9.004 8.766 19.24 8.752 30.771 0 9.415-2.568 17.902-7.375 25.608a6800.662 6800.662 0 01-1.377-56.379z"/><glyph glyph-name="percent" unicode="%" horiz-adv-x="929" d="M884.55 240.516c9.269-20.708 13.902-43.097 13.902-67.194 0-25.952-4.633-49.586-13.902-70.904s-22.403-39.55-39.39-54.683c-17.002-15.148-37.392-26.88-61.172-35.22C760.193 4.171 733.778 0 704.741 0c-28.427 0-54.22 4.026-77.391 12.05s-43.097 19.61-59.78 34.756c-16.684 15.134-29.514 33.512-38.464 55.146-8.964 21.623-13.44 45.72-13.44 72.294 0 25.952 4.78 49.268 14.366 69.976 9.574 20.695 22.854 38.306 39.855 52.831 16.987 14.512 37.537 25.634 61.635 33.366 24.097 7.72 50.658 11.586 79.708 11.586 27.805 0 53.135-4.17 76-12.513 22.854-8.341 42.477-20.085 58.856-35.22 16.365-15.147 29.196-33.062 38.464-53.757zm-121.417-124.66c15.438 15.438 23.17 33.975 23.17 55.61 0 11.121-2.171 21.462-6.487 31.048-4.33 9.573-10.196 17.915-17.61 25.026-7.416 7.096-15.916 12.658-25.49 16.683-9.585 4.012-19.316 6.025-29.194 6.025-20.391 0-38.623-7.415-54.684-22.244-16.074-14.83-24.098-33.367-24.098-55.61s7.56-41.1 22.708-56.538c15.134-15.452 33.83-23.172 56.074-23.172 21.622 0 40.159 7.72 55.61 23.172zM296.467 384.64c-23.793-8.037-49.906-12.049-78.32-12.049-57.464 0-103.197 15.598-137.173 46.806-33.989 31.195-50.976 73.684-50.976 127.44 0 25.952 4.78 49.428 14.366 70.44 9.574 21 23.013 38.61 40.319 52.831 17.292 14.207 37.841 25.17 61.634 32.903 23.78 7.72 50.196 11.586 79.246 11.586 26.56 0 51.28-4.171 74.147-12.513 22.854-8.342 42.635-19.928 59.318-34.757s29.66-32.598 38.928-53.293c9.269-20.708 13.902-43.416 13.902-68.123 0-26.574-4.792-50.514-14.366-71.83-9.586-21.318-22.866-39.55-39.853-54.685-17.001-15.147-37.392-26.733-61.172-34.756zM142.145 544.983c0-21.013 7.414-39.55 22.243-55.611 14.83-16.075 33.671-24.098 56.537-24.098 10.5 0 20.536 2.158 30.122 6.488 9.574 4.317 17.915 10.036 25.026 17.147 7.096 7.096 12.816 15.438 17.146 25.024 4.317 9.573 6.489 19.61 6.489 30.122 0 11.122-2.172 21.463-6.489 31.05-4.33 9.572-10.195 17.914-17.61 25.024-7.415 7.097-15.915 12.659-25.488 16.684-9.586 4.012-19.318 6.024-29.196 6.024-21.012 0-39.39-7.573-55.146-22.707-15.756-15.147-23.634-33.525-23.634-55.147zm477.892 181.131c48.302.648 110.585 1.47 158.873 2.12-190.877-229.62-340.946-490.302-451.85-710.838-48.302-.648-110.572-1.47-158.874-2.118 169.983 221.33 340.96 490.3 451.851 710.836z"/><glyph glyph-name="ampersand" unicode="&amp;" horiz-adv-x="811" d="M625.033 185.369s71.95-112.068 155.18-165.534H554.248l-60.827 63.581C410.005 27.806 329.979 0 253.368 0c-32.757 0-62.72 4.952-89.903 14.83-27.197 9.878-50.672 23.78-70.44 41.708-19.782 17.915-35.22 39.073-46.343 63.49C35.56 144.43 30 171.15 30 200.199c0 25.952 3.549 48.964 10.659 69.05 7.097 20.073 19.305 39.392 36.61 57.929 12.976 14.207 27.342 26.415 43.098 36.61s35.06 20.536 57.927 31.05l19.464 9.268-12.049 13.902c-35.843 45.098-53.758 88.05-53.758 128.83 0 27.184 5.562 52.513 16.684 76.002 11.122 23.476 26.415 43.707 45.879 60.708 19.464 16.987 42.476 30.268 69.05 39.853 26.561 9.574 55.293 14.367 86.197 14.367 31.512 0 60.55-4.793 87.124-14.367 26.56-9.585 49.586-23.025 69.05-40.317 19.463-17.306 34.597-37.537 45.415-60.708 10.804-23.17 16.22-48.354 16.22-75.537 0-18.537-2.173-35.379-6.489-50.513-4.33-15.147-11.586-29.354-21.781-42.635-10.195-13.293-23.49-25.952-39.855-38-16.379-12.05-36.61-24.257-60.708-36.611l88.05-92.685c37.074 35.22 54.102 95.068 77.59 126.58L746.98 274.08c-62.933-29.156-90.751-59.675-108.043-75.736zm-326.249-23.171c30.89 0 62.707 10.194 95.464 30.585L283.954 311.419c-43.88-27.196-65.807-54.379-65.807-81.561 0-9.891 2.158-19 6.489-27.342 4.316-8.342 10.195-15.452 17.61-21.318 7.415-5.879 15.902-10.512 25.488-13.902 9.574-3.403 19.928-5.098 31.05-5.098zm60.244 301.223c43.244 25.951 64.88 54.99 64.88 87.124 0 17.292-5.72 32.28-17.147 44.951-11.44 12.658-26.11 19-44.025 19-16.684 0-30.586-5.561-41.708-16.683s-16.684-25.025-16.684-41.708c0-22.245 18.22-53.148 54.684-92.684z"/><glyph glyph-name="quotesingle" unicode="'" horiz-adv-x="200" d="M169.079 847.461c-18.802-101.529-18.828-197.854 0-299.516H30c18.828 101.661 18.802 197.986 0 299.516h139.079z"/><glyph glyph-name="quotesingle" unicode="’" horiz-adv-x="200" d="M169.079 847.461c-18.802-101.529-18.828-197.854 0-299.516H30c18.828 101.661 18.802 197.986 0 299.516h139.079z"/><glyph glyph-name="quotesingle" unicode="‘" horiz-adv-x="200" d="M169.079 847.461c-18.802-101.529-18.828-197.854 0-299.516H30c18.828 101.661 18.802 197.986 0 299.516h139.079z"/><glyph glyph-name="parenleft" unicode="(" horiz-adv-x="296" d="M188.49 132.997c9.269-38.318 20.39-73.99 33.365-107.051 12.976-33.049 27.488-61.94 43.562-86.66L164.39-118.178C121.134-55.153 87.927 18.995 64.756 104.264s-34.757 178.259-34.757 278.98c0 44.488 2.926 88.977 8.805 133.465 5.865 44.488 14.365 87.732 25.487 129.758 11.122 42.013 25.024 81.708 41.708 119.1 16.684 37.378 36.148 71.513 58.392 102.416l101.026-57.464c-71.063-121.112-106.587-265.7-106.587-433.764 0-40.781 2.622-82.025 7.879-123.733 5.23-41.708 12.512-81.72 21.78-120.025z"/><glyph glyph-name="parenright" unicode=")" horiz-adv-x="296" d="M230.661 646.005c23.17-84.965 34.757-178.417 34.757-280.37 0-44.488-2.94-88.977-8.805-133.465-5.879-44.488-14.525-87.44-25.952-128.831-11.44-41.39-25.487-80.94-42.17-118.637-16.684-37.683-35.844-71.976-57.466-102.879L30-60.713C101.05 61.63 136.586 206.219 136.586 373.05c0 39.536-2.634 80.172-7.878 121.88-5.256 41.708-12.672 82.025-22.245 120.953-9.586 38.928-20.853 75.074-33.829 108.44S45.438 786.423 30 810.52l101.026 57.464c43.244-63.025 76.465-137.027 99.636-221.979z"/><glyph glyph-name="asterisk" unicode="*" horiz-adv-x="393" d="M362.724 689.103l-126.05-24.098 88.05-92.684-67.66-49.123-61.171 112.148-61.159-112.148-66.732 49.123 87.123 92.684-125.124 24.098 25.025 77.855 114.915-54.684-15.756 127.904h83.428L220.93 713.2l115.855 53.757z"/><glyph glyph-name="plus" unicode="+" horiz-adv-x="556" d="M337.712 479.636h188.162V361H337.712V171.924H219.076V361H30v118.636h189.076v189.076h118.636V479.636z"/><glyph glyph-name="comma" unicode="," horiz-adv-x="274" d="M104.677 110.557h139.078c-44.118-101.516-68.15-197.841-74.677-299.516H30C74.17-87.298 98.162 9.027 104.677 110.557z"/><glyph glyph-name="hyphen" unicode="-" horiz-adv-x="327" d="M296.004 248.853H30v139.953h266.004V248.853z"/><glyph glyph-name="period" unicode="." horiz-adv-x="277" d="M238.553 145.047c5.562-13.294 8.343-27.342 8.343-42.17s-2.78-28.892-8.342-42.172c-5.562-13.294-13.294-24.88-23.172-34.758-9.89-9.89-21.477-17.61-34.757-23.172-13.294-5.561-27.355-8.341-42.172-8.341-14.842 0-28.904 2.78-42.184 8.341-13.294 5.562-24.88 13.282-34.758 23.172-9.89 9.878-17.61 21.464-23.172 34.758-5.561 13.28-8.342 27.342-8.342 42.171s2.78 28.877 8.342 42.171c5.562 13.28 13.281 24.866 23.172 34.757 9.878 9.878 21.464 17.61 34.758 23.172 13.28 5.561 27.355 8.341 42.184 8.341s28.877-2.78 42.171-8.341c13.28-5.562 24.866-13.294 34.757-23.172 9.878-9.89 17.61-21.477 23.172-34.757z"/><glyph glyph-name="slash" unicode="/" horiz-adv-x="574" d="M410.933 840.179h132.538L161.612-89.445H30.001z"/><glyph glyph-name="zero" unicode="0" horiz-adv-x="652" d="M51.781 218.084C37.256 263.499 30 314.012 30 369.622s7.256 106.123 21.781 151.538c14.512 45.415 34.902 84.184 61.172 116.318 26.256 32.122 57.464 57.001 93.61 74.611s76.147 26.415 120.027 26.415c43.244 0 83.098-8.804 119.563-26.415 36.45-17.61 67.659-42.489 93.61-74.611 25.951-32.135 46.182-70.903 60.708-116.318 14.512-45.415 21.781-95.928 21.781-151.538s-7.27-106.123-21.781-151.538c-14.526-45.415-34.757-84.343-60.708-116.782s-57.16-57.464-93.61-75.074C409.687 8.618 369.832-.187 326.588-.187c-43.88 0-83.88 8.804-120.026 26.415s-67.354 42.635-93.61 75.074c-26.27 32.44-46.66 71.367-61.172 116.782zM218.15 453.502c-5.562-25.648-8.342-53.611-8.342-83.879 0-30.903 2.78-59.013 8.342-84.342 5.562-25.343 13.44-47.27 23.635-65.806s22.39-32.904 36.61-43.099c14.207-10.195 30.268-15.293 48.195-15.293 17.292 0 33.207 5.098 47.733 15.293 14.512 10.195 26.72 24.562 36.61 43.099 9.878 18.537 17.61 40.464 23.172 65.806 5.562 25.33 8.342 53.439 8.342 84.342 0 30.268-2.78 58.232-8.342 83.879-5.561 25.634-13.294 47.573-23.172 65.806-9.89 18.219-22.098 32.44-36.61 42.635-14.526 10.195-30.44 15.293-47.733 15.293-17.927 0-33.988-5.098-48.195-15.293-14.22-10.196-26.415-24.416-36.61-42.635-10.196-18.233-18.073-40.172-23.635-65.806z"/><glyph glyph-name="one" unicode="1" horiz-adv-x="404" d="M374.031 726.96c-27.183-251.056-27.223-490.46-.014-741.847H172.561c20.338 187.739 25.436 368.805 15.4 553.035-46.396-36.875-65.277-68.321-65.277-68.321L30 628.715c36.385 12.128 142.84 95.782 142.575 98.245H374.03z"/><glyph glyph-name="two" unicode="2" horiz-adv-x="622" d="M391.363 173.132c83.879 2.622 115.168 8.778 200.874 18.643V-6.835C287.703 32.888 36.131 6.406 36.131 6.406l26.481 132.407s162.9 96.829 238.331 198.609c25.025 33.763 79.444 105.925 82.185 158.252.556 10.486-1.708 20.695-5.098 30.586-3.403 9.878-8.5 18.682-15.293 26.415-6.805 7.72-14.988 13.903-24.561 18.537-9.586 4.634-20.854 6.951-33.83 6.951-24.72 0-44.025-8.037-57.927-24.098-13.902-16.074-20.853-36.147-20.853-60.245 0-6.805.926-16.683 2.78-29.659H30c0 40.781 6.634 77.855 19.928 111.222 13.28 33.366 31.975 62.099 56.073 86.196s52.67 42.635 85.732 55.61c33.049 12.976 69.355 19.465 108.904 19.465 38.928 0 74.916-6.184 107.978-18.538 33.049-12.367 61.636-29.659 85.734-51.903s42.939-48.659 56.537-79.245c13.585-30.586 20.39-63.807 20.39-99.636 0-38.318-8.196-73.683-24.561-106.123-16.38-32.44-42.49-65.66-78.319-99.635l-115.855-108.44h38.822z"/><glyph glyph-name="three" unicode="3" horiz-adv-x="629" d="M265.563 331.331c-.186 45.6-1.828 68.536-3.1 114.243 4.45-.622 8.183-.927 11.215-.927h7.825c20.285.014 76.306 6.833 89.255 20.43 12.937 13.586 19.862 31.196 19.875 52.845 0 21-6.408 38-19.04 50.976-12.658 12.976-28.864 19.464-48.42 19.464-20.709 0-37.127-7.415-49.096-22.244-11.996-14.829-17.399-33.988-16.87-57.464H77.746c4.633 36.451 14.034 68.89 28.029 97.319 14.009 28.414 31.605 52.366 52.883 71.83 21.264 19.464 45.866 34.293 74.81 44.488 28.93 10.195 61.013 15.293 96.233 15.293 34.597 0 65.964-4.78 94.074-14.366 28.11-9.573 52.207-23.171 72.293-40.781 20.073-17.61 35.525-38.928 46.343-63.952 10.804-25.012 16.22-52.99 16.22-83.88 0-33.367-6.343-60.708-19-82.026-12.672-21.317-30.745-39.709-54.22-55.147 35.829-11.122 63.793-31.05 83.878-59.781 20.074-28.733 30.123-64.112 30.123-106.124 0-34.612-6.805-66.124-20.39-94.539-13.598-28.427-32.598-52.83-57-73.22-24.416-20.39-53.453-36.147-87.124-47.269-33.685-11.122-70.6-16.683-110.76-16.683-53.756 0-102.084 10.46-145.116 31.539-43.059 21.079-77.776 54.988-104.893 101.396-12.26 20.681-21.013 41.257-27.236 61.423s-12.83 39.8-16.894 60.296c73.38.053 134.419.08 209.374.132-2.794-32.4 3.363-57.874 19.716-74.835 16.352-16.974 39.378-25.409 68.427-25.343 30.825.067 53.903 8.766 68.746 26.098 14.856 17.319 22.417 38.636 22.417 63.991 0 30.268-9.136 53.148-25.634 68.534-16.498 15.398-74.943 23.078-96.234 23.011-5.336-.013-10.38-.504-15.173-1.43s-10.143-2.04-16.075-3.297z"/><glyph glyph-name="four" unicode="4" horiz-adv-x="650" d="M552.117 718.115c-24.151-134.962-16.271-277.907-15.874-414.232 33.87 2.396 50.83 4.37 84.144 15.928 0-67.554.37-100.761-.318-157.1l-84.316.132c-.61-57.783-2.689-87.31 10.724-143.568H346.132c24.47 57.186 21.08 86.104 21.12 143.648-135.544-.027-202.303.013-337.251.013v116.782c88.976 146.137 177.953 292.26 266.93 438.396h255.187zM207.016 301.963h160.345c0 110.109-.688 165.469-.133 275.207-65.66-109.659-96.074-165.098-160.212-275.207z"/><glyph glyph-name="five" unicode="5" horiz-adv-x="581" d="M499.909 718.143c1.549-57.822 2.32-109.009 3.855-174.934-98.854 45.257-245.759 21.066-245.759 21.066l-12.048-76.928c11.122 1.231 21.317 2.317 30.586 3.244s18.841 1.39 28.732 1.39c35.22 0 67.977-6.183 98.244-18.537s57.411-32.386 79.126-53.863c21.701-21.49 37.338-44.7 49.705-74.968 12.367-30.268 18.537-63.344 18.537-99.173 0-37.696-6.95-71.684-20.853-101.953-13.903-30.28-33.526-56.074-58.855-77.391-25.343-21.318-56.233-37.697-92.684-49.123C342.03 5.546 301.567-.174 257.079-.174c-42.026 0-81.947 5.257-120.053 14.87S62.256 40.17 30.003 76.554c10.393 93.28 14.577 138.749 25.725 184.535 30.003-34.042 63.131-72.52 95.637-88.885 32.492-16.379 62.76-21.291 91.81-21.291 37.074 0 66.415 10.036 88.05 30.122 21.621 20.073 32.439 44.952 32.439 74.611 0 34.598-14.526 62.562-43.563 83.88-29.05 21.317-67.05 31.976-114.002 31.976-21.012 0-42.634-2.318-64.879-6.951s-44.237-12.843-65.964-21.847c19.714 125.11 39.086 250.287 58.55 375.438h366.103z"/><glyph glyph-name="six" unicode="6" horiz-adv-x="652" d="M604.643 360.354c11.731-30.269 17.606-62.723 17.606-97.32 0-37.075-6.805-71.527-20.39-103.344-13.598-31.83-33.22-59.636-58.855-83.416-25.647-23.793-56.696-42.489-93.147-56.074C413.392 6.615 372.306-.19 326.586-.19c-46.342 0-87.745 6.806-124.196 20.39-36.465 13.585-67.514 32.135-93.148 55.61s-45.27 50.818-58.854 82.026c-13.598 31.196-20.39 64.416-20.39 99.636 0 39.536 8.805 82.33 26.415 128.368 17.61 46.024 44.635 91.294 81.1 135.782 64.866 78.597 89.163 117.034 125.813 196.491h269.34c-108.004-94.988-141.57-136.802-220.907-228.003h3.708c17.292 10.5 31.513 16.83 42.635 19.001 11.122 2.158 21 3.244 29.659 3.244 33.975 0 65.183-6.488 93.611-19.464 28.414-12.975 53.148-30.758 74.148-53.293s37.391-48.976 49.123-79.245zM402.415 173.383c44.581 17.253 76.24 60.419 76.24 111.077 0 65.82-53.346 119.166-119.166 119.166-38.08 0-71.91-17.915-93.718-45.72-15.888-20.246-25.448-45.708-25.448-73.447 0-65.82 53.347-119.166 119.166-119.166 15.16 0 29.593 2.94 42.926 8.09z"/><glyph glyph-name="seven" unicode="7" horiz-adv-x="687" d="M30 19.275C162.883 190.171 266.186 377.7 375.328 564.26c-31.844 24.734-175.782 32.48-292.128-22.84.066 65.382.106 118.544.173 176.696h573.716c-131.228-229.036-276-455.451-379.807-698.84H30z"/><glyph glyph-name="eight" unicode="8" horiz-adv-x="594" d="M448.47 376.11c76.835-37.47 115.392-93.36 115.392-167.759 0-29.66-6.646-57.16-19.927-82.49-13.294-25.342-31.83-47.269-55.611-65.806-23.793-18.537-51.902-33.062-84.342-43.562S335.86.736 296.932.736c-37.697 0-72.759 5.097-105.198 15.293s-60.708 24.561-84.806 43.098C86.974 74.487 70.821 92.31 58.07 112.33c-2.648 4.144-5.35 8.249-7.68 12.605C36.793 150.264 30 178.07 30 208.35c0 84.648 46.025 144.588 138.1 179.808-72.915 30.269-109.366 81.563-109.366 153.856 0 29.66 5.865 56.379 17.61 80.172 11.73 23.78 27.95 44.33 48.658 61.636 20.696 17.292 45.72 30.586 75.075 39.854 29.34 9.269 61.634 13.902 96.854 13.902s67.5-4.633 96.855-13.902c20.35-6.434 38.476-14.934 54.682-25.223 7.15-4.541 14.049-9.334 20.39-14.63 20.696-17.306 36.916-37.856 48.66-61.636 11.731-23.793 17.61-50.513 17.61-80.172 0-18.537-1.853-35.074-5.56-49.586-3.707-14.525-10.049-27.806-19-39.854-8.963-12.05-20.707-23.33-35.219-33.83-7.878-5.708-16.908-11.308-26.878-16.83a397.592 397.592 0 00-27.342-13.756c9.653-3.761 18.67-7.826 27.342-12.05zM255.487 633.641c-14.83-14.83-22.244-32.758-22.244-53.758 0-21.635 7.415-40.013 22.244-55.146 14.83-15.148 33.048-22.708 54.683-22.708 11.122 0 21.317 2.158 30.585 6.488 9.269 4.316 17.292 10.036 24.098 17.146 6.792 7.097 12.194 15.293 16.22 24.562 4.012 9.269 6.024 18.842 6.024 28.732 0 21-7.415 39.06-22.244 54.221-14.829 15.134-33.061 22.707-54.683 22.707-21.635 0-39.854-7.415-54.683-22.244zm131.612-397.154c4.316 10.195 6.488 21.16 6.488 32.903 0 23.476-8.196 43.403-24.561 59.781-16.38 16.366-36.002 24.562-58.856 24.562-23.489 0-43.258-8.196-59.318-24.561-16.074-16.38-24.098-36.003-24.098-58.856 0-11.744 2.158-22.866 6.488-33.366 4.317-10.513 10.196-19.622 17.61-27.342 7.416-7.732 16.22-13.902 26.416-18.536s21.158-6.951 32.902-6.951c11.122 0 21.781 2.317 31.977 6.95s19.145 10.805 26.878 18.537c7.72 7.72 13.744 16.684 18.074 26.879z"/><glyph glyph-name="nine" unicode="9" horiz-adv-x="652" d="M401.055 19.275l-292.748.003c108.586 96.776 152.85 136.802 232.188 228.003h-3.708c-17.306-10.512-31.526-16.841-42.636-19-11.122-2.158-21.012-3.244-29.659-3.244-33.988 0-65.342 6.488-94.074 19.464s-53.453 30.744-74.149 53.293c-20.681 22.549-36.927 48.978-48.659 79.245C35.88 407.308 30 439.747 30 474.36c0 37.074 6.792 71.512 20.39 103.342 13.584 31.818 33.207 59.623 58.855 83.416 25.634 23.78 56.683 42.476 93.147 56.074 36.452 13.585 77.538 20.39 123.271 20.39 46.342 0 87.746-6.805 124.196-20.39 36.439-13.585 67.501-32.135 93.149-55.61 25.634-23.49 45.27-50.832 58.854-82.027s20.391-64.416 20.391-99.636c0-39.55-8.805-82.344-26.415-128.368-17.61-46.038-44.648-91.295-81.099-135.783C449.86 137.17 412.085 95.038 401.055 19.277zm32.11 413.839c6.17 13.902 9.269 28.878 9.269 44.952 0 16.06-3.085 31.063-9.269 44.952-6.184 13.902-14.525 26.097-25.025 36.61-10.513 10.5-22.707 18.854-36.61 25.024-13.89 6.17-28.891 9.269-44.952 9.269-16.074 0-31.062-3.085-44.952-9.269s-26.11-14.525-36.61-25.025c-10.513-10.513-18.855-22.707-25.025-36.61-6.183-13.902-9.268-28.89-9.268-44.951 0-16.074 3.085-31.05 9.268-44.952 6.17-13.902 14.525-26.11 25.025-36.61s22.72-18.855 36.61-25.025c13.902-6.17 28.878-9.268 44.952-9.268 16.06 0 31.063 3.098 44.952 9.268s26.098 14.512 36.61 25.025c10.5 10.5 18.855 22.708 25.025 36.61z"/><glyph glyph-name="colon" unicode=":" horiz-adv-x="277" d="M61.526 395.293c-9.89 9.878-17.609 21.464-23.17 34.758-5.562 13.28-8.342 27.342-8.342 42.17s2.78 28.878 8.342 42.172c5.561 13.28 13.28 24.866 23.171 34.756 9.878 9.878 21.464 17.61 34.758 23.172 13.28 5.562 27.356 8.342 42.185 8.342s28.877-2.78 42.17-8.342c13.281-5.561 24.867-13.294 34.758-23.172 9.877-9.89 17.61-21.476 23.171-34.756 5.562-13.294 8.342-27.342 8.342-42.171s-2.78-28.89-8.342-42.171c-5.561-13.294-13.293-24.88-23.171-34.758-9.891-9.89-21.477-17.61-34.757-23.172-13.294-5.561-27.356-8.342-42.172-8.342-14.843 0-28.904 2.78-42.185 8.342-13.294 5.562-24.88 13.281-34.758 23.172zm153.858-158.49c9.878-9.878 17.611-21.463 23.173-34.757s8.342-27.342 8.342-42.17-2.78-28.891-8.342-42.172c-5.562-13.294-13.294-24.88-23.172-34.757-9.89-9.891-21.477-17.61-34.757-23.172-13.294-5.562-27.355-8.342-42.172-8.342-14.842 0-28.904 2.78-42.184 8.342-13.294 5.561-24.88 13.28-34.758 23.172-9.89 9.878-17.61 21.463-23.172 34.757C32.78 130.984 30 145.046 30 159.875s2.78 28.877 8.342 42.171c5.562 13.28 13.281 24.866 23.172 34.757 9.878 9.878 21.464 17.61 34.758 23.172 13.28 5.561 27.355 8.342 42.184 8.342s28.877-2.78 42.171-8.342c13.28-5.562 24.866-13.294 34.757-23.172z"/><glyph glyph-name="semicolon" unicode=";" horiz-adv-x="310" d="M270.801 314.393c5.562-13.294 8.342-27.342 8.342-42.17s-2.78-28.892-8.342-42.172c-5.562-13.294-13.294-24.88-23.172-34.758-9.89-9.89-21.476-17.61-34.757-23.172-13.294-5.561-27.342-8.341-42.184-8.341s-28.89 2.78-42.171 8.341c-13.294 5.562-24.88 13.282-34.758 23.172-9.89 9.878-17.61 21.464-23.172 34.758-5.561 13.28-8.342 27.342-8.342 42.171s2.78 28.877 8.342 42.171c5.562 13.28 13.281 24.866 23.172 34.757 9.878 9.878 21.464 17.61 34.758 23.172 13.28 5.561 27.328 8.341 42.17 8.341s28.891-2.78 42.185-8.341c13.28-5.562 24.866-13.294 34.757-23.172 9.878-9.89 17.61-21.477 23.172-34.757zM30.007-217.96c44.17 101.661 68.162 198 74.677 299.516h139.079c-44.119-101.516-68.15-197.841-74.677-299.516H30.006z"/><glyph glyph-name="less" unicode="&lt;" horiz-adv-x="515" d="M484.153 759.543V562.124L239.466 424.965l244.687-138.113V91.289L30 343.391V508.37z"/><glyph glyph-name="equal" unicode="=" horiz-adv-x="629" d="M30 585.124c192.982-19.583 375.822-19.557 568.526 0V440.471c-192.704 19.557-375.544 19.583-568.526 0v144.653zm0-197.073c192.982-19.57 375.822-19.557 568.526 0V243.398c-192.704 19.557-375.544 19.583-568.526 0v144.653z"/><glyph glyph-name="greater" unicode="&gt;" horiz-adv-x="515" d="M30 759.543l454.153-251.174V342.464L30 91.289V288.72l243.747 137.159L30 563.992v195.551z"/><glyph glyph-name="question" unicode="?" horiz-adv-x="556" d="M354.396 236.803c9.878-9.878 17.61-21.463 23.17-34.757s8.343-27.342 8.343-42.17-2.78-28.891-8.342-42.172c-5.562-13.294-13.294-24.88-23.172-34.757-9.89-9.891-21.477-17.61-34.757-23.172-13.294-5.562-27.355-8.342-42.184-8.342s-28.891 2.78-42.171 8.342c-13.294 5.561-24.88 13.28-34.758 23.172-9.89 9.878-17.61 21.463-23.172 34.757-5.562 13.28-8.342 27.342-8.342 42.171s2.78 28.877 8.342 42.171c5.562 13.28 13.281 24.866 23.172 34.757 9.878 9.878 21.464 17.61 34.758 23.172 13.28 5.561 27.355 8.342 42.172 8.342 14.842 0 28.89-2.78 42.184-8.342 13.28-5.562 24.866-13.294 34.757-23.172zm153.855 415.226c11.731-26.574 17.61-54.072 17.623-82.486 0-92.685-55.941-158.49-167.759-197.418v-66.733H187.562v180.734c7.428-1.244 14.207-2.316 20.39-3.243s12.05-1.39 17.611-1.39c16.684 0 32.44 2.317 47.269 6.95s27.646 10.964 38.464 19c10.804 8.024 19.304 17.756 25.488 29.195 6.17 11.427 9.268 23.94 9.268 37.537 0 18.537-6.183 34.598-18.537 48.195-12.353 13.585-29.05 20.391-50.05 20.391-19.145 0-34.452-6.488-45.878-19.464-11.44-12.976-17.147-29.977-17.147-50.977H30c0 31.513 6.328 60.391 19 86.66 12.657 26.257 30.268 49.123 52.83 68.587s49.123 34.597 79.722 45.415c30.572 10.804 63.78 16.22 99.622 16.22 36.451 0 69.645-6.025 99.636-18.074 29.964-12.049 55.756-28.269 77.391-48.66 21.622-20.39 38.292-43.879 50.05-70.44z"/><glyph glyph-name="at" unicode="@" horiz-adv-x="800" d="M742.279 451.367c18.219-39.245 27.344-81.094 27.344-125.582 0-37.696-4.793-72.148-14.366-103.344-9.586-31.208-23.171-58.087-40.782-80.636-17.61-22.562-38.782-40.013-63.489-52.367-24.72-12.367-52.526-18.537-83.417-18.537-16.684 0-31.672 4.316-44.952 12.976-13.294 8.646-24.88 20.39-34.758 35.22-20.39-20.391-39.854-33.221-58.391-38.465-18.538-5.256-35.843-7.879-51.904-7.879-19.78 0-40.317 4.78-61.635 14.367-21.317 9.573-40.78 23.012-58.391 40.318-17.61 17.292-32.294 38-44.025 62.098-11.745 24.097-17.61 50.658-17.61 79.708 0 28.414 5.562 54.524 16.684 78.317 11.122 23.78 25.634 44.171 43.561 61.172 17.915 16.987 38.465 30.122 61.636 39.39s46.806 13.903 70.903 13.903c26.56 0 49.732-5.098 69.513-15.293 19.769-10.195 34.294-23.635 43.562-40.318l8.342 47.268h111.751s-37.55-104.362-54.287-230.784c-1.96-14.816-2.781-29.659-2.781-44.488 0-6.184 1.536-11.122 4.635-14.83 3.085-3.706 6.792-5.56 11.122-5.56 14.207 0 27.342 4.634 39.39 13.903s22.55 21.622 31.513 37.074c8.95 15.438 15.901 33.049 20.854 52.83 4.938 19.768 7.414 40.159 7.414 61.172 0 35.22-6.806 67.342-20.391 96.391-13.598 29.037-32.293 53.758-56.073 74.149-23.793 20.39-51.757 36.146-83.88 47.268-32.134 11.122-66.732 16.684-103.806 16.684-42.635 0-82.026-7.27-118.172-21.781-36.147-14.526-67.355-34.294-93.61-59.319-26.27-25.024-46.806-54.842-61.635-89.44-14.83-34.611-22.244-71.686-22.244-111.222 0-44.488 8.023-84.343 24.097-119.562 16.06-35.22 37.842-64.879 65.343-88.977 27.487-24.097 59.622-42.475 96.392-55.146 36.756-12.658 75.841-19 117.245-19 24.097 0 45.415.781 63.952 2.317C505.47-3.089 522.92-.15 539.3 4.167a256.394 256.394 0 0147.269 17.61c15.133 7.415 31.658 17.001 49.585 28.733l53.095-91.096c-51.982-7.309-90.327-27.685-131.413-39.125-41.098-11.427-85.732-17.146-133.929-17.146-60.562 0-115.087 9.89-163.587 29.659-48.514 19.78-89.758 46.66-123.733 80.635C102.6 47.426 76.343 86.962 57.806 132.072 39.269 177.17 30 225.062 30 275.733c0 52.513 9.878 101.331 29.66 146.441 19.768 45.098 46.95 84.343 81.562 117.71 34.598 33.366 75.22 59.622 121.88 78.78 46.646 19.146 97.16 28.732 151.538 28.732 50.05 0 96.696-8.342 139.953-25.025 43.244-16.684 80.781-39.55 112.611-68.587 31.817-29.05 56.842-63.185 75.074-102.417zm-267.392-217.34c4.938 11.731 7.414 23.78 7.414 36.148 0 12.353-2.476 24.243-7.414 35.682-4.952 11.427-11.586 21.622-19.928 30.586-8.342 8.95-18.232 16.06-29.659 21.317-11.44 5.244-23.329 7.878-35.683 7.878-12.367 0-24.256-2.634-35.683-7.878-11.44-5.256-21.318-12.367-29.66-21.317-8.341-8.964-14.988-19.16-19.926-30.586-4.952-11.44-7.415-23.329-7.415-35.683 0-12.367 2.463-24.416 7.415-36.147 4.938-11.744 11.585-21.94 19.927-30.586 8.342-8.66 18.22-15.61 29.659-20.853 11.427-5.257 23.316-7.88 35.683-7.88 12.354 0 24.244 2.623 35.683 7.88 11.427 5.243 21.317 12.194 29.66 20.853 8.341 8.647 14.975 18.842 19.927 30.586z"/><glyph glyph-name="A" unicode="A" horiz-adv-x="870" d="M553.971.06c19.504 48.725 16.764 72.914 6.86 121.44-99.73-.013-152.493-.119-253.572-.516C294.72 71.663 286.657 45.857 315.826.058H30c97.398 155.379 276.346 504.601 236.107 698.841H611.17C592.778 460.211 713.136 201.833 839.796.059H553.97zM353.337 259.574h163.124c-32.625 93.055-43.562 139.582-69.5 232.637-38.583-93.055-60.999-139.582-93.624-232.637z"/><glyph glyph-name="A" unicode="Å" horiz-adv-x="870" d="M553.971.06c19.504 48.725 16.764 72.914 6.86 121.44-99.73-.013-152.493-.119-253.572-.516C294.72 71.663 286.657 45.857 315.826.058H30c97.398 155.379 276.346 504.601 236.107 698.841H611.17C592.778 460.211 713.136 201.833 839.796.059H553.97zM353.337 259.574h163.124c-32.625 93.055-43.562 139.582-69.5 232.637-38.583-93.055-60.999-139.582-93.624-232.637z"/><glyph glyph-name="A" unicode="Ä" horiz-adv-x="870" d="M553.971.06c19.504 48.725 16.764 72.914 6.86 121.44-99.73-.013-152.493-.119-253.572-.516C294.72 71.663 286.657 45.857 315.826.058H30c97.398 155.379 276.346 504.601 236.107 698.841H611.17C592.778 460.211 713.136 201.833 839.796.059H553.97zM353.337 259.574h163.124c-32.625 93.055-43.562 139.582-69.5 232.637-38.583-93.055-60.999-139.582-93.624-232.637z"/><glyph glyph-name="A" unicode="Ã" horiz-adv-x="870" d="M553.971.06c19.504 48.725 16.764 72.914 6.86 121.44-99.73-.013-152.493-.119-253.572-.516C294.72 71.663 286.657 45.857 315.826.058H30c97.398 155.379 276.346 504.601 236.107 698.841H611.17C592.778 460.211 713.136 201.833 839.796.059H553.97zM353.337 259.574h163.124c-32.625 93.055-43.562 139.582-69.5 232.637-38.583-93.055-60.999-139.582-93.624-232.637z"/><glyph glyph-name="A" unicode="Â" horiz-adv-x="870" d="M553.971.06c19.504 48.725 16.764 72.914 6.86 121.44-99.73-.013-152.493-.119-253.572-.516C294.72 71.663 286.657 45.857 315.826.058H30c97.398 155.379 276.346 504.601 236.107 698.841H611.17C592.778 460.211 713.136 201.833 839.796.059H553.97zM353.337 259.574h163.124c-32.625 93.055-43.562 139.582-69.5 232.637-38.583-93.055-60.999-139.582-93.624-232.637z"/><glyph glyph-name="A" unicode="Á" horiz-adv-x="870" d="M553.971.06c19.504 48.725 16.764 72.914 6.86 121.44-99.73-.013-152.493-.119-253.572-.516C294.72 71.663 286.657 45.857 315.826.058H30c97.398 155.379 276.346 504.601 236.107 698.841H611.17C592.778 460.211 713.136 201.833 839.796.059H553.97zM353.337 259.574h163.124c-32.625 93.055-43.562 139.582-69.5 232.637-38.583-93.055-60.999-139.582-93.624-232.637z"/><glyph glyph-name="A" unicode="À" horiz-adv-x="870" d="M553.971.06c19.504 48.725 16.764 72.914 6.86 121.44-99.73-.013-152.493-.119-253.572-.516C294.72 71.663 286.657 45.857 315.826.058H30c97.398 155.379 276.346 504.601 236.107 698.841H611.17C592.778 460.211 713.136 201.833 839.796.059H553.97zM353.337 259.574h163.124c-32.625 93.055-43.562 139.582-69.5 232.637-38.583-93.055-60.999-139.582-93.624-232.637z"/><glyph glyph-name="B" unicode="B" horiz-adv-x="633" d="M30 .06c57.133 229.963 57.043 469.22.002 698.84h310.359c64.257 0 113.075-15.453 146.441-46.343 33.366-30.904 50.05-75.392 50.05-133.465 0-35.22-6.342-64.415-19-87.586-12.671-23.171-31.976-42.794-57.927-58.855 25.951-4.952 48.036-12.512 66.269-22.708 18.218-10.195 33.047-22.708 44.487-37.537 11.427-14.829 19.61-31.512 24.561-50.05 4.939-18.523 7.414-38.318 7.414-59.318 0-32.757-5.72-61.794-17.146-87.123-11.44-25.343-27.5-46.66-48.195-63.952-20.708-17.306-45.88-30.281-75.538-38.928C432.117 4.376 398.75.06 361.677.06H29.999zm221.386 559.813V424.554h33.366c56.842 0 85.27 22.549 85.27 67.66 0 45.097-28.428 67.66-85.27 67.66h-33.366zm0-270.639V140.94h39.853c45.72 0 78.464 5.865 98.246 17.61 19.768 11.73 29.659 30.585 29.659 56.536s-9.89 44.806-29.66 56.538-52.525 17.61-98.244 17.61h-39.854z"/><glyph glyph-name="C" unicode="C" horiz-adv-x="664" d="M408.152 156.882c58.06 0 86.794 19.385 133.136 68.839l92.685-185.37C501.567 13.872 514.807-12.61 397.032-19.204c-48.117-2.7-94.393 9.123-138.563 27.342-44.184 18.219-83.112 43.866-116.782 76.928-33.685 33.049-60.71 72.294-81.1 117.709s-30.586 95-30.586 148.758 10.036 103.025 30.122 147.832c20.073 44.793 46.952 83.416 80.637 115.855 33.67 32.44 72.757 57.768 117.245 76 44.264 18.127 90.672 27.223 139.226 27.316l.728.014c116.85-2.94 130.09-29.421 222.773-55.902l-92.022-198.61c-8.355 8.753-16.153 16.564-23.688 23.622-15.054 14.128-135.862 95.545-231.26-.357-16.803-16.882-29.819-37.232-39.392-60.708-9.586-23.49-14.366-48.818-14.366-76 0-27.806 4.78-53.454 14.366-76.93 9.573-23.489 22.853-43.88 39.854-61.171 16.988-17.306 36.914-30.904 59.78-40.782 22.854-9.89 47.575-14.829 74.149-14.829z"/><glyph glyph-name="C" unicode="Ç" horiz-adv-x="664" d="M408.152 156.882c58.06 0 86.794 19.385 133.136 68.839l92.685-185.37C501.567 13.872 514.807-12.61 397.032-19.204c-48.117-2.7-94.393 9.123-138.563 27.342-44.184 18.219-83.112 43.866-116.782 76.928-33.685 33.049-60.71 72.294-81.1 117.709s-30.586 95-30.586 148.758 10.036 103.025 30.122 147.832c20.073 44.793 46.952 83.416 80.637 115.855 33.67 32.44 72.757 57.768 117.245 76 44.264 18.127 90.672 27.223 139.226 27.316l.728.014c116.85-2.94 130.09-29.421 222.773-55.902l-92.022-198.61c-8.355 8.753-16.153 16.564-23.688 23.622-15.054 14.128-135.862 95.545-231.26-.357-16.803-16.882-29.819-37.232-39.392-60.708-9.586-23.49-14.366-48.818-14.366-76 0-27.806 4.78-53.454 14.366-76.93 9.573-23.489 22.853-43.88 39.854-61.171 16.988-17.306 36.914-30.904 59.78-40.782 22.854-9.89 47.575-14.829 74.149-14.829z"/><glyph glyph-name="D" unicode="D" horiz-adv-x="713" d="M30 .06c57.147 229.963 57.056 469.22.002 698.84h308.506c47.573 0 92.22-9.586 133.929-28.732 41.708-19.159 78.16-44.647 109.367-76.465 31.195-31.83 55.77-68.917 73.685-111.22 17.927-42.318 26.877-86.66 26.877-133.003 0-45.733-8.804-89.758-26.415-132.076-17.61-42.33-42.026-79.562-73.221-111.685-31.208-32.134-67.66-57.782-109.367-76.927C431.655 9.632 386.703.059 338.507.059H30zm221.398 544.984l.001-391.127h41.709c31.513 0 59.622 4.938 84.343 14.83 24.707 9.877 45.56 23.475 62.561 40.78C457 226.82 469.975 247.37 478.94 271.162c8.95 23.78 13.439 49.89 13.439 78.318 0 27.806-4.634 53.757-13.903 77.855s-22.403 44.793-39.39 62.099c-17.001 17.292-37.855 30.903-62.562 40.78-24.707 9.891-52.525 14.83-83.416 14.83h-41.709z"/><glyph glyph-name="E" unicode="E" horiz-adv-x="585" d="M521.916 148.447c10.712-75.63 24.733-118.479 24.879-118.915l7.401-22.35-521.76-.04 4.542 20.814C80.673 228.18 78.462 391.9 68.915 494c-10.341 110.665-31.287 174.789-31.5 175.438L30.002 691.8l513.55.014-7.44-22.39c-.134-.41-14.155-43.243-24.893-118.887l-1.377-9.692v-5.839l-20.92-.026-233.46.026c-4.316-33.79-7.295-68.917-8.898-104.825l231.142-.026-.026-156.77-229.5.027c2.291-36.16 5.893-72.837 10.778-109.474l260.761.053z"/><glyph glyph-name="E" unicode="Ë" horiz-adv-x="585" d="M521.916 148.447c10.712-75.63 24.733-118.479 24.879-118.915l7.401-22.35-521.76-.04 4.542 20.814C80.673 228.18 78.462 391.9 68.915 494c-10.341 110.665-31.287 174.789-31.5 175.438L30.002 691.8l513.55.014-7.44-22.39c-.134-.41-14.155-43.243-24.893-118.887l-1.377-9.692v-5.839l-20.92-.026-233.46.026c-4.316-33.79-7.295-68.917-8.898-104.825l231.142-.026-.026-156.77-229.5.027c2.291-36.16 5.893-72.837 10.778-109.474l260.761.053z"/><glyph glyph-name="E" unicode="Ê" horiz-adv-x="585" d="M521.916 148.447c10.712-75.63 24.733-118.479 24.879-118.915l7.401-22.35-521.76-.04 4.542 20.814C80.673 228.18 78.462 391.9 68.915 494c-10.341 110.665-31.287 174.789-31.5 175.438L30.002 691.8l513.55.014-7.44-22.39c-.134-.41-14.155-43.243-24.893-118.887l-1.377-9.692v-5.839l-20.92-.026-233.46.026c-4.316-33.79-7.295-68.917-8.898-104.825l231.142-.026-.026-156.77-229.5.027c2.291-36.16 5.893-72.837 10.778-109.474l260.761.053z"/><glyph glyph-name="E" unicode="É" horiz-adv-x="585" d="M521.916 148.447c10.712-75.63 24.733-118.479 24.879-118.915l7.401-22.35-521.76-.04 4.542 20.814C80.673 228.18 78.462 391.9 68.915 494c-10.341 110.665-31.287 174.789-31.5 175.438L30.002 691.8l513.55.014-7.44-22.39c-.134-.41-14.155-43.243-24.893-118.887l-1.377-9.692v-5.839l-20.92-.026-233.46.026c-4.316-33.79-7.295-68.917-8.898-104.825l231.142-.026-.026-156.77-229.5.027c2.291-36.16 5.893-72.837 10.778-109.474l260.761.053z"/><glyph glyph-name="E" unicode="È" horiz-adv-x="585" d="M521.916 148.447c10.712-75.63 24.733-118.479 24.879-118.915l7.401-22.35-521.76-.04 4.542 20.814C80.673 228.18 78.462 391.9 68.915 494c-10.341 110.665-31.287 174.789-31.5 175.438L30.002 691.8l513.55.014-7.44-22.39c-.134-.41-14.155-43.243-24.893-118.887l-1.377-9.692v-5.839l-20.92-.026-233.46.026c-4.316-33.79-7.295-68.917-8.898-104.825l231.142-.026-.026-156.77-229.5.027c2.291-36.16 5.893-72.837 10.778-109.474l260.761.053z"/><glyph glyph-name="F" unicode="F" horiz-adv-x="574" d="M276.17 7.156L32.437 7.14l4.542 20.814C80.673 228.18 78.462 391.9 68.915 493.998c-10.34 110.665-31.287 174.79-31.499 175.438L30.001 691.8l513.551.014-7.441-22.39c-.133-.41-14.154-43.243-24.893-118.886l-1.377-9.693v-5.839l-20.92-.026-233.458.026c-4.317-33.79-7.296-68.917-8.899-104.825l204.66-.026-.026-156.77-203.02.027c2.292-36.16 1.51-186.812 27.992-266.255z"/><glyph glyph-name="G" unicode="G" horiz-adv-x="762" d="M361.942 422.29c170.896-46.501 369.503-33.258 369.503-33.258s-39.722-251.572 0-410.46H559.317c26.481 66.203 26.481 76.742 26.481 76.742-5.76-4.197-11.56-8.341-17.636-12.168-29.977-18.854-62.88-33.22-98.71-43.098C433.61-9.83 320.986-21.43 247.342 12.097c-43.92 19.993-83.27 43.097-115.393 75.537-32.135 32.44-57.16 71.367-75.075 116.782-17.927 45.415-26.877 95.61-26.877 150.612 0 54.366 8.804 104.27 26.415 149.686s42.634 84.183 75.074 116.318c32.44 32.122 71.512 57.146 117.246 75.074 45.72 17.915 284.104 90.143 469.473-148.188l-185.37-92.685c0 52.963-17.953 68.48-43.587 85.164-25.648 16.684-54.843 25.026-87.587 25.026-27.196 0-51.903-5.098-74.148-15.293s-41.244-24.72-57-43.563c-15.755-18.854-28.123-41.562-37.073-68.123-8.964-26.574-13.44-56.233-13.44-88.977 0-29.66 3.854-57.16 11.587-82.49 7.72-25.342 19.305-47.269 34.757-65.806 15.439-18.537 34.598-32.903 57.464-43.099 22.854-10.195 75.207-13.294 91.891-9.268 16.684 4.011 31.66 10.5 44.953 19.464 13.28 8.95 24.243 20.536 32.902 34.756 8.647 14.207 14.512 31.513 17.61 51.904l-149.221-13.24s-6.647 182.416 0 180.603z"/><glyph glyph-name="H" unicode="H" horiz-adv-x="704" d="M253.462 698.899c-24.402-109.924-21.41-161.827-21.41-269.712H471.43c0 107.885 4.21 181.225-21.41 269.712h223.448c-41.523-240.834-41.642-457.318 0-698.841H450.02c29.592 147.104 21.41 172.949 21.41 288.249H232.052c0-115.3-3.575-154.399 21.41-288.249H30c41.642 241.522 41.523 458.007 0 698.841h223.462z"/><glyph glyph-name="I" unicode="I" horiz-adv-x="322" d="M30 698.899h261.104c-45.733-242.038-45.879-455.993 0-698.84H30c45.879 242.847 45.733 456.802 0 698.84z"/><glyph glyph-name="I" unicode="Ï" horiz-adv-x="322" d="M30 698.899h261.104c-45.733-242.038-45.879-455.993 0-698.84H30c45.879 242.847 45.733 456.802 0 698.84z"/><glyph glyph-name="I" unicode="Î" horiz-adv-x="322" d="M30 698.899h261.104c-45.733-242.038-45.879-455.993 0-698.84H30c45.879 242.847 45.733 456.802 0 698.84z"/><glyph glyph-name="I" unicode="Í" horiz-adv-x="322" d="M30 698.899h261.104c-45.733-242.038-45.879-455.993 0-698.84H30c45.879 242.847 45.733 456.802 0 698.84z"/><glyph glyph-name="I" unicode="Ì" horiz-adv-x="322" d="M30 698.899h261.104c-45.733-242.038-45.879-455.993 0-698.84H30c45.879 242.847 45.733 456.802 0 698.84z"/><glyph glyph-name="J" unicode="J" horiz-adv-x="508" d="M243.042 703.468h234.624c-21.423-177.332-26.48-348.997-26.48-527.375 0-20.39-1.086-39.259-3.218-56.538-2.132-17.306-5.615-32.135-10.302-44.488-9.957-25.952-25.713-50.368-46.845-73.221C353.84-37.69 300.68-57.472 236.422-57.472c-74.77 0-134.207 34.479-206.42 79.047 28.48 28.349 60.972 106.481 114.848 189.897 5.031-21.873 15.293-37.894 27.74-54.14 12.459-16.26 27.54-26.667 45.467-31.606 39.417-10.884 58.312 12.195 58.034 66.508 3.601 177.848-1.483 335.332-33.048 511.233z"/><glyph glyph-name="K" unicode="K" horiz-adv-x="817" d="M276.792 693.497c-26.468-66.19 3.257-180.019 3.257-203.706 82.277 75.405 93.254 98.364 147.633 213.664h279.734c-138.536-126.964-105.13-121.376-222.958-264.68C602.405 309.149 654.375 109.149 786.583 4.614H520.565c-53.823 120.768-140.06 283.27-253.771 364.421 0-43.244-42.966-218.404 9.997-364.051 0 0-188.4-.371-246.792-.371 58.192 246.594 57.914 453.386 0 698.84 56.723 0 246.792-9.956 246.792-9.956z"/><glyph glyph-name="L" unicode="L" horiz-adv-x="566" d="M30 698.899l253.306-.001c-36.412-184.68-22.033-358.834-23.94-544.983h246.939c14.114-61.542 29.09-92.313 29.09-153.855H30c45.88 242.847 45.734 456.802 0 698.84z"/><glyph glyph-name="M" unicode="M" horiz-adv-x="995" d="M275.375.06H30.003c92.976 235.419 117.63 449.096 134.948 698.84h232.386c11.744-179.927 41.668-234.451 94.273-346.877 52.247 112.426 87.494 207.97 93.399 346.877h232.386C835.773 441.74 857.474 236.485 964.79.06H711.007c-8.447 131.387-1.444 280.384-34.797 409.268C607.663 272.473 550.29 145.773 501.103.06h-22.695c-49.798 143.568-108.136 272.214-172.26 409.268C272.25 280.682 281.268 131.235 275.376.06z"/><glyph glyph-name="N" unicode="N" horiz-adv-x="766" d="M226.584.06H29.998c41.417 241.456 41.311 458.06.001 698.84h228.215c92.83-144.058 177.689-287.348 277.458-427.274 0 146.878-8.818 281.509-26.892 427.274h227.077c-41.31-240.78-41.416-457.37.001-698.84H508.781C413.078 141.67 330.814 287.767 231.02 427.336c0-142.575-1.244-284.727-4.435-427.275z"/><glyph glyph-name="N" unicode="Ñ" horiz-adv-x="766" d="M226.584.06H29.998c41.417 241.456 41.311 458.06.001 698.84h228.215c92.83-144.058 177.689-287.348 277.458-427.274 0 146.878-8.818 281.509-26.892 427.274h227.077c-41.31-240.78-41.416-457.37.001-698.84H508.781C413.078 141.67 330.814 287.767 231.02 427.336c0-142.575-1.244-284.727-4.435-427.275z"/><glyph glyph-name="O" unicode="O" horiz-adv-x="810" d="M58.745 212.359c-19.173 44.793-28.75 93.147-28.75 145.051s9.573 100.245 28.732 145.052c19.146 44.793 45.72 83.879 79.709 117.245 33.975 33.366 74.61 59.464 121.88 78.318 47.282 18.842 99.318 28.27 156.187 28.27 56.22 0 108.123-9.428 155.71-28.27 47.586-18.854 88.527-44.952 122.808-78.318s61-72.452 80.172-117.245c19.133-44.807 28.733-93.148 28.733-145.052s-9.6-100.258-28.733-145.051c-19.159-44.807-45.878-83.88-80.171-117.246s-75.234-59.477-122.807-78.318-99.49-28.27-155.71-28.27c-56.868 0-108.902 9.428-156.171 28.27s-87.905 44.952-121.88 78.318c-33.989 33.366-60.563 72.44-79.708 117.246zm177.01 221.979c-10.513-23.49-15.756-49.123-15.756-76.929s5.243-53.453 15.756-76.928c10.5-23.49 24.707-43.88 42.635-61.172 17.901-17.306 38.768-30.745 62.561-40.319 23.767-9.586 48.95-14.366 75.537-14.366 26.56 0 51.745 4.78 75.538 14.366 23.766 9.574 44.793 23.013 63.025 40.319 18.206 17.292 32.585 37.682 43.085 61.172 10.5 23.475 15.77 49.123 15.77 76.928s-5.27 53.44-15.77 76.929c-10.5 23.476-24.879 43.866-43.085 61.172-18.232 17.292-39.259 30.731-63.025 40.317-23.793 9.574-48.977 14.367-75.538 14.367-26.586 0-51.77-4.793-75.537-14.367-23.793-9.586-44.66-23.025-62.561-40.317-17.928-17.306-32.135-37.696-42.635-61.172z"/><glyph glyph-name="O" unicode="Ø" horiz-adv-x="810" d="M58.745 212.359c-19.173 44.793-28.75 93.147-28.75 145.051s9.573 100.245 28.732 145.052c19.146 44.793 45.72 83.879 79.709 117.245 33.975 33.366 74.61 59.464 121.88 78.318 47.282 18.842 99.318 28.27 156.187 28.27 56.22 0 108.123-9.428 155.71-28.27 47.586-18.854 88.527-44.952 122.808-78.318s61-72.452 80.172-117.245c19.133-44.807 28.733-93.148 28.733-145.052s-9.6-100.258-28.733-145.051c-19.159-44.807-45.878-83.88-80.171-117.246s-75.234-59.477-122.807-78.318-99.49-28.27-155.71-28.27c-56.868 0-108.902 9.428-156.171 28.27s-87.905 44.952-121.88 78.318c-33.989 33.366-60.563 72.44-79.708 117.246zm177.01 221.979c-10.513-23.49-15.756-49.123-15.756-76.929s5.243-53.453 15.756-76.928c10.5-23.49 24.707-43.88 42.635-61.172 17.901-17.306 38.768-30.745 62.561-40.319 23.767-9.586 48.95-14.366 75.537-14.366 26.56 0 51.745 4.78 75.538 14.366 23.766 9.574 44.793 23.013 63.025 40.319 18.206 17.292 32.585 37.682 43.085 61.172 10.5 23.475 15.77 49.123 15.77 76.928s-5.27 53.44-15.77 76.929c-10.5 23.476-24.879 43.866-43.085 61.172-18.232 17.292-39.259 30.731-63.025 40.317-23.793 9.574-48.977 14.367-75.538 14.367-26.586 0-51.77-4.793-75.537-14.367-23.793-9.586-44.66-23.025-62.561-40.317-17.928-17.306-32.135-37.696-42.635-61.172z"/><glyph glyph-name="O" unicode="Ö" horiz-adv-x="810" d="M58.745 212.359c-19.173 44.793-28.75 93.147-28.75 145.051s9.573 100.245 28.732 145.052c19.146 44.793 45.72 83.879 79.709 117.245 33.975 33.366 74.61 59.464 121.88 78.318 47.282 18.842 99.318 28.27 156.187 28.27 56.22 0 108.123-9.428 155.71-28.27 47.586-18.854 88.527-44.952 122.808-78.318s61-72.452 80.172-117.245c19.133-44.807 28.733-93.148 28.733-145.052s-9.6-100.258-28.733-145.051c-19.159-44.807-45.878-83.88-80.171-117.246s-75.234-59.477-122.807-78.318-99.49-28.27-155.71-28.27c-56.868 0-108.902 9.428-156.171 28.27s-87.905 44.952-121.88 78.318c-33.989 33.366-60.563 72.44-79.708 117.246zm177.01 221.979c-10.513-23.49-15.756-49.123-15.756-76.929s5.243-53.453 15.756-76.928c10.5-23.49 24.707-43.88 42.635-61.172 17.901-17.306 38.768-30.745 62.561-40.319 23.767-9.586 48.95-14.366 75.537-14.366 26.56 0 51.745 4.78 75.538 14.366 23.766 9.574 44.793 23.013 63.025 40.319 18.206 17.292 32.585 37.682 43.085 61.172 10.5 23.475 15.77 49.123 15.77 76.928s-5.27 53.44-15.77 76.929c-10.5 23.476-24.879 43.866-43.085 61.172-18.232 17.292-39.259 30.731-63.025 40.317-23.793 9.574-48.977 14.367-75.538 14.367-26.586 0-51.77-4.793-75.537-14.367-23.793-9.586-44.66-23.025-62.561-40.317-17.928-17.306-32.135-37.696-42.635-61.172z"/><glyph glyph-name="O" unicode="Õ" horiz-adv-x="810" d="M58.745 212.359c-19.173 44.793-28.75 93.147-28.75 145.051s9.573 100.245 28.732 145.052c19.146 44.793 45.72 83.879 79.709 117.245 33.975 33.366 74.61 59.464 121.88 78.318 47.282 18.842 99.318 28.27 156.187 28.27 56.22 0 108.123-9.428 155.71-28.27 47.586-18.854 88.527-44.952 122.808-78.318s61-72.452 80.172-117.245c19.133-44.807 28.733-93.148 28.733-145.052s-9.6-100.258-28.733-145.051c-19.159-44.807-45.878-83.88-80.171-117.246s-75.234-59.477-122.807-78.318-99.49-28.27-155.71-28.27c-56.868 0-108.902 9.428-156.171 28.27s-87.905 44.952-121.88 78.318c-33.989 33.366-60.563 72.44-79.708 117.246zm177.01 221.979c-10.513-23.49-15.756-49.123-15.756-76.929s5.243-53.453 15.756-76.928c10.5-23.49 24.707-43.88 42.635-61.172 17.901-17.306 38.768-30.745 62.561-40.319 23.767-9.586 48.95-14.366 75.537-14.366 26.56 0 51.745 4.78 75.538 14.366 23.766 9.574 44.793 23.013 63.025 40.319 18.206 17.292 32.585 37.682 43.085 61.172 10.5 23.475 15.77 49.123 15.77 76.928s-5.27 53.44-15.77 76.929c-10.5 23.476-24.879 43.866-43.085 61.172-18.232 17.292-39.259 30.731-63.025 40.317-23.793 9.574-48.977 14.367-75.538 14.367-26.586 0-51.77-4.793-75.537-14.367-23.793-9.586-44.66-23.025-62.561-40.317-17.928-17.306-32.135-37.696-42.635-61.172z"/><glyph glyph-name="O" unicode="Ô" horiz-adv-x="810" d="M58.745 212.359c-19.173 44.793-28.75 93.147-28.75 145.051s9.573 100.245 28.732 145.052c19.146 44.793 45.72 83.879 79.709 117.245 33.975 33.366 74.61 59.464 121.88 78.318 47.282 18.842 99.318 28.27 156.187 28.27 56.22 0 108.123-9.428 155.71-28.27 47.586-18.854 88.527-44.952 122.808-78.318s61-72.452 80.172-117.245c19.133-44.807 28.733-93.148 28.733-145.052s-9.6-100.258-28.733-145.051c-19.159-44.807-45.878-83.88-80.171-117.246s-75.234-59.477-122.807-78.318-99.49-28.27-155.71-28.27c-56.868 0-108.902 9.428-156.171 28.27s-87.905 44.952-121.88 78.318c-33.989 33.366-60.563 72.44-79.708 117.246zm177.01 221.979c-10.513-23.49-15.756-49.123-15.756-76.929s5.243-53.453 15.756-76.928c10.5-23.49 24.707-43.88 42.635-61.172 17.901-17.306 38.768-30.745 62.561-40.319 23.767-9.586 48.95-14.366 75.537-14.366 26.56 0 51.745 4.78 75.538 14.366 23.766 9.574 44.793 23.013 63.025 40.319 18.206 17.292 32.585 37.682 43.085 61.172 10.5 23.475 15.77 49.123 15.77 76.928s-5.27 53.44-15.77 76.929c-10.5 23.476-24.879 43.866-43.085 61.172-18.232 17.292-39.259 30.731-63.025 40.317-23.793 9.574-48.977 14.367-75.538 14.367-26.586 0-51.77-4.793-75.537-14.367-23.793-9.586-44.66-23.025-62.561-40.317-17.928-17.306-32.135-37.696-42.635-61.172z"/><glyph glyph-name="O" unicode="Ó" horiz-adv-x="810" d="M58.745 212.359c-19.173 44.793-28.75 93.147-28.75 145.051s9.573 100.245 28.732 145.052c19.146 44.793 45.72 83.879 79.709 117.245 33.975 33.366 74.61 59.464 121.88 78.318 47.282 18.842 99.318 28.27 156.187 28.27 56.22 0 108.123-9.428 155.71-28.27 47.586-18.854 88.527-44.952 122.808-78.318s61-72.452 80.172-117.245c19.133-44.807 28.733-93.148 28.733-145.052s-9.6-100.258-28.733-145.051c-19.159-44.807-45.878-83.88-80.171-117.246s-75.234-59.477-122.807-78.318-99.49-28.27-155.71-28.27c-56.868 0-108.902 9.428-156.171 28.27s-87.905 44.952-121.88 78.318c-33.989 33.366-60.563 72.44-79.708 117.246zm177.01 221.979c-10.513-23.49-15.756-49.123-15.756-76.929s5.243-53.453 15.756-76.928c10.5-23.49 24.707-43.88 42.635-61.172 17.901-17.306 38.768-30.745 62.561-40.319 23.767-9.586 48.95-14.366 75.537-14.366 26.56 0 51.745 4.78 75.538 14.366 23.766 9.574 44.793 23.013 63.025 40.319 18.206 17.292 32.585 37.682 43.085 61.172 10.5 23.475 15.77 49.123 15.77 76.928s-5.27 53.44-15.77 76.929c-10.5 23.476-24.879 43.866-43.085 61.172-18.232 17.292-39.259 30.731-63.025 40.317-23.793 9.574-48.977 14.367-75.538 14.367-26.586 0-51.77-4.793-75.537-14.367-23.793-9.586-44.66-23.025-62.561-40.317-17.928-17.306-32.135-37.696-42.635-61.172z"/><glyph glyph-name="O" unicode="Ò" horiz-adv-x="810" d="M58.745 212.359c-19.173 44.793-28.75 93.147-28.75 145.051s9.573 100.245 28.732 145.052c19.146 44.793 45.72 83.879 79.709 117.245 33.975 33.366 74.61 59.464 121.88 78.318 47.282 18.842 99.318 28.27 156.187 28.27 56.22 0 108.123-9.428 155.71-28.27 47.586-18.854 88.527-44.952 122.808-78.318s61-72.452 80.172-117.245c19.133-44.807 28.733-93.148 28.733-145.052s-9.6-100.258-28.733-145.051c-19.159-44.807-45.878-83.88-80.171-117.246s-75.234-59.477-122.807-78.318-99.49-28.27-155.71-28.27c-56.868 0-108.902 9.428-156.171 28.27s-87.905 44.952-121.88 78.318c-33.989 33.366-60.563 72.44-79.708 117.246zm177.01 221.979c-10.513-23.49-15.756-49.123-15.756-76.929s5.243-53.453 15.756-76.928c10.5-23.49 24.707-43.88 42.635-61.172 17.901-17.306 38.768-30.745 62.561-40.319 23.767-9.586 48.95-14.366 75.537-14.366 26.56 0 51.745 4.78 75.538 14.366 23.766 9.574 44.793 23.013 63.025 40.319 18.206 17.292 32.585 37.682 43.085 61.172 10.5 23.475 15.77 49.123 15.77 76.928s-5.27 53.44-15.77 76.929c-10.5 23.476-24.879 43.866-43.085 61.172-18.232 17.292-39.259 30.731-63.025 40.317-23.793 9.574-48.977 14.367-75.538 14.367-26.586 0-51.77-4.793-75.537-14.367-23.793-9.586-44.66-23.025-62.561-40.317-17.928-17.306-32.135-37.696-42.635-61.172z"/><glyph glyph-name="P" unicode="P" horiz-adv-x="632" d="M251.383 231.771c.384-92.578-5.8-128.845 39.655-231.711H30c45.88 242.847 45.72 456.802 0 698.84h328.896c78.464 0 138.563-20.39 180.271-61.172 41.695-40.781 62.562-98.245 62.562-172.393s-20.854-131.61-62.562-172.393-101.86-61.172-180.284-61.172h-107.5zm0 320.686V378.21h60.245c66.733 0 100.112 29.037 100.112 87.124 0 58.073-33.38 87.123-100.112 87.123h-60.245z"/><glyph glyph-name="Q" unicode="Q" horiz-adv-x="847" d="M816.374 37.094C778.466 4.416 718.063-47.633 680.154-80.31c-18.299 39.39-40.94 78.543-66.733 116.45-13.188-7.03-26.786-13.638-41.205-19.345-47.586-18.842-99.49-28.27-155.71-28.27-56.868 0-108.904 9.428-156.187 28.27-47.255 18.842-87.891 44.952-121.88 78.319s-60.562 72.439-79.708 117.245C39.572 257.152 30 305.507 30 357.41s9.573 100.245 28.732 145.052c19.16 44.793 45.734 83.88 79.71 117.245s74.623 59.464 121.88 78.319c47.282 18.842 99.317 28.27 156.185 28.27 56.22 0 108.123-9.428 155.71-28.27 47.574-18.855 88.514-44.952 122.807-78.318s61.013-72.453 80.172-117.245c19.133-44.807 28.733-93.149 28.733-145.053s-9.6-100.258-28.733-145.05c-15.213-35.591-35.392-67.395-60.152-95.756 32.492-29.646 66.508-56.538 101.331-79.51zM416.507 164.627c26.548 0 51.742 4.78 75.549 14.365.543.212 1.06.503 1.602.728-40.224 39.682-83.336 75.287-127.719 104.562 37.909 32.677 98.326 84.74 136.233 117.405 22.483-48.381 51.44-96.418 84.886-142.19 4.025 6.726 7.813 13.651 11.096 20.986 10.5 23.476 15.77 49.123 15.77 76.929s-5.27 53.44-15.77 76.928c-10.5 23.476-24.88 43.867-43.085 61.172-18.233 17.292-39.26 30.732-63.026 40.318-23.793 9.573-48.976 14.366-75.537 14.366-26.587 0-51.77-4.793-75.537-14.366-23.793-9.586-44.66-23.026-62.575-40.318-17.928-17.305-32.135-37.696-42.635-61.172-10.513-23.489-15.756-49.123-15.756-76.928s5.243-53.453 15.756-76.929c10.5-23.49 24.707-43.88 42.635-61.172 17.915-17.306 38.782-30.745 62.575-40.318 23.767-9.586 48.95-14.366 75.537-14.366z"/><glyph glyph-name="R" unicode="R" horiz-adv-x="725" d="M500.452 265.044C554.434 169.804 631.495 82.6 694.891 1.382c0 0-240.582-5.124-241.615 0-21.251 105.925-74.214 158.888-159.748 231.341h-42.146c.372-92.459-5.786-128.752 39.498-231.34l.159-.371H29.999c45.88 242.847 45.72 456.802 0 698.84h328.897c78.464 0 138.563-20.39 180.27-61.172s62.562-98.245 62.562-172.393-20.867-131.611-62.561-172.393c-11.467-11.201-24.469-20.72-38.716-28.85zM251.369 553.41V379.163h60.245c31.42 0 100.112 29.037 100.112 87.124 0 58.073-33.38 87.123-100.112 87.123H251.37z"/><glyph glyph-name="S" unicode="S" horiz-adv-x="539" d="M488.426 675.066l-80.964-184.732c-26.481 79.443-89.573 76.954-108.097 76.954-23.49 0-42.648-5.561-57.477-16.683-14.817-11.123-22.245-25.648-22.245-43.563 0-12.367 3.708-22.562 11.123-30.586 7.427-8.037 17.146-14.988 29.195-20.853 12.049-5.88 25.646-10.977 40.78-15.293a1106.806 1106.806 0 0044.965-13.903c59.305-19.78 102.721-46.196 130.222-79.245 27.475-33.061 41.231-76.16 41.231-129.295 0-35.843-6.024-68.282-18.06-97.32-12.049-29.049-29.66-53.915-52.83-74.61-23.171-20.708-51.599-36.769-85.27-48.196-33.684-11.426-71.83-17.146-114.466-17.146C158.165-19.405 116.166 26.91-3 40.15l92.685 185.37c26.481-39.722 43.151-61.728 69.726-73.46 26.56-11.744 52.83-17.609 78.78-17.609 29.646 0 51.731 6.792 66.27 20.39 14.511 13.585 21.78 29.037 21.78 46.343 0 10.5-1.853 19.609-5.56 27.341-3.707 7.72-9.89 14.83-18.523 21.319-8.66 6.488-19.94 12.512-33.843 18.074s-30.732 11.731-50.5 18.537c-23.49 7.415-46.515 15.598-69.05 24.562-22.563 8.95-42.648 20.853-60.259 35.682s-31.817 33.512-42.635 56.074c-10.817 22.55-16.22 51.122-16.22 85.734 0 34.597 5.708 65.95 17.147 94.074 11.413 28.11 27.487 52.207 48.195 72.293 20.696 20.073 46.025 35.684 76.001 46.806 29.964 11.122 63.49 16.683 100.563 16.683 34.598 0 70.745-4.793 108.44-14.366 37.683-9.586 67.197-28.295 108.428-28.93z"/><glyph glyph-name="T" unicode="T" horiz-adv-x="567" d="M559.562 515.954c-57.504 26.852-128.979 27.212-188.932 28.854.014-187.606 5.244-359.748 39.18-544.746H149.739c33.935 184.984 39.257 357.178 39.231 544.77-59.357-1.297-126.62.728-188.97-28.878v182.945h559.562V515.954z"/><glyph glyph-name="U" unicode="U" horiz-adv-x="749" d="M30 708.632l257.213.001c-40.013-116.849-40.596-258.1-35.843-380.006 0-20.39.768-41.244 2.317-62.562 1.536-21.317 6.183-40.635 13.903-57.927s19.94-31.367 36.624-42.172c16.684-10.818 40.16-16.22 70.427-16.22s53.61 5.403 69.975 16.22c16.366 10.805 28.586 24.866 36.623 42.172 8.011 17.28 12.83 36.624 14.367 57.927s2.317 42.171 2.317 62.562c4.78 121.88 4.184 263.236-36.068 380.005h256.511c-49.56-122.847-43.177-275.498-39.721-405.031 0-108.759-24.88-188.149-74.61-238.199-49.746-50.05-126.21-75.074-229.396-75.074-103.197 0-179.794 25.024-229.844 75.074s-75.074 129.44-75.074 238.199C73.177 433.134 79.56 585.786 30 708.632z"/><glyph glyph-name="U" unicode="Ü" horiz-adv-x="749" d="M30 708.632l257.213.001c-40.013-116.849-40.596-258.1-35.843-380.006 0-20.39.768-41.244 2.317-62.562 1.536-21.317 6.183-40.635 13.903-57.927s19.94-31.367 36.624-42.172c16.684-10.818 40.16-16.22 70.427-16.22s53.61 5.403 69.975 16.22c16.366 10.805 28.586 24.866 36.623 42.172 8.011 17.28 12.83 36.624 14.367 57.927s2.317 42.171 2.317 62.562c4.78 121.88 4.184 263.236-36.068 380.005h256.511c-49.56-122.847-43.177-275.498-39.721-405.031 0-108.759-24.88-188.149-74.61-238.199-49.746-50.05-126.21-75.074-229.396-75.074-103.197 0-179.794 25.024-229.844 75.074s-75.074 129.44-75.074 238.199C73.177 433.134 79.56 585.786 30 708.632z"/><glyph glyph-name="U" unicode="Û" horiz-adv-x="749" d="M30 708.632l257.213.001c-40.013-116.849-40.596-258.1-35.843-380.006 0-20.39.768-41.244 2.317-62.562 1.536-21.317 6.183-40.635 13.903-57.927s19.94-31.367 36.624-42.172c16.684-10.818 40.16-16.22 70.427-16.22s53.61 5.403 69.975 16.22c16.366 10.805 28.586 24.866 36.623 42.172 8.011 17.28 12.83 36.624 14.367 57.927s2.317 42.171 2.317 62.562c4.78 121.88 4.184 263.236-36.068 380.005h256.511c-49.56-122.847-43.177-275.498-39.721-405.031 0-108.759-24.88-188.149-74.61-238.199-49.746-50.05-126.21-75.074-229.396-75.074-103.197 0-179.794 25.024-229.844 75.074s-75.074 129.44-75.074 238.199C73.177 433.134 79.56 585.786 30 708.632z"/><glyph glyph-name="U" unicode="Ú" horiz-adv-x="749" d="M30 708.632l257.213.001c-40.013-116.849-40.596-258.1-35.843-380.006 0-20.39.768-41.244 2.317-62.562 1.536-21.317 6.183-40.635 13.903-57.927s19.94-31.367 36.624-42.172c16.684-10.818 40.16-16.22 70.427-16.22s53.61 5.403 69.975 16.22c16.366 10.805 28.586 24.866 36.623 42.172 8.011 17.28 12.83 36.624 14.367 57.927s2.317 42.171 2.317 62.562c4.78 121.88 4.184 263.236-36.068 380.005h256.511c-49.56-122.847-43.177-275.498-39.721-405.031 0-108.759-24.88-188.149-74.61-238.199-49.746-50.05-126.21-75.074-229.396-75.074-103.197 0-179.794 25.024-229.844 75.074s-75.074 129.44-75.074 238.199C73.177 433.134 79.56 585.786 30 708.632z"/><glyph glyph-name="U" unicode="Ù" horiz-adv-x="749" d="M30 708.632l257.213.001c-40.013-116.849-40.596-258.1-35.843-380.006 0-20.39.768-41.244 2.317-62.562 1.536-21.317 6.183-40.635 13.903-57.927s19.94-31.367 36.624-42.172c16.684-10.818 40.16-16.22 70.427-16.22s53.61 5.403 69.975 16.22c16.366 10.805 28.586 24.866 36.623 42.172 8.011 17.28 12.83 36.624 14.367 57.927s2.317 42.171 2.317 62.562c4.78 121.88 4.184 263.236-36.068 380.005h256.511c-49.56-122.847-43.177-275.498-39.721-405.031 0-108.759-24.88-188.149-74.61-238.199-49.746-50.05-126.21-75.074-229.396-75.074-103.197 0-179.794 25.024-229.844 75.074s-75.074 129.44-75.074 238.199C73.177 433.134 79.56 585.786 30 708.632z"/><glyph glyph-name="V" unicode="V" horiz-adv-x="797" d="M10 698.899l263.965-.001c21.98-158.623 67.13-275.604 123.905-425.421 57.08 149.778 102.482 266.772 124.793 425.422h263.979C647.192 482.283 560.426 244.614 479.897.059H315.594C236.044 243.806 148.841 482.786 10 698.899z"/><glyph glyph-name="W" unicode="W" horiz-adv-x="995" d="M719.413 698.899l245.377-.002C871.814 463.479 847.16 249.802 829.842.058H597.456c-11.744 179.927-41.668 234.465-94.273 346.878-52.235-112.426-87.494-207.97-93.4-346.877H177.397c-18.391 257.159-40.08 462.415-147.396 698.84h253.77c8.461-131.387 1.444-280.384 34.81-409.268C387.128 426.486 444.5 553.186 493.688 698.899h22.694c49.798-143.568 108.136-272.214 172.273-409.268 33.896 128.646 24.865 278.093 30.757 409.268z"/><glyph glyph-name="X" unicode="X" horiz-adv-x="775" d="M-25 .06C89.041 119.848 190.996 238.853 288.143 372.65 216.644 491.114 129.097 594.47 39.074 698.899h279.682c2.45-68.083 31.102-106.653 69.737-180.205 44.277 73.551 71.208 112.122 91.042 180.205h287.812C669.83 595.344 575.98 493.326 499.462 372.65 591.87 238.696 690.167 120.444 799.627.06H501.25c-27.964 95.16-47.904 136.882-102.853 228.004C332.14 136.94 305.434 90.017 271.154.06H-25z"/><glyph glyph-name="Y" unicode="Y" horiz-adv-x="747" d="M453.504 335.577c0-134.207 17.504-195.723 51.241-335.518H242.29c33.723 139.795 51.227 201.311 51.227 335.518C202.593 466.461 106.136 581.84-2 698.9h282.383c33.168-73.764 52.049-115.829 93.135-177.464 41.06 61.635 59.954 103.7 93.122 177.464h282.383C640.886 581.839 544.428 466.461 453.504 335.577z"/><glyph glyph-name="Y" unicode="Ÿ" horiz-adv-x="747" d="M453.504 335.577c0-134.207 17.504-195.723 51.241-335.518H242.29c33.723 139.795 51.227 201.311 51.227 335.518C202.593 466.461 106.136 581.84-2 698.9h282.383c33.168-73.764 52.049-115.829 93.135-177.464 41.06 61.635 59.954 103.7 93.122 177.464h282.383C640.886 581.839 544.428 466.461 453.504 335.577z"/><glyph glyph-name="Y" unicode="Ý" horiz-adv-x="747" d="M453.504 335.577c0-134.207 17.504-195.723 51.241-335.518H242.29c33.723 139.795 51.227 201.311 51.227 335.518C202.593 466.461 106.136 581.84-2 698.9h282.383c33.168-73.764 52.049-115.829 93.135-177.464 41.06 61.635 59.954 103.7 93.122 177.464h282.383C640.886 581.839 544.428 466.461 453.504 335.577z"/><glyph glyph-name="Z" unicode="Z" horiz-adv-x="694" d="M663.961 698.899L368.033 199.038s158.874-13.24 264.799 52.963c8.342 5.217-5.018-251.942-5.018-251.942H30l330.883 544.984S248.854 596.258 85.611 492.08c-3.959-2.53 0 206.818 0 206.818h578.351z"/><glyph glyph-name="bracketleft" unicode="[" horiz-adv-x="288" d="M257.076 741.946h-94.55V9.726h94.55v-99.172H30v929.624h227.076v-98.232z"/><glyph glyph-name="backslash" unicode="\" horiz-adv-x="575" d="M163.466 840.179L544.399-89.445H411.86L30.001 840.179h133.466z"/><glyph glyph-name="bracketright" unicode="]" horiz-adv-x="288" d="M30 840.179l227.99.001V-89.444H30V8.801h94.524v732.206H30v99.172z"/><glyph glyph-name="asciicircum" unicode="^" horiz-adv-x="572" d="M395.163 775.312l146.441-351.287H368.285l-82.49 216.882-82.489-216.882H30l146.428 351.287h218.735z"/><glyph glyph-name="underscore" unicode="_" horiz-adv-x="584" d="M553.667-94.993H30V20.862h523.667V-94.993z"/><glyph glyph-name="grave" unicode="`" horiz-adv-x="300" d="M136.601 835.544l132.525-162.197-77.842-57.464L30 758.616z"/><glyph glyph-name="a" unicode="a" horiz-adv-x="641" d="M610.151 487.23c-41.748-145.594-41.747-329.863.014-475.471H416.243c.079 21.132-.027 31.698-.225 52.83-37.127-45.11-84.793-67.66-145.965-67.66-34.611 0-66.429 6.343-95.466 19-29.05 12.66-54.379 30.441-76 53.295s-38.465 49.732-50.513 80.636C36.024 180.75 30 214.42 30 250.886c0 33.975 5.88 66.269 17.61 96.855 11.732 30.572 28.111 57.305 49.124 80.17 21 22.854 46.024 40.928 75.074 54.222 29.037 13.28 61.172 19.926 96.392 19.926 59.304 0 107.275-20.708 147.857-62.098.171 18.907.238 28.361.171 47.268H610.15zM412.324 207.324c5.865 12.976 8.804 26.88 8.804 41.71s-2.94 28.89-8.805 42.17c-5.865 13.269-13.598 24.867-23.17 34.758-9.587 9.878-21.014 17.61-34.294 23.172-13.294 5.561-27.342 8.341-42.17 8.341-15.453 0-29.82-2.78-43.1-8.341-13.293-5.562-24.72-13.294-34.293-23.172-9.586-9.89-17.147-21.172-22.708-33.83-5.562-12.671-8.342-26.415-8.342-41.245 0-15.452 2.78-29.818 8.342-43.098 5.561-13.294 13.135-24.88 22.708-34.758s21-17.61 34.294-23.172c13.28-5.561 27.646-8.342 43.098-8.342 14.83 0 28.877 2.78 42.171 8.342 13.28 5.562 24.707 13.281 34.293 23.172 9.573 9.878 17.293 21.317 23.172 34.293z"/><glyph glyph-name="a" unicode="å" horiz-adv-x="641" d="M610.151 487.23c-41.748-145.594-41.747-329.863.014-475.471H416.243c.079 21.132-.027 31.698-.225 52.83-37.127-45.11-84.793-67.66-145.965-67.66-34.611 0-66.429 6.343-95.466 19-29.05 12.66-54.379 30.441-76 53.295s-38.465 49.732-50.513 80.636C36.024 180.75 30 214.42 30 250.886c0 33.975 5.88 66.269 17.61 96.855 11.732 30.572 28.111 57.305 49.124 80.17 21 22.854 46.024 40.928 75.074 54.222 29.037 13.28 61.172 19.926 96.392 19.926 59.304 0 107.275-20.708 147.857-62.098.171 18.907.238 28.361.171 47.268H610.15zM412.324 207.324c5.865 12.976 8.804 26.88 8.804 41.71s-2.94 28.89-8.805 42.17c-5.865 13.269-13.598 24.867-23.17 34.758-9.587 9.878-21.014 17.61-34.294 23.172-13.294 5.561-27.342 8.341-42.17 8.341-15.453 0-29.82-2.78-43.1-8.341-13.293-5.562-24.72-13.294-34.293-23.172-9.586-9.89-17.147-21.172-22.708-33.83-5.562-12.671-8.342-26.415-8.342-41.245 0-15.452 2.78-29.818 8.342-43.098 5.561-13.294 13.135-24.88 22.708-34.758s21-17.61 34.294-23.172c13.28-5.561 27.646-8.342 43.098-8.342 14.83 0 28.877 2.78 42.171 8.342 13.28 5.562 24.707 13.281 34.293 23.172 9.573 9.878 17.293 21.317 23.172 34.293z"/><glyph glyph-name="a" unicode="ä" horiz-adv-x="641" d="M610.151 487.23c-41.748-145.594-41.747-329.863.014-475.471H416.243c.079 21.132-.027 31.698-.225 52.83-37.127-45.11-84.793-67.66-145.965-67.66-34.611 0-66.429 6.343-95.466 19-29.05 12.66-54.379 30.441-76 53.295s-38.465 49.732-50.513 80.636C36.024 180.75 30 214.42 30 250.886c0 33.975 5.88 66.269 17.61 96.855 11.732 30.572 28.111 57.305 49.124 80.17 21 22.854 46.024 40.928 75.074 54.222 29.037 13.28 61.172 19.926 96.392 19.926 59.304 0 107.275-20.708 147.857-62.098.171 18.907.238 28.361.171 47.268H610.15zM412.324 207.324c5.865 12.976 8.804 26.88 8.804 41.71s-2.94 28.89-8.805 42.17c-5.865 13.269-13.598 24.867-23.17 34.758-9.587 9.878-21.014 17.61-34.294 23.172-13.294 5.561-27.342 8.341-42.17 8.341-15.453 0-29.82-2.78-43.1-8.341-13.293-5.562-24.72-13.294-34.293-23.172-9.586-9.89-17.147-21.172-22.708-33.83-5.562-12.671-8.342-26.415-8.342-41.245 0-15.452 2.78-29.818 8.342-43.098 5.561-13.294 13.135-24.88 22.708-34.758s21-17.61 34.294-23.172c13.28-5.561 27.646-8.342 43.098-8.342 14.83 0 28.877 2.78 42.171 8.342 13.28 5.562 24.707 13.281 34.293 23.172 9.573 9.878 17.293 21.317 23.172 34.293z"/><glyph glyph-name="a" unicode="ã" horiz-adv-x="641" d="M610.151 487.23c-41.748-145.594-41.747-329.863.014-475.471H416.243c.079 21.132-.027 31.698-.225 52.83-37.127-45.11-84.793-67.66-145.965-67.66-34.611 0-66.429 6.343-95.466 19-29.05 12.66-54.379 30.441-76 53.295s-38.465 49.732-50.513 80.636C36.024 180.75 30 214.42 30 250.886c0 33.975 5.88 66.269 17.61 96.855 11.732 30.572 28.111 57.305 49.124 80.17 21 22.854 46.024 40.928 75.074 54.222 29.037 13.28 61.172 19.926 96.392 19.926 59.304 0 107.275-20.708 147.857-62.098.171 18.907.238 28.361.171 47.268H610.15zM412.324 207.324c5.865 12.976 8.804 26.88 8.804 41.71s-2.94 28.89-8.805 42.17c-5.865 13.269-13.598 24.867-23.17 34.758-9.587 9.878-21.014 17.61-34.294 23.172-13.294 5.561-27.342 8.341-42.17 8.341-15.453 0-29.82-2.78-43.1-8.341-13.293-5.562-24.72-13.294-34.293-23.172-9.586-9.89-17.147-21.172-22.708-33.83-5.562-12.671-8.342-26.415-8.342-41.245 0-15.452 2.78-29.818 8.342-43.098 5.561-13.294 13.135-24.88 22.708-34.758s21-17.61 34.294-23.172c13.28-5.561 27.646-8.342 43.098-8.342 14.83 0 28.877 2.78 42.171 8.342 13.28 5.562 24.707 13.281 34.293 23.172 9.573 9.878 17.293 21.317 23.172 34.293z"/><glyph glyph-name="a" unicode="â" horiz-adv-x="641" d="M610.151 487.23c-41.748-145.594-41.747-329.863.014-475.471H416.243c.079 21.132-.027 31.698-.225 52.83-37.127-45.11-84.793-67.66-145.965-67.66-34.611 0-66.429 6.343-95.466 19-29.05 12.66-54.379 30.441-76 53.295s-38.465 49.732-50.513 80.636C36.024 180.75 30 214.42 30 250.886c0 33.975 5.88 66.269 17.61 96.855 11.732 30.572 28.111 57.305 49.124 80.17 21 22.854 46.024 40.928 75.074 54.222 29.037 13.28 61.172 19.926 96.392 19.926 59.304 0 107.275-20.708 147.857-62.098.171 18.907.238 28.361.171 47.268H610.15zM412.324 207.324c5.865 12.976 8.804 26.88 8.804 41.71s-2.94 28.89-8.805 42.17c-5.865 13.269-13.598 24.867-23.17 34.758-9.587 9.878-21.014 17.61-34.294 23.172-13.294 5.561-27.342 8.341-42.17 8.341-15.453 0-29.82-2.78-43.1-8.341-13.293-5.562-24.72-13.294-34.293-23.172-9.586-9.89-17.147-21.172-22.708-33.83-5.562-12.671-8.342-26.415-8.342-41.245 0-15.452 2.78-29.818 8.342-43.098 5.561-13.294 13.135-24.88 22.708-34.758s21-17.61 34.294-23.172c13.28-5.561 27.646-8.342 43.098-8.342 14.83 0 28.877 2.78 42.171 8.342 13.28 5.562 24.707 13.281 34.293 23.172 9.573 9.878 17.293 21.317 23.172 34.293z"/><glyph glyph-name="a" unicode="á" horiz-adv-x="641" d="M610.151 487.23c-41.748-145.594-41.747-329.863.014-475.471H416.243c.079 21.132-.027 31.698-.225 52.83-37.127-45.11-84.793-67.66-145.965-67.66-34.611 0-66.429 6.343-95.466 19-29.05 12.66-54.379 30.441-76 53.295s-38.465 49.732-50.513 80.636C36.024 180.75 30 214.42 30 250.886c0 33.975 5.88 66.269 17.61 96.855 11.732 30.572 28.111 57.305 49.124 80.17 21 22.854 46.024 40.928 75.074 54.222 29.037 13.28 61.172 19.926 96.392 19.926 59.304 0 107.275-20.708 147.857-62.098.171 18.907.238 28.361.171 47.268H610.15zM412.324 207.324c5.865 12.976 8.804 26.88 8.804 41.71s-2.94 28.89-8.805 42.17c-5.865 13.269-13.598 24.867-23.17 34.758-9.587 9.878-21.014 17.61-34.294 23.172-13.294 5.561-27.342 8.341-42.17 8.341-15.453 0-29.82-2.78-43.1-8.341-13.293-5.562-24.72-13.294-34.293-23.172-9.586-9.89-17.147-21.172-22.708-33.83-5.562-12.671-8.342-26.415-8.342-41.245 0-15.452 2.78-29.818 8.342-43.098 5.561-13.294 13.135-24.88 22.708-34.758s21-17.61 34.294-23.172c13.28-5.561 27.646-8.342 43.098-8.342 14.83 0 28.877 2.78 42.171 8.342 13.28 5.562 24.707 13.281 34.293 23.172 9.573 9.878 17.293 21.317 23.172 34.293z"/><glyph glyph-name="a" unicode="à" horiz-adv-x="641" d="M610.151 487.23c-41.748-145.594-41.747-329.863.014-475.471H416.243c.079 21.132-.027 31.698-.225 52.83-37.127-45.11-84.793-67.66-145.965-67.66-34.611 0-66.429 6.343-95.466 19-29.05 12.66-54.379 30.441-76 53.295s-38.465 49.732-50.513 80.636C36.024 180.75 30 214.42 30 250.886c0 33.975 5.88 66.269 17.61 96.855 11.732 30.572 28.111 57.305 49.124 80.17 21 22.854 46.024 40.928 75.074 54.222 29.037 13.28 61.172 19.926 96.392 19.926 59.304 0 107.275-20.708 147.857-62.098.171 18.907.238 28.361.171 47.268H610.15zM412.324 207.324c5.865 12.976 8.804 26.88 8.804 41.71s-2.94 28.89-8.805 42.17c-5.865 13.269-13.598 24.867-23.17 34.758-9.587 9.878-21.014 17.61-34.294 23.172-13.294 5.561-27.342 8.341-42.17 8.341-15.453 0-29.82-2.78-43.1-8.341-13.293-5.562-24.72-13.294-34.293-23.172-9.586-9.89-17.147-21.172-22.708-33.83-5.562-12.671-8.342-26.415-8.342-41.245 0-15.452 2.78-29.818 8.342-43.098 5.561-13.294 13.135-24.88 22.708-34.758s21-17.61 34.294-23.172c13.28-5.561 27.646-8.342 43.098-8.342 14.83 0 28.877 2.78 42.171 8.342 13.28 5.562 24.707 13.281 34.293 23.172 9.573 9.878 17.293 21.317 23.172 34.293z"/><glyph glyph-name="b" unicode="b" horiz-adv-x="641" d="M593.137 348.694c11.744-30.572 17.608-63.185 17.595-97.782 0-35.22-6.025-68.281-18.074-99.172-12.048-30.903-28.89-57.782-50.512-80.636-21.635-22.866-47.123-40.94-76.464-54.22-29.355-13.28-61.027-19.926-95.002-19.926-61.794 0-109.09 22.549-147.13 67.659-.08-21.132-.093-31.698-.014-52.83H30.25c31.791 260.589 28.852 508.917-.25 769.28h219.462c-32.267-146.865-43.654-204.647-35.193-341.08 35.75 41.391 91.122 62.1 155.564 62.1 38.265 0 70.228-6.647 99.57-19.927 29.327-13.28 54.378-31.208 75.073-53.757s36.93-49.123 48.66-79.71zM426.768 207.35c5.879 12.963 8.82 26.559 8.793 40.78 0 14.828-2.78 28.876-8.342 42.17-5.561 13.28-13.201 24.88-23.158 34.757-9.943 9.878-21.621 17.756-35.034 23.635-13.413 5.865-28.282 8.804-44.278 8.804-15.359 0-29.619-2.78-42.568-8.341s-23.833-13.294-32.823-23.172c-9.004-9.89-16.127-21.477-21.556-34.757-5.455-13.294-8.209-27.342-8.116-42.17s2.86-28.732 8.382-41.708c5.534-12.976 13.174-24.257 23.064-33.83 9.878-9.586 21.464-17.306 34.758-23.17 13.28-5.88 27.342-8.806 42.171-8.806s28.731 2.78 41.707 8.342 24.243 13.281 33.83 23.172c9.572 9.878 17.305 21.331 23.17 34.294z"/><glyph glyph-name="c" unicode="c" horiz-adv-x="551" d="M426.689 191.515l93.418-168.234-27.315-4.926c-41.285-7.441-62.006-14.75-80.279-21.184-23.687-8.369-44.144-15.584-94.618-18.126-3.628-.186-7.27-.279-10.924-.279-30.652 0-62.655 6.342-97.81 19.398-34.266 12.724-64.957 30.93-91.2 54.141-26.296 23.224-47.693 51.188-63.622 83.124-16.14 32.4-24.337 68.176-24.337 106.322 0 38.133 8.078 73.698 23.993 105.7 15.73 31.592 37.073 59.199 63.448 82.065 26.19 22.734 56.962 40.715 91.44 53.426 34.267 12.631 70.639 19.08 108.136 19.132C351.1 501.32 397.68 488 435.1 477.301c20.297-5.812 37.827-10.817 47.082-12.009l28.07-3.628-92.247-179.278-12.843 12.883c-3.642 3.614-89.679 88.182-164.66 20.694-9.878-8.897-17.915-20.072-23.86-33.22-5.76-12.71-8.686-26.705-8.686-41.6 0-15.307 2.926-29.502 8.685-42.2 5.826-12.87 14.01-24.19 24.323-33.645 10.5-9.626 23.026-17.318 37.273-22.852 14.26-5.562 29.977-8.368 46.752-8.368 36.146 0 51.704 9.388 83.098 39.55z"/><glyph glyph-name="c" unicode="ç" horiz-adv-x="551" d="M426.689 191.515l93.418-168.234-27.315-4.926c-41.285-7.441-62.006-14.75-80.279-21.184-23.687-8.369-44.144-15.584-94.618-18.126-3.628-.186-7.27-.279-10.924-.279-30.652 0-62.655 6.342-97.81 19.398-34.266 12.724-64.957 30.93-91.2 54.141-26.296 23.224-47.693 51.188-63.622 83.124-16.14 32.4-24.337 68.176-24.337 106.322 0 38.133 8.078 73.698 23.993 105.7 15.73 31.592 37.073 59.199 63.448 82.065 26.19 22.734 56.962 40.715 91.44 53.426 34.267 12.631 70.639 19.08 108.136 19.132C351.1 501.32 397.68 488 435.1 477.301c20.297-5.812 37.827-10.817 47.082-12.009l28.07-3.628-92.247-179.278-12.843 12.883c-3.642 3.614-89.679 88.182-164.66 20.694-9.878-8.897-17.915-20.072-23.86-33.22-5.76-12.71-8.686-26.705-8.686-41.6 0-15.307 2.926-29.502 8.685-42.2 5.826-12.87 14.01-24.19 24.323-33.645 10.5-9.626 23.026-17.318 37.273-22.852 14.26-5.562 29.977-8.368 46.752-8.368 36.146 0 51.704 9.388 83.098 39.55z"/><glyph glyph-name="d" unicode="d" horiz-adv-x="641" d="M610.727 781.066c-29.102-260.363-32.044-508.692-.24-769.281h-194.28c.094 21.132.067 31.698 0 52.83-37.973-45.11-84.977-67.66-146.148-67.66-34.612 0-66.429 6.49-95.466 19.465-29.05 12.975-54.379 30.903-76.001 53.757s-38.464 49.732-50.513 80.635c-12.049 30.89-18.073 64.257-18.073 100.1 0 33.976 5.707 66.27 17.147 96.856 11.426 30.586 27.646 57.306 48.659 80.172 21 22.853 46.183 40.927 75.538 54.22 29.34 13.28 61.635 19.927 96.854 19.927 59.319 0 108.441-20.708 147.37-62.098 0 136.432 17.57 207.48-25.356 341.078h220.51zM412.208 207.35c5.839 12.976 8.749 26.88 8.842 41.71s-2.873 28.89-8.738 42.17c-5.866 13.269-13.598 24.867-23.171 34.758-9.586 9.878-21.013 17.61-34.293 23.172-13.294 5.561-27.342 8.341-42.171 8.341s-28.89-2.78-42.171-8.341c-13.294-5.562-24.72-13.294-34.294-23.172-9.586-9.89-17.306-21.172-23.171-33.83-5.879-12.671-8.805-26.415-8.805-41.245 0-15.452 2.78-29.818 8.342-43.098 5.562-13.294 13.135-24.88 22.708-34.758s21-17.61 34.294-23.172c13.28-5.561 27.647-8.342 43.099-8.342 14.829 0 28.877 2.78 42.17 8.342 13.28 5.562 24.708 13.281 34.294 23.172 9.573 9.878 17.212 21.318 23.065 34.293z"/><glyph glyph-name="e" unicode="e" horiz-adv-x="603" d="M473.177 175.274l99.94-105.554-4.145-3.323C567.648 65.324 463.921-16 321.903-16c-41.655 0-86.581 6.991-133.201 25.052-90.99 35.246-127.838 105.382-139.45 133.902C36.475 174.308 30 209.858 30 248.627c0 39.986 6.157 76.583 18.285 108.811 12.182 32.334 29.805 60.205 52.38 82.847 22.575 22.628 50.222 40.317 82.198 52.565 31.897 12.208 68.322 18.404 108.308 18.404 39.378 0 75.366-6.196 106.958-18.417 31.698-12.26 58.935-30.28 80.928-53.585 21.953-23.277 38.954-52.088 50.526-85.667 11.52-33.459 17.359-71.579 17.359-113.3v-22.576h-342.39c2.66-59.344 149.46-161.602 268.626-42.435zM209.979 324.96h173.666c-5.574 19.53-15.664 35.578-30.07 47.786-15.783 13.36-35.274 20.139-57.915 20.139-23.833 0-43.456-6.462-58.352-19.2-13.651-11.69-22.84-28.056-27.329-48.725z"/><glyph glyph-name="e" unicode="ë" horiz-adv-x="603" d="M473.177 175.274l99.94-105.554-4.145-3.323C567.648 65.324 463.921-16 321.903-16c-41.655 0-86.581 6.991-133.201 25.052-90.99 35.246-127.838 105.382-139.45 133.902C36.475 174.308 30 209.858 30 248.627c0 39.986 6.157 76.583 18.285 108.811 12.182 32.334 29.805 60.205 52.38 82.847 22.575 22.628 50.222 40.317 82.198 52.565 31.897 12.208 68.322 18.404 108.308 18.404 39.378 0 75.366-6.196 106.958-18.417 31.698-12.26 58.935-30.28 80.928-53.585 21.953-23.277 38.954-52.088 50.526-85.667 11.52-33.459 17.359-71.579 17.359-113.3v-22.576h-342.39c2.66-59.344 149.46-161.602 268.626-42.435zM209.979 324.96h173.666c-5.574 19.53-15.664 35.578-30.07 47.786-15.783 13.36-35.274 20.139-57.915 20.139-23.833 0-43.456-6.462-58.352-19.2-13.651-11.69-22.84-28.056-27.329-48.725z"/><glyph glyph-name="e" unicode="ê" horiz-adv-x="603" d="M473.177 175.274l99.94-105.554-4.145-3.323C567.648 65.324 463.921-16 321.903-16c-41.655 0-86.581 6.991-133.201 25.052-90.99 35.246-127.838 105.382-139.45 133.902C36.475 174.308 30 209.858 30 248.627c0 39.986 6.157 76.583 18.285 108.811 12.182 32.334 29.805 60.205 52.38 82.847 22.575 22.628 50.222 40.317 82.198 52.565 31.897 12.208 68.322 18.404 108.308 18.404 39.378 0 75.366-6.196 106.958-18.417 31.698-12.26 58.935-30.28 80.928-53.585 21.953-23.277 38.954-52.088 50.526-85.667 11.52-33.459 17.359-71.579 17.359-113.3v-22.576h-342.39c2.66-59.344 149.46-161.602 268.626-42.435zM209.979 324.96h173.666c-5.574 19.53-15.664 35.578-30.07 47.786-15.783 13.36-35.274 20.139-57.915 20.139-23.833 0-43.456-6.462-58.352-19.2-13.651-11.69-22.84-28.056-27.329-48.725z"/><glyph glyph-name="e" unicode="é" horiz-adv-x="603" d="M473.177 175.274l99.94-105.554-4.145-3.323C567.648 65.324 463.921-16 321.903-16c-41.655 0-86.581 6.991-133.201 25.052-90.99 35.246-127.838 105.382-139.45 133.902C36.475 174.308 30 209.858 30 248.627c0 39.986 6.157 76.583 18.285 108.811 12.182 32.334 29.805 60.205 52.38 82.847 22.575 22.628 50.222 40.317 82.198 52.565 31.897 12.208 68.322 18.404 108.308 18.404 39.378 0 75.366-6.196 106.958-18.417 31.698-12.26 58.935-30.28 80.928-53.585 21.953-23.277 38.954-52.088 50.526-85.667 11.52-33.459 17.359-71.579 17.359-113.3v-22.576h-342.39c2.66-59.344 149.46-161.602 268.626-42.435zM209.979 324.96h173.666c-5.574 19.53-15.664 35.578-30.07 47.786-15.783 13.36-35.274 20.139-57.915 20.139-23.833 0-43.456-6.462-58.352-19.2-13.651-11.69-22.84-28.056-27.329-48.725z"/><glyph glyph-name="e" unicode="è" horiz-adv-x="603" d="M473.177 175.274l99.94-105.554-4.145-3.323C567.648 65.324 463.921-16 321.903-16c-41.655 0-86.581 6.991-133.201 25.052-90.99 35.246-127.838 105.382-139.45 133.902C36.475 174.308 30 209.858 30 248.627c0 39.986 6.157 76.583 18.285 108.811 12.182 32.334 29.805 60.205 52.38 82.847 22.575 22.628 50.222 40.317 82.198 52.565 31.897 12.208 68.322 18.404 108.308 18.404 39.378 0 75.366-6.196 106.958-18.417 31.698-12.26 58.935-30.28 80.928-53.585 21.953-23.277 38.954-52.088 50.526-85.667 11.52-33.459 17.359-71.579 17.359-113.3v-22.576h-342.39c2.66-59.344 149.46-161.602 268.626-42.435zM209.979 324.96h173.666c-5.574 19.53-15.664 35.578-30.07 47.786-15.783 13.36-35.274 20.139-57.915 20.139-23.833 0-43.456-6.462-58.352-19.2-13.651-11.69-22.84-28.056-27.329-48.725z"/><glyph glyph-name="f" unicode="f" horiz-adv-x="485" d="M333.329 627.019c-5.045-7.494-10.129-16.55-12.26-29.183-1.497-9.043-7.071-56.444-10.143-90.75 44.237 3.706 89.123 10.764 135.81 21.264V342.98c-49.176 11.056-96.34 18.259-142.866 21.794-.914-91.162 6.99-224.985 52.855-353.181 1.284-3.588-121.549 0-221.105 0 9.242 71.327 13.81 224.799 16.035 351.312-39.709-3.96-79.973-10.553-121.655-19.927v185.37c42.318-9.52 83.178-16.18 123.456-20.125.212 26.733.265 44.846.265 50.208 0 39.536 3.68 71.075 10.884 94.537 6.077 19.729 15.73 38.147 29.036 55.148 13.294 16.987 28.865 31.658 46.714 44.025 17.835 12.354 37.047 21.927 57.597 28.733 20.55 6.791 40.834 9.652 60.774 10.195 76.332 2.092 146.44-24.39 146.44-24.39-38.873-52.963-44.01-81.086-44.01-139.662-10.885 5.562-96.22 46.979-127.826.001z"/><glyph glyph-name="g" unicode="g" horiz-adv-x="659" d="M435.785 489.085l192.858.002c-19.821-151.513-26.256-290.274-26.256-443.031 0-26.574-1.549-50.367-4.634-71.367-3.085-20.987-7.335-39.71-12.975-55.612-7.19-20.297-19-39.39-34.756-57s-34.756-32.904-57-45.88-47.428-23.17-75.537-30.585c-28.123-7.415-58.55-11.122-91.294-11.122-37.074 0-70.864 5.322-101.953 13.902C126.496-184.624 73.533-78.7 29.998-17.368h215.557c-13.135-48.09 38.305-73.75 79.708-73.75 35.22 0 62.244 9.89 81.098 29.66 18.842 19.78 28.27 47.268 28.27 82.487v45.415C422.264 54.7 410.374 44.97 398.947 37.25c-11.44-7.732-23.025-14.061-34.756-19-11.745-4.938-24.098-8.487-37.074-10.66-12.975-2.157-27.196-3.243-42.634-3.243-33.989 0-65.197 5.879-93.61 17.61-28.429 11.732-52.99 28.11-73.685 49.123-20.708 21-36.77 46.184-48.196 75.538-11.44 29.341-17.146 61.94-17.146 97.782 0 36.452 6.17 70.282 18.537 101.49 12.353 31.195 29.195 58.391 50.513 81.562s46.646 41.39 76 54.684c29.341 13.28 61.318 19.926 95.93 19.926 56.219 0 101.833-21.012 142.893-63.025.133 20.02.16 30.03.067 50.049zm-1.62-278.515c5.865 13.28 8.803 27.342 8.803 42.17 0 15.44-3.085 29.66-8.938 42.636s-13.625 24.402-23.503 34.293c-9.89 9.878-21.476 17.61-34.756 23.172-13.294 5.561-27.039 8.341-41.246 8.341-14.829 0-28.731-2.94-41.707-8.804-12.975-5.88-24.415-13.599-34.293-23.172-9.89-9.586-17.768-20.867-23.633-33.83-5.866-12.976-8.805-26.878-8.805-41.707 0-15.452 2.78-29.819 8.342-43.099 5.561-13.294 13.122-24.88 22.708-34.758 9.573-9.89 21-17.61 34.294-23.172 13.28-5.561 27.646-8.341 43.098-8.341 14.83 0 28.877 2.78 42.171 8.341 13.28 5.562 24.707 13.282 34.293 23.172 9.573 9.878 17.293 21.464 23.172 34.758z"/><glyph glyph-name="h" unicode="h" horiz-adv-x="628" d="M571.145 313.938c0-120.701-24.041-208.87 26.3-301.793h-222.55s1.973 2.304 4.873 7.176c33.869 88.261 61.33 270.89-.478 325.203-14.829 12.975-32.756 19.464-53.756 19.464-28.428 0-51.48-7.442-65.343-25.489-57.425-74.77-41.298-214.087-4.833-306.348 7.296-13.956 13.611-19.994 13.611-19.994H30.055c45.56 265.646 45.415 503.991-.054 768.91h207.48c-8.235-133.36-21.475-186.323-13.24-354.056 22.854 27.806 59.278 46.501 82.754 56.074 23.462 9.574 50.976 14.367 82.488 14.367 59.927 0 105.196-16.537 135.782-49.586 30.586-33.062 45.88-77.71 45.88-133.93z"/><glyph glyph-name="i" unicode="i" horiz-adv-x="282" d="M251.277 476.662c-41.152-148.149-41.152-328.514 0-476.663H30.001c41.139 148.149 26.786 317.775 0 476.663h221.276zM142.85 542.864c-54.845 0-99.305 44.46-99.305 99.305s44.46 99.304 99.305 99.304 99.305-44.46 99.305-99.304-44.46-99.305-99.305-99.305z"/><glyph glyph-name="i" unicode="ï" horiz-adv-x="282" d="M251.277 476.662c-41.152-148.149-41.152-328.514 0-476.663H30.001c41.139 148.149 26.786 317.775 0 476.663h221.276zM142.85 542.864c-54.845 0-99.305 44.46-99.305 99.305s44.46 99.304 99.305 99.304 99.305-44.46 99.305-99.304-44.46-99.305-99.305-99.305z"/><glyph glyph-name="i" unicode="î" horiz-adv-x="282" d="M251.277 476.662c-41.152-148.149-41.152-328.514 0-476.663H30.001c41.139 148.149 26.786 317.775 0 476.663h221.276zM142.85 542.864c-54.845 0-99.305 44.46-99.305 99.305s44.46 99.304 99.305 99.304 99.305-44.46 99.305-99.304-44.46-99.305-99.305-99.305z"/><glyph glyph-name="i" unicode="í" horiz-adv-x="282" d="M251.277 476.662c-41.152-148.149-41.152-328.514 0-476.663H30.001c41.139 148.149 26.786 317.775 0 476.663h221.276zM142.85 542.864c-54.845 0-99.305 44.46-99.305 99.305s44.46 99.304 99.305 99.304 99.305-44.46 99.305-99.304-44.46-99.305-99.305-99.305z"/><glyph glyph-name="i" unicode="ì" horiz-adv-x="282" d="M251.277 476.662c-41.152-148.149-41.152-328.514 0-476.663H30.001c41.139 148.149 26.786 317.775 0 476.663h221.276zM142.85 542.864c-54.845 0-99.305 44.46-99.305 99.305s44.46 99.304 99.305 99.304 99.305-44.46 99.305-99.304-44.46-99.305-99.305-99.305z"/><glyph glyph-name="j" unicode="j" horiz-adv-x="306" d="M164.898 569.24c-54.845 0-99.305 44.46-99.305 99.305s44.46 99.304 99.305 99.304 99.305-44.46 99.305-99.304-44.46-99.305-99.305-99.305zm-111.42-67.792c-1.205 3.588 128.023 0 222.032-.014-15.61-127.626-30.346-518.29-30.346-546.837 0-39.536-3.469-71.075-10.275-94.537-5.72-19.728-14.842-38.146-27.408-55.147-12.565-16.988-27.263-31.658-44.118-44.026-16.83-12.353-34.969-21.926-54.38-28.732-19.397-6.792-38.557-9.652-57.385-10.195-48.037-1.391-113.909-.98-152.599-.557l16.803 172.816C39.112-132.513 89.836-70.839 53.478 501.448z"/><glyph glyph-name="k" unicode="k" horiz-adv-x="630" d="M370.813 267.596c83.059-102.323 35.088-83.93 246.818-255.808H361.333c-53.73 77.484-63.04 116.227-137.094 193.711-10.474-74.174-10.474-113.896 11.758-193.71H29.999c29.87 261.118 29.83 508.532 0 769.279h205.998c-31.83-158.676-27.488-311.896-11.758-465.275 70.44 68.586 108.692 80.344 135.174 173.028h241.218c8.924-.98 17.61-1.563 25.911-1.563-114.77-87.865-175.398-131.797-255.729-219.662z"/><glyph glyph-name="l" unicode="l" horiz-adv-x="281" d="M250.721 781.066c-29.845-260.747-29.871-508.161 0-769.279H29.999c29.871 261.118 29.831 508.532 0 769.279h220.722z"/><glyph glyph-name="m" unicode="m" horiz-adv-x="918" d="M887.463 18.248l-212.364.001c15.2 93.055 18.126 140.694 18.126 234.491 0 24.098-1.708 43.866-5.098 59.318-3.39 15.439-8.341 27.488-14.83 36.147-6.488 8.646-14.075 14.525-22.708 17.61-8.646 3.085-17.927 4.634-27.805 4.634-53.757 0-80.636-39.245-80.636-117.709 0-93.664-10.698-141.317 13.148-234.12H359.282s1.536 1.574 3.947 4.461c34.624 77.444 9.612 273.684 6.527 289.439-3.099 15.756-7.574 28.269-13.44 37.537-5.879 9.269-13.44 15.61-22.708 19-9.255 3.403-19.966 5.098-32.334 5.098-10.512 0-20.456-1.55-29.75-4.634-9.31-3.099-17.44-9.123-24.523-18.073-7.097-8.964-12.724-21.318-16.736-37.073-4.025-15.756-6.024-36.306-6.024-61.635 0-93.797-10.593-141.437 18.126-234.491H30c39.986 147.275 42.886 328.474.211 475.47h185.673c.198-23.356 1.178-35.034 3.045-58.39 46.117 43.865 102.31 65.805 159.166 65.805 70.44 0 124.197-29.66 161.27-88.978 37.684 59.927 91.44 89.904 161.272 89.904 22.244 0 43.244-3.244 63.025-9.733 19.769-6.488 36.756-16.683 50.977-30.586 14.207-13.902 25.488-31.975 33.83-54.22s12.513-49.122 12.513-80.635c0-123.455-9.057-175.821 26.481-308.638z"/><glyph glyph-name="n" unicode="n" horiz-adv-x="612" d="M562.393 318.545s-11.12-222.337 19.4-304.15H361.388c44.25 42.092 28.733 296.59 28.164 299.053-3.404 14.512-9.428 26.098-18.075 34.757-7.415 7.415-15.757 12.658-25.025 15.757-9.269 3.085-19.16 4.633-29.66 4.633-28.427 0-50.208-8.5-65.342-25.487-15.148-17-22.708-41.244-22.708-72.757 0 0-8.474-240.344 13.625-256.325H30.002C49.478 85.764 60.084 165.564 60.97 245.524v18.007c-.57 78.173-10.448 155.948-30.772 225.965l30.772 2.37h167.76v-60.245c22.853 27.806 46.024 46.488 69.513 56.074 23.476 9.574 50.977 14.367 82.49 14.367 33.366 0 61.94-5.416 85.732-16.22 23.78-10.818 44.025-26.11 60.71-45.88 13.584-16.073 22.853-33.988 27.805-53.757 4.938-19.781 7.414-42.33 7.414-67.66z"/><glyph glyph-name="n" unicode="ñ" horiz-adv-x="612" d="M562.393 318.545s-11.12-222.337 19.4-304.15H361.388c44.25 42.092 28.733 296.59 28.164 299.053-3.404 14.512-9.428 26.098-18.075 34.757-7.415 7.415-15.757 12.658-25.025 15.757-9.269 3.085-19.16 4.633-29.66 4.633-28.427 0-50.208-8.5-65.342-25.487-15.148-17-22.708-41.244-22.708-72.757 0 0-8.474-240.344 13.625-256.325H30.002C49.478 85.764 60.084 165.564 60.97 245.524v18.007c-.57 78.173-10.448 155.948-30.772 225.965l30.772 2.37h167.76v-60.245c22.853 27.806 46.024 46.488 69.513 56.074 23.476 9.574 50.977 14.367 82.49 14.367 33.366 0 61.94-5.416 85.732-16.22 23.78-10.818 44.025-26.11 60.71-45.88 13.584-16.073 22.853-33.988 27.805-53.757 4.938-19.781 7.414-42.33 7.414-67.66z"/><glyph glyph-name="o" unicode="o" horiz-adv-x="598" d="M546.285 349.595c14.194-31.208 21.305-65.658 21.318-103.341 0-37.696-7.27-72.162-21.78-103.344-14.526-31.208-34.453-58.087-59.782-80.636-25.343-22.562-55.77-40.013-91.294-52.367C359.21-2.446 320.745-8.63 279.354-8.63c-40.781 0-78.477 6.184-113.075 18.537-34.611 12.354-64.416 29.964-89.44 52.83-25.025 22.854-44.648 50.196-58.855 82.026C3.764 176.58-3.333 211.959-3.333 250.887c0 35.22 7.096 68.123 21.317 98.709 14.207 30.585 33.976 57.146 59.319 79.709 25.329 22.548 55.45 40.317 90.367 53.293 34.902 12.975 73.061 19.463 114.465 19.463 40.781 0 78.623-6.341 113.538-19 34.902-12.67 65.183-30.28 90.83-52.83 25.635-22.562 45.561-49.441 59.782-80.636zM381.757 205.009c5.865 13.28 8.805 27.645 8.805 43.098 0 14.829-2.94 28.877-8.805 42.17-5.879 13.28-13.599 24.867-23.172 34.757-9.586 9.878-21.013 17.61-34.293 23.172-13.294 5.562-27.342 8.342-42.17 8.342s-28.891-2.78-42.172-8.342c-13.294-5.561-24.72-13.294-34.294-23.172-9.586-9.89-17.305-21.317-23.17-34.293-5.88-12.975-8.805-26.877-8.805-41.707 0-16.074 2.926-30.745 8.804-44.025 5.866-13.294 13.585-24.88 23.171-34.758 9.574-9.89 21-17.61 34.294-23.172 13.28-5.561 27.342-8.341 42.171-8.341s28.877 2.78 42.171 8.341c13.28 5.562 24.707 13.282 34.293 23.172 9.573 9.878 17.293 21.464 23.172 34.758z"/><glyph glyph-name="o" unicode="ø" horiz-adv-x="598" d="M546.285 349.595c14.194-31.208 21.305-65.658 21.318-103.341 0-37.696-7.27-72.162-21.78-103.344-14.526-31.208-34.453-58.087-59.782-80.636-25.343-22.562-55.77-40.013-91.294-52.367C359.21-2.446 320.745-8.63 279.354-8.63c-40.781 0-78.477 6.184-113.075 18.537-34.611 12.354-64.416 29.964-89.44 52.83-25.025 22.854-44.648 50.196-58.855 82.026C3.764 176.58-3.333 211.959-3.333 250.887c0 35.22 7.096 68.123 21.317 98.709 14.207 30.585 33.976 57.146 59.319 79.709 25.329 22.548 55.45 40.317 90.367 53.293 34.902 12.975 73.061 19.463 114.465 19.463 40.781 0 78.623-6.341 113.538-19 34.902-12.67 65.183-30.28 90.83-52.83 25.635-22.562 45.561-49.441 59.782-80.636zM381.757 205.009c5.865 13.28 8.805 27.645 8.805 43.098 0 14.829-2.94 28.877-8.805 42.17-5.879 13.28-13.599 24.867-23.172 34.757-9.586 9.878-21.013 17.61-34.293 23.172-13.294 5.562-27.342 8.342-42.17 8.342s-28.891-2.78-42.172-8.342c-13.294-5.561-24.72-13.294-34.294-23.172-9.586-9.89-17.305-21.317-23.17-34.293-5.88-12.975-8.805-26.877-8.805-41.707 0-16.074 2.926-30.745 8.804-44.025 5.866-13.294 13.585-24.88 23.171-34.758 9.574-9.89 21-17.61 34.294-23.172 13.28-5.561 27.342-8.341 42.171-8.341s28.877 2.78 42.171 8.341c13.28 5.562 24.707 13.282 34.293 23.172 9.573 9.878 17.293 21.464 23.172 34.758z"/><glyph glyph-name="o" unicode="ö" horiz-adv-x="598" d="M546.285 349.595c14.194-31.208 21.305-65.658 21.318-103.341 0-37.696-7.27-72.162-21.78-103.344-14.526-31.208-34.453-58.087-59.782-80.636-25.343-22.562-55.77-40.013-91.294-52.367C359.21-2.446 320.745-8.63 279.354-8.63c-40.781 0-78.477 6.184-113.075 18.537-34.611 12.354-64.416 29.964-89.44 52.83-25.025 22.854-44.648 50.196-58.855 82.026C3.764 176.58-3.333 211.959-3.333 250.887c0 35.22 7.096 68.123 21.317 98.709 14.207 30.585 33.976 57.146 59.319 79.709 25.329 22.548 55.45 40.317 90.367 53.293 34.902 12.975 73.061 19.463 114.465 19.463 40.781 0 78.623-6.341 113.538-19 34.902-12.67 65.183-30.28 90.83-52.83 25.635-22.562 45.561-49.441 59.782-80.636zM381.757 205.009c5.865 13.28 8.805 27.645 8.805 43.098 0 14.829-2.94 28.877-8.805 42.17-5.879 13.28-13.599 24.867-23.172 34.757-9.586 9.878-21.013 17.61-34.293 23.172-13.294 5.562-27.342 8.342-42.17 8.342s-28.891-2.78-42.172-8.342c-13.294-5.561-24.72-13.294-34.294-23.172-9.586-9.89-17.305-21.317-23.17-34.293-5.88-12.975-8.805-26.877-8.805-41.707 0-16.074 2.926-30.745 8.804-44.025 5.866-13.294 13.585-24.88 23.171-34.758 9.574-9.89 21-17.61 34.294-23.172 13.28-5.561 27.342-8.341 42.171-8.341s28.877 2.78 42.171 8.341c13.28 5.562 24.707 13.282 34.293 23.172 9.573 9.878 17.293 21.464 23.172 34.758z"/><glyph glyph-name="o" unicode="õ" horiz-adv-x="598" d="M546.285 349.595c14.194-31.208 21.305-65.658 21.318-103.341 0-37.696-7.27-72.162-21.78-103.344-14.526-31.208-34.453-58.087-59.782-80.636-25.343-22.562-55.77-40.013-91.294-52.367C359.21-2.446 320.745-8.63 279.354-8.63c-40.781 0-78.477 6.184-113.075 18.537-34.611 12.354-64.416 29.964-89.44 52.83-25.025 22.854-44.648 50.196-58.855 82.026C3.764 176.58-3.333 211.959-3.333 250.887c0 35.22 7.096 68.123 21.317 98.709 14.207 30.585 33.976 57.146 59.319 79.709 25.329 22.548 55.45 40.317 90.367 53.293 34.902 12.975 73.061 19.463 114.465 19.463 40.781 0 78.623-6.341 113.538-19 34.902-12.67 65.183-30.28 90.83-52.83 25.635-22.562 45.561-49.441 59.782-80.636zM381.757 205.009c5.865 13.28 8.805 27.645 8.805 43.098 0 14.829-2.94 28.877-8.805 42.17-5.879 13.28-13.599 24.867-23.172 34.757-9.586 9.878-21.013 17.61-34.293 23.172-13.294 5.562-27.342 8.342-42.17 8.342s-28.891-2.78-42.172-8.342c-13.294-5.561-24.72-13.294-34.294-23.172-9.586-9.89-17.305-21.317-23.17-34.293-5.88-12.975-8.805-26.877-8.805-41.707 0-16.074 2.926-30.745 8.804-44.025 5.866-13.294 13.585-24.88 23.171-34.758 9.574-9.89 21-17.61 34.294-23.172 13.28-5.561 27.342-8.341 42.171-8.341s28.877 2.78 42.171 8.341c13.28 5.562 24.707 13.282 34.293 23.172 9.573 9.878 17.293 21.464 23.172 34.758z"/><glyph glyph-name="o" unicode="ô" horiz-adv-x="598" d="M546.285 349.595c14.194-31.208 21.305-65.658 21.318-103.341 0-37.696-7.27-72.162-21.78-103.344-14.526-31.208-34.453-58.087-59.782-80.636-25.343-22.562-55.77-40.013-91.294-52.367C359.21-2.446 320.745-8.63 279.354-8.63c-40.781 0-78.477 6.184-113.075 18.537-34.611 12.354-64.416 29.964-89.44 52.83-25.025 22.854-44.648 50.196-58.855 82.026C3.764 176.58-3.333 211.959-3.333 250.887c0 35.22 7.096 68.123 21.317 98.709 14.207 30.585 33.976 57.146 59.319 79.709 25.329 22.548 55.45 40.317 90.367 53.293 34.902 12.975 73.061 19.463 114.465 19.463 40.781 0 78.623-6.341 113.538-19 34.902-12.67 65.183-30.28 90.83-52.83 25.635-22.562 45.561-49.441 59.782-80.636zM381.757 205.009c5.865 13.28 8.805 27.645 8.805 43.098 0 14.829-2.94 28.877-8.805 42.17-5.879 13.28-13.599 24.867-23.172 34.757-9.586 9.878-21.013 17.61-34.293 23.172-13.294 5.562-27.342 8.342-42.17 8.342s-28.891-2.78-42.172-8.342c-13.294-5.561-24.72-13.294-34.294-23.172-9.586-9.89-17.305-21.317-23.17-34.293-5.88-12.975-8.805-26.877-8.805-41.707 0-16.074 2.926-30.745 8.804-44.025 5.866-13.294 13.585-24.88 23.171-34.758 9.574-9.89 21-17.61 34.294-23.172 13.28-5.561 27.342-8.341 42.171-8.341s28.877 2.78 42.171 8.341c13.28 5.562 24.707 13.282 34.293 23.172 9.573 9.878 17.293 21.464 23.172 34.758z"/><glyph glyph-name="o" unicode="ó" horiz-adv-x="598" d="M546.285 349.595c14.194-31.208 21.305-65.658 21.318-103.341 0-37.696-7.27-72.162-21.78-103.344-14.526-31.208-34.453-58.087-59.782-80.636-25.343-22.562-55.77-40.013-91.294-52.367C359.21-2.446 320.745-8.63 279.354-8.63c-40.781 0-78.477 6.184-113.075 18.537-34.611 12.354-64.416 29.964-89.44 52.83-25.025 22.854-44.648 50.196-58.855 82.026C3.764 176.58-3.333 211.959-3.333 250.887c0 35.22 7.096 68.123 21.317 98.709 14.207 30.585 33.976 57.146 59.319 79.709 25.329 22.548 55.45 40.317 90.367 53.293 34.902 12.975 73.061 19.463 114.465 19.463 40.781 0 78.623-6.341 113.538-19 34.902-12.67 65.183-30.28 90.83-52.83 25.635-22.562 45.561-49.441 59.782-80.636zM381.757 205.009c5.865 13.28 8.805 27.645 8.805 43.098 0 14.829-2.94 28.877-8.805 42.17-5.879 13.28-13.599 24.867-23.172 34.757-9.586 9.878-21.013 17.61-34.293 23.172-13.294 5.562-27.342 8.342-42.17 8.342s-28.891-2.78-42.172-8.342c-13.294-5.561-24.72-13.294-34.294-23.172-9.586-9.89-17.305-21.317-23.17-34.293-5.88-12.975-8.805-26.877-8.805-41.707 0-16.074 2.926-30.745 8.804-44.025 5.866-13.294 13.585-24.88 23.171-34.758 9.574-9.89 21-17.61 34.294-23.172 13.28-5.561 27.342-8.341 42.171-8.341s28.877 2.78 42.171 8.341c13.28 5.562 24.707 13.282 34.293 23.172 9.573 9.878 17.293 21.464 23.172 34.758z"/><glyph glyph-name="o" unicode="ò" horiz-adv-x="598" d="M546.285 349.595c14.194-31.208 21.305-65.658 21.318-103.341 0-37.696-7.27-72.162-21.78-103.344-14.526-31.208-34.453-58.087-59.782-80.636-25.343-22.562-55.77-40.013-91.294-52.367C359.21-2.446 320.745-8.63 279.354-8.63c-40.781 0-78.477 6.184-113.075 18.537-34.611 12.354-64.416 29.964-89.44 52.83-25.025 22.854-44.648 50.196-58.855 82.026C3.764 176.58-3.333 211.959-3.333 250.887c0 35.22 7.096 68.123 21.317 98.709 14.207 30.585 33.976 57.146 59.319 79.709 25.329 22.548 55.45 40.317 90.367 53.293 34.902 12.975 73.061 19.463 114.465 19.463 40.781 0 78.623-6.341 113.538-19 34.902-12.67 65.183-30.28 90.83-52.83 25.635-22.562 45.561-49.441 59.782-80.636zM381.757 205.009c5.865 13.28 8.805 27.645 8.805 43.098 0 14.829-2.94 28.877-8.805 42.17-5.879 13.28-13.599 24.867-23.172 34.757-9.586 9.878-21.013 17.61-34.293 23.172-13.294 5.562-27.342 8.342-42.17 8.342s-28.891-2.78-42.172-8.342c-13.294-5.561-24.72-13.294-34.294-23.172-9.586-9.89-17.305-21.317-23.17-34.293-5.88-12.975-8.805-26.877-8.805-41.707 0-16.074 2.926-30.745 8.804-44.025 5.866-13.294 13.585-24.88 23.171-34.758 9.574-9.89 21-17.61 34.294-23.172 13.28-5.561 27.342-8.341 42.171-8.341s28.877 2.78 42.171 8.341c13.28 5.562 24.707 13.282 34.293 23.172 9.573 9.878 17.293 21.464 23.172 34.758z"/><glyph glyph-name="p" unicode="p" horiz-adv-x="654" d="M605.9 347.277c12.049-30.903 18.075-63.956 18.075-99.176s-6.024-67.976-18.073-98.245c-12.049-30.281-28.732-56.855-50.05-79.709-21.317-22.866-46.5-40.781-75.538-53.757-29.05-12.975-60.96-19.476-94.736-19.476-58.988-.027-108.561 20.404-148.097 61.185 0-113.445 2.304-173.849 37.828-283.613H29.999c44.514 246.527 49.083 467.328.424 712.743h219.226c-.133-21.132-13.32-31.698-13.175-52.83 38.98 45.098 85.653 67.66 147.447 67.66 33.976 0 65.66-6.646 95-19.926 29.329-13.28 54.844-31.38 76.466-54.22s38.464-49.745 50.512-80.636zM439.997 207.32c5.879 12.963 8.818 26.558 8.805 40.778 0 14.83-2.635 28.89-7.878 42.171-5.243 13.268-12.83 24.88-22.708 34.758s-21.477 17.756-34.757 23.635c-13.294 5.865-27.66 8.804-43.099 8.804-14.829 0-28.731-2.78-41.707-8.341s-24.256-13.294-33.83-23.172c-9.586-9.89-17.173-21.477-23.011-34.757-5.866-13.294-8.964-27.342-8.964-42.17s2.78-28.732 8.341-41.708 13.282-24.257 23.172-33.83c9.878-9.586 21.464-17.306 34.758-23.17 13.28-5.88 27.342-8.806 42.171-8.806s28.731 2.78 41.707 8.342 24.243 13.281 33.83 23.172c9.572 9.878 17.305 21.331 23.17 34.294z"/><glyph glyph-name="q" unicode="q" horiz-adv-x="654" d="M623.975-225.512H378.668c35.524 109.765 37.828 170.168 37.828 283.613C376.96 17.32 327.386-3.097 268.4-3.084c-33.776 0-65.686 6.501-94.736 19.477-29.037 12.976-54.22 30.89-75.538 53.757-21.318 22.853-38.001 49.427-50.05 79.709-12.049 30.268-18.073 63.025-18.073 98.245s6.024 68.269 18.073 99.172c12.049 30.89 28.89 57.782 50.513 80.635s47.136 40.94 76.464 54.221c29.341 13.294 61.026 19.928 95.001 19.928 61.794 0 108.467-22.562 147.447-67.66.146 21.133-13.042 31.699-13.174 52.83h219.226c-48.673-245.414-44.092-466.215.422-712.742zM412.789 207.324c5.562 12.976 8.342 26.88 8.342 41.709s-3.099 28.877-8.964 42.17c-5.839 13.281-13.426 24.867-23.012 34.758-9.573 9.878-20.854 17.61-33.83 23.172s-26.878 8.341-41.707 8.341c-15.438 0-29.805-2.939-43.098-8.804-13.28-5.88-24.88-13.757-34.757-23.635s-17.465-21.49-22.708-34.758c-5.243-13.28-7.878-27.342-7.878-42.17 0-14.221 2.94-27.82 8.804-40.782 5.866-12.976 13.598-24.415 23.171-34.293 9.586-9.89 20.854-17.61 33.83-23.172s26.877-8.342 41.706-8.342 28.891 2.926 42.171 8.805c13.294 5.865 24.88 13.585 34.758 23.17 9.89 9.574 17.61 20.855 23.172 33.831z"/><glyph glyph-name="r" unicode="r" horiz-adv-x="444" d="M395.242 502.061c5.243 0 11.267-.636 18.072-1.854V339.863c-22.244 11.123-46.342 16.684-72.293 16.684-38.927 0-68.123-11.586-87.587-34.757s-29.195-57-29.195-101.489c0-81.562 18.643-126.303 29.155-203.906H29.998c39.762 147.21 43.204 328.58.305 475.471H224.24v-77.854c17.928 28.414 39.855 50.195 65.82 65.343 25.95 15.133 56.205 22.707 90.817 22.707h14.366z"/><glyph glyph-name="s" unicode="s" horiz-adv-x="524" d="M456.692 236.891c24.469-23.621 36.727-54.404 36.727-92.325 0-25.594-5.363-48.779-16.101-69.513-10.738-20.748-26.415-38.516-47.07-53.293-20.63-14.79-45.972-26.27-75.975-34.426-29.99-8.156-63.992-12.248-101.966-12.248-78.728 0-116.133 33.088-222.31 42.542l82.568 132.406c23.595-28.375 38.438-44.091 62.112-52.472 23.66-8.395 47.07-12.578 70.188-12.578 26.415 0 46.091 4.859 59.04 14.564 12.937 9.705 19.411 20.734 19.411 33.102 0 7.494-1.655 14.008-4.952 19.53-3.31 5.508-8.818 10.592-16.51 15.225-7.72 4.634-17.756 8.937-30.15 12.91-12.367 3.972-27.369 8.382-44.992 13.24-20.934 5.297-41.43 11.136-61.516 17.544-20.112 6.395-37.987 14.895-53.69 25.488-15.677 10.593-28.335 23.94-37.975 40.054-9.652 16.1-14.445 36.504-14.445 61.237 0 24.707 5.058 47.11 15.267 67.197 10.169 20.073 24.482 37.298 42.926 51.638 18.445 14.326 40.994 25.489 67.713 33.433 26.706 7.944 56.577 11.917 89.6 11.917 30.824 0 63.025-3.416 96.617-10.262 33.566-6.858 59.875-20.218 96.605-20.668l-72.135-131.97c-23.582 56.75-79.788 54.975-96.299 54.975-20.92 0-37.987-3.973-51.201-11.917-13.201-7.945-19.809-18.325-19.809-31.115 0-8.832 3.297-16.114 9.905-21.847s15.266-10.698 26.017-14.896c10.725-4.197 22.826-7.839 36.332-10.924a1201.87 1201.87 0 0040.04-9.931c52.856-14.14 91.519-33.009 116.027-56.617z"/><glyph glyph-name="t" unicode="t" horiz-adv-x="454" d="M423.512 528.542l.003-185.369c-39.84 9.493-78.292 16.127-116.16 20.072.688-116.146 7.256-232.452 20.139-351.459h-201.47c12.897 119.007 19.465 235.312 20.14 351.46-37.909-3.96-76.36-10.593-116.162-20.074v185.37c38.967-9.281 76.623-15.822 113.75-19.808-3.072 80.954-8.779 162.265-17.73 244.899h201.47c-8.938-82.635-14.657-163.945-17.716-244.898 37.087 3.985 74.743 10.512 113.736 19.807z"/><glyph glyph-name="u" unicode="u" horiz-adv-x="620" d="M589.006 502.061c-31.063-188.56-26.48-180.18-26.48-300.299 0-64.27-21.172-112.466-63.49-144.588S393.534 8.978 309.51 8.978c-84.038 0-147.223 16.074-189.54 48.196-42.33 32.122-63.488 80.318-63.488 144.588 0 120.119-2.741 170.977-26.482 300.298h220.722c-28.771-140.999-26.48-160.714-26.48-267.857 0-58.709 28.414-88.05 85.27-88.05 56.841 0 85.255 29.341 85.255 88.05 0 107.144 3.774 156.77-26.481 267.858h220.722z"/><glyph glyph-name="u" unicode="ü" horiz-adv-x="620" d="M589.006 502.061c-31.063-188.56-26.48-180.18-26.48-300.299 0-64.27-21.172-112.466-63.49-144.588S393.534 8.978 309.51 8.978c-84.038 0-147.223 16.074-189.54 48.196-42.33 32.122-63.488 80.318-63.488 144.588 0 120.119-2.741 170.977-26.482 300.298h220.722c-28.771-140.999-26.48-160.714-26.48-267.857 0-58.709 28.414-88.05 85.27-88.05 56.841 0 85.255 29.341 85.255 88.05 0 107.144 3.774 156.77-26.481 267.858h220.722z"/><glyph glyph-name="u" unicode="û" horiz-adv-x="620" d="M589.006 502.061c-31.063-188.56-26.48-180.18-26.48-300.299 0-64.27-21.172-112.466-63.49-144.588S393.534 8.978 309.51 8.978c-84.038 0-147.223 16.074-189.54 48.196-42.33 32.122-63.488 80.318-63.488 144.588 0 120.119-2.741 170.977-26.482 300.298h220.722c-28.771-140.999-26.48-160.714-26.48-267.857 0-58.709 28.414-88.05 85.27-88.05 56.841 0 85.255 29.341 85.255 88.05 0 107.144 3.774 156.77-26.481 267.858h220.722z"/><glyph glyph-name="u" unicode="ú" horiz-adv-x="620" d="M589.006 502.061c-31.063-188.56-26.48-180.18-26.48-300.299 0-64.27-21.172-112.466-63.49-144.588S393.534 8.978 309.51 8.978c-84.038 0-147.223 16.074-189.54 48.196-42.33 32.122-63.488 80.318-63.488 144.588 0 120.119-2.741 170.977-26.482 300.298h220.722c-28.771-140.999-26.48-160.714-26.48-267.857 0-58.709 28.414-88.05 85.27-88.05 56.841 0 85.255 29.341 85.255 88.05 0 107.144 3.774 156.77-26.481 267.858h220.722z"/><glyph glyph-name="u" unicode="ù" horiz-adv-x="620" d="M589.006 502.061c-31.063-188.56-26.48-180.18-26.48-300.299 0-64.27-21.172-112.466-63.49-144.588S393.534 8.978 309.51 8.978c-84.038 0-147.223 16.074-189.54 48.196-42.33 32.122-63.488 80.318-63.488 144.588 0 120.119-2.741 170.977-26.482 300.298h220.722c-28.771-140.999-26.48-160.714-26.48-267.857 0-58.709 28.414-88.05 85.27-88.05 56.841 0 85.255 29.341 85.255 88.05 0 107.144 3.774 156.77-26.481 267.858h220.722z"/><glyph glyph-name="v" unicode="v" horiz-adv-x="599" d="M388.806 502.061h219.898C508.896 350.033 435.411 190.457 357.08 26.59H254.081C176.623 190.443 104.012 349.966 4.998 502.061h221.794c43.813-97.504 38.518-146.256 80.08-243.76 42.225 97.504 37.022 146.256 81.934 243.76z"/><glyph glyph-name="w" unicode="w" horiz-adv-x="843" d="M637.632 502.061h219.887C757.711 350.032 684.226 190.456 605.895 26.589H502.896c-26.944 57.027-53.36 113.459-80.45 169.295-27.407-55.836-54.1-112.28-81.364-169.294H238.083C160.625 190.443 88.014 349.966-11 502.061h221.794c11.189-91.122 38.518-146.256 80.08-243.76 20.246 46.74 76.756 179.119 81.933 243.76H475.62c11.189-64.64 59.821-196.226 80.08-243.76 42.224 97.504 63.501 139.397 81.932 243.76z"/><glyph glyph-name="x" unicode="x" horiz-adv-x="676" d="M684.475 24.98l24.92-22.102H428.23l-3.032 8.315C404.516 67.956 389.5 94.331 353.75 142.964c-45.481-51.413-65.011-80.74-89.6-132.843l-3.429-7.242H-19L7.27 25.163c94.538 80.132 171.89 154.081 242.66 231.99-53.875 70.267-118.86 132.763-191.79 201.031l-23.357 21.86h268.162l.53-12.074c1.443-32.625 15.995-54.076 38.014-86.541 1.894-2.807 3.866-5.68 5.853-8.646 1.046 1.364 2.051 2.729 3.07 4.066 27.607 36.584 44.277 58.656 57.346 94.856l3.018 8.342H684.38l-25.938-22.232c-78.424-67.222-148.308-129.003-206.434-201.059 65.09-75.339 137.199-147.209 232.466-231.776z"/><glyph glyph-name="y" unicode="y" horiz-adv-x="654" d="M415.169 502.061l244.463.001C507.378 274.296 393.575 40.203 327.372-211.37H70.835c-6.223.424-12.354.688-18.325.688C173.768-88.206 207.04-14.456 247.928 106.404 137.448 229.515 61.407 365.205-31 502.06h246.54c10.102-96.59 48.38-146.256 101.635-243.76 46.832 97.504 87.454 157.563 97.993 243.76z"/><glyph glyph-name="y" unicode="ÿ" horiz-adv-x="654" d="M415.169 502.061l244.463.001C507.378 274.296 393.575 40.203 327.372-211.37H70.835c-6.223.424-12.354.688-18.325.688C173.768-88.206 207.04-14.456 247.928 106.404 137.448 229.515 61.407 365.205-31 502.06h246.54c10.102-96.59 48.38-146.256 101.635-243.76 46.832 97.504 87.454 157.563 97.993 243.76z"/><glyph glyph-name="y" unicode="ý" horiz-adv-x="654" d="M415.169 502.061l244.463.001C507.378 274.296 393.575 40.203 327.372-211.37H70.835c-6.223.424-12.354.688-18.325.688C173.768-88.206 207.04-14.456 247.928 106.404 137.448 229.515 61.407 365.205-31 502.06h246.54c10.102-96.59 48.38-146.256 101.635-243.76 46.832 97.504 87.454 157.563 97.993 243.76z"/><glyph glyph-name="z" unicode="z" horiz-adv-x="625" d="M551.945 187.217c7.203-4.793 11.957-7.943 1.126-174.073L552.29 1.32H30l272.11 356.914c-31.527 5.415-103.225 9.334-195.737-37.684l-6.382-3.257-6.196 3.827c-7.52 4.74-9.083 5.72-5.787 144.6l.291 12.34H594.91L354.381 154.486c40.08-.172 124.303 3.576 184.521 33.54l6.542 3.256z"/><glyph glyph-name="braceleft" unicode="{" horiz-adv-x="336" d="M209.364 425.416c-4.634-9.586-11.124-18.234-19.505-25.954-8.342-7.733-18.696-15.915-31.063-24.562 12.367-8.037 22.562-16.22 30.6-24.561 8.023-8.342 14.51-17.61 19.463-27.806s8.342-21.781 10.21-34.757c1.853-12.975 2.78-28.123 2.78-45.415V87.578c0-12.367.767-22.548 2.316-30.586 1.536-8.023 4.475-14.207 8.805-18.537 4.33-4.316 10.66-7.255 19.001-8.804 8.342-1.536 19.623-2.318 33.844-2.318h19.464V-93.156h-79.722c-24.707 0-45.733 2.635-63.025 7.878-17.306 5.257-31.526 13.904-42.636 25.952s-19.318 27.66-24.561 46.805c-5.257 19.16-7.88 42.635-7.88 70.44v175.174c0 29.038-4.33 50.196-12.962 63.49-8.66 13.28-23.488 22.085-44.488 26.415V437c38.304 7.415 57.464 33.975 57.464 79.709v175.174c0 54.366 10.645 93.148 31.976 116.319s57.61 34.757 108.904 34.757h76.942v-120.49h-18.537c-13.598 0-24.734-.622-33.367-1.853-8.659-1.244-15.293-4.024-19.926-8.34-4.634-4.33-7.733-10.514-9.269-18.538-1.549-8.037-2.316-18.537-2.316-31.513V507.442c0-19.78-.927-36-2.78-48.659-1.854-12.67-5.098-23.793-9.732-33.366z"/><glyph glyph-name="verticalbar" unicode="|" horiz-adv-x="182" d="M151.747 878.947c-16.445-350.056-16.472-682.209 0-1032.77H30c16.484 350.559 16.458 682.699 0 1032.77h121.747z"/><glyph glyph-name="braceright" unicode="}" horiz-adv-x="336" d="M260.797 453.221c8.646-13.294 23.466-22.096 44.478-26.412V312.807c-38.331-8.66-57.477-35.22-57.477-79.708V57.925c0-54.366-10.66-93.149-31.977-116.32-21.303-23.17-57.318-34.756-107.964-34.756H30.003V27.34h18.523c13.598 0 24.72.621 33.38 1.853 8.632 1.244 15.279 4.024 19.926 8.34 4.621 4.33 7.72 10.514 9.269 18.538 1.522 8.037 2.316 18.537 2.316 31.512v155.71c0 18.537 1.072 34.293 3.244 47.269s5.562 24.402 10.195 34.293c4.648 9.878 10.977 18.682 19.014 26.415 8.024 7.72 18.219 15.598 30.586 23.635-12.367 8.023-22.708 16.22-31.05 24.561s-14.83 17.61-19.477 27.806c-4.621 10.195-7.866 21.781-9.719 34.757-1.867 12.975-2.781 28.109-2.781 45.415v155.71c0 12.975-.927 23.475-2.78 31.512-1.854 8.024-5.085 14.207-9.732 18.537-4.634 4.317-11.122 7.097-19.464 8.341-8.342 1.232-19.014 1.854-31.977 1.854H30.013V842.96h79.709c47.573 0 82.489-11.281 104.733-33.83 22.244-22.563 33.366-61.636 33.366-117.246V516.709c0-29.05 4.316-50.208 12.975-63.489z"/><glyph glyph-name="asciitilde" unicode="~" horiz-adv-x="570" d="M463.763 854.081l76-44.486c-12.367-25.952-24.562-47.733-36.61-65.343s-24.562-31.831-37.538-42.636c-12.975-10.817-27.037-18.695-42.17-23.634-15.148-4.952-31.672-7.415-49.587-7.415-10.513 0-24.88 2.78-43.098 8.342-18.232 5.562-37.074 11.586-56.538 18.074s-37.856 12.513-55.148 18.075c-17.305 5.561-29.976 8.341-38 8.341-8.659 0-16.379-.926-23.17-2.78-6.806-1.853-13.135-5.257-19-10.195-5.88-4.952-11.586-11.586-17.148-19.928s-11.44-19-17.61-31.977l-74.148 49.123 21.317 46.342c14.83 32.744 33.367 57.306 55.61 73.685 22.245 16.365 49.428 24.561 81.562 24.561 11.732 0 26.88-2.78 45.416-8.341s37.537-11.586 57.001-18.075 38.001-12.367 55.612-17.61c17.61-5.257 31.354-7.879 41.245-7.879 8.646 0 16.366.768 23.172 2.316 6.792 1.537 13.12 4.317 19 8.342 5.865 4.012 11.426 9.574 16.683 16.684 5.243 7.097 10.963 15.901 17.147 26.414z"/><glyph glyph-name="nonbreakingspace" horiz-adv-x="379"/><glyph glyph-name="softhyphen" unicode="­"/><glyph glyph-name="O.alt1" unicode="" horiz-adv-x="592" d="M541.664 549.711c13.214-31.499 19.834-66.27 19.834-104.297 0-38.054-6.766-72.823-20.272-104.296-13.518-31.499-32.068-58.616-55.65-81.377-23.595-22.773-51.916-40.384-84.991-52.856-33.088-12.46-68.89-18.71-107.421-18.71-37.961 0-73.062 6.25-105.263 18.71-32.215 12.472-59.967 30.24-83.257 53.319-23.29 23.065-41.562 50.66-54.79 82.781-13.24 32.122-19.848 67.818-19.848 107.104 0 35.55 6.608 68.745 19.848 99.622 13.228 30.864 31.62 57.663 55.214 80.437 23.582 22.76 51.626 40.688 84.132 53.783 32.492 13.095 68.016 19.648 106.56 19.648 37.962 0 73.182-6.408 105.7-19.172 32.492-12.79 60.681-30.558 84.555-53.319 23.859-22.773 42.409-49.89 55.649-81.377zM388.51 403.785c5.455 13.4 8.198 27.898 8.198 43.495 0 14.962-2.741 29.129-8.196 42.555-5.469 13.4-12.658 25.09-21.57 35.074-8.923 9.957-19.555 17.769-31.922 23.383s-25.45 8.42-39.259 8.42-26.892-2.806-39.259-8.42c-12.38-5.614-23.012-13.413-31.923-23.383-8.924-9.983-16.113-21.516-21.568-34.61-5.469-13.095-8.196-27.13-8.196-42.092 0-16.22 2.713-31.023 8.195-44.422 5.455-13.426 12.644-25.117 21.568-35.074 8.911-9.984 19.543-17.769 31.923-23.383 12.367-5.614 25.45-8.421 39.259-8.421s26.878 2.807 39.258 8.42c12.367 5.615 22.999 13.4 31.923 23.384 8.91 9.957 16.1 21.648 21.569 35.074zM81.501 135.213c132.724-25.13 284.699-16.365 427.036 0V0C336.409 16.048 270.206 16.048 81.501 0v135.213z"/><glyph glyph-name="K.alt1" unicode="" horiz-adv-x="738" d="M276.805 695.937c-26.481-66.203 3.244-180.033 3.244-203.707 82.277 75.405 93.254 98.364 147.633 213.664h279.734C568.88 578.93 602.286 584.518 484.457 441.214 602.404 311.588 879.464-166.465 1011.672-271H745.654c-53.823 120.768-365.15 561.323-478.86 642.475 0-43.244-42.966-218.404 9.997-364.051 0 0-188.4-.371-246.792-.371 58.206 246.594 57.928 453.386.014 698.84 56.723 0 246.792-9.956 246.792-9.956z"/><glyph glyph-name="G.alt1" unicode="" horiz-adv-x="761" d="M361.942 420.014c170.896-46.501 369.503-33.258 369.503-33.258s-39.722-542.865 0-701.753H559.317c26.481 66.203 26.481 368.036 26.481 368.036-5.76-4.197-11.56-8.342-17.636-12.168-29.977-18.854-62.88-33.22-98.71-43.098-35.842-9.878-148.466-21.477-222.11 12.047-43.92 19.994-83.27 43.098-115.393 75.537-32.135 32.44-57.16 71.368-75.075 116.782-17.927 45.415-26.877 95.61-26.877 150.612 0 54.367 8.804 104.271 26.415 149.686s42.634 84.184 75.074 116.318c32.44 32.123 71.512 57.147 117.246 75.075 45.72 17.915 284.104 90.142 469.473-148.188l-185.37-92.685c0 52.963-17.953 68.48-43.587 85.164-25.648 16.684-54.843 25.026-87.587 25.026-27.196 0-51.903-5.098-74.148-15.293s-41.244-24.721-57-43.563c-15.755-18.854-28.123-41.562-37.073-68.123-8.964-26.574-13.44-56.233-13.44-88.977 0-29.66 3.854-57.16 11.587-82.49 7.72-25.343 19.305-47.27 34.757-65.806 15.439-18.537 34.598-32.904 57.464-43.099 22.854-10.195 75.207-13.294 91.891-9.268 16.684 4.011 31.66 10.5 44.953 19.463 13.28 8.95 24.243 20.537 32.902 34.757 8.647 14.207 14.512 31.513 17.61 51.904l-149.221-13.24s-6.647 182.415 0 180.601z"/><glyph glyph-name="N.alt1" unicode="" horiz-adv-x="780" d="M513.429 975.768c261.118-29.871 654.179-29.83 914.926.002V755.048c-179.186 20.496-524.263 26.587-699.621 18.907C694.706 550.56 696.983 226.641 735.857.001H508.78C413.077 141.61 330.813 287.706 231.018 427.275c0-142.575-1.231-284.727-4.435-427.275H30c41.417 241.456 41.311 458.06 0 698.84h228.215c92.83-144.058 177.69-287.348 277.458-427.274 0 126.501-22.244 637.1-22.244 704.202z"/><glyph glyph-name="H.alt1" unicode="" horiz-adv-x="681" d="M457.354 984.586c261.118-29.871 654.165-29.83 914.926.001V763.865c-179.186 20.496-524.263 26.587-699.621 18.907-68.335-285.11-18.523-624.414 7.124-773.954L669.84 22.31c1.205-7.441 2.343-14.83 3.628-22.31H450.02c29.592 147.104 21.41 172.949 21.41 288.249H232.052c0-115.3-3.575-154.4 21.41-288.25H30c41.642 241.523 41.522 458.008 0 698.842h223.462c-24.402-109.924-21.41-161.827-21.41-269.712H471.43c0 107.885-14.075 525.176-14.075 555.457z"/><glyph glyph-name="A.alt1" unicode="" horiz-adv-x="658" d="M55.316 135.213c132.724-25.144 430.333-16.365 572.683 0V0C455.871 16.048 244.021 16.048 55.316 0v135.213zm116.558 105.581c-28.507 12.42-53.358 29.874-74.57 52.29-21.212 22.43-37.737 48.792-49.56 79.126C35.918 402.518 30 435.566 30 471.343c0 33.34 5.772 65.024 17.292 95.027 11.506 30.003 27.58 56.232 48.195 78.675 20.603 22.43 45.15 40.16 73.658 53.201 28.494 13.028 60.033 19.556 94.59 19.556 58.206 0 105.276-20.324 145.091-60.906.16 18.55.226 27.83.16 46.38h190.28c-40.966-142.88-40.966-323.692 0-466.56h-190.28c.093 20.735-.012 31.102-.21 51.836-36.425-44.276-83.205-66.401-143.224-66.401-33.962 0-65.184 6.223-93.678 18.643zm37.286 271.012c-5.455-12.433-8.183-25.91-8.183-40.462 0-15.16 2.728-29.262 8.183-42.29 5.455-13.056 12.883-24.416 22.283-34.108s20.602-17.28 33.657-22.735c13.029-5.468 27.13-8.196 42.29-8.196 14.552 0 28.323 2.741 41.378 8.196 13.029 5.455 24.23 13.029 33.644 22.734 9.388 9.678 16.96 20.907 22.733 33.644 5.76 12.737 8.647 26.375 8.647 40.927s-2.887 28.349-8.647 41.377c-5.746 13.028-13.333 24.402-22.733 34.107-9.4 9.693-20.615 17.28-33.644 22.735-13.042 5.455-26.825 8.182-41.377 8.182-15.16 0-29.261-2.727-42.29-8.182-13.055-5.455-24.257-13.042-33.657-22.735-9.414-9.705-16.829-20.774-22.284-33.194z"/><glyph glyph-name="K.alt2" unicode="" horiz-adv-x="710" d="M445.63 422.343C563.577 292.717 615.548 92.72 747.742-11.788H481.724c-53.836 120.768-140.072 283.27-253.77 364.421 0-27.951-18.14-332.366-16.71-489.903.781-85.283 7.296-166.25 25.555-217.875.212-.596.397-1.27.61-1.854 0 0-.742.675-2.145 1.907l-937.94 24.574c0 126.5-1.324 128.964-1.324 196.067 176.127-20.152 532.591-26.64 696.695-19.61C44.201 82.326 46.69 451.792-8.815 687.024c56.737 0 246.793-9.958 246.793-9.958-26.482-66.203 3.244-180.02 3.244-203.707 82.277 75.406 93.254 98.365 147.633 213.664h279.734c-138.537-126.964-105.145-121.376-222.96-264.68z"/><glyph glyph-name="E.alt1" unicode="" horiz-adv-x="582" d="M77.322 135.213c132.724-25.144 284.7-16.365 427.036 0V0C332.23 16.048 266.028 16.048 77.322 0v135.213zM455.7 385.169l95.982-101.42-3.985-3.191c-1.271-1.02-100.907-79.14-237.325-79.14-40.013 0-83.164 6.727-127.944 24.071C95.026 259.346 59.633 326.714 48.485 354.11c-12.26 30.121-18.483 64.282-18.483 101.515 0 38.411 5.905 73.566 17.57 104.51 11.705 31.062 28.627 57.834 50.315 79.588 21.675 21.741 48.236 38.729 78.953 50.5 30.626 11.73 65.634 17.676 104.031 17.676 37.829 0 72.4-5.945 102.76-17.677 30.454-11.784 56.604-29.102 77.736-51.48 21.079-22.35 37.405-50.036 48.527-82.29 11.056-32.149 16.67-68.76 16.67-108.838v-21.689H197.667c2.556-57 143.568-155.22 258.033-40.755zM229.14 575.758c-13.121-11.241-21.94-26.972-26.256-46.806h166.818c-5.35 18.762-15.042 34.188-28.879 45.906-15.16 12.83-33.883 19.344-55.636 19.344-22.893 0-41.748-6.21-56.047-18.444z"/><glyph glyph-name="U.alt1" unicode="" horiz-adv-x="619" d="M589.019 698.125c-31.063-188.56-26.48-180.18-26.494-300.299 0-64.27-21.172-112.466-63.49-144.588s-105.501-48.196-189.526-48.196c-84.039 0-147.223 16.074-189.54 48.196-42.33 32.122-63.489 80.318-63.489 144.588 0 120.119-2.74 170.977-26.481 300.298h220.735c-28.772-140.999-26.48-160.714-26.48-267.857 0-58.709 28.414-88.05 85.269-88.05 56.842 0 85.256 29.341 85.256 88.05 0 107.144 3.773 156.77-26.482 267.858H589.02zM95.992 135.212c132.724-25.144 284.687-16.365 427.036 0V-.002c-172.128 16.048-238.33 16.048-427.036 0v135.214z"/></font>
</defs>
</svg>
